<svg xmlns="http://www.w3.org/2000/svg" width="154.684" height="154.682" viewBox="0 0 154.684 154.682">
  <g id="Grupo_61394" data-name="Grupo 61394" transform="translate(-299.034 -3579.698)">
    <g id="Grupo_61389" data-name="Grupo 61389">
      <path id="Trazado_105094" data-name="Trazado 105094" d="M376.374,3579.7q3.8,0,7.58.374t7.507,1.113q3.728.738,7.363,1.843t7.146,2.557q3.51,1.452,6.861,3.244t6.51,3.9q3.158,2.11,6.1,4.521a75.788,75.788,0,0,1,5.623,5.1q2.687,2.688,5.1,5.623t4.521,6.1q2.111,3.157,3.9,6.509t3.245,6.861q1.454,3.508,2.557,7.145t1.844,7.362q.741,3.726,1.114,7.506t.373,7.581q0,3.8-.373,7.58t-1.114,7.508q-.742,3.726-1.844,7.361t-2.557,7.146q-1.455,3.507-3.245,6.859t-3.9,6.51q-2.11,3.159-4.521,6.1a75.025,75.025,0,0,1-5.1,5.623q-2.686,2.689-5.623,5.1t-6.1,4.521q-3.159,2.112-6.51,3.9t-6.861,3.245q-3.51,1.455-7.146,2.558t-7.363,1.844q-3.725.742-7.507,1.114t-7.58.374q-3.8,0-7.58-.374t-7.507-1.114q-3.725-.744-7.362-1.844a75.718,75.718,0,0,1-7.146-2.558q-3.51-1.455-6.86-3.245t-6.51-3.9q-3.159-2.109-6.1-4.521t-5.624-5.1q-2.686-2.687-5.1-5.623a74.764,74.764,0,0,1-4.521-6.1q-2.112-3.159-3.9-6.51t-3.244-6.859q-1.455-3.507-2.557-7.146t-1.844-7.361q-.741-3.726-1.113-7.508t-.372-7.58q0-3.8.372-7.581t1.112-7.509q.741-3.726,1.844-7.362t2.557-7.145q1.455-3.511,3.244-6.861t3.9-6.509q2.112-3.156,4.521-6.1a75.847,75.847,0,0,1,5.1-5.623q2.688-2.688,5.624-5.1t6.1-4.521q3.159-2.109,6.51-3.9t6.86-3.244q3.51-1.455,7.146-2.557t7.362-1.843q3.726-.741,7.507-1.113T376.374,3579.7Z" fill="#0a4d8f"/>
      <circle id="Elipse_1224" data-name="Elipse 1224" cx="72.641" cy="72.641" r="72.641" transform="translate(303.734 3584.393)" fill="#fff"/>
      <path id="shutterstock_1802230447" data-name="shutterstock 1802230447" d="M376.374,3590.947a66.081,66.081,0,1,1-66.08,66.082h0a66.08,66.08,0,0,1,66.079-66.081Z" fill="#0d66bf"/>
    </g>
    <g id="Grupo_77851" data-name="Grupo 77851">
      <g id="Grupo_77850" data-name="Grupo 77850">
        <path id="Trazado_177463" data-name="Trazado 177463" d="M355.324,3635h0a30.287,30.287,0,0,0-21.985,9.333,1.511,1.511,0,0,0,2.175,2.1,27.513,27.513,0,1,1,20.894,46.586,1.51,1.51,0,0,0-.8.266l-9.7,6.695v-7.557a1.513,1.513,0,0,0-.942-1.4,27.539,27.539,0,0,1-13.229-39.669,1.511,1.511,0,1,0-2.59-1.558,30.551,30.551,0,0,0,13.739,43.625v7.592a2.478,2.478,0,0,0,3.888,2.041l10.194-7.036A30.53,30.53,0,0,0,355.324,3635Z" fill="#fff"/>
        <path id="Trazado_177464" data-name="Trazado 177464" d="M370.39,3635.561a1.509,1.509,0,0,0,2-.747,27.527,27.527,0,0,1,43.83-8.683,1.511,1.511,0,1,0,2.064-2.207,30.549,30.549,0,0,0-48.643,9.634,1.513,1.513,0,0,0,.747,2Z" fill="#fff"/>
        <path id="Trazado_177465" data-name="Trazado 177465" d="M422.694,3629.071a1.511,1.511,0,1,0-2.5,1.7,27.528,27.528,0,0,1-12.411,40.95,1.511,1.511,0,0,0-.942,1.4v7.558l-9.7-6.7a1.512,1.512,0,0,0-.8-.266,27.462,27.462,0,0,1-6.59-1.064,1.511,1.511,0,0,0-.841,2.9,30.453,30.453,0,0,0,6.87,1.16l10.194,7.037a2.479,2.479,0,0,0,3.888-2.041v-7.592a30.56,30.56,0,0,0,12.83-45.047Z" fill="#fff"/>
        <path id="Trazado_177466" data-name="Trazado 177466" d="M392.552,3658.873a2.809,2.809,0,0,0,1.992-.824l4.6-4.6,4.6,4.6a2.821,2.821,0,0,0,3.984,0l3.886-3.886a2.819,2.819,0,0,0,0-3.984l-4.6-4.6,4.6-4.6a2.819,2.819,0,0,0,0-3.984l-3.885-3.886a2.816,2.816,0,0,0-3.985,0l-4.6,4.6-4.6-4.6a2.816,2.816,0,0,0-3.984,0l-3.886,3.886a2.818,2.818,0,0,0,0,3.985l4.6,4.6-4.6,4.6a2.818,2.818,0,0,0,0,3.984l3.886,3.886a2.81,2.81,0,0,0,1.992.824Zm1.932-12.23a1.511,1.511,0,0,0,0-2.137l-5.528-5.528,3.6-3.6,5.528,5.529a1.513,1.513,0,0,0,2.137,0l5.528-5.529,3.6,3.6-5.528,5.528a1.511,1.511,0,0,0,0,2.137l5.528,5.528-3.6,3.6-5.528-5.528a1.51,1.51,0,0,0-2.137,0l-5.528,5.528-3.6-3.6Z" fill="#fff"/>
        <path id="Trazado_177467" data-name="Trazado 177467" d="M365.907,3665.088a1.511,1.511,0,0,0,2.137,0l2.382-2.373a2.226,2.226,0,0,0,.034-3.1l-4.691-4.884a2.2,2.2,0,0,0-1.573-.681h-.025a2.2,2.2,0,0,0-1.563.646l-11.631,11.588-2.165-2.728a1.824,1.824,0,0,0-2.525-.311l-6.009,4.612a1.815,1.815,0,0,0-.32,2.562l6.094,7.731a5.626,5.626,0,0,0,.415.47,1.511,1.511,0,0,0,1.079.453h5.841a1.511,1.511,0,0,0,1.066-.44l9.029-9a1.511,1.511,0,1,0-2.133-2.141l-8.587,8.555h-4.516l-5.157-6.542,4.1-3.143,2.478,3.121a1.511,1.511,0,0,0,2.25.131l12.247-12.2,3.572,3.72-1.821,1.814a1.512,1.512,0,0,0,0,2.137Z" fill="#fff"/>
      </g>
    </g>
  </g>
</svg>
