<svg xmlns="http://www.w3.org/2000/svg" width="154.684" height="154.682" viewBox="0 0 154.684 154.682">
  <g id="Grupo_61394" data-name="Grupo 61394" transform="translate(-667.718 -3579.698)">
    <g id="Grupo_61389" data-name="Grupo 61389">
      <path id="Trazado_105094" data-name="Trazado 105094" d="M745.058,3579.7q3.8,0,7.58.374t7.507,1.113q3.727.738,7.363,1.843t7.146,2.557q3.51,1.452,6.861,3.244t6.51,3.9q3.157,2.11,6.1,4.521a75.776,75.776,0,0,1,5.623,5.1q2.687,2.688,5.1,5.623t4.521,6.1q2.11,3.157,3.9,6.509t3.245,6.861q1.453,3.508,2.557,7.145t1.844,7.362q.741,3.726,1.114,7.506t.373,7.581q0,3.8-.373,7.58t-1.114,7.508q-.742,3.726-1.844,7.361t-2.557,7.146q-1.455,3.507-3.245,6.859t-3.9,6.51q-2.111,3.159-4.521,6.1a75.025,75.025,0,0,1-5.1,5.623q-2.687,2.689-5.623,5.1t-6.1,4.521q-3.159,2.112-6.51,3.9t-6.861,3.245q-3.51,1.455-7.146,2.558t-7.363,1.844q-3.725.742-7.507,1.114t-7.58.374q-3.8,0-7.58-.374t-7.507-1.114q-3.725-.744-7.362-1.844a75.714,75.714,0,0,1-7.146-2.558q-3.51-1.455-6.86-3.245t-6.51-3.9q-3.159-2.109-6.1-4.521t-5.624-5.1q-2.687-2.687-5.1-5.623a74.757,74.757,0,0,1-4.521-6.1q-2.112-3.159-3.9-6.51t-3.244-6.859q-1.455-3.507-2.557-7.146t-1.844-7.361q-.741-3.726-1.113-7.508t-.372-7.58q0-3.8.372-7.581t1.112-7.509q.741-3.726,1.844-7.362t2.557-7.145q1.455-3.511,3.244-6.861t3.9-6.509q2.112-3.156,4.521-6.1a75.854,75.854,0,0,1,5.1-5.623q2.688-2.688,5.624-5.1t6.1-4.521q3.159-2.109,6.51-3.9t6.86-3.244q3.51-1.455,7.146-2.557t7.362-1.843q3.726-.741,7.507-1.113T745.058,3579.7Z" fill="#0a4d8f"/>
      <circle id="Elipse_1224" data-name="Elipse 1224" cx="72.641" cy="72.641" r="72.641" transform="translate(672.418 3584.393)" fill="#fff"/>
      <path id="shutterstock_1802230447" data-name="shutterstock 1802230447" d="M745.058,3590.947a66.081,66.081,0,1,1-66.08,66.082h0a66.08,66.08,0,0,1,66.079-66.081Z" fill="#0d66bf"/>
    </g>
    <g id="Grupo_77855" data-name="Grupo 77855">
      <g id="Grupo_77854" data-name="Grupo 77854">
        <path id="Trazado_177476" data-name="Trazado 177476" d="M769.8,3655.339h6.254a2.567,2.567,0,0,0,2.564-2.564v-6.254a2.567,2.567,0,0,0-2.564-2.564H769.8a2.567,2.567,0,0,0-2.564,2.564v6.254A2.567,2.567,0,0,0,769.8,3655.339Zm.062-8.756h6.129v6.129h-6.129Zm-.062,25.392h6.254a2.567,2.567,0,0,0,2.564-2.564v-6.254a2.567,2.567,0,0,0-2.564-2.564H769.8a2.567,2.567,0,0,0-2.564,2.564v6.254A2.567,2.567,0,0,0,769.8,3671.975Zm.062-8.756h6.129v6.129h-6.129Zm-17.909-7.88H758.2a2.567,2.567,0,0,0,2.564-2.564v-6.254a2.567,2.567,0,0,0-2.564-2.564H751.95a2.567,2.567,0,0,0-2.564,2.564v6.254A2.567,2.567,0,0,0,751.95,3655.339Zm.063-8.756h6.129v6.129h-6.129Zm-29.5,29.865h-6.254a2.568,2.568,0,0,0-2.564,2.565v6.254a2.567,2.567,0,0,0,2.564,2.564h6.254a2.567,2.567,0,0,0,2.564-2.564v-6.254A2.568,2.568,0,0,0,722.51,3676.448Zm-.062,8.756h-6.129v-6.129h6.129Zm.062-41.247h-6.254a2.567,2.567,0,0,0-2.564,2.564v6.254a2.567,2.567,0,0,0,2.564,2.564h6.254a2.567,2.567,0,0,0,2.564-2.564v-6.254A2.567,2.567,0,0,0,722.51,3643.957Zm-.062,8.755h-6.129v-6.129h6.129Zm29.5,18.873H758.2a2.567,2.567,0,0,0,2.564-2.564v-6.254a2.567,2.567,0,0,0-2.564-2.564H751.95a2.567,2.567,0,0,0-2.564,2.564v6.254A2.567,2.567,0,0,0,751.95,3671.585Zm.063-8.756h6.129v6.129h-6.129Zm27.907-45.521H774.3V3615.3a4,4,0,0,0-3.993-3.994h-.6a4,4,0,0,0-3.993,3.994v2.008H726.593V3615.3a4,4,0,0,0-3.993-3.994H722A4,4,0,0,0,718,3615.3v2.008h-5.615a6.583,6.583,0,0,0-6.576,6.575V3694.4a6.574,6.574,0,0,0,6.567,6.566h67.55a6.573,6.573,0,0,0,6.566-6.566v-70.515a6.583,6.583,0,0,0-6.575-6.575Zm-11.579-2.008a1.368,1.368,0,0,1,1.367-1.367h.6a1.368,1.368,0,0,1,1.367,1.367v2.008h-3.337Zm-47.711,0a1.368,1.368,0,0,1,1.367-1.367h.6a1.368,1.368,0,0,1,1.367,1.367v2.008H720.63V3615.3Zm63.239,79.1a3.945,3.945,0,0,1-3.94,3.94h-67.55a3.944,3.944,0,0,1-3.94-3.94v-.009a6.54,6.54,0,0,0,3.949,1.322h53.249a6.531,6.531,0,0,0,4.649-1.926l13.583-13.582Zm-14.923-2.988a5.61,5.61,0,0,0,.159-1.324v-8.767a3,3,0,0,1,3-3h8.766a5.633,5.633,0,0,0,1.325-.159Zm14.923-55.333H727.907a1.313,1.313,0,1,0,0,2.626h55.962V3672.7a3,3,0,0,1-3,3H772.1a5.632,5.632,0,0,0-5.625,5.625v8.767a3,3,0,0,1-3,3H712.388a3.953,3.953,0,0,1-3.949-3.949V3638.7h14.214a1.313,1.313,0,1,0,0-2.626H708.439v-12.194a3.952,3.952,0,0,1,3.948-3.948H718v3.861A4,4,0,0,0,722,3627.79a1.313,1.313,0,1,0,0-2.627,1.369,1.369,0,0,1-1.367-1.367v-3.861h45.085v3.861a4,4,0,0,0,3.994,3.994,1.313,1.313,0,0,0,0-2.627,1.368,1.368,0,0,1-1.367-1.367v-3.861H779.92a3.953,3.953,0,0,1,3.949,3.948ZM722.51,3660.2h-6.254a2.567,2.567,0,0,0-2.564,2.564v6.254a2.567,2.567,0,0,0,2.564,2.564h6.254a2.567,2.567,0,0,0,2.564-2.564v-6.254A2.567,2.567,0,0,0,722.51,3660.2Zm-.062,8.755h-6.129v-6.129h6.129Zm11.655-13.619h6.254a2.567,2.567,0,0,0,2.564-2.564v-6.254a2.567,2.567,0,0,0-2.564-2.564H734.1a2.567,2.567,0,0,0-2.564,2.564v6.254A2.567,2.567,0,0,0,734.1,3655.339Zm.063-8.756h6.129v6.129h-6.129Zm17.845,38.621a1.313,1.313,0,0,0-2.625.063,2.567,2.567,0,0,0,2.564,2.564H758.2a2.567,2.567,0,0,0,2.564-2.564v-6.254a2.568,2.568,0,0,0-2.564-2.565H751.95a2.568,2.568,0,0,0-2.564,2.565v1.8a1.313,1.313,0,1,0,2.626,0v-1.741h6.129v6.129ZM734.1,3671.585h6.254a2.567,2.567,0,0,0,2.564-2.564v-6.254a2.567,2.567,0,0,0-2.564-2.564H734.1a2.567,2.567,0,0,0-2.564,2.564v6.254A2.567,2.567,0,0,0,734.1,3671.585Zm.063-8.756h6.129v6.129h-6.129Zm-.063,25h6.254a2.567,2.567,0,0,0,2.564-2.564v-6.254a2.568,2.568,0,0,0-2.564-2.565H734.1a2.568,2.568,0,0,0-2.564,2.565v6.254A2.567,2.567,0,0,0,734.1,3687.831Zm.063-8.756h6.129v6.129h-6.129Z" fill="#fff"/>
      </g>
    </g>
  </g>
</svg>
