<svg xmlns="http://www.w3.org/2000/svg" width="154.684" height="154.682" viewBox="0 0 154.684 154.682">
  <g id="Grupo_61394" data-name="Grupo 61394" transform="translate(-108.425 -3579.698)">
    <g id="Grupo_61389" data-name="Grupo 61389">
      <path id="Trazado_105094" data-name="Trazado 105094" d="M185.765,3579.7q3.8,0,7.58.374t7.507,1.113q3.729.738,7.363,1.843t7.146,2.557q3.51,1.452,6.861,3.244t6.51,3.9q3.159,2.11,6.1,4.521a75.584,75.584,0,0,1,5.623,5.1q2.688,2.688,5.1,5.623t4.521,6.1q2.11,3.157,3.9,6.509t3.245,6.861q1.455,3.508,2.557,7.145t1.844,7.362q.741,3.726,1.114,7.506t.373,7.581q0,3.8-.373,7.58t-1.114,7.508q-.741,3.726-1.844,7.361t-2.557,7.146q-1.455,3.507-3.245,6.859t-3.9,6.51q-2.109,3.159-4.521,6.1a75.025,75.025,0,0,1-5.1,5.623q-2.687,2.689-5.623,5.1a75.908,75.908,0,0,1-6.1,4.521q-3.159,2.112-6.51,3.9t-6.861,3.245q-3.51,1.455-7.146,2.558t-7.363,1.844q-3.725.742-7.507,1.114t-7.58.374q-3.8,0-7.58-.374t-7.507-1.114q-3.724-.744-7.362-1.844t-7.146-2.558q-3.51-1.455-6.86-3.245t-6.51-3.9q-3.159-2.109-6.1-4.521t-5.624-5.1q-2.687-2.687-5.1-5.623a74.755,74.755,0,0,1-4.521-6.1q-2.112-3.159-3.9-6.51t-3.244-6.859q-1.455-3.507-2.557-7.146t-1.844-7.361q-.741-3.726-1.113-7.508t-.372-7.58q0-3.8.372-7.581t1.112-7.509q.741-3.726,1.844-7.362t2.557-7.145q1.455-3.511,3.244-6.861t3.9-6.509q2.112-3.156,4.521-6.1a75.852,75.852,0,0,1,5.1-5.623q2.688-2.688,5.624-5.1t6.1-4.521q3.159-2.109,6.51-3.9t6.86-3.244q3.51-1.455,7.146-2.557t7.362-1.843q3.726-.741,7.507-1.113T185.765,3579.7Z" fill="#0a4d8f"/>
      <circle id="Elipse_1224" data-name="Elipse 1224" cx="72.641" cy="72.641" r="72.641" transform="translate(113.125 3584.393)" fill="#fff"/>
      <path id="shutterstock_1802230447" data-name="shutterstock 1802230447" d="M185.765,3590.947a66.081,66.081,0,1,1-66.08,66.082h0a66.081,66.081,0,0,1,66.079-66.081Z" fill="#0d66bf"/>
    </g>
    <g id="Grupo_77849" data-name="Grupo 77849">
      <g id="Grupo_77847" data-name="Grupo 77847">
        <path id="Trazado_177445" data-name="Trazado 177445" d="M230.113,3625.581H166.037a1.885,1.885,0,0,1,0-3.769h64.076a1.885,1.885,0,1,1,0,3.769Z" fill="#fff"/>
        <path id="Trazado_177446" data-name="Trazado 177446" d="M203.729,3636.888H166.037a1.885,1.885,0,0,1,0-3.769h37.692a1.885,1.885,0,1,1,0,3.769Z" fill="#fff"/>
        <path id="Trazado_177447" data-name="Trazado 177447" d="M230.113,3655.734H166.037a1.884,1.884,0,0,1,0-3.769h64.076a1.884,1.884,0,1,1,0,3.769Z" fill="#fff"/>
        <path id="Trazado_177448" data-name="Trazado 177448" d="M203.729,3667.042H166.037a1.885,1.885,0,0,1,0-3.77h37.692a1.885,1.885,0,0,1,0,3.77Z" fill="#fff"/>
        <path id="Trazado_177449" data-name="Trazado 177449" d="M230.113,3685.888H166.037a1.885,1.885,0,0,1,0-3.77h64.076a1.885,1.885,0,0,1,0,3.77Z" fill="#fff"/>
        <path id="Trazado_177450" data-name="Trazado 177450" d="M203.729,3697.2H166.037a1.885,1.885,0,0,1,0-3.769h37.692a1.885,1.885,0,1,1,0,3.769Z" fill="#fff"/>
      </g>
      <g id="Grupo_77848" data-name="Grupo 77848">
        <path id="Trazado_177451" data-name="Trazado 177451" d="M149.076,3700.964a7.538,7.538,0,0,1-7.538-7.538,1.885,1.885,0,1,1,3.769,0,3.769,3.769,0,1,0,3.769-3.769h-1.884a1.885,1.885,0,1,1,0-3.769h1.884a3.769,3.769,0,1,0-3.769-3.77,1.885,1.885,0,1,1-3.769,0,10.49,10.49,0,1,1,7.538,18.846Z" fill="#fff"/>
        <path id="Trazado_177452" data-name="Trazado 177452" d="M154.73,3670.811H143.422a1.884,1.884,0,0,1-1.334-3.219l7.309-7.308a11.689,11.689,0,0,0,3.448-8.319,3.769,3.769,0,1,0-7.538,0v1.885a1.885,1.885,0,0,1-3.769,0v-1.885a7.539,7.539,0,0,1,15.077,0,15.454,15.454,0,0,1-4.55,10.983l-4.093,4.094h6.758a1.885,1.885,0,1,1,0,3.769Z" fill="#fff"/>
        <path id="Trazado_177453" data-name="Trazado 177453" d="M150.961,3640.658a1.885,1.885,0,0,1-1.885-1.885v-16.392l-4.086,6.128a1.885,1.885,0,1,1-3.136-2.091l7.539-11.308a1.886,1.886,0,0,1,3.452,1.048v22.615A1.885,1.885,0,0,1,150.961,3640.658Z" fill="#fff"/>
      </g>
      <path id="Trazado_177454" data-name="Trazado 177454" d="M230.113,3625.581H166.037a1.885,1.885,0,0,1,0-3.769h64.076a1.885,1.885,0,1,1,0,3.769Z" fill="#fff"/>
      <path id="Trazado_177455" data-name="Trazado 177455" d="M203.729,3636.888H166.037a1.885,1.885,0,0,1,0-3.769h37.692a1.885,1.885,0,1,1,0,3.769Z" fill="#fff"/>
      <path id="Trazado_177456" data-name="Trazado 177456" d="M230.113,3655.734H166.037a1.884,1.884,0,0,1,0-3.769h64.076a1.884,1.884,0,1,1,0,3.769Z" fill="#fff"/>
      <path id="Trazado_177457" data-name="Trazado 177457" d="M203.729,3667.042H166.037a1.885,1.885,0,0,1,0-3.77h37.692a1.885,1.885,0,0,1,0,3.77Z" fill="#fff"/>
      <path id="Trazado_177458" data-name="Trazado 177458" d="M230.113,3685.888H166.037a1.885,1.885,0,0,1,0-3.77h64.076a1.885,1.885,0,0,1,0,3.77Z" fill="#fff"/>
      <path id="Trazado_177459" data-name="Trazado 177459" d="M203.729,3697.2H166.037a1.885,1.885,0,0,1,0-3.769h37.692a1.885,1.885,0,1,1,0,3.769Z" fill="#fff"/>
      <path id="Trazado_177460" data-name="Trazado 177460" d="M149.076,3700.964a7.538,7.538,0,0,1-7.538-7.538,1.885,1.885,0,1,1,3.769,0,3.769,3.769,0,1,0,3.769-3.769h-1.884a1.885,1.885,0,1,1,0-3.769h1.884a3.769,3.769,0,1,0-3.769-3.77,1.885,1.885,0,1,1-3.769,0,10.49,10.49,0,1,1,7.538,18.846Z" fill="#fff"/>
      <path id="Trazado_177461" data-name="Trazado 177461" d="M154.73,3670.811H143.422a1.884,1.884,0,0,1-1.334-3.219l7.309-7.308a11.689,11.689,0,0,0,3.448-8.319,3.769,3.769,0,1,0-7.538,0v1.885a1.885,1.885,0,0,1-3.769,0v-1.885a7.539,7.539,0,0,1,15.077,0,15.454,15.454,0,0,1-4.55,10.983l-4.093,4.094h6.758a1.885,1.885,0,1,1,0,3.769Z" fill="#fff"/>
      <path id="Trazado_177462" data-name="Trazado 177462" d="M150.961,3640.658a1.885,1.885,0,0,1-1.885-1.885v-16.392l-4.086,6.128a1.885,1.885,0,1,1-3.136-2.091l7.539-11.308a1.886,1.886,0,0,1,3.452,1.048v22.615A1.885,1.885,0,0,1,150.961,3640.658Z" fill="#fff"/>
    </g>
  </g>
</svg>
