<svg xmlns="http://www.w3.org/2000/svg" width="474.205" height="385.907" viewBox="0 0 474.205 385.907">
  <g id="Grupo_80267" data-name="Grupo 80267" transform="translate(-5560.16 6127.5)">
    <rect id="Rectángulo_22904" data-name="Rectángulo 22904" width="232.282" height="111.72" rx="14.042" transform="translate(5688.759 -6025.257)" fill="#75c9f1"/>
    <rect id="Rectángulo_22905" data-name="Rectángulo 22905" width="232.282" height="112.107" rx="14.042" transform="translate(5802.083 -5918.432)" fill="#53bced"/>
    <g id="Grupo_78136" data-name="Grupo 78136" transform="translate(5376.37 -11326.325)">
      <path id="Trazado_179187" data-name="Trazado 179187" d="M653.385,5398.841a2.728,2.728,0,0,1-2.728-2.728v-71.131a18.121,18.121,0,0,0-18.1-18.1H555.908a2.728,2.728,0,0,1,0-5.456h76.649a23.583,23.583,0,0,1,23.556,23.556v71.131A2.727,2.727,0,0,1,653.385,5398.841Z" fill="#2a5e77"/>
    </g>
    <g id="Grupo_78137" data-name="Grupo 78137" transform="translate(5376.37 -11326.325)">
      <path id="Trazado_179188" data-name="Trazado 179188" d="M315.117,5422.585a2.727,2.727,0,0,1,2.727,2.728v71.131a18.121,18.121,0,0,0,18.1,18.1h76.649a2.728,2.728,0,0,1,0,5.456H335.945a23.582,23.582,0,0,1-23.556-23.556v-71.131A2.728,2.728,0,0,1,315.117,5422.585Z" fill="#2a5e77"/>
    </g>
    <rect id="Rectángulo_22906" data-name="Rectángulo 22906" width="311.46" height="183.816" rx="12.363" transform="translate(5705.832 -6005.445)" fill="#f2f4ff"/>
    <text id="Las_estructuras_de_datos_lineales_incluyen_pilas_colas_y_listas_ligadas_lineales._" data-name="Las estructuras de datos lineales incluyen pilas, colas y listas ligadas lineales.
" transform="translate(5740.225 -5956.427)" fill="#2a5e77" font-size="20" font-family="SegoeUI, Segoe UI"><tspan x="0" y="22">Las estructuras de datos </tspan><tspan x="0" y="46">lineales incluyen pilas, colas </tspan><tspan x="0" y="70">y listas ligadas lineales.</tspan></text>
    <path id="Trazado_179191" data-name="Trazado 179191" d="M216.733,5583.232a4.281,4.281,0,0,1-4.281-4.281V5274.768a4.281,4.281,0,0,0-4.28-4.281l-18.528,0a4.281,4.281,0,0,1-3.351-6.945l23.4-29.437,25.561-32.16a4.282,4.282,0,0,1,6.7,0l25.545,32.168,23.414,29.434a4.281,4.281,0,0,1-3.35,6.945H269.044a4.28,4.28,0,0,0-4.281,4.281v304.174a4.281,4.281,0,0,1-4.28,4.281Z" transform="translate(5376.37 -11326.325)" fill="#98d7f4" stroke="#2a5e77" stroke-miterlimit="10" stroke-width="3"/>
    <g id="Grupo_78141" data-name="Grupo 78141" transform="translate(5376.37 -11326.325)">
      <path id="Trazado_179224" data-name="Trazado 179224" d="M236.461,5564.043v7.131h4.908v-8.337h2.661v11.791H226.809V5562.86h2.662v8.314H233.8v-7.131Z" fill="#2a5e77"/>
      <path id="Trazado_179225" data-name="Trazado 179225" d="M240.506,5554.084a1.209,1.209,0,0,0-.983.55,5.62,5.62,0,0,0-.732,2.04,8.207,8.207,0,0,1-1.367,3.424,2.962,2.962,0,0,1-2.465,1.154,3.528,3.528,0,0,1-2.81-1.391,5.641,5.641,0,0,1-1.153-3.719,6.115,6.115,0,0,1,1.147-3.9,3.392,3.392,0,0,1,2.9-1.389l.071.024v3.335a1.685,1.685,0,0,0-1.253.491,2.352,2.352,0,0,0-.078,2.756,1.293,1.293,0,0,0,1.024.479,1.164,1.164,0,0,0,.97-.5,5.484,5.484,0,0,0,.673-2.04,8.277,8.277,0,0,1,1.391-3.513,3.055,3.055,0,0,1,2.525-1.147,3.364,3.364,0,0,1,2.821,1.479,6.407,6.407,0,0,1,1.094,3.9,5.927,5.927,0,0,1-1.3,4.038,3.62,3.62,0,0,1-2.951,1.414l-.07-.024v-3.158a1.792,1.792,0,0,0,1.49-.674,2.784,2.784,0,0,0,.461-1.667,2.407,2.407,0,0,0-.378-1.462A1.222,1.222,0,0,0,240.506,5554.084Z" fill="#2a5e77"/>
      <path id="Trazado_179226" data-name="Trazado 179226" d="M228.1,5544.41h3.134v-2.153h2.424v2.153h6.517a1.507,1.507,0,0,0,1.065-.308,1.1,1.1,0,0,0,.319-.828,3.3,3.3,0,0,0-.029-.468,4.239,4.239,0,0,0-.1-.454l2.5-.3a6.805,6.805,0,0,1,.267,1.018,6.136,6.136,0,0,1,.089,1.076,3.683,3.683,0,0,1-.982,2.75,4.3,4.3,0,0,1-3.111.964h-6.529v1.869h-2.424v-1.869H228.1Z" fill="#2a5e77"/>
      <path id="Trazado_179227" data-name="Trazado 179227" d="M234.2,5533.327l-.036,1.266a2.29,2.29,0,0,0,.32,1.265,2.023,2.023,0,0,0,.9.757h8.645v3.442h-12.8v-3.206l1.892-.153a4.053,4.053,0,0,1-1.567-1.165,2.6,2.6,0,0,1-.562-1.65,2.551,2.551,0,0,1,.042-.479c.028-.146.061-.294.1-.443Z" fill="#2a5e77"/>
      <path id="Trazado_179228" data-name="Trazado 179228" d="M242.185,5523.759a4.281,4.281,0,0,1,1.549,1.5,4.425,4.425,0,0,1-.751,5.257,5.974,5.974,0,0,1-4.027,1.142h-7.723v-3.443H239a3.319,3.319,0,0,0,2.009-.473,1.656,1.656,0,0,0,.61-1.4,3.436,3.436,0,0,0-.266-1.42,2.4,2.4,0,0,0-.788-.969h-9.33v-3.454h12.8v2.945Z" fill="#2a5e77"/>
      <path id="Trazado_179229" data-name="Trazado 179229" d="M241.617,5512.534a2.039,2.039,0,0,0-.534-1.478,1.9,1.9,0,0,0-1.429-.556v-3.134l.071-.036a3.99,3.99,0,0,1,3.247,1.461,6.158,6.158,0,0,1-.5,8.155,6.894,6.894,0,0,1-4.649,1.549h-.354a6.941,6.941,0,0,1-4.648-1.543,5.453,5.453,0,0,1-1.822-4.405,5.377,5.377,0,0,1,1.349-3.815,4.483,4.483,0,0,1,3.548-1.4l.071.024v3.146a2.5,2.5,0,0,0-1.65.544,1.847,1.847,0,0,0-.657,1.5,2,2,0,0,0,1.064,1.933,5.836,5.836,0,0,0,2.739.562h.355a5.814,5.814,0,0,0,2.757-.562A2.021,2.021,0,0,0,241.617,5512.534Z" fill="#2a5e77"/>
      <path id="Trazado_179230" data-name="Trazado 179230" d="M228.1,5501.263h3.134v-2.152h2.424v2.152h6.517a1.507,1.507,0,0,0,1.065-.307,1.1,1.1,0,0,0,.319-.828,3.281,3.281,0,0,0-.029-.468,4.251,4.251,0,0,0-.1-.455l2.5-.3a6.834,6.834,0,0,1,.267,1.017,6.157,6.157,0,0,1,.089,1.077,3.679,3.679,0,0,1-.982,2.749,4.3,4.3,0,0,1-3.111.965h-6.529v1.869h-2.424v-1.869H228.1Z" fill="#2a5e77"/>
      <path id="Trazado_179231" data-name="Trazado 179231" d="M242.185,5489.092a4.3,4.3,0,0,1,1.549,1.5,4.425,4.425,0,0,1-.751,5.257,5.974,5.974,0,0,1-4.027,1.141h-7.723v-3.441H239a3.326,3.326,0,0,0,2.009-.473,1.659,1.659,0,0,0,.61-1.4,3.428,3.428,0,0,0-.266-1.419,2.394,2.394,0,0,0-.788-.97h-9.33v-3.454h12.8v2.945Z" fill="#2a5e77"/>
      <path id="Trazado_179232" data-name="Trazado 179232" d="M234.2,5476.508l-.036,1.266a2.288,2.288,0,0,0,.32,1.265,2.013,2.013,0,0,0,.9.757h8.645v3.442h-12.8v-3.2l1.892-.154a4.024,4.024,0,0,1-1.567-1.165,2.6,2.6,0,0,1-.562-1.65,2.551,2.551,0,0,1,.042-.479c.028-.145.061-.293.1-.443Z" fill="#2a5e77"/>
      <path id="Trazado_179233" data-name="Trazado 179233" d="M244.03,5467.248a7.415,7.415,0,0,1-.922.325,6.381,6.381,0,0,1-.994.195,4.765,4.765,0,0,1,1.55,1.4,3.511,3.511,0,0,1,.615,2.076,4.317,4.317,0,0,1-1.036,3.1,3.707,3.707,0,0,1-2.821,1.088,3.372,3.372,0,0,1-2.914-1.449,7.224,7.224,0,0,1-1.035-4.228v-1.928h-1.018a1.991,1.991,0,0,0-1.431.485,2.263,2.263,0,0,0-.1,2.726,1.443,1.443,0,0,0,1.131.455l-.013,3.336-.071.012a3.252,3.252,0,0,1-2.8-1.408,6.138,6.138,0,0,1-1.177-3.915,5.71,5.71,0,0,1,1.166-3.726,4.031,4.031,0,0,1,3.317-1.43h5.287a9.978,9.978,0,0,0,1.691-.137,8.424,8.424,0,0,0,1.573-.431Zm-2.306,3.157a2.958,2.958,0,0,0-.45-1.62,2.33,2.33,0,0,0-1.041-.958h-1.809v1.928a2.3,2.3,0,0,0,.55,1.667,1.784,1.784,0,0,0,1.331.568,1.326,1.326,0,0,0,1.028-.426A1.646,1.646,0,0,0,241.724,5470.4Z" fill="#2a5e77"/>
      <path id="Trazado_179234" data-name="Trazado 179234" d="M240.506,5454.829a1.21,1.21,0,0,0-.983.549,5.615,5.615,0,0,0-.732,2.041,8.2,8.2,0,0,1-1.367,3.423,2.96,2.96,0,0,1-2.465,1.154,3.527,3.527,0,0,1-2.81-1.39,5.643,5.643,0,0,1-1.153-3.719,6.115,6.115,0,0,1,1.147-3.9,3.39,3.39,0,0,1,2.9-1.389l.071.023v3.336a1.684,1.684,0,0,0-1.253.49,2.352,2.352,0,0,0-.078,2.756,1.294,1.294,0,0,0,1.024.48,1.166,1.166,0,0,0,.97-.5,5.491,5.491,0,0,0,.673-2.041,8.272,8.272,0,0,1,1.391-3.512,3.052,3.052,0,0,1,2.525-1.148,3.366,3.366,0,0,1,2.821,1.479,6.41,6.41,0,0,1,1.094,3.9,5.928,5.928,0,0,1-1.3,4.039,3.619,3.619,0,0,1-2.951,1.413l-.07-.023v-3.158a1.8,1.8,0,0,0,1.49-.675,2.782,2.782,0,0,0,.461-1.667,2.4,2.4,0,0,0-.378-1.461A1.22,1.22,0,0,0,240.506,5454.829Z" fill="#2a5e77"/>
      <path id="Trazado_179235" data-name="Trazado 179235" d="M237.987,5431.682a7.346,7.346,0,0,1,4.564,1.313,4.343,4.343,0,0,1,1.728,3.667,4.084,4.084,0,0,1-.373,1.785,3.658,3.658,0,0,1-1.094,1.337h6.138v3.442H231.233v-3.11l1.514-.2a4.088,4.088,0,0,1-1.295-1.366,3.688,3.688,0,0,1-.456-1.862,4.263,4.263,0,0,1,1.857-3.691,8.292,8.292,0,0,1,4.885-1.313Zm-.267,3.454a6.209,6.209,0,0,0-2.937.6,1.971,1.971,0,0,0-1.126,1.846,2.591,2.591,0,0,0,.321,1.329,2.266,2.266,0,0,0,.912.87H240.5a2.112,2.112,0,0,0,.829-.87,2.913,2.913,0,0,0,.284-1.353,1.986,1.986,0,0,0-.983-1.84,5.2,5.2,0,0,0-2.665-.585Z" fill="#2a5e77"/>
      <path id="Trazado_179236" data-name="Trazado 179236" d="M234.2,5422.824l-.036,1.265a2.291,2.291,0,0,0,.32,1.266,2.019,2.019,0,0,0,.9.757h8.645v3.441h-12.8v-3.2l1.892-.155a4.024,4.024,0,0,1-1.567-1.165,2.6,2.6,0,0,1-.562-1.65,2.551,2.551,0,0,1,.042-.479c.028-.145.061-.293.1-.443Z" fill="#2a5e77"/>
      <path id="Trazado_179237" data-name="Trazado 179237" d="M228.169,5417.442v3.454h-2.59v-3.454Zm15.861,0v3.454h-12.8v-3.454Z" fill="#2a5e77"/>
      <path id="Trazado_179238" data-name="Trazado 179238" d="M231.233,5411.4l1.692-.142a4.3,4.3,0,0,1-1.426-1.544,4.434,4.434,0,0,1-.5-2.146,3.92,3.92,0,0,1,.544-2.106,3.36,3.36,0,0,1,1.644-1.324,4.465,4.465,0,0,1-1.609-1.538,4.185,4.185,0,0,1-.579-2.223,3.688,3.688,0,0,1,1.308-2.987,6.1,6.1,0,0,1,3.98-1.094h7.746v3.453h-7.776a3.246,3.246,0,0,0-2.027.473,1.725,1.725,0,0,0-.57,1.408,2.4,2.4,0,0,0,.327,1.271,2.358,2.358,0,0,0,.907.858c.149,0,.278,0,.384-.012s.216-.011.327-.011h8.428v3.441h-7.776a3.264,3.264,0,0,0-2.01.473,1.714,1.714,0,0,0-.587,1.419,2.669,2.669,0,0,0,.267,1.224,2.355,2.355,0,0,0,.753.87h9.353v3.441h-12.8Z" fill="#2a5e77"/>
      <path id="Trazado_179239" data-name="Trazado 179239" d="M228.169,5390.015v3.453h-2.59v-3.453Zm15.861,0v3.453h-12.8v-3.453Z" fill="#2a5e77"/>
      <path id="Trazado_179240" data-name="Trazado 179240" d="M228.1,5383.072h3.134v-2.153h2.424v2.153h6.517a1.507,1.507,0,0,0,1.065-.308,1.1,1.1,0,0,0,.319-.828,3.286,3.286,0,0,0-.029-.467,4.251,4.251,0,0,0-.1-.455l2.5-.3a6.82,6.82,0,0,1,.267,1.018,6.13,6.13,0,0,1,.089,1.075,3.686,3.686,0,0,1-.982,2.751,4.3,4.3,0,0,1-3.111.963h-6.529v1.869h-2.424v-1.869H228.1Z" fill="#2a5e77"/>
      <path id="Trazado_179241" data-name="Trazado 179241" d="M228.169,5375.089v3.453h-2.59v-3.453Zm15.861,0v3.453h-12.8v-3.453Z" fill="#2a5e77"/>
      <path id="Trazado_179242" data-name="Trazado 179242" d="M239.264,5367.625l1.183-.224v-.071l-1.183-.237-8.031-2.1v-3.608l12.8,4.353v3.3l-12.8,4.352v-3.607Z" fill="#2a5e77"/>
      <path id="Trazado_179243" data-name="Trazado 179243" d="M244.03,5352.569a7.185,7.185,0,0,1-.922.325,6.5,6.5,0,0,1-.994.2,4.745,4.745,0,0,1,1.55,1.4,3.509,3.509,0,0,1,.615,2.076,4.319,4.319,0,0,1-1.036,3.1,3.706,3.706,0,0,1-2.821,1.088,3.373,3.373,0,0,1-2.914-1.449,7.227,7.227,0,0,1-1.035-4.228v-1.929h-1.018a1.989,1.989,0,0,0-1.431.486,2.261,2.261,0,0,0-.1,2.725,1.442,1.442,0,0,0,1.131.456l-.013,3.335-.071.012a3.249,3.249,0,0,1-2.8-1.407A6.136,6.136,0,0,1,231,5354.84a5.709,5.709,0,0,1,1.166-3.726,4.032,4.032,0,0,1,3.317-1.431h5.287a9.93,9.93,0,0,0,1.691-.136,8.5,8.5,0,0,0,1.573-.431Zm-2.306,3.158a2.961,2.961,0,0,0-.45-1.62,2.338,2.338,0,0,0-1.041-.959h-1.809v1.929a2.3,2.3,0,0,0,.55,1.667,1.787,1.787,0,0,0,1.331.568,1.327,1.327,0,0,0,1.028-.426A1.647,1.647,0,0,0,241.724,5355.727Z" fill="#2a5e77"/>
      <path id="Trazado_179244" data-name="Trazado 179244" d="M240.506,5340.15a1.211,1.211,0,0,0-.983.55,5.612,5.612,0,0,0-.732,2.04,8.207,8.207,0,0,1-1.367,3.424,2.962,2.962,0,0,1-2.465,1.154,3.531,3.531,0,0,1-2.81-1.39,5.647,5.647,0,0,1-1.153-3.72,6.111,6.111,0,0,1,1.147-3.9,3.392,3.392,0,0,1,2.9-1.39l.071.024v3.335a1.685,1.685,0,0,0-1.253.491,2.352,2.352,0,0,0-.078,2.756,1.292,1.292,0,0,0,1.024.479,1.164,1.164,0,0,0,.97-.5,5.477,5.477,0,0,0,.673-2.04,8.264,8.264,0,0,1,1.391-3.512,3.052,3.052,0,0,1,2.525-1.148,3.363,3.363,0,0,1,2.821,1.479,6.4,6.4,0,0,1,1.094,3.9,5.929,5.929,0,0,1-1.3,4.039,3.621,3.621,0,0,1-2.951,1.413l-.07-.024v-3.157a1.8,1.8,0,0,0,1.49-.675,2.784,2.784,0,0,0,.461-1.667,2.407,2.407,0,0,0-.378-1.462A1.222,1.222,0,0,0,240.506,5340.15Z" fill="#2a5e77"/>
      <path id="Trazado_179245" data-name="Trazado 179245" d="M244.03,5324.917v3.453H225.579v-3.453Z" fill="#2a5e77"/>
      <path id="Trazado_179246" data-name="Trazado 179246" d="M228.169,5318.447v3.453h-2.59v-3.453Zm15.861,0v3.453h-12.8v-3.453Z" fill="#2a5e77"/>
      <path id="Trazado_179247" data-name="Trazado 179247" d="M231.233,5312.451l1.834-.154a4.68,4.68,0,0,1-1.527-1.573,4.093,4.093,0,0,1-.544-2.094,3.852,3.852,0,0,1,1.219-3.028,5.625,5.625,0,0,1,3.82-1.088h7.995v3.466h-8a2.6,2.6,0,0,0-1.832.52,2.1,2.1,0,0,0-.54,1.573,2.661,2.661,0,0,0,.28,1.23,2.52,2.52,0,0,0,.787.911h9.306v3.454h-12.8Z" fill="#2a5e77"/>
      <path id="Trazado_179248" data-name="Trazado 179248" d="M244.279,5296.271a5.76,5.76,0,0,1-1.775,4.423A6.342,6.342,0,0,1,238,5302.35h-.473a7,7,0,0,1-4.695-1.567,5.841,5.841,0,0,1-.272-8.226,6.005,6.005,0,0,1,4.222-1.431h1.881v7.64l.07.024a3.314,3.314,0,0,0,2.073-.846,2.637,2.637,0,0,0,.813-2.04,6.673,6.673,0,0,0-.23-1.9,8.759,8.759,0,0,0-.728-1.656l2.134-.935a6.387,6.387,0,0,1,1.064,2.047A8.871,8.871,0,0,1,244.279,5296.271Zm-10.622.307a1.8,1.8,0,0,0,.734,1.514,3.8,3.8,0,0,0,1.928.686l.059-.036v-4.234h-.308a2.776,2.776,0,0,0-1.756.514A1.858,1.858,0,0,0,233.657,5296.578Z" fill="#2a5e77"/>
      <path id="Trazado_179249" data-name="Trazado 179249" d="M244.03,5281.6a7.26,7.26,0,0,1-.922.325,6.381,6.381,0,0,1-.994.195,4.765,4.765,0,0,1,1.55,1.4,3.511,3.511,0,0,1,.615,2.077,4.316,4.316,0,0,1-1.036,3.1,3.7,3.7,0,0,1-2.821,1.088,3.37,3.37,0,0,1-2.914-1.449,7.224,7.224,0,0,1-1.035-4.228v-1.928h-1.018a1.993,1.993,0,0,0-1.431.485,2.263,2.263,0,0,0-.1,2.726,1.441,1.441,0,0,0,1.131.455l-.013,3.336-.071.012a3.25,3.25,0,0,1-2.8-1.408,6.134,6.134,0,0,1-1.177-3.914,5.709,5.709,0,0,1,1.166-3.726,4.031,4.031,0,0,1,3.317-1.431h5.287a9.977,9.977,0,0,0,1.691-.137,8.387,8.387,0,0,0,1.573-.431Zm-2.306,3.157a2.962,2.962,0,0,0-.45-1.62,2.336,2.336,0,0,0-1.041-.958h-1.809v1.928a2.3,2.3,0,0,0,.55,1.668,1.785,1.785,0,0,0,1.331.567,1.326,1.326,0,0,0,1.028-.426A1.643,1.643,0,0,0,241.724,5284.762Z" fill="#2a5e77"/>
      <path id="Trazado_179250" data-name="Trazado 179250" d="M244.03,5272.474v3.454H225.579v-3.454Z" fill="#2a5e77"/>
      <path id="Trazado_179251" data-name="Trazado 179251" d="M244.279,5263.97a5.761,5.761,0,0,1-1.775,4.423,6.342,6.342,0,0,1-4.506,1.656h-.473a7,7,0,0,1-4.695-1.566,5.842,5.842,0,0,1-.272-8.227,6.005,6.005,0,0,1,4.222-1.431h1.881v7.641l.07.023a3.318,3.318,0,0,0,2.073-.845,2.639,2.639,0,0,0,.813-2.04,6.678,6.678,0,0,0-.23-1.9,8.762,8.762,0,0,0-.728-1.656l2.134-.934a6.387,6.387,0,0,1,1.064,2.046A8.876,8.876,0,0,1,244.279,5263.97Zm-10.622.307a1.8,1.8,0,0,0,.734,1.514,3.814,3.814,0,0,0,1.928.686l.059-.035v-4.234h-.308a2.773,2.773,0,0,0-1.756.514A1.853,1.853,0,0,0,233.657,5264.277Z" fill="#2a5e77"/>
      <path id="Trazado_179252" data-name="Trazado 179252" d="M240.506,5249.9a1.212,1.212,0,0,0-.983.55,5.626,5.626,0,0,0-.732,2.041,8.213,8.213,0,0,1-1.367,3.424,2.961,2.961,0,0,1-2.465,1.153,3.527,3.527,0,0,1-2.81-1.39,5.644,5.644,0,0,1-1.153-3.72,6.112,6.112,0,0,1,1.147-3.9,3.39,3.39,0,0,1,2.9-1.389l.071.023v3.336a1.688,1.688,0,0,0-1.253.49,2.354,2.354,0,0,0-.078,2.757,1.292,1.292,0,0,0,1.024.478,1.165,1.165,0,0,0,.97-.5,5.491,5.491,0,0,0,.673-2.04,8.282,8.282,0,0,1,1.391-3.514,3.052,3.052,0,0,1,2.525-1.146,3.363,3.363,0,0,1,2.821,1.478,6.407,6.407,0,0,1,1.094,3.9,5.931,5.931,0,0,1-1.3,4.039,3.619,3.619,0,0,1-2.951,1.413l-.07-.023V5254.2a1.8,1.8,0,0,0,1.49-.673,2.788,2.788,0,0,0,.461-1.668,2.4,2.4,0,0,0-.378-1.461A1.221,1.221,0,0,0,240.506,5249.9Z" fill="#2a5e77"/>
    </g>
  </g>
</svg>
