<svg xmlns="http://www.w3.org/2000/svg" xmlns:xlink="http://www.w3.org/1999/xlink" width="1140.522" height="637.537" viewBox="0 0 1140.522 637.537">
  <defs>
    <radialGradient id="radial-gradient" cx="-0.095" cy="0.312" r="0.861" gradientTransform="translate(-0.366) scale(1.732 1)" gradientUnits="objectBoundingBox">
      <stop offset="0" stop-color="#274f89"/>
      <stop offset="1" stop-color="#173d7a"/>
    </radialGradient>
    <linearGradient id="linear-gradient" y1="0.5" x2="1.319" y2="0.5" gradientUnits="objectBoundingBox">
      <stop offset="0" stop-color="#d4ecff"/>
      <stop offset="0.239" stop-color="#d0e9fd"/>
      <stop offset="0.46" stop-color="#c5e2f9"/>
      <stop offset="0.675" stop-color="#b2d5f1"/>
      <stop offset="0.884" stop-color="#98c4e7"/>
      <stop offset="1" stop-color="#86b8e0"/>
    </linearGradient>
    <radialGradient id="radial-gradient-2" cx="-1.237" cy="-0.578" r="1.555" gradientTransform="translate(-0.366) scale(1.732 1)" gradientUnits="objectBoundingBox">
      <stop offset="0" stop-color="#699dd1"/>
      <stop offset="0.266" stop-color="#6296cb"/>
      <stop offset="0.641" stop-color="#5084bd"/>
      <stop offset="1" stop-color="#396caa"/>
    </radialGradient>
    <radialGradient id="radial-gradient-3" cx="-0.095" cy="0.312" r="0.861" xlink:href="#radial-gradient"/>
    <radialGradient id="radial-gradient-4" cx="-1.237" cy="-0.578" r="1.555" xlink:href="#radial-gradient-2"/>
    <radialGradient id="radial-gradient-5" cx="-0.095" cy="0.312" r="0.861" xlink:href="#radial-gradient"/>
    <radialGradient id="radial-gradient-6" cx="-1.237" cy="-0.578" r="1.555" xlink:href="#radial-gradient-2"/>
    <radialGradient id="radial-gradient-7" cx="-0.095" cy="0.312" r="0.861" xlink:href="#radial-gradient"/>
    <radialGradient id="radial-gradient-8" cx="-1.237" cy="-0.578" r="1.555" xlink:href="#radial-gradient-2"/>
    <radialGradient id="radial-gradient-9" cx="0.234" cy="0.38" r="0.644" gradientTransform="translate(-0.287) scale(1.574 1)" gradientUnits="objectBoundingBox">
      <stop offset="0" stop-color="#396caa"/>
      <stop offset="1" stop-color="#274f89"/>
    </radialGradient>
    <linearGradient id="linear-gradient-5" x1="0.029" y1="0.235" x2="0.883" y2="0.916" xlink:href="#linear-gradient"/>
    <linearGradient id="linear-gradient-6" x1="-2.426" y1="2.662" x2="-1.3" y2="2.575" gradientUnits="objectBoundingBox">
      <stop offset="0" stop-color="#3919bb"/>
      <stop offset="1" stop-color="#6507fa"/>
    </linearGradient>
    <radialGradient id="radial-gradient-10" cx="0.055" cy="0.064" r="1.056" gradientTransform="translate(-0.02) scale(1.039 1)" xlink:href="#radial-gradient-2"/>
    <linearGradient id="linear-gradient-8" x1="0.131" y1="0.119" x2="0.99" y2="1.006" gradientUnits="objectBoundingBox">
      <stop offset="0" stop-color="#d4ecff"/>
      <stop offset="0.201" stop-color="#d0e9fd"/>
      <stop offset="0.387" stop-color="#c5e2f9"/>
      <stop offset="0.568" stop-color="#b2d5f1"/>
      <stop offset="0.744" stop-color="#98c4e7"/>
      <stop offset="0.842" stop-color="#86b8e0"/>
    </linearGradient>
    <radialGradient id="radial-gradient-11" cx="0.055" cy="0.064" r="1.056" gradientTransform="translate(-0.02) scale(1.039 1)" xlink:href="#radial-gradient-2"/>
    <radialGradient id="radial-gradient-12" cx="0.055" cy="0.064" r="1.056" gradientTransform="translate(-0.02) scale(1.039 1)" xlink:href="#radial-gradient-2"/>
  </defs>
  <g id="Grupo_78129" data-name="Grupo 78129" transform="translate(-93.145 -4297.23)">
    <rect id="Rectángulo_22893" data-name="Rectángulo 22893" width="1140.522" height="637.537" rx="23.382" transform="translate(93.144 4297.23)" fill="#bde9f9"/>
    <g id="Grupo_78128" data-name="Grupo 78128">
      <g id="Grupo_78094" data-name="Grupo 78094" opacity="0.4">
        <path id="Trazado_178967" data-name="Trazado 178967" d="M981.837,4481.129l-58.356-33.694,58.354-33.69.516.3,57.841,33.394Zm-54.225-33.694,54.225,31.308,54.223-31.306-54.225-31.306Z" fill="#fff"/>
        <path id="Trazado_178968" data-name="Trazado 178968" d="M869.257,4481.127,810.9,4447.435l58.354-33.692,58.355,33.692Zm-54.223-33.692,54.223,31.306,54.224-31.306-54.224-31.306Z" fill="#fff"/>
        <path id="Trazado_178969" data-name="Trazado 178969" d="M925.548,4513.626l-.515-.3-57.841-33.393,58.354-33.692,58.357,33.694Zm-54.225-33.692,54.225,31.306,54.224-31.3-54.226-31.308Z" fill="#fff"/>
        <path id="Trazado_178970" data-name="Trazado 178970" d="M981.839,4546.125l-.516-.3-57.84-33.393,58.354-33.69.516.3,57.841,33.394Zm-54.225-33.692,54.225,31.306,54.223-31.3-54.225-31.306Z" fill="#fff"/>
        <path id="Trazado_178971" data-name="Trazado 178971" d="M756.68,4481.125l-.516-.3-57.841-33.393,58.355-33.69.515.3,57.841,33.393Zm-54.226-33.692,54.226,31.306,54.223-31.3-54.225-31.306Z" fill="#fff"/>
        <path id="Trazado_178972" data-name="Trazado 178972" d="M812.968,4513.626l-58.354-33.694,58.354-33.69,58.355,33.692Zm-54.223-33.694,54.223,31.308,54.224-31.306-54.224-31.306Z" fill="#fff"/>
        <path id="Trazado_178973" data-name="Trazado 178973" d="M869.259,4546.125l-.515-.3L810.9,4512.433l58.354-33.692.516.3,57.841,33.394Zm-54.225-33.692,54.225,31.306,54.224-31.306-54.226-31.306Z" fill="#fff"/>
        <path id="Trazado_178974" data-name="Trazado 178974" d="M925.55,4578.624l-.516-.3-57.841-33.393,58.355-33.692.516.3,57.841,33.393Zm-54.225-33.692,54.225,31.306,54.223-31.306-54.225-31.306Z" fill="#fff"/>
        <path id="Trazado_178975" data-name="Trazado 178975" d="M981.841,4611.123l-.516-.3-57.841-33.393,58.355-33.692,58.356,33.694Zm-54.225-33.692,54.225,31.306,54.223-31.3-54.225-31.308Z" fill="#fff"/>
        <path id="Trazado_178976" data-name="Trazado 178976" d="M644.1,4481.125l-.516-.3-57.841-33.393,58.355-33.692.516.3,57.84,33.393Zm-54.225-33.692,54.225,31.306,54.223-31.306L644.1,4416.127Z" fill="#fff"/>
        <path id="Trazado_178977" data-name="Trazado 178977" d="M700.391,4513.624l-.516-.3-57.841-33.394,58.355-33.692.515.3,57.841,33.393Zm-54.226-33.692,54.226,31.306,54.223-31.306-54.225-31.306Z" fill="#fff"/>
        <path id="Trazado_178978" data-name="Trazado 178978" d="M756.681,4546.123l-.515-.3-57.841-33.393,58.355-33.692,58.354,33.694Zm-54.225-33.692,54.225,31.306,54.222-31.3-54.223-31.308Z" fill="#fff"/>
        <path id="Trazado_178979" data-name="Trazado 178979" d="M812.97,4578.624l-58.354-33.694,58.352-33.69.516.3,57.841,33.393Zm-54.223-33.694,54.223,31.308,54.223-31.306-54.225-31.306Z" fill="#fff"/>
        <path id="Trazado_178980" data-name="Trazado 178980" d="M869.261,4611.123l-.515-.3-57.841-33.393,58.354-33.692.516.3,57.841,33.394Zm-54.225-33.692,54.225,31.306,54.223-31.306-54.225-31.306Z" fill="#fff"/>
        <path id="Trazado_178981" data-name="Trazado 178981" d="M925.552,4643.622l-.516-.3L867.2,4609.93l58.355-33.692.516.3,57.84,33.393Zm-54.225-33.692,54.225,31.306,54.223-31.306-54.225-31.306Z" fill="#fff"/>
        <path id="Trazado_178982" data-name="Trazado 178982" d="M981.843,4676.121l-.516-.3-57.841-33.393,58.355-33.692.515.3,57.841,33.394Zm-54.225-33.692,54.225,31.306,54.223-31.306-54.225-31.306Z" fill="#fff"/>
        <path id="Trazado_178983" data-name="Trazado 178983" d="M531.52,4481.123l-.516-.3-57.841-33.394,58.355-33.69.516.3,57.841,33.393ZM477.3,4447.431l54.225,31.306,54.223-31.3-54.225-31.306Z" fill="#fff"/>
        <path id="Trazado_178984" data-name="Trazado 178984" d="M587.811,4513.624l-58.357-33.694,58.355-33.69.515.3,57.841,33.393Zm-54.225-33.694,54.225,31.308,54.223-31.306-54.225-31.306Z" fill="#fff"/>
        <path id="Trazado_178985" data-name="Trazado 178985" d="M644.1,4546.123l-.516-.3-57.841-33.393,58.355-33.692.515.3,57.841,33.393Zm-54.226-33.692,54.226,31.306,54.223-31.306L644.1,4481.125Z" fill="#fff"/>
        <path id="Trazado_178986" data-name="Trazado 178986" d="M700.392,4578.622l-.515-.3-57.841-33.394,58.355-33.692.515.3,57.841,33.393Zm-54.225-33.692,54.225,31.306,54.224-31.306-54.225-31.306Z" fill="#fff"/>
        <path id="Trazado_178987" data-name="Trazado 178987" d="M756.681,4611.121l-58.354-33.692,58.354-33.692,58.355,33.694Zm-54.223-33.692,54.223,31.306,54.224-31.3-54.224-31.308Z" fill="#fff"/>
        <path id="Trazado_178988" data-name="Trazado 178988" d="M812.972,4643.62l-.515-.3-57.841-33.393,58.354-33.69.516.3,57.841,33.393Zm-54.225-33.692,54.225,31.306,54.223-31.3-54.225-31.306Z" fill="#fff"/>
        <path id="Trazado_178989" data-name="Trazado 178989" d="M869.263,4676.121l-58.357-33.694,58.355-33.69.516.3,57.841,33.394Zm-54.225-33.694,54.225,31.308,54.223-31.306-54.225-31.306Z" fill="#fff"/>
        <path id="Trazado_178990" data-name="Trazado 178990" d="M925.554,4708.62l-.516-.3L867.2,4674.928l58.355-33.692.515.3,57.841,33.393Zm-54.226-33.692,54.226,31.306,54.223-31.306-54.225-31.306Z" fill="#fff"/>
        <path id="Trazado_178991" data-name="Trazado 178991" d="M981.844,4741.119l-.515-.3-57.841-33.393,58.355-33.692.515.3,57.841,33.394Zm-54.225-33.692,54.225,31.306,54.224-31.306-54.225-31.306Z" fill="#fff"/>
        <path id="Trazado_178992" data-name="Trazado 178992" d="M418.94,4481.123l-.515-.3-57.841-33.394,58.354-33.692.516.3,57.841,33.393Zm-54.225-33.692,54.225,31.306,54.223-31.306-54.225-31.306Z" fill="#fff"/>
        <path id="Trazado_178993" data-name="Trazado 178993" d="M475.231,4513.622l-.515-.3-57.841-33.394,58.354-33.692.516.3,57.841,33.393Zm-54.225-33.692,54.225,31.306,54.223-31.306-54.225-31.306Z" fill="#fff"/>
        <path id="Trazado_178994" data-name="Trazado 178994" d="M531.522,4546.121l-.516-.3-57.841-33.394,58.355-33.692,58.356,33.694ZM477.3,4512.429l54.225,31.306,54.223-31.3-54.225-31.308Z" fill="#fff"/>
        <path id="Trazado_178995" data-name="Trazado 178995" d="M587.813,4578.622l-58.357-33.694,58.355-33.69.515.3,57.841,33.393Zm-54.225-33.694,54.225,31.308,54.223-31.306-54.225-31.306Z" fill="#fff"/>
        <path id="Trazado_178996" data-name="Trazado 178996" d="M644.1,4611.121l-.515-.3-57.841-33.393,58.355-33.692.515.3,57.841,33.393Zm-54.225-33.692,54.225,31.306,54.224-31.306L644.1,4546.123Z" fill="#fff"/>
        <path id="Trazado_178997" data-name="Trazado 178997" d="M700.392,4643.62l-58.354-33.692,58.354-33.692,58.355,33.692Zm-54.223-33.692,54.223,31.306,54.224-31.306-54.224-31.306Z" fill="#fff"/>
        <path id="Trazado_178998" data-name="Trazado 178998" d="M756.683,4676.119l-.515-.3-57.841-33.393,58.354-33.692.516.3,57.841,33.393Zm-54.225-33.692,54.225,31.306,54.223-31.306-54.225-31.306Z" fill="#fff"/>
        <path id="Trazado_178999" data-name="Trazado 178999" d="M812.974,4708.618l-.516-.3-57.841-33.393,58.355-33.692,58.356,33.694Zm-54.225-33.692,54.225,31.306,54.223-31.3-54.225-31.308Z" fill="#fff"/>
        <path id="Trazado_179000" data-name="Trazado 179000" d="M869.265,4741.119l-58.357-33.694,58.355-33.69.515.3,57.841,33.394Zm-54.225-33.694,54.225,31.308,54.223-31.306-54.225-31.306Z" fill="#fff"/>
        <path id="Trazado_179001" data-name="Trazado 179001" d="M925.555,4773.618l-.515-.3L867.2,4739.926l58.355-33.692.515.3,57.841,33.394Zm-54.225-33.692,54.225,31.306,54.224-31.306-54.225-31.306Z" fill="#fff"/>
        <path id="Trazado_179002" data-name="Trazado 179002" d="M981.846,4806.117l-.515-.3-57.841-33.393,58.354-33.692.516.3,57.841,33.394Zm-54.225-33.692,54.225,31.306,54.224-31.306-54.226-31.306Z" fill="#fff"/>
        <path id="Trazado_179003" data-name="Trazado 179003" d="M418.942,4546.121l-.515-.3-57.841-33.394,58.354-33.692.516.3,57.841,33.393Zm-54.225-33.692,54.225,31.306,54.223-31.306-54.225-31.306Z" fill="#fff"/>
        <path id="Trazado_179004" data-name="Trazado 179004" d="M475.233,4578.62l-.516-.3-57.841-33.394,58.355-33.692.516.3,57.841,33.393Zm-54.225-33.692,54.225,31.306,54.223-31.306-54.225-31.306Z" fill="#fff"/>
        <path id="Trazado_179005" data-name="Trazado 179005" d="M531.524,4611.119l-.516-.3-57.841-33.394,58.355-33.692,58.356,33.694ZM477.3,4577.427l54.225,31.306,54.223-31.3-54.225-31.308Z" fill="#fff"/>
        <path id="Trazado_179006" data-name="Trazado 179006" d="M587.814,4643.618l-.515-.3-57.841-33.394,58.355-33.69.515.3,57.841,33.393Zm-54.225-33.692,54.225,31.306,54.224-31.3-54.225-31.306Z" fill="#fff"/>
        <path id="Trazado_179007" data-name="Trazado 179007" d="M644.1,4676.119l-58.356-33.694,58.354-33.69,58.355,33.692Zm-54.225-33.694,54.225,31.308,54.222-31.306L644.1,4611.121Z" fill="#fff"/>
        <path id="Trazado_179008" data-name="Trazado 179008" d="M700.394,4708.618l-58.354-33.692,58.352-33.692.516.3,57.841,33.393Zm-54.223-33.692,54.223,31.306,54.223-31.306-54.225-31.306Z" fill="#fff"/>
        <path id="Trazado_179009" data-name="Trazado 179009" d="M756.685,4741.117l-.516-.3-57.841-33.393,58.355-33.692.516.3,57.841,33.393Zm-54.225-33.692,54.225,31.306,54.223-31.306-54.225-31.306Z" fill="#fff"/>
        <path id="Trazado_179010" data-name="Trazado 179010" d="M812.976,4773.616l-.516-.3-57.841-33.393,58.355-33.692,58.356,33.694Zm-54.225-33.692,54.225,31.306,54.223-31.3-54.225-31.308Z" fill="#fff"/>
        <path id="Trazado_179011" data-name="Trazado 179011" d="M869.267,4806.115l-.516-.3-57.841-33.393,58.355-33.69.515.3,57.841,33.394Zm-54.225-33.692,54.225,31.306,54.223-31.3-54.225-31.306Z" fill="#fff"/>
        <path id="Trazado_179012" data-name="Trazado 179012" d="M925.557,4838.616,867.2,4804.922l58.354-33.69.516.3,57.841,33.394Zm-54.225-33.694,54.225,31.308,54.224-31.306-54.226-31.306Z" fill="#fff"/>
        <path id="Trazado_179013" data-name="Trazado 179013" d="M981.848,4871.115l-.515-.3-57.841-33.393,58.354-33.692.516.3,57.841,33.394Zm-54.225-33.692,54.225,31.306,54.223-31.306-54.225-31.306Z" fill="#fff"/>
        <path id="Trazado_179014" data-name="Trazado 179014" d="M418.944,4611.119l-58.357-33.694,58.355-33.69.516.3,57.841,33.393Zm-54.225-33.694,54.225,31.308,54.223-31.306-54.225-31.306Z" fill="#fff"/>
        <path id="Trazado_179015" data-name="Trazado 179015" d="M475.235,4643.618l-.516-.3-57.841-33.394,58.355-33.692.515.3,57.841,33.393Zm-54.225-33.692,54.225,31.306,54.223-31.306-54.225-31.306Z" fill="#fff"/>
        <path id="Trazado_179016" data-name="Trazado 179016" d="M531.525,4676.117l-.515-.3-57.841-33.394,58.355-33.692.515.3,57.841,33.393ZM477.3,4642.425l54.225,31.306,54.224-31.306-54.225-31.306Z" fill="#fff"/>
        <path id="Trazado_179017" data-name="Trazado 179017" d="M587.816,4708.616l-.515-.3-57.841-33.394,58.354-33.692,58.357,33.694Zm-54.225-33.692,54.225,31.306,54.224-31.3-54.226-31.308Z" fill="#fff"/>
        <path id="Trazado_179018" data-name="Trazado 179018" d="M644.1,4741.115l-58.354-33.692,58.354-33.69,58.355,33.692Zm-54.223-33.692,54.223,31.306,54.223-31.3L644.1,4676.119Z" fill="#fff"/>
        <path id="Trazado_179019" data-name="Trazado 179019" d="M700.4,4773.616l-58.356-33.694,58.354-33.69.516.3,57.841,33.393Zm-54.225-33.694L700.4,4771.23l54.223-31.306-54.225-31.306Z" fill="#fff"/>
        <path id="Trazado_179020" data-name="Trazado 179020" d="M756.687,4806.115l-.516-.3-57.841-33.393,58.355-33.692.516.3,57.841,33.393Zm-54.225-33.692,54.225,31.306,54.223-31.306-54.225-31.306Z" fill="#fff"/>
        <path id="Trazado_179021" data-name="Trazado 179021" d="M812.978,4838.614l-.516-.3-57.841-33.393,58.355-33.692.515.3,57.841,33.393Zm-54.226-33.692,54.226,31.306,54.223-31.306-54.225-31.306Z" fill="#fff"/>
        <path id="Trazado_179022" data-name="Trazado 179022" d="M869.268,4871.113l-.515-.3-57.841-33.393,58.355-33.692,58.356,33.694Zm-54.225-33.692,54.225,31.306,54.224-31.3-54.225-31.308Z" fill="#fff"/>
        <path id="Trazado_179023" data-name="Trazado 179023" d="M418.946,4676.117l-58.357-33.694,58.355-33.69.515.3,57.841,33.393Zm-54.225-33.694,54.225,31.308,54.223-31.306-54.225-31.306Z" fill="#fff"/>
        <path id="Trazado_179024" data-name="Trazado 179024" d="M475.237,4708.616l-.516-.3-57.841-33.394,58.355-33.692.515.3,57.841,33.393Zm-54.226-33.692,54.226,31.306,54.223-31.306-54.225-31.306Z" fill="#fff"/>
        <path id="Trazado_179025" data-name="Trazado 179025" d="M531.527,4741.115l-.515-.3-57.841-33.394,58.354-33.692.516.3,57.841,33.393ZM477.3,4707.423l54.225,31.306,54.224-31.306-54.226-31.306Z" fill="#fff"/>
        <path id="Trazado_179026" data-name="Trazado 179026" d="M587.816,4773.614l-58.354-33.692,58.354-33.692,58.355,33.692Zm-54.223-33.692,54.223,31.306,54.224-31.306-54.224-31.306Z" fill="#fff"/>
        <path id="Trazado_179027" data-name="Trazado 179027" d="M644.107,4806.113l-.516-.3-57.84-33.394,58.354-33.692,58.357,33.694Zm-54.225-33.692,54.225,31.306,54.223-31.3L644.1,4741.115Z" fill="#fff"/>
        <path id="Trazado_179028" data-name="Trazado 179028" d="M700.4,4838.614l-58.357-33.694,58.355-33.69.515.3,57.841,33.393Zm-54.225-33.694,54.225,31.308,54.223-31.306L700.4,4773.616Z" fill="#fff"/>
        <path id="Trazado_179029" data-name="Trazado 179029" d="M756.689,4871.113l-.516-.3-57.841-33.393,58.355-33.692.515.3,57.841,33.393Zm-54.226-33.692,54.226,31.306,54.223-31.306-54.225-31.306Z" fill="#fff"/>
        <path id="Trazado_179030" data-name="Trazado 179030" d="M418.948,4741.113l-.516-.3-57.841-33.394,58.355-33.69.515.3,57.841,33.393Zm-54.226-33.692,54.226,31.306,54.223-31.3-54.225-31.306Z" fill="#fff"/>
        <path id="Trazado_179031" data-name="Trazado 179031" d="M475.238,4773.614l-58.356-33.694,58.355-33.69.515.3,57.841,33.393Zm-54.225-33.694,54.225,31.308,54.224-31.306-54.225-31.306Z" fill="#fff"/>
        <path id="Trazado_179032" data-name="Trazado 179032" d="M531.529,4806.113l-.515-.3-57.841-33.394,58.354-33.692,58.355,33.692ZM477.3,4772.421l54.225,31.306,54.222-31.306-54.224-31.306Z" fill="#fff"/>
        <path id="Trazado_179033" data-name="Trazado 179033" d="M587.818,4838.612l-58.355-33.692,58.353-33.692.516.3,57.841,33.393Zm-54.223-33.692,54.223,31.306,54.223-31.306-54.225-31.306Z" fill="#fff"/>
        <path id="Trazado_179034" data-name="Trazado 179034" d="M644.109,4871.111l-.516-.3-57.841-33.394,58.355-33.692,58.356,33.694Zm-54.225-33.692,54.225,31.306,54.223-31.3-54.225-31.308Z" fill="#fff"/>
        <path id="Trazado_179035" data-name="Trazado 179035" d="M418.949,4806.111l-.515-.3-57.841-33.394,58.355-33.692,58.356,33.694Zm-54.225-33.692,54.225,31.306,54.224-31.3-54.225-31.308Z" fill="#fff"/>
        <path id="Trazado_179036" data-name="Trazado 179036" d="M475.24,4838.611l-.515-.3-57.841-33.394,58.354-33.69.516.3,57.841,33.393Zm-54.225-33.693,54.225,31.306,54.223-31.3-54.225-31.306Z" fill="#fff"/>
        <path id="Trazado_179037" data-name="Trazado 179037" d="M531.529,4871.111l-58.355-33.694,58.355-33.69,58.355,33.692Zm-54.223-33.694,54.223,31.308,54.223-31.306-54.223-31.306Z" fill="#fff"/>
        <path id="Trazado_179038" data-name="Trazado 179038" d="M418.951,4871.109l-.515-.3L360.6,4837.417l58.354-33.692.516.3,57.841,33.393Zm-54.225-33.692,54.225,31.306,54.223-31.306-54.225-31.306Z" fill="#fff"/>
      </g>
      <path id="Trazado_179039" data-name="Trazado 179039" d="M361.149,4696.883a19.866,19.866,0,0,0-3.181,2.329c-.44-14.31-10.776-20-23.5-12.657-10.36,5.981-19.137,18.787-22.283,31.339a14.05,14.05,0,0,0-8.789,2.183c-9.273,5.354-16.791,18.375-16.791,29.083s7.518,15.048,16.791,9.694l57.75-33.342c6.847-3.953,12.4-13.566,12.4-21.472S368,4692.93,361.149,4696.883Z" fill="#fff"/>
      <g id="Grupo_78095" data-name="Grupo 78095">
        <path id="Trazado_179040" data-name="Trazado 179040" d="M809.159,4784.561a12.037,12.037,0,0,1-5.446,9.431c-3.007,1.736-5.444.328-5.444-3.144a12.033,12.033,0,0,1,5.444-9.43C806.721,4779.681,809.159,4781.089,809.159,4784.561Z" fill="#fff"/>
        <path id="Trazado_179041" data-name="Trazado 179041" d="M826.808,4774.371a12.036,12.036,0,0,1-5.445,9.431c-3.008,1.736-5.445.329-5.445-3.143a12.032,12.032,0,0,1,5.445-9.431C824.37,4769.492,826.808,4770.9,826.808,4774.371Z" fill="#fff"/>
        <path id="Trazado_179042" data-name="Trazado 179042" d="M844.457,4764.182a12.034,12.034,0,0,1-5.445,9.43c-3.007,1.736-5.445.329-5.445-3.143a12.034,12.034,0,0,1,5.445-9.431C842.019,4759.3,844.457,4760.709,844.457,4764.182Z" fill="#fff"/>
        <path id="Trazado_179043" data-name="Trazado 179043" d="M862.106,4753.992a12.037,12.037,0,0,1-5.445,9.431c-3.007,1.736-5.445.328-5.445-3.144a12.037,12.037,0,0,1,5.445-9.431C859.668,4749.112,862.106,4750.519,862.106,4753.992Z" fill="#fff"/>
      </g>
      <g id="Grupo_78096" data-name="Grupo 78096">
        <path id="Trazado_179044" data-name="Trazado 179044" d="M554.959,4881.891a12.034,12.034,0,0,1-5.445,9.43c-3.007,1.736-5.445.329-5.445-3.143a12.036,12.036,0,0,1,5.445-9.431C552.521,4877.011,554.959,4878.418,554.959,4881.891Z" fill="#fff"/>
        <path id="Trazado_179045" data-name="Trazado 179045" d="M569.98,4873.219a12.034,12.034,0,0,1-5.445,9.43c-3.008,1.736-5.446.329-5.446-3.143a12.033,12.033,0,0,1,5.446-9.431C567.542,4868.339,569.98,4869.746,569.98,4873.219Z" fill="#fff"/>
        <path id="Trazado_179046" data-name="Trazado 179046" d="M554.959,4864.547a12.037,12.037,0,0,1-5.445,9.431c-3.007,1.736-5.445.328-5.445-3.144a12.037,12.037,0,0,1,5.445-9.431C552.521,4859.667,554.959,4861.075,554.959,4864.547Z" fill="#fff"/>
        <path id="Trazado_179047" data-name="Trazado 179047" d="M569.98,4855.875a12.035,12.035,0,0,1-5.445,9.43c-3.008,1.737-5.446.329-5.446-3.143a12.034,12.034,0,0,1,5.446-9.431C567.542,4851,569.98,4852.4,569.98,4855.875Z" fill="#fff"/>
      </g>
      <g id="Grupo_78097" data-name="Grupo 78097">
        <path id="Trazado_179048" data-name="Trazado 179048" d="M504.512,4447.267l-10.89,6.288V4440.98l10.89-6.288Z" fill="#fff"/>
        <path id="Trazado_179049" data-name="Trazado 179049" d="M519.626,4438.432l-10.89,6.287v-12.574l10.89-6.287Z" fill="#fff"/>
        <path id="Trazado_179050" data-name="Trazado 179050" d="M504.606,4463.581l-10.89,6.288v-12.574l10.89-6.288Z" fill="#fff"/>
        <path id="Trazado_179051" data-name="Trazado 179051" d="M519.626,4454.909l-10.89,6.287v-12.574l10.89-6.287Z" fill="#fff"/>
      </g>
      <path id="Trazado_179052" data-name="Trazado 179052" d="M948.763,4322.552a20.824,20.824,0,0,0-5.319,4.571c-.25-10.488-7.775-14.678-17.043-9.327a30.994,30.994,0,0,0-8.191,7.147c-4.126-7.211-12.672-8.885-22.577-3.167-13.929,8.042-25.221,27.6-25.221,43.682a30.045,30.045,0,0,0,.253,3.76c-1.987-.514-4.422-.1-7.062,1.425-6.665,3.848-12.067,13.205-12.067,20.9s5.4,10.814,12.067,6.967l85.16-49.168c6.408-3.7,11.6-12.695,11.6-20.094S955.171,4318.853,948.763,4322.552Z" fill="#fff" opacity="0.2"/>
      <path id="Trazado_179053" data-name="Trazado 179053" d="M963.939,4335.924a20.81,20.81,0,0,0-5.32,4.571c-.25-10.488-7.775-14.678-17.042-9.327a31,31,0,0,0-8.192,7.147c-4.125-7.211-12.672-8.886-22.577-3.167-13.929,8.042-25.22,27.6-25.22,43.682a30.038,30.038,0,0,0,.252,3.76c-1.986-.514-4.421-.1-7.062,1.425-6.664,3.848-12.067,13.206-12.067,20.9s5.4,10.814,12.067,6.966l85.161-49.167c6.407-3.7,11.6-12.7,11.6-20.094S970.346,4332.224,963.939,4335.924Z" fill="#fff" opacity="0.5"/>
      <path id="Trazado_179054" data-name="Trazado 179054" d="M979.114,4349.3a20.816,20.816,0,0,0-5.32,4.571c-.25-10.488-7.774-14.678-17.042-9.328a31.015,31.015,0,0,0-8.191,7.147c-4.126-7.21-12.673-8.885-22.578-3.166-13.929,8.042-25.22,27.6-25.22,43.682a30.051,30.051,0,0,0,.253,3.76c-1.987-.515-4.422-.1-7.063,1.425-6.664,3.848-12.067,13.2-12.067,20.9s5.4,10.814,12.067,6.966l85.161-49.167c6.407-3.7,11.6-12.7,11.6-20.094S985.521,4345.6,979.114,4349.3Z" fill="#fff"/>
      <path id="Trazado_179055" data-name="Trazado 179055" d="M484.552,4724.879a2.634,2.634,0,0,1-2.634-2.634v-33.737a2.633,2.633,0,0,1,1.317-2.281l29.218-16.87a2.635,2.635,0,0,1,3.952,2.281v33.739a2.634,2.634,0,0,1-1.318,2.281l-29.218,16.868A2.632,2.632,0,0,1,484.552,4724.879Zm2.634-34.85v27.655l23.95-13.827V4676.2Zm26.585,15.348h0Z" fill="#fff"/>
      <g id="Grupo_78099" data-name="Grupo 78099">
        <g id="Grupo_78098" data-name="Grupo 78098">
          <path id="Trazado_179056" data-name="Trazado 179056" d="M464.487,4889.566l-42.138-24.329,42.137-24.328,42.138,24.329Z" fill="#7dc3ea"/>
          <path id="Trazado_179057" data-name="Trazado 179057" d="M464.487,4874.5a3.2,3.2,0,0,1-1.6-.43l-42.139-24.329a3.2,3.2,0,0,1,0-5.548l42.137-24.328a3.2,3.2,0,0,1,3.2,0l42.139,24.328a3.2,3.2,0,0,1,0,5.548l-42.137,24.329A3.2,3.2,0,0,1,464.487,4874.5Zm-35.732-27.533,35.732,20.629,35.731-20.629-35.732-20.628Z" fill="#fff"/>
          <path id="Trazado_179058" data-name="Trazado 179058" d="M506.624,4827.959l-42.137,24.328v-48.655l42.137-24.328Z" fill="url(#radial-gradient)"/>
          <path id="Trazado_179059" data-name="Trazado 179059" d="M464.487,4803.632,422.35,4779.3l42.136-24.327,42.137,24.328Z" fill="url(#linear-gradient)"/>
          <path id="Trazado_179060" data-name="Trazado 179060" d="M464.487,4852.287l-42.137-24.328V4779.3l42.137,24.328Z" fill="url(#radial-gradient-2)"/>
        </g>
        <path id="Trazado_179061" data-name="Trazado 179061" d="M449.311,4826l-11.786-6.8v-13.608l11.786,6.8Z" fill="#fff"/>
      </g>
      <g id="Grupo_78101" data-name="Grupo 78101">
        <g id="Grupo_78100" data-name="Grupo 78100">
          <path id="Trazado_179062" data-name="Trazado 179062" d="M936.3,4627.5l-42.138-24.328L936.3,4578.84l42.138,24.329Z" fill="#7dc3ea"/>
          <path id="Trazado_179063" data-name="Trazado 179063" d="M936.3,4612.431a3.2,3.2,0,0,1-1.6-.43l-42.139-24.327a3.2,3.2,0,0,1,0-5.549L934.7,4557.8a3.2,3.2,0,0,1,3.2,0l42.139,24.327a3.2,3.2,0,0,1,0,5.549L937.9,4612A3.2,3.2,0,0,1,936.3,4612.431Zm-35.73-27.532,35.73,20.628L972.03,4584.9,936.3,4564.272Z" fill="#fff"/>
          <path id="Trazado_179064" data-name="Trazado 179064" d="M978.439,4565.89,936.3,4590.218v-48.654l42.137-24.328Z" fill="url(#radial-gradient-3)"/>
          <path id="Trazado_179065" data-name="Trazado 179065" d="M936.3,4541.563l-42.137-24.328,42.136-24.327,42.137,24.328Z" fill="url(#linear-gradient)"/>
          <path id="Trazado_179066" data-name="Trazado 179066" d="M936.3,4590.218l-42.137-24.328v-48.655l42.137,24.328Z" fill="url(#radial-gradient-4)"/>
        </g>
        <path id="Trazado_179067" data-name="Trazado 179067" d="M921.125,4563.933l-11.786-6.8v-13.608l11.786,6.8Z" fill="#fff"/>
        <path id="Trazado_179068" data-name="Trazado 179068" d="M924.517,4517.377l11.7-6.945,11.866,6.663-11.7,6.945Z" fill="#fff"/>
      </g>
      <g id="Grupo_78103" data-name="Grupo 78103">
        <g id="Grupo_78102" data-name="Grupo 78102">
          <path id="Trazado_179069" data-name="Trazado 179069" d="M936.3,4889.566l-42.138-24.329,42.137-24.328,42.138,24.329Z" fill="#7dc3ea"/>
          <path id="Trazado_179070" data-name="Trazado 179070" d="M936.3,4874.5a3.2,3.2,0,0,1-1.6-.43l-42.139-24.329a3.2,3.2,0,0,1,0-5.548l42.137-24.328a3.2,3.2,0,0,1,3.2,0l42.139,24.328a3.2,3.2,0,0,1,0,5.548L937.9,4874.071A3.2,3.2,0,0,1,936.3,4874.5Zm-35.732-27.533L936.3,4867.6l35.73-20.629L936.3,4826.34Z" fill="#fff"/>
          <path id="Trazado_179071" data-name="Trazado 179071" d="M978.438,4827.959,936.3,4852.287v-48.655l42.137-24.328Z" fill="url(#radial-gradient-5)"/>
          <path id="Trazado_179072" data-name="Trazado 179072" d="M936.3,4803.632,894.163,4779.3l42.136-24.327,42.137,24.328Z" fill="url(#linear-gradient)"/>
          <path id="Trazado_179073" data-name="Trazado 179073" d="M936.3,4852.287l-42.137-24.328V4779.3l42.137,24.328Z" fill="url(#radial-gradient-6)"/>
        </g>
        <path id="Trazado_179074" data-name="Trazado 179074" d="M921.125,4826l-11.785-6.8v-13.608l11.785,6.8Z" fill="#fff"/>
      </g>
      <g id="Grupo_78105" data-name="Grupo 78105">
        <g id="Grupo_78104" data-name="Grupo 78104">
          <path id="Trazado_179075" data-name="Trazado 179075" d="M464.487,4627.5l-42.138-24.328,42.137-24.328,42.138,24.329Z" fill="#7dc3ea"/>
          <path id="Trazado_179076" data-name="Trazado 179076" d="M464.487,4612.431a3.2,3.2,0,0,1-1.6-.43l-42.139-24.327a3.2,3.2,0,0,1,0-5.549l42.137-24.327a3.2,3.2,0,0,1,3.2,0l42.139,24.327a3.2,3.2,0,0,1,0,5.549L466.089,4612A3.2,3.2,0,0,1,464.487,4612.431Zm-35.73-27.532,35.73,20.628,35.729-20.628-35.73-20.627Z" fill="#fff"/>
          <path id="Trazado_179077" data-name="Trazado 179077" d="M506.624,4565.89l-42.137,24.328v-48.654l42.137-24.328Z" fill="url(#radial-gradient-7)"/>
          <path id="Trazado_179078" data-name="Trazado 179078" d="M464.487,4541.563l-42.137-24.328,42.136-24.327,42.137,24.328Z" fill="url(#linear-gradient)"/>
          <path id="Trazado_179079" data-name="Trazado 179079" d="M464.487,4590.218,422.35,4565.89v-48.655l42.137,24.328Z" fill="url(#radial-gradient-8)"/>
        </g>
        <path id="Trazado_179080" data-name="Trazado 179080" d="M449.311,4563.933l-11.786-6.8v-13.608l11.786,6.8Z" fill="#fff"/>
      </g>
      <rect id="Rectángulo_22894" data-name="Rectángulo 22894" width="141.498" height="6.406" transform="matrix(0.866, -0.5, 0.5, 0.866, 790.481, 4622.36)" fill="#fff"/>
      <g id="Grupo_78118" data-name="Grupo 78118">
        <path id="Trazado_179081" data-name="Trazado 179081" d="M690.45,4799.335l-108.069-62.393c-3.96-2.286-3.463-6.28,1.11-8.921l114.541-66.3c4.573-2.64,11.491-2.926,15.451-.64l108.068,62.393c3.961,2.287,3.464,6.281-1.109,8.921l-114.541,66.3C701.328,4801.335,694.41,4801.622,690.45,4799.335Z" fill="#7dc3ea"/>
        <path id="Trazado_179082" data-name="Trazado 179082" d="M697.175,4778.835a16.917,16.917,0,0,1-8.326-1.958l-108.07-62.393a7.771,7.771,0,0,1-4.275-6.649c0-3,1.962-5.846,5.383-7.822l114.54-66.3c5.543-3.2,13.736-3.484,18.657-.643l108.069,62.394a7.765,7.765,0,0,1,4.275,6.648c0,3-1.962,5.846-5.384,7.82l-114.538,66.3A21.12,21.12,0,0,1,697.175,4778.835Zm-5.124-7.507c2.968,1.714,8.691,1.414,12.249-.641l114.538-66.3c1.6-.926,2.184-1.868,2.184-2.274,0-.24-.332-.672-1.071-1.1l-108.07-62.393c-2.967-1.714-8.691-1.414-12.248.641l-114.538,66.3c-1.6.925-2.184,1.867-2.184,2.275,0,.238.331.672,1.073,1.1Z" fill="#fff"/>
        <g id="Grupo_78117" data-name="Grupo 78117">
          <g id="Grupo_78116" data-name="Grupo 78116">
            <g id="Grupo_78108" data-name="Grupo 78108">
              <g id="Grupo_78107" data-name="Grupo 78107">
                <g id="Grupo_78106" data-name="Grupo 78106">
                  <path id="Trazado_179083" data-name="Trazado 179083" d="M698.25,4470.916s-59.332,5.652-95.066,8.4l94.78,269.935,125.368-72.308c.021-.012.041-.025.062-.036l.223-.129,0-.01c1.568-.989,2.56-3.145,2.56-6.189V4406.737a19.111,19.111,0,0,0-2.177-8.421Z" fill="url(#radial-gradient-9)"/>
                  <path id="Trazado_179084" data-name="Trazado 179084" d="M818.41,4391.9l-110.253-63.655c-1.917-1.106-3.668-1.187-5.022-.434h0L577.262,4400.43l5.93,21.949,31.561,89.884,5.941,3.43L824,4398.313A15.509,15.509,0,0,0,818.41,4391.9Z" fill="url(#linear-gradient-5)"/>
                  <path id="Trazado_179085" data-name="Trazado 179085" d="M692.63,4749l-110.254-63.655c-4.288-2.475-7.764-9.117-7.764-14.834V4406.675c0-5.717,3.476-8.344,7.764-5.869l110.254,63.655c4.287,2.476,7.763,9.117,7.763,14.834v263.839C700.393,4748.851,696.917,4751.478,692.63,4749Z" fill="#5793ce"/>
                  <path id="Trazado_179086" data-name="Trazado 179086" d="M694.993,4463.135,584.74,4399.48c-2.482-1.433-4.687-1.147-6.108.449a5.731,5.731,0,0,1,3.744.877l110.254,63.655c4.287,2.476,7.763,9.117,7.763,14.834v263.839a8.063,8.063,0,0,1-1.656,5.42c2.4-.379,4.02-2.84,4.02-6.746V4477.969C702.757,4472.252,699.281,4465.611,694.993,4463.135Z" fill="#fff"/>
                  <path id="Trazado_179087" data-name="Trazado 179087" d="M685.694,4733.12l-96.382-55.646c-3.748-2.165-6.787-7.97-6.787-12.968V4419.474c0-5,3.039-7.295,6.787-5.131l96.382,55.646c3.748,2.165,6.787,7.97,6.787,12.968v245.032C692.481,4732.987,689.442,4735.284,685.694,4733.12Z" fill="url(#linear-gradient-6)"/>
                  <path id="Trazado_179088" data-name="Trazado 179088" d="M685.694,4733.12l-96.382-55.646c-3.748-2.165-6.787-7.97-6.787-12.968V4419.474c0-5,3.039-7.295,6.787-5.131l96.382,55.646c3.748,2.165,6.787,7.97,6.787,12.968v245.032C692.481,4732.987,689.442,4735.284,685.694,4733.12Z" fill="url(#linear-gradient-6)"/>
                  <path id="Trazado_179089" data-name="Trazado 179089" d="M685.694,4733.12l-96.382-55.646c-3.748-2.165-6.787-7.97-6.787-12.968V4419.474c0-5,3.039-7.295,6.787-5.131l96.382,55.646c3.748,2.165,6.787,7.97,6.787,12.968v245.032C692.481,4732.987,689.442,4735.284,685.694,4733.12Z" fill="#173d7a"/>
                  <path id="Trazado_179090" data-name="Trazado 179090" d="M688.843,4731.267l-96.382-55.646c-3.748-2.164-6.787-7.97-6.787-12.967V4417.621a7.839,7.839,0,0,1,.974-4.09c-2.423-.019-4.123,2.206-4.123,5.943v245.032c0,5,3.039,10.8,6.787,12.968l96.382,55.646c2.47,1.426,4.625.9,5.813-1.04A5.457,5.457,0,0,1,688.843,4731.267Z" fill="#396caa"/>
                </g>
              </g>
            </g>
            <g id="Grupo_78110" data-name="Grupo 78110">
              <g id="Grupo_78109" data-name="Grupo 78109">
                <path id="Trazado_179091" data-name="Trazado 179091" d="M685.694,4620.622l-35.824-20.683-57.136,32.987,99.747,57.589v-56.926C692.481,4628.592,689.442,4622.786,685.694,4620.622Z" fill="#173d7a"/>
                <path id="Trazado_179092" data-name="Trazado 179092" d="M685.694,4570.411l-35.824-20.683-57.136,32.988,99.747,57.588v-56.926C692.481,4578.381,689.442,4572.575,685.694,4570.411Z" fill="#173d7a"/>
                <path id="Trazado_179093" data-name="Trazado 179093" d="M685.694,4520.2l-35.824-20.683L592.734,4532.5l99.747,57.588v-56.925C692.481,4528.17,689.442,4522.364,685.694,4520.2Z" fill="#173d7a"/>
                <path id="Trazado_179094" data-name="Trazado 179094" d="M685.694,4469.989l-35.824-20.683-57.136,32.988,99.747,57.589v-56.926C692.481,4477.959,689.442,4472.153,685.694,4469.989Z" fill="#173d7a"/>
                <path id="Trazado_179095" data-name="Trazado 179095" d="M685.694,4469.989,606.385,4424.2l-13.651,7.881,99.747,57.589v-6.714C692.481,4477.959,689.442,4472.153,685.694,4469.989Z" fill="#173d7a"/>
              </g>
              <path id="Trazado_179096" data-name="Trazado 179096" d="M692.481,4489.671l-99.746-57.589v31.736l99.746,57.588Z" fill="#5793ce"/>
              <path id="Trazado_179097" data-name="Trazado 179097" d="M692.481,4539.882l-99.746-57.589v31.736l99.746,57.588Z" fill="#5793ce"/>
              <path id="Trazado_179098" data-name="Trazado 179098" d="M692.481,4590.093,592.734,4532.5v31.736l99.746,57.589Z" fill="#5793ce"/>
              <path id="Trazado_179099" data-name="Trazado 179099" d="M692.481,4640.3l-99.746-57.589v31.736l99.746,57.588Z" fill="#5793ce"/>
              <path id="Trazado_179100" data-name="Trazado 179100" d="M692.481,4690.515l-99.746-57.589v31.735l99.746,57.589Z" fill="#5793ce"/>
            </g>
            <g id="Grupo_78111" data-name="Grupo 78111">
              <path id="Trazado_179101" data-name="Trazado 179101" d="M683.684,4510.1l-75.13-43.376c-2.121-1.225-3.841-4.51-3.841-7.339v-8.5c0-2.829,1.72-4.129,3.841-2.9l75.13,43.376c2.121,1.225,3.841,4.511,3.841,7.339v8.5C687.525,4510.022,685.8,4511.322,683.684,4510.1Z" fill="#173d7a"/>
              <path id="Trazado_179102" data-name="Trazado 179102" d="M612.351,4465.094c-2.122-1.225-3.841-4.51-3.841-7.339v-8.5a5.478,5.478,0,0,1,.141-1.221l-.1-.056c-2.121-1.225-3.841.075-3.841,2.9v8.5c0,2.829,1.72,6.114,3.841,7.339l75.13,43.376c1.782,1.029,3.266.26,3.7-1.683Z" fill="#06033e" opacity="0.3"/>
              <path id="Trazado_179103" data-name="Trazado 179103" d="M660.108,4486.8l-45.21-26.1a3.236,3.236,0,0,1-1.352-2.582h0c0-.994.6-1.452,1.352-1.021l45.21,26.1a3.237,3.237,0,0,1,1.351,2.582h0C661.459,4486.777,660.854,4487.234,660.108,4486.8Z" fill="#fff"/>
            </g>
            <g id="Grupo_78112" data-name="Grupo 78112">
              <path id="Trazado_179104" data-name="Trazado 179104" d="M683.684,4560l-75.13-43.376c-2.121-1.225-3.841-4.51-3.841-7.339v-8.5c0-2.828,1.72-4.128,3.841-2.9l75.13,43.376c2.121,1.225,3.841,4.511,3.841,7.339v8.5C687.525,4559.923,685.8,4561.223,683.684,4560Z" fill="#173d7a"/>
              <path id="Trazado_179105" data-name="Trazado 179105" d="M612.351,4515c-2.122-1.225-3.841-4.51-3.841-7.339v-8.5a5.481,5.481,0,0,1,.141-1.22l-.1-.056c-2.121-1.225-3.841.075-3.841,2.9v8.5c0,2.829,1.72,6.114,3.841,7.339L683.684,4560c1.782,1.029,3.266.26,3.7-1.683Z" fill="#06033e" opacity="0.3"/>
              <path id="Trazado_179106" data-name="Trazado 179106" d="M660.108,4536.7l-45.21-26.1a3.235,3.235,0,0,1-1.352-2.582h0c0-1,.6-1.452,1.352-1.021l45.21,26.1a3.237,3.237,0,0,1,1.351,2.582h0C661.459,4536.678,660.854,4537.135,660.108,4536.7Z" fill="#fff"/>
            </g>
            <g id="Grupo_78113" data-name="Grupo 78113">
              <path id="Trazado_179107" data-name="Trazado 179107" d="M683.684,4610.364l-75.13-43.376c-2.121-1.225-3.841-4.51-3.841-7.339v-8.5c0-2.828,1.72-4.128,3.841-2.9l75.13,43.376c2.121,1.225,3.841,4.51,3.841,7.339v8.5C687.525,4610.289,685.8,4611.589,683.684,4610.364Z" fill="#173d7a"/>
              <path id="Trazado_179108" data-name="Trazado 179108" d="M612.351,4565.361c-2.122-1.225-3.841-4.511-3.841-7.339v-8.5a5.49,5.49,0,0,1,.141-1.221l-.1-.055c-2.121-1.225-3.841.075-3.841,2.9v8.5c0,2.829,1.72,6.114,3.841,7.339l75.13,43.376c1.782,1.029,3.266.26,3.7-1.683Z" fill="#06033e" opacity="0.3"/>
              <path id="Trazado_179109" data-name="Trazado 179109" d="M660.108,4587.07l-45.21-26.1a3.234,3.234,0,0,1-1.352-2.582h0c0-1,.6-1.452,1.352-1.021l45.21,26.1a3.238,3.238,0,0,1,1.351,2.581h0C661.459,4587.043,660.854,4587.5,660.108,4587.07Z" fill="#d4ecff"/>
            </g>
            <path id="Trazado_179110" data-name="Trazado 179110" d="M683.684,4661.195l-75.13-43.377c-2.121-1.224-3.841-4.51-3.841-7.338v-8.5c0-2.828,1.72-4.128,3.841-2.9l75.13,43.377c2.121,1.225,3.841,4.51,3.841,7.338v8.5C687.525,4661.12,685.8,4662.419,683.684,4661.195Z" fill="#173d7a"/>
            <path id="Trazado_179111" data-name="Trazado 179111" d="M612.351,4616.191c-2.122-1.225-3.841-4.51-3.841-7.338v-8.5a5.49,5.49,0,0,1,.141-1.221l-.1-.055c-2.121-1.225-3.841.074-3.841,2.9v8.5c0,2.828,1.72,6.114,3.841,7.339l75.13,43.375c1.782,1.029,3.266.261,3.7-1.683Z" fill="#06033e" opacity="0.3"/>
            <path id="Trazado_179112" data-name="Trazado 179112" d="M660.108,4637.9l-45.21-26.1a3.233,3.233,0,0,1-1.352-2.581h0c0-.995.6-1.453,1.352-1.022l45.21,26.1a3.237,3.237,0,0,1,1.351,2.582h0C661.459,4637.874,660.854,4638.331,660.108,4637.9Z" fill="#e2cb5e"/>
            <g id="Grupo_78114" data-name="Grupo 78114">
              <path id="Trazado_179113" data-name="Trazado 179113" d="M683.684,4711.018l-75.13-43.376c-2.121-1.225-3.841-4.511-3.841-7.339v-8.5c0-2.828,1.72-4.128,3.841-2.9l75.13,43.376c2.121,1.225,3.841,4.51,3.841,7.339v8.5C687.525,4710.943,685.8,4712.243,683.684,4711.018Z" fill="#173d7a"/>
              <path id="Trazado_179114" data-name="Trazado 179114" d="M612.351,4666.015c-2.122-1.225-3.841-4.51-3.841-7.339v-8.5a5.5,5.5,0,0,1,.141-1.221l-.1-.055c-2.121-1.225-3.841.075-3.841,2.9v8.5c0,2.829,1.72,6.114,3.841,7.339l75.13,43.376c1.782,1.029,3.266.26,3.7-1.683Z" fill="#06033e" opacity="0.3"/>
              <path id="Trazado_179115" data-name="Trazado 179115" d="M660.108,4687.724l-45.21-26.1a3.235,3.235,0,0,1-1.352-2.582h0c0-1,.6-1.452,1.352-1.021l45.21,26.1a3.235,3.235,0,0,1,1.351,2.581h0C661.459,4687.7,660.854,4688.155,660.108,4687.724Z" fill="#d4ecff"/>
            </g>
            <path id="Trazado_179116" data-name="Trazado 179116" d="M592.734,4432.083l7.854,4.535v31.736l-7.854-4.535Z" fill="#173d7a" opacity="0.5"/>
            <path id="Trazado_179117" data-name="Trazado 179117" d="M592.734,4482.293l7.854,4.535v31.736l-7.854-4.535Z" fill="#173d7a" opacity="0.5"/>
            <path id="Trazado_179118" data-name="Trazado 179118" d="M592.734,4532.5l7.854,4.535v31.736l-7.854-4.535Z" fill="#173d7a" opacity="0.5"/>
            <path id="Trazado_179119" data-name="Trazado 179119" d="M592.734,4582.715l7.854,4.535v31.736l-7.854-4.535Z" fill="#173d7a" opacity="0.5"/>
            <path id="Trazado_179120" data-name="Trazado 179120" d="M592.734,4632.926l7.854,4.535V4669.2l-7.854-4.535Z" fill="#173d7a" opacity="0.5"/>
            <ellipse id="Elipse_7288" data-name="Elipse 7288" cx="1.298" cy="2.249" rx="1.298" ry="2.249" transform="matrix(0.866, -0.5, 0.5, 0.866, 665.175, 4487.721)" fill="#d4ecff"/>
            <path id="Trazado_179121" data-name="Trazado 179121" d="M675.757,4493.83c0,1.014-.712,1.425-1.59.918a3.517,3.517,0,0,1-1.59-2.755c0-1.014.712-1.425,1.59-.918A3.516,3.516,0,0,1,675.757,4493.83Z" fill="#e2cb5e"/>
            <path id="Trazado_179122" data-name="Trazado 179122" d="M682.5,4497.722c0,1.014-.712,1.426-1.59.919a3.519,3.519,0,0,1-1.59-2.755c0-1.014.712-1.425,1.59-.918A3.516,3.516,0,0,1,682.5,4497.722Z" fill="#d4ecff"/>
            <path id="Trazado_179123" data-name="Trazado 179123" d="M669.015,4540.122c0,1.014-.712,1.425-1.59.918a3.513,3.513,0,0,1-1.591-2.754c0-1.014.712-1.425,1.591-.918A3.514,3.514,0,0,1,669.015,4540.122Z" fill="#e2cb5e"/>
            <path id="Trazado_179124" data-name="Trazado 179124" d="M675.757,4544.015c0,1.014-.712,1.425-1.59.918a3.516,3.516,0,0,1-1.59-2.754c0-1.014.712-1.426,1.59-.918A3.514,3.514,0,0,1,675.757,4544.015Z" fill="#d4ecff"/>
            <path id="Trazado_179125" data-name="Trazado 179125" d="M682.5,4547.908c0,1.014-.712,1.425-1.59.918a3.518,3.518,0,0,1-1.59-2.755c0-1.014.712-1.425,1.59-.918A3.516,3.516,0,0,1,682.5,4547.908Z" fill="#fff"/>
            <path id="Trazado_179126" data-name="Trazado 179126" d="M669.015,4590.687c0,1.014-.712,1.425-1.59.918a3.513,3.513,0,0,1-1.591-2.755c0-1.014.712-1.425,1.591-.918A3.516,3.516,0,0,1,669.015,4590.687Z" fill="#fff"/>
            <path id="Trazado_179127" data-name="Trazado 179127" d="M675.757,4594.579c0,1.015-.712,1.426-1.59.919a3.518,3.518,0,0,1-1.59-2.755c0-1.014.712-1.425,1.59-.918A3.514,3.514,0,0,1,675.757,4594.579Z" fill="#e2cb5e"/>
            <path id="Trazado_179128" data-name="Trazado 179128" d="M682.5,4598.472c0,1.014-.712,1.425-1.59.918a3.516,3.516,0,0,1-1.59-2.754c0-1.014.712-1.425,1.59-.918A3.516,3.516,0,0,1,682.5,4598.472Z" fill="#fff"/>
            <path id="Trazado_179129" data-name="Trazado 179129" d="M669.015,4640.515c0,1.014-.712,1.425-1.59.918a3.514,3.514,0,0,1-1.591-2.755c0-1.014.712-1.425,1.591-.918A3.518,3.518,0,0,1,669.015,4640.515Z" fill="#fff"/>
            <path id="Trazado_179130" data-name="Trazado 179130" d="M675.757,4644.407c0,1.014-.712,1.426-1.59.918a3.516,3.516,0,0,1-1.59-2.754c0-1.014.712-1.425,1.59-.918A3.516,3.516,0,0,1,675.757,4644.407Z" fill="#d4ecff"/>
            <path id="Trazado_179131" data-name="Trazado 179131" d="M682.5,4648.3c0,1.014-.712,1.425-1.59.918a3.514,3.514,0,0,1-1.59-2.754c0-1.014.712-1.426,1.59-.919A3.519,3.519,0,0,1,682.5,4648.3Z" fill="#d4ecff"/>
            <path id="Trazado_179132" data-name="Trazado 179132" d="M669.015,4691.022c0,1.014-.712,1.426-1.59.918a3.513,3.513,0,0,1-1.591-2.754c0-1.014.712-1.425,1.591-.918A3.514,3.514,0,0,1,669.015,4691.022Z" fill="#fff"/>
            <path id="Trazado_179133" data-name="Trazado 179133" d="M675.757,4694.915c0,1.014-.712,1.425-1.59.918a3.515,3.515,0,0,1-1.59-2.754c0-1.015.712-1.426,1.59-.919A3.518,3.518,0,0,1,675.757,4694.915Z" fill="#e2cb5e"/>
            <path id="Trazado_179134" data-name="Trazado 179134" d="M682.5,4698.808c0,1.014-.712,1.425-1.59.918a3.517,3.517,0,0,1-1.59-2.755c0-1.014.712-1.425,1.59-.918A3.516,3.516,0,0,1,682.5,4698.808Z" fill="#d4ecff"/>
            <g id="Grupo_78115" data-name="Grupo 78115">
              <path id="Trazado_179135" data-name="Trazado 179135" d="M717,4713.34V4488.677l.465-.267,93.893-54.21v224.663l-.465.267Zm1.86-223.588v220.366l90.638-52.33V4437.422Z" fill="#173d7a"/>
            </g>
            <path id="Trazado_179136" data-name="Trazado 179136" d="M786.966,4535.283l-42.1,24.307c-2.828,1.633-5.121-.1-5.121-3.871v-23.343c0-3.77,2.293-8.151,5.121-9.784l42.1-24.306c2.828-1.633,5.121.1,5.121,3.871V4525.5C792.087,4529.27,789.794,4533.65,786.966,4535.283Z" fill="#173d7a"/>
            <path id="Trazado_179137" data-name="Trazado 179137" d="M787.988,4497.833a6.779,6.779,0,0,1,.379,2.341v23.343c0,3.771-2.292,8.151-5.12,9.784l-42.1,24.307a5,5,0,0,1-1.022.452c.76,2.061,2.593,2.77,4.741,1.53l42.1-24.306c2.828-1.634,5.121-6.014,5.121-9.785v-23.342C792.087,4498.853,790.326,4497.115,787.988,4497.833Z" fill="#5793ce"/>
            <path id="Trazado_179138" data-name="Trazado 179138" d="M779.276,4521.225c.779-.449,1.41-.084,1.41.814v5.317a3.113,3.113,0,0,1-1.41,2.441c-.778.45-1.409.086-1.409-.814v-5.317A3.117,3.117,0,0,1,779.276,4521.225Z" fill="#fff"/>
            <path id="Trazado_179139" data-name="Trazado 179139" d="M773.237,4525.377c.779-.449,1.409-.085,1.409.814v4.652a3.114,3.114,0,0,1-1.409,2.441c-.778.449-1.409.085-1.409-.814v-4.652A3.115,3.115,0,0,1,773.237,4525.377Z" fill="#d4ecff"/>
            <path id="Trazado_179140" data-name="Trazado 179140" d="M767.2,4523.673c.778-.45,1.409-.086,1.409.813v9.844a3.116,3.116,0,0,1-1.409,2.441c-.779.449-1.41.085-1.41-.814v-9.843A3.113,3.113,0,0,1,767.2,4523.673Z" fill="#e2cb5e"/>
            <path id="Trazado_179141" data-name="Trazado 179141" d="M761.158,4521.487c.779-.449,1.409-.085,1.409.814v15.516a3.113,3.113,0,0,1-1.409,2.441c-.778.449-1.409.085-1.409-.814v-15.516A3.118,3.118,0,0,1,761.158,4521.487Z" fill="#d4ecff"/>
            <path id="Trazado_179142" data-name="Trazado 179142" d="M755.119,4526.6c.778-.449,1.409-.085,1.409.814V4541.3a3.117,3.117,0,0,1-1.409,2.441c-.779.449-1.409.085-1.409-.814v-13.889A3.115,3.115,0,0,1,755.119,4526.6Z" fill="#d4ecff"/>
            <path id="Trazado_179143" data-name="Trazado 179143" d="M749.079,4536.434c.779-.449,1.41-.085,1.41.814v7.543a3.111,3.111,0,0,1-1.41,2.44c-.778.45-1.409.086-1.409-.813v-7.543A3.114,3.114,0,0,1,749.079,4536.434Z" fill="#fff"/>
            <path id="Trazado_179144" data-name="Trazado 179144" d="M777.891,4518.539c0,.884.62,1.243,1.385.8a3.062,3.062,0,0,0,1.386-2.4c0-.884-.62-1.242-1.386-.8A3.063,3.063,0,0,0,777.891,4518.539Z" fill="#e2cb5e"/>
            <ellipse id="Elipse_7289" data-name="Elipse 7289" cx="1.96" cy="1.132" rx="1.96" ry="1.132" transform="matrix(0.5, -0.866, 0.866, 0.5, 777.316, 4513.873)" fill="#fff"/>
          </g>
        </g>
      </g>
      <rect id="Rectángulo_22895" data-name="Rectángulo 22895" width="6.408" height="124.292" transform="translate(933.097 4392.944)" fill="#fff"/>
      <g id="Grupo_78121" data-name="Grupo 78121">
        <path id="Trazado_179145" data-name="Trazado 179145" d="M693.236,4913.317,628.86,4876.15c-3.951-2.281-3.455-6.266,1.107-8.9l62.16-35.888c4.562-2.634,11.463-2.92,15.414-.639l64.376,37.168c3.95,2.281,3.455,6.265-1.107,8.9l-62.16,35.888C704.088,4915.312,697.186,4915.6,693.236,4913.317Z" fill="#7dc3ea"/>
        <path id="Trazado_179146" data-name="Trazado 179146" d="M699.964,4898.191a17.309,17.309,0,0,1-8.556-2.047h0l-64.375-37.168a8.2,8.2,0,0,1-4.495-7.032c0-3.156,2.042-6.146,5.6-8.2l62.16-35.887c5.751-3.323,13.948-3.6,19.07-.64l64.379,37.168a8.2,8.2,0,0,1,4.494,7.029c0,3.157-2.042,6.147-5.6,8.2L710.478,4895.5A21.406,21.406,0,0,1,699.964,4898.191Zm-4.9-8.379c2.842,1.637,8.332,1.339,11.759-.64l62.16-35.889c1.563-.9,1.938-1.717,1.947-1.87a2.344,2.344,0,0,0-.838-.7l-64.379-37.168c-2.836-1.638-8.328-1.341-11.758.639l-62.158,35.888c-1.563.9-1.936,1.717-1.946,1.87a2.331,2.331,0,0,0,.838.7l64.377,37.168Z" fill="#fff"/>
        <path id="Trazado_179147" data-name="Trazado 179147" d="M774.563,4828.64h0v-22.212l-49.806-.028-17.216-9.939c-3.951-2.282-10.852-2-15.414.639l-16.062,9.273-49.852-.028v22.844c-.112,1.544.749,3.034,2.647,4.13l64.376,37.167c3.95,2.281,10.852,2,15.414-.639l62.16-35.888C773.442,4832.44,774.711,4830.472,774.563,4828.64Z" fill="#396caa"/>
        <path id="Trazado_179148" data-name="Trazado 179148" d="M700.389,4794.932a17.777,17.777,0,0,0-8.262,2.168l-16.062,9.273-49.852-.028v22.844c-.112,1.544.749,3.034,2.647,4.13l64.376,37.167a13.939,13.939,0,0,0,7.153,1.528Z" fill="url(#radial-gradient-10)"/>
        <path id="Trazado_179149" data-name="Trazado 179149" d="M631.855,4806.348l-5.642,0v22.844c-.112,1.544.749,3.034,2.647,4.13l2.995,1.729Z" fill="#d4ecff"/>
        <path id="Trazado_179150" data-name="Trazado 179150" d="M694.227,4870.972c3.408,1.46,8.337,1.379,12.322-.141v-25.937H694.227Z" fill="#5793ce"/>
        <path id="Trazado_179151" data-name="Trazado 179151" d="M693.236,4847.725l-64.376-37.167c-3.951-2.282-3.455-6.266,1.107-8.9l62.16-35.888c4.562-2.634,11.463-2.92,15.414-.639l64.376,37.167c3.95,2.281,3.455,6.266-1.107,8.9l-62.16,35.888C704.088,4849.72,697.186,4850.006,693.236,4847.725Z" fill="url(#linear-gradient-8)"/>
        <path id="Trazado_179152" data-name="Trazado 179152" d="M770.81,4806.827l-62.16,35.888c-4.562,2.633-11.463,2.92-15.414.639l-64.376-37.168a5.932,5.932,0,0,1-1.971-1.749c-1.358,2.184-.742,4.554,1.971,6.12l64.376,37.168c3.951,2.281,10.852,2,15.414-.639l62.16-35.888c3.545-2.047,4.622-4.906,3.078-7.151A8.623,8.623,0,0,1,770.81,4806.827Z" fill="#fff"/>
        <g id="Grupo_78119" data-name="Grupo 78119">
          <path id="Trazado_179153" data-name="Trazado 179153" d="M750.885,4834.5a5.746,5.746,0,0,1-2.6,4.5c-1.436.83-2.6.157-2.6-1.5a5.747,5.747,0,0,1,2.6-4.5C749.721,4832.172,750.885,4832.844,750.885,4834.5Z" fill="#d4ecff"/>
          <path id="Trazado_179154" data-name="Trazado 179154" d="M759.251,4829.672a5.745,5.745,0,0,1-2.6,4.5c-1.436.829-2.6.157-2.6-1.5a5.747,5.747,0,0,1,2.6-4.5C758.087,4827.342,759.251,4828.014,759.251,4829.672Z" fill="#d4ecff"/>
          <path id="Trazado_179155" data-name="Trazado 179155" d="M767.617,4824.842a5.747,5.747,0,0,1-2.6,4.5c-1.436.829-2.6.157-2.6-1.5a5.748,5.748,0,0,1,2.6-4.5C766.453,4822.512,767.617,4823.184,767.617,4824.842Z" fill="#d4ecff"/>
        </g>
        <g id="Grupo_78120" data-name="Grupo 78120">
          <path id="Trazado_179156" data-name="Trazado 179156" d="M697.042,4824.682l-30.124-17.393c-1.849-1.067-1.617-2.932.517-4.164l29.088-16.794a8.013,8.013,0,0,1,7.213-.3l30.125,17.392c1.849,1.068,1.617,2.932-.518,4.165l-29.088,16.794A8.019,8.019,0,0,1,697.042,4824.682Z" fill="#5793ce"/>
          <path id="Trazado_179157" data-name="Trazado 179157" d="M699.926,4810.119l-4.168-2.406c-.256-.148-.224-.406.072-.576l4.024-2.324a1.107,1.107,0,0,1,1-.041l4.168,2.406c.256.148.224.406-.071.576l-4.025,2.324A1.11,1.11,0,0,1,699.926,4810.119Z" fill="#d4ecff"/>
          <path id="Trazado_179158" data-name="Trazado 179158" d="M666.918,4807.289l.085.049a5.183,5.183,0,0,1,.432-.3l29.088-16.794a8.019,8.019,0,0,1,7.213-.3l30.04,17.343c1.7-1.22,1.793-2.88.085-3.867l-30.125-17.392a8.013,8.013,0,0,0-7.213.3l-29.088,16.794C665.3,4804.357,665.069,4806.222,666.918,4807.289Z" fill="#396caa"/>
        </g>
      </g>
      <g id="Grupo_78124" data-name="Grupo 78124">
        <path id="Trazado_179159" data-name="Trazado 179159" d="M929.149,4749.323l-64.376-37.167c-3.951-2.281-3.455-6.265,1.107-8.9l62.159-35.888c4.563-2.634,11.464-2.92,15.415-.639l64.376,37.167c3.95,2.281,3.455,6.266-1.107,8.9l-62.16,35.888C940,4751.318,933.1,4751.6,929.149,4749.323Z" fill="#7dc3ea"/>
        <path id="Trazado_179160" data-name="Trazado 179160" d="M935.877,4734.2a17.3,17.3,0,0,1-8.556-2.047h0l-64.375-37.168a8.2,8.2,0,0,1-4.494-7.03c0-3.157,2.042-6.146,5.6-8.2l62.158-35.889c5.755-3.322,13.952-3.6,19.07-.639l64.377,37.168a8.192,8.192,0,0,1,4.494,7.031c0,3.157-2.042,6.146-5.6,8.2l-62.156,35.887A21.419,21.419,0,0,1,935.877,4734.2Zm-4.9-8.379c2.841,1.635,8.332,1.337,11.762-.64l62.156-35.887c1.563-.9,1.938-1.718,1.947-1.871a2.32,2.32,0,0,0-.838-.7l-64.376-37.168c-2.837-1.636-8.331-1.339-11.757.639l-62.16,35.889c-1.563.9-1.938,1.718-1.947,1.871a2.357,2.357,0,0,0,.838.7l64.377,37.168Z" fill="#fff"/>
        <path id="Trazado_179161" data-name="Trazado 179161" d="M1010.476,4664.646h0v-22.212l-49.806-.027-17.216-9.94c-3.951-2.281-10.852-1.995-15.415.639l-16.062,9.274-49.851-.028V4665.2c-.112,1.543.749,3.034,2.647,4.13l64.376,37.167c3.95,2.281,10.852,1.995,15.414-.639l62.16-35.888C1009.355,4668.446,1010.624,4666.478,1010.476,4664.646Z" fill="#396caa"/>
        <path id="Trazado_179162" data-name="Trazado 179162" d="M936.3,4630.939a17.772,17.772,0,0,0-8.263,2.167l-16.062,9.274-49.851-.028V4665.2c-.112,1.543.749,3.034,2.647,4.13l64.376,37.167a13.954,13.954,0,0,0,7.153,1.528Z" fill="url(#radial-gradient-11)"/>
        <path id="Trazado_179163" data-name="Trazado 179163" d="M867.768,4642.355l-5.642,0V4665.2c-.112,1.543.749,3.034,2.647,4.13l2.995,1.729Z" fill="#d4ecff"/>
        <path id="Trazado_179164" data-name="Trazado 179164" d="M930.14,4706.978c3.408,1.46,8.337,1.379,12.322-.14V4680.9H930.14Z" fill="#5793ce"/>
        <path id="Trazado_179165" data-name="Trazado 179165" d="M929.149,4683.731l-64.376-37.167c-3.951-2.281-3.455-6.266,1.107-8.9l62.159-35.888c4.563-2.633,11.464-2.92,15.415-.638l64.376,37.167c3.95,2.281,3.455,6.265-1.107,8.9l-62.16,35.888C940,4685.726,933.1,4686.012,929.149,4683.731Z" fill="url(#linear-gradient-8)"/>
        <path id="Trazado_179166" data-name="Trazado 179166" d="M1006.723,4642.833l-62.16,35.888c-4.562,2.634-11.464,2.92-15.414.639l-64.376-37.167a5.945,5.945,0,0,1-1.971-1.75c-1.358,2.185-.742,4.555,1.971,6.121l64.376,37.167c3.95,2.281,10.852,2,15.414-.639l62.16-35.888c3.545-2.046,4.622-4.905,3.078-7.15A8.626,8.626,0,0,1,1006.723,4642.833Z" fill="#fff"/>
        <g id="Grupo_78122" data-name="Grupo 78122">
          <path id="Trazado_179167" data-name="Trazado 179167" d="M986.8,4670.508a5.749,5.749,0,0,1-2.6,4.5c-1.436.829-2.6.157-2.6-1.5a5.747,5.747,0,0,1,2.6-4.5C985.634,4668.178,986.8,4668.85,986.8,4670.508Z" fill="#d4ecff"/>
          <path id="Trazado_179168" data-name="Trazado 179168" d="M995.164,4665.678a5.748,5.748,0,0,1-2.6,4.5c-1.436.829-2.6.157-2.6-1.5a5.749,5.749,0,0,1,2.6-4.5C994,4663.348,995.164,4664.02,995.164,4665.678Z" fill="#d4ecff"/>
          <path id="Trazado_179169" data-name="Trazado 179169" d="M1003.53,4660.848a5.748,5.748,0,0,1-2.6,4.5c-1.437.829-2.6.157-2.6-1.5a5.745,5.745,0,0,1,2.6-4.5C1002.366,4658.518,1003.53,4659.19,1003.53,4660.848Z" fill="#d4ecff"/>
        </g>
        <g id="Grupo_78123" data-name="Grupo 78123">
          <path id="Trazado_179170" data-name="Trazado 179170" d="M932.955,4660.688,902.83,4643.3c-1.848-1.068-1.616-2.932.518-4.165l29.088-16.794a8.02,8.02,0,0,1,7.213-.3l30.125,17.393c1.849,1.067,1.617,2.932-.518,4.164l-29.088,16.794A8.014,8.014,0,0,1,932.955,4660.688Z" fill="#5793ce"/>
          <path id="Trazado_179171" data-name="Trazado 179171" d="M935.839,4646.126l-4.168-2.407c-.256-.147-.224-.405.072-.576l4.024-2.323a1.107,1.107,0,0,1,1-.042l4.168,2.407c.256.147.224.4-.072.576l-4.024,2.323A1.11,1.11,0,0,1,935.839,4646.126Z" fill="#d4ecff"/>
          <path id="Trazado_179172" data-name="Trazado 179172" d="M902.83,4643.3l.086.049a5.065,5.065,0,0,1,.432-.3l29.088-16.793a8.014,8.014,0,0,1,7.213-.3l30.04,17.343c1.7-1.22,1.793-2.881.085-3.867l-30.125-17.393a8.02,8.02,0,0,0-7.213.3l-29.088,16.794C901.214,4640.364,900.982,4642.228,902.83,4643.3Z" fill="#396caa"/>
        </g>
      </g>
      <g id="Grupo_78127" data-name="Grupo 78127">
        <path id="Trazado_179173" data-name="Trazado 179173" d="M457.333,4749.323l-64.375-37.167c-3.951-2.281-3.456-6.265,1.107-8.9l62.159-35.888c4.563-2.634,11.464-2.92,15.415-.639l64.375,37.167c3.951,2.281,3.456,6.266-1.106,8.9l-62.16,35.888C468.186,4751.318,461.284,4751.6,457.333,4749.323Z" fill="#7dc3ea"/>
        <path id="Trazado_179174" data-name="Trazado 179174" d="M464.061,4734.2a17.3,17.3,0,0,1-8.554-2.047h0l-64.377-37.168a8.2,8.2,0,0,1-4.494-7.03c0-3.157,2.042-6.146,5.6-8.2l62.158-35.889c5.754-3.322,13.951-3.6,19.07-.639l64.377,37.168a8.2,8.2,0,0,1,4.495,7.031c0,3.157-2.041,6.146-5.6,8.2l-62.16,35.887A21.414,21.414,0,0,1,464.061,4734.2Zm-4.9-8.379c2.838,1.635,8.328,1.337,11.76-.64l62.158-35.887c1.563-.9,1.937-1.718,1.946-1.871a2.343,2.343,0,0,0-.838-.7l-64.377-37.168c-2.836-1.636-8.33-1.339-11.757.639l-62.16,35.889c-1.562.9-1.938,1.718-1.947,1.871a2.369,2.369,0,0,0,.838.7l64.379,37.168Z" fill="#fff"/>
        <path id="Trazado_179175" data-name="Trazado 179175" d="M538.661,4664.646h0v-22.212l-49.806-.027-17.216-9.94c-3.951-2.281-10.852-1.995-15.415.639l-16.062,9.274-49.851-.028V4665.2c-.113,1.543.749,3.034,2.647,4.13l64.375,37.167c3.951,2.281,10.853,1.995,15.415-.639l62.16-35.888C537.539,4668.446,538.809,4666.478,538.661,4664.646Z" fill="#396caa"/>
        <path id="Trazado_179176" data-name="Trazado 179176" d="M464.487,4630.939a17.772,17.772,0,0,0-8.263,2.167l-16.062,9.274-49.851-.028V4665.2c-.113,1.543.749,3.034,2.647,4.13l64.375,37.167a13.96,13.96,0,0,0,7.154,1.528Z" fill="url(#radial-gradient-12)"/>
        <path id="Trazado_179177" data-name="Trazado 179177" d="M395.953,4642.355l-5.642,0V4665.2c-.113,1.543.749,3.034,2.647,4.13l2.995,1.729Z" fill="#d4ecff"/>
        <path id="Trazado_179178" data-name="Trazado 179178" d="M458.325,4706.978c3.408,1.46,8.337,1.379,12.322-.14V4680.9H458.325Z" fill="#5793ce"/>
        <path id="Trazado_179179" data-name="Trazado 179179" d="M457.333,4683.731l-64.375-37.167c-3.951-2.281-3.456-6.266,1.107-8.9l62.159-35.888c4.563-2.633,11.464-2.92,15.415-.638l64.375,37.167c3.951,2.281,3.456,6.265-1.106,8.9l-62.16,35.888C468.186,4685.726,461.284,4686.012,457.333,4683.731Z" fill="url(#linear-gradient-8)"/>
        <path id="Trazado_179180" data-name="Trazado 179180" d="M534.908,4642.833l-62.16,35.888c-4.562,2.634-11.464,2.92-15.415.639l-64.375-37.167a5.945,5.945,0,0,1-1.971-1.75c-1.358,2.185-.742,4.555,1.971,6.121l64.375,37.167c3.951,2.281,10.853,2,15.415-.639l62.16-35.888c3.544-2.046,4.621-4.905,3.078-7.15A8.634,8.634,0,0,1,534.908,4642.833Z" fill="#fff"/>
        <g id="Grupo_78125" data-name="Grupo 78125">
          <path id="Trazado_179181" data-name="Trazado 179181" d="M514.983,4670.508a5.749,5.749,0,0,1-2.6,4.5c-1.436.829-2.6.157-2.6-1.5a5.747,5.747,0,0,1,2.6-4.5C513.819,4668.178,514.983,4668.85,514.983,4670.508Z" fill="#d4ecff"/>
          <path id="Trazado_179182" data-name="Trazado 179182" d="M523.349,4665.678a5.748,5.748,0,0,1-2.6,4.5c-1.436.829-2.6.157-2.6-1.5a5.749,5.749,0,0,1,2.6-4.5C522.185,4663.348,523.349,4664.02,523.349,4665.678Z" fill="#d4ecff"/>
          <path id="Trazado_179183" data-name="Trazado 179183" d="M531.715,4660.848a5.75,5.75,0,0,1-2.6,4.5c-1.436.829-2.6.157-2.6-1.5a5.747,5.747,0,0,1,2.6-4.5C530.55,4658.518,531.715,4659.19,531.715,4660.848Z" fill="#d4ecff"/>
        </g>
        <g id="Grupo_78126" data-name="Grupo 78126">
          <path id="Trazado_179184" data-name="Trazado 179184" d="M461.14,4660.688,431.015,4643.3c-1.849-1.068-1.617-2.932.518-4.165l29.088-16.794a8.02,8.02,0,0,1,7.213-.3l30.125,17.393c1.849,1.067,1.617,2.932-.518,4.164l-29.088,16.794A8.014,8.014,0,0,1,461.14,4660.688Z" fill="#5793ce"/>
          <path id="Trazado_179185" data-name="Trazado 179185" d="M464.024,4646.126l-4.168-2.407c-.256-.147-.224-.405.072-.576l4.024-2.323a1.108,1.108,0,0,1,1-.042l4.168,2.407c.256.147.224.4-.072.576l-4.024,2.323A1.11,1.11,0,0,1,464.024,4646.126Z" fill="#d4ecff"/>
          <path id="Trazado_179186" data-name="Trazado 179186" d="M431.015,4643.3l.086.049a5.069,5.069,0,0,1,.432-.3l29.088-16.793a8.014,8.014,0,0,1,7.213-.3l30.039,17.343c1.705-1.22,1.794-2.881.086-3.867l-30.125-17.393a8.02,8.02,0,0,0-7.213.3l-29.088,16.794C429.4,4640.364,429.166,4642.228,431.015,4643.3Z" fill="#396caa"/>
        </g>
      </g>
    </g>
  </g>
</svg>
