<svg xmlns="http://www.w3.org/2000/svg" width="365.365" height="533.286" viewBox="0 0 365.365 533.286">
  <g id="Grupo_54356" data-name="Grupo 54356" transform="translate(-841.911 -171.652)">
    <path id="Rectángulo_5159" data-name="Rectángulo 5159" d="M35.762,0H220.268A35.762,35.762,0,0,1,256.03,35.762V389.686a75.137,75.137,0,0,1-75.137,75.137H75.137A75.137,75.137,0,0,1,0,389.686V35.762A35.762,35.762,0,0,1,35.762,0Z" transform="translate(841.911 238.922)" fill="#75c9f1"/>
    <g id="Grupo_53931" data-name="Grupo 53931" transform="translate(858.232 530.491)" style="mix-blend-mode: multiply;isolation: isolate">
      <g id="Grupo_53907" data-name="Grupo 53907">
        <g id="Grupo_53906" data-name="Grupo 53906">
          <g id="Grupo_53905" data-name="Grupo 53905">
            <g id="Grupo_53896" data-name="Grupo 53896" transform="translate(0.289 0.26)">
              <g id="Grupo_53895" data-name="Grupo 53895" transform="translate(0 0)">
                <g id="Grupo_53894" data-name="Grupo 53894" transform="translate(0)">
                  <g id="Grupo_53893" data-name="Grupo 53893">
                    <g id="Grupo_53892" data-name="Grupo 53892">
                      <g id="Grupo_53891" data-name="Grupo 53891">
                        <g id="Grupo_53890" data-name="Grupo 53890">
                          <rect id="Rectángulo_5160" data-name="Rectángulo 5160" width="71.843" height="89.863" transform="translate(0 71.345) rotate(-83.253)" fill="#fafafa"/>
                        </g>
                      </g>
                    </g>
                  </g>
                </g>
              </g>
            </g>
            <g id="Grupo_53904" data-name="Grupo 53904">
              <g id="Grupo_53903" data-name="Grupo 53903">
                <g id="Grupo_53902" data-name="Grupo 53902">
                  <g id="Grupo_53901" data-name="Grupo 53901">
                    <g id="Grupo_53900" data-name="Grupo 53900">
                      <g id="Grupo_53899" data-name="Grupo 53899">
                        <g id="Grupo_53898" data-name="Grupo 53898">
                          <g id="Grupo_53897" data-name="Grupo 53897">
                            <path id="Trazado_103525" data-name="Trazado 103525" d="M953.564,483.305s-.151-.008-.434-.038l-1.254-.135-4.851-.545-18.277-2.1L864.3,472.98l.259-.2c-2.5,21.235-5.375,45.579-8.412,71.34v.008l-.228-.29,89.235,10.6-.24.19c2.589-21.477,4.733-39.28,6.232-51.732.761-6.225,1.359-11.11,1.767-14.456.208-1.659.366-2.935.476-3.812s.18-1.32.18-1.32-.035.428-.128,1.28c-.1.87-.237,2.133-.421,3.778-.382,3.337-.94,8.21-1.651,14.421-1.449,12.49-3.523,30.348-6.025,51.893l-.025.215-.216-.025-89.245-10.513-.259-.031.03-.259v-.007c3.057-25.759,5.946-50.1,8.466-71.334l.028-.233.231.027,64.573,7.757,18.211,2.216,4.8.6,1.225.159C953.432,483.28,953.564,483.305,953.564,483.305Z" transform="translate(-855.594 -472.489)" fill="#1a2e35"/>
                          </g>
                        </g>
                      </g>
                    </g>
                  </g>
                </g>
              </g>
            </g>
          </g>
        </g>
      </g>
      <g id="Grupo_53914" data-name="Grupo 53914" transform="translate(3.897 5.115)">
        <g id="Grupo_53913" data-name="Grupo 53913" transform="translate(0 0)">
          <g id="Grupo_53912" data-name="Grupo 53912">
            <g id="Grupo_53911" data-name="Grupo 53911">
              <g id="Grupo_53910" data-name="Grupo 53910">
                <g id="Grupo_53909" data-name="Grupo 53909">
                  <g id="Grupo_53908" data-name="Grupo 53908">
                    <rect id="Rectángulo_5161" data-name="Rectángulo 5161" width="62.798" height="83.55" transform="matrix(0.117, -0.993, 0.993, 0.117, 0, 62.363)" fill="#ececec"/>
                  </g>
                </g>
              </g>
            </g>
          </g>
        </g>
      </g>
      <g id="Grupo_53921" data-name="Grupo 53921" transform="translate(3.897 32.142)">
        <g id="Grupo_53920" data-name="Grupo 53920">
          <g id="Grupo_53919" data-name="Grupo 53919">
            <g id="Grupo_53918" data-name="Grupo 53918">
              <g id="Grupo_53917" data-name="Grupo 53917">
                <g id="Grupo_53916" data-name="Grupo 53916">
                  <g id="Grupo_53915" data-name="Grupo 53915">
                    <path id="Trazado_103526" data-name="Trazado 103526" d="M858.861,534.771l33.565-35.336,15.082,26.376,13.709-11.525,20.614,30.3Z" transform="translate(-858.861 -499.435)" fill="#e1e1e1"/>
                  </g>
                </g>
              </g>
            </g>
          </g>
        </g>
      </g>
      <g id="Grupo_53930" data-name="Grupo 53930" transform="translate(50.483 23.067)">
        <g id="Grupo_53929" data-name="Grupo 53929">
          <g id="Grupo_53928" data-name="Grupo 53928">
            <g id="Grupo_53927" data-name="Grupo 53927">
              <g id="Grupo_53926" data-name="Grupo 53926">
                <g id="Grupo_53925" data-name="Grupo 53925">
                  <g id="Grupo_53924" data-name="Grupo 53924">
                    <g id="Grupo_53923" data-name="Grupo 53923">
                      <g id="Grupo_53922" data-name="Grupo 53922">
                        <path id="Trazado_103527" data-name="Trazado 103527" d="M911.029,499.178a6.578,6.578,0,1,1-5.76-7.3A6.579,6.579,0,0,1,911.029,499.178Z" transform="translate(-897.917 -491.827)" fill="#e1e1e1"/>
                      </g>
                    </g>
                  </g>
                </g>
              </g>
            </g>
          </g>
        </g>
      </g>
    </g>
    <path id="Trazado_103528" data-name="Trazado 103528" d="M1029.643,694.258H952.862a90.92,90.92,0,0,1-90.818-90.816V270.9a43.9,43.9,0,0,1,43.85-43.849h170.717A43.9,43.9,0,0,1,1120.46,270.9V603.441A90.919,90.919,0,0,1,1029.643,694.258ZM905.894,229.435A41.511,41.511,0,0,0,864.43,270.9V603.441a88.532,88.532,0,0,0,88.432,88.431h76.782a88.531,88.531,0,0,0,88.431-88.431V270.9a41.51,41.51,0,0,0-41.463-41.463Z" transform="translate(3.882 10.681)" fill="#db6e5f"/>
    <g id="Grupo_54212" data-name="Grupo 54212" transform="translate(869.664 171.652)">
      <g id="Grupo_53933" data-name="Grupo 53933" transform="translate(63.92 450.045)">
        <g id="Grupo_53932" data-name="Grupo 53932">
          <path id="Trazado_103529" data-name="Trazado 103529" d="M922.306,548.953l-3.54,52.482,22.65,2.781,10.847-53.6Z" transform="translate(-918.766 -548.953)" fill="#aa6550"/>
        </g>
      </g>
      <g id="Grupo_53938" data-name="Grupo 53938" transform="translate(36.197 495.594)">
        <g id="Grupo_53937" data-name="Grupo 53937">
          <g id="Grupo_53936" data-name="Grupo 53936">
            <g id="Grupo_53935" data-name="Grupo 53935">
              <g id="Grupo_53934" data-name="Grupo 53934">
                <path id="Trazado_103530" data-name="Trazado 103530" d="M923.524,587.139l-.208,1.5s-26.873,6.825-27.792,11.626l50.669,6.526,1.483-16.95C939.693,592.363,931.758,591.741,923.524,587.139Z" transform="translate(-895.524 -587.139)" fill="#ff735d"/>
              </g>
            </g>
          </g>
        </g>
      </g>
      <g id="Grupo_53944" data-name="Grupo 53944" transform="translate(79.811 502.874)">
        <g id="Grupo_53943" data-name="Grupo 53943">
          <g id="Grupo_53942" data-name="Grupo 53942">
            <g id="Grupo_53941" data-name="Grupo 53941">
              <g id="Grupo_53940" data-name="Grupo 53940">
                <g id="Grupo_53939" data-name="Grupo 53939">
                  <path id="Trazado_103531" data-name="Trazado 103531" d="M934.8,593.4a2.087,2.087,0,0,1,1.126,2.547,2,2,0,0,1-2.513,1.138,2.2,2.2,0,0,1-1.178-2.7,2.08,2.08,0,0,1,2.746-.895" transform="translate(-932.089 -593.242)" fill="#fff"/>
                </g>
              </g>
            </g>
          </g>
        </g>
      </g>
      <g id="Grupo_53949" data-name="Grupo 53949" transform="translate(36.196 506.41)">
        <g id="Grupo_53948" data-name="Grupo 53948">
          <g id="Grupo_53947" data-name="Grupo 53947">
            <g id="Grupo_53946" data-name="Grupo 53946">
              <g id="Grupo_53945" data-name="Grupo 53945">
                <path id="Trazado_103532" data-name="Trazado 103532" d="M946.193,605.046l.357-4.077-48.694-4.762s-2.382.692-2.332,2.313Z" transform="translate(-895.523 -596.207)" fill="#fff"/>
              </g>
            </g>
          </g>
        </g>
      </g>
      <g id="Grupo_53955" data-name="Grupo 53955" transform="translate(63.793 497.066)">
        <g id="Grupo_53954" data-name="Grupo 53954">
          <g id="Grupo_53953" data-name="Grupo 53953">
            <g id="Grupo_53952" data-name="Grupo 53952">
              <g id="Grupo_53951" data-name="Grupo 53951">
                <g id="Grupo_53950" data-name="Grupo 53950">
                  <path id="Trazado_103533" data-name="Trazado 103533" d="M918.66,588.523c-.024.248,1.2.52,2.314,1.472,1.141.923,1.629,2.076,1.869,2.008.235-.019.056-1.546-1.313-2.676S918.635,588.289,918.66,588.523Z" transform="translate(-918.66 -588.374)" fill="#1a2e35"/>
                </g>
              </g>
            </g>
          </g>
        </g>
      </g>
      <g id="Grupo_53961" data-name="Grupo 53961" transform="translate(58.191 498.657)">
        <g id="Grupo_53960" data-name="Grupo 53960">
          <g id="Grupo_53959" data-name="Grupo 53959">
            <g id="Grupo_53958" data-name="Grupo 53958">
              <g id="Grupo_53957" data-name="Grupo 53957">
                <g id="Grupo_53956" data-name="Grupo 53956">
                  <path id="Trazado_103534" data-name="Trazado 103534" d="M913.968,589.78c-.087.233.93.791,1.637,1.945.738,1.134.805,2.293,1.053,2.314.227.069.584-1.359-.32-2.777S914,589.545,913.968,589.78Z" transform="translate(-913.963 -589.707)" fill="#1a2e35"/>
                </g>
              </g>
            </g>
          </g>
        </g>
      </g>
      <g id="Grupo_53967" data-name="Grupo 53967" transform="translate(52.913 500.19)">
        <g id="Grupo_53966" data-name="Grupo 53966">
          <g id="Grupo_53965" data-name="Grupo 53965">
            <g id="Grupo_53964" data-name="Grupo 53964">
              <g id="Grupo_53963" data-name="Grupo 53963">
                <g id="Grupo_53962" data-name="Grupo 53962">
                  <path id="Trazado_103535" data-name="Trazado 103535" d="M910.984,595.5c.218.082.722-1.109.261-2.547s-1.549-2.124-1.681-1.932c-.166.186.493,1.009.853,2.195C910.8,594.395,910.741,595.447,910.984,595.5Z" transform="translate(-909.538 -590.992)" fill="#1a2e35"/>
                </g>
              </g>
            </g>
          </g>
        </g>
      </g>
      <g id="Grupo_54111" data-name="Grupo 54111" transform="translate(107.071 13.253)">
        <g id="Grupo_53969" data-name="Grupo 53969" transform="translate(51.878 6.685)">
          <g id="Grupo_53968" data-name="Grupo 53968">
            <path id="Trazado_103536" data-name="Trazado 103536" d="M998.435,196.033c.563-3.624,3.828-6.408,7.389-7.282s7.332-.143,10.785,1.088a25.756,25.756,0,0,1,10.378,6.457,15.617,15.617,0,0,1,4.385,11.186c-.205,3.85-2.125,7.714-1.053,11.419.815,2.813,3.2,4.865,5.583,6.563s4.973,3.289,6.579,5.737,1.87,6.094-.3,8.06c-1.932,1.751-5.4,1.95-6.21,4.428-.5,1.536.352,3.139.823,4.687a12.205,12.205,0,0,1-1.579,9.823,20.553,20.553,0,0,1-7.527,6.809c-5.22,2.949-11.729,4.325-17.242,1.972a16.58,16.58,0,0,1-6.8-5.581,26.336,26.336,0,0,1-4.5-13.906,78.633,78.633,0,0,1,.955-14.759" transform="translate(-998.435 -188.368)" fill="#1a2e35"/>
          </g>
        </g>
        <g id="Grupo_53972" data-name="Grupo 53972" transform="translate(49.964 15.223)">
          <g id="Grupo_53971" data-name="Grupo 53971">
            <g id="Grupo_53970" data-name="Grupo 53970">
              <path id="Trazado_103537" data-name="Trazado 103537" d="M996.83,253.295a15.181,15.181,0,0,0,19.217-14.978c-.1-4.4-2.089-8.884-.722-13.067.939-2.872,3.347-5.111,4.154-8.023,1.2-4.348-1.423-8.741-3.933-12.489a29.253,29.253,0,0,0-5.5-6.674,9.881,9.881,0,0,0-8.05-2.378" transform="translate(-996.83 -195.525)" fill="#1a2e35"/>
            </g>
          </g>
        </g>
        <g id="Grupo_53976" data-name="Grupo 53976" transform="translate(0 15.768)">
          <g id="Grupo_53975" data-name="Grupo 53975">
            <g id="Grupo_53974" data-name="Grupo 53974">
              <g id="Grupo_53973" data-name="Grupo 53973">
                <path id="Trazado_103538" data-name="Trazado 103538" d="M964.333,195.982c.246,3.322-1.948,6.288-4.158,8.78s-4.669,5.089-5.147,8.384c-.846,5.841,4.873,11.265,3.693,17.048-.632,3.1-3.169,5.589-3.621,8.721-.438,3.027,1.186,5.991,3.2,8.3s4.462,4.227,6.242,6.717c0,0,3.7,6.077,15.109,2.186" transform="translate(-954.942 -195.982)" fill="#1a2e35"/>
              </g>
            </g>
          </g>
        </g>
        <g id="Grupo_53980" data-name="Grupo 53980" transform="translate(9.286)">
          <g id="Grupo_53979" data-name="Grupo 53979">
            <g id="Grupo_53978" data-name="Grupo 53978">
              <g id="Grupo_53977" data-name="Grupo 53977">
                <path id="Trazado_103539" data-name="Trazado 103539" d="M1013.881,203.61c.086-3.012-2.7-5.339-5.5-6.442s-5.921-1.52-8.421-3.2c-2.213-1.49-3.7-3.813-5.574-5.714a18.549,18.549,0,0,0-31.2,8.511c-1.077,4.291-.342,9.362,3.039,12.212,3.924,3.309,9.743,2.574,14.772,1.545s10.72-2.044,14.918.909c2.532,1.781,3.984,4.678,5.531,7.36s3.491,5.418,6.417,6.426,6.9-.732,7.016-3.827" transform="translate(-962.727 -182.763)" fill="#1a2e35"/>
              </g>
            </g>
          </g>
        </g>
        <g id="Grupo_54082" data-name="Grupo 54082" transform="translate(6.381 14.59)">
          <g id="Grupo_54081" data-name="Grupo 54081">
            <g id="Grupo_54080" data-name="Grupo 54080">
              <g id="Grupo_54079" data-name="Grupo 54079">
                <g id="Grupo_54058" data-name="Grupo 54058">
                  <g id="Grupo_54057" data-name="Grupo 54057">
                    <g id="Grupo_54056" data-name="Grupo 54056">
                      <g id="Grupo_53990" data-name="Grupo 53990">
                        <g id="Grupo_53989" data-name="Grupo 53989">
                          <g id="Grupo_53988" data-name="Grupo 53988">
                            <g id="Grupo_53987" data-name="Grupo 53987">
                              <g id="Grupo_53986" data-name="Grupo 53986">
                                <g id="Grupo_53985" data-name="Grupo 53985">
                                  <g id="Grupo_53984" data-name="Grupo 53984">
                                    <g id="Grupo_53983" data-name="Grupo 53983">
                                      <g id="Grupo_53982" data-name="Grupo 53982">
                                        <g id="Grupo_53981" data-name="Grupo 53981">
                                          <path id="Trazado_103540" data-name="Trazado 103540" d="M1002.472,201.87a5.04,5.04,0,0,1,4.5,5.123h0l-3.007,68.071c-.125,8.039-11.877,12.557-20.485,12.356h0c-8.692-.2-8.972-4.465-9.081-12.113-.181-12.778-.166-17.576-.171-17.5,0,0-10.98-1.848-13.225-16.183-1.115-7.131-.731-18.814-.109-28.365.561-8.6,6.28-19.131,14.844-18.206Z" transform="translate(-960.292 -194.994)" fill="#aa6550"/>
                                        </g>
                                      </g>
                                    </g>
                                  </g>
                                </g>
                              </g>
                            </g>
                          </g>
                        </g>
                      </g>
                      <g id="Grupo_54012" data-name="Grupo 54012" transform="translate(2.637 20.874)">
                        <g id="Grupo_54000" data-name="Grupo 54000" transform="translate(0.499 5.165)">
                          <g id="Grupo_53999" data-name="Grupo 53999">
                            <g id="Grupo_53998" data-name="Grupo 53998">
                              <g id="Grupo_53997" data-name="Grupo 53997">
                                <g id="Grupo_53996" data-name="Grupo 53996">
                                  <g id="Grupo_53995" data-name="Grupo 53995">
                                    <g id="Grupo_53994" data-name="Grupo 53994">
                                      <g id="Grupo_53993" data-name="Grupo 53993">
                                        <g id="Grupo_53992" data-name="Grupo 53992">
                                          <g id="Grupo_53991" data-name="Grupo 53991">
                                            <path id="Trazado_103541" data-name="Trazado 103541" d="M962.922,218.482a1.839,1.839,0,0,0,1.769,1.858,1.758,1.758,0,0,0,1.9-1.653,1.839,1.839,0,0,0-1.766-1.86A1.76,1.76,0,0,0,962.922,218.482Z" transform="translate(-962.921 -216.824)" fill="#1a2e35"/>
                                          </g>
                                        </g>
                                      </g>
                                    </g>
                                  </g>
                                </g>
                              </g>
                            </g>
                          </g>
                        </g>
                        <g id="Grupo_54011" data-name="Grupo 54011">
                          <g id="Grupo_54010" data-name="Grupo 54010">
                            <g id="Grupo_54009" data-name="Grupo 54009">
                              <g id="Grupo_54008" data-name="Grupo 54008">
                                <g id="Grupo_54007" data-name="Grupo 54007">
                                  <g id="Grupo_54006" data-name="Grupo 54006">
                                    <g id="Grupo_54005" data-name="Grupo 54005">
                                      <g id="Grupo_54004" data-name="Grupo 54004">
                                        <g id="Grupo_54003" data-name="Grupo 54003">
                                          <g id="Grupo_54002" data-name="Grupo 54002">
                                            <g id="Grupo_54001" data-name="Grupo 54001">
                                              <path id="Trazado_103542" data-name="Trazado 103542" d="M962.532,214.418c.228.241,1.622-.786,3.6-.777,1.975-.019,3.425,1,3.64.76.105-.107-.126-.54-.757-1a5.041,5.041,0,0,0-2.913-.905,4.849,4.849,0,0,0-2.866.918C962.626,213.878,962.42,214.311,962.532,214.418Z" transform="translate(-962.503 -212.494)" fill="#1a2e35"/>
                                            </g>
                                          </g>
                                        </g>
                                      </g>
                                    </g>
                                  </g>
                                </g>
                              </g>
                            </g>
                          </g>
                        </g>
                      </g>
                      <g id="Grupo_54034" data-name="Grupo 54034" transform="translate(21.505 21.854)">
                        <g id="Grupo_54022" data-name="Grupo 54022" transform="translate(0 4.534)">
                          <g id="Grupo_54021" data-name="Grupo 54021">
                            <g id="Grupo_54020" data-name="Grupo 54020">
                              <g id="Grupo_54019" data-name="Grupo 54019">
                                <g id="Grupo_54018" data-name="Grupo 54018">
                                  <g id="Grupo_54017" data-name="Grupo 54017">
                                    <g id="Grupo_54016" data-name="Grupo 54016">
                                      <g id="Grupo_54015" data-name="Grupo 54015">
                                        <g id="Grupo_54014" data-name="Grupo 54014">
                                          <g id="Grupo_54013" data-name="Grupo 54013">
                                            <path id="Trazado_103543" data-name="Trazado 103543" d="M978.322,218.775a1.838,1.838,0,0,0,1.768,1.858,1.759,1.759,0,0,0,1.9-1.653,1.839,1.839,0,0,0-1.767-1.86A1.76,1.76,0,0,0,978.322,218.775Z" transform="translate(-978.321 -217.117)" fill="#1a2e35"/>
                                          </g>
                                        </g>
                                      </g>
                                    </g>
                                  </g>
                                </g>
                              </g>
                            </g>
                          </g>
                        </g>
                        <g id="Grupo_54033" data-name="Grupo 54033" transform="translate(1.028)">
                          <g id="Grupo_54032" data-name="Grupo 54032">
                            <g id="Grupo_54031" data-name="Grupo 54031">
                              <g id="Grupo_54030" data-name="Grupo 54030">
                                <g id="Grupo_54029" data-name="Grupo 54029">
                                  <g id="Grupo_54028" data-name="Grupo 54028">
                                    <g id="Grupo_54027" data-name="Grupo 54027">
                                      <g id="Grupo_54026" data-name="Grupo 54026">
                                        <g id="Grupo_54025" data-name="Grupo 54025">
                                          <g id="Grupo_54024" data-name="Grupo 54024">
                                            <g id="Grupo_54023" data-name="Grupo 54023">
                                              <path id="Trazado_103544" data-name="Trazado 103544" d="M979.212,215.241c.228.24,1.623-.787,3.6-.778,1.975-.019,3.426,1,3.64.76.1-.107-.124-.54-.757-1a5.051,5.051,0,0,0-2.913-.905,4.852,4.852,0,0,0-2.866.918C979.308,214.7,979.1,215.133,979.212,215.241Z" transform="translate(-979.183 -213.316)" fill="#1a2e35"/>
                                            </g>
                                          </g>
                                        </g>
                                      </g>
                                    </g>
                                  </g>
                                </g>
                              </g>
                            </g>
                          </g>
                        </g>
                      </g>
                      <g id="Grupo_54045" data-name="Grupo 54045" transform="translate(10.316 22.934)">
                        <g id="Grupo_54044" data-name="Grupo 54044">
                          <g id="Grupo_54043" data-name="Grupo 54043">
                            <g id="Grupo_54042" data-name="Grupo 54042">
                              <g id="Grupo_54041" data-name="Grupo 54041">
                                <g id="Grupo_54040" data-name="Grupo 54040">
                                  <g id="Grupo_54039" data-name="Grupo 54039">
                                    <g id="Grupo_54038" data-name="Grupo 54038">
                                      <g id="Grupo_54037" data-name="Grupo 54037">
                                        <g id="Grupo_54036" data-name="Grupo 54036">
                                          <g id="Grupo_54035" data-name="Grupo 54035">
                                            <path id="Trazado_103545" data-name="Trazado 103545" d="M973.976,230.7a13.122,13.122,0,0,0-3.211-.586c-.5-.054-.983-.155-1.066-.5a2.576,2.576,0,0,1,.34-1.5q.717-1.83,1.5-3.842c2.086-5.47,3.6-9.968,3.377-10.051s-2.091,4.285-4.177,9.756q-.753,2.024-1.44,3.865a2.923,2.923,0,0,0-.266,1.981,1.268,1.268,0,0,0,.829.741,3.333,3.333,0,0,0,.858.12A12.758,12.758,0,0,0,973.976,230.7Z" transform="translate(-968.94 -214.221)" fill="#1a2e35"/>
                                          </g>
                                        </g>
                                      </g>
                                    </g>
                                  </g>
                                </g>
                              </g>
                            </g>
                          </g>
                        </g>
                      </g>
                      <g id="Grupo_54055" data-name="Grupo 54055" transform="translate(13.935 57.734)">
                        <g id="Grupo_54054" data-name="Grupo 54054">
                          <g id="Grupo_54053" data-name="Grupo 54053">
                            <g id="Grupo_54052" data-name="Grupo 54052">
                              <g id="Grupo_54051" data-name="Grupo 54051">
                                <g id="Grupo_54050" data-name="Grupo 54050">
                                  <g id="Grupo_54049" data-name="Grupo 54049">
                                    <g id="Grupo_54048" data-name="Grupo 54048">
                                      <g id="Grupo_54047" data-name="Grupo 54047">
                                        <g id="Grupo_54046" data-name="Grupo 54046">
                                          <path id="Trazado_103546" data-name="Trazado 103546" d="M971.974,248.473a36.458,36.458,0,0,0,19.2-5.077s-4.863,9.843-19.2,8.47Z" transform="translate(-971.974 -243.396)" fill="#724940"/>
                                        </g>
                                      </g>
                                    </g>
                                  </g>
                                </g>
                              </g>
                            </g>
                          </g>
                        </g>
                      </g>
                    </g>
                  </g>
                </g>
                <g id="Grupo_54068" data-name="Grupo 54068" transform="translate(21.685 17.494)">
                  <g id="Grupo_54067" data-name="Grupo 54067">
                    <g id="Grupo_54066" data-name="Grupo 54066">
                      <g id="Grupo_54065" data-name="Grupo 54065">
                        <g id="Grupo_54064" data-name="Grupo 54064">
                          <g id="Grupo_54063" data-name="Grupo 54063">
                            <g id="Grupo_54062" data-name="Grupo 54062">
                              <g id="Grupo_54061" data-name="Grupo 54061">
                                <g id="Grupo_54060" data-name="Grupo 54060">
                                  <g id="Grupo_54059" data-name="Grupo 54059">
                                    <path id="Trazado_103547" data-name="Trazado 103547" d="M978.482,211.134c.193.538,2.17.287,4.488.573,2.326.239,4.2.922,4.5.44.138-.23-.187-.737-.942-1.26a7.87,7.87,0,0,0-6.852-.772C978.828,210.457,978.4,210.879,978.482,211.134Z" transform="translate(-978.471 -209.66)" fill="#1a2e35"/>
                                  </g>
                                </g>
                              </g>
                            </g>
                          </g>
                        </g>
                      </g>
                    </g>
                  </g>
                </g>
                <g id="Grupo_54078" data-name="Grupo 54078" transform="translate(2.903 16.374)">
                  <g id="Grupo_54077" data-name="Grupo 54077">
                    <g id="Grupo_54076" data-name="Grupo 54076">
                      <g id="Grupo_54075" data-name="Grupo 54075">
                        <g id="Grupo_54074" data-name="Grupo 54074">
                          <g id="Grupo_54073" data-name="Grupo 54073">
                            <g id="Grupo_54072" data-name="Grupo 54072">
                              <g id="Grupo_54071" data-name="Grupo 54071">
                                <g id="Grupo_54070" data-name="Grupo 54070">
                                  <g id="Grupo_54069" data-name="Grupo 54069">
                                    <path id="Trazado_103548" data-name="Trazado 103548" d="M962.782,210.762c.394.45,1.941-.013,3.8-.031,1.857-.075,3.431.309,3.793-.16.16-.228-.087-.678-.773-1.1a5.8,5.8,0,0,0-3.086-.743,5.726,5.726,0,0,0-3.031.9C962.826,210.08,962.609,210.542,962.782,210.762Z" transform="translate(-962.725 -208.721)" fill="#1a2e35"/>
                                  </g>
                                </g>
                              </g>
                            </g>
                          </g>
                        </g>
                      </g>
                    </g>
                  </g>
                </g>
              </g>
            </g>
          </g>
        </g>
        <g id="Grupo_54086" data-name="Grupo 54086" transform="translate(18.514 11.533)">
          <g id="Grupo_54085" data-name="Grupo 54085">
            <g id="Grupo_54084" data-name="Grupo 54084">
              <g id="Grupo_54083" data-name="Grupo 54083">
                <path id="Trazado_103549" data-name="Trazado 103549" d="M1010.517,249.514a12.727,12.727,0,0,1-15.139-14.073c.446-3.52,2.344-7.1,1.124-10.432-1.614-4.4-7.788-5.759-9.426-10.156-.953-2.554-.1-5.542-1.177-8.045-1.015-2.353-3.491-3.71-5.9-4.582s-5-1.473-7.02-3.046-3.286-4.542-1.981-6.748a135.755,135.755,0,0,1,31.316,7.609c2.339.873,4.8,1.923,6.178,4,1.463,2.2,1.393,5.041,1.27,7.68q-.9,19.3-1.8,38.6" transform="translate(-970.464 -192.432)" fill="#1a2e35"/>
              </g>
            </g>
          </g>
        </g>
        <g id="Grupo_54090" data-name="Grupo 54090" transform="translate(18.368 8.427)">
          <g id="Grupo_54089" data-name="Grupo 54089">
            <g id="Grupo_54088" data-name="Grupo 54088">
              <g id="Grupo_54087" data-name="Grupo 54087">
                <path id="Trazado_103550" data-name="Trazado 103550" d="M1018.115,203.451a1.118,1.118,0,0,1,.237.587,2.181,2.181,0,0,1-.552,1.722,3.592,3.592,0,0,1-2.565,1.3,8.272,8.272,0,0,1-3.631-1.087,10.1,10.1,0,0,0-4.182-1.235,21.846,21.846,0,0,0-5.06.46,34.175,34.175,0,0,1-5.722.738,8.243,8.243,0,0,1-5.869-2.142,17.015,17.015,0,0,1-3.379-5.241,26.263,26.263,0,0,0-2.735-4.917,8.032,8.032,0,0,0-8.271-3.018,8.386,8.386,0,0,0-4.99,3.691,19.752,19.752,0,0,0-1.05,2.122,1.81,1.81,0,0,1,.108-.615,7.745,7.745,0,0,1,.693-1.656,8.476,8.476,0,0,1,5.106-4.052,8.376,8.376,0,0,1,4.6.092,8.592,8.592,0,0,1,4.337,3.012,26.244,26.244,0,0,1,2.854,5.026,16.59,16.59,0,0,0,3.23,5.012,7.533,7.533,0,0,0,5.363,1.956,34.624,34.624,0,0,0,5.6-.685,21.827,21.827,0,0,1,5.222-.4,10.5,10.5,0,0,1,4.368,1.378,8.108,8.108,0,0,0,3.39,1.144,3.335,3.335,0,0,0,2.356-1.071,2.105,2.105,0,0,0,.622-1.517C1018.187,203.662,1018.072,203.468,1018.115,203.451Z" transform="translate(-970.341 -189.828)" fill="#375a64"/>
              </g>
            </g>
          </g>
        </g>
        <g id="Grupo_54094" data-name="Grupo 54094" transform="translate(52.38 14.486)">
          <g id="Grupo_54093" data-name="Grupo 54093">
            <g id="Grupo_54092" data-name="Grupo 54092">
              <g id="Grupo_54091" data-name="Grupo 54091">
                <path id="Trazado_103551" data-name="Trazado 103551" d="M1014.229,203.837c-.186.157-2.376-3.5-6.786-5.981-4.37-2.557-8.63-2.606-8.587-2.846a6.742,6.742,0,0,1,2.728.032,17.812,17.812,0,0,1,11.241,6.454A6.747,6.747,0,0,1,1014.229,203.837Z" transform="translate(-998.856 -194.908)" fill="#375a64"/>
              </g>
            </g>
          </g>
        </g>
        <g id="Grupo_54097" data-name="Grupo 54097" transform="translate(16.611 4.68)">
          <g id="Grupo_54096" data-name="Grupo 54096">
            <g id="Grupo_54095" data-name="Grupo 54095">
              <path id="Trazado_103552" data-name="Trazado 103552" d="M1003.927,195.856c.022.013-.046.156-.2.422a4.313,4.313,0,0,1-.923.973,6.264,6.264,0,0,1-4.743,1.054,11.943,11.943,0,0,1-6.2-3.7c-1.941-1.888-3.738-4.322-6.374-5.818a11.271,11.271,0,0,0-8.226-1.047,10.848,10.848,0,0,0-5.742,3.72,11.918,11.918,0,0,0-2.186,4.171c-.311,1.082-.371,1.714-.435,1.707-.025,0-.032-.16-.02-.464a7.593,7.593,0,0,1,.18-1.313,11.362,11.362,0,0,1,8.033-8.471,11.772,11.772,0,0,1,8.754,1.062c2.822,1.615,4.615,4.115,6.492,5.98a11.714,11.714,0,0,0,5.816,3.665,6.178,6.178,0,0,0,4.488-.778A9.031,9.031,0,0,0,1003.927,195.856Z" transform="translate(-968.868 -186.687)" fill="#375a64"/>
            </g>
          </g>
        </g>
        <g id="Grupo_54099" data-name="Grupo 54099" transform="translate(51.011 24.085)">
          <g id="Grupo_54098" data-name="Grupo 54098">
            <path id="Trazado_103553" data-name="Trazado 103553" d="M997.708,253.636a1.925,1.925,0,0,0,.637.175,11.326,11.326,0,0,0,1.883.19,14.652,14.652,0,0,0,6.778-1.528,15.67,15.67,0,0,0,7.222-7.3,18.053,18.053,0,0,0,1.224-12.487,36.27,36.27,0,0,1-1.26-6.279,9.956,9.956,0,0,1,1.418-5.568,20.415,20.415,0,0,0,2.219-5.078,11.925,11.925,0,0,0,.138-4.859,12.8,12.8,0,0,0-2.959-6.28,9.407,9.407,0,0,0-1.375-1.3c-.348-.259-.538-.38-.557-.358-.052.064.68.608,1.677,1.873a13.14,13.14,0,0,1,2.62,6.162,11.527,11.527,0,0,1-.23,4.6,20.313,20.313,0,0,1-2.226,4.879,14.734,14.734,0,0,0-1.207,2.786,9.95,9.95,0,0,0-.351,3.187,35.541,35.541,0,0,0,1.264,6.434,17.492,17.492,0,0,1-1.1,11.952,15.319,15.319,0,0,1-13.3,8.84C998.613,253.72,997.719,253.557,997.708,253.636Z" transform="translate(-997.708 -202.955)" fill="#375a64"/>
          </g>
        </g>
        <g id="Grupo_54101" data-name="Grupo 54101" transform="translate(61.927 9.677)">
          <g id="Grupo_54100" data-name="Grupo 54100">
            <path id="Trazado_103554" data-name="Trazado 103554" d="M1021.329,192.5a4.742,4.742,0,0,0-2.448-1.266,9.6,9.6,0,0,0-11.345,5.205,4.749,4.749,0,0,0-.637,2.679c.138.031.358-.992,1.171-2.4a9.9,9.9,0,0,1,10.673-4.9C1020.342,192.121,1021.262,192.622,1021.329,192.5Z" transform="translate(-1006.859 -190.876)" fill="#375a64"/>
          </g>
        </g>
        <g id="Grupo_54103" data-name="Grupo 54103" transform="translate(65.535 12.909)">
          <g id="Grupo_54102" data-name="Grupo 54102">
            <path id="Trazado_103555" data-name="Trazado 103555" d="M1010.148,201.022a8.142,8.142,0,0,0-.06-.933,4.8,4.8,0,0,1,.631-2.516,6.912,6.912,0,0,1,2.97-2.79,6.2,6.2,0,0,1,5.242-.134,9.669,9.669,0,0,1,4.687,4.487,14.438,14.438,0,0,1,1.459,7.426,49.386,49.386,0,0,1-1.343,8.493,35.993,35.993,0,0,0-1.1,9.338,28.155,28.155,0,0,0,2.427,9.1,78.489,78.489,0,0,1,3.116,8.05,17.679,17.679,0,0,1,.65,7.611,22.371,22.371,0,0,1-1.99,6.415,51.137,51.137,0,0,1-5.254,8.322c-.655.874-1.189,1.588-1.615,2.154a3.984,3.984,0,0,0-.527.783,3.891,3.891,0,0,0,.66-.674c.41-.46,1-1.15,1.744-2.059a46.148,46.148,0,0,0,5.535-8.264,22.574,22.574,0,0,0,2.146-6.577,18.238,18.238,0,0,0-.594-7.925,76.206,76.206,0,0,0-3.1-8.152,27.679,27.679,0,0,1-2.349-8.83c-.26-6.29,2.288-12.107,2.376-17.758a15.067,15.067,0,0,0-1.621-7.789,10.243,10.243,0,0,0-5.084-4.709,6.7,6.7,0,0,0-5.681.267,7.141,7.141,0,0,0-3.05,3.062,4.7,4.7,0,0,0-.507,2.68A3.092,3.092,0,0,0,1010.148,201.022Z" transform="translate(-1009.884 -193.585)" fill="#375a64"/>
          </g>
        </g>
        <g id="Grupo_54106" data-name="Grupo 54106" transform="translate(22.188 56.427)">
          <g id="Grupo_54105" data-name="Grupo 54105">
            <g id="Grupo_54104" data-name="Grupo 54104">
              <path id="Trazado_103556" data-name="Trazado 103556" d="M973.839,232.451a9.461,9.461,0,0,0,1.231,2.413,3.209,3.209,0,0,0,2.28,1.324,2.879,2.879,0,0,0,2.433-1.328,4.591,4.591,0,0,0,.679-2.767c-.039-.872-.439-1.913-1.306-2.016a2.176,2.176,0,0,0-1.053.233l-4.558,1.849" transform="translate(-973.544 -230.069)" fill="#724940"/>
            </g>
          </g>
        </g>
        <g id="Grupo_54110" data-name="Grupo 54110" transform="translate(21.323 55.957)">
          <g id="Grupo_54109" data-name="Grupo 54109">
            <g id="Grupo_54108" data-name="Grupo 54108">
              <g id="Grupo_54107" data-name="Grupo 54107">
                <path id="Trazado_103557" data-name="Trazado 103557" d="M975.8,236.277a6.6,6.6,0,0,0,2.431-.3,3.477,3.477,0,0,0,1.838-1.67,3.664,3.664,0,0,0,.06-2.982,3.294,3.294,0,0,0-.4-.681c-.181-.19-.148-.181-.345-.151-.185.05-.485.191-.73.286l-.748.305c-.976.394-1.859.74-2.606,1.017a8.269,8.269,0,0,1-2.481.748,8.282,8.282,0,0,1,2.256-1.276c.717-.347,1.577-.747,2.536-1.18l.738-.329a8.166,8.166,0,0,1,.833-.344,1.059,1.059,0,0,1,.676.02,1.235,1.235,0,0,1,.5.4,3.938,3.938,0,0,1,.513.865,4.275,4.275,0,0,1-.14,3.648,3.9,3.9,0,0,1-2.313,1.87,3.67,3.67,0,0,1-1.975.076C975.993,236.476,975.781,236.323,975.8,236.277Z" transform="translate(-972.819 -229.675)" fill="#1a2e35"/>
              </g>
            </g>
          </g>
        </g>
      </g>
      <g id="Grupo_54113" data-name="Grupo 54113" transform="translate(182.106 250.51)">
        <g id="Grupo_54112" data-name="Grupo 54112">
          <path id="Trazado_103558" data-name="Trazado 103558" d="M1017.856,381.9c.036.159.063.348.1.514C1017.888,381.85,1017.825,381.371,1017.856,381.9Z" transform="translate(-1017.848 -381.67)" fill="#1a2e35"/>
        </g>
      </g>
      <g id="Grupo_54124" data-name="Grupo 54124" transform="translate(195.539 257.916)">
        <g id="Grupo_54115" data-name="Grupo 54115">
          <g id="Grupo_54114" data-name="Grupo 54114">
            <path id="Trazado_103559" data-name="Trazado 103559" d="M1029.11,392.983l2.026,17.875L1047.49,425.8s1.384-2.244.637-4.11,3.735,2.427,3.735,2.427v10.27s2.8,1.12,3.735-1.307,1.494-11.2,1.494-11.2l-1.307-.934a4.771,4.771,0,0,0,1.307-4.108,14.6,14.6,0,0,0,.934-7.469,22.4,22.4,0,0,0-1.681-6.535l-13.4-14.951Z" transform="translate(-1029.11 -387.879)" fill="#aa6550"/>
          </g>
        </g>
        <g id="Grupo_54117" data-name="Grupo 54117" transform="translate(8.206 22.306)">
          <g id="Grupo_54116" data-name="Grupo 54116">
            <path id="Trazado_103560" data-name="Trazado 103560" d="M1036,406.584c-.144.107,1.845,2.951,4.826,6.007s5.761,5.133,5.873,4.992c.128-.154-2.438-2.438-5.379-5.471S1036.155,406.46,1036,406.584Z" transform="translate(-1035.99 -406.579)" fill="#724940"/>
          </g>
        </g>
        <g id="Grupo_54119" data-name="Grupo 54119" transform="translate(19.692 25.57)">
          <g id="Grupo_54118" data-name="Grupo 54118">
            <path id="Trazado_103561" data-name="Trazado 103561" d="M1045.626,409.323c-.134.135,1.609,2.143,3.892,4.485s4.246,4.135,4.386,4.007-1.6-2.139-3.893-4.487S1045.758,409.187,1045.626,409.323Z" transform="translate(-1045.619 -409.316)" fill="#724940"/>
          </g>
        </g>
        <g id="Grupo_54121" data-name="Grupo 54121" transform="translate(21.901 21.47)">
          <g id="Grupo_54120" data-name="Grupo 54120">
            <path id="Trazado_103562" data-name="Trazado 103562" d="M1047.478,405.89c-.129.153,1.432,1.634,3.093,3.677s2.813,3.861,2.988,3.765c.161-.079-.735-2.1-2.455-4.2S1047.589,405.748,1047.478,405.89Z" transform="translate(-1047.471 -405.879)" fill="#724940"/>
          </g>
        </g>
        <g id="Grupo_54123" data-name="Grupo 54123" transform="translate(23.784 17.241)">
          <g id="Grupo_54122" data-name="Grupo 54122">
            <path id="Trazado_103563" data-name="Trazado 103563" d="M1049.06,402.346c-.129.148,1.06,1.375,2.427,2.962s2.416,2.933,2.58,2.827-.65-1.653-2.06-3.278S1049.177,402.205,1049.06,402.346Z" transform="translate(-1049.05 -402.333)" fill="#724940"/>
          </g>
        </g>
      </g>
      <g id="Grupo_54126" data-name="Grupo 54126" transform="translate(87.291 55.672)">
        <g id="Grupo_54125" data-name="Grupo 54125">
          <path id="Trazado_103564" data-name="Trazado 103564" d="M950.005,223.677c-.087.19-2.764-.85-5.978-2.322s-5.753-2.817-5.666-3.007,2.763.85,5.978,2.324S950.091,223.489,950.005,223.677Z" transform="translate(-938.359 -218.325)" fill="#375a64"/>
        </g>
      </g>
      <g id="Grupo_54172" data-name="Grupo 54172">
        <g id="Grupo_54128" data-name="Grupo 54128" transform="translate(52.105 84.795)">
          <g id="Grupo_54127" data-name="Grupo 54127">
            <path id="Trazado_103565" data-name="Trazado 103565" d="M936.8,246.434c-1.347-.054-4.62,1.9-7.247,5.516-.044.055-.091.1-.135.159-1.87,2.431-3.627-4.509-3.943-7.092a2.708,2.708,0,0,0-3.66-2.1l-8.681,4.06-2.534.086a2.58,2.58,0,0,0-1.654,3.062l4.15,13.708.089,3.741,17.382,2.353.268-9.369c.26-1.083.6-2.362,1.068-3.819a11.875,11.875,0,0,1,1.913-3.658,22.383,22.383,0,0,1,3.124-3.428c.093-.06.2-.145.284-.192a1.608,1.608,0,0,0,.5-.429A1.511,1.511,0,0,0,936.8,246.434Z" transform="translate(-908.86 -242.741)" fill="#aa6550"/>
          </g>
        </g>
        <g id="Grupo_54130" data-name="Grupo 54130">
          <g id="Grupo_54129" data-name="Grupo 54129">
            <path id="Trazado_103566" data-name="Trazado 103566" d="M944.876,217.906s-10.145-1.943-24.718-15.183-21.754-31.168-23.489-31.031-9.416-3.167-22.947,28.612-7.643,38.9-4.776,38.762,22.2-6.123,34.409-5.085,28.034,6.937,28.034,6.937Z" transform="translate(-865.178 -171.652)" fill="#db6e5f"/>
          </g>
        </g>
        <g id="Grupo_54132" data-name="Grupo 54132" transform="translate(64.049 40.449)">
          <g id="Grupo_54131" data-name="Grupo 54131">
            <path id="Trazado_103567" data-name="Trazado 103567" d="M956.426,227.86l-3.254,6.637-1.458,2.974a8.54,8.54,0,0,1-11.018,4.095l-21.822-6.917,11.769-29.085,21.915,10.893A8.538,8.538,0,0,1,956.426,227.86Z" transform="translate(-918.874 -205.563)" fill="#1a2e35"/>
          </g>
        </g>
        <g id="Grupo_54134" data-name="Grupo 54134" transform="translate(50.863 69.21)">
          <g id="Grupo_54133" data-name="Grupo 54133">
            <path id="Trazado_103568" data-name="Trazado 103568" d="M946.4,234.035l-6.5,13.691-3.471-.859L914.451,265.8l-6.632-12.125s13.127-6.1,15.45-10.911-.547-5.8-.547-5.8l6.052-7.284Z" transform="translate(-907.819 -229.675)" fill="#1a2e35"/>
          </g>
        </g>
        <g id="Grupo_54136" data-name="Grupo 54136" transform="translate(1.856 0.755)">
          <g id="Grupo_54135" data-name="Grupo 54135">
            <path id="Trazado_103569" data-name="Trazado 103569" d="M874.6,200.72c-7.194,17.211-9.959,32.445-6.176,34.026s12.678-11.092,19.871-28.3,9.958-32.444,6.176-34.025S881.8,183.509,874.6,200.72Z" transform="translate(-866.734 -172.285)" fill="#1a2e35"/>
          </g>
        </g>
        <g id="Grupo_54138" data-name="Grupo 54138" transform="translate(97.814 63.475)">
          <g id="Grupo_54137" data-name="Grupo 54137">
            <path id="Trazado_103570" data-name="Trazado 103570" d="M953.091,233.534l-5.909-1.673,3.429-6.994,4.47,2.606Z" transform="translate(-947.181 -224.867)" fill="#375a64"/>
          </g>
        </g>
        <g id="Grupo_54140" data-name="Grupo 54140" transform="translate(69.743 71.706)" opacity="0.3">
          <g id="Grupo_54139" data-name="Grupo 54139">
            <path id="Trazado_103571" data-name="Trazado 103571" d="M923.648,231.768l16.025,9.592,1.854-3.9Z" transform="translate(-923.648 -231.768)"/>
          </g>
        </g>
        <g id="Grupo_54142" data-name="Grupo 54142" transform="translate(84.341 59.757)">
          <g id="Grupo_54141" data-name="Grupo 54141">
            <path id="Trazado_103572" data-name="Trazado 103572" d="M948.8,227.172c-.081.192-3.036-.861-6.6-2.352s-6.392-2.856-6.311-3.048,3.035.861,6.6,2.352S948.878,226.98,948.8,227.172Z" transform="translate(-935.885 -221.75)" fill="#375a64"/>
          </g>
        </g>
        <g id="Grupo_54144" data-name="Grupo 54144" transform="translate(83.334 64.689)">
          <g id="Grupo_54143" data-name="Grupo 54143">
            <path id="Trazado_103573" data-name="Trazado 103573" d="M946.81,230.744c-.027.1-.728-.041-1.848-.352-.559-.155-1.223-.353-1.956-.584s-1.49-.6-2.3-.94c-3.247-1.4-5.735-2.784-5.66-2.958.089-.206,2.738.883,5.953,2.265.808.339,1.557.714,2.262.986s1.342.508,1.872.726C946.19,230.323,946.838,230.644,946.81,230.744Z" transform="translate(-935.042 -225.885)" fill="#375a64"/>
          </g>
        </g>
        <g id="Grupo_54146" data-name="Grupo 54146" transform="translate(10.679 23.851)">
          <g id="Grupo_54145" data-name="Grupo 54145">
            <path id="Trazado_103574" data-name="Trazado 103574" d="M888.718,192.765s-8.917-5.185-13.375,6.789,4.817,13.66,4.817,13.66A78.983,78.983,0,0,0,888.718,192.765Z" transform="translate(-874.131 -191.648)" fill="#fafafa"/>
          </g>
        </g>
        <g id="Grupo_54148" data-name="Grupo 54148" transform="translate(10.545 10.594)">
          <g id="Grupo_54147" data-name="Grupo 54147">
            <path id="Trazado_103575" data-name="Trazado 103575" d="M897.658,180.534a13.232,13.232,0,0,1-.279,2.271c-.236,1.455-.569,3.566-1.057,6.16-.335,1.281-.7,2.679-1.093,4.177q-.3,1.127-.616,2.327-.159.6-.323,1.217c-.119.408-.279.81-.42,1.223-.584,1.646-1.2,3.374-1.834,5.164l-.483,1.354c-.157.458-.386.89-.578,1.342l-1.226,2.722-1.23,2.722c-.211.443-.385.9-.623,1.322s-.466.843-.7,1.26c-.922,1.662-1.812,3.265-2.659,4.794-.217.378-.413.763-.639,1.124s-.469.7-.7,1.05l-1.339,2-2.413,3.587c-1.617,2.078-2.977,3.719-3.911,4.858a13.245,13.245,0,0,1-1.52,1.714,13.44,13.44,0,0,1,1.288-1.894c.9-1.212,2.167-2.913,3.722-5l2.318-3.611,1.3-2.008.679-1.047c.221-.36.411-.746.623-1.125l2.6-4.782.685-1.254c.235-.419.406-.874.614-1.316q.6-1.333,1.218-2.7t1.221-2.7c.192-.447.421-.877.579-1.33l.487-1.342c.645-1.774,1.269-3.484,1.863-5.115.144-.409.308-.806.432-1.21s.226-.809.337-1.2q.333-1.186.648-2.3c.421-1.483.815-2.865,1.175-4.132.538-2.543.975-4.613,1.287-6.088A13.419,13.419,0,0,1,897.658,180.534Z" transform="translate(-874.018 -180.534)" fill="#1a2e35"/>
          </g>
        </g>
        <g id="Grupo_54150" data-name="Grupo 54150" transform="translate(60.864 82.202)">
          <g id="Grupo_54149" data-name="Grupo 54149">
            <path id="Trazado_103576" data-name="Trazado 103576" d="M917.362,240.716a1.985,1.985,0,0,0-1.043,2.485c.668,1.891,1.746,4.856,2.555,6.652a4.989,4.989,0,0,0,.991,1.6,1.669,1.669,0,0,0,1.688.465,1.81,1.81,0,0,0,1.009-1.6,5.3,5.3,0,0,0-.361-1.976c-.569-1.767-1.551-4.41-2.39-6.56a1.844,1.844,0,0,0-2.449-1.068Z" transform="translate(-916.204 -240.567)" fill="#aa6550"/>
          </g>
        </g>
        <g id="Grupo_54152" data-name="Grupo 54152" transform="translate(58.225 85.686)">
          <g id="Grupo_54151" data-name="Grupo 54151">
            <path id="Trazado_103577" data-name="Trazado 103577" d="M915.15,243.637a1.987,1.987,0,0,0-1.043,2.486c.668,1.889,1.746,4.855,2.555,6.651a5.017,5.017,0,0,0,.99,1.6,1.668,1.668,0,0,0,1.689.464,1.807,1.807,0,0,0,1.009-1.6,5.3,5.3,0,0,0-.361-1.975c-.569-1.767-1.551-4.41-2.391-6.56a1.845,1.845,0,0,0-2.449-1.069Z" transform="translate(-913.992 -243.488)" fill="#aa6550"/>
          </g>
        </g>
        <g id="Grupo_54154" data-name="Grupo 54154" transform="translate(55.791 87.917)">
          <g id="Grupo_54153" data-name="Grupo 54153">
            <path id="Trazado_103578" data-name="Trazado 103578" d="M913,245.488a1.694,1.694,0,0,0-.943,2.152c.6,1.637,1.58,4.2,2.312,5.76a4.289,4.289,0,0,0,.9,1.386,1.388,1.388,0,0,0,2.44-.982,4.438,4.438,0,0,0-.327-1.71c-.515-1.529-1.4-3.818-2.164-5.681a1.692,1.692,0,0,0-2.215-.924Z" transform="translate(-911.951 -245.359)" fill="#aa6550"/>
          </g>
        </g>
        <g id="Grupo_54156" data-name="Grupo 54156" transform="translate(52.438 88.661)">
          <g id="Grupo_54155" data-name="Grupo 54155">
            <path id="Trazado_103579" data-name="Trazado 103579" d="M910.193,246.112a1.7,1.7,0,0,0-.948,2.161c.607,1.645,1.588,4.225,2.322,5.787a4.33,4.33,0,0,0,.9,1.393,1.4,1.4,0,0,0,2.454-.986,4.476,4.476,0,0,0-.329-1.719c-.518-1.538-1.41-3.837-2.173-5.709a1.7,1.7,0,0,0-2.226-.928Z" transform="translate(-909.14 -245.982)" fill="#aa6550"/>
          </g>
        </g>
        <g id="Grupo_54159" data-name="Grupo 54159" transform="translate(61.432 86.27)">
          <g id="Grupo_54158" data-name="Grupo 54158">
            <g id="Grupo_54157" data-name="Grupo 54157">
              <path id="Trazado_103580" data-name="Trazado 103580" d="M919.6,250.871c-.179.075-.97-1.408-1.765-3.31s-1.3-3.507-1.116-3.581.97,1.406,1.765,3.31S919.777,250.8,919.6,250.871Z" transform="translate(-916.68 -243.978)" fill="#724940"/>
            </g>
          </g>
        </g>
        <g id="Grupo_54162" data-name="Grupo 54162" transform="translate(58.304 88.155)">
          <g id="Grupo_54161" data-name="Grupo 54161">
            <g id="Grupo_54160" data-name="Grupo 54160">
              <path id="Trazado_103581" data-name="Trazado 103581" d="M917.221,253.46c-.18.069-1.027-1.64-1.891-3.818s-1.418-4.007-1.239-4.082,1.026,1.634,1.891,3.819S917.4,253.391,917.221,253.46Z" transform="translate(-914.058 -245.558)" fill="#724940"/>
            </g>
          </g>
        </g>
        <g id="Grupo_54165" data-name="Grupo 54165" transform="translate(55.52 89.486)">
          <g id="Grupo_54164" data-name="Grupo 54164">
            <g id="Grupo_54163" data-name="Grupo 54163">
              <path id="Trazado_103582" data-name="Trazado 103582" d="M914.668,253.629c-.168.089-1.1-1.345-1.907-3.286s-1.174-3.612-.991-3.668.842,1.491,1.639,3.4S914.843,253.537,914.668,253.629Z" transform="translate(-911.723 -246.674)" fill="#724940"/>
            </g>
          </g>
        </g>
        <g id="Grupo_54168" data-name="Grupo 54168" transform="translate(59.613 85.835)">
          <g id="Grupo_54167" data-name="Grupo 54167">
            <g id="Grupo_54166" data-name="Grupo 54166">
              <path id="Trazado_103583" data-name="Trazado 103583" d="M915.155,243.613" transform="translate(-915.155 -243.613)" fill="none" stroke="#44555b" stroke-miterlimit="10" stroke-width="0.05"/>
            </g>
          </g>
        </g>
        <g id="Grupo_54171" data-name="Grupo 54171" transform="translate(59.613 67.047)">
          <g id="Grupo_54170" data-name="Grupo 54170">
            <g id="Grupo_54169" data-name="Grupo 54169">
              <path id="Trazado_103584" data-name="Trazado 103584" d="M915.155,227.862" transform="translate(-915.155 -227.862)" fill="none" stroke="#44555b" stroke-miterlimit="10" stroke-width="0.05"/>
            </g>
          </g>
        </g>
      </g>
      <g id="Grupo_54187" data-name="Grupo 54187" transform="translate(65.261 205.608)">
        <g id="Grupo_54174" data-name="Grupo 54174">
          <g id="Grupo_54173" data-name="Grupo 54173">
            <path id="Trazado_103585" data-name="Trazado 103585" d="M1039.615,499.659l-9.163-73.5c5.966-13.931,8.129-27.842,6.387-36.488.1.9.15,2.025-.1-.514-1.484-15.306-14.7-26.559-14.7-26.559l-4.421-18.57-56.595,7.958,2.142,31.087L926.54,512.039l-6.65,109.023,29.573,3.469s11.594-54.518,14.719-77.3a314.541,314.541,0,0,0,2.938-37.276l27.79-41.573c3.289,17.163,7.007,38.343,8.922,49.4A29,29,0,0,0,1010,531.234l72.712,57.229.01-34.47C1075.788,537.483,1039.615,499.659,1039.615,499.659Z" transform="translate(-919.89 -344.026)" fill="#073360"/>
          </g>
        </g>
        <g id="Grupo_54177" data-name="Grupo 54177" transform="translate(44.845 8.954)">
          <g id="Grupo_54176" data-name="Grupo 54176">
            <g id="Grupo_54175" data-name="Grupo 54175">
              <path id="Trazado_103586" data-name="Trazado 103586" d="M961.043,373.6a12.838,12.838,0,0,1-1.182-3.08,55.322,55.322,0,0,1-2.375-15.7,12.841,12.841,0,0,1,.217-3.292,19.047,19.047,0,0,1,.279,3.275c.125,2.018.361,4.8.82,7.847s1.06,5.771,1.539,7.737A19.151,19.151,0,0,1,961.043,373.6Z" transform="translate(-957.486 -351.533)" fill="#375a64"/>
            </g>
          </g>
        </g>
        <g id="Grupo_54180" data-name="Grupo 54180" transform="translate(48.716 9.491)">
          <g id="Grupo_54179" data-name="Grupo 54179">
            <g id="Grupo_54178" data-name="Grupo 54178">
              <path id="Trazado_103587" data-name="Trazado 103587" d="M963.036,352.371c-.017-.033.217-.214.73-.327A3.522,3.522,0,0,1,967.859,355a3.821,3.821,0,0,1-1.807,3.566,3.518,3.518,0,0,1-3.965-.363,3.422,3.422,0,0,1-1.338-2.978,5.336,5.336,0,0,1,.633-2.078c.24-.447.415-.666.456-.645s-.048.286-.2.753a6.384,6.384,0,0,0-.388,1.987,2.953,2.953,0,0,0,1.236,2.448,2.906,2.906,0,0,0,3.21.273,3.239,3.239,0,0,0,1.523-2.9A2.906,2.906,0,0,0,965.7,352.8,4.267,4.267,0,0,0,963.036,352.371Z" transform="translate(-960.732 -351.983)" fill="#375a64"/>
            </g>
          </g>
        </g>
        <g id="Grupo_54183" data-name="Grupo 54183" transform="translate(63.87 17.144)">
          <g id="Grupo_54182" data-name="Grupo 54182">
            <g id="Grupo_54181" data-name="Grupo 54181">
              <path id="Trazado_103588" data-name="Trazado 103588" d="M997.785,366.127a3.174,3.174,0,0,1-.995.412,15.5,15.5,0,0,1-2.86.647,21.034,21.034,0,0,1-4.357.153,22.5,22.5,0,0,1-10.12-3.211,20.873,20.873,0,0,1-3.472-2.637,15.551,15.551,0,0,1-1.964-2.177c-.409-.561-.614-.88-.575-.91.1-.082,1.026,1.135,2.87,2.716a23.764,23.764,0,0,0,3.471,2.451,23.967,23.967,0,0,0,9.842,3.123,23.735,23.735,0,0,0,4.25,0C996.291,366.464,997.748,366,997.785,366.127Z" transform="translate(-973.436 -358.399)" fill="#375a64"/>
            </g>
          </g>
        </g>
        <g id="Grupo_54186" data-name="Grupo 54186" transform="translate(47.229 80.342)">
          <g id="Grupo_54185" data-name="Grupo 54185">
            <g id="Grupo_54184" data-name="Grupo 54184">
              <path id="Trazado_103589" data-name="Trazado 103589" d="M1018.674,411.382a5.9,5.9,0,0,1-.616.865l-1.867,2.386c-1.569,2.114-3.839,5.171-6.564,9.009-5.464,7.666-12.84,18.381-20.912,30.267L968.11,484.4c-2.611,3.853-4.738,6.992-6.257,9.233l-1.726,2.494a6.1,6.1,0,0,1-.641.843,5.921,5.921,0,0,1,.522-.922q.608-.964,1.616-2.567l6.071-9.356c5.165-7.877,12.36-18.72,20.439-30.613s15.518-22.564,21.09-30.164c2.779-3.8,5.115-6.822,6.752-8.886l1.974-2.309A6.057,6.057,0,0,1,1018.674,411.382Z" transform="translate(-959.485 -411.381)" fill="#375a64"/>
            </g>
          </g>
        </g>
      </g>
      <g id="Grupo_54211" data-name="Grupo 54211" transform="translate(51.53 99.062)">
        <g id="Grupo_54189" data-name="Grupo 54189" transform="translate(110.042 3.298)">
          <g id="Grupo_54188" data-name="Grupo 54188">
            <path id="Trazado_103590" data-name="Trazado 103590" d="M1000.764,276.355c.113,0,.107-1.418.489-3.651a25.377,25.377,0,0,1,2.964-8.251c1.666-3.017,3.956-5.26,6.016-6.125a8.349,8.349,0,0,1,3.533-.563,2.019,2.019,0,0,0-.974-.266,6.02,6.02,0,0,0-2.741.378c-2.244.8-4.729,3.143-6.432,6.234a22.707,22.707,0,0,0-2.849,8.523A10.9,10.9,0,0,0,1000.764,276.355Z" transform="translate(-1000.633 -257.467)" fill="#1a2e35"/>
          </g>
        </g>
        <path id="Trazado_103591" data-name="Trazado 103591" d="M1025.6,258.019c-4.137-1.52-13.7-4.288-19.984-2.972l-29.648,4.6-5.283,4.573s-18.661,36.337-19,43.67c-.379,8.109,3.972,22.023,3.972,22.023l-4.269,32.1c-.631,3.686,1.764,7.225,3.373,7.225l51.218-6.868c6.68-1.312,9.42-4.8,9.008-8.667l-.763-7.154,21.876-73.262C1037.387,277.616,1035.363,261.608,1025.6,258.019Z" transform="translate(-900.107 -254.702)" fill="#db6e5f"/>
        <g id="Grupo_54191" data-name="Grupo 54191" transform="translate(0 7.356)">
          <g id="Grupo_54190" data-name="Grupo 54190">
            <path id="Trazado_103592" data-name="Trazado 103592" d="M981.685,260.869s-9.126,7.033-17.764,15.032-31.679,24-31.679,24l-1.586-33.468-17.382-2.353s-8.5,41.734-3.1,53.253,11.834,12.007,29.753,6.247,23.038-8.32,23.038-8.32Z" transform="translate(-908.378 -260.869)" fill="#db6e5f"/>
          </g>
        </g>
        <g id="Grupo_54193" data-name="Grupo 54193" transform="translate(51.215 12.323)">
          <g id="Grupo_54192" data-name="Grupo 54192">
            <path id="Trazado_103593" data-name="Trazado 103593" d="M968.825,265.034a2.379,2.379,0,0,0-.411.519c-.288.422-.638.936-1.064,1.559-.909,1.365-2.207,3.351-3.75,5.845a93.4,93.4,0,0,0-9.948,20.637c-2.722,8.6-2.827,17-1.534,22.755a31.1,31.1,0,0,0,2.147,6.626c.316.76.661,1.3.855,1.689a2.408,2.408,0,0,0,.351.561c.055-.029-.346-.845-.96-2.355a34.966,34.966,0,0,1-1.916-6.615c-1.152-5.7-.972-13.958,1.713-22.456s6.77-15.549,9.709-20.591l3.559-5.952.955-1.628A2.407,2.407,0,0,0,968.825,265.034Z" transform="translate(-951.315 -265.033)" fill="#1a2e35"/>
          </g>
        </g>
        <g id="Grupo_54195" data-name="Grupo 54195" transform="translate(110.171 3.317)">
          <g id="Grupo_54194" data-name="Grupo 54194">
            <path id="Trazado_103594" data-name="Trazado 103594" d="M1010.487,257.489s-9.231,12.09-9.736,23.182,16.563,77.594,16.563,77.594l14.967,60.706,18.63-6.873s-4.336-43.221-5.16-48.588c-1.718-11.181-9.089-32.976-10.1-45.579s-5.679-36.873-7.988-42.552S1025.271,257.173,1010.487,257.489Z" transform="translate(-1000.741 -257.483)" fill="#db6e5f"/>
          </g>
        </g>
        <g id="Grupo_54197" data-name="Grupo 54197" transform="translate(110.934 32.633)">
          <g id="Grupo_54196" data-name="Grupo 54196">
            <path id="Trazado_103595" data-name="Trazado 103595" d="M1001.393,282.06a2.317,2.317,0,0,0,.029.651c.058.5.13,1.114.216,1.851.22,1.6.583,3.917,1.095,6.764,1.018,5.7,2.644,13.518,4.586,22.125s3.845,16.369,5.295,21.967c.724,2.8,1.335,5.059,1.776,6.614.212.712.388,1.3.531,1.786a2.278,2.278,0,0,0,.231.611,2.4,2.4,0,0,0-.1-.645l-.405-1.818-1.564-6.664c-1.326-5.727-3.117-13.457-5.1-22-1.94-8.6-3.641-16.4-4.78-22.066-.537-2.755-.978-5.024-1.307-6.714-.137-.73-.251-1.332-.343-1.83A2.311,2.311,0,0,0,1001.393,282.06Z" transform="translate(-1001.38 -282.06)" fill="#1a2e35"/>
          </g>
        </g>
        <g id="Grupo_54199" data-name="Grupo 54199" transform="translate(100.352 28.347)" opacity="0.3">
          <g id="Grupo_54198" data-name="Grupo 54198">
            <path id="Trazado_103596" data-name="Trazado 103596" d="M1001.771,356.777c-2.938-2.947-3.555-7.423-4.015-11.559q-2.2-19.742-4.4-39.484c-.915-8.206-1.779-16.811,1.318-24.467.465-1.15,1.149-2.381,2.341-2.717a3.041,3.041,0,0,1,3.081,1.275c.713.941,2.711,2.3,3,3.441,2.988,11.734,4.286,23.288,7.275,35.022.79,3.1,1.819,2.982,1.134,6.108-.992,4.539-5.246,17.569-5.246,17.569s.607,4.731.788,7.5a7.17,7.17,0,0,1-5.284,7.315" transform="translate(-992.509 -278.467)" fill="#6e3730"/>
          </g>
        </g>
        <g id="Grupo_54201" data-name="Grupo 54201" transform="translate(112.363 35.576)">
          <g id="Grupo_54200" data-name="Grupo 54200">
            <path id="Trazado_103597" data-name="Trazado 103597" d="M1002.58,288.127a4.254,4.254,0,0,0,1.013.735,23.208,23.208,0,0,0,3.01,1.611,10.744,10.744,0,0,0,5.011,1.012,12.189,12.189,0,0,0,5.816-2.289,42.611,42.611,0,0,1,5.165-3.249,7.587,7.587,0,0,1,4.706-.768,5.32,5.32,0,0,1,2.875,1.443c.538.562.717.978.774.951a2.26,2.26,0,0,0-.574-1.128,5.254,5.254,0,0,0-2.976-1.743,7.876,7.876,0,0,0-5.067.668,38.206,38.206,0,0,0-5.278,3.249,11.974,11.974,0,0,1-5.488,2.234,10.743,10.743,0,0,1-4.778-.83C1004.165,288.958,1002.64,288.011,1002.58,288.127Z" transform="translate(-1002.579 -284.528)" fill="#fafafa"/>
          </g>
        </g>
        <g id="Grupo_54203" data-name="Grupo 54203" transform="translate(54.591 36.571)">
          <g id="Grupo_54202" data-name="Grupo 54202">
            <path id="Trazado_103598" data-name="Trazado 103598" d="M954.147,286.554c-.02.013.072.183.267.5a7.394,7.394,0,0,0,1.007,1.271,11.236,11.236,0,0,0,5.164,2.92,18.44,18.44,0,0,0,8.8.122,88.422,88.422,0,0,0,10.234-3.3,33.908,33.908,0,0,1,19.007-1.278,50.086,50.086,0,0,1,7.611,2.536c.012-.02-.151-.125-.471-.308s-.794-.45-1.434-.737a29.673,29.673,0,0,0-5.6-1.966,32.582,32.582,0,0,0-8.755-.94,33.879,33.879,0,0,0-10.585,2.041,96.419,96.419,0,0,1-10.147,3.328,18.4,18.4,0,0,1-8.544.027,11.532,11.532,0,0,1-5.1-2.641C954.605,287.188,954.209,286.511,954.147,286.554Z" transform="translate(-954.145 -285.362)" fill="#fafafa"/>
          </g>
        </g>
        <g id="Grupo_54205" data-name="Grupo 54205" transform="translate(43.519 31.88)">
          <g id="Grupo_54204" data-name="Grupo 54204">
            <path id="Trazado_103599" data-name="Trazado 103599" d="M945.046,281.429a7.107,7.107,0,0,0-.141,2.777,17.009,17.009,0,0,0,6.14,11.65,7.092,7.092,0,0,0,2.37,1.452,26.361,26.361,0,0,0-2.05-1.819,19.349,19.349,0,0,1-5.977-11.339A25.263,25.263,0,0,0,945.046,281.429Z" transform="translate(-944.863 -281.429)" fill="#fafafa"/>
          </g>
        </g>
        <g id="Grupo_54207" data-name="Grupo 54207" transform="translate(31.545 21.214)" opacity="0.3">
          <g id="Grupo_54206" data-name="Grupo 54206">
            <path id="Trazado_103600" data-name="Trazado 103600" d="M966.025,272.487c-14,14.057-26.042,29.689-31.2,48.85,8-2.621,15.561-5.162,20.559-7.242,0,0-1.5-7.9-.593-12.547,1.111-5.684,1.106-10.453,11.235-29.061" transform="translate(-934.824 -272.487)" fill="#6e3730"/>
          </g>
        </g>
        <g id="Grupo_54210" data-name="Grupo 54210" transform="translate(19.577 46.451)">
          <g id="Grupo_54209" data-name="Grupo 54209">
            <g id="Grupo_54208" data-name="Grupo 54208">
              <path id="Trazado_103601" data-name="Trazado 103601" d="M929.337,293.656c.148.155-1.584,1.77-2.8,4.345-1.249,2.559-1.425,4.92-1.639,4.9-.174.025-.314-2.488,1.005-5.205C927.2,294.968,929.246,293.5,929.337,293.656Z" transform="translate(-924.791 -293.645)" fill="#1a2e35"/>
            </g>
          </g>
        </g>
      </g>
    </g>
    <g id="Grupo_54253" data-name="Grupo 54253" transform="translate(1084.744 246.998)">
      <g id="Grupo_54252" data-name="Grupo 54252" transform="translate(0 0)">
        <g id="Grupo_54219" data-name="Grupo 54219" transform="translate(3.05)">
          <g id="Grupo_54218" data-name="Grupo 54218" transform="translate(0)">
            <g id="Grupo_54214" data-name="Grupo 54214" transform="translate(0)">
              <g id="Grupo_54213" data-name="Grupo 54213">
                <circle id="Elipse_4096" data-name="Elipse 4096" cx="37.738" cy="37.738" r="37.738" transform="translate(0 9.172) rotate(-6.98)" fill="#fff"/>
              </g>
            </g>
            <g id="Grupo_54217" data-name="Grupo 54217" transform="translate(4.082 4.158)">
              <g id="Grupo_54216" data-name="Grupo 54216">
                <g id="Grupo_54215" data-name="Grupo 54215">
                  <path id="Trazado_103602" data-name="Trazado 103602" d="M1127.173,276.192s-.072-.828-.166-2.4a18.45,18.45,0,0,0-.316-2.9,27.318,27.318,0,0,0-.782-3.894,35.958,35.958,0,0,0-4.177-10.015,37.514,37.514,0,0,0-45.081-16.042,35.231,35.231,0,0,0-9.5,5.106,34.3,34.3,0,0,0-7.933,7.967,37.334,37.334,0,0,0,0,44.35,34.355,34.355,0,0,0,7.934,7.969,35.244,35.244,0,0,0,9.5,5.108,37.6,37.6,0,0,0,45.082-16.044,35.963,35.963,0,0,0,4.176-10.014,27.351,27.351,0,0,0,.782-3.894,18.45,18.45,0,0,0,.316-2.9c.094-1.573.166-2.4.166-2.4s-.011.828-.076,2.407a17.816,17.816,0,0,1-.273,2.908,26.909,26.909,0,0,1-.746,3.92,35.845,35.845,0,0,1-4.13,10.1,37.779,37.779,0,0,1-45.44,16.3,35.633,35.633,0,0,1-9.61-5.152,34.719,34.719,0,0,1-8.034-8.053,37.735,37.735,0,0,1,0-44.872,34.679,34.679,0,0,1,8.032-8.05,35.594,35.594,0,0,1,9.609-5.151,38,38,0,0,1,19.925-1.614,37.911,37.911,0,0,1,25.514,17.916,35.8,35.8,0,0,1,4.13,10.1,27.045,27.045,0,0,1,.746,3.92,17.816,17.816,0,0,1,.273,2.908C1127.162,275.363,1127.173,276.192,1127.173,276.192Z" transform="translate(-1051.472 -238.305)" fill="#1a2e35"/>
                </g>
              </g>
            </g>
          </g>
        </g>
        <g id="Grupo_54226" data-name="Grupo 54226" transform="translate(19.987 17.344)">
          <g id="Grupo_54225" data-name="Grupo 54225">
            <g id="Grupo_54221" data-name="Grupo 54221" transform="translate(0.456 0.049)">
              <g id="Grupo_54220" data-name="Grupo 54220">
                <path id="Trazado_103603" data-name="Trazado 103603" d="M1087.284,249.4a24.652,24.652,0,1,0,24.652,24.652A24.679,24.679,0,0,0,1087.284,249.4Z" transform="translate(-1062.632 -249.401)" fill="none"/>
              </g>
            </g>
            <g id="Grupo_54224" data-name="Grupo 54224">
              <g id="Grupo_54223" data-name="Grupo 54223">
                <g id="Grupo_54222" data-name="Grupo 54222">
                  <path id="Trazado_103604" data-name="Trazado 103604" d="M1087.357,249.409a19.226,19.226,0,0,1,6.07.562,24.9,24.9,0,0,1,18.6,19.456,25.052,25.052,0,0,1-1.037,13.2,25.185,25.185,0,0,1-8.745,11.716,24.968,24.968,0,0,1-29.778,0,25.195,25.195,0,0,1-8.747-11.718,25.053,25.053,0,0,1-1.035-13.205,24.892,24.892,0,0,1,18.6-19.456,19.242,19.242,0,0,1,6.07-.561,48.73,48.73,0,0,0-5.963.985,24.616,24.616,0,0,0-13.308,9,24.128,24.128,0,0,0-3.392,22.886,24.249,24.249,0,0,0,8.426,11.185,23.963,23.963,0,0,0,28.476,0,24.253,24.253,0,0,0,8.424-11.184,24.124,24.124,0,0,0-3.391-22.885,24.613,24.613,0,0,0-13.307-9A48.815,48.815,0,0,0,1087.357,249.409Z" transform="translate(-1062.249 -249.36)" fill="#ff735d"/>
                </g>
              </g>
            </g>
          </g>
        </g>
        <g id="Grupo_54233" data-name="Grupo 54233" transform="translate(36.789 34.126)">
          <g id="Grupo_54232" data-name="Grupo 54232">
            <g id="Grupo_54228" data-name="Grupo 54228" transform="translate(0.48 0.093)">
              <g id="Grupo_54227" data-name="Grupo 54227">
                <path id="Trazado_103605" data-name="Trazado 103605" d="M1084.564,263.507a7.825,7.825,0,1,0,7.825,7.826A7.835,7.835,0,0,0,1084.564,263.507Z" transform="translate(-1076.738 -263.507)" fill="none"/>
              </g>
            </g>
            <g id="Grupo_54231" data-name="Grupo 54231">
              <g id="Grupo_54230" data-name="Grupo 54230">
                <g id="Grupo_54229" data-name="Grupo 54229">
                  <path id="Trazado_103606" data-name="Trazado 103606" d="M1084.641,263.522a3.833,3.833,0,0,1,1.963.035,7.8,7.8,0,0,1,4.57,2.819,8.175,8.175,0,0,1,1.3,7.814,8.307,8.307,0,0,1-15.669,0,8.174,8.174,0,0,1,1.3-7.815,7.8,7.8,0,0,1,4.57-2.817,3.833,3.833,0,0,1,1.963-.035c0,.1-.7.11-1.857.458a7.831,7.831,0,0,0-4.045,2.876,7.342,7.342,0,1,0,11.8,0,7.827,7.827,0,0,0-4.046-2.876C1085.337,263.632,1084.638,263.625,1084.641,263.522Z" transform="translate(-1076.336 -263.429)" fill="#ff735d"/>
                </g>
              </g>
            </g>
          </g>
        </g>
        <g id="Grupo_54239" data-name="Grupo 54239" transform="translate(4.883 42.045)">
          <g id="Grupo_54235" data-name="Grupo 54235" transform="translate(0.003 0)">
            <g id="Grupo_54234" data-name="Grupo 54234">
              <path id="Trazado_103607" data-name="Trazado 103607" d="M1049.589,297.263c13.037-9.092,27.172-18.1,40.209-27.195" transform="translate(-1049.589 -270.068)" fill="#f5f5f5"/>
            </g>
          </g>
          <g id="Grupo_54238" data-name="Grupo 54238">
            <g id="Grupo_54237" data-name="Grupo 54237">
              <g id="Grupo_54236" data-name="Grupo 54236">
                <path id="Trazado_103608" data-name="Trazado 103608" d="M1089.8,270.069c.07.1-8.876,6.275-19.977,13.783s-20.162,13.516-20.231,13.413,8.874-6.273,19.979-13.784S1089.726,269.967,1089.8,270.069Z" transform="translate(-1049.587 -270.068)" fill="#1a2e35"/>
              </g>
            </g>
          </g>
        </g>
        <g id="Grupo_54242" data-name="Grupo 54242" transform="translate(0 66.16)">
          <g id="Grupo_54241" data-name="Grupo 54241">
            <g id="Grupo_54240" data-name="Grupo 54240">
              <path id="Trazado_103609" data-name="Trazado 103609" d="M1054.8,290.736a48.462,48.462,0,0,1-9.31-.339,48.462,48.462,0,0,1,9.31.339Z" transform="translate(-1045.493 -290.285)" fill="#1a2e35"/>
            </g>
          </g>
        </g>
        <g id="Grupo_54245" data-name="Grupo 54245" transform="translate(7.693 66.445)">
          <g id="Grupo_54244" data-name="Grupo 54244">
            <g id="Grupo_54243" data-name="Grupo 54243">
              <path id="Trazado_103610" data-name="Trazado 103610" d="M1051.978,296.813a23.109,23.109,0,0,1,1.356-6.288,23.192,23.192,0,0,1-1.356,6.288Z" transform="translate(-1051.943 -290.524)" fill="#1a2e35"/>
            </g>
          </g>
        </g>
        <g id="Grupo_54248" data-name="Grupo 54248" transform="translate(9.968 65.433)">
          <g id="Grupo_54247" data-name="Grupo 54247">
            <g id="Grupo_54246" data-name="Grupo 54246">
              <path id="Trazado_103611" data-name="Trazado 103611" d="M1053.89,296.258a25.116,25.116,0,0,1,1.184-6.582,25,25,0,0,1-1.184,6.582Z" transform="translate(-1053.85 -289.676)" fill="#1a2e35"/>
            </g>
          </g>
        </g>
        <g id="Grupo_54251" data-name="Grupo 54251" transform="translate(4.654 63.895)">
          <g id="Grupo_54250" data-name="Grupo 54250">
            <g id="Grupo_54249" data-name="Grupo 54249">
              <path id="Trazado_103612" data-name="Trazado 103612" d="M1049.4,288.417a23.963,23.963,0,0,1,6.376,1.5,23.954,23.954,0,0,1-6.376-1.5Z" transform="translate(-1049.395 -288.386)" fill="#1a2e35"/>
            </g>
          </g>
        </g>
      </g>
    </g>
    <g id="Grupo_54268" data-name="Grupo 54268" transform="translate(1111.206 428.807)">
      <g id="Grupo_54257" data-name="Grupo 54257" transform="translate(7.985 14.884)">
        <g id="Grupo_54256" data-name="Grupo 54256">
          <g id="Grupo_54255" data-name="Grupo 54255">
            <g id="Grupo_54254" data-name="Grupo 54254">
              <path id="Trazado_103613" data-name="Trazado 103613" d="M1096.272,404.051a1.083,1.083,0,0,1,.115.335,5.289,5.289,0,0,1,.135,1.02,7.766,7.766,0,0,1-.922,3.763,19.641,19.641,0,0,1-3.737,4.679l-5.31,5.55-.168.175-.194-.156-5.7-4.576c-1.969-1.6-4.283-3.3-5.479-5.981a6.234,6.234,0,0,1-.124-5.234,6.072,6.072,0,0,1,3.825-3.228,5.514,5.514,0,0,1,4.621.852,5.864,5.864,0,0,1,2.422,3.611l-.5.027a5.918,5.918,0,0,1,3.867-4.868,5.385,5.385,0,0,1,4.772.63,5.58,5.58,0,0,1,2.059,2.344,3.876,3.876,0,0,1,.272.776.821.821,0,0,1,.044.279c-.04.011-.123-.365-.452-.988a5.715,5.715,0,0,0-2.078-2.164,5.094,5.094,0,0,0-4.475-.49,5.493,5.493,0,0,0-3.5,4.524l-.159,1.706-.342-1.678a5.36,5.36,0,0,0-2.238-3.256,4.955,4.955,0,0,0-4.153-.743,5.5,5.5,0,0,0-3.437,2.921,5.653,5.653,0,0,0,.136,4.733c1.1,2.482,3.318,4.156,5.294,5.766l5.667,4.613-.363.02,5.377-5.483a20.1,20.1,0,0,0,3.768-4.512,8,8,0,0,0,1.038-3.612C1096.366,404.526,1096.23,404.06,1096.272,404.051Z" transform="translate(-1074.371 -399.719)" fill="#ff735d"/>
            </g>
          </g>
        </g>
      </g>
      <g id="Grupo_54262" data-name="Grupo 54262">
        <g id="Grupo_54261" data-name="Grupo 54261">
          <g id="Grupo_54260" data-name="Grupo 54260">
            <g id="Grupo_54259" data-name="Grupo 54259">
              <g id="Grupo_54258" data-name="Grupo 54258">
                <path id="Trazado_103614" data-name="Trazado 103614" d="M1067.678,391.27s.029.254.06.729q.047.742.129,2.092c.106,1.852.26,4.54.457,7.986.375,6.918.914,16.877,1.579,29.145l-.235-.212,25.657-1.329.269-.014.014.268c.2,3.852.408,7.966.624,12.2l-.491-.175,11.574-12.815.082-.091.123-.006,28.126-1.417,8.629-.431-.287.318c-.7-14.126-1.364-27.582-1.978-39.965l.293.265-53.683,2.55c-6.578.3-11.794.533-15.393.7l-4.109.172-1.066.037a3.467,3.467,0,0,1-.372,0,2.494,2.494,0,0,1,.339-.033l1.033-.068,4.05-.237,15.323-.842,53.853-2.834.279-.014.014.28c.627,12.381,1.308,25.836,2.024,39.961l.016.3-.3.016-8.63.433-28.126,1.4.205-.1-11.6,12.8-.459.506-.033-.682c-.206-4.23-.408-8.345-.6-12.2l.283.255-25.662,1.239-.225.011-.01-.223c-.567-12.33-1.027-22.34-1.347-29.294-.148-3.427-.262-6.1-.341-7.942q-.052-1.326-.079-2.054C1067.673,391.495,1067.678,391.27,1067.678,391.27Z" transform="translate(-1067.677 -387.241)" fill="#ff735d"/>
              </g>
            </g>
          </g>
        </g>
      </g>
      <g id="Grupo_54267" data-name="Grupo 54267" transform="translate(35.062 15.261)">
        <g id="Grupo_54263" data-name="Grupo 54263" transform="translate(0 3.772)">
          <path id="Trazado_103615" data-name="Trazado 103615" d="M1104.145,406.831l-3.146.158.153,3.063-.746.037-.152-3.063-3.147.157-.036-.711,3.147-.159-.155-3.08.745-.037.155,3.08,3.147-.157Z" transform="translate(-1097.072 -403.197)" fill="#1a2e35"/>
        </g>
        <g id="Grupo_54264" data-name="Grupo 54264" transform="translate(7.846 1.008)">
          <path id="Trazado_103616" data-name="Trazado 103616" d="M1107.326,400.88l.581,11.593-.845.042-.542-10.831-2.832.142-.039-.762Z" transform="translate(-1103.65 -400.88)" fill="#1a2e35"/>
        </g>
        <g id="Grupo_54265" data-name="Grupo 54265" transform="translate(14.735 0.545)">
          <path id="Trazado_103617" data-name="Trazado 103617" d="M1109.438,406.6c-.182-3.626,1.577-5.972,4.243-6.106s4.651,2.027,4.832,5.653-1.577,5.971-4.244,6.106S1109.619,410.231,1109.438,406.6Zm8.23-.411c-.162-3.23-1.763-5.025-3.949-4.916s-3.6,2.055-3.436,5.285,1.762,5.024,3.948,4.914S1117.831,409.421,1117.668,406.192Z" transform="translate(-1109.425 -400.492)" fill="#1a2e35"/>
        </g>
        <g id="Grupo_54266" data-name="Grupo 54266" transform="translate(25.636)">
          <path id="Trazado_103618" data-name="Trazado 103618" d="M1118.577,406.147c-.18-3.626,1.577-5.972,4.244-6.106s4.649,2.025,4.832,5.651-1.578,5.972-4.244,6.106S1118.76,409.773,1118.577,406.147Zm8.232-.413c-.162-3.23-1.763-5.025-3.949-4.916s-3.6,2.055-3.438,5.285,1.763,5.024,3.949,4.916S1126.969,408.963,1126.808,405.734Z" transform="translate(-1118.564 -400.035)" fill="#1a2e35"/>
        </g>
      </g>
    </g>
    <g id="Grupo_54287" data-name="Grupo 54287" transform="translate(1123.83 344.472)">
      <g id="Grupo_54283" data-name="Grupo 54283" transform="translate(0 4.51)">
        <g id="Grupo_54270" data-name="Grupo 54270" transform="translate(63.458 3.428)">
          <g id="Grupo_54269" data-name="Grupo 54269">
            <rect id="Rectángulo_5162" data-name="Rectángulo 5162" width="11.368" height="45.256" fill="#ff735d"/>
          </g>
        </g>
        <g id="Grupo_54272" data-name="Grupo 54272" transform="translate(44.768)">
          <g id="Grupo_54271" data-name="Grupo 54271">
            <rect id="Rectángulo_5163" data-name="Rectángulo 5163" width="11.368" height="48.684" fill="#ff735d"/>
          </g>
        </g>
        <g id="Grupo_54274" data-name="Grupo 54274" transform="translate(26.645 6.028)">
          <g id="Grupo_54273" data-name="Grupo 54273">
            <rect id="Rectángulo_5164" data-name="Rectángulo 5164" width="11.368" height="42.656" fill="#ff735d"/>
          </g>
        </g>
        <g id="Grupo_54276" data-name="Grupo 54276" transform="translate(8.245 12.689)">
          <g id="Grupo_54275" data-name="Grupo 54275">
            <rect id="Rectángulo_5165" data-name="Rectángulo 5165" width="11.368" height="35.995" fill="#ff735d"/>
          </g>
        </g>
        <g id="Grupo_54279" data-name="Grupo 54279" transform="translate(0 48.411)">
          <g id="Grupo_54278" data-name="Grupo 54278">
            <g id="Grupo_54277" data-name="Grupo 54277">
              <path id="Trazado_103619" data-name="Trazado 103619" d="M1161.707,361.342c0,.241-18.682.436-41.722.436s-41.724-.2-41.724-.436,18.677-.437,41.724-.437S1161.707,361.1,1161.707,361.342Z" transform="translate(-1078.261 -360.905)" fill="#1a2e35"/>
            </g>
          </g>
        </g>
        <g id="Grupo_54282" data-name="Grupo 54282" transform="translate(5.897 5.877)">
          <g id="Grupo_54281" data-name="Grupo 54281">
            <g id="Grupo_54280" data-name="Grupo 54280">
              <path id="Trazado_103620" data-name="Trazado 103620" d="M1156.009,325.6c-.009.088-1.3-.135-3.637-.008a21.576,21.576,0,0,0-9.343,2.813,20.1,20.1,0,0,0-5.2,4.279c-1.62,1.829-3.068,4.034-4.8,6.241a18.094,18.094,0,0,1-6.743,5.7,24.379,24.379,0,0,1-9.3,1.827c-3.234.115-6.366-.044-9.364.092a43.045,43.045,0,0,0-8.545,1.163c-5.344,1.31-9.689,4.107-12.144,7.459a16,16,0,0,0-3.392,9.034,24.628,24.628,0,0,0,.344,3.6,9.6,9.6,0,0,1-.683-3.6,15.89,15.89,0,0,1,3.237-9.4,18.727,18.727,0,0,1,5.093-4.744,25.9,25.9,0,0,1,7.344-3.124,43.1,43.1,0,0,1,8.709-1.238c3.05-.149,6.188,0,9.37-.11a23.776,23.776,0,0,0,8.973-1.734,17.424,17.424,0,0,0,6.467-5.421c1.718-2.153,3.2-4.363,4.887-6.222a20.4,20.4,0,0,1,5.439-4.335,20.98,20.98,0,0,1,9.632-2.615,18.428,18.428,0,0,1,2.721.155A3.876,3.876,0,0,1,1156.009,325.6Z" transform="translate(-1083.205 -325.246)" fill="#1a2e35"/>
            </g>
          </g>
        </g>
      </g>
      <g id="Grupo_54286" data-name="Grupo 54286" transform="translate(1.066 0)">
        <g id="Grupo_54285" data-name="Grupo 54285">
          <g id="Grupo_54284" data-name="Grupo 54284">
            <path id="Trazado_103621" data-name="Trazado 103621" d="M1079.591,316.538c.241,0,.437,12.142.437,27.115s-.2,27.117-.437,27.117-.437-12.139-.437-27.117S1079.35,316.538,1079.591,316.538Z" transform="translate(-1079.155 -316.538)" fill="#1a2e35"/>
          </g>
        </g>
      </g>
    </g>
    <g id="Grupo_54300" data-name="Grupo 54300" transform="translate(1130.268 508.974)">
      <g id="Grupo_54289" data-name="Grupo 54289" transform="translate(0 7.247)">
        <g id="Grupo_54288" data-name="Grupo 54288">
          <path id="Trazado_103622" data-name="Trazado 103622" d="M1100.272,472.26a8.6,8.6,0,1,1-4.88-11.142A8.6,8.6,0,0,1,1100.272,472.26Z" transform="translate(-1083.659 -460.526)" fill="#ff735d"/>
        </g>
      </g>
      <g id="Grupo_54291" data-name="Grupo 54291" transform="translate(28.706)">
        <g id="Grupo_54290" data-name="Grupo 54290">
          <path id="Trazado_103623" data-name="Trazado 103623" d="M1124.338,466.184a8.6,8.6,0,1,1-4.878-11.141A8.6,8.6,0,0,1,1124.338,466.184Z" transform="translate(-1107.725 -454.45)" fill="#ff735d"/>
        </g>
      </g>
      <g id="Grupo_54293" data-name="Grupo 54293" transform="translate(15.329 33.293)">
        <g id="Grupo_54292" data-name="Grupo 54292">
          <path id="Trazado_103624" data-name="Trazado 103624" d="M1113.227,494.757c-1.881,4.814-6.993,7.313-11.418,5.585s-6.485-7.034-4.6-11.847,6.993-7.314,11.418-5.585S1115.109,489.944,1113.227,494.757Z" transform="translate(-1096.51 -482.362)" fill="#ff735d"/>
        </g>
      </g>
      <g id="Grupo_54296" data-name="Grupo 54296" transform="translate(5.487 16.402)">
        <g id="Grupo_54295" data-name="Grupo 54295">
          <g id="Grupo_54294" data-name="Grupo 54294">
            <path id="Trazado_103625" data-name="Trazado 103625" d="M1104.847,492.4c-.539.37-4.678-4.745-9.242-11.421s-7.828-12.391-7.288-12.759,4.677,4.744,9.243,11.423S1105.388,492.032,1104.847,492.4Z" transform="translate(-1088.259 -468.201)" fill="#ff735d"/>
          </g>
        </g>
      </g>
      <g id="Grupo_54299" data-name="Grupo 54299" transform="translate(10.137 7.216)">
        <g id="Grupo_54298" data-name="Grupo 54298">
          <g id="Grupo_54297" data-name="Grupo 54297">
            <path id="Trazado_103626" data-name="Trazado 103626" d="M1117.872,460.668c.184.627-5.424,2.823-12.522,4.9s-13.005,3.26-13.189,2.632,5.421-2.823,12.523-4.9S1117.689,460.041,1117.872,460.668Z" transform="translate(-1092.157 -460.5)" fill="#ff735d"/>
          </g>
        </g>
      </g>
    </g>
    <g id="Grupo_54336" data-name="Grupo 54336" transform="translate(1112.072 581.81)">
      <g id="Grupo_54305" data-name="Grupo 54305">
        <g id="Grupo_54304" data-name="Grupo 54304">
          <g id="Grupo_54303" data-name="Grupo 54303">
            <g id="Grupo_54302" data-name="Grupo 54302">
              <g id="Grupo_54301" data-name="Grupo 54301">
                <path id="Trazado_103627" data-name="Trazado 103627" d="M1112.546,538.317a6.217,6.217,0,0,1-.156-1.385,11.437,11.437,0,0,0-.186-1.663,16.334,16.334,0,0,0-.437-2.234,20.928,20.928,0,0,0-2.32-5.747,21.523,21.523,0,0,0-5.344-6.155,21.291,21.291,0,0,0-20.072-3.449,19.922,19.922,0,0,0-5.428,2.77,19.375,19.375,0,0,0-4.583,4.4,21.122,21.122,0,0,0-.61,25.04,24.306,24.306,0,0,0,2.012,2.511,23.946,23.946,0,0,0,2.352,2.106,19.92,19.92,0,0,0,5.289,3.031,21.457,21.457,0,0,0,25.853-8.362,20.934,20.934,0,0,0,2.6-5.628,16.246,16.246,0,0,0,.545-2.209,11.4,11.4,0,0,0,.265-1.652,6.264,6.264,0,0,1,.224-1.374,6,6,0,0,1,.017,1.4,9.7,9.7,0,0,1-.155,1.689,15.235,15.235,0,0,1-.446,2.276,20.5,20.5,0,0,1-2.479,5.859,22.078,22.078,0,0,1-15.128,10.224,22.261,22.261,0,0,1-11.692-1.192,20.917,20.917,0,0,1-5.591-3.155,20.435,20.435,0,0,1-4.623-4.849,22.2,22.2,0,0,1,.643-26.43,20.457,20.457,0,0,1,4.852-4.616,20.939,20.939,0,0,1,5.736-2.881,22.267,22.267,0,0,1,11.735-.623,22.072,22.072,0,0,1,14.615,10.945,20.483,20.483,0,0,1,2.191,5.972,15.225,15.225,0,0,1,.336,2.3,9.8,9.8,0,0,1,.073,1.694A6.062,6.062,0,0,1,1112.546,538.317Z" transform="translate(-1068.404 -515.513)" fill="#ff735d"/>
              </g>
            </g>
          </g>
        </g>
      </g>
      <g id="Grupo_54310" data-name="Grupo 54310" transform="translate(5.607 8.359)">
        <g id="Grupo_54309" data-name="Grupo 54309">
          <g id="Grupo_54308" data-name="Grupo 54308">
            <g id="Grupo_54307" data-name="Grupo 54307">
              <g id="Grupo_54306" data-name="Grupo 54306">
                <path id="Trazado_103628" data-name="Trazado 103628" d="M1107.284,523.361c.048.067-.345.409-1.1.972-.415.3-.88.633-1.4,1.007-.278.19-.569.4-.892.607l-1.072.561a24.575,24.575,0,0,1-12.8,3.224l-1.937-.086-1.861-.291c-.3-.051-.607-.092-.9-.152l-.868-.231c-.572-.159-1.137-.294-1.675-.465a28.116,28.116,0,0,1-5.431-2.5c-2.919-1.765-4.339-3.37-4.229-3.473.118-.135,1.7,1.21,4.644,2.735a32.661,32.661,0,0,0,5.346,2.188c.521.151,1.067.266,1.615.407l.835.208.866.131,1.777.261,1.846.074a26.508,26.508,0,0,0,12.4-2.783l1.084-.471c.33-.173.631-.358.92-.518l1.486-.82C1106.752,523.506,1107.236,523.294,1107.284,523.361Z" transform="translate(-1073.104 -522.521)" fill="#ff735d"/>
              </g>
            </g>
          </g>
        </g>
      </g>
      <g id="Grupo_54315" data-name="Grupo 54315" transform="translate(4.945 29.292)">
        <g id="Grupo_54314" data-name="Grupo 54314">
          <g id="Grupo_54313" data-name="Grupo 54313">
            <g id="Grupo_54312" data-name="Grupo 54312">
              <g id="Grupo_54311" data-name="Grupo 54311">
                <path id="Trazado_103629" data-name="Trazado 103629" d="M1072.554,546.453c-.048-.067.345-.408,1.1-.972l1.4-1.006c.278-.191.569-.406.892-.608l1.072-.561a24.576,24.576,0,0,1,12.8-3.223l1.937.086,1.861.291c.3.051.607.092.9.151l.868.232c.572.159,1.137.292,1.675.465a28.039,28.039,0,0,1,5.431,2.5c2.919,1.764,4.34,3.37,4.229,3.472-.117.135-1.7-1.208-4.642-2.735a32.92,32.92,0,0,0-5.347-2.188c-.521-.151-1.067-.266-1.615-.407l-.835-.208-.866-.13-1.777-.261-1.846-.075a26.494,26.494,0,0,0-12.4,2.784l-1.084.471c-.33.172-.631.358-.92.516l-1.486.819C1073.086,546.308,1072.6,546.521,1072.554,546.453Z" transform="translate(-1072.55 -540.07)" fill="#ff735d"/>
              </g>
            </g>
          </g>
        </g>
      </g>
      <g id="Grupo_54320" data-name="Grupo 54320" transform="translate(0.589 21.982)">
        <g id="Grupo_54319" data-name="Grupo 54319">
          <g id="Grupo_54318" data-name="Grupo 54318">
            <g id="Grupo_54317" data-name="Grupo 54317">
              <g id="Grupo_54316" data-name="Grupo 54316">
                <path id="Trazado_103630" data-name="Trazado 103630" d="M1112.439,535.27c-.008.33-9.763.361-21.784.069s-21.766-.8-21.758-1.127,9.761-.362,21.787-.069S1112.447,534.939,1112.439,535.27Z" transform="translate(-1068.897 -533.942)" fill="#ff735d"/>
              </g>
            </g>
          </g>
        </g>
      </g>
      <g id="Grupo_54325" data-name="Grupo 54325" transform="translate(21.086 0.499)">
        <g id="Grupo_54324" data-name="Grupo 54324">
          <g id="Grupo_54323" data-name="Grupo 54323">
            <g id="Grupo_54322" data-name="Grupo 54322">
              <g id="Grupo_54321" data-name="Grupo 54321">
                <path id="Trazado_103631" data-name="Trazado 103631" d="M1086.351,559.457c-.33-.007-.361-9.758-.069-21.777s.8-21.758,1.127-21.75.361,9.757.069,21.779S1086.681,559.466,1086.351,559.457Z" transform="translate(-1086.081 -515.931)" fill="#ff735d"/>
              </g>
            </g>
          </g>
        </g>
      </g>
      <g id="Grupo_54330" data-name="Grupo 54330" transform="translate(10.525 0.486)">
        <g id="Grupo_54329" data-name="Grupo 54329">
          <g id="Grupo_54328" data-name="Grupo 54328">
            <g id="Grupo_54327" data-name="Grupo 54327">
              <g id="Grupo_54326" data-name="Grupo 54326">
                <path id="Trazado_103632" data-name="Trazado 103632" d="M1088.059,559.427c-.082.126-2.481-1.5-5.25-5.183a29.3,29.3,0,0,1-3.892-7.066,26.244,26.244,0,0,1-1.684-9.756,24.98,24.98,0,0,1,2.2-9.659,30.282,30.282,0,0,1,4.254-6.848c2.932-3.544,5.351-5.115,5.432-4.988.117.136-2.073,1.918-4.765,5.51a32.6,32.6,0,0,0-3.908,6.766,25.111,25.111,0,0,0-2.013,9.243,26.514,26.514,0,0,0,1.524,9.354,31.414,31.414,0,0,0,3.546,6.956C1086.02,557.466,1088.18,559.3,1088.059,559.427Z" transform="translate(-1077.227 -515.92)" fill="#ff735d"/>
              </g>
            </g>
          </g>
        </g>
      </g>
      <g id="Grupo_54335" data-name="Grupo 54335" transform="translate(21.84 0.498)">
        <g id="Grupo_54334" data-name="Grupo 54334">
          <g id="Grupo_54333" data-name="Grupo 54333">
            <g id="Grupo_54332" data-name="Grupo 54332">
              <g id="Grupo_54331" data-name="Grupo 54331">
                <path id="Trazado_103633" data-name="Trazado 103633" d="M1087.774,515.937c.081-.126,2.481,1.5,5.25,5.183a29.285,29.285,0,0,1,3.891,7.066,26.244,26.244,0,0,1,1.685,9.756,24.971,24.971,0,0,1-2.2,9.658,30.264,30.264,0,0,1-4.252,6.849c-2.933,3.544-5.351,5.115-5.432,4.988-.118-.136,2.073-1.918,4.765-5.51a32.582,32.582,0,0,0,3.907-6.766,25.067,25.067,0,0,0,2.013-9.243,26.5,26.5,0,0,0-1.523-9.355,31.426,31.426,0,0,0-3.546-6.955C1089.813,517.9,1087.653,516.068,1087.774,515.937Z" transform="translate(-1086.713 -515.93)" fill="#ff735d"/>
              </g>
            </g>
          </g>
        </g>
      </g>
    </g>
    <g id="Grupo_54341" data-name="Grupo 54341" transform="translate(875.293 437.114)">
      <g id="Grupo_54338" data-name="Grupo 54338" transform="translate(0 0)">
        <g id="Grupo_54337" data-name="Grupo 54337">
          <path id="Trazado_103634" data-name="Trazado 103634" d="M904.117,462.646h0a34.22,34.22,0,0,1-34.22-34.22h0a34.22,34.22,0,0,1,34.22-34.22h0a34.22,34.22,0,0,1,34.219,34.22h0A34.22,34.22,0,0,1,904.117,462.646Z" transform="translate(-869.897 -394.205)" fill="#98d7f4"/>
        </g>
      </g>
      <g id="Grupo_54340" data-name="Grupo 54340" transform="translate(12.405 12.405)">
        <g id="Grupo_54339" data-name="Grupo 54339">
          <path id="Trazado_103635" data-name="Trazado 103635" d="M902.111,404.6a21.815,21.815,0,1,0,21.815,21.816A21.816,21.816,0,0,0,902.111,404.6Zm0,3.794a17.915,17.915,0,0,1,10.987,3.768,22.054,22.054,0,0,1-9.065,6.688,83.791,83.791,0,0,0-6.34-9.884A17.869,17.869,0,0,1,902.111,408.4Zm-8.129,1.96a81.132,81.132,0,0,1,6.429,9.783,57.805,57.805,0,0,1-15.788,2.01A18.075,18.075,0,0,1,893.982,410.359Zm-9.891,16.06c0-.155.021-.308.024-.463a60.976,60.976,0,0,0,18.086-2.4q.635,1.294,1.218,2.6a28.072,28.072,0,0,0-15.155,11.779A17.932,17.932,0,0,1,884.091,426.419Zm18.02,18.022a17.909,17.909,0,0,1-11.058-3.822c3.578-5.616,8.15-9.271,13.811-10.957a71.313,71.313,0,0,1,3.716,13.561A17.917,17.917,0,0,1,902.111,444.441Zm10-3.042a74.834,74.834,0,0,0-3.489-12.538,36.268,36.268,0,0,1,11.268.358A18.026,18.026,0,0,1,912.114,441.4Zm-4.944-16.128c-.442-1.023-.9-2.044-1.394-3.054a25.79,25.79,0,0,0,10.088-7.42,17.952,17.952,0,0,1,4.219,10.608A38.945,38.945,0,0,0,907.17,425.271Z" transform="translate(-880.297 -404.605)" fill="#53bced"/>
        </g>
      </g>
    </g>
    <g id="Grupo_54355" data-name="Grupo 54355" transform="translate(881.65 351.485)">
      <g id="Grupo_54354" data-name="Grupo 54354" transform="translate(0 0)">
        <g id="Grupo_54347" data-name="Grupo 54347">
          <g id="Grupo_54346" data-name="Grupo 54346">
            <g id="Grupo_54345" data-name="Grupo 54345">
              <g id="Grupo_54344" data-name="Grupo 54344">
                <g id="Grupo_54343" data-name="Grupo 54343">
                  <g id="Grupo_54342" data-name="Grupo 54342">
                    <path id="Trazado_103636" data-name="Trazado 103636" d="M908.224,335.562l-3.991,2.186-15.361-7.364-4.365-7.967s-6.377,3,.064,13.035,4.2,7.807,4.2,7.807-13.071,7.228-13.535,8.963c-.339,1.261,6.433,14.467,10.163,21.6,1.877,3.59,5.866,5.7,9.629,4.728a6.443,6.443,0,0,0,1.514-.582c3.267-1.79,18.5-13.593,18.5-13.593l6.894-3.778Z" transform="translate(-875.227 -322.417)" fill="#98d7f4"/>
                  </g>
                </g>
              </g>
            </g>
          </g>
        </g>
        <g id="Grupo_54353" data-name="Grupo 54353" transform="translate(34.235 4.697)">
          <g id="Grupo_54352" data-name="Grupo 54352">
            <g id="Grupo_54351" data-name="Grupo 54351">
              <g id="Grupo_54350" data-name="Grupo 54350">
                <g id="Grupo_54349" data-name="Grupo 54349">
                  <g id="Grupo_54348" data-name="Grupo 54348">
                    <path id="Trazado_103637" data-name="Trazado 103637" d="M912.916,326.354,925.419,355l-6.835,3.745-14.657-26.746Z" transform="translate(-903.928 -326.354)" fill="#98d7f4"/>
                  </g>
                </g>
              </g>
            </g>
          </g>
        </g>
      </g>
    </g>
  </g>
</svg>
