<svg xmlns="http://www.w3.org/2000/svg" width="154.683" height="154.681" viewBox="0 0 154.683 154.681">
  <g id="Grupo_61394" data-name="Grupo 61394" transform="translate(-686.145 -1150.651)">
    <g id="Grupo_61389" data-name="Grupo 61389">
      <path id="Trazado_105094" data-name="Trazado 105094" d="M763.485,1150.651q3.8,0,7.58.374t7.506,1.113q3.728.738,7.364,1.843t7.145,2.557q3.51,1.452,6.861,3.244t6.51,3.9q3.158,2.11,6.1,4.521a75.618,75.618,0,0,1,5.622,5.1q2.687,2.688,5.1,5.623a75.272,75.272,0,0,1,4.521,6.1q2.111,3.157,3.9,6.509t3.245,6.861q1.453,3.508,2.557,7.145t1.844,7.362q.742,3.726,1.114,7.506t.373,7.581q0,3.8-.373,7.58t-1.114,7.508q-.741,3.726-1.844,7.361t-2.557,7.146q-1.453,3.507-3.245,6.859t-3.9,6.51q-2.11,3.159-4.521,6.1a75,75,0,0,1-5.1,5.623q-2.687,2.689-5.622,5.1t-6.1,4.521q-3.157,2.112-6.51,3.9t-6.861,3.244q-3.51,1.456-7.145,2.559t-7.364,1.844q-3.724.742-7.506,1.114t-7.58.373q-3.8,0-7.58-.373t-7.507-1.114q-3.726-.744-7.362-1.844t-7.146-2.559q-3.51-1.455-6.86-3.244t-6.51-3.9q-3.159-2.109-6.1-4.521t-5.624-5.1q-2.688-2.687-5.1-5.623a74.528,74.528,0,0,1-4.521-6.1q-2.112-3.16-3.9-6.51t-3.244-6.859q-1.455-3.508-2.557-7.146t-1.844-7.361q-.741-3.727-1.113-7.508t-.372-7.58q0-3.8.372-7.581t1.113-7.506q.741-3.726,1.844-7.362t2.557-7.145q1.453-3.511,3.244-6.861t3.9-6.509q2.11-3.157,4.521-6.1a75.194,75.194,0,0,1,5.1-5.623q2.688-2.688,5.624-5.1a75.877,75.877,0,0,1,6.1-4.521q3.157-2.109,6.51-3.9t6.86-3.244q3.51-1.455,7.146-2.557t7.362-1.843q3.726-.742,7.507-1.113T763.485,1150.651Z" fill="#0a4d8f"/>
      <circle id="Elipse_1224" data-name="Elipse 1224" cx="72.641" cy="72.641" r="72.641" transform="translate(690.845 1155.346)" fill="#fff"/>
      <path id="shutterstock_1802230447" data-name="shutterstock 1802230447" d="M763.485,1161.9a66.081,66.081,0,1,1-66.08,66.081,66.081,66.081,0,0,1,66.08-66.081Z" fill="#0d66bf"/>
    </g>
    <g id="Grupo_65960" data-name="Grupo 65960">
      <path id="Trazado_143599" data-name="Trazado 143599" d="M776.989,1250.358l-6.908,6.687,1.621,9.386L763.22,1262l-8.482,4.429,1.621-9.386-6.908-6.687,9.542-1.377,4.227-8.505,4.227,8.505Zm27.7.022L795.146,1249l-4.227-8.505L786.693,1249l-9.542,1.377,6.907,6.686-1.621,9.386,8.482-4.428,8.483,4.428-1.621-9.386Zm-64.94-1.471-4.227-8.511-4.227,8.511-9.542,1.378,6.908,6.691-1.621,9.393,8.482-4.432,8.482,4.432-1.621-9.393,6.908-6.691Zm.57-12.37-6.233-1.771a30.588,30.588,0,0,1,17.563-19.78,17.818,17.818,0,1,1,23.031-.179,30.585,30.585,0,0,1,17.948,19.778l-6.222,1.809a23.983,23.983,0,0,0-46.087.143Zm11.4-35.226a11.339,11.339,0,1,0,11.339-11.339A11.352,11.352,0,0,0,751.719,1201.313Z" fill="#fff"/>
    </g>
  </g>
</svg>
