<svg xmlns="http://www.w3.org/2000/svg" width="154.684" height="154.681" viewBox="0 0 154.684 154.681">
  <g id="Grupo_61394" data-name="Grupo 61394" transform="translate(-500.474 -1150.651)">
    <g id="Grupo_61389" data-name="Grupo 61389">
      <path id="Trazado_105094" data-name="Trazado 105094" d="M577.814,1150.651q3.8,0,7.58.374t7.507,1.113q3.726.738,7.363,1.843t7.146,2.557q3.51,1.452,6.861,3.244t6.51,3.9q3.156,2.11,6.1,4.521a75.841,75.841,0,0,1,5.623,5.1q2.685,2.688,5.1,5.623a75.765,75.765,0,0,1,4.521,6.1q2.109,3.157,3.9,6.509t3.245,6.861q1.452,3.508,2.557,7.145t1.844,7.362q.741,3.726,1.114,7.506t.373,7.581q0,3.8-.373,7.58t-1.114,7.508q-.742,3.726-1.844,7.361t-2.557,7.146q-1.455,3.507-3.245,6.859t-3.9,6.51q-2.112,3.159-4.521,6.1a75.439,75.439,0,0,1-5.1,5.623q-2.688,2.689-5.623,5.1t-6.1,4.521q-3.159,2.112-6.51,3.9t-6.861,3.244q-3.51,1.456-7.146,2.559t-7.363,1.844q-3.726.742-7.507,1.114t-7.58.373q-3.8,0-7.58-.373t-7.507-1.114Q559,1303.1,555.365,1302t-7.146-2.559q-3.51-1.455-6.86-3.244t-6.51-3.9q-3.159-2.109-6.1-4.521t-5.624-5.1q-2.687-2.687-5.1-5.623a74.741,74.741,0,0,1-4.521-6.1q-2.112-3.16-3.9-6.51t-3.244-6.859q-1.455-3.508-2.557-7.146t-1.844-7.361q-.741-3.727-1.113-7.508t-.372-7.58q0-3.8.372-7.581t1.113-7.506q.741-3.726,1.844-7.362t2.557-7.145q1.454-3.511,3.244-6.861t3.9-6.509q2.11-3.157,4.521-6.1a75.193,75.193,0,0,1,5.1-5.623q2.688-2.688,5.624-5.1t6.1-4.521q3.157-2.109,6.51-3.9t6.86-3.244q3.51-1.455,7.146-2.557t7.362-1.843q3.726-.742,7.507-1.113T577.814,1150.651Z" fill="#0a4d8f"/>
      <circle id="Elipse_1224" data-name="Elipse 1224" cx="72.641" cy="72.641" r="72.641" transform="translate(505.174 1155.346)" fill="#fff"/>
      <path id="shutterstock_1802230447" data-name="shutterstock 1802230447" d="M577.814,1161.9a66.081,66.081,0,1,1-66.08,66.081,66.08,66.08,0,0,1,66.08-66.081Z" fill="#0d66bf"/>
    </g>
    <g id="Grupo_65959" data-name="Grupo 65959">
      <g id="Grupo_65958" data-name="Grupo 65958">
        <path id="Trazado_143589" data-name="Trazado 143589" d="M615.221,1264.455v-24.894h-2.348v24.894H605.83v-53.642h7.043v26.4h2.348v-28.748H603.483v55.989h-7.106l.065-36.565H584.7l-.065,36.565h-6.98V1217.9H565.921v31.483h2.348v-29.136h7.043v44.211h-7.043v-12.728h-2.348v12.728h-7.042V1239.7H547.141v24.75H540.1v-73.088H537.75V1266.8h80.131v-2.348Zm-28.174-34.217h7.043l-.06,34.217h-7.043Zm-37.559,11.815h7.043v22.4h-7.043Z" fill="#fff"/>
        <path id="Trazado_143590" data-name="Trazado 143590" d="M537.75,1186.672H540.1v2.347H537.75Z" fill="#fff"/>
        <path id="Trazado_143591" data-name="Trazado 143591" d="M553.01,1232.66a5.866,5.866,0,0,0,4.15-10.016c-.089-.089-.18-.173-.273-.255l10.155-13.955a5.87,5.87,0,0,0,9.95-.73l7.792,6.322a5.867,5.867,0,1,0,10.668-2.307l10.687-11.253a5.87,5.87,0,1,0-1.668-1.653l-10.687,11.254a5.87,5.87,0,0,0-8.1,1.665l-8.031-6.516a5.866,5.866,0,1,0-11.657.668l-11.158,15.335a5.867,5.867,0,1,0-1.826,11.441Zm53.852-39.6a3.521,3.521,0,1,1,0,4.98A3.512,3.512,0,0,1,606.862,1193.064Zm-18.781,19.424a3.521,3.521,0,1,1,0,4.98A3.525,3.525,0,0,1,588.081,1212.488Zm-18.781-9.993a3.521,3.521,0,1,1,0,4.98A3.525,3.525,0,0,1,569.3,1202.495ZM550.52,1224.3a3.521,3.521,0,1,1,0,4.98,3.507,3.507,0,0,1,0-4.98Z" fill="#fff"/>
        <path id="Trazado_143592" data-name="Trazado 143592" d="M551.836,1259.762h2.347v2.348h-2.347Z" fill="#fff"/>
        <path id="Trazado_143593" data-name="Trazado 143593" d="M608.178,1223.8h2.347v2.348h-2.347Z" fill="#fff"/>
        <path id="Trazado_143594" data-name="Trazado 143594" d="M608.178,1214.409h2.347v7.043h-2.347Z" fill="#fff"/>
        <path id="Trazado_143595" data-name="Trazado 143595" d="M570.617,1223.763h2.347v7.043h-2.347Z" fill="#fff"/>
        <path id="Trazado_143596" data-name="Trazado 143596" d="M570.617,1233.154h2.347v2.347h-2.347Z" fill="#fff"/>
        <path id="Trazado_143597" data-name="Trazado 143597" d="M589.4,1253.893h2.348v7.043H589.4Z" fill="#fff"/>
        <path id="Trazado_143598" data-name="Trazado 143598" d="M589.4,1249.2h2.348v2.347H589.4Z" fill="#fff"/>
      </g>
    </g>
  </g>
</svg>
