<svg xmlns="http://www.w3.org/2000/svg" width="154.684" height="154.681" viewBox="0 0 154.684 154.681">
  <g id="Grupo_61394" data-name="Grupo 61394" transform="translate(-1064.692 -1150.651)">
    <g id="Grupo_61389" data-name="Grupo 61389">
      <path id="Trazado_105094" data-name="Trazado 105094" d="M1142.032,1150.651q3.8,0,7.58.374t7.507,1.113q3.727.738,7.363,1.843t7.146,2.557q3.51,1.452,6.861,3.244t6.51,3.9q3.157,2.11,6.1,4.521a75.854,75.854,0,0,1,5.623,5.1q2.686,2.688,5.1,5.623a75.765,75.765,0,0,1,4.521,6.1q2.11,3.157,3.9,6.509t3.245,6.861q1.453,3.508,2.557,7.145t1.844,7.362q.741,3.726,1.114,7.506t.373,7.581q0,3.8-.373,7.58t-1.114,7.508q-.742,3.726-1.844,7.361t-2.557,7.146q-1.455,3.507-3.245,6.859t-3.9,6.51q-2.11,3.159-4.521,6.1a75.439,75.439,0,0,1-5.1,5.623q-2.687,2.689-5.623,5.1t-6.1,4.521q-3.159,2.112-6.51,3.9t-6.861,3.244q-3.51,1.456-7.146,2.559t-7.363,1.844q-3.725.742-7.507,1.114t-7.58.373q-3.8,0-7.58-.373t-7.507-1.114q-3.724-.744-7.362-1.844t-7.146-2.559q-3.51-1.455-6.86-3.244t-6.51-3.9q-3.159-2.109-6.1-4.521t-5.624-5.1q-2.687-2.687-5.1-5.623a74.741,74.741,0,0,1-4.521-6.1q-2.112-3.16-3.9-6.51t-3.244-6.859q-1.455-3.508-2.557-7.146t-1.844-7.361q-.741-3.727-1.113-7.508t-.372-7.58q0-3.8.372-7.581t1.113-7.506q.741-3.726,1.844-7.362t2.557-7.145q1.453-3.511,3.244-6.861t3.9-6.509q2.11-3.157,4.521-6.1a75.419,75.419,0,0,1,5.1-5.623q2.688-2.688,5.624-5.1t6.1-4.521q3.157-2.109,6.51-3.9t6.86-3.244q3.51-1.455,7.146-2.557t7.362-1.843q3.726-.742,7.507-1.113T1142.032,1150.651Z" fill="#0a4d8f"/>
      <circle id="Elipse_1224" data-name="Elipse 1224" cx="72.641" cy="72.641" r="72.641" transform="translate(1069.392 1155.346)" fill="#fff"/>
      <path id="shutterstock_1802230447" data-name="shutterstock 1802230447" d="M1142.032,1161.9a66.081,66.081,0,1,1-66.08,66.081,66.08,66.08,0,0,1,66.08-66.081Z" fill="#0d66bf"/>
    </g>
    <g id="Grupo_65964" data-name="Grupo 65964">
      <path id="Trazado_143606" data-name="Trazado 143606" d="M1105.876,1257.666h2.9v2.9h-2.9Z" fill="#fff"/>
      <path id="Trazado_143607" data-name="Trazado 143607" d="M1111.672,1257.666h2.9v2.9h-2.9Z" fill="#fff"/>
      <path id="Trazado_143608" data-name="Trazado 143608" d="M1117.467,1257.666h2.9v2.9h-2.9Z" fill="#fff"/>
      <path id="Trazado_143609" data-name="Trazado 143609" d="M1166.728,1257.666h11.591v2.9h-11.591Z" fill="#fff"/>
      <path id="Trazado_143610" data-name="Trazado 143610" d="M1184.114,1251.871v-47.812a7.254,7.254,0,0,0-7.244-7.245h-4.346a20.284,20.284,0,0,0-40.568,0h-24.631a7.253,7.253,0,0,0-7.244,7.245v47.812h-2.9v7.244a7.253,7.253,0,0,0,7.244,7.245h75.341a7.253,7.253,0,0,0,7.244-7.245v-7.244Zm-7.244-52.159a4.353,4.353,0,0,1,4.347,4.347v47.812h-2.9v-46.363a2.9,2.9,0,0,0-2.9-2.9h-3.752a20.26,20.26,0,0,0,.623-2.9Zm-41.175-8.222,15.378,6.408,5.266,15.794a17.359,17.359,0,0,1-20.644-22.2Zm23.4,21.3-5.194-15.582,11.6-11.606a17.353,17.353,0,0,1-6.411,27.188Zm-6.851-33.36a17.308,17.308,0,0,1,11.216,4.123L1151.9,1195.1l-15.084-6.283A17.39,17.39,0,0,1,1152.24,1179.428Zm-49.261,24.631a4.352,4.352,0,0,1,4.346-4.347h24.863a19.866,19.866,0,0,0,.622,2.9h-24.036a2.9,2.9,0,0,0-2.9,2.9v46.363h-2.9Zm81.135,55.056a4.352,4.352,0,0,1-4.346,4.347h-75.341a4.352,4.352,0,0,1-4.346-4.347v-4.346h29.849a11.261,11.261,0,0,0,7.574,2.9h9.189a11.258,11.258,0,0,0,7.573-2.9h18.258v-2.9h-19.435l-.425.424a8.385,8.385,0,0,1-5.972,2.474h-9.19a8.387,8.387,0,0,1-5.972-2.474l-.423-.424h-22.333v-46.363h25.167a20.241,20.241,0,0,0,36.6,0h4.882v49.261h8.693Z" fill="#fff"/>
      <path id="Trazado_143611" data-name="Trazado 143611" d="M1168.177,1237.382a4.32,4.32,0,0,0-2.407.732l-5.054-3.79a4.3,4.3,0,0,0,.217-1.288,4.346,4.346,0,1,0-8.693,0,4.3,4.3,0,0,0,.256,1.417l-8.115,6.492a4.259,4.259,0,0,0-4.875.213l-6.248-4.165a4.267,4.267,0,0,0,.147-1.059,4.347,4.347,0,0,0-8.694,0,4.261,4.261,0,0,0,.147,1.059l-6.248,4.165a4.3,4.3,0,0,0-2.592-.878,4.346,4.346,0,1,0,4.347,4.347,4.247,4.247,0,0,0-.147-1.059l6.248-4.166a4.265,4.265,0,0,0,5.184,0l6.248,4.166a4.259,4.259,0,0,0-.147,1.059,4.346,4.346,0,0,0,8.693,0,4.3,4.3,0,0,0-.256-1.417l8.115-6.493a4.291,4.291,0,0,0,4.69-.066l5.055,3.79a4.267,4.267,0,0,0-.218,1.288,4.347,4.347,0,1,0,4.347-4.347Zm-52.159,8.694a1.449,1.449,0,1,1,1.449-1.449A1.452,1.452,0,0,1,1116.018,1246.076Zm13.04-8.694a1.448,1.448,0,1,1,1.449-1.448A1.451,1.451,0,0,1,1129.058,1237.382Zm13.04,8.694a1.449,1.449,0,1,1,1.449-1.449A1.452,1.452,0,0,1,1142.1,1246.076Zm14.488-11.591a1.449,1.449,0,1,1,1.449-1.449A1.452,1.452,0,0,1,1156.586,1234.485Zm11.591,8.693a1.449,1.449,0,1,1,1.449-1.449A1.452,1.452,0,0,1,1168.177,1243.178Z" fill="#fff"/>
      <path id="Trazado_143612" data-name="Trazado 143612" d="M1134.853,1208.405h-23.181v20.284h23.181Zm-2.9,17.387h-17.387V1211.3h17.387Z" fill="#fff"/>
      <path id="Trazado_143613" data-name="Trazado 143613" d="M1117.467,1214.2h11.591v2.9h-11.591Z" fill="#fff"/>
      <path id="Trazado_143614" data-name="Trazado 143614" d="M1117.467,1220h11.591v2.9h-11.591Z" fill="#fff"/>
      <path id="Trazado_143615" data-name="Trazado 143615" d="M1137.751,1222.894h2.9v2.9h-2.9Z" fill="#fff"/>
      <path id="Trazado_143616" data-name="Trazado 143616" d="M1143.547,1222.894h28.977v2.9h-28.977Z" fill="#fff"/>
    </g>
  </g>
</svg>
