<svg xmlns="http://www.w3.org/2000/svg" width="1030" height="462.002" viewBox="0 0 1030 462.002">
  <g id="Grupo_66019" data-name="Grupo 66019" transform="translate(-238.508 -2512.56)">
    <rect id="Rectángulo_5212" data-name="Rectángulo 5212" width="443.482" height="72.277" rx="9.913" transform="translate(556.458 2512.559)" fill="#0a4d8f"/>
    <rect id="Rectángulo_5213" data-name="Rectángulo 5213" width="1030" height="412.249" rx="5.957" transform="translate(238.508 2562.312)" fill="#98d7f4"/>
    <rect id="Rectángulo_5214" data-name="Rectángulo 5214" width="638.906" height="294.476" rx="5.957" transform="translate(584.093 2665.952)" fill="#6ea3d9"/>
    <rect id="Rectángulo_5215" data-name="Rectángulo 5215" width="263.455" height="109.791" rx="5.957" transform="translate(937.5 2830.923)" fill="#3d85cc"/>
    <g id="Grupo_66013" data-name="Grupo 66013" transform="translate(1017.616 2859.604)">
      <path id="Trazado_143876" data-name="Trazado 143876" d="M868.406,2794.175a32.406,32.406,0,0,1,5.349-.364c2.442,0,4.182.468,5.35,1.429a4.952,4.952,0,0,1,1.87,4.026,5.414,5.414,0,0,1-1.61,4.155,8.237,8.237,0,0,1-5.687,1.844,6.779,6.779,0,0,1-1.351-.1v6.283h-3.921Zm3.921,7.947a5.922,5.922,0,0,0,1.325.1c2.1,0,3.4-1.065,3.4-2.831,0-1.609-1.117-2.57-3.117-2.57a7.085,7.085,0,0,0-1.611.13Z" transform="translate(-868.406 -2792.981)" fill="#fff"/>
      <path id="Trazado_143877" data-name="Trazado 143877" d="M880.333,2802.037c0-1.87-.026-3.091-.1-4.18h3.377l.156,2.363h.1a3.7,3.7,0,0,1,3.427-2.65,3.923,3.923,0,0,1,.831.079v3.714a5.788,5.788,0,0,0-1.065-.1,2.513,2.513,0,0,0-2.7,2,4.456,4.456,0,0,0-.078.883v6.413h-3.948Z" transform="translate(-865.605 -2792.091)" fill="#fff"/>
      <path id="Trazado_143878" data-name="Trazado 143878" d="M894.107,2810.841a6.221,6.221,0,0,1-6.57-6.545c0-4.1,2.7-6.727,6.8-6.727a6.176,6.176,0,0,1,6.466,6.52,6.359,6.359,0,0,1-6.674,6.752Zm.1-2.83c1.558,0,2.52-1.534,2.52-3.818,0-1.87-.727-3.792-2.52-3.792-1.87,0-2.6,1.922-2.6,3.817,0,2.156.909,3.794,2.571,3.794Z" transform="translate(-863.874 -2792.091)" fill="#fff"/>
      <path id="Trazado_143879" data-name="Trazado 143879" d="M912.691,2793.14v14.673c0,1.427.052,2.934.1,3.79h-3.505l-.156-1.843h-.078a4.436,4.436,0,0,1-3.974,2.13c-3.012,0-5.427-2.572-5.427-6.52-.026-4.259,2.649-6.752,5.687-6.752a3.9,3.9,0,0,1,3.351,1.429h.052v-6.907Zm-3.947,11.167a3.43,3.43,0,0,0-.052-.727,2.351,2.351,0,0,0-2.312-1.922c-1.818,0-2.727,1.61-2.727,3.609,0,2.131,1.065,3.482,2.7,3.482a2.341,2.341,0,0,0,2.312-1.9,4.656,4.656,0,0,0,.078-.882Z" transform="translate(-861.004 -2793.14)" fill="#fff"/>
      <path id="Trazado_143880" data-name="Trazado 143880" d="M924.74,2806.422c0,1.663.052,3.013.1,4.077h-3.429l-.182-1.791h-.078a4.529,4.529,0,0,1-3.973,2.078c-2.6,0-4.466-1.611-4.466-5.532V2797.8h3.947v6.83c0,1.843.6,2.96,2,2.96a2.19,2.19,0,0,0,2.129-2.233V2797.8h3.948Z" transform="translate(-857.91 -2792.036)" fill="#fff"/>
      <path id="Trazado_143881" data-name="Trazado 143881" d="M934.67,2810.212a9.046,9.046,0,0,1-3.531.6c-4.1,0-6.726-2.52-6.726-6.494,0-3.686,2.545-6.725,7.272-6.725a9.155,9.155,0,0,1,3.012.493l-.623,2.935a5.391,5.391,0,0,0-2.207-.388,3.546,3.546,0,0,0,.078,7.088,5.561,5.561,0,0,0,2.259-.416Z" transform="translate(-855.139 -2792.085)" fill="#fff"/>
      <path id="Trazado_143882" data-name="Trazado 143882" d="M939.441,2795.009v3.453h2.83v2.908h-2.83v4.6c0,1.532.39,2.235,1.558,2.235a4.917,4.917,0,0,0,1.168-.1l.026,2.985a8.334,8.334,0,0,1-2.544.338,4.215,4.215,0,0,1-2.987-1.092,5.258,5.258,0,0,1-1.091-3.765v-5.194h-1.687v-2.908h1.687v-2.39Z" transform="translate(-852.896 -2792.697)" fill="#fff"/>
      <path id="Trazado_143883" data-name="Trazado 143883" d="M948.392,2810.841a6.221,6.221,0,0,1-6.57-6.545c0-4.1,2.7-6.727,6.8-6.727a6.176,6.176,0,0,1,6.467,6.52,6.359,6.359,0,0,1-6.674,6.752Zm.1-2.83c1.557,0,2.518-1.534,2.518-3.818,0-1.87-.727-3.792-2.518-3.792-1.87,0-2.6,1.922-2.6,3.817,0,2.156.909,3.794,2.572,3.794Z" transform="translate(-851.015 -2792.091)" fill="#fff"/>
      <path id="Trazado_143884" data-name="Trazado 143884" d="M881.5,2818.339h3.948v7.271h.052a4.475,4.475,0,0,1,3.843-1.792c3.039,0,5.246,2.519,5.22,6.416,0,4.57-2.882,6.856-5.791,6.856a4.19,4.19,0,0,1-3.817-2.052H884.9l-.156,1.765h-3.351c.052-.83.1-2.364.1-3.792Zm3.948,13.063a2.909,2.909,0,0,0,.078.7,2.418,2.418,0,0,0,2.31,1.869c1.688,0,2.727-1.3,2.727-3.584,0-1.974-.883-3.532-2.727-3.532a2.448,2.448,0,0,0-2.31,1.949,3.275,3.275,0,0,0-.078.727Z" transform="translate(-865.329 -2787.171)" fill="#fff"/>
      <path id="Trazado_143885" data-name="Trazado 143885" d="M904.765,2833.695a16.455,16.455,0,0,0,.208,3.064h-3.559l-.234-1.272H901.1a4.576,4.576,0,0,1-3.635,1.559,3.892,3.892,0,0,1-4.1-3.9c0-3.3,2.96-4.856,7.452-4.856v-.156c0-.676-.364-1.636-2.311-1.636a7.442,7.442,0,0,0-3.506.934l-.727-2.518a10.425,10.425,0,0,1,4.935-1.143c4.233,0,5.557,2.493,5.557,5.48Zm-3.818-2.935c-2.077,0-3.687.493-3.687,2a1.419,1.419,0,0,0,1.558,1.507,2.181,2.181,0,0,0,2.051-1.455,2.828,2.828,0,0,0,.078-.675Zm2.623-12.231-3.169,3.948h-2.7l2.234-3.948Z" transform="translate(-862.494 -2787.126)" fill="#fff"/>
      <path id="Trazado_143886" data-name="Trazado 143886" d="M905.237,2832.3a7.716,7.716,0,0,0,3.4.935c1.195,0,1.688-.389,1.688-1.039s-.39-.987-1.844-1.453c-2.649-.885-3.662-2.312-3.636-3.793,0-2.389,2.026-4.181,5.169-4.181a8.351,8.351,0,0,1,3.557.753l-.675,2.7a6.769,6.769,0,0,0-2.752-.7c-.961,0-1.506.388-1.506,1.011,0,.6.493.935,2.051,1.455,2.416.831,3.4,2.052,3.429,3.9,0,2.389-1.844,4.128-5.479,4.128a8.972,8.972,0,0,1-4.1-.908Z" transform="translate(-859.848 -2786.121)" fill="#fff"/>
      <path id="Trazado_143887" data-name="Trazado 143887" d="M916.206,2822.5a2.121,2.121,0,1,1,.026,0Zm-1.948,14.257v-12.7H918.2v12.7Z" transform="translate(-857.569 -2787.121)" fill="#fff"/>
      <path id="Trazado_143888" data-name="Trazado 143888" d="M929.662,2835.412a9.053,9.053,0,0,1-3.531.6c-4.1,0-6.726-2.52-6.726-6.492,0-3.687,2.544-6.726,7.272-6.726a9.16,9.16,0,0,1,3.012.493l-.623,2.934a5.407,5.407,0,0,0-2.208-.388,3.547,3.547,0,0,0,.078,7.09,5.591,5.591,0,0,0,2.26-.416Z" transform="translate(-856.326 -2786.116)" fill="#fff"/>
      <path id="Trazado_143889" data-name="Trazado 143889" d="M935.214,2836.041a6.221,6.221,0,0,1-6.57-6.544c0-4.1,2.7-6.727,6.8-6.727a6.176,6.176,0,0,1,6.466,6.52,6.359,6.359,0,0,1-6.674,6.752Zm.1-2.831c1.558,0,2.518-1.531,2.518-3.817,0-1.87-.726-3.793-2.518-3.793-1.87,0-2.6,1.923-2.6,3.818,0,2.157.909,3.792,2.571,3.792Z" transform="translate(-854.137 -2786.121)" fill="#fff"/>
    </g>
    <g id="Grupo_66014" data-name="Grupo 66014" transform="translate(1017.616 2726.235)">
      <path id="Trazado_143890" data-name="Trazado 143890" d="M868.406,2686.349a32.406,32.406,0,0,1,5.349-.364c2.442,0,4.182.468,5.35,1.428a4.951,4.951,0,0,1,1.87,4.025,5.417,5.417,0,0,1-1.61,4.156,8.236,8.236,0,0,1-5.687,1.844,6.779,6.779,0,0,1-1.351-.1v6.283h-3.921Zm3.921,7.947a5.964,5.964,0,0,0,1.325.1c2.1,0,3.4-1.065,3.4-2.831,0-1.609-1.117-2.571-3.117-2.571a7.052,7.052,0,0,0-1.611.13Z" transform="translate(-868.406 -2685.154)" fill="#fff"/>
      <path id="Trazado_143891" data-name="Trazado 143891" d="M880.333,2694.209c0-1.869-.026-3.09-.1-4.181h3.377l.156,2.365h.1a3.7,3.7,0,0,1,3.427-2.651,3.9,3.9,0,0,1,.831.08v3.713a5.835,5.835,0,0,0-1.065-.1,2.514,2.514,0,0,0-2.7,2,4.446,4.446,0,0,0-.078.883v6.413h-3.948Z" transform="translate(-865.605 -2684.263)" fill="#fff"/>
      <path id="Trazado_143892" data-name="Trazado 143892" d="M894.107,2703.015a6.22,6.22,0,0,1-6.57-6.544c0-4.1,2.7-6.728,6.8-6.728a6.176,6.176,0,0,1,6.466,6.52,6.359,6.359,0,0,1-6.674,6.752Zm.1-2.831c1.558,0,2.52-1.533,2.52-3.817,0-1.87-.727-3.792-2.52-3.792-1.87,0-2.6,1.922-2.6,3.817,0,2.156.909,3.792,2.571,3.792Z" transform="translate(-863.874 -2684.263)" fill="#fff"/>
      <path id="Trazado_143893" data-name="Trazado 143893" d="M912.691,2685.313v14.674c0,1.427.052,2.934.1,3.79h-3.505l-.156-1.843h-.078a4.436,4.436,0,0,1-3.974,2.13c-3.012,0-5.427-2.573-5.427-6.52-.026-4.258,2.649-6.752,5.687-6.752a3.907,3.907,0,0,1,3.351,1.428h.052v-6.908Zm-3.947,11.168a3.436,3.436,0,0,0-.052-.728,2.349,2.349,0,0,0-2.312-1.922c-1.818,0-2.727,1.61-2.727,3.609,0,2.132,1.065,3.481,2.7,3.481a2.339,2.339,0,0,0,2.312-1.9,4.658,4.658,0,0,0,.078-.883Z" transform="translate(-861.004 -2685.313)" fill="#fff"/>
      <path id="Trazado_143894" data-name="Trazado 143894" d="M924.74,2698.6c0,1.662.052,3.013.1,4.077h-3.429l-.182-1.791h-.078a4.527,4.527,0,0,1-3.973,2.078c-2.6,0-4.466-1.61-4.466-5.531v-7.455h3.947v6.831c0,1.843.6,2.96,2,2.96a2.19,2.19,0,0,0,2.129-2.233v-7.558h3.948Z" transform="translate(-857.91 -2684.209)" fill="#fff"/>
      <path id="Trazado_143895" data-name="Trazado 143895" d="M934.67,2702.386a9.047,9.047,0,0,1-3.531.6c-4.1,0-6.726-2.52-6.726-6.493,0-3.687,2.545-6.725,7.272-6.725a9.149,9.149,0,0,1,3.012.492l-.623,2.935a5.4,5.4,0,0,0-2.207-.388,3.546,3.546,0,0,0,.078,7.089,5.561,5.561,0,0,0,2.259-.415Z" transform="translate(-855.139 -2684.259)" fill="#fff"/>
      <path id="Trazado_143896" data-name="Trazado 143896" d="M939.441,2687.182v3.454h2.83v2.909h-2.83v4.6c0,1.532.39,2.235,1.558,2.235a4.9,4.9,0,0,0,1.168-.1l.026,2.986a8.336,8.336,0,0,1-2.544.338,4.215,4.215,0,0,1-2.987-1.092,5.258,5.258,0,0,1-1.091-3.765v-5.194h-1.687v-2.909h1.687v-2.389Z" transform="translate(-852.896 -2684.87)" fill="#fff"/>
      <path id="Trazado_143897" data-name="Trazado 143897" d="M948.392,2703.015a6.22,6.22,0,0,1-6.57-6.544c0-4.1,2.7-6.728,6.8-6.728a6.176,6.176,0,0,1,6.467,6.52,6.359,6.359,0,0,1-6.674,6.752Zm.1-2.831c1.557,0,2.518-1.533,2.518-3.817,0-1.87-.727-3.792-2.518-3.792-1.87,0-2.6,1.922-2.6,3.817,0,2.156.909,3.792,2.572,3.792Z" transform="translate(-851.015 -2684.263)" fill="#fff"/>
      <path id="Trazado_143898" data-name="Trazado 143898" d="M876.767,2712.382v3.455H879.6v2.908h-2.831v4.6c0,1.533.39,2.234,1.558,2.234a4.934,4.934,0,0,0,1.169-.1l.026,2.986a8.307,8.307,0,0,1-2.545.338,4.22,4.22,0,0,1-2.987-1.091,5.258,5.258,0,0,1-1.09-3.765v-5.194H871.21v-2.908H872.9v-2.39Z" transform="translate(-867.742 -2678.901)" fill="#fff"/>
      <path id="Trazado_143899" data-name="Trazado 143899" d="M890.57,2724.864a16.434,16.434,0,0,0,.208,3.063h-3.559l-.234-1.271h-.078a4.58,4.58,0,0,1-3.635,1.559,3.894,3.894,0,0,1-4.1-3.9c0-3.3,2.961-4.855,7.453-4.855v-.156c0-.675-.364-1.637-2.312-1.637a7.441,7.441,0,0,0-3.505.935l-.727-2.519a10.43,10.43,0,0,1,4.934-1.142c4.234,0,5.559,2.493,5.559,5.48Zm-3.818-2.935c-2.078,0-3.687.493-3.687,2a1.419,1.419,0,0,0,1.557,1.507,2.183,2.183,0,0,0,2.052-1.455,2.83,2.83,0,0,0,.078-.675Z" transform="translate(-865.857 -2678.294)" fill="#fff"/>
      <path id="Trazado_143900" data-name="Trazado 143900" d="M890.948,2719.281c0-1.585-.052-2.908-.1-4.051h3.429l.181,1.765h.078a4.565,4.565,0,0,1,3.922-2.052c2.6,0,4.544,1.74,4.544,5.48v7.5h-3.947v-7.038c0-1.635-.571-2.752-2-2.752a2.168,2.168,0,0,0-2.026,1.48,2.833,2.833,0,0,0-.13.986v7.323h-3.947Z" transform="translate(-863.091 -2678.294)" fill="#fff"/>
      <path id="Trazado_143901" data-name="Trazado 143901" d="M915.4,2726.083c0,2.443-.493,4.442-1.947,5.713a7.717,7.717,0,0,1-5.143,1.558,10.162,10.162,0,0,1-4.57-.96l.779-3.013a7.72,7.72,0,0,0,3.687.96,3.018,3.018,0,0,0,3.3-3.35v-.805h-.052a4.108,4.108,0,0,1-3.429,1.637c-3.142,0-5.375-2.544-5.375-6.181,0-4.1,2.623-6.7,5.765-6.7a3.794,3.794,0,0,1,3.481,1.818h.052l.13-1.531H915.5c-.052.831-.1,1.895-.1,3.79Zm-3.947-5.687a3.452,3.452,0,0,0-.078-.726,2.166,2.166,0,0,0-2.13-1.74c-1.453,0-2.6,1.3-2.6,3.609,0,1.9.935,3.377,2.57,3.377a2.159,2.159,0,0,0,2.1-1.585,3.619,3.619,0,0,0,.13-1.065Z" transform="translate(-860.295 -2678.294)" fill="#fff"/>
      <path id="Trazado_143902" data-name="Trazado 143902" d="M917.487,2714.671a2.121,2.121,0,1,1,.026,0Zm-1.948,14.256v-12.7h3.947v12.7Z" transform="translate(-857.266 -2679.294)" fill="#fff"/>
      <path id="Trazado_143903" data-name="Trazado 143903" d="M921.293,2710.513h3.947v7.271h.052a4.479,4.479,0,0,1,3.844-1.791c3.038,0,5.246,2.518,5.22,6.415,0,4.57-2.883,6.856-5.791,6.856a4.191,4.191,0,0,1-3.818-2.052h-.052l-.156,1.765h-3.349c.052-.831.1-2.363.1-3.791Zm3.947,13.063a2.9,2.9,0,0,0,.078.7,2.418,2.418,0,0,0,2.312,1.87c1.688,0,2.726-1.3,2.726-3.585,0-1.974-.882-3.532-2.726-3.532a2.448,2.448,0,0,0-2.312,1.948,3.288,3.288,0,0,0-.078.727Z" transform="translate(-855.903 -2679.344)" fill="#fff"/>
      <path id="Trazado_143904" data-name="Trazado 143904" d="M933.83,2710.513h3.948v18.464H933.83Z" transform="translate(-852.908 -2679.344)" fill="#fff"/>
      <path id="Trazado_143905" data-name="Trazado 143905" d="M942.783,2722.838c.13,1.636,1.74,2.414,3.583,2.414a10.46,10.46,0,0,0,3.507-.544l.52,2.676a12.039,12.039,0,0,1-4.6.8c-4.31,0-6.778-2.492-6.778-6.466,0-3.221,2.026-6.778,6.414-6.778,4.1,0,5.662,3.194,5.662,6.336a9.374,9.374,0,0,1-.13,1.559Zm4.648-2.7a2.289,2.289,0,0,0-2.208-2.572,2.614,2.614,0,0,0-2.466,2.572Z" transform="translate(-851.68 -2678.294)" fill="#fff"/>
    </g>
    <g id="Grupo_66015" data-name="Grupo 66015" transform="translate(1003.136 2592.867)">
      <path id="Trazado_143906" data-name="Trazado 143906" d="M868.406,2578.522a32.412,32.412,0,0,1,5.349-.364c2.44,0,4.181.468,5.35,1.427a4.954,4.954,0,0,1,1.87,4.026,5.421,5.421,0,0,1-1.61,4.156,8.244,8.244,0,0,1-5.687,1.843,6.8,6.8,0,0,1-1.351-.1v6.285h-3.921Zm3.921,7.947a5.981,5.981,0,0,0,1.325.1c2.1,0,3.4-1.066,3.4-2.831,0-1.61-1.117-2.57-3.116-2.57a7.165,7.165,0,0,0-1.611.128Z" transform="translate(-853.926 -2577.328)" fill="#0d66bf"/>
      <path id="Trazado_143907" data-name="Trazado 143907" d="M880.333,2586.383c0-1.87-.026-3.089-.1-4.18H883.6l.156,2.363h.1a3.7,3.7,0,0,1,3.429-2.649,3.929,3.929,0,0,1,.831.078v3.713a5.894,5.894,0,0,0-1.065-.1,2.517,2.517,0,0,0-2.7,2,4.464,4.464,0,0,0-.078.883v6.414h-3.947Z" transform="translate(-851.125 -2576.438)" fill="#0d66bf"/>
      <path id="Trazado_143908" data-name="Trazado 143908" d="M894.107,2595.188a6.22,6.22,0,0,1-6.57-6.545c0-4.1,2.7-6.726,6.8-6.726a6.176,6.176,0,0,1,6.466,6.519,6.358,6.358,0,0,1-6.674,6.752Zm.1-2.831c1.558,0,2.52-1.531,2.52-3.817,0-1.869-.727-3.791-2.52-3.791-1.87,0-2.6,1.922-2.6,3.817,0,2.156.909,3.791,2.571,3.791Z" transform="translate(-849.394 -2576.438)" fill="#0d66bf"/>
      <path id="Trazado_143909" data-name="Trazado 143909" d="M912.691,2577.487v14.672c0,1.429.052,2.936.1,3.792h-3.507l-.156-1.843h-.078a4.436,4.436,0,0,1-3.973,2.128c-3.013,0-5.427-2.571-5.427-6.518-.026-4.26,2.648-6.752,5.687-6.752a3.9,3.9,0,0,1,3.35,1.428h.052v-6.907Zm-3.948,11.166a3.413,3.413,0,0,0-.052-.726,2.348,2.348,0,0,0-2.311-1.922c-1.818,0-2.727,1.61-2.727,3.61,0,2.13,1.065,3.479,2.7,3.479a2.339,2.339,0,0,0,2.311-1.895,4.664,4.664,0,0,0,.078-.884Z" transform="translate(-846.524 -2577.487)" fill="#0d66bf"/>
      <path id="Trazado_143910" data-name="Trazado 143910" d="M924.74,2590.77c0,1.663.052,3.013.1,4.077h-3.429l-.182-1.791h-.078a4.528,4.528,0,0,1-3.973,2.077c-2.6,0-4.466-1.609-4.466-5.531v-7.454h3.947v6.83c0,1.844.6,2.96,2,2.96a2.189,2.189,0,0,0,2.129-2.233v-7.557h3.948Z" transform="translate(-843.43 -2576.383)" fill="#0d66bf"/>
      <path id="Trazado_143911" data-name="Trazado 143911" d="M934.671,2594.559a9.032,9.032,0,0,1-3.532.6c-4.1,0-6.726-2.518-6.726-6.492,0-3.688,2.545-6.726,7.272-6.726a9.157,9.157,0,0,1,3.013.494l-.623,2.935a5.4,5.4,0,0,0-2.208-.391,3.547,3.547,0,0,0,.078,7.091,5.567,5.567,0,0,0,2.26-.416Z" transform="translate(-840.659 -2576.433)" fill="#0d66bf"/>
      <path id="Trazado_143912" data-name="Trazado 143912" d="M939.44,2579.355v3.455h2.831v2.909H939.44v4.6c0,1.532.39,2.232,1.558,2.232a4.8,4.8,0,0,0,1.169-.1l.026,2.987a8.307,8.307,0,0,1-2.545.338,4.217,4.217,0,0,1-2.986-1.091,5.26,5.26,0,0,1-1.091-3.765v-5.194h-1.688v-2.909h1.688v-2.388Z" transform="translate(-838.416 -2577.044)" fill="#0d66bf"/>
      <path id="Trazado_143913" data-name="Trazado 143913" d="M948.391,2595.188a6.22,6.22,0,0,1-6.57-6.545c0-4.1,2.7-6.726,6.8-6.726a6.176,6.176,0,0,1,6.466,6.519,6.358,6.358,0,0,1-6.674,6.752Zm.1-2.831c1.558,0,2.52-1.531,2.52-3.817,0-1.869-.727-3.791-2.52-3.791-1.87,0-2.6,1.922-2.6,3.817,0,2.156.909,3.791,2.571,3.791Z" transform="translate(-836.535 -2576.438)" fill="#0d66bf"/>
      <path id="Trazado_143914" data-name="Trazado 143914" d="M868.1,2617.038a16.462,16.462,0,0,0,.208,3.064h-3.559l-.234-1.273h-.078a4.574,4.574,0,0,1-3.635,1.559,3.892,3.892,0,0,1-4.1-3.9c0-3.3,2.96-4.856,7.452-4.856v-.156c0-.674-.364-1.637-2.31-1.637a7.445,7.445,0,0,0-3.507.935l-.727-2.518a10.413,10.413,0,0,1,4.935-1.143c4.233,0,5.557,2.494,5.557,5.479Zm-3.818-2.935c-2.077,0-3.687.494-3.687,2a1.418,1.418,0,0,0,1.558,1.506,2.182,2.182,0,0,0,2.051-1.454,2.838,2.838,0,0,0,.078-.676Z" transform="translate(-856.699 -2570.469)" fill="#0d66bf"/>
      <path id="Trazado_143915" data-name="Trazado 143915" d="M880.44,2615.969c0,1.662.052,3.013.1,4.078h-3.427l-.182-1.792h-.078a4.531,4.531,0,0,1-3.973,2.078c-2.6,0-4.468-1.611-4.468-5.532v-7.453h3.948v6.83c0,1.843.6,2.961,2,2.961a2.192,2.192,0,0,0,2.13-2.234v-7.557h3.947Z" transform="translate(-853.923 -2570.414)" fill="#0d66bf"/>
      <path id="Trazado_143916" data-name="Trazado 143916" d="M880.721,2611.454c0-1.583-.052-2.909-.1-4.051h3.349l.156,1.74h.078a4.4,4.4,0,0,1,3.844-2.026,3.592,3.592,0,0,1,3.479,2.182h.052a5.52,5.52,0,0,1,1.662-1.558,4.831,4.831,0,0,1,2.416-.624c2.44,0,4.285,1.714,4.285,5.506v7.479H896.1v-6.882c0-1.844-.6-2.909-1.87-2.909a1.965,1.965,0,0,0-1.844,1.377,4.108,4.108,0,0,0-.13.987v7.427h-3.843v-7.116c0-1.584-.571-2.676-1.844-2.676a2.021,2.021,0,0,0-1.844,1.4,2.67,2.67,0,0,0-.156,1.013v7.375h-3.843Z" transform="translate(-851.033 -2570.469)" fill="#0d66bf"/>
      <path id="Trazado_143917" data-name="Trazado 143917" d="M901.939,2615.012c.13,1.635,1.739,2.414,3.583,2.414a10.467,10.467,0,0,0,3.507-.544l.518,2.674a12,12,0,0,1-4.6.8c-4.31,0-6.778-2.493-6.778-6.466,0-3.221,2.026-6.778,6.414-6.778,4.1,0,5.661,3.194,5.661,6.337a9.4,9.4,0,0,1-.13,1.558Zm4.648-2.7a2.288,2.288,0,0,0-2.208-2.571,2.612,2.612,0,0,0-2.466,2.571Z" transform="translate(-846.875 -2570.469)" fill="#0d66bf"/>
      <path id="Trazado_143918" data-name="Trazado 143918" d="M909.869,2611.454c0-1.583-.052-2.909-.1-4.051h3.427l.182,1.765h.078a4.562,4.562,0,0,1,3.922-2.051c2.6,0,4.544,1.739,4.544,5.479v7.505h-3.947v-7.038c0-1.636-.572-2.753-2-2.753a2.168,2.168,0,0,0-2.026,1.481,2.844,2.844,0,0,0-.13.987v7.323h-3.947Z" transform="translate(-844.129 -2570.469)" fill="#0d66bf"/>
      <path id="Trazado_143919" data-name="Trazado 143919" d="M926.662,2604.556v3.453h2.831v2.908h-2.831v4.6c0,1.531.39,2.233,1.558,2.233a4.923,4.923,0,0,0,1.169-.1l.026,2.986a8.3,8.3,0,0,1-2.545.338,4.219,4.219,0,0,1-2.987-1.091,5.262,5.262,0,0,1-1.09-3.767v-5.194h-1.688v-2.908h1.688v-2.39Z" transform="translate(-841.443 -2571.075)" fill="#0d66bf"/>
      <path id="Trazado_143920" data-name="Trazado 143920" d="M940.464,2617.038a16.45,16.45,0,0,0,.208,3.064h-3.557l-.234-1.273H936.8a4.576,4.576,0,0,1-3.636,1.559,3.893,3.893,0,0,1-4.1-3.9c0-3.3,2.96-4.856,7.453-4.856v-.156c0-.674-.364-1.637-2.312-1.637a7.436,7.436,0,0,0-3.505.935l-.727-2.518a10.4,10.4,0,0,1,4.934-1.143c4.232,0,5.557,2.494,5.557,5.479Zm-3.817-2.935c-2.078,0-3.688.494-3.688,2a1.418,1.418,0,0,0,1.558,1.506,2.183,2.183,0,0,0,2.052-1.454,2.848,2.848,0,0,0,.078-.676Z" transform="translate(-839.557 -2570.469)" fill="#0d66bf"/>
      <path id="Trazado_143921" data-name="Trazado 143921" d="M953.273,2602.686v14.674c0,1.427.052,2.934.1,3.791H949.87l-.156-1.844h-.078a4.434,4.434,0,0,1-3.973,2.13c-3.013,0-5.427-2.571-5.427-6.518-.026-4.258,2.648-6.752,5.687-6.752a3.9,3.9,0,0,1,3.349,1.427h.052v-6.908Zm-3.948,11.168a3.426,3.426,0,0,0-.052-.727,2.349,2.349,0,0,0-2.31-1.922c-1.818,0-2.727,1.61-2.727,3.61,0,2.13,1.065,3.481,2.7,3.481a2.339,2.339,0,0,0,2.311-1.9,4.674,4.674,0,0,0,.078-.883Z" transform="translate(-836.911 -2571.518)" fill="#0d66bf"/>
      <path id="Trazado_143922" data-name="Trazado 143922" d="M959.321,2620.388a6.221,6.221,0,0,1-6.57-6.545c0-4.1,2.7-6.726,6.8-6.726a6.174,6.174,0,0,1,6.466,6.518,6.358,6.358,0,0,1-6.674,6.752Zm.1-2.832c1.558,0,2.52-1.532,2.52-3.817,0-1.87-.727-3.792-2.52-3.792-1.869,0-2.6,1.922-2.6,3.818,0,2.155.909,3.791,2.57,3.791Z" transform="translate(-833.946 -2570.469)" fill="#0d66bf"/>
    </g>
    <g id="Grupo_66016" data-name="Grupo 66016" transform="translate(582.821 2526.614)">
      <path id="Trazado_143923" data-name="Trazado 143923" d="M516.88,2542.2v-17.5H521.5l3.636,6.414a55.278,55.278,0,0,1,2.857,6h.051a72.573,72.573,0,0,1-.311-7.324V2524.7h3.635v17.5h-4.155l-3.74-6.752a62.017,62.017,0,0,1-3.038-6.181h-.1c.13,2.337.182,4.8.182,7.661v5.272Z" transform="translate(-516.88 -2523.739)" fill="#fff"/>
      <path id="Trazado_143924" data-name="Trazado 143924" d="M533.233,2528.079a2.121,2.121,0,1,1,.026,0Zm-1.948,14.258v-12.7h3.947v12.7Z" transform="translate(-513.492 -2523.873)" fill="#fff"/>
      <path id="Trazado_143925" data-name="Trazado 143925" d="M540.211,2528.583l1.714,5.9c.312,1.065.52,2.078.727,3.091h.078c.208-1.039.416-2,.7-3.091l1.636-5.9h4.155l-4.726,12.7h-3.948l-4.622-12.7Z" transform="translate(-512.368 -2522.818)" fill="#fff"/>
      <path id="Trazado_143926" data-name="Trazado 143926" d="M551.011,2536.247c.13,1.635,1.74,2.414,3.584,2.414a10.458,10.458,0,0,0,3.505-.544l.52,2.674a12,12,0,0,1-4.6.805c-4.31,0-6.778-2.492-6.778-6.467,0-3.221,2.026-6.778,6.415-6.778,4.1,0,5.661,3.194,5.661,6.336a9.386,9.386,0,0,1-.13,1.559Zm4.649-2.7a2.288,2.288,0,0,0-2.208-2.572,2.614,2.614,0,0,0-2.468,2.572Z" transform="translate(-509.687 -2522.873)" fill="#fff"/>
      <path id="Trazado_143927" data-name="Trazado 143927" d="M558.922,2523.922h3.947v18.464h-3.947Z" transform="translate(-506.921 -2523.922)" fill="#fff"/>
      <path id="Trazado_143928" data-name="Trazado 143928" d="M567.874,2536.247c.13,1.635,1.74,2.414,3.585,2.414a10.463,10.463,0,0,0,3.505-.544l.519,2.674a12,12,0,0,1-4.6.805c-4.312,0-6.778-2.492-6.778-6.467,0-3.221,2.025-6.778,6.414-6.778,4.1,0,5.661,3.194,5.661,6.336a9.4,9.4,0,0,1-.13,1.559Zm4.648-2.7a2.288,2.288,0,0,0-2.207-2.572,2.614,2.614,0,0,0-2.468,2.572Z" transform="translate(-505.692 -2522.873)" fill="#fff"/>
      <path id="Trazado_143929" data-name="Trazado 143929" d="M575.9,2537.882a7.7,7.7,0,0,0,3.4.935c1.195,0,1.687-.388,1.687-1.038s-.388-.987-1.843-1.455c-2.649-.883-3.661-2.311-3.635-3.792,0-2.388,2.025-4.18,5.166-4.18a8.348,8.348,0,0,1,3.559.753l-.675,2.7a6.764,6.764,0,0,0-2.752-.7c-.962,0-1.507.389-1.507,1.012,0,.6.492.935,2.051,1.455,2.416.831,3.4,2.052,3.429,3.9,0,2.389-1.844,4.129-5.479,4.129a8.961,8.961,0,0,1-4.1-.909Z" transform="translate(-503.066 -2522.873)" fill="#fff"/>
      <path id="Trazado_143930" data-name="Trazado 143930" d="M598.811,2540.994a9.021,9.021,0,0,1-3.533.6c-4.1,0-6.726-2.52-6.726-6.492,0-3.687,2.545-6.726,7.272-6.726a9.157,9.157,0,0,1,3.013.493l-.623,2.934a5.4,5.4,0,0,0-2.208-.388,3.546,3.546,0,0,0,.078,7.089,5.567,5.567,0,0,0,2.26-.416Z" transform="translate(-499.902 -2522.868)" fill="#fff"/>
      <path id="Trazado_143931" data-name="Trazado 143931" d="M604.362,2541.623a6.221,6.221,0,0,1-6.57-6.544c0-4.1,2.7-6.726,6.8-6.726a6.176,6.176,0,0,1,6.466,6.518,6.359,6.359,0,0,1-6.674,6.752Zm.1-2.83c1.559,0,2.518-1.532,2.518-3.818,0-1.87-.726-3.792-2.518-3.792-1.87,0-2.6,1.922-2.6,3.818,0,2.156.909,3.792,2.572,3.792Z" transform="translate(-497.714 -2522.873)" fill="#fff"/>
      <path id="Trazado_143932" data-name="Trazado 143932" d="M610.516,2532.688c0-1.583-.052-2.908-.1-4.051h3.429l.182,1.766h.078a4.561,4.561,0,0,1,3.921-2.052c2.6,0,4.545,1.74,4.545,5.479v7.506h-3.948V2534.3c0-1.635-.571-2.753-2-2.753a2.168,2.168,0,0,0-2.025,1.482,2.842,2.842,0,0,0-.13.987v7.323h-3.948Z" transform="translate(-494.724 -2522.873)" fill="#fff"/>
      <path id="Trazado_143933" data-name="Trazado 143933" d="M622.916,2537.882a7.686,7.686,0,0,0,3.4.935c1.195,0,1.688-.388,1.688-1.038s-.39-.987-1.844-1.455c-2.649-.883-3.661-2.311-3.635-3.792,0-2.388,2.025-4.18,5.168-4.18a8.346,8.346,0,0,1,3.557.753l-.675,2.7a6.758,6.758,0,0,0-2.752-.7c-.961,0-1.507.389-1.507,1.012,0,.6.494.935,2.052,1.455,2.414.831,3.4,2.052,3.427,3.9,0,2.389-1.844,4.129-5.479,4.129a8.965,8.965,0,0,1-4.1-.909Z" transform="translate(-491.928 -2522.873)" fill="#fff"/>
      <path id="Trazado_143934" data-name="Trazado 143934" d="M636.551,2525.791v3.454h2.83v2.908h-2.83v4.6c0,1.532.39,2.234,1.557,2.234a4.921,4.921,0,0,0,1.169-.1l.026,2.986a8.313,8.313,0,0,1-2.544.338,4.223,4.223,0,0,1-2.987-1.09,5.265,5.265,0,0,1-1.091-3.766v-5.195h-1.688v-2.908h1.688v-2.39Z" transform="translate(-489.849 -2523.479)" fill="#fff"/>
      <path id="Trazado_143935" data-name="Trazado 143935" d="M641.591,2528.079a2.121,2.121,0,1,1,.026,0Zm-1.948,14.258v-12.7h3.947v12.7Z" transform="translate(-487.825 -2523.873)" fill="#fff"/>
      <path id="Trazado_143936" data-name="Trazado 143936" d="M650.01,2525.791v3.454h2.831v2.908H650.01v4.6c0,1.532.39,2.234,1.558,2.234a4.923,4.923,0,0,0,1.169-.1l.026,2.986a8.315,8.315,0,0,1-2.545.338,4.218,4.218,0,0,1-2.986-1.09,5.264,5.264,0,0,1-1.091-3.766v-5.195h-1.688v-2.908h1.688v-2.39Z" transform="translate(-486.66 -2523.479)" fill="#fff"/>
      <path id="Trazado_143937" data-name="Trazado 143937" d="M665.065,2537.205c0,1.661.052,3.012.1,4.077h-3.427l-.182-1.792h-.078a4.53,4.53,0,0,1-3.973,2.078c-2.6,0-4.468-1.611-4.468-5.532v-7.453h3.948v6.83c0,1.844.6,2.961,2,2.961a2.19,2.19,0,0,0,2.13-2.234v-7.557h3.947Z" transform="translate(-484.626 -2522.818)" fill="#fff"/>
      <path id="Trazado_143938" data-name="Trazado 143938" d="M669.959,2525.791v3.454h2.831v2.908h-2.831v4.6c0,1.532.39,2.234,1.559,2.234a4.921,4.921,0,0,0,1.169-.1l.026,2.986a8.315,8.315,0,0,1-2.545.338,4.22,4.22,0,0,1-2.986-1.09,5.264,5.264,0,0,1-1.091-3.766v-5.195H664.4v-2.908h1.688v-2.39Z" transform="translate(-481.935 -2523.479)" fill="#fff"/>
      <path id="Trazado_143939" data-name="Trazado 143939" d="M675,2528.079a2.122,2.122,0,1,1,.026,0Zm-1.947,14.258v-12.7H677v12.7Z" transform="translate(-479.91 -2523.873)" fill="#fff"/>
      <path id="Trazado_143940" data-name="Trazado 143940" d="M681.979,2528.583l1.714,5.9c.312,1.065.52,2.078.727,3.091h.078c.208-1.039.416-2,.7-3.091l1.636-5.9h4.156l-4.727,12.7h-3.947l-4.622-12.7Z" transform="translate(-478.786 -2522.818)" fill="#fff"/>
      <path id="Trazado_143941" data-name="Trazado 143941" d="M695.583,2541.623a6.221,6.221,0,0,1-6.57-6.544c0-4.1,2.7-6.726,6.8-6.726a6.175,6.175,0,0,1,6.466,6.518,6.358,6.358,0,0,1-6.674,6.752Zm.1-2.83c1.558,0,2.52-1.532,2.52-3.818,0-1.87-.727-3.792-2.52-3.792-1.869,0-2.6,1.922-2.6,3.818,0,2.156.909,3.792,2.57,3.792Z" transform="translate(-476.105 -2522.873)" fill="#fff"/>
      <path id="Trazado_143942" data-name="Trazado 143942" d="M701.831,2537.882a7.7,7.7,0,0,0,3.4.935c1.194,0,1.687-.388,1.687-1.038s-.39-.987-1.843-1.455c-2.649-.883-3.662-2.311-3.636-3.792,0-2.388,2.026-4.18,5.168-4.18a8.353,8.353,0,0,1,3.559.753l-.675,2.7a6.765,6.765,0,0,0-2.753-.7c-.961,0-1.505.389-1.505,1.012,0,.6.492.935,2.051,1.455,2.416.831,3.4,2.052,3.429,3.9,0,2.389-1.844,4.129-5.479,4.129a8.971,8.971,0,0,1-4.1-.909Z" transform="translate(-473.235 -2522.873)" fill="#fff"/>
      <path id="Trazado_143943" data-name="Trazado 143943" d="M727.523,2523.922V2538.6c0,1.427.052,2.934.1,3.791H724.12l-.156-1.844h-.078a4.434,4.434,0,0,1-3.973,2.13c-3.013,0-5.427-2.571-5.427-6.518-.026-4.259,2.648-6.752,5.687-6.752a3.9,3.9,0,0,1,3.35,1.429h.052v-6.908Zm-3.948,11.166a3.441,3.441,0,0,0-.052-.727,2.35,2.35,0,0,0-2.31-1.922c-1.818,0-2.727,1.611-2.727,3.611,0,2.13,1.065,3.48,2.7,3.48a2.339,2.339,0,0,0,2.31-1.9,4.655,4.655,0,0,0,.078-.883Z" transform="translate(-470.071 -2523.922)" fill="#fff"/>
      <path id="Trazado_143944" data-name="Trazado 143944" d="M730.767,2536.247c.13,1.635,1.739,2.414,3.583,2.414a10.466,10.466,0,0,0,3.507-.544l.52,2.674a12,12,0,0,1-4.6.805c-4.311,0-6.778-2.492-6.778-6.467,0-3.221,2.026-6.778,6.415-6.778,4.1,0,5.661,3.194,5.661,6.336a9.393,9.393,0,0,1-.13,1.559Zm4.648-2.7a2.288,2.288,0,0,0-2.208-2.572,2.613,2.613,0,0,0-2.466,2.572Z" transform="translate(-467.107 -2522.873)" fill="#fff"/>
      <path id="Trazado_143945" data-name="Trazado 143945" d="M738.677,2523.922h3.947v18.464h-3.947Z" transform="translate(-464.341 -2523.922)" fill="#fff"/>
      <path id="Trazado_143946" data-name="Trazado 143946" d="M748.714,2532.9c0-1.663-.052-3.064-.1-4.259h3.427l.182,1.766h.052a4.936,4.936,0,0,1,4.233-2.052c2.779,0,5.273,2.415,5.273,6.466,0,4.622-2.935,6.8-5.765,6.8a3.945,3.945,0,0,1-3.3-1.455h-.052v6.312h-3.947Zm3.947,2.987a4.107,4.107,0,0,0,.078.831,2.39,2.39,0,0,0,2.312,1.87c1.713,0,2.726-1.429,2.726-3.584,0-2.025-.909-3.558-2.674-3.558a2.48,2.48,0,0,0-2.364,2,3.045,3.045,0,0,0-.078.7Z" transform="translate(-461.988 -2522.873)" fill="#fff"/>
      <path id="Trazado_143947" data-name="Trazado 143947" d="M761.271,2532.82c0-1.87-.026-3.091-.1-4.182h3.377L764.7,2531h.1a3.7,3.7,0,0,1,3.427-2.649,3.929,3.929,0,0,1,.831.078v3.714a5.92,5.92,0,0,0-1.065-.1,2.513,2.513,0,0,0-2.7,2,4.477,4.477,0,0,0-.078.884v6.415h-3.948Z" transform="translate(-459.013 -2522.873)" fill="#fff"/>
      <path id="Trazado_143948" data-name="Trazado 143948" d="M775.045,2541.623a6.221,6.221,0,0,1-6.57-6.544c0-4.1,2.7-6.726,6.8-6.726a6.175,6.175,0,0,1,6.466,6.518,6.358,6.358,0,0,1-6.674,6.752Zm.1-2.83c1.558,0,2.52-1.532,2.52-3.818,0-1.87-.727-3.792-2.52-3.792-1.869,0-2.6,1.922-2.6,3.818,0,2.156.909,3.792,2.57,3.792Z" transform="translate(-457.282 -2522.873)" fill="#fff"/>
      <path id="Trazado_143949" data-name="Trazado 143949" d="M793.629,2523.922V2538.6c0,1.427.052,2.934.1,3.791h-3.505l-.156-1.844h-.078a4.437,4.437,0,0,1-3.974,2.13c-3.012,0-5.427-2.571-5.427-6.518-.026-4.259,2.649-6.752,5.687-6.752a3.9,3.9,0,0,1,3.351,1.429h.052v-6.908Zm-3.947,11.166a3.441,3.441,0,0,0-.052-.727,2.35,2.35,0,0,0-2.312-1.922c-1.818,0-2.727,1.611-2.727,3.611,0,2.13,1.065,3.48,2.7,3.48a2.339,2.339,0,0,0,2.312-1.9,4.655,4.655,0,0,0,.078-.883Z" transform="translate(-454.412 -2523.922)" fill="#fff"/>
      <path id="Trazado_143950" data-name="Trazado 143950" d="M805.678,2537.205c0,1.661.052,3.012.1,4.077h-3.429l-.182-1.792h-.078a4.528,4.528,0,0,1-3.973,2.078c-2.6,0-4.466-1.611-4.466-5.532v-7.453H797.6v6.83c0,1.844.6,2.961,2,2.961a2.19,2.19,0,0,0,2.129-2.234v-7.557h3.948Z" transform="translate(-451.318 -2522.818)" fill="#fff"/>
      <path id="Trazado_143951" data-name="Trazado 143951" d="M815.609,2540.994a9.021,9.021,0,0,1-3.532.6c-4.1,0-6.726-2.52-6.726-6.492,0-3.687,2.546-6.726,7.272-6.726a9.157,9.157,0,0,1,3.013.493l-.623,2.934a5.4,5.4,0,0,0-2.208-.388,3.546,3.546,0,0,0,.078,7.089,5.567,5.567,0,0,0,2.26-.416Z" transform="translate(-448.547 -2522.868)" fill="#fff"/>
      <path id="Trazado_143952" data-name="Trazado 143952" d="M820.378,2525.791v3.454h2.831v2.908h-2.831v4.6c0,1.532.39,2.234,1.558,2.234a4.921,4.921,0,0,0,1.169-.1l.026,2.986a8.316,8.316,0,0,1-2.545.338,4.22,4.22,0,0,1-2.986-1.09,5.265,5.265,0,0,1-1.091-3.766v-5.195h-1.688v-2.908h1.688v-2.39Z" transform="translate(-446.304 -2523.479)" fill="#fff"/>
      <path id="Trazado_143953" data-name="Trazado 143953" d="M829.329,2541.623a6.221,6.221,0,0,1-6.57-6.544c0-4.1,2.7-6.726,6.8-6.726a6.176,6.176,0,0,1,6.466,6.518,6.358,6.358,0,0,1-6.674,6.752Zm.1-2.83c1.558,0,2.52-1.532,2.52-3.818,0-1.87-.727-3.792-2.52-3.792-1.87,0-2.6,1.922-2.6,3.818,0,2.156.909,3.792,2.571,3.792Z" transform="translate(-444.423 -2522.873)" fill="#fff"/>
    </g>
    <g id="Grupo_66017" data-name="Grupo 66017" transform="translate(667.845 2706.592)">
      <path id="Trazado_143954" data-name="Trazado 143954" d="M585.621,2687.712v-17.5h4.622l3.636,6.413a55.341,55.341,0,0,1,2.856,6h.052a72.191,72.191,0,0,1-.312-7.323v-5.089h3.636v17.5h-4.156l-3.739-6.752a61.988,61.988,0,0,1-3.039-6.179h-.1c.13,2.336.182,4.8.182,7.661v5.271Z" transform="translate(-585.621 -2669.248)" fill="#fff"/>
      <path id="Trazado_143955" data-name="Trazado 143955" d="M605.988,2687.134a6.22,6.22,0,0,1-6.57-6.544c0-4.1,2.7-6.727,6.8-6.727a6.176,6.176,0,0,1,6.466,6.519,6.359,6.359,0,0,1-6.674,6.752Zm.1-2.83c1.558,0,2.518-1.534,2.518-3.818,0-1.87-.727-3.793-2.518-3.793-1.87,0-2.6,1.923-2.6,3.818,0,2.155.909,3.793,2.571,3.793Z" transform="translate(-582.353 -2668.383)" fill="#fff"/>
      <path id="Trazado_143956" data-name="Trazado 143956" d="M612.143,2678.2c0-1.583-.052-2.909-.1-4.051h3.349l.156,1.74h.078a4.4,4.4,0,0,1,3.844-2.027,3.6,3.6,0,0,1,3.479,2.181H623a5.563,5.563,0,0,1,1.662-1.558,4.846,4.846,0,0,1,2.414-.623c2.442,0,4.286,1.715,4.286,5.505v7.48h-3.843v-6.881c0-1.844-.6-2.909-1.87-2.909a1.966,1.966,0,0,0-1.844,1.375,4.14,4.14,0,0,0-.13.989v7.427H619.83v-7.115c0-1.584-.571-2.675-1.845-2.675a2.02,2.02,0,0,0-1.843,1.4,2.668,2.668,0,0,0-.156,1.012v7.376h-3.843Z" transform="translate(-579.363 -2668.383)" fill="#fff"/>
      <path id="Trazado_143957" data-name="Trazado 143957" d="M630.2,2669.432h3.948v7.272h.052a4.474,4.474,0,0,1,3.843-1.792c3.038,0,5.246,2.519,5.22,6.416,0,4.57-2.882,6.856-5.791,6.856a4.188,4.188,0,0,1-3.818-2.053H633.6l-.156,1.767H630.1c.052-.831.1-2.363.1-3.79Zm3.948,13.063a2.894,2.894,0,0,0,.077.7,2.419,2.419,0,0,0,2.312,1.87c1.688,0,2.727-1.3,2.727-3.583,0-1.974-.883-3.532-2.727-3.532a2.447,2.447,0,0,0-2.312,1.947,3.3,3.3,0,0,0-.077.727Z" transform="translate(-575.085 -2669.432)" fill="#fff"/>
      <path id="Trazado_143958" data-name="Trazado 143958" d="M642.76,2678.33c0-1.87-.026-3.091-.1-4.181h3.377l.156,2.364h.1a3.7,3.7,0,0,1,3.427-2.65,3.923,3.923,0,0,1,.831.079v3.714a5.765,5.765,0,0,0-1.065-.1,2.515,2.515,0,0,0-2.7,2,4.457,4.457,0,0,0-.078.884v6.413H642.76Z" transform="translate(-572.11 -2668.383)" fill="#fff"/>
      <path id="Trazado_143959" data-name="Trazado 143959" d="M653.73,2681.757c.129,1.636,1.739,2.415,3.583,2.415a10.41,10.41,0,0,0,3.505-.546l.519,2.676a12.017,12.017,0,0,1-4.6.8c-4.31,0-6.778-2.492-6.778-6.466,0-3.221,2.025-6.779,6.414-6.779,4.1,0,5.661,3.195,5.661,6.337a9.368,9.368,0,0,1-.13,1.559Zm4.647-2.7a2.288,2.288,0,0,0-2.207-2.57,2.613,2.613,0,0,0-2.468,2.57Z" transform="translate(-570.379 -2668.383)" fill="#fff"/>
      <path id="Trazado_143960" data-name="Trazado 143960" d="M678.331,2669.432v14.674c0,1.427.052,2.934.1,3.79h-3.507l-.156-1.843h-.078a4.434,4.434,0,0,1-3.973,2.13c-3.013,0-5.427-2.572-5.427-6.52-.026-4.259,2.648-6.752,5.687-6.752a3.9,3.9,0,0,1,3.349,1.429h.052v-6.908Zm-3.948,11.168a3.426,3.426,0,0,0-.052-.727,2.349,2.349,0,0,0-2.311-1.922c-1.818,0-2.727,1.611-2.727,3.609,0,2.131,1.065,3.481,2.7,3.481a2.339,2.339,0,0,0,2.31-1.9,4.649,4.649,0,0,0,.078-.882Z" transform="translate(-566.748 -2669.432)" fill="#fff"/>
      <path id="Trazado_143961" data-name="Trazado 143961" d="M681.575,2681.757c.13,1.636,1.74,2.415,3.584,2.415a10.415,10.415,0,0,0,3.505-.546l.519,2.676a12.017,12.017,0,0,1-4.6.8c-4.312,0-6.779-2.492-6.779-6.466,0-3.221,2.026-6.779,6.416-6.779,4.1,0,5.661,3.195,5.661,6.337a9.376,9.376,0,0,1-.13,1.559Zm4.648-2.7a2.288,2.288,0,0,0-2.207-2.57,2.613,2.613,0,0,0-2.468,2.57Z" transform="translate(-563.783 -2668.383)" fill="#fff"/>
      <path id="Trazado_143962" data-name="Trazado 143962" d="M693.727,2669.432h3.948V2687.9h-3.948Z" transform="translate(-560.013 -2669.432)" fill="#fff"/>
      <path id="Trazado_143963" data-name="Trazado 143963" d="M710.232,2683.784a16.447,16.447,0,0,0,.208,3.063h-3.559l-.234-1.272h-.078a4.576,4.576,0,0,1-3.635,1.558,3.893,3.893,0,0,1-4.1-3.9c0-3.3,2.961-4.856,7.453-4.856v-.156c0-.674-.364-1.636-2.311-1.636a7.445,7.445,0,0,0-3.507.935l-.727-2.52a10.448,10.448,0,0,1,4.934-1.143c4.234,0,5.558,2.493,5.558,5.48Zm-3.818-2.935c-2.077,0-3.687.492-3.687,2a1.418,1.418,0,0,0,1.558,1.505,2.182,2.182,0,0,0,2.051-1.455,2.833,2.833,0,0,0,.078-.674Z" transform="translate(-558.804 -2668.383)" fill="#fff"/>
      <path id="Trazado_143964" data-name="Trazado 143964" d="M714.852,2678.2c0-1.583-.052-2.909-.1-4.051H718.1l.156,1.74h.077a4.4,4.4,0,0,1,3.844-2.027,3.6,3.6,0,0,1,3.479,2.181h.052a5.579,5.579,0,0,1,1.662-1.558,4.854,4.854,0,0,1,2.416-.623c2.442,0,4.285,1.715,4.285,5.505v7.48h-3.843v-6.881c0-1.844-.6-2.909-1.87-2.909a1.963,1.963,0,0,0-1.843,1.375,4.076,4.076,0,0,0-.131.989v7.427h-3.843v-7.115c0-1.584-.571-2.675-1.844-2.675a2.022,2.022,0,0,0-1.844,1.4,2.692,2.692,0,0,0-.156,1.012v7.376h-3.843Z" transform="translate(-555.033 -2668.383)" fill="#fff"/>
      <path id="Trazado_143965" data-name="Trazado 143965" d="M743.62,2683.784a16.443,16.443,0,0,0,.208,3.063H740.27l-.233-1.272h-.079a4.576,4.576,0,0,1-3.635,1.558,3.893,3.893,0,0,1-4.1-3.9c0-3.3,2.96-4.856,7.453-4.856v-.156c0-.674-.364-1.636-2.312-1.636a7.44,7.44,0,0,0-3.505.935l-.727-2.52a10.444,10.444,0,0,1,4.934-1.143c4.233,0,5.557,2.493,5.557,5.48Zm-3.818-2.935c-2.077,0-3.687.492-3.687,2a1.418,1.418,0,0,0,1.558,1.505,2.182,2.182,0,0,0,2.052-1.455,2.833,2.833,0,0,0,.077-.674Z" transform="translate(-550.895 -2668.383)" fill="#fff"/>
      <path id="Trazado_143966" data-name="Trazado 143966" d="M744,2678.33c0-1.87-.025-3.091-.1-4.181h3.377l.156,2.364h.1a3.7,3.7,0,0,1,3.427-2.65,3.915,3.915,0,0,1,.831.079v3.714a5.759,5.759,0,0,0-1.064-.1,2.515,2.515,0,0,0-2.7,2,4.466,4.466,0,0,0-.078.884v6.413H744Z" transform="translate(-548.129 -2668.383)" fill="#fff"/>
      <path id="Trazado_143967" data-name="Trazado 143967" d="M761.461,2686.505a9.05,9.05,0,0,1-3.533.6c-4.1,0-6.725-2.52-6.725-6.493,0-3.686,2.546-6.725,7.272-6.725a9.149,9.149,0,0,1,3.012.492l-.623,2.935a5.4,5.4,0,0,0-2.208-.388,3.546,3.546,0,0,0,.079,7.089,5.561,5.561,0,0,0,2.258-.416Z" transform="translate(-546.398 -2668.377)" fill="#fff"/>
      <path id="Trazado_143968" data-name="Trazado 143968" d="M772.074,2683.784a16.437,16.437,0,0,0,.208,3.063h-3.557l-.234-1.272h-.078a4.574,4.574,0,0,1-3.635,1.558,3.892,3.892,0,0,1-4.1-3.9c0-3.3,2.96-4.856,7.452-4.856v-.156c0-.674-.364-1.636-2.311-1.636a7.445,7.445,0,0,0-3.506.935l-.727-2.52a10.448,10.448,0,0,1,4.934-1.143c4.234,0,5.557,2.493,5.557,5.48Zm-3.817-2.935c-2.077,0-3.687.492-3.687,2a1.418,1.418,0,0,0,1.558,1.505,2.182,2.182,0,0,0,2.051-1.455,2.833,2.833,0,0,0,.078-.674Z" transform="translate(-544.154 -2668.383)" fill="#fff"/>
      <path id="Trazado_143969" data-name="Trazado 143969" d="M659.156,2722.312h-6.44v4.155h7.194v3.245H648.767v-17.5h10.778v3.246h-6.83v3.635h6.44Z" transform="translate(-570.663 -2659.299)" fill="#fff"/>
      <path id="Trazado_143970" data-name="Trazado 143970" d="M660.052,2725.394a7.719,7.719,0,0,0,3.4.935c1.195,0,1.687-.39,1.687-1.039s-.388-.987-1.843-1.454c-2.649-.882-3.662-2.311-3.636-3.791,0-2.39,2.026-4.182,5.169-4.182a8.345,8.345,0,0,1,3.557.754l-.675,2.7a6.764,6.764,0,0,0-2.752-.7c-.961,0-1.506.388-1.506,1.011,0,.6.493.936,2.051,1.455,2.416.831,3.4,2.051,3.429,3.9,0,2.39-1.844,4.13-5.479,4.13a8.967,8.967,0,0,1-4.1-.91Z" transform="translate(-568.156 -2658.434)" fill="#fff"/>
      <path id="Trazado_143971" data-name="Trazado 143971" d="M673.686,2713.3v3.453h2.831v2.908h-2.831v4.6c0,1.532.39,2.235,1.558,2.235a4.922,4.922,0,0,0,1.169-.1l.026,2.986a8.355,8.355,0,0,1-2.546.338,4.213,4.213,0,0,1-2.986-1.092,5.257,5.257,0,0,1-1.091-3.765v-5.194h-1.688v-2.908h1.688v-2.389Z" transform="translate(-566.076 -2659.04)" fill="#fff"/>
      <path id="Trazado_143972" data-name="Trazado 143972" d="M678.728,2715.59a2.122,2.122,0,1,1,.025,0Zm-1.948,14.257v-12.7h3.947v12.7Z" transform="translate(-564.052 -2659.433)" fill="#fff"/>
      <path id="Trazado_143973" data-name="Trazado 143973" d="M682.513,2711.432h3.948V2729.9h-3.948Z" transform="translate(-562.669 -2659.483)" fill="#fff"/>
      <path id="Trazado_143974" data-name="Trazado 143974" d="M694.27,2729.134a6.221,6.221,0,0,1-6.57-6.545c0-4.1,2.7-6.727,6.8-6.727a6.175,6.175,0,0,1,6.466,6.519,6.358,6.358,0,0,1-6.674,6.753Zm.1-2.83c1.558,0,2.52-1.534,2.52-3.818,0-1.87-.727-3.793-2.52-3.793-1.869,0-2.6,1.923-2.6,3.818,0,2.156.909,3.793,2.57,3.793Z" transform="translate(-561.441 -2658.434)" fill="#fff"/>
      <path id="Trazado_143975" data-name="Trazado 143975" d="M699.461,2730.806l5.557-18.827h2.622l-5.557,18.827Z" transform="translate(-558.655 -2659.354)" fill="#fff"/>
      <path id="Trazado_143976" data-name="Trazado 143976" d="M707.461,2712.494a32.047,32.047,0,0,1,5.324-.39c3.351,0,5.532.623,7.194,1.87a7.712,7.712,0,0,1,2.961,6.6,8.95,8.95,0,0,1-2.883,7.09c-1.843,1.533-4.674,2.26-8.1,2.26a34.014,34.014,0,0,1-4.494-.26Zm3.948,14.258a7.415,7.415,0,0,0,1.375.078c3.61.026,5.974-1.948,5.974-6.129,0-3.636-2.13-5.557-5.558-5.557a8.52,8.52,0,0,0-1.791.155Z" transform="translate(-556.759 -2659.324)" fill="#fff"/>
      <path id="Trazado_143977" data-name="Trazado 143977" d="M724.024,2715.59a2.121,2.121,0,1,1,.026,0Zm-1.948,14.257v-12.7h3.948v12.7Z" transform="translate(-553.322 -2659.433)" fill="#fff"/>
      <path id="Trazado_143978" data-name="Trazado 143978" d="M727.923,2725.394a7.719,7.719,0,0,0,3.4.935c1.195,0,1.687-.39,1.687-1.039s-.388-.987-1.843-1.454c-2.649-.882-3.662-2.311-3.636-3.791,0-2.39,2.026-4.182,5.168-4.182a8.347,8.347,0,0,1,3.559.754l-.675,2.7a6.764,6.764,0,0,0-2.752-.7c-.962,0-1.507.388-1.507,1.011,0,.6.492.936,2.051,1.455,2.416.831,3.4,2.051,3.429,3.9,0,2.39-1.844,4.13-5.479,4.13a8.968,8.968,0,0,1-4.1-.91Z" transform="translate(-552.078 -2658.434)" fill="#fff"/>
      <path id="Trazado_143979" data-name="Trazado 143979" d="M740.1,2723.757c.129,1.636,1.739,2.415,3.583,2.415a10.423,10.423,0,0,0,3.505-.545l.519,2.675a12.021,12.021,0,0,1-4.6.805c-4.311,0-6.778-2.493-6.778-6.467,0-3.221,2.025-6.779,6.414-6.779,4.1,0,5.661,3.195,5.661,6.337a9.365,9.365,0,0,1-.13,1.558Zm4.647-2.7a2.287,2.287,0,0,0-2.207-2.57,2.613,2.613,0,0,0-2.468,2.57Z" transform="translate(-549.92 -2658.434)" fill="#fff"/>
      <path id="Trazado_143980" data-name="Trazado 143980" d="M748.032,2721.164c0-1.583-.052-2.909-.1-4.051h3.427l.182,1.765h.078a4.562,4.562,0,0,1,3.922-2.052c2.6,0,4.544,1.74,4.544,5.48v7.5h-3.948v-7.037c0-1.635-.571-2.753-2-2.753a2.168,2.168,0,0,0-2.026,1.479,2.851,2.851,0,0,0-.13.988v7.323h-3.947Zm2.364-5.843c-.079-2.18.8-3.4,2.129-3.4a3.683,3.683,0,0,1,1.688.52,2.808,2.808,0,0,0,1.09.495c.416,0,.6-.236.675-1.143H757.8c.079,2.362-.752,3.323-2.13,3.323a3.921,3.921,0,0,1-1.791-.546c-.468-.259-.649-.416-.987-.416q-.545,0-.623,1.169Z" transform="translate(-547.174 -2659.398)" fill="#fff"/>
      <path id="Trazado_143981" data-name="Trazado 143981" d="M766.3,2729.134a6.221,6.221,0,0,1-6.57-6.545c0-4.1,2.7-6.727,6.8-6.727a6.176,6.176,0,0,1,6.466,6.519,6.358,6.358,0,0,1-6.674,6.753Zm.1-2.83c1.558,0,2.52-1.534,2.52-3.818,0-1.87-.727-3.793-2.52-3.793-1.87,0-2.6,1.923-2.6,3.818,0,2.156.91,3.793,2.571,3.793Z" transform="translate(-544.378 -2658.434)" fill="#fff"/>
      <path id="Trazado_143982" data-name="Trazado 143982" d="M714.5,2771.269a11.6,11.6,0,0,1-4.466.753c-6.051,0-9.167-3.792-9.167-8.778,0-5.947,4.259-9.246,9.557-9.246a10.886,10.886,0,0,1,4.311.753l-.831,3.143a8.343,8.343,0,0,0-3.324-.649c-3.117,0-5.559,1.9-5.559,5.791,0,3.481,2.078,5.688,5.583,5.688a9.4,9.4,0,0,0,3.325-.572Z" transform="translate(-558.321 -2649.4)" fill="#fff"/>
      <path id="Trazado_143983" data-name="Trazado 143983" d="M724.428,2767.784a16.446,16.446,0,0,0,.208,3.063h-3.559l-.234-1.271h-.078a4.576,4.576,0,0,1-3.635,1.558,3.893,3.893,0,0,1-4.1-3.9c0-3.3,2.961-4.856,7.455-4.856v-.156c0-.674-.364-1.636-2.313-1.636a7.444,7.444,0,0,0-3.505.935l-.726-2.52a10.436,10.436,0,0,1,4.934-1.143c4.233,0,5.557,2.493,5.557,5.48Zm-3.818-2.935c-2.078,0-3.687.492-3.687,2a1.417,1.417,0,0,0,1.557,1.506,2.183,2.183,0,0,0,2.053-1.455,2.824,2.824,0,0,0,.077-.674Z" transform="translate(-555.441 -2648.485)" fill="#fff"/>
      <path id="Trazado_143984" data-name="Trazado 143984" d="M724.786,2753.432h3.947V2771.9h-3.947Z" transform="translate(-552.656 -2649.534)" fill="#fff"/>
      <path id="Trazado_143985" data-name="Trazado 143985" d="M732.529,2757.59a2.121,2.121,0,1,1,.026,0Zm-1.948,14.257v-12.7h3.948v12.7Z" transform="translate(-551.307 -2649.484)" fill="#fff"/>
      <path id="Trazado_143986" data-name="Trazado 143986" d="M748.764,2753.432v14.674c0,1.427.052,2.934.1,3.79h-3.507l-.156-1.843h-.077a4.437,4.437,0,0,1-3.974,2.13c-3.013,0-5.427-2.572-5.427-6.52-.026-4.259,2.649-6.752,5.687-6.752a3.905,3.905,0,0,1,3.351,1.428h.052v-6.908Zm-3.947,11.168a3.425,3.425,0,0,0-.052-.727,2.35,2.35,0,0,0-2.312-1.922c-1.818,0-2.726,1.611-2.726,3.609,0,2.131,1.064,3.482,2.7,3.482a2.338,2.338,0,0,0,2.311-1.9,4.642,4.642,0,0,0,.079-.882Z" transform="translate(-550.064 -2649.534)" fill="#fff"/>
      <path id="Trazado_143987" data-name="Trazado 143987" d="M759.559,2767.784a16.433,16.433,0,0,0,.208,3.063H756.21l-.235-1.271H755.9a4.577,4.577,0,0,1-3.636,1.558,3.892,3.892,0,0,1-4.1-3.9c0-3.3,2.961-4.856,7.452-4.856v-.156c0-.674-.364-1.636-2.31-1.636a7.445,7.445,0,0,0-3.507.935l-.727-2.52a10.447,10.447,0,0,1,4.935-1.143c4.233,0,5.557,2.493,5.557,5.48Zm-3.817-2.935c-2.078,0-3.688.492-3.688,2a1.418,1.418,0,0,0,1.558,1.506,2.181,2.181,0,0,0,2.051-1.455,2.826,2.826,0,0,0,.079-.674Z" transform="translate(-547.119 -2648.485)" fill="#fff"/>
      <path id="Trazado_143988" data-name="Trazado 143988" d="M772.368,2753.432v14.674c0,1.427.052,2.934.1,3.79h-3.507l-.156-1.843h-.078a4.434,4.434,0,0,1-3.973,2.13c-3.013,0-5.427-2.572-5.427-6.52-.027-4.259,2.648-6.752,5.687-6.752a3.9,3.9,0,0,1,3.349,1.428h.052v-6.908ZM768.42,2764.6a3.421,3.421,0,0,0-.052-.727,2.349,2.349,0,0,0-2.312-1.922c-1.817,0-2.726,1.611-2.726,3.609,0,2.131,1.065,3.482,2.7,3.482a2.338,2.338,0,0,0,2.31-1.9,4.641,4.641,0,0,0,.078-.882Z" transform="translate(-544.473 -2649.534)" fill="#fff"/>
      <path id="Trazado_143989" data-name="Trazado 143989" d="M717.554,2806.312h-6.44v4.155h7.194v3.245H707.167v-17.5h10.777v3.246h-6.83v3.635h6.44Z" transform="translate(-556.829 -2639.401)" fill="#fff"/>
      <path id="Trazado_143990" data-name="Trazado 143990" d="M718.275,2804.2c0-1.583-.052-2.909-.1-4.051H721.6l.182,1.765h.078a4.56,4.56,0,0,1,3.921-2.052c2.6,0,4.546,1.74,4.546,5.48v7.5h-3.948v-7.037c0-1.635-.57-2.753-2-2.753a2.167,2.167,0,0,0-2.025,1.479,2.848,2.848,0,0,0-.13.988v7.323h-3.947Z" transform="translate(-554.223 -2638.536)" fill="#fff"/>
      <path id="Trazado_143991" data-name="Trazado 143991" d="M733.355,2800.094l1.714,5.895c.312,1.065.52,2.078.727,3.09h.078c.208-1.039.416-2,.7-3.09l1.638-5.895h4.155l-4.726,12.7h-3.948l-4.622-12.7Z" transform="translate(-551.641 -2638.481)" fill="#fff"/>
      <path id="Trazado_143992" data-name="Trazado 143992" d="M751.874,2809.784a16.445,16.445,0,0,0,.208,3.063h-3.558l-.232-1.272h-.079a4.573,4.573,0,0,1-3.635,1.558,3.894,3.894,0,0,1-4.1-3.9c0-3.3,2.961-4.855,7.455-4.855v-.156c0-.674-.364-1.636-2.312-1.636a7.443,7.443,0,0,0-3.505.935l-.727-2.52a10.444,10.444,0,0,1,4.934-1.142c4.233,0,5.557,2.493,5.557,5.48Zm-3.818-2.935c-2.077,0-3.687.492-3.687,2a1.418,1.418,0,0,0,1.558,1.505,2.182,2.182,0,0,0,2.052-1.455,2.828,2.828,0,0,0,.077-.674Z" transform="translate(-548.94 -2638.536)" fill="#fff"/>
      <path id="Trazado_143993" data-name="Trazado 143993" d="M752.346,2809.393a7.711,7.711,0,0,0,3.4.935c1.195,0,1.688-.39,1.688-1.039s-.39-.987-1.844-1.455c-2.649-.882-3.661-2.311-3.636-3.791,0-2.39,2.026-4.182,5.169-4.182a8.342,8.342,0,0,1,3.557.754l-.675,2.7a6.764,6.764,0,0,0-2.753-.7c-.96,0-1.505.388-1.505,1.012,0,.6.494.935,2.052,1.455,2.414.831,3.4,2.051,3.427,3.895,0,2.39-1.844,4.13-5.479,4.13a8.972,8.972,0,0,1-4.1-.909Z" transform="translate(-546.293 -2638.536)" fill="#fff"/>
      <path id="Trazado_143994" data-name="Trazado 143994" d="M764.524,2807.757c.13,1.636,1.74,2.416,3.583,2.416a10.434,10.434,0,0,0,3.506-.545l.52,2.675a12.024,12.024,0,0,1-4.6.805c-4.311,0-6.777-2.492-6.777-6.467,0-3.221,2.025-6.779,6.413-6.779,4.1,0,5.661,3.195,5.661,6.336a9.392,9.392,0,0,1-.129,1.559Zm4.648-2.7a2.288,2.288,0,0,0-2.208-2.57,2.613,2.613,0,0,0-2.466,2.57Z" transform="translate(-544.134 -2638.536)" fill="#fff"/>
      <path id="Trazado_143995" data-name="Trazado 143995" d="M695.967,2848.312h-6.44v4.155h7.194v3.246H685.58v-17.5h10.777v3.246h-6.83v3.635h6.44Z" transform="translate(-561.943 -2629.452)" fill="#fff"/>
      <path id="Trazado_143996" data-name="Trazado 143996" d="M696.688,2846.2c0-1.583-.052-2.909-.1-4.051h3.349l.156,1.74h.078a4.4,4.4,0,0,1,3.844-2.027,3.6,3.6,0,0,1,3.479,2.182h.052a5.558,5.558,0,0,1,1.662-1.559,4.843,4.843,0,0,1,2.414-.623c2.442,0,4.286,1.715,4.286,5.505v7.48h-3.844v-6.881c0-1.844-.6-2.909-1.869-2.909a1.965,1.965,0,0,0-1.844,1.375,4.129,4.129,0,0,0-.13.988v7.427h-3.843v-7.115c0-1.584-.571-2.675-1.845-2.675a2.02,2.02,0,0,0-1.843,1.4,2.67,2.67,0,0,0-.156,1.012v7.376h-3.843Z" transform="translate(-559.336 -2628.587)" fill="#fff"/>
      <path id="Trazado_143997" data-name="Trazado 143997" d="M714.747,2837.432H718.7v7.271h.052a4.472,4.472,0,0,1,3.843-1.792c3.038,0,5.246,2.519,5.22,6.416,0,4.57-2.882,6.856-5.791,6.856a4.188,4.188,0,0,1-3.818-2.053h-.052l-.156,1.767h-3.349c.052-.832.1-2.362.1-3.791Zm3.948,13.063a2.889,2.889,0,0,0,.077.7,2.418,2.418,0,0,0,2.312,1.87c1.688,0,2.726-1.3,2.726-3.583,0-1.974-.882-3.532-2.726-3.532a2.446,2.446,0,0,0-2.312,1.947,3.3,3.3,0,0,0-.077.727Z" transform="translate(-555.058 -2629.636)" fill="#fff"/>
      <path id="Trazado_143998" data-name="Trazado 143998" d="M738.015,2851.784a16.433,16.433,0,0,0,.208,3.063h-3.559l-.234-1.272h-.078a4.576,4.576,0,0,1-3.636,1.559,3.893,3.893,0,0,1-4.1-3.9c0-3.3,2.961-4.856,7.453-4.856v-.156c0-.674-.362-1.636-2.312-1.636a7.444,7.444,0,0,0-3.505.935l-.727-2.52a10.447,10.447,0,0,1,4.935-1.143c4.233,0,5.557,2.493,5.557,5.48Zm-3.818-2.935c-2.078,0-3.688.492-3.688,2a1.418,1.418,0,0,0,1.558,1.505,2.181,2.181,0,0,0,2.052-1.455,2.824,2.824,0,0,0,.078-.674Z" transform="translate(-552.223 -2628.587)" fill="#fff"/>
      <path id="Trazado_143999" data-name="Trazado 143999" d="M738.373,2837.432h3.947V2855.9h-3.947Z" transform="translate(-549.437 -2629.636)" fill="#fff"/>
      <path id="Trazado_144000" data-name="Trazado 144000" d="M754.876,2851.784a16.429,16.429,0,0,0,.208,3.063h-3.557l-.234-1.272h-.078a4.573,4.573,0,0,1-3.635,1.559,3.893,3.893,0,0,1-4.1-3.9c0-3.3,2.961-4.856,7.453-4.856v-.156c0-.674-.364-1.636-2.31-1.636a7.445,7.445,0,0,0-3.507.935l-.727-2.52a10.445,10.445,0,0,1,4.934-1.143c4.234,0,5.557,2.493,5.557,5.48Zm-3.817-2.935c-2.077,0-3.687.492-3.687,2a1.418,1.418,0,0,0,1.558,1.505,2.182,2.182,0,0,0,2.051-1.455,2.827,2.827,0,0,0,.078-.674Z" transform="translate(-548.228 -2628.587)" fill="#fff"/>
      <path id="Trazado_144001" data-name="Trazado 144001" d="M753.137,2858.34a3.551,3.551,0,0,0,2.337-.831c.571-.6.779-1.609.779-4.129v-10.231H760.2v11.167c0,2.778-.6,4.466-1.792,5.557a7.346,7.346,0,0,1-4.882,1.558Zm5.038-16.75a2.121,2.121,0,1,1,.025,0Z" transform="translate(-545.94 -2629.586)" fill="#fff"/>
      <path id="Trazado_144002" data-name="Trazado 144002" d="M764.525,2849.757c.129,1.636,1.739,2.416,3.583,2.416a10.421,10.421,0,0,0,3.505-.545l.52,2.675a12.022,12.022,0,0,1-4.6.805c-4.311,0-6.778-2.493-6.778-6.467,0-3.221,2.025-6.779,6.415-6.779,4.1,0,5.661,3.195,5.661,6.337a9.356,9.356,0,0,1-.13,1.558Zm4.647-2.7a2.288,2.288,0,0,0-2.207-2.57,2.613,2.613,0,0,0-2.468,2.57Z" transform="translate(-544.134 -2628.587)" fill="#fff"/>
    </g>
    <g id="Grupo_66018" data-name="Grupo 66018" transform="translate(338.032 2644.21)">
      <path id="Trazado_144003" data-name="Trazado 144003" d="M386.842,2619.774v17.5h-3.947v-17.5Z" transform="translate(-303.83 -2618.813)" fill="#0a4d8f"/>
      <path id="Trazado_144004" data-name="Trazado 144004" d="M388.774,2627.763c0-1.583-.052-2.908-.1-4.051H392.1l.182,1.766h.078a4.562,4.562,0,0,1,3.922-2.052c2.6,0,4.544,1.74,4.544,5.479v7.506h-3.948v-7.038c0-1.635-.57-2.752-2-2.752a2.167,2.167,0,0,0-2.026,1.479,2.85,2.85,0,0,0-.13.988v7.323h-3.947Z" transform="translate(-302.462 -2617.948)" fill="#0a4d8f"/>
      <path id="Trazado_144005" data-name="Trazado 144005" d="M401.172,2632.958a7.732,7.732,0,0,0,3.4.935c1.195,0,1.688-.391,1.688-1.039s-.39-.987-1.844-1.455c-2.649-.883-3.662-2.311-3.636-3.792,0-2.388,2.026-4.18,5.169-4.18a8.366,8.366,0,0,1,3.557.753l-.675,2.7a6.748,6.748,0,0,0-2.752-.7c-.961,0-1.507.389-1.507,1.013,0,.6.493.934,2.052,1.453,2.414.831,3.4,2.052,3.427,3.9,0,2.388-1.844,4.13-5.479,4.13a8.967,8.967,0,0,1-4.1-.911Z" transform="translate(-299.666 -2617.948)" fill="#0a4d8f"/>
      <path id="Trazado_144006" data-name="Trazado 144006" d="M414.806,2620.866v3.453h2.831v2.909h-2.831v4.6c0,1.533.39,2.235,1.558,2.235a4.873,4.873,0,0,0,1.169-.1l.026,2.986a8.3,8.3,0,0,1-2.545.339,4.217,4.217,0,0,1-2.986-1.092,5.26,5.26,0,0,1-1.091-3.765v-5.194h-1.688v-2.909h1.688v-2.39Z" transform="translate(-297.587 -2618.554)" fill="#0a4d8f"/>
      <path id="Trazado_144007" data-name="Trazado 144007" d="M428.61,2633.348a16.455,16.455,0,0,0,.208,3.064h-3.559l-.234-1.273h-.078a4.571,4.571,0,0,1-3.635,1.558,3.893,3.893,0,0,1-4.1-3.895c0-3.3,2.961-4.856,7.453-4.856v-.157c0-.675-.364-1.635-2.311-1.635a7.431,7.431,0,0,0-3.507.935l-.727-2.521a10.444,10.444,0,0,1,4.934-1.142c4.234,0,5.558,2.492,5.558,5.479Zm-3.818-2.935c-2.078,0-3.687.494-3.687,2a1.417,1.417,0,0,0,1.557,1.505,2.181,2.181,0,0,0,2.052-1.454,2.822,2.822,0,0,0,.078-.674Z" transform="translate(-295.702 -2617.948)" fill="#0a4d8f"/>
      <path id="Trazado_144008" data-name="Trazado 144008" d="M428.968,2619h3.947v18.464h-3.947Z" transform="translate(-292.916 -2618.997)" fill="#0a4d8f"/>
      <path id="Trazado_144009" data-name="Trazado 144009" d="M445.471,2633.348a16.45,16.45,0,0,0,.208,3.064h-3.557l-.234-1.273h-.078a4.571,4.571,0,0,1-3.636,1.558,3.893,3.893,0,0,1-4.1-3.895c0-3.3,2.961-4.856,7.453-4.856v-.157c0-.675-.364-1.635-2.312-1.635a7.43,7.43,0,0,0-3.505.935l-.727-2.521a10.443,10.443,0,0,1,4.934-1.142c4.234,0,5.557,2.492,5.557,5.479Zm-3.817-2.935c-2.078,0-3.687.494-3.687,2a1.416,1.416,0,0,0,1.557,1.505,2.181,2.181,0,0,0,2.052-1.454,2.823,2.823,0,0,0,.078-.674Z" transform="translate(-291.707 -2617.948)" fill="#0a4d8f"/>
      <path id="Trazado_144010" data-name="Trazado 144010" d="M455.5,2636.069a9.017,9.017,0,0,1-3.531.6c-4.1,0-6.726-2.52-6.726-6.494,0-3.687,2.545-6.726,7.272-6.726a9.15,9.15,0,0,1,3.012.493l-.622,2.935a5.4,5.4,0,0,0-2.208-.389,3.547,3.547,0,0,0,.078,7.09,5.565,5.565,0,0,0,2.259-.416Z" transform="translate(-289.061 -2617.943)" fill="#0a4d8f"/>
      <path id="Trazado_144011" data-name="Trazado 144011" d="M457.269,2623.154a2.122,2.122,0,1,1,.026,0Zm-1.947,14.258v-12.7h3.947v12.7Z" transform="translate(-286.698 -2618.948)" fill="#0a4d8f"/>
      <path id="Trazado_144012" data-name="Trazado 144012" d="M467.038,2637.7a6.22,6.22,0,0,1-6.57-6.544c0-4.1,2.7-6.726,6.8-6.726a6.176,6.176,0,0,1,6.466,6.518,6.358,6.358,0,0,1-6.674,6.752Zm.1-2.83c1.557,0,2.518-1.532,2.518-3.818,0-1.87-.727-3.791-2.518-3.791-1.87,0-2.6,1.921-2.6,3.817,0,2.156.909,3.792,2.571,3.792Zm4.1-15.686-3.169,3.948h-2.7l2.234-3.948Z" transform="translate(-285.454 -2618.952)" fill="#0a4d8f"/>
      <path id="Trazado_144013" data-name="Trazado 144013" d="M473.192,2627.763c0-1.583-.052-2.908-.1-4.051h3.429l.182,1.766h.078a4.559,4.559,0,0,1,3.921-2.052c2.6,0,4.544,1.74,4.544,5.479v7.506h-3.947v-7.038c0-1.635-.571-2.752-2-2.752a2.165,2.165,0,0,0-2.025,1.479,2.851,2.851,0,0,0-.13.988v7.323h-3.948Z" transform="translate(-282.465 -2617.948)" fill="#0a4d8f"/>
      <path id="Trazado_144014" data-name="Trazado 144014" d="M355.877,2672.578c-.078-2.105-.156-4.625-.156-7.2h-.052c-.571,2.234-1.3,4.727-1.974,6.78l-2.129,6.829h-3.091l-1.87-6.778c-.57-2.051-1.142-4.519-1.583-6.83h-.052c-.078,2.363-.182,5.064-.286,7.246l-.338,6.648h-3.662l1.117-17.5h5.272l1.714,5.844c.571,2.026,1.091,4.206,1.481,6.257h.1c.468-2.023,1.065-4.335,1.662-6.283l1.843-5.817h5.195l.934,17.5h-3.843Z" transform="translate(-313.829 -2608.864)" fill="#0a4d8f"/>
      <path id="Trazado_144015" data-name="Trazado 144015" d="M369.388,2675.348a16.455,16.455,0,0,0,.208,3.063h-3.557l-.234-1.273h-.078a4.571,4.571,0,0,1-3.636,1.559,3.892,3.892,0,0,1-4.1-3.895c0-3.3,2.961-4.856,7.453-4.856v-.157c0-.674-.364-1.635-2.312-1.635a7.427,7.427,0,0,0-3.505.935l-.727-2.521a10.44,10.44,0,0,1,4.934-1.142c4.234,0,5.557,2.493,5.557,5.479Zm-3.817-2.935c-2.078,0-3.688.494-3.688,2a1.417,1.417,0,0,0,1.558,1.505,2.181,2.181,0,0,0,2.052-1.455,2.82,2.82,0,0,0,.078-.674Z" transform="translate(-309.73 -2607.999)" fill="#0a4d8f"/>
      <path id="Trazado_144016" data-name="Trazado 144016" d="M369.768,2669.764c0-1.583-.052-2.908-.1-4.051h3.427l.182,1.766h.078a4.562,4.562,0,0,1,3.922-2.052c2.6,0,4.544,1.741,4.544,5.479v7.505h-3.947v-7.038c0-1.635-.571-2.752-2-2.752a2.167,2.167,0,0,0-2.026,1.479,2.85,2.85,0,0,0-.13.988v7.322h-3.947Z" transform="translate(-306.964 -2607.999)" fill="#0a4d8f"/>
      <path id="Trazado_144017" data-name="Trazado 144017" d="M386.561,2662.866v3.454h2.831v2.909h-2.831v4.6c0,1.534.39,2.235,1.558,2.235a4.858,4.858,0,0,0,1.169-.1l.026,2.986a8.3,8.3,0,0,1-2.545.339,4.217,4.217,0,0,1-2.986-1.092,5.26,5.26,0,0,1-1.091-3.765v-5.194H381v-2.909h1.688v-2.39Z" transform="translate(-304.278 -2608.605)" fill="#0a4d8f"/>
      <path id="Trazado_144018" data-name="Trazado 144018" d="M392.708,2673.321c.13,1.638,1.739,2.417,3.583,2.417a10.433,10.433,0,0,0,3.507-.547l.518,2.675a12,12,0,0,1-4.6.807c-4.31,0-6.778-2.494-6.778-6.468,0-3.22,2.026-6.778,6.414-6.778,4.1,0,5.661,3.195,5.661,6.337a9.339,9.339,0,0,1-.13,1.557Zm4.648-2.7a2.287,2.287,0,0,0-2.208-2.57,2.612,2.612,0,0,0-2.466,2.57Z" transform="translate(-302.397 -2607.999)" fill="#0a4d8f"/>
      <path id="Trazado_144019" data-name="Trazado 144019" d="M400.638,2669.764c0-1.583-.052-2.908-.1-4.051h3.427l.182,1.766h.078a4.562,4.562,0,0,1,3.922-2.052c2.6,0,4.544,1.741,4.544,5.479v7.505h-3.947v-7.038c0-1.635-.571-2.752-2-2.752a2.167,2.167,0,0,0-2.026,1.479,2.85,2.85,0,0,0-.13.988v7.322h-3.947Z" transform="translate(-299.652 -2607.999)" fill="#0a4d8f"/>
      <path id="Trazado_144020" data-name="Trazado 144020" d="M414.891,2665.154a2.122,2.122,0,1,1,.026,0Zm-1.947,14.258v-12.7h3.947v12.7Z" transform="translate(-296.737 -2608.998)" fill="#0a4d8f"/>
      <path id="Trazado_144021" data-name="Trazado 144021" d="M418.7,2669.764c0-1.583-.052-2.908-.1-4.051h3.35l.156,1.74h.078a4.4,4.4,0,0,1,3.843-2.026,3.6,3.6,0,0,1,3.481,2.181h.052a5.54,5.54,0,0,1,1.662-1.557,4.832,4.832,0,0,1,2.414-.624c2.442,0,4.286,1.714,4.286,5.505v7.479h-3.844v-6.882c0-1.844-.6-2.908-1.869-2.908a1.965,1.965,0,0,0-1.844,1.376,4.115,4.115,0,0,0-.13.988v7.426h-3.844V2671.3c0-1.586-.571-2.676-1.843-2.676a2.021,2.021,0,0,0-1.844,1.4,2.67,2.67,0,0,0-.156,1.013v7.375H418.7Z" transform="translate(-295.374 -2607.999)" fill="#0a4d8f"/>
      <path id="Trazado_144022" data-name="Trazado 144022" d="M438.705,2665.154a2.121,2.121,0,1,1,.026,0Zm-1.948,14.258v-12.7h3.948v12.7Z" transform="translate(-291.096 -2608.998)" fill="#0a4d8f"/>
      <path id="Trazado_144023" data-name="Trazado 144023" d="M445.669,2673.321c.13,1.638,1.739,2.417,3.583,2.417a10.421,10.421,0,0,0,3.505-.547l.52,2.675a12,12,0,0,1-4.6.807c-4.31,0-6.778-2.494-6.778-6.468,0-3.22,2.026-6.778,6.414-6.778,4.1,0,5.661,3.195,5.661,6.337a9.34,9.34,0,0,1-.13,1.557Zm4.648-2.7a2.287,2.287,0,0,0-2.208-2.57,2.611,2.611,0,0,0-2.466,2.57Z" transform="translate(-289.852 -2607.999)" fill="#0a4d8f"/>
      <path id="Trazado_144024" data-name="Trazado 144024" d="M453.6,2669.764c0-1.583-.052-2.908-.1-4.051h3.427l.182,1.766h.078a4.562,4.562,0,0,1,3.922-2.052c2.6,0,4.544,1.741,4.544,5.479v7.505H461.7v-7.038c0-1.635-.571-2.752-2-2.752a2.167,2.167,0,0,0-2.026,1.479,2.85,2.85,0,0,0-.13.988v7.322H453.6Z" transform="translate(-287.106 -2607.999)" fill="#0a4d8f"/>
      <path id="Trazado_144025" data-name="Trazado 144025" d="M470.393,2662.866v3.454h2.83v2.909h-2.83v4.6c0,1.534.39,2.235,1.558,2.235a4.841,4.841,0,0,0,1.168-.1l.026,2.986a8.283,8.283,0,0,1-2.544.339,4.218,4.218,0,0,1-2.987-1.092,5.261,5.261,0,0,1-1.091-3.765v-5.194h-1.687v-2.909h1.687v-2.39Z" transform="translate(-284.42 -2608.605)" fill="#0a4d8f"/>
      <path id="Trazado_144026" data-name="Trazado 144026" d="M479.343,2678.7a6.221,6.221,0,0,1-6.57-6.544c0-4.1,2.7-6.726,6.8-6.726a6.175,6.175,0,0,1,6.466,6.519,6.358,6.358,0,0,1-6.674,6.752Zm.1-2.83c1.559,0,2.52-1.533,2.52-3.818,0-1.87-.727-3.791-2.52-3.791-1.869,0-2.6,1.921-2.6,3.817,0,2.156.908,3.792,2.57,3.792Z" transform="translate(-282.54 -2607.999)" fill="#0a4d8f"/>
      <path id="Trazado_144027" data-name="Trazado 144027" d="M367.544,2703.774h10.673v3.246h-6.726v4h6.285v3.22h-6.285v7.038h-3.947Z" transform="translate(-307.466 -2598.915)" fill="#0a4d8f"/>
      <path id="Trazado_144028" data-name="Trazado 144028" d="M380.032,2707.154a2.122,2.122,0,1,1,.026,0Zm-1.947,14.258v-12.7h3.947v12.7Z" transform="translate(-304.994 -2599.049)" fill="#0a4d8f"/>
      <path id="Trazado_144029" data-name="Trazado 144029" d="M383.839,2711.764c0-1.583-.052-2.908-.1-4.051h3.427l.182,1.766h.078a4.562,4.562,0,0,1,3.922-2.052c2.6,0,4.544,1.74,4.544,5.479v7.506H391.94v-7.038c0-1.635-.57-2.752-2-2.752a2.167,2.167,0,0,0-2.026,1.479,2.851,2.851,0,0,0-.13.988v7.323h-3.947Z" transform="translate(-303.631 -2598.05)" fill="#0a4d8f"/>
      <path id="Trazado_144030" data-name="Trazado 144030" d="M406.854,2717.348a16.455,16.455,0,0,0,.208,3.064H403.5l-.234-1.273h-.078a4.569,4.569,0,0,1-3.635,1.558,3.893,3.893,0,0,1-4.1-3.895c0-3.3,2.961-4.856,7.453-4.856v-.157c0-.674-.364-1.635-2.31-1.635a7.428,7.428,0,0,0-3.507.935l-.727-2.521a10.446,10.446,0,0,1,4.935-1.142c4.233,0,5.557,2.492,5.557,5.479Zm-3.818-2.935c-2.077,0-3.687.494-3.687,2a1.417,1.417,0,0,0,1.559,1.505,2.18,2.18,0,0,0,2.051-1.455,2.816,2.816,0,0,0,.078-.674Z" transform="translate(-300.855 -2598.05)" fill="#0a4d8f"/>
      <path id="Trazado_144031" data-name="Trazado 144031" d="M407.232,2711.764c0-1.583-.052-2.908-.1-4.051h3.429l.182,1.766h.078a4.559,4.559,0,0,1,3.921-2.052c2.6,0,4.544,1.74,4.544,5.479v7.506h-3.947v-7.038c0-1.635-.571-2.752-2-2.752a2.165,2.165,0,0,0-2.025,1.479,2.849,2.849,0,0,0-.13.988v7.323h-3.948Z" transform="translate(-298.09 -2598.05)" fill="#0a4d8f"/>
      <path id="Trazado_144032" data-name="Trazado 144032" d="M429.189,2720.069a9.028,9.028,0,0,1-3.533.6c-4.1,0-6.726-2.52-6.726-6.494,0-3.687,2.546-6.726,7.272-6.726a9.163,9.163,0,0,1,3.013.493l-.623,2.935a5.4,5.4,0,0,0-2.208-.39,3.547,3.547,0,0,0,.078,7.09,5.576,5.576,0,0,0,2.26-.416Z" transform="translate(-295.294 -2598.045)" fill="#0a4d8f"/>
      <path id="Trazado_144033" data-name="Trazado 144033" d="M430.957,2707.154a2.121,2.121,0,1,1,.026,0Zm-1.948,14.258v-12.7h3.947v12.7Z" transform="translate(-292.931 -2599.049)" fill="#0a4d8f"/>
      <path id="Trazado_144034" data-name="Trazado 144034" d="M445.471,2717.348a16.45,16.45,0,0,0,.208,3.064h-3.559l-.234-1.273h-.078a4.567,4.567,0,0,1-3.635,1.558,3.892,3.892,0,0,1-4.1-3.895c0-3.3,2.96-4.856,7.452-4.856v-.157c0-.674-.362-1.635-2.311-1.635a7.428,7.428,0,0,0-3.507.935l-.727-2.521a10.446,10.446,0,0,1,4.935-1.142c4.233,0,5.557,2.492,5.557,5.479Zm-3.818-2.935c-2.077,0-3.687.494-3.687,2a1.417,1.417,0,0,0,1.559,1.505,2.178,2.178,0,0,0,2.051-1.455,2.82,2.82,0,0,0,.078-.674Z" transform="translate(-291.707 -2598.05)" fill="#0a4d8f"/>
      <path id="Trazado_144035" data-name="Trazado 144035" d="M455.5,2720.069a9.028,9.028,0,0,1-3.533.6c-4.1,0-6.726-2.52-6.726-6.494,0-3.687,2.545-6.726,7.272-6.726a9.163,9.163,0,0,1,3.013.493l-.623,2.935a5.4,5.4,0,0,0-2.208-.39,3.547,3.547,0,0,0,.078,7.09,5.575,5.575,0,0,0,2.26-.416Z" transform="translate(-289.061 -2598.045)" fill="#0a4d8f"/>
      <path id="Trazado_144036" data-name="Trazado 144036" d="M457.269,2707.154a2.121,2.121,0,1,1,.026,0Zm-1.948,14.258v-12.7h3.947v12.7Z" transform="translate(-286.698 -2599.049)" fill="#0a4d8f"/>
      <path id="Trazado_144037" data-name="Trazado 144037" d="M467.037,2721.7a6.221,6.221,0,0,1-6.57-6.544c0-4.1,2.7-6.726,6.8-6.726a6.176,6.176,0,0,1,6.466,6.518,6.358,6.358,0,0,1-6.674,6.752Zm.1-2.83c1.558,0,2.52-1.532,2.52-3.818,0-1.87-.727-3.791-2.52-3.791-1.87,0-2.6,1.921-2.6,3.817,0,2.156.909,3.792,2.571,3.792Zm4.1-15.686-3.168,3.948h-2.7l2.234-3.948Z" transform="translate(-285.455 -2599.054)" fill="#0a4d8f"/>
      <path id="Trazado_144038" data-name="Trazado 144038" d="M473.192,2711.764c0-1.583-.052-2.908-.1-4.051h3.427l.182,1.766h.078a4.562,4.562,0,0,1,3.922-2.052c2.6,0,4.544,1.74,4.544,5.479v7.506h-3.948v-7.038c0-1.635-.57-2.752-2-2.752a2.167,2.167,0,0,0-2.026,1.479,2.849,2.849,0,0,0-.13.988v7.323h-3.947Z" transform="translate(-282.465 -2598.05)" fill="#0a4d8f"/>
      <path id="Trazado_144039" data-name="Trazado 144039" d="M422.618,2755.876h-6.44v4.156h7.194v3.246H412.231v-17.5h10.777v3.246h-6.83v3.636h6.44Z" transform="translate(-296.881 -2588.966)" fill="#0a4d8f"/>
      <path id="Trazado_144040" data-name="Trazado 144040" d="M423.339,2753.764c0-1.583-.052-2.908-.1-4.051h3.427l.182,1.766h.078a4.562,4.562,0,0,1,3.922-2.052c2.6,0,4.544,1.74,4.544,5.479v7.506H431.44v-7.038c0-1.635-.57-2.752-2-2.752a2.167,2.167,0,0,0-2.026,1.479,2.849,2.849,0,0,0-.13.988v7.323h-3.947Z" transform="translate(-294.274 -2588.101)" fill="#0a4d8f"/>
      <path id="Trazado_144041" data-name="Trazado 144041" d="M440.132,2746.866v3.453h2.83v2.909h-2.83v4.6c0,1.533.39,2.235,1.557,2.235a4.87,4.87,0,0,0,1.169-.1l.026,2.986a8.3,8.3,0,0,1-2.544.339,4.219,4.219,0,0,1-2.987-1.092,5.261,5.261,0,0,1-1.091-3.765v-5.194h-1.687v-2.909h1.687v-2.389Z" transform="translate(-291.588 -2588.708)" fill="#0a4d8f"/>
      <path id="Trazado_144042" data-name="Trazado 144042" d="M443.225,2753.894c0-1.871-.026-3.09-.1-4.181H446.5l.156,2.364h.1a3.7,3.7,0,0,1,3.427-2.649,3.911,3.911,0,0,1,.831.078v3.714a5.786,5.786,0,0,0-1.065-.1,2.514,2.514,0,0,0-2.7,2,4.467,4.467,0,0,0-.078.883v6.415h-3.948Z" transform="translate(-289.564 -2588.101)" fill="#0a4d8f"/>
      <path id="Trazado_144043" data-name="Trazado 144043" d="M454.2,2757.321c.13,1.637,1.74,2.417,3.583,2.417a10.427,10.427,0,0,0,3.507-.547l.52,2.675a12,12,0,0,1-4.6.807c-4.311,0-6.778-2.493-6.778-6.468,0-3.22,2.026-6.778,6.416-6.778,4.1,0,5.661,3.195,5.661,6.337a9.346,9.346,0,0,1-.13,1.557Zm4.648-2.7a2.287,2.287,0,0,0-2.207-2.57,2.612,2.612,0,0,0-2.468,2.57Z" transform="translate(-287.832 -2588.101)" fill="#0a4d8f"/>
      <path id="Trazado_144044" data-name="Trazado 144044" d="M474.268,2760.568c0,2.441-.492,4.44-1.947,5.714a7.724,7.724,0,0,1-5.142,1.557,10.163,10.163,0,0,1-4.572-.961l.779-3.013a7.709,7.709,0,0,0,3.688.962,3.019,3.019,0,0,0,3.3-3.351v-.8h-.052a4.108,4.108,0,0,1-3.427,1.636c-3.143,0-5.377-2.544-5.377-6.179,0-4.106,2.623-6.7,5.766-6.7a3.793,3.793,0,0,1,3.479,1.818h.052l.13-1.532h3.427c-.052.831-.1,1.895-.1,3.792Zm-3.947-5.686a3.447,3.447,0,0,0-.078-.727,2.165,2.165,0,0,0-2.13-1.74c-1.453,0-2.6,1.3-2.6,3.611,0,1.895.935,3.374,2.57,3.374a2.157,2.157,0,0,0,2.1-1.583,3.625,3.625,0,0,0,.13-1.064Z" transform="translate(-285.206 -2588.101)" fill="#0a4d8f"/>
      <path id="Trazado_144045" data-name="Trazado 144045" d="M485.118,2759.348a16.446,16.446,0,0,0,.208,3.064h-3.557l-.234-1.273h-.078a4.572,4.572,0,0,1-3.636,1.559,3.893,3.893,0,0,1-4.1-3.9c0-3.3,2.961-4.856,7.453-4.856v-.157c0-.675-.364-1.635-2.312-1.635a7.425,7.425,0,0,0-3.505.935l-.727-2.521a10.443,10.443,0,0,1,4.934-1.142c4.234,0,5.557,2.492,5.557,5.479Zm-3.817-2.935c-2.078,0-3.688.494-3.688,2a1.417,1.417,0,0,0,1.558,1.505,2.181,2.181,0,0,0,2.052-1.454,2.822,2.822,0,0,0,.078-.674Z" transform="translate(-282.316 -2588.101)" fill="#0a4d8f"/>
      <path id="Trazado_144046" data-name="Trazado 144046" d="M319.777,2801.25a10.009,10.009,0,0,0,4.388,1.091c1.818,0,2.779-.755,2.779-1.9,0-1.089-.831-1.712-2.935-2.439-2.908-1.039-4.83-2.65-4.83-5.194,0-2.988,2.52-5.248,6.622-5.248a10.227,10.227,0,0,1,4.466.884l-.883,3.168a8.174,8.174,0,0,0-3.635-.831c-1.714,0-2.546.805-2.546,1.688,0,1.116.961,1.61,3.247,2.466,3.09,1.143,4.518,2.755,4.518,5.221,0,2.935-2.233,5.428-7.038,5.428a11.413,11.413,0,0,1-4.96-1.092Z" transform="translate(-318.972 -2579.067)" fill="#0a4d8f"/>
      <path id="Trazado_144047" data-name="Trazado 144047" d="M334.077,2799.321c.13,1.638,1.739,2.417,3.583,2.417a10.434,10.434,0,0,0,3.507-.547l.519,2.675a12,12,0,0,1-4.6.806c-4.311,0-6.778-2.493-6.778-6.468,0-3.219,2.026-6.778,6.414-6.778,4.1,0,5.662,3.195,5.662,6.336a9.343,9.343,0,0,1-.13,1.557Zm4.648-2.7a2.287,2.287,0,0,0-2.208-2.57,2.612,2.612,0,0,0-2.466,2.57Z" transform="translate(-316.286 -2578.152)" fill="#0a4d8f"/>
      <path id="Trazado_144048" data-name="Trazado 144048" d="M342.007,2795.893c0-1.87-.026-3.09-.1-4.181h3.377l.156,2.364h.1a3.7,3.7,0,0,1,3.427-2.649,3.929,3.929,0,0,1,.831.078v3.714a5.787,5.787,0,0,0-1.065-.1,2.513,2.513,0,0,0-2.7,2,4.473,4.473,0,0,0-.078.883v6.415h-3.948Z" transform="translate(-313.54 -2578.152)" fill="#0a4d8f"/>
      <path id="Trazado_144049" data-name="Trazado 144049" d="M353.539,2791.658l1.713,5.9c.312,1.063.52,2.076.727,3.089h.078c.208-1.039.416-2,.7-3.089l1.636-5.9h4.155l-4.726,12.7h-3.947l-4.623-12.7Z" transform="translate(-311.799 -2578.097)" fill="#0a4d8f"/>
      <path id="Trazado_144050" data-name="Trazado 144050" d="M363.443,2791.154a2.121,2.121,0,1,1,.026,0Zm-1.948,14.258v-12.7h3.947v12.7Z" transform="translate(-308.924 -2579.152)" fill="#0a4d8f"/>
      <path id="Trazado_144051" data-name="Trazado 144051" d="M376.9,2804.069a9.029,9.029,0,0,1-3.533.6c-4.1,0-6.726-2.52-6.726-6.494,0-3.687,2.545-6.726,7.272-6.726a9.157,9.157,0,0,1,3.013.493l-.623,2.935a5.4,5.4,0,0,0-2.208-.39,3.547,3.547,0,0,0,.078,7.09,5.576,5.576,0,0,0,2.26-.415Z" transform="translate(-307.68 -2578.147)" fill="#0a4d8f"/>
      <path id="Trazado_144052" data-name="Trazado 144052" d="M378.667,2791.154a2.121,2.121,0,1,1,.026,0Zm-1.948,14.258v-12.7h3.947v12.7Z" transform="translate(-305.318 -2579.152)" fill="#0a4d8f"/>
      <path id="Trazado_144053" data-name="Trazado 144053" d="M388.435,2804.7a6.221,6.221,0,0,1-6.57-6.544c0-4.1,2.7-6.726,6.8-6.726a6.176,6.176,0,0,1,6.466,6.518,6.358,6.358,0,0,1-6.674,6.752Zm.1-2.83c1.558,0,2.52-1.532,2.52-3.818,0-1.87-.727-3.791-2.52-3.791-1.87,0-2.6,1.921-2.6,3.817,0,2.156.909,3.792,2.571,3.792Z" transform="translate(-304.074 -2578.152)" fill="#0a4d8f"/>
      <path id="Trazado_144054" data-name="Trazado 144054" d="M398.832,2795.971c0-1.661-.052-3.064-.1-4.259h3.427l.182,1.766h.052a4.937,4.937,0,0,1,4.234-2.052c2.778,0,5.272,2.416,5.272,6.466,0,4.622-2.935,6.8-5.765,6.8a3.944,3.944,0,0,1-3.3-1.455h-.052v6.312h-3.947Zm3.947,2.987a4.115,4.115,0,0,0,.078.831,2.39,2.39,0,0,0,2.312,1.87c1.714,0,2.726-1.429,2.726-3.584,0-2.025-.908-3.557-2.674-3.557a2.48,2.48,0,0,0-2.364,2,3.058,3.058,0,0,0-.078.7Z" transform="translate(-300.079 -2578.152)" fill="#0a4d8f"/>
      <path id="Trazado_144055" data-name="Trazado 144055" d="M417.352,2804.7a6.221,6.221,0,0,1-6.57-6.544c0-4.1,2.7-6.726,6.8-6.726a6.176,6.176,0,0,1,6.466,6.518,6.359,6.359,0,0,1-6.674,6.752Zm.1-2.83c1.557,0,2.518-1.532,2.518-3.818,0-1.87-.727-3.791-2.518-3.791-1.87,0-2.6,1.921-2.6,3.817,0,2.156.909,3.792,2.572,3.792Z" transform="translate(-297.224 -2578.152)" fill="#0a4d8f"/>
      <path id="Trazado_144056" data-name="Trazado 144056" d="M423.6,2800.958a7.729,7.729,0,0,0,3.4.935c1.195,0,1.688-.391,1.688-1.039s-.39-.987-1.844-1.454c-2.648-.884-3.661-2.311-3.635-3.793,0-2.388,2.025-4.18,5.168-4.18a8.365,8.365,0,0,1,3.557.753l-.675,2.7a6.733,6.733,0,0,0-2.752-.7c-.961,0-1.506.389-1.506,1.013,0,.6.493.934,2.052,1.454,2.414.831,3.4,2.052,3.427,3.9,0,2.388-1.843,4.13-5.479,4.13a8.965,8.965,0,0,1-4.1-.91Z" transform="translate(-294.354 -2578.152)" fill="#0a4d8f"/>
      <path id="Trazado_144057" data-name="Trazado 144057" d="M435.794,2791.658l1.714,5.9c.312,1.063.519,2.076.727,3.089h.078c.208-1.039.416-2,.7-3.089l1.636-5.9h4.156l-4.727,12.7h-3.947l-4.622-12.7Z" transform="translate(-292.314 -2578.097)" fill="#0a4d8f"/>
      <path id="Trazado_144058" data-name="Trazado 144058" d="M446.592,2799.321c.131,1.638,1.742,2.417,3.585,2.417a10.439,10.439,0,0,0,3.507-.547l.519,2.675a12,12,0,0,1-4.6.806c-4.311,0-6.778-2.493-6.778-6.468,0-3.219,2.026-6.778,6.414-6.778,4.1,0,5.661,3.195,5.661,6.336a9.372,9.372,0,0,1-.129,1.557Zm4.649-2.7a2.287,2.287,0,0,0-2.208-2.57,2.612,2.612,0,0,0-2.466,2.57Z" transform="translate(-289.633 -2578.152)" fill="#0a4d8f"/>
      <path id="Trazado_144059" data-name="Trazado 144059" d="M454.523,2795.764c0-1.583-.052-2.908-.1-4.051h3.429l.182,1.766h.078a4.559,4.559,0,0,1,3.921-2.052c2.6,0,4.544,1.74,4.544,5.479v7.506h-3.947v-7.038c0-1.635-.571-2.752-2-2.752a2.165,2.165,0,0,0-2.025,1.479,2.85,2.85,0,0,0-.13.988v7.323h-3.948Z" transform="translate(-286.887 -2578.152)" fill="#0a4d8f"/>
      <path id="Trazado_144060" data-name="Trazado 144060" d="M471.317,2788.866v3.454h2.83v2.909h-2.83v4.595c0,1.534.39,2.235,1.557,2.235a4.859,4.859,0,0,0,1.169-.1l.026,2.986a8.291,8.291,0,0,1-2.544.339,4.218,4.218,0,0,1-2.987-1.092,5.261,5.261,0,0,1-1.091-3.765v-5.194H465.76v-2.909h1.687v-2.39Z" transform="translate(-284.201 -2578.759)" fill="#0a4d8f"/>
      <path id="Trazado_144061" data-name="Trazado 144061" d="M485.118,2801.348a16.451,16.451,0,0,0,.208,3.064h-3.557l-.234-1.273h-.078a4.572,4.572,0,0,1-3.636,1.558,3.893,3.893,0,0,1-4.1-3.895c0-3.3,2.961-4.856,7.453-4.856v-.157c0-.674-.364-1.635-2.312-1.635a7.425,7.425,0,0,0-3.505.935l-.727-2.521a10.444,10.444,0,0,1,4.934-1.142c4.234,0,5.557,2.492,5.557,5.479Zm-3.817-2.935c-2.078,0-3.688.494-3.688,2a1.417,1.417,0,0,0,1.558,1.506,2.181,2.181,0,0,0,2.052-1.455,2.819,2.819,0,0,0,.078-.674Z" transform="translate(-282.316 -2578.152)" fill="#0a4d8f"/>
      <path id="Trazado_144062" data-name="Trazado 144062" d="M419.215,2846.507a19.577,19.577,0,0,1-5.844.987c-3.194,0-5.505-.805-7.116-2.338a8.771,8.771,0,0,1-2.466-6.388c.026-5.817,4.259-9.14,10-9.14a12.621,12.621,0,0,1,4.857.831l-.831,3.2a9.154,9.154,0,0,0-4.052-.755c-3.3,0-5.817,1.87-5.817,5.661,0,3.636,2.286,5.739,5.531,5.739a6.121,6.121,0,0,0,1.922-.232v-3.688h-2.7v-3.09h6.518Z" transform="translate(-298.88 -2569.103)" fill="#0a4d8f"/>
      <path id="Trazado_144063" data-name="Trazado 144063" d="M429.553,2843.348a16.455,16.455,0,0,0,.208,3.064H426.2l-.234-1.273h-.078a4.568,4.568,0,0,1-3.635,1.558,3.892,3.892,0,0,1-4.1-3.895c0-3.3,2.96-4.856,7.453-4.856v-.157c0-.675-.364-1.635-2.312-1.635a7.428,7.428,0,0,0-3.507.935l-.727-2.521a10.449,10.449,0,0,1,4.935-1.142c4.233,0,5.557,2.492,5.557,5.479Zm-3.818-2.935c-2.077,0-3.687.494-3.687,2a1.417,1.417,0,0,0,1.558,1.505,2.181,2.181,0,0,0,2.052-1.455,2.888,2.888,0,0,0,.077-.674Z" transform="translate(-295.478 -2568.203)" fill="#0a4d8f"/>
      <path id="Trazado_144064" data-name="Trazado 144064" d="M429.932,2837.893c0-1.87-.026-3.09-.1-4.181H433.2l.156,2.364h.1a3.7,3.7,0,0,1,3.427-2.649,3.911,3.911,0,0,1,.831.078v3.714a5.786,5.786,0,0,0-1.065-.1,2.514,2.514,0,0,0-2.7,2,4.472,4.472,0,0,0-.078.884v6.414h-3.948Z" transform="translate(-292.712 -2568.203)" fill="#0a4d8f"/>
      <path id="Trazado_144065" data-name="Trazado 144065" d="M448.39,2843.348a16.458,16.458,0,0,0,.208,3.064H445.04l-.233-1.273h-.079a4.568,4.568,0,0,1-3.635,1.558,3.892,3.892,0,0,1-4.1-3.895c0-3.3,2.96-4.856,7.452-4.856v-.157c0-.675-.364-1.635-2.311-1.635a7.428,7.428,0,0,0-3.507.935l-.727-2.521a10.449,10.449,0,0,1,4.935-1.142c4.233,0,5.557,2.492,5.557,5.479Zm-3.818-2.935c-2.077,0-3.687.494-3.687,2a1.417,1.417,0,0,0,1.558,1.505,2.179,2.179,0,0,0,2.051-1.455,2.823,2.823,0,0,0,.078-.674Z" transform="translate(-291.016 -2568.203)" fill="#0a4d8f"/>
      <path id="Trazado_144066" data-name="Trazado 144066" d="M448.769,2837.764c0-1.583-.052-2.908-.1-4.051h3.429l.182,1.766h.078a4.561,4.561,0,0,1,3.921-2.052c2.6,0,4.546,1.74,4.546,5.479v7.506h-3.948v-7.038c0-1.635-.571-2.752-2-2.752a2.166,2.166,0,0,0-2.025,1.479,2.85,2.85,0,0,0-.13.988v7.323h-3.948Z" transform="translate(-288.25 -2568.203)" fill="#0a4d8f"/>
      <path id="Trazado_144067" data-name="Trazado 144067" d="M465.563,2830.866v3.454h2.83v2.909h-2.83v4.595c0,1.534.39,2.235,1.558,2.235a4.847,4.847,0,0,0,1.168-.1l.026,2.986a8.293,8.293,0,0,1-2.544.339,4.218,4.218,0,0,1-2.987-1.092,5.26,5.26,0,0,1-1.091-3.765v-5.194h-1.687v-2.909h1.687v-2.39Z" transform="translate(-285.564 -2568.809)" fill="#0a4d8f"/>
      <path id="Trazado_144068" data-name="Trazado 144068" d="M468.636,2847.417v-12.7h3.947v12.7Zm6.181-18.23-3.168,3.948h-2.7l2.234-3.948Z" transform="translate(-283.52 -2569.207)" fill="#0a4d8f"/>
      <path id="Trazado_144069" data-name="Trazado 144069" d="M485.118,2843.348a16.446,16.446,0,0,0,.208,3.064h-3.557l-.234-1.273h-.078a4.572,4.572,0,0,1-3.636,1.558,3.893,3.893,0,0,1-4.1-3.895c0-3.3,2.961-4.856,7.453-4.856v-.157c0-.675-.364-1.635-2.312-1.635a7.422,7.422,0,0,0-3.505.935l-.727-2.521a10.447,10.447,0,0,1,4.934-1.142c4.234,0,5.557,2.492,5.557,5.479Zm-3.817-2.935c-2.078,0-3.688.494-3.688,2a1.417,1.417,0,0,0,1.558,1.505,2.181,2.181,0,0,0,2.052-1.455,2.822,2.822,0,0,0,.078-.674Z" transform="translate(-282.316 -2568.203)" fill="#0a4d8f"/>
    </g>
  </g>
</svg>
