<svg xmlns="http://www.w3.org/2000/svg" xmlns:xlink="http://www.w3.org/1999/xlink" width="536.377" height="649.053" viewBox="0 0 536.377 649.053">
  <defs>
    <linearGradient id="linear-gradient" x1="0.19" y1="-0.135" x2="0.813" y2="1.142" gradientUnits="objectBoundingBox">
      <stop offset="0" stop-color="#fff"/>
      <stop offset="0.997" stop-color="#d7d6d6"/>
    </linearGradient>
  </defs>
  <g id="Grupo_80246" data-name="Grupo 80246" transform="translate(6100.781 3937)">
    <g id="Grupo_66030" data-name="Grupo 66030" transform="translate(-5886.945 -3891.4)">
      <g id="Grupo_66029" data-name="Grupo 66029" transform="translate(92.583 598.902)">
        <rect id="Rectángulo_5286" data-name="Rectángulo 5286" width="3.561" height="3.561" fill="#4d4d4d"/>
      </g>
      <rect id="Rectángulo_5287" data-name="Rectángulo 5287" width="7.185" height="3.561" transform="translate(106.921 598.902)" fill="#4d4d4d"/>
      <rect id="Rectángulo_5288" data-name="Rectángulo 5288" width="7.185" height="3.561" transform="translate(124.885 598.902)" fill="#4d4d4d"/>
      <rect id="Rectángulo_5289" data-name="Rectángulo 5289" width="7.185" height="3.561" transform="translate(142.848 598.902)" fill="#4d4d4d"/>
      <rect id="Rectángulo_5290" data-name="Rectángulo 5290" width="7.185" height="3.561" transform="translate(160.812 598.902)" fill="#4d4d4d"/>
      <rect id="Rectángulo_5291" data-name="Rectángulo 5291" width="7.185" height="3.561" transform="translate(178.776 598.902)" fill="#4d4d4d"/>
      <rect id="Rectángulo_5292" data-name="Rectángulo 5292" width="7.185" height="3.561" transform="translate(196.739 598.902)" fill="#4d4d4d"/>
      <rect id="Rectángulo_5293" data-name="Rectángulo 5293" width="7.185" height="3.561" transform="translate(214.703 598.902)" fill="#4d4d4d"/>
      <rect id="Rectángulo_5294" data-name="Rectángulo 5294" width="7.185" height="3.561" transform="translate(232.667 598.902)" fill="#4d4d4d"/>
      <path id="Trazado_144081" data-name="Trazado 144081" d="M624.74,3328.241h.115a50.468,50.468,0,0,0,7.3-.529l-.518-3.526a46.949,46.949,0,0,1-6.783.493Z" transform="translate(-374.109 -2725.777)" fill="#4d4d4d"/>
      <path id="Trazado_144082" data-name="Trazado 144082" d="M643.972,3324.545a50.589,50.589,0,0,0,6.725-3.192l-1.76-3.1a46.546,46.546,0,0,1-6.249,2.963Z" transform="translate(-375.138 -2725.438)" fill="#4d4d4d"/>
      <path id="Trazado_144083" data-name="Trazado 144083" d="M660.605,3314.122a50.068,50.068,0,0,0,5.114-5.4l-2.761-2.247a47.076,47.076,0,0,1-4.752,5.022Z" transform="translate(-376.027 -2724.762)" fill="#4d4d4d"/>
      <path id="Trazado_144084" data-name="Trazado 144084" d="M672.4,3298.442a50.246,50.246,0,0,0,2.811-6.888l-3.387-1.1a46.539,46.539,0,0,1-2.613,6.4Z" transform="translate(-376.657 -2723.845)" fill="#4d4d4d"/>
      <path id="Trazado_144085" data-name="Trazado 144085" d="M677.722,3279.587q.2-2.254.2-4.562v-2.775h-3.562v2.775q0,2.147-.189,4.242Z" transform="translate(-376.941 -2722.802)" fill="#4d4d4d"/>
      <rect id="Rectángulo_5295" data-name="Rectángulo 5295" width="3.561" height="7.185" transform="translate(297.423 531.482)" fill="#4d4d4d"/>
      <rect id="Rectángulo_5296" data-name="Rectángulo 5296" width="3.561" height="7.185" transform="translate(297.423 513.52)" fill="#4d4d4d"/>
      <rect id="Rectángulo_5297" data-name="Rectángulo 5297" width="3.561" height="7.185" transform="translate(297.423 495.554)" fill="#4d4d4d"/>
      <rect id="Rectángulo_5298" data-name="Rectángulo 5298" width="3.561" height="7.185" transform="translate(297.423 477.592)" fill="#4d4d4d"/>
      <rect id="Rectángulo_5299" data-name="Rectángulo 5299" width="3.561" height="7.185" transform="translate(297.423 459.627)" fill="#4d4d4d"/>
      <rect id="Rectángulo_5300" data-name="Rectángulo 5300" width="3.561" height="7.185" transform="translate(297.423 441.665)" fill="#4d4d4d"/>
      <rect id="Rectángulo_5301" data-name="Rectángulo 5301" width="3.561" height="7.185" transform="translate(297.423 423.7)" fill="#4d4d4d"/>
      <rect id="Rectángulo_5302" data-name="Rectángulo 5302" width="3.561" height="7.185" transform="translate(297.423 405.738)" fill="#4d4d4d"/>
      <rect id="Rectángulo_5303" data-name="Rectángulo 5303" width="3.561" height="7.185" transform="translate(297.423 387.772)" fill="#4d4d4d"/>
      <rect id="Rectángulo_5304" data-name="Rectángulo 5304" width="3.561" height="7.185" transform="translate(297.423 369.81)" fill="#4d4d4d"/>
      <rect id="Rectángulo_5305" data-name="Rectángulo 5305" width="3.561" height="7.188" transform="translate(297.423 351.845)" fill="#4d4d4d"/>
      <rect id="Rectángulo_5306" data-name="Rectángulo 5306" width="3.561" height="7.185" transform="translate(297.423 333.883)" fill="#4d4d4d"/>
      <rect id="Rectángulo_5307" data-name="Rectángulo 5307" width="3.561" height="7.188" transform="translate(297.423 315.918)" fill="#4d4d4d"/>
      <rect id="Rectángulo_5308" data-name="Rectángulo 5308" width="3.561" height="7.185" transform="translate(297.423 297.956)" fill="#4d4d4d"/>
      <rect id="Rectángulo_5309" data-name="Rectángulo 5309" width="3.561" height="7.187" transform="translate(297.423 279.992)" fill="#4d4d4d"/>
      <rect id="Rectángulo_5310" data-name="Rectángulo 5310" width="3.561" height="7.185" transform="translate(297.423 262.028)" fill="#4d4d4d"/>
      <rect id="Rectángulo_5311" data-name="Rectángulo 5311" width="3.561" height="7.185" transform="translate(297.423 244.065)" fill="#4d4d4d"/>
      <rect id="Rectángulo_5312" data-name="Rectángulo 5312" width="3.561" height="7.185" transform="translate(297.423 226.101)" fill="#4d4d4d"/>
      <rect id="Rectángulo_5313" data-name="Rectángulo 5313" width="3.561" height="7.187" transform="translate(297.423 208.137)" fill="#4d4d4d"/>
      <rect id="Rectángulo_5314" data-name="Rectángulo 5314" width="3.561" height="7.187" transform="translate(297.423 190.174)" fill="#4d4d4d"/>
      <rect id="Rectángulo_5315" data-name="Rectángulo 5315" width="3.561" height="7.187" transform="translate(297.423 172.21)" fill="#4d4d4d"/>
      <rect id="Rectángulo_5316" data-name="Rectángulo 5316" width="3.561" height="7.187" transform="translate(297.423 154.247)" fill="#4d4d4d"/>
      <rect id="Rectángulo_5317" data-name="Rectángulo 5317" width="3.561" height="7.187" transform="translate(297.423 136.283)" fill="#4d4d4d"/>
      <rect id="Rectángulo_5318" data-name="Rectángulo 5318" width="3.561" height="7.187" transform="translate(297.423 118.319)" fill="#4d4d4d"/>
      <rect id="Rectángulo_5319" data-name="Rectángulo 5319" width="3.561" height="7.187" transform="translate(297.423 100.356)" fill="#4d4d4d"/>
      <rect id="Rectángulo_5320" data-name="Rectángulo 5320" width="3.561" height="7.187" transform="translate(297.423 82.392)" fill="#4d4d4d"/>
      <rect id="Rectángulo_5321" data-name="Rectángulo 5321" width="3.561" height="7.185" transform="translate(297.423 64.43)" fill="#4d4d4d"/>
      <path id="Trazado_144086" data-name="Trazado 144086" d="M674.358,2745.877h3.562v-1.738a51.667,51.667,0,0,0-.309-5.631l-3.541.393a47.8,47.8,0,0,1,.288,5.238Z" transform="translate(-376.935 -2692.226)" fill="#4d4d4d"/>
      <path id="Trazado_144087" data-name="Trazado 144087" d="M671.534,2727.69l3.377-1.136a53.823,53.823,0,0,0-2.855-6.859l-3.185,1.6A49.577,49.577,0,0,1,671.534,2727.69Z" transform="translate(-376.638 -2691.149)" fill="#4d4d4d"/>
      <path id="Trazado_144088" data-name="Trazado 144088" d="M662.656,2711.632l2.785-2.218a52.883,52.883,0,0,0-5.023-5.475l-2.448,2.588A49.3,49.3,0,0,1,662.656,2711.632Z" transform="translate(-376.013 -2690.246)" fill="#4d4d4d"/>
      <path id="Trazado_144089" data-name="Trazado 144089" d="M648.839,2699.635l1.833-3.053a49.417,49.417,0,0,0-6.645-3.344l-1.357,3.293A45.741,45.741,0,0,1,648.839,2699.635Z" transform="translate(-375.137 -2689.633)" fill="#4d4d4d"/>
      <rect id="Rectángulo_5322" data-name="Rectángulo 5322" width="7.185" height="3.561" transform="translate(106.991 1.52) rotate(-0.61)" fill="#4d4d4d"/>
      <rect id="Rectángulo_5323" data-name="Rectángulo 5323" width="7.185" height="3.561" transform="translate(124.954 1.33) rotate(-0.61)" fill="#4d4d4d"/>
      <rect id="Rectángulo_5324" data-name="Rectángulo 5324" width="7.185" height="3.561" transform="translate(142.917 1.139) rotate(-0.596)" fill="#4d4d4d"/>
      <rect id="Rectángulo_5325" data-name="Rectángulo 5325" width="7.185" height="3.561" transform="translate(160.878 0.95) rotate(-0.61)" fill="#4d4d4d"/>
      <rect id="Rectángulo_5326" data-name="Rectángulo 5326" width="7.185" height="3.561" transform="translate(178.842 0.76) rotate(-0.61)" fill="#4d4d4d"/>
      <rect id="Rectángulo_5327" data-name="Rectángulo 5327" width="7.185" height="3.561" transform="translate(196.804 0.571) rotate(-0.61)" fill="#4d4d4d"/>
      <path id="Trazado_144090" data-name="Trazado 144090" d="M631.7,2693.511l.556-3.517a47.528,47.528,0,0,0-7.4-.581l-.035,3.562A44.149,44.149,0,0,1,631.7,2693.511Z" transform="translate(-374.114 -2689.414)" fill="#4d4d4d"/>
      <rect id="Rectángulo_5328" data-name="Rectángulo 5328" width="7.187" height="3.561" transform="translate(214.766 0.381) rotate(-0.61)" fill="#4d4d4d"/>
      <rect id="Rectángulo_5329" data-name="Rectángulo 5329" width="7.185" height="3.561" transform="translate(232.73 0.19) rotate(-0.596)" fill="#4d4d4d"/>
      <rect id="Rectángulo_5330" data-name="Rectángulo 5330" width="3.561" height="3.561" transform="translate(92.564 1.673) rotate(-0.616)" fill="#4d4d4d"/>
      <rect id="Rectángulo_5331" data-name="Rectángulo 5331" width="7.185" height="3.561" transform="translate(14.427 2.471) rotate(-0.61)" fill="#4d4d4d"/>
      <rect id="Rectángulo_5332" data-name="Rectángulo 5332" width="7.185" height="3.561" transform="translate(32.391 2.282) rotate(-0.61)" fill="#4d4d4d"/>
      <rect id="Rectángulo_5333" data-name="Rectángulo 5333" width="7.185" height="3.561" transform="translate(50.353 2.09) rotate(-0.596)" fill="#4d4d4d"/>
      <rect id="Rectángulo_5334" data-name="Rectángulo 5334" width="7.185" height="3.561" transform="translate(68.315 1.901) rotate(-0.61)" fill="#4d4d4d"/>
      <rect id="Rectángulo_5335" data-name="Rectángulo 5335" width="7.185" height="3.561" transform="translate(86.278 1.711) rotate(-0.61)" fill="#4d4d4d"/>
      <rect id="Rectángulo_5336" data-name="Rectángulo 5336" width="3.561" height="3.561" transform="translate(0 2.624) rotate(-0.616)" fill="#4d4d4d"/>
      <rect id="Rectángulo_5337" data-name="Rectángulo 5337" width="7.185" height="3.561" transform="translate(14.427 599.739) rotate(-0.61)" fill="#4d4d4d"/>
      <rect id="Rectángulo_5338" data-name="Rectángulo 5338" width="7.185" height="3.561" transform="translate(32.391 599.549) rotate(-0.61)" fill="#4d4d4d"/>
      <rect id="Rectángulo_5339" data-name="Rectángulo 5339" width="7.185" height="3.561" transform="translate(50.353 599.358) rotate(-0.596)" fill="#4d4d4d"/>
      <rect id="Rectángulo_5340" data-name="Rectángulo 5340" width="7.185" height="3.561" transform="translate(68.315 599.168) rotate(-0.61)" fill="#4d4d4d"/>
      <rect id="Rectángulo_5341" data-name="Rectángulo 5341" width="7.185" height="3.561" transform="translate(86.278 598.979) rotate(-0.61)" fill="#4d4d4d"/>
      <rect id="Rectángulo_5342" data-name="Rectángulo 5342" width="3.561" height="3.561" transform="translate(0 599.892) rotate(-0.616)" fill="#4d4d4d"/>
    </g>
    <path id="Trazado_144092" data-name="Trazado 144092" d="M414.2,3288.95H180.51a48.461,48.461,0,0,1-48.46-48.46V2736.883a48.46,48.46,0,0,1,48.46-48.46h54.851l31.619-47.38,32.943,47.38H414.2Z" transform="translate(-6232.831 -6578.043)" fill="#98d7f4"/>
    <g id="Grupo_66031" data-name="Grupo 66031" transform="translate(-6058.624 -3849.242)">
      <rect id="Rectángulo_5343" data-name="Rectángulo 5343" width="519.771" height="439.211" rx="51.405" transform="translate(439.211) rotate(90)" fill="url(#linear-gradient)"/>
      <path id="Rectángulo_5344" data-name="Rectángulo 5344" d="M46.051,0H463.626a46.051,46.051,0,0,1,46.051,46.051V379.825a46.051,46.051,0,0,1-46.051,46.051H46.053A46.053,46.053,0,0,1,0,379.823V46.051A46.051,46.051,0,0,1,46.051,0Z" transform="translate(432.544 5.048) rotate(90)" fill="#f2f2f2"/>
    </g>
    <circle id="Elipse_4106" data-name="Elipse 4106" cx="21.557" cy="21.557" r="21.557" transform="translate(-5607.518 -3611.408)" fill="#98d7f4"/>
    <text id="El_precio_tiene_un_significado_importante_en_el_desarrollo_económico_de_las_empresas_y_las_personas._Para_la_economía_influye_en_todas_las_actividades_que_aportan_al_Producto_Interno_Bruto_PIB_para_las_empresas_es_el_principal_medio_para_lograr_la_renta" data-name="El precio tiene un significado importante en el desarrollo económico de las empresas y las personas. Para la economía influye en todas las actividades que aportan al Producto Interno Bruto (PIB), para las empresas es el principal medio para lograr la renta" transform="translate(-6031.5 -3799.277)" fill="#12263f" font-size="16" font-family="Roboto-Regular, Roboto"><tspan x="0" y="17">El precio tiene un significado importante en el </tspan><tspan x="0" y="43">desarrollo económico de las empresas y las </tspan><tspan x="0" y="69">personas. Para la economía influye en todas las </tspan><tspan x="0" y="95">actividades que aportan al Producto Interno Bruto </tspan><tspan x="0" y="121">(PIB), para las empresas es el principal medio para </tspan><tspan x="0" y="147">lograr la rentabilidad propuesta. El precio debe ser lo </tspan><tspan x="0" y="173">suficientemente atractivo para que el cliente lo </tspan><tspan x="0" y="199">acepte; y debe “generar suficiente dinero en ventas </tspan><tspan x="0" y="225">para pagar lo que costó desarrollar, producir y </tspan><tspan x="0" y="251">comercializar el producto, y debe generar una </tspan><tspan x="0" y="277">ganancia para la empresa” (Kerin, Hartley &amp; Rudelius, </tspan><tspan x="0" y="303">2014, p. 332). </tspan><tspan x="0" y="329"></tspan></text>
  </g>
</svg>
