<svg xmlns="http://www.w3.org/2000/svg" xmlns:xlink="http://www.w3.org/1999/xlink" width="212.288" height="214.511" viewBox="0 0 212.288 214.511">
  <defs>
    <linearGradient id="linear-gradient" x1="0.362" y1="0.571" x2="0.902" y2="1.142" gradientUnits="objectBoundingBox">
      <stop offset="0.122" stop-color="#fca4b5"/>
      <stop offset="0.99" stop-color="#ffadb7"/>
    </linearGradient>
    <linearGradient id="linear-gradient-2" x1="2836.2" y1="0.684" x2="2837.576" y2="0.188" gradientUnits="objectBoundingBox">
      <stop offset="0.122" stop-color="#feb9b8"/>
      <stop offset="1" stop-color="#ffdede"/>
    </linearGradient>
    <linearGradient id="linear-gradient-3" x1="5209.811" y1="0.207" x2="5209.103" y2="0.871" xlink:href="#linear-gradient"/>
    <linearGradient id="linear-gradient-4" x1="0.1" y1="1.027" x2="0.872" y2="-0.042" gradientUnits="objectBoundingBox">
      <stop offset="0.014" stop-color="#a0a6c0"/>
      <stop offset="0.402" stop-color="#a0a6c0"/>
      <stop offset="0.402" stop-color="#a2a8c1"/>
      <stop offset="0.408" stop-color="#b7bcd0"/>
      <stop offset="0.413" stop-color="#c4c7d9"/>
      <stop offset="0.418" stop-color="#c9ccdc"/>
      <stop offset="0.427" stop-color="#d7d8e5"/>
      <stop offset="0.435" stop-color="#e7e7f0"/>
    </linearGradient>
  </defs>
  <g id="Grupo_64820" data-name="Grupo 64820" transform="translate(-139.759 -5799.532)">
    <rect id="Rectángulo_19304" data-name="Rectángulo 19304" width="212.288" height="214.511" transform="translate(139.759 5799.532)" fill="none"/>
    <g id="Grupo_66458" data-name="Grupo 66458">
      <g id="Grupo_66437" data-name="Grupo 66437">
        <path id="Trazado_146131" data-name="Trazado 146131" d="M245.123,5844.074s-.005-4.065-4.037-2.845c-2.292.693-5.205,3.961-3.49,10.258,1.745,6.407-3.467,10.764-3.467,10.764s3.956.04,5.55-1.019,1.345-2.27,1.838-6.3S245.123,5844.074,245.123,5844.074Z" fill="#5e2638"/>
        <g id="Grupo_66434" data-name="Grupo 66434">
          <path id="Trazado_146132" data-name="Trazado 146132" d="M251.969,5856.217s1.885-1.064,3.5,2.861,3.353,12.814,4.14,14.111.032,2.8-4.279,3.893S251.969,5856.217,251.969,5856.217Z" fill="#febfbf"/>
          <path id="Trazado_146133" data-name="Trazado 146133" d="M257.853,5866.727a2.142,2.142,0,0,1-1.846.86c-1.333.007-9.753-11-7.784-11.733a7.217,7.217,0,0,1,4.907.328C254.558,5856.785,256.09,5859.043,257.853,5866.727Z" fill="#ffdc6e"/>
        </g>
        <path id="Trazado_146134" data-name="Trazado 146134" d="M258.034,5944.359c-3.325-2.211-4.865-2.015-4.865-2.015s-2.653.214-3.489-1v-.017a1.519,1.519,0,0,1-.2-1.114c.393-2.456,1.032-3.816,1-4.733-.213-5.324-2.637-13.988-2-18.165.95-6.355-2.146-14.119-1.736-18.967a6.545,6.545,0,0,1,.213-1.31c1.261-4.652,9.876-6.077,9.876-6.077a45.267,45.267,0,0,1-.278,13.644c-2.015,11.727-2.375,28.434-2.392,32.169,0,1.539,2.081,2.784,3.031,3.325,1.359.753,4,2.44,4,2.44S261.375,5946.587,258.034,5944.359Z" fill="#7282b5"/>
        <path id="Trazado_146135" data-name="Trazado 146135" d="M250.057,5923.951c.524,4.193,1.36,10.122,1.13,11.482s-1.556,4.111-1.507,5.9a1.519,1.519,0,0,1-.2-1.114c.393-2.456,1.032-3.816,1-4.733-.213-5.324-2.637-13.988-2-18.165.95-6.355-2.146-14.119-1.736-18.967a12.013,12.013,0,0,1,4.93-.786,4.191,4.191,0,0,1-1,3.013l-1.262,1.786a84.735,84.735,0,0,1,.639,11.908C249.91,5920.2,249.549,5919.742,250.057,5923.951Z" fill="#e8d0c8" style="mix-blend-mode: multiply;isolation: isolate"/>
        <path id="Trazado_146136" data-name="Trazado 146136" d="M251.892,5897.973a4.466,4.466,0,0,1-2.8,2.473s-.59,16.4-1.982,19.934c-1.376,3.538-2.375,16.51-2.326,17.034a9.282,9.282,0,0,0,2.735,6.142c2.539,2.425,3.637,2.867,3.62,3.244a3.093,3.093,0,0,1-3.489,1.933c-2.374-.345-3.03-.508-4.193-1.7-.442-.442-.884-.835-1.277-1.212a3.77,3.77,0,0,1-1.31-1.736c-.181-.95.589-2.817.065-4.6-.508-1.769-1.818-12.874-1.54-15.838.623-6.536,1.376-5.881,1.13-7.731-.262-1.851-3.169-11.457-3.169-22.1a1.372,1.372,0,0,1,.1-.525c1.13-3.292,14.357.172,14.357.172A8.19,8.19,0,0,1,251.892,5897.973Z" fill="#7282b5"/>
        <path id="Trazado_146137" data-name="Trazado 146137" d="M242.179,5945.817a3.77,3.77,0,0,1-1.31-1.736c-.181-.95.589-2.817.065-4.6-.508-1.769-1.818-12.874-1.54-15.838.623-6.536,1.376-5.881,1.13-7.731-.262-1.851-3.169-11.457-3.169-22.1a1.372,1.372,0,0,1,.1-.525,4,4,0,0,1,1.147.361,39.032,39.032,0,0,0,0,8.894c.573,5.028,2.809,13.159,2.809,14.192,0,1.015-1.31,4-1.261,9.518.065,5.519,1.67,13.314,1.572,14.428C241.655,5941.46,240.655,5943.36,242.179,5945.817Z" fill="#e8d0c8" style="mix-blend-mode: multiply;isolation: isolate"/>
        <path id="Trazado_146138" data-name="Trazado 146138" d="M257.362,5870.6a13.826,13.826,0,0,1-.18,2.424v.016c-.016.082-.016.18-.033.262a15.382,15.382,0,0,1-.606,2.572c-.065.229-.131.426-.18.557-.786,2.145.836,13.889.59,14.823-.246.917-.852,1.867-4.832,3.144a20.264,20.264,0,0,1-3.685.787c-.328.049-.655.082-1,.114a28,28,0,0,1-3.488.132c-.213,0-.41,0-.623-.017-.335-.013-.661-.034-.981-.06a14.232,14.232,0,0,1-3.474-.612,4.147,4.147,0,0,1-1.081-.524,1.555,1.555,0,0,1-.442-.409s.475-8.779.2-12.186c-.164-2.1-1.376-4.832-2.506-7.535-.508-1.195-.983-2.391-1.36-3.521q-.22-.688-.393-1.327c-1.818-7.026.868-7.911,2.981-9.565a22.2,22.2,0,0,1,6.732-3.833c3.177-.835,6.535-.131,7.5-.049s3.178.655,4.406,4.832c1.245,4.177,2.261,6.994,2.425,9.057A8.634,8.634,0,0,1,257.362,5870.6Z" fill="#fdd249"/>
        <path id="Trazado_146139" data-name="Trazado 146139" d="M257.362,5870.6a13.826,13.826,0,0,1-.18,2.424v.016c-.016.082-.016.18-.033.262-.213.983-.442,1.933-.606,2.572-.065.229-.131.426-.18.557-.786,2.145.836,13.889.59,14.823-.246.917-.852,1.867-4.832,3.144a20.264,20.264,0,0,1-3.685.787c-.328.049-.655.082-1,.114a28,28,0,0,1-3.488.132c-.213,0-.41,0-.623-.017a12.173,12.173,0,0,1-5.536-1.2,1.555,1.555,0,0,1-.442-.409s.475-8.779.2-12.186c-.164-2.1-1.376-4.832-2.506-7.535,2.161-3.013,4.127-4.831,3.881-3.57-.556,2.948-.573,7.059,3.26,7.141,5.4.148,6.748-1.965,9.32-2.9C255.1,5873.453,256.691,5871.718,257.362,5870.6Z" fill="#ffeecf" style="mix-blend-mode: multiply;isolation: isolate"/>
        <path id="Trazado_146140" data-name="Trazado 146140" d="M250.251,5875.573s-8.082,4.35-11.078,0h0c-.062-3.059-.205-6.361-.205-6.361a9.254,9.254,0,0,0-5.29,1.36c.377,1.13.852,2.326,1.36,3.521,1.13,2.7,2.342,5.438,2.506,7.535.278,3.407-.189,12.179-.189,12.179a3.127,3.127,0,0,0,1.523.933,42.284,42.284,0,0,1-.671-5.683c-.279-5.815.876-6.676.975-9.673.018-.582.022-1.322.016-2.135C240.652,5878.01,244.3,5879.089,250.251,5875.573Z" fill="#dedede" style="mix-blend-mode: multiply;isolation: isolate"/>
        <g id="Grupo_66436" data-name="Grupo 66436">
          <g id="Grupo_66435" data-name="Grupo 66435">
            <path id="Trazado_146141" data-name="Trazado 146141" d="M237.823,5882.389s1.744-12.812.914-16.752-3.485-3.994-4.66-3.481-1.761,1.818-1.354,7.762,1.1,13.5,1.277,14.549S237.823,5882.389,237.823,5882.389Z" fill="#febfbf"/>
          </g>
        </g>
        <path id="Trazado_146142" data-name="Trazado 146142" d="M248.461,5850.291a62.455,62.455,0,0,0,.212,6.328c.263,1.725.835,2.747-1.109,3.376-1.112.36-5.283-.785-7.023-2.73-.154-.239.308-.54.7-1.9a12.255,12.255,0,0,0,.671-4.668c-.011-2.676.122-5.127.122-5.127Z" fill="#ffadb7"/>
        <path id="Trazado_146143" data-name="Trazado 146143" d="M248.711,5856.769a3.779,3.779,0,0,1-1.327-.163c-2.653-.672-3.374-.8-4.177,0-.8.786-.507,1.67.394,2.62a8.3,8.3,0,0,1-3.063-1.965c-.148-.23.311-.541.7-1.9a12.433,12.433,0,0,0,.672-4.668v-1.278l6.649,6.077c.033.442.066.835.115,1.13A.488.488,0,0,0,248.711,5856.769Z" fill="url(#linear-gradient)"/>
        <path id="Trazado_146144" data-name="Trazado 146144" d="M245.78,5837.555s4.4.926,5.553,4.295.962,3.517.888,4.868.361,3.242-.157,5.437-1.028,4.058-2.027,4.391-6.7-.814-8.773-4.7-4.03-7.445-2.444-11.057C239.931,5838.259,243.559,5837,245.78,5837.555Z" fill="#febfbf"/>
        <path id="Trazado_146145" data-name="Trazado 146145" d="M238.484,5841.021c.833-2.205,1.907-2.63,1.907-2.63s1.032-1.124,3.942-1.128a9.138,9.138,0,0,1,6.317,2.664c1.568,1.709.92,2.633.92,2.633l-.011-.026a.637.637,0,0,0-.848-.342c-.744.3-1.053.879-1.661,1.093-4.278,1.51-5.137.365-5.49,2.343-.356,1.994-.545,2.7-1.44,2.391-1.44-.5-1.376-.189-2.076.782a24.943,24.943,0,0,0,.967,2.806s-.037.9-1.683-2.724C238.7,5847.388,237.1,5845.377,238.484,5841.021Z" fill="#754554"/>
        <path id="Trazado_146146" data-name="Trazado 146146" d="M241.575,5848.513a1.752,1.752,0,0,0-2.036-.925c-1.416.385-1.148,2,.37,3.442s1.888-.259,1.962-.37S241.205,5849.513,241.575,5848.513Z" fill="url(#linear-gradient-2)"/>
        <path id="Trazado_146147" data-name="Trazado 146147" d="M241.061,5848.709s-.624-.738-1.232-.417c-.935.493.417,2.022.547,2.217s.82.118.9-.351S240.584,5849.3,241.061,5848.709Z" fill="url(#linear-gradient-3)"/>
        <path id="Trazado_146148" data-name="Trazado 146148" d="M234.863,5861.753s-2-.1-2.431,2.738.384,9.495.384,9.495a21.768,21.768,0,0,1,3.4-.282,10.42,10.42,0,0,1,2.741.282,53.139,53.139,0,0,0,0-8.318C238.549,5863.135,237.6,5861.471,234.863,5861.753Z" fill="#ffdc6e"/>
        <path id="Trazado_146149" data-name="Trazado 146149" d="M252.964,5842.539l-.312.41s-6.813,1.768-7.436,1.916c-.36.1-.573.328-1.277.557h-.017a9.492,9.492,0,0,1-2.244.393,17.55,17.55,0,0,1-4.127-.18,15.369,15.369,0,0,1-.049-3.866,7.125,7.125,0,0,1,5.274-4.962,8.772,8.772,0,0,1,1.49-.279c3.309-.344,6.388,1.065,7.436,2.67A8.476,8.476,0,0,1,252.964,5842.539Z" fill="#fecb4c"/>
        <path id="Trazado_146150" data-name="Trazado 146150" d="M243.922,5845.422a9.492,9.492,0,0,1-2.244.393,17.55,17.55,0,0,1-4.127-.18,15.369,15.369,0,0,1-.049-3.866,7.125,7.125,0,0,1,5.274-4.962,2.915,2.915,0,0,0-1.785,2.325C240.876,5840.819,240.859,5844.717,243.922,5845.422Z" fill="#fcf5e8" style="mix-blend-mode: multiply;isolation: isolate"/>
        <path id="Trazado_146151" data-name="Trazado 146151" d="M243.816,5845.354s5.344,3.372,7.214,1.978c2.384-1.776,4.061-1.806,5.324-1.431l1.262.376a.312.312,0,0,0,.234-.362c-.034-.307-4.88-3.378-4.88-3.378S250.227,5840.494,243.816,5845.354Z" fill="#725e6d"/>
        <path id="Trazado_146152" data-name="Trazado 146152" d="M247.2,5942.757a2.537,2.537,0,0,0-1.289.02,7.036,7.036,0,0,0-1.464.519c-.466.214-.481.4-.45.839-.6-.3-2.49-1.248-2.751-1.888a5.743,5.743,0,0,1-.136-1.637s-.031.19-.106.964-.253,2.738-.224,3.258,2.79,2.763,3.557,3.3c1.979,1.388,2.635,1.908,5.4,2s2.61-1.8,2.583-2.253-2.76-2.778-3.515-3.344a5.515,5.515,0,0,1-1.067-1.362A1.039,1.039,0,0,0,247.2,5942.757Z" fill="#5c6467"/>
        <path id="Trazado_146153" data-name="Trazado 146153" d="M255.367,5938.76c.773-.224,1.534.866,2.073,1.347a42.471,42.471,0,0,1,4.281,2.759,3.073,3.073,0,0,1,.176,1.482,3.407,3.407,0,0,1-3.664.821c-2.083-.758-2.832-1.468-4.223-1.81s-4.125-.9-4.481-1.661.039-3.286.039-3.286.436-.167.61.143a4.11,4.11,0,0,0,1.918,1.494,4.571,4.571,0,0,0,2.085.081c-.043-.193-.116-.383.026-.558a1.632,1.632,0,0,1,.388-.288c.187-.125.347-.287.535-.412A.884.884,0,0,1,255.367,5938.76Z" fill="#5c6467"/>
      </g>
      <g id="Grupo_66443" data-name="Grupo 66443">
        <g id="Grupo_66438" data-name="Grupo 66438">
          <path id="Trazado_146154" data-name="Trazado 146154" d="M207.424,5977.1,162.4,5951.112l28.648-16.536,8.644,11.02L229.16,5977.1Z" fill="#becdd4" style="mix-blend-mode: multiply;isolation: isolate"/>
          <path id="Trazado_146155" data-name="Trazado 146155" d="M188.124,5953.412v-44.6l41.036,23.691,44.26-39.136v-33.784l51.993,17.368v44.6L229.16,5977.1Z" fill="#ebe7e3"/>
          <path id="Trazado_146156" data-name="Trazado 146156" d="M188.124,5953.412v-44.6l41.036,23.691,44.26-39.136v-33.784l51.993,17.368v9.728l-96.253,55.553Z" fill="#d9d3cc"/>
          <path id="Trazado_146157" data-name="Trazado 146157" d="M188.124,5908.814l10.959-6.323,13.823,7.981,74.333-42.907-13.819-7.98,10.957-6.323,41.036,23.691-16.226,9.365-80.027,46.188Z" fill="#e8b687"/>
          <path id="Trazado_146158" data-name="Trazado 146158" d="M188.124,5908.814l41.036,23.691v44.6l-41.036-23.691Z" fill="#ded8d1"/>
        </g>
        <g id="Grupo_66439" data-name="Grupo 66439">
          <path id="Trazado_146159" data-name="Trazado 146159" d="M329.393,5875.83v5.86l-14.942,8.62v-5.86Z" fill="#c99a6b"/>
          <path id="Trazado_146160" data-name="Trazado 146160" d="M314.451,5884.45v5.86l-45.016-25.991v-5.86Z" fill="#ae835b"/>
          <path id="Trazado_146161" data-name="Trazado 146161" d="M314.455,5884.452l-45.019-25.991,14.942-8.624,45.019,25.992Z" fill="#e8b687"/>
        </g>
        <g id="Grupo_66440" data-name="Grupo 66440">
          <path id="Trazado_146162" data-name="Trazado 146162" d="M314.455,5884.452v5.86L244.1,5930.917v-5.86Z" fill="#c99a6b"/>
          <path id="Trazado_146163" data-name="Trazado 146163" d="M244.1,5925.057v5.86l-31.2-18.011v-5.86Z" fill="#ae835b"/>
          <path id="Trazado_146164" data-name="Trazado 146164" d="M244.107,5925.059l-31.2-18.012,70.352-40.609,31.2,18.011Z" fill="#e8b687"/>
        </g>
        <g id="Grupo_66442" data-name="Grupo 66442">
          <g id="Grupo_66441" data-name="Grupo 66441">
            <path id="Trazado_146165" data-name="Trazado 146165" d="M244.1,5925.057v5.862l-14.942,8.62v-5.862Z" fill="#c99a6b"/>
            <path id="Trazado_146166" data-name="Trazado 146166" d="M229.157,5933.677v5.862l-45.016-25.99v-5.86Z" fill="#ae835b"/>
            <path id="Trazado_146167" data-name="Trazado 146167" d="M229.161,5933.681l-45.019-25.992,14.942-8.624,45.019,25.991Z" fill="#e8b687"/>
          </g>
        </g>
      </g>
      <g id="Grupo_66455" data-name="Grupo 66455">
        <path id="Trazado_146168" data-name="Trazado 146168" d="M256.6,5877.859c1.143,1.326,5.252,3.869,5.252,3.869s.188.237.438.507l0,.006a.022.022,0,0,1,.01.013,3.368,3.368,0,0,0,.806.654c.528.249,1.592,1.592,1.848,1.657s.5-.212.775-.142a.238.238,0,0,0,.16-.022l.006,0a.37.37,0,0,0,.065-.043s.009-.008.015-.013a.45.45,0,0,0,.046-.046c.018-.021.036-.042.054-.066a.008.008,0,0,0,0-.007.124.124,0,0,0,.027-.033,1.388,1.388,0,0,0,.112-.207l.179-.111.284-.18a.227.227,0,0,0,.034.033l0,0a.06.06,0,0,0,.025.021.475.475,0,0,0,.082.051.213.213,0,0,0,.046.017.175.175,0,0,0,.052.017.368.368,0,0,0,.088.011.357.357,0,0,0,.1,0,.808.808,0,0,0,.351-.163,10.259,10.259,0,0,0,1.251-1.3.583.583,0,0,0,.053-.685,3.971,3.971,0,0,1-.234-.525l-.005-.013a.155.155,0,0,1-.032-.066,4,4,0,0,0-.758-1.014c-.022-.025-.031-.038-.031-.038-.326-.364-.677-.732-.9-.96-.034-.034-.068-.067-.094-.095-.008-.006-.013-.016-.021-.022a.589.589,0,0,1-.052-.056c-.013-.012-.021-.021-.029-.027a.073.073,0,0,0-.013-.012l-.005-.006-.562.09a2.721,2.721,0,0,0-.788-.34c-.278-.047-.829.4-1.352.382h0a.723.723,0,0,1-.359-.106c-.615-.371-3.018-4.77-3.681-5.108s-1.688.464-1.688.464C255.972,5875.531,255.45,5876.537,256.6,5877.859Z" fill="#febfbf"/>
        <g id="Grupo_66453" data-name="Grupo 66453">
          <g id="Grupo_66447" data-name="Grupo 66447">
            <path id="Trazado_146169" data-name="Trazado 146169" d="M279.119,5883.085l-6.921-4a.916.916,0,0,0-.828,0l-17.409,10.122-.786.191v.389h0a.282.282,0,0,0,.17.259l7.075,4.09a.907.907,0,0,0,.828,0l18.026-10.48a.3.3,0,0,0,.168-.229h0V5883Z" fill="#c5c9d8"/>
            <g id="Grupo_66446" data-name="Grupo 66446">
              <path id="Trazado_146170" data-name="Trazado 146170" d="M253.347,5889.642l7.075,4.091a.913.913,0,0,0,.828,0l18.026-10.481a.254.254,0,0,0,0-.48l-7.075-4.091a.913.913,0,0,0-.828,0l-18.026,10.481A.254.254,0,0,0,253.347,5889.642Z" fill="#dadae8"/>
              <g id="Grupo_66444" data-name="Grupo 66444">
                <path id="Trazado_146171" data-name="Trazado 146171" d="M277.505,5882.659v-.094h-.077l-.784-.453a.32.32,0,0,0-.289,0l-.787.457H275.5v.089h0v.006h0a.1.1,0,0,0,.059.078l.8.462a.323.323,0,0,0,.29,0l.8-.462A.1.1,0,0,0,277.505,5882.659Z" fill="#e7e7f0"/>
                <path id="Trazado_146172" data-name="Trazado 146172" d="M272.455,5879.743v-.093h-.077l-.784-.453a.32.32,0,0,0-.289,0l-.787.457h-.068v.089h0v.006h0a.1.1,0,0,0,.059.078l.8.462a.317.317,0,0,0,.29,0l.8-.462A.1.1,0,0,0,272.455,5879.743Z" fill="#e7e7f0"/>
                <path id="Trazado_146173" data-name="Trazado 146173" d="M271.209,5880.467v-.093h-.077l-.784-.453a.32.32,0,0,0-.289,0l-.787.457H269.2v.088h0v.006h0a.1.1,0,0,0,.059.078l.8.462a.32.32,0,0,0,.29,0l.8-.463A.1.1,0,0,0,271.209,5880.467Z" fill="#e7e7f0"/>
                <path id="Trazado_146174" data-name="Trazado 146174" d="M269.963,5881.191v-.093h-.077l-.784-.453a.323.323,0,0,0-.29,0l-.786.458h-.068v.088h0v.006h0a.1.1,0,0,0,.059.078l.8.462a.317.317,0,0,0,.29,0l.8-.463A.1.1,0,0,0,269.963,5881.191Z" fill="#e7e7f0"/>
                <path id="Trazado_146175" data-name="Trazado 146175" d="M268.717,5881.915v-.093h-.077l-.784-.452a.317.317,0,0,0-.29,0l-.786.457h-.069v.089h0v0h0a.107.107,0,0,0,.06.079l.8.462a.323.323,0,0,0,.29,0l.8-.462A.1.1,0,0,0,268.717,5881.915Z" fill="#e7e7f0"/>
                <path id="Trazado_146176" data-name="Trazado 146176" d="M276.259,5883.383v-.093h-.077l-.784-.453a.32.32,0,0,0-.289,0l-.787.457h-.068v.089h0v.006h0a.1.1,0,0,0,.059.078l.8.462a.323.323,0,0,0,.29,0l.8-.462A.1.1,0,0,0,276.259,5883.383Z" fill="#e7e7f0"/>
                <path id="Trazado_146177" data-name="Trazado 146177" d="M274.3,5883.068v-.093h-.077l-.784-.453a.323.323,0,0,0-.29,0l-.786.457H272.3v.089h0v.006h0a.107.107,0,0,0,.06.078l.8.462a.32.32,0,0,0,.29,0l.795-.462A.1.1,0,0,0,274.3,5883.068Z" fill="#e7e7f0"/>
                <path id="Trazado_146178" data-name="Trazado 146178" d="M273.054,5883.792v-.093h-.076l-.784-.453a.323.323,0,0,0-.29,0l-.786.457h-.069v.088h0v.006h0a.107.107,0,0,0,.06.078l.8.462a.317.317,0,0,0,.29,0l.795-.462A.1.1,0,0,0,273.054,5883.792Z" fill="#e7e7f0"/>
                <path id="Trazado_146179" data-name="Trazado 146179" d="M272.407,5882.7v-.093h-.077l-.784-.452a.317.317,0,0,0-.289,0l-.787.457H270.4v.089h0v.005h0a.105.105,0,0,0,.059.079l.8.461a.32.32,0,0,0,.29,0l.8-.462A.1.1,0,0,0,272.407,5882.7Z" fill="#e7e7f0"/>
                <path id="Trazado_146180" data-name="Trazado 146180" d="M271.136,5881.962v-.093h-.077l-.784-.452a.317.317,0,0,0-.289,0l-.787.457h-.068v.089h0v0h0a.1.1,0,0,0,.059.079l.8.462a.32.32,0,0,0,.29,0l.8-.462A.1.1,0,0,0,271.136,5881.962Z" fill="#e7e7f0"/>
                <path id="Trazado_146181" data-name="Trazado 146181" d="M269.89,5882.687v-.094h-.077l-.784-.453a.32.32,0,0,0-.289,0l-.787.457h-.068v.089h0v.006h0a.1.1,0,0,0,.059.078l.8.462a.323.323,0,0,0,.29,0l.8-.462A.1.1,0,0,0,269.89,5882.687Z" fill="#e7e7f0"/>
                <path id="Trazado_146182" data-name="Trazado 146182" d="M268.644,5883.411v-.093h-.077l-.784-.453a.32.32,0,0,0-.29,0l-.786.457h-.068v.089h0v.006h0a.108.108,0,0,0,.06.078l.8.462a.323.323,0,0,0,.29,0l.8-.462A.1.1,0,0,0,268.644,5883.411Z" fill="#e7e7f0"/>
                <path id="Trazado_146183" data-name="Trazado 146183" d="M267.4,5884.135v-.093h-.077l-.784-.453a.323.323,0,0,0-.29,0l-.786.457h-.069v.088h0v.006h0a.108.108,0,0,0,.06.078l.8.462a.317.317,0,0,0,.29,0l.8-.462A.1.1,0,0,0,267.4,5884.135Z" fill="#e7e7f0"/>
                <path id="Trazado_146184" data-name="Trazado 146184" d="M266.152,5884.859v-.093h-.077l-.784-.453a.323.323,0,0,0-.29,0l-.786.457h-.069v.088h0v.006h0a.107.107,0,0,0,.06.078l.8.462a.317.317,0,0,0,.29,0l.8-.463A.1.1,0,0,0,266.152,5884.859Z" fill="#e7e7f0"/>
                <path id="Trazado_146185" data-name="Trazado 146185" d="M264.9,5885.583v-.093h-.076l-.784-.453a.323.323,0,0,0-.29,0l-.786.458H262.9v.088h0v0h0a.1.1,0,0,0,.06.078l.8.462a.32.32,0,0,0,.29,0l.8-.463A.1.1,0,0,0,264.9,5885.583Z" fill="#e7e7f0"/>
                <path id="Trazado_146186" data-name="Trazado 146186" d="M263.659,5886.307v-.093h-.076l-.784-.452a.314.314,0,0,0-.29,0l-.787.457h-.068v.089h0v0h0a.107.107,0,0,0,.06.079l.8.462a.323.323,0,0,0,.29,0l.8-.462A.1.1,0,0,0,263.659,5886.307Z" fill="#e7e7f0"/>
                <path id="Trazado_146187" data-name="Trazado 146187" d="M262.413,5887.032v-.094h-.076l-.784-.452a.32.32,0,0,0-.29,0l-.787.457h-.068v.089h0v.006h0a.105.105,0,0,0,.06.078l.8.462a.323.323,0,0,0,.29,0l.8-.462A.1.1,0,0,0,262.413,5887.032Z" fill="#e7e7f0"/>
                <path id="Trazado_146188" data-name="Trazado 146188" d="M259.162,5887.756v.093h.077l.784.453a.317.317,0,0,0,.289,0l.787-.457h.068v-.089h0v-.006h0a.106.106,0,0,0-.059-.078l-.8-.462a.323.323,0,0,0-.29,0l-.8.462A.1.1,0,0,0,259.162,5887.756Z" fill="#e7e7f0"/>
                <path id="Trazado_146189" data-name="Trazado 146189" d="M259.832,5887.078v-.093h-.076l-.784-.452a.314.314,0,0,0-.29,0l-.786.457h-.069v.089h0v0h0a.1.1,0,0,0,.06.078l.8.462a.32.32,0,0,0,.29,0l.8-.463A.1.1,0,0,0,259.832,5887.078Z" fill="#e7e7f0"/>
                <path id="Trazado_146190" data-name="Trazado 146190" d="M258.586,5887.8v-.093h-.076l-.784-.452a.32.32,0,0,0-.29,0l-.786.457h-.069v.089h0v0h0a.107.107,0,0,0,.06.079l.8.462a.323.323,0,0,0,.29,0l.8-.462A.1.1,0,0,0,258.586,5887.8Z" fill="#e7e7f0"/>
                <path id="Trazado_146191" data-name="Trazado 146191" d="M256.063,5889.269v-.094h-.076l-.784-.453a.317.317,0,0,0-.29,0l-.786.457h-.069v.089h0v.006h0a.107.107,0,0,0,.06.078l.8.462a.323.323,0,0,0,.29,0l.795-.462A.1.1,0,0,0,256.063,5889.269Z" fill="#e7e7f0"/>
                <path id="Trazado_146192" data-name="Trazado 146192" d="M257.352,5889.835l-.784-.453a.32.32,0,0,0-.289,0l-.112.065h0l-.675.393h-.068v.039l-.043.025h-.069v.089h0V5890h0a.108.108,0,0,0,.06.078l.8.462a.323.323,0,0,0,.29,0l.907-.527a.1.1,0,0,0,.059-.084v-.093Z" fill="#e7e7f0"/>
                <path id="Trazado_146193" data-name="Trazado 146193" d="M259.921,5888.48v-.093h-.077l-.784-.453a.32.32,0,0,0-.289,0l-.787.457h-.068v.089h0v.006h0a.105.105,0,0,0,.059.078l.8.462a.325.325,0,0,0,.291,0l.8-.462A.1.1,0,0,0,259.921,5888.48Z" fill="#e7e7f0"/>
                <path id="Trazado_146194" data-name="Trazado 146194" d="M258.675,5889.2v-.093H258.6l-.784-.453a.317.317,0,0,0-.289,0l-.787.457h-.068v.088h0v.006h0a.106.106,0,0,0,.059.078l.8.462a.317.317,0,0,0,.29,0l.8-.462A.1.1,0,0,0,258.675,5889.2Z" fill="#e7e7f0"/>
                <path id="Trazado_146195" data-name="Trazado 146195" d="M271.161,5883.421v-.094h-.077l-.784-.453a.317.317,0,0,0-.289,0l-.787.457h-.068v.089h0v0h0a.1.1,0,0,0,.059.079l.8.462a.32.32,0,0,0,.29,0l.8-.462A.1.1,0,0,0,271.161,5883.421Z" fill="#e7e7f0"/>
                <path id="Trazado_146196" data-name="Trazado 146196" d="M269.915,5884.145v-.094h-.077l-.784-.453a.316.316,0,0,0-.289,0l-.787.457h-.068v.089h0v.006h0a.1.1,0,0,0,.059.078l.8.462a.323.323,0,0,0,.29,0l.8-.462A.1.1,0,0,0,269.915,5884.145Z" fill="#e7e7f0"/>
                <path id="Trazado_146197" data-name="Trazado 146197" d="M268.669,5884.869v-.093h-.077l-.784-.453a.32.32,0,0,0-.29,0l-.786.457h-.068v.089h0v.006h0a.1.1,0,0,0,.059.078l.8.462a.323.323,0,0,0,.29,0l.8-.462A.1.1,0,0,0,268.669,5884.869Z" fill="#e7e7f0"/>
                <path id="Trazado_146198" data-name="Trazado 146198" d="M267.423,5885.593v-.093h-.077l-.784-.453a.323.323,0,0,0-.29,0l-.786.457h-.069v.089h0v.006h0a.107.107,0,0,0,.06.078l.8.462a.317.317,0,0,0,.29,0l.8-.462A.1.1,0,0,0,267.423,5885.593Z" fill="#e7e7f0"/>
                <path id="Trazado_146199" data-name="Trazado 146199" d="M266.177,5886.317v-.093H266.1l-.784-.453a.323.323,0,0,0-.29,0l-.786.457h-.069v.088h0v.006h0a.105.105,0,0,0,.06.078l.8.462a.317.317,0,0,0,.29,0l.8-.463A.1.1,0,0,0,266.177,5886.317Z" fill="#e7e7f0"/>
                <path id="Trazado_146200" data-name="Trazado 146200" d="M264.93,5887.041v-.093h-.076l-.784-.452a.317.317,0,0,0-.29,0l-.786.457h-.069v.088h0v0h0a.1.1,0,0,0,.06.078l.8.462a.32.32,0,0,0,.29,0l.8-.463A.1.1,0,0,0,264.93,5887.041Z" fill="#e7e7f0"/>
                <path id="Trazado_146201" data-name="Trazado 146201" d="M263.684,5887.765v-.093h-.076l-.784-.452a.314.314,0,0,0-.29,0l-.786.457h-.069v.089h0v0h0a.107.107,0,0,0,.06.079l.8.461a.32.32,0,0,0,.29,0l.8-.462A.1.1,0,0,0,263.684,5887.765Z" fill="#e7e7f0"/>
                <path id="Trazado_146202" data-name="Trazado 146202" d="M262.438,5888.49v-.094h-.076l-.785-.453a.317.317,0,0,0-.289,0l-.787.457h-.068v.089h0v0h0a.109.109,0,0,0,.059.079l.8.462a.323.323,0,0,0,.29,0l.795-.462A.1.1,0,0,0,262.438,5888.49Z" fill="#e7e7f0"/>
                <path id="Trazado_146203" data-name="Trazado 146203" d="M261.192,5889.214v-.093h-.076l-.784-.453a.323.323,0,0,0-.29,0l-.787.457h-.068v.089h0v.006h0a.1.1,0,0,0,.06.078l.8.462a.32.32,0,0,0,.29,0l.795-.462A.1.1,0,0,0,261.192,5889.214Z" fill="#e7e7f0"/>
                <path id="Trazado_146204" data-name="Trazado 146204" d="M271.808,5884.516v-.093h-.076l-.784-.453a.32.32,0,0,0-.29,0l-.786.458H269.8v.088h0v.006h0a.106.106,0,0,0,.06.078l.8.462a.32.32,0,0,0,.29,0l.795-.463A.1.1,0,0,0,271.808,5884.516Z" fill="#e7e7f0"/>
                <path id="Trazado_146205" data-name="Trazado 146205" d="M270.562,5885.24v-.093h-.076l-.784-.452a.317.317,0,0,0-.29,0l-.787.457h-.068v.089h0v0h0a.107.107,0,0,0,.06.079l.8.461a.32.32,0,0,0,.29,0l.795-.462A.1.1,0,0,0,270.562,5885.24Z" fill="#e7e7f0"/>
                <path id="Trazado_146206" data-name="Trazado 146206" d="M269.316,5885.965v-.094h-.076l-.785-.452a.317.317,0,0,0-.289,0l-.787.457h-.068v.089h0v.005h0a.105.105,0,0,0,.059.079l.8.462a.323.323,0,0,0,.29,0l.795-.462A.1.1,0,0,0,269.316,5885.965Z" fill="#e7e7f0"/>
                <path id="Trazado_146207" data-name="Trazado 146207" d="M268.07,5886.689v-.094h-.076l-.785-.453a.317.317,0,0,0-.289,0l-.787.457h-.068v.089h0v0h0a.1.1,0,0,0,.059.079l.8.462a.323.323,0,0,0,.29,0l.795-.462A.1.1,0,0,0,268.07,5886.689Z" fill="#e7e7f0"/>
                <path id="Trazado_146208" data-name="Trazado 146208" d="M266.824,5887.413v-.093h-.077l-.784-.453a.317.317,0,0,0-.289,0l-.787.457h-.068v.089h0v.006h0a.106.106,0,0,0,.059.078l.8.462a.325.325,0,0,0,.291,0l.8-.462A.1.1,0,0,0,266.824,5887.413Z" fill="#e7e7f0"/>
                <path id="Trazado_146209" data-name="Trazado 146209" d="M265.578,5888.137v-.093H265.5l-.784-.453a.32.32,0,0,0-.289,0l-.787.457h-.068v.089h0v.006h0a.106.106,0,0,0,.059.078l.8.462a.323.323,0,0,0,.29,0l.8-.462A.1.1,0,0,0,265.578,5888.137Z" fill="#e7e7f0"/>
                <path id="Trazado_146210" data-name="Trazado 146210" d="M264.332,5888.861v-.093h-.077l-.784-.453a.32.32,0,0,0-.289,0l-.787.457h-.068v.088h0v.006h0a.1.1,0,0,0,.059.078l.8.462a.317.317,0,0,0,.29,0l.8-.462A.1.1,0,0,0,264.332,5888.861Z" fill="#e7e7f0"/>
                <path id="Trazado_146211" data-name="Trazado 146211" d="M263.086,5889.585v-.093h-.077l-.784-.452a.315.315,0,0,0-.289,0l-.787.457h-.068v.088h0v.006h0a.1.1,0,0,0,.059.078l.8.462a.317.317,0,0,0,.29,0l.8-.463A.1.1,0,0,0,263.086,5889.585Z" fill="#e7e7f0"/>
                <path id="Trazado_146212" data-name="Trazado 146212" d="M261.84,5890.309v-.093h-.077l-.784-.452a.314.314,0,0,0-.29,0l-.786.457h-.068v.088h0v0h0a.1.1,0,0,0,.059.079l.8.461a.32.32,0,0,0,.29,0l.8-.462A.1.1,0,0,0,261.84,5890.309Z" fill="#e7e7f0"/>
                <path id="Trazado_146213" data-name="Trazado 146213" d="M275.013,5884.107v-.093h-.077l-.784-.453a.32.32,0,0,0-.289,0l-.787.457h-.068v.088h0v.006h0a.1.1,0,0,0,.059.078l.8.462a.314.314,0,0,0,.29,0l.8-.462A.1.1,0,0,0,275.013,5884.107Z" fill="#e7e7f0"/>
                <path id="Trazado_146214" data-name="Trazado 146214" d="M273.767,5884.831v-.093h-.077l-.784-.453a.32.32,0,0,0-.29,0l-.786.457h-.068v.088h0v.006h0a.1.1,0,0,0,.059.078l.8.462a.32.32,0,0,0,.29,0l.8-.463A.1.1,0,0,0,273.767,5884.831Z" fill="#e7e7f0"/>
                <path id="Trazado_146215" data-name="Trazado 146215" d="M272.521,5885.555v-.093h-.077l-.784-.453a.323.323,0,0,0-.29,0l-.786.458h-.069v.088h0v.006h0a.1.1,0,0,0,.06.078l.8.462a.32.32,0,0,0,.29,0l.8-.463A.1.1,0,0,0,272.521,5885.555Z" fill="#e7e7f0"/>
                <path id="Trazado_146216" data-name="Trazado 146216" d="M271.275,5886.279v-.093H271.2l-.784-.452a.317.317,0,0,0-.29,0l-.786.457h-.069v.089h0v.005h0a.107.107,0,0,0,.06.079l.8.462a.323.323,0,0,0,.29,0l.795-.462A.1.1,0,0,0,271.275,5886.279Z" fill="#e7e7f0"/>
                <path id="Trazado_146217" data-name="Trazado 146217" d="M270.029,5887v-.094h-.077l-.784-.452a.32.32,0,0,0-.29,0l-.786.457h-.069V5887h0v.006h0a.107.107,0,0,0,.06.078l.8.462a.32.32,0,0,0,.29,0l.795-.462A.1.1,0,0,0,270.029,5887Z" fill="#e7e7f0"/>
                <path id="Trazado_146218" data-name="Trazado 146218" d="M268.782,5887.728v-.094h-.076l-.784-.453a.318.318,0,0,0-.29,0l-.786.457h-.069v.089h0v.006h0a.107.107,0,0,0,.06.078l.8.462a.323.323,0,0,0,.29,0l.795-.462A.1.1,0,0,0,268.782,5887.728Z" fill="#e7e7f0"/>
                <path id="Trazado_146219" data-name="Trazado 146219" d="M267.536,5888.452v-.093h-.076l-.784-.453a.323.323,0,0,0-.29,0l-.787.457h-.068v.089h0v.006h0a.108.108,0,0,0,.06.078l.8.462a.323.323,0,0,0,.29,0l.795-.462A.1.1,0,0,0,267.536,5888.452Z" fill="#e7e7f0"/>
                <path id="Trazado_146220" data-name="Trazado 146220" d="M266.29,5889.176v-.093h-.076l-.784-.453a.323.323,0,0,0-.29,0l-.787.457h-.068v.089h0v.006h0a.107.107,0,0,0,.06.078l.8.462a.317.317,0,0,0,.29,0l.795-.462A.1.1,0,0,0,266.29,5889.176Z" fill="#e7e7f0"/>
                <path id="Trazado_146221" data-name="Trazado 146221" d="M265.044,5889.9v-.093h-.076l-.785-.453a.32.32,0,0,0-.289,0l-.787.458h-.068v.088h0v.006h0a.1.1,0,0,0,.06.078l.8.462a.314.314,0,0,0,.29,0l.795-.462A.1.1,0,0,0,265.044,5889.9Z" fill="#e7e7f0"/>
                <path id="Trazado_146222" data-name="Trazado 146222" d="M263.8,5890.624v-.093h-.076l-.785-.452a.315.315,0,0,0-.289,0l-.787.457h-.068v.088h0v.006h0a.1.1,0,0,0,.059.078l.8.462a.32.32,0,0,0,.29,0l.8-.463A.1.1,0,0,0,263.8,5890.624Z" fill="#e7e7f0"/>
                <path id="Trazado_146223" data-name="Trazado 146223" d="M262.552,5891.348v-.093h-.077l-.784-.452a.315.315,0,0,0-.289,0l-.787.457h-.068v.089h0v0h0a.106.106,0,0,0,.059.079l.8.462a.323.323,0,0,0,.29,0l.8-.462A.1.1,0,0,0,262.552,5891.348Z" fill="#e7e7f0"/>
                <path id="Trazado_146224" data-name="Trazado 146224" d="M261.306,5891.974l-.078,0-.783-.452a.32.32,0,0,0-.29,0l-.968.562-.079.005v.1h0a.108.108,0,0,0,.059.074l.8.462a.323.323,0,0,0,.29,0l.987-.574a.1.1,0,0,0,.059-.088h0Z" fill="#e7e7f0"/>
                <path id="Trazado_146225" data-name="Trazado 146225" d="M267.471,5882.637v-.091h-.076l-.785-.453a.316.316,0,0,0-.222-.026.245.245,0,0,0-.068.026l-.786.457h-.069v.04l-5.537,3.218h0l-.786.457h-.069v.088h0v0h0v0l0,.018,0,0,.009.016.008.009.01.011a.158.158,0,0,0,.025.017h0l.8.462a.232.232,0,0,0,.068.027.368.368,0,0,0,.077.008.3.3,0,0,0,.145-.034l.8-.463h0l6.392-3.714A.1.1,0,0,0,267.471,5882.637Z" fill="#e7e7f0"/>
                <path id="Trazado_146226" data-name="Trazado 146226" d="M276.736,5883.883v-.091l-.051.012-.01-.006-.215-.124a.32.32,0,0,0-.29,0l-.736.428-.118.028v.1a.107.107,0,0,0,.061.079l.215.124a.318.318,0,0,0,.29,0l.8-.462a.1.1,0,0,0,.059-.082h0Z" fill="#e7e7f0"/>
                <path id="Trazado_146227" data-name="Trazado 146227" d="M275.49,5884.607v-.091l-.051.013-.01-.007-.215-.124a.32.32,0,0,0-.29,0l-.736.428-.119.028v.1a.1.1,0,0,0,.06.079l.216.125a.32.32,0,0,0,.29,0l.8-.462a.1.1,0,0,0,.059-.082h0Z" fill="#e7e7f0"/>
                <path id="Trazado_146228" data-name="Trazado 146228" d="M274.244,5885.331v-.091l-.052.013-.009-.007-.215-.124a.32.32,0,0,0-.29,0l-.736.428-.119.028v.095a.1.1,0,0,0,.06.079l.216.125a.32.32,0,0,0,.29,0l.795-.462a.1.1,0,0,0,.059-.082h0Z" fill="#e7e7f0"/>
                <path id="Trazado_146229" data-name="Trazado 146229" d="M273,5886.056v-.091l-.052.012-.009-.007-.215-.124a.314.314,0,0,0-.29,0l-.736.427-.119.028v.1a.106.106,0,0,0,.06.08l.216.124a.32.32,0,0,0,.29,0l.795-.462a.1.1,0,0,0,.059-.082Z" fill="#e7e7f0"/>
                <path id="Trazado_146230" data-name="Trazado 146230" d="M271.752,5886.78v-.091l-.052.012-.009-.007-.215-.124a.322.322,0,0,0-.291,0l-.735.427-.119.028v.1a.106.106,0,0,0,.06.08l.215.124a.319.319,0,0,0,.291,0l.794-.462a.1.1,0,0,0,.06-.081h0Z" fill="#e7e7f0"/>
                <path id="Trazado_146231" data-name="Trazado 146231" d="M270.506,5887.5v-.091l-.052.012-.009-.006-.216-.125a.317.317,0,0,0-.289,0l-.736.427-.119.029v.094a.106.106,0,0,0,.06.08l.215.124a.314.314,0,0,0,.29,0l.8-.461a.105.105,0,0,0,.06-.082h0Z" fill="#e7e7f0"/>
                <path id="Trazado_146232" data-name="Trazado 146232" d="M269.26,5888.228v-.091l-.052.012-.009-.006-.216-.125a.323.323,0,0,0-.29,0l-.735.428-.119.028v.094a.106.106,0,0,0,.06.08l.215.124a.32.32,0,0,0,.29,0l.8-.462a.1.1,0,0,0,.059-.082h0Z" fill="#e7e7f0"/>
                <path id="Trazado_146233" data-name="Trazado 146233" d="M268.013,5888.952v-.091l-.051.012-.009-.006-.216-.125a.32.32,0,0,0-.29,0l-.735.428-.119.028v.095a.1.1,0,0,0,.06.079l.215.124a.32.32,0,0,0,.29,0l.8-.462a.1.1,0,0,0,.059-.082h0Z" fill="#e7e7f0"/>
                <path id="Trazado_146234" data-name="Trazado 146234" d="M266.767,5889.676h0v-.09l-.051.012-.009-.006-.216-.124a.32.32,0,0,0-.29,0l-.735.428-.119.028v.1a.1.1,0,0,0,.06.079l.215.125a.323.323,0,0,0,.29,0l.8-.462a.1.1,0,0,0,.059-.082h0Z" fill="#e7e7f0"/>
                <path id="Trazado_146235" data-name="Trazado 146235" d="M265.521,5890.4v-.092l-.051.013-.009-.007-.216-.124a.317.317,0,0,0-.29,0l-.736.427-.118.028v.1a.1.1,0,0,0,.06.079l.215.125a.32.32,0,0,0,.29,0l.8-.462a.1.1,0,0,0,.059-.082Z" fill="#e7e7f0"/>
                <path id="Trazado_146236" data-name="Trazado 146236" d="M264.275,5891.125v-.091l-.051.012-.01-.007-.215-.124a.317.317,0,0,0-.29,0l-.736.427-.118.028v.095a.1.1,0,0,0,.06.08l.215.124a.32.32,0,0,0,.29,0l.8-.462a.1.1,0,0,0,.059-.082Z" fill="#e7e7f0"/>
                <path id="Trazado_146237" data-name="Trazado 146237" d="M263.029,5891.849v-.091l-.051.012-.01-.007-.215-.124a.317.317,0,0,0-.29,0l-.736.427-.118.028v.095a.108.108,0,0,0,.061.08l.215.124a.32.32,0,0,0,.29,0l.8-.462a.1.1,0,0,0,.059-.081Z" fill="#e7e7f0"/>
                <path id="Trazado_146238" data-name="Trazado 146238" d="M261.783,5892.573v-.091l-.051.012-.01-.006-.215-.125a.32.32,0,0,0-.29,0l-.736.427-.118.029v.094a.108.108,0,0,0,.061.08l.215.124a.317.317,0,0,0,.29,0l.8-.461a.1.1,0,0,0,.059-.082h0Z" fill="#e7e7f0"/>
                <path id="Trazado_146239" data-name="Trazado 146239" d="M276.242,5881.84l-.056.009,0,0-.8-.463a.32.32,0,0,0-.289,0l-1.478.859-.081.012v.088h0a.1.1,0,0,0,.059.08l.8.462a.317.317,0,0,0,.289,0l1.5-.871a.1.1,0,0,0,.059-.084h0Z" fill="#e7e7f0"/>
                <path id="Trazado_146240" data-name="Trazado 146240" d="M274.98,5881.108l-.055.013-.006,0-.8-.462a.323.323,0,0,0-.29,0l-2.075,1.206-.107.025v.088h0a.1.1,0,0,0,.06.082l.8.462a.32.32,0,0,0,.29,0l2.122-1.233a.1.1,0,0,0,.06-.085h0Z" fill="#e7e7f0"/>
                <path id="Trazado_146241" data-name="Trazado 146241" d="M273.709,5880.374l-.055.013-.006,0-.8-.462a.323.323,0,0,0-.29,0l-2.075,1.206-.107.025v.088h0a.1.1,0,0,0,.06.082l.8.462a.317.317,0,0,0,.29,0l2.122-1.233a.1.1,0,0,0,.06-.084h0Z" fill="#e7e7f0"/>
                <path id="Trazado_146242" data-name="Trazado 146242" d="M260.585,5890.937l-.058.009h0l-.8-.462a.322.322,0,0,0-.291,0l-1.5.874-.085.013v.09h0a.1.1,0,0,0,.059.079l.8.463a.32.32,0,0,0,.289,0l1.53-.889a.1.1,0,0,0,.059-.085h0Z" fill="#e7e7f0"/>
                <path id="Trazado_146243" data-name="Trazado 146243" d="M259.886,5889.854l-.8-.462a.319.319,0,0,0-.291,0l-2.152,1.251c-.08.046-.079.121,0,.168l.8.462a.323.323,0,0,0,.29,0l2.152-1.251a.089.089,0,0,0,0-.168Z" fill="#e7e7f0"/>
                <path id="Trazado_146244" data-name="Trazado 146244" d="M257.34,5888.529v-.091l-.051.012-.01-.007-.215-.124a.317.317,0,0,0-.29,0l-.736.427-.118.028v.1a.106.106,0,0,0,.06.08l.215.124a.32.32,0,0,0,.29,0l.8-.462a.1.1,0,0,0,.059-.082Z" fill="#e7e7f0"/>
                <path id="Trazado_146245" data-name="Trazado 146245" d="M256.756,5888.191v-.091l-.052.012-.009-.006-.216-.125a.323.323,0,0,0-.29,0l-.735.428-.119.028v.1a.106.106,0,0,0,.06.079l.215.124a.317.317,0,0,0,.29,0l.8-.462a.1.1,0,0,0,.059-.082h0Z" fill="#e7e7f0"/>
              </g>
              <path id="Trazado_146246" data-name="Trazado 146246" d="M278.174,5883.042h0v-.1l-.058.017,0,0-.215-.125a.32.32,0,0,0-.29,0l-.917.533-.13.037v.1h0a.107.107,0,0,0,.059.075l.216.124a.32.32,0,0,0,.29,0l.988-.574A.1.1,0,0,0,278.174,5883.042Z" fill="#e7e7f0"/>
              <g id="Grupo_66445" data-name="Grupo 66445">
                <path id="Trazado_146247" data-name="Trazado 146247" d="M275.561,5882.667l.8.462a.32.32,0,0,0,.289,0l.8-.462a.089.089,0,0,0,0-.168l-.8-.462a.317.317,0,0,0-.29,0l-.8.462c-.079.046-.079.121,0,.168Z" fill="#f4f5fa"/>
                <path id="Trazado_146248" data-name="Trazado 146248" d="M274.314,5883.391l.8.462a.32.32,0,0,0,.289,0l.8-.462a.089.089,0,0,0,0-.168l-.8-.462a.32.32,0,0,0-.29,0l-.8.462a.089.089,0,0,0,0,.168Z" fill="#f4f5fa"/>
                <path id="Trazado_146249" data-name="Trazado 146249" d="M273.068,5884.115l.8.462a.32.32,0,0,0,.29,0l.8-.462c.08-.046.08-.121,0-.168l-.8-.462a.323.323,0,0,0-.29,0l-.8.462a.089.089,0,0,0,0,.168Z" fill="#f4f5fa"/>
                <path id="Trazado_146250" data-name="Trazado 146250" d="M271.822,5884.839l.8.462a.317.317,0,0,0,.29,0l.8-.462c.08-.046.08-.121,0-.168l-.8-.462a.323.323,0,0,0-.29,0l-.795.462a.089.089,0,0,0,0,.168Z" fill="#f4f5fa"/>
                <path id="Trazado_146251" data-name="Trazado 146251" d="M270.576,5885.563l.8.462a.32.32,0,0,0,.29,0l.8-.462c.08-.046.08-.121,0-.168l-.8-.462a.323.323,0,0,0-.29,0l-.795.462a.089.089,0,0,0,0,.168Z" fill="#f4f5fa"/>
                <path id="Trazado_146252" data-name="Trazado 146252" d="M269.33,5886.287l.8.462a.317.317,0,0,0,.29,0l.795-.462a.088.088,0,0,0,0-.167l-.8-.462a.317.317,0,0,0-.29,0l-.795.462a.089.089,0,0,0,0,.168Z" fill="#f4f5fa"/>
                <path id="Trazado_146253" data-name="Trazado 146253" d="M268.084,5887.012l.8.462a.32.32,0,0,0,.29,0l.795-.462a.088.088,0,0,0,0-.167l-.8-.462a.32.32,0,0,0-.29,0l-.795.462a.09.09,0,0,0,0,.169Z" fill="#f4f5fa"/>
                <path id="Trazado_146254" data-name="Trazado 146254" d="M266.838,5887.736l.8.461a.314.314,0,0,0,.29,0l.795-.461a.089.089,0,0,0,0-.168l-.8-.462a.317.317,0,0,0-.29,0l-.795.461a.089.089,0,0,0,0,.169Z" fill="#f4f5fa"/>
                <path id="Trazado_146255" data-name="Trazado 146255" d="M265.592,5888.46l.8.462a.323.323,0,0,0,.29,0l.795-.462a.089.089,0,0,0,0-.168l-.8-.462a.32.32,0,0,0-.29,0l-.795.462c-.08.046-.079.121,0,.168Z" fill="#f4f5fa"/>
                <path id="Trazado_146256" data-name="Trazado 146256" d="M264.346,5889.184l.8.462a.323.323,0,0,0,.29,0l.795-.462c.08-.047.079-.121,0-.168l-.8-.462a.317.317,0,0,0-.29,0l-.8.462c-.08.046-.079.121,0,.168Z" fill="#f4f5fa"/>
                <path id="Trazado_146257" data-name="Trazado 146257" d="M263.1,5889.908l.8.462a.323.323,0,0,0,.29,0l.795-.462c.08-.046.079-.121,0-.168l-.8-.462a.323.323,0,0,0-.29,0l-.8.462a.089.089,0,0,0,0,.168Z" fill="#f4f5fa"/>
                <path id="Trazado_146258" data-name="Trazado 146258" d="M271.11,5883.8l.8.462a.323.323,0,0,0,.29,0l.795-.462a.089.089,0,0,0,0-.168l-.8-.462a.323.323,0,0,0-.29,0l-.8.462a.089.089,0,0,0,0,.168Z" fill="#f4f5fa"/>
                <path id="Trazado_146259" data-name="Trazado 146259" d="M269.864,5884.524l.8.462a.315.315,0,0,0,.289,0l.8-.462a.089.089,0,0,0,0-.168l-.8-.462a.323.323,0,0,0-.29,0l-.8.462a.089.089,0,0,0,0,.168Z" fill="#f4f5fa"/>
                <path id="Trazado_146260" data-name="Trazado 146260" d="M268.618,5885.248l.8.462a.317.317,0,0,0,.29,0l.795-.462a.089.089,0,0,0,0-.168l-.8-.461a.317.317,0,0,0-.29,0l-.795.462a.089.089,0,0,0,0,.168Z" fill="#f4f5fa"/>
                <path id="Trazado_146261" data-name="Trazado 146261" d="M267.372,5885.973l.8.461a.317.317,0,0,0,.29,0l.795-.462a.088.088,0,0,0,0-.167l-.8-.462a.32.32,0,0,0-.29,0l-.795.462c-.08.047-.08.122,0,.169Z" fill="#f4f5fa"/>
                <path id="Trazado_146262" data-name="Trazado 146262" d="M266.126,5886.7l.8.462a.32.32,0,0,0,.29,0l.795-.462c.08-.046.079-.121,0-.167l-.8-.462a.32.32,0,0,0-.29,0l-.8.462a.089.089,0,0,0,0,.169Z" fill="#f4f5fa"/>
                <path id="Trazado_146263" data-name="Trazado 146263" d="M264.88,5887.421l.8.462a.32.32,0,0,0,.29,0l.8-.462a.089.089,0,0,0,0-.168l-.8-.462a.317.317,0,0,0-.29,0l-.8.462c-.08.046-.08.121,0,.168Z" fill="#f4f5fa"/>
                <path id="Trazado_146264" data-name="Trazado 146264" d="M263.634,5888.145l.8.462a.323.323,0,0,0,.29,0l.794-.462a.089.089,0,0,0,0-.168l-.8-.462a.318.318,0,0,0-.29,0l-.794.462c-.08.046-.08.121,0,.168Z" fill="#f4f5fa"/>
                <path id="Trazado_146265" data-name="Trazado 146265" d="M262.388,5888.869l.8.462a.323.323,0,0,0,.29,0l.794-.462a.089.089,0,0,0,0-.168l-.8-.462a.32.32,0,0,0-.29,0l-.8.462c-.08.046-.079.121,0,.168Z" fill="#f4f5fa"/>
                <path id="Trazado_146266" data-name="Trazado 146266" d="M261.142,5889.593l.8.462a.32.32,0,0,0,.289,0l.8-.462c.08-.047.08-.121,0-.168l-.8-.462a.323.323,0,0,0-.29,0l-.795.462c-.08.046-.079.121,0,.168Z" fill="#f4f5fa"/>
                <path id="Trazado_146267" data-name="Trazado 146267" d="M259.9,5890.317l.8.462a.317.317,0,0,0,.289,0l.8-.462c.08-.046.08-.121,0-.168l-.8-.461a.32.32,0,0,0-.29,0l-.795.462a.089.089,0,0,0,0,.168Z" fill="#f4f5fa"/>
                <path id="Trazado_146268" data-name="Trazado 146268" d="M261.854,5890.632l.8.462a.317.317,0,0,0,.29,0l.8-.462a.089.089,0,0,0,0-.168l-.8-.462a.325.325,0,0,0-.291,0l-.794.462a.089.089,0,0,0,0,.168Z" fill="#f4f5fa"/>
                <path id="Trazado_146269" data-name="Trazado 146269" d="M260.608,5891.356l.8.462a.318.318,0,0,0,.29,0l.794-.462a.089.089,0,0,0,0-.168l-.8-.462a.325.325,0,0,0-.291,0l-.794.462a.089.089,0,0,0,0,.168Z" fill="#f4f5fa"/>
                <path id="Trazado_146270" data-name="Trazado 146270" d="M270.51,5879.751l.8.462a.323.323,0,0,0,.29,0l.795-.462a.089.089,0,0,0,0-.168l-.8-.462a.323.323,0,0,0-.29,0l-.795.462a.089.089,0,0,0,0,.168Z" fill="#f4f5fa"/>
                <path id="Trazado_146271" data-name="Trazado 146271" d="M269.264,5880.475l.8.462a.323.323,0,0,0,.29,0l.795-.462a.089.089,0,0,0,0-.168l-.8-.462a.32.32,0,0,0-.29,0l-.8.462a.089.089,0,0,0,0,.168Z" fill="#f4f5fa"/>
                <path id="Trazado_146272" data-name="Trazado 146272" d="M268.018,5881.2l.8.462a.323.323,0,0,0,.29,0l.8-.462c.08-.046.079-.121,0-.168l-.8-.462a.323.323,0,0,0-.29,0l-.8.462a.089.089,0,0,0,0,.168Z" fill="#f4f5fa"/>
                <path id="Trazado_146273" data-name="Trazado 146273" d="M266.772,5881.923l.8.462a.314.314,0,0,0,.29,0l.8-.462a.088.088,0,0,0,0-.167l-.8-.462a.32.32,0,0,0-.29,0l-.8.462a.089.089,0,0,0,0,.168Z" fill="#f4f5fa"/>
                <path id="Trazado_146274" data-name="Trazado 146274" d="M272.356,5883.076l.8.462a.323.323,0,0,0,.29,0l.795-.462a.089.089,0,0,0,0-.168l-.8-.462a.323.323,0,0,0-.29,0l-.795.462c-.08.046-.079.121,0,.168Z" fill="#f4f5fa"/>
                <path id="Trazado_146275" data-name="Trazado 146275" d="M259.169,5892.192l.8.462a.314.314,0,0,0,.29,0l.987-.574a.089.089,0,0,0,0-.168l-.8-.462a.322.322,0,0,0-.291,0l-.987.574a.089.089,0,0,0,0,.168Z" fill="#f4f5fa"/>
                <path id="Trazado_146276" data-name="Trazado 146276" d="M259.133,5886.363l.8.462a.32.32,0,0,0,.29,0l7.187-4.177a.088.088,0,0,0,0-.167l-.8-.462a.32.32,0,0,0-.29,0l-7.188,4.177a.09.09,0,0,0,0,.169Z" fill="#f4f5fa"/>
                <path id="Trazado_146277" data-name="Trazado 146277" d="M275.376,5884.227l.216.124a.32.32,0,0,0,.29,0l.8-.462a.089.089,0,0,0,0-.168l-.215-.125a.317.317,0,0,0-.29,0l-.8.462c-.08.046-.079.121,0,.168Z" fill="#f4f5fa"/>
                <path id="Trazado_146278" data-name="Trazado 146278" d="M274.13,5884.951l.216.124a.32.32,0,0,0,.29,0l.794-.462c.081-.047.08-.122,0-.168l-.215-.125a.323.323,0,0,0-.29,0l-.8.462a.089.089,0,0,0,0,.168Z" fill="#f4f5fa"/>
                <path id="Trazado_146279" data-name="Trazado 146279" d="M272.884,5885.675l.215.124a.319.319,0,0,0,.291,0l.794-.462a.089.089,0,0,0,0-.168l-.215-.125a.325.325,0,0,0-.291,0l-.794.462a.089.089,0,0,0,0,.168Z" fill="#f4f5fa"/>
                <path id="Trazado_146280" data-name="Trazado 146280" d="M271.638,5886.4l.215.125a.32.32,0,0,0,.29,0l.795-.462a.089.089,0,0,0,0-.168l-.215-.125a.325.325,0,0,0-.291,0l-.794.462a.089.089,0,0,0,0,.168Z" fill="#f4f5fa"/>
                <path id="Trazado_146281" data-name="Trazado 146281" d="M270.392,5887.123l.215.125a.323.323,0,0,0,.29,0l.795-.462a.089.089,0,0,0,0-.168l-.215-.125a.322.322,0,0,0-.291,0l-.795.462a.089.089,0,0,0,0,.168Z" fill="#f4f5fa"/>
                <path id="Trazado_146282" data-name="Trazado 146282" d="M269.146,5887.848l.215.124a.323.323,0,0,0,.29,0l.8-.462a.089.089,0,0,0,0-.168l-.215-.124a.319.319,0,0,0-.291,0l-.795.462c-.079.046-.079.121,0,.168Z" fill="#f4f5fa"/>
                <path id="Trazado_146283" data-name="Trazado 146283" d="M267.9,5888.572l.215.124a.314.314,0,0,0,.29,0l.8-.462c.08-.046.08-.121,0-.168l-.215-.124a.319.319,0,0,0-.291,0l-.795.462c-.079.046-.079.121,0,.168Z" fill="#f4f5fa"/>
                <path id="Trazado_146284" data-name="Trazado 146284" d="M266.654,5889.3l.215.124a.32.32,0,0,0,.29,0l.8-.463c.079-.046.078-.121,0-.168l-.215-.124a.317.317,0,0,0-.29,0l-.8.462c-.079.046-.079.121,0,.168Z" fill="#f4f5fa"/>
                <path id="Trazado_146285" data-name="Trazado 146285" d="M265.408,5890.02l.215.124a.32.32,0,0,0,.29,0l.8-.463c.08-.046.079-.121,0-.168l-.215-.124a.323.323,0,0,0-.29,0l-.8.462a.089.089,0,0,0,0,.168Z" fill="#f4f5fa"/>
                <path id="Trazado_146286" data-name="Trazado 146286" d="M264.162,5890.744l.215.125a.323.323,0,0,0,.29,0l.8-.462a.089.089,0,0,0,0-.168l-.215-.125a.325.325,0,0,0-.291,0l-.795.462a.089.089,0,0,0,0,.168Z" fill="#f4f5fa"/>
                <path id="Trazado_146287" data-name="Trazado 146287" d="M262.915,5891.468l.216.125a.32.32,0,0,0,.29,0l.8-.462a.089.089,0,0,0,0-.168l-.216-.125a.323.323,0,0,0-.29,0l-.8.462a.089.089,0,0,0,0,.168Z" fill="#f4f5fa"/>
                <path id="Trazado_146288" data-name="Trazado 146288" d="M261.669,5892.192l.216.125a.323.323,0,0,0,.29,0l.8-.462a.089.089,0,0,0,0-.168l-.216-.124a.32.32,0,0,0-.29,0l-.8.463a.088.088,0,0,0,0,.167Z" fill="#f4f5fa"/>
                <path id="Trazado_146289" data-name="Trazado 146289" d="M260.423,5892.917l.216.124a.323.323,0,0,0,.29,0l.8-.462c.08-.046.079-.121,0-.168l-.216-.124a.32.32,0,0,0-.29,0l-.8.462a.089.089,0,0,0,0,.169Z" fill="#f4f5fa"/>
                <path id="Trazado_146290" data-name="Trazado 146290" d="M276.622,5883.5l.216.124a.317.317,0,0,0,.29,0l.988-.574c.079-.046.079-.121,0-.168l-.215-.124a.32.32,0,0,0-.29,0l-.988.574c-.08.046-.079.121,0,.168Z" fill="#f4f5fa"/>
                <path id="Trazado_146291" data-name="Trazado 146291" d="M273.593,5882.347l.8.462a.323.323,0,0,0,.29,0l1.5-.871a.089.089,0,0,0,0-.168l-.8-.462a.323.323,0,0,0-.29,0l-1.5.871a.089.089,0,0,0,0,.168Z" fill="#f4f5fa"/>
                <path id="Trazado_146292" data-name="Trazado 146292" d="M271.708,5881.98l.8.462a.317.317,0,0,0,.29,0l2.123-1.233a.089.089,0,0,0,0-.168l-.8-.462a.317.317,0,0,0-.289,0l-2.123,1.233a.089.089,0,0,0,0,.168Z" fill="#f4f5fa"/>
                <path id="Trazado_146293" data-name="Trazado 146293" d="M270.437,5881.246l.8.462a.315.315,0,0,0,.289,0l2.123-1.233a.089.089,0,0,0,0-.168l-.8-.462a.32.32,0,0,0-.29,0l-2.122,1.233a.089.089,0,0,0,0,.168Z" fill="#f4f5fa"/>
                <path id="Trazado_146294" data-name="Trazado 146294" d="M257.906,5891.463l.8.463a.317.317,0,0,0,.29,0l1.529-.888a.089.089,0,0,0,0-.168l-.8-.462a.315.315,0,0,0-.289,0l-1.529.888a.089.089,0,0,0,0,.168Z" fill="#f4f5fa"/>
                <path id="Trazado_146295" data-name="Trazado 146295" d="M256.644,5890.735l.8.461a.314.314,0,0,0,.29,0l2.153-1.25c.08-.047.079-.122,0-.168l-.8-.462a.315.315,0,0,0-.289,0l-2.153,1.25a.089.089,0,0,0,0,.169Z" fill="#f4f5fa"/>
                <path id="Trazado_146296" data-name="Trazado 146296" d="M255.98,5888.872l.216.125a.32.32,0,0,0,.289,0l.8-.462a.089.089,0,0,0,0-.168l-.216-.125a.317.317,0,0,0-.289,0l-.795.462a.089.089,0,0,0,0,.168Z" fill="#f4f5fa"/>
                <path id="Trazado_146297" data-name="Trazado 146297" d="M255.4,5888.535l.215.124a.317.317,0,0,0,.29,0l.8-.461a.09.09,0,0,0,0-.169l-.216-.124a.32.32,0,0,0-.29,0l-.795.462c-.08.046-.079.121,0,.168Z" fill="#f4f5fa"/>
                <path id="Trazado_146298" data-name="Trazado 146298" d="M260.494,5888.5l.8.462a.32.32,0,0,0,.29,0l.795-.462c.08-.046.079-.121,0-.168l-.8-.462a.317.317,0,0,0-.289,0l-.795.462a.089.089,0,0,0,0,.168Z" fill="#f4f5fa"/>
                <path id="Trazado_146299" data-name="Trazado 146299" d="M259.248,5889.221l.8.462a.317.317,0,0,0,.29,0l.795-.461c.08-.047.079-.122,0-.169l-.8-.461a.315.315,0,0,0-.289,0l-.795.462c-.08.046-.08.121,0,.167Z" fill="#f4f5fa"/>
                <path id="Trazado_146300" data-name="Trazado 146300" d="M259.223,5887.763l.8.462a.317.317,0,0,0,.29,0l.8-.461a.089.089,0,0,0,0-.168l-.8-.462a.315.315,0,0,0-.289,0l-.8.461a.089.089,0,0,0,0,.168Z" fill="#f4f5fa"/>
                <path id="Trazado_146301" data-name="Trazado 146301" d="M257.977,5888.487l.8.463a.323.323,0,0,0,.29,0l.8-.462a.089.089,0,0,0,0-.168l-.8-.462a.317.317,0,0,0-.29,0l-.794.462a.088.088,0,0,0,0,.167Z" fill="#f4f5fa"/>
                <path id="Trazado_146302" data-name="Trazado 146302" d="M256.73,5889.212l.8.462a.32.32,0,0,0,.29,0l.795-.462a.089.089,0,0,0,0-.168l-.8-.462a.32.32,0,0,0-.29,0l-.794.462a.089.089,0,0,0,0,.168Z" fill="#f4f5fa"/>
                <path id="Trazado_146303" data-name="Trazado 146303" d="M255.372,5890l.8.462a.323.323,0,0,0,.29,0l.906-.527a.089.089,0,0,0,0-.168l-.8-.462a.32.32,0,0,0-.29,0l-.906.527a.089.089,0,0,0,0,.168Z" fill="#f4f5fa"/>
                <path id="Trazado_146304" data-name="Trazado 146304" d="M262.986,5887.049l.8.462a.323.323,0,0,0,.29,0l.8-.462c.08-.046.079-.122,0-.168l-.8-.462a.32.32,0,0,0-.289,0l-.8.462c-.08.047-.079.121,0,.168Z" fill="#f4f5fa"/>
                <path id="Trazado_146305" data-name="Trazado 146305" d="M261.74,5887.773l.8.462a.318.318,0,0,0,.29,0l.8-.462c.08-.046.079-.121,0-.168l-.8-.462a.32.32,0,0,0-.289,0l-.795.462c-.08.047-.08.121,0,.168Z" fill="#f4f5fa"/>
                <path id="Trazado_146306" data-name="Trazado 146306" d="M261.715,5886.315l.8.462a.315.315,0,0,0,.289,0l.8-.462a.088.088,0,0,0,0-.167l-.8-.463a.32.32,0,0,0-.289,0l-.8.462a.089.089,0,0,0,0,.168Z" fill="#f4f5fa"/>
                <path id="Trazado_146307" data-name="Trazado 146307" d="M260.469,5887.039l.8.462a.32.32,0,0,0,.29,0l.8-.462a.088.088,0,0,0,0-.167l-.8-.463a.317.317,0,0,0-.289,0l-.8.462a.089.089,0,0,0,0,.168Z" fill="#f4f5fa"/>
                <path id="Trazado_146308" data-name="Trazado 146308" d="M265.478,5885.6l.8.462a.323.323,0,0,0,.29,0l.8-.462a.089.089,0,0,0,0-.168l-.8-.462a.314.314,0,0,0-.29,0l-.8.462c-.08.046-.08.121,0,.168Z" fill="#f4f5fa"/>
                <path id="Trazado_146309" data-name="Trazado 146309" d="M264.231,5886.325l.8.462a.323.323,0,0,0,.29,0l.8-.462a.089.089,0,0,0,0-.168l-.8-.462a.315.315,0,0,0-.289,0l-.8.462c-.08.046-.08.121,0,.168Z" fill="#f4f5fa"/>
                <path id="Trazado_146310" data-name="Trazado 146310" d="M264.207,5884.867l.8.462a.323.323,0,0,0,.29,0l.8-.462a.089.089,0,0,0,0-.168l-.8-.462a.323.323,0,0,0-.29,0l-.8.462a.089.089,0,0,0,0,.168Z" fill="#f4f5fa"/>
                <path id="Trazado_146311" data-name="Trazado 146311" d="M262.96,5885.591l.8.462a.323.323,0,0,0,.29,0l.8-.462c.08-.046.079-.121,0-.168l-.8-.462a.32.32,0,0,0-.289,0l-.8.462c-.08.047-.08.122,0,.168Z" fill="#f4f5fa"/>
                <path id="Trazado_146312" data-name="Trazado 146312" d="M267.97,5884.152l.8.462a.314.314,0,0,0,.29,0l.8-.462a.088.088,0,0,0,0-.167l-.8-.462a.317.317,0,0,0-.29,0l-.8.462a.088.088,0,0,0,0,.167Z" fill="#f4f5fa"/>
                <path id="Trazado_146313" data-name="Trazado 146313" d="M266.724,5884.877l.8.462a.323.323,0,0,0,.29,0l.8-.462a.089.089,0,0,0,0-.168l-.8-.462a.317.317,0,0,0-.29,0l-.8.462c-.08.046-.08.121,0,.168Z" fill="#f4f5fa"/>
                <path id="Trazado_146314" data-name="Trazado 146314" d="M266.7,5883.419l.8.462a.32.32,0,0,0,.29,0l.8-.461a.089.089,0,0,0,0-.168l-.8-.462a.32.32,0,0,0-.29,0l-.8.462a.089.089,0,0,0,0,.168Z" fill="#f4f5fa"/>
                <path id="Trazado_146315" data-name="Trazado 146315" d="M265.453,5884.143l.8.462a.323.323,0,0,0,.29,0l.8-.462a.089.089,0,0,0,0-.168l-.8-.462a.317.317,0,0,0-.29,0l-.8.462a.089.089,0,0,0,0,.168Z" fill="#f4f5fa"/>
                <path id="Trazado_146316" data-name="Trazado 146316" d="M270.462,5882.7l.8.462a.319.319,0,0,0,.291,0l.794-.462c.08-.046.079-.121,0-.168l-.8-.462a.32.32,0,0,0-.29,0l-.794.462c-.08.047-.081.122,0,.168Z" fill="#f4f5fa"/>
                <path id="Trazado_146317" data-name="Trazado 146317" d="M269.216,5883.428l.8.462a.319.319,0,0,0,.291,0l.794-.462c.08-.046.079-.121,0-.168l-.8-.462a.323.323,0,0,0-.29,0l-.8.462a.089.089,0,0,0,0,.168Z" fill="#f4f5fa"/>
                <path id="Trazado_146318" data-name="Trazado 146318" d="M269.191,5881.97l.8.463a.322.322,0,0,0,.291,0l.794-.462a.088.088,0,0,0,0-.167l-.8-.463a.323.323,0,0,0-.29,0l-.795.462a.089.089,0,0,0,0,.168Z" fill="#f4f5fa"/>
                <path id="Trazado_146319" data-name="Trazado 146319" d="M267.945,5882.695l.8.462a.318.318,0,0,0,.29,0l.795-.462c.08-.046.079-.121,0-.167l-.8-.462a.317.317,0,0,0-.29,0l-.8.462c-.08.046-.079.121,0,.168Z" fill="#f4f5fa"/>
                <path id="Trazado_146320" data-name="Trazado 146320" d="M257.887,5887.087l.8.462a.319.319,0,0,0,.291,0l.794-.462a.088.088,0,0,0,0-.167l-.8-.462a.317.317,0,0,0-.29,0l-.8.461a.09.09,0,0,0,0,.169Z" fill="#f4f5fa"/>
                <path id="Trazado_146321" data-name="Trazado 146321" d="M256.642,5887.811l.8.461a.315.315,0,0,0,.289,0l.8-.461a.089.089,0,0,0,0-.168l-.8-.462a.314.314,0,0,0-.29,0l-.795.462c-.08.046-.079.121,0,.168Z" fill="#f4f5fa"/>
                <path id="Trazado_146322" data-name="Trazado 146322" d="M254.119,5889.277l.8.462a.317.317,0,0,0,.29,0l.795-.462a.088.088,0,0,0,0-.167l-.8-.462a.317.317,0,0,0-.29,0l-.795.461a.089.089,0,0,0,0,.169Z" fill="#f4f5fa"/>
              </g>
            </g>
          </g>
          <g id="Grupo_66449" data-name="Grupo 66449">
            <path id="Trazado_146323" data-name="Trazado 146323" d="M255.751,5900.937l5.376-3.1c.379-.218.331-.6-.106-.852l-7.285-4.207a1.645,1.645,0,0,0-1.477-.061l-5.376,3.1c-.378.219-.331.6.106.853l7.286,4.206A1.64,1.64,0,0,0,255.751,5900.937Z" fill="#57565e"/>
            <g id="Grupo_66448" data-name="Grupo 66448">
              <path id="Trazado_146324" data-name="Trazado 146324" d="M254.2,5898.364s-2.462-1.448-2.676-1.611c-.5-.384-.391-.585-.182-.859a3.254,3.254,0,0,1,2.77-.842,4.473,4.473,0,0,1,2.693,2.1c.1.338,0,.59-.515.866A2.311,2.311,0,0,1,254.2,5898.364Z" fill="#c5c9d8"/>
              <path id="Trazado_146325" data-name="Trazado 146325" d="M254.2,5897.918s-2.462-1.448-2.676-1.611c-.5-.384-.391-.585-.182-.86a3.254,3.254,0,0,1,2.77-.841,4.474,4.474,0,0,1,2.693,2.1c.1.338,0,.591-.515.866A2.313,2.313,0,0,1,254.2,5897.918Z" fill="#e5e8f5"/>
            </g>
          </g>
          <g id="Grupo_66452" data-name="Grupo 66452">
            <path id="Trazado_146326" data-name="Trazado 146326" d="M296.2,5890.113l-6.033-3.5a1.469,1.469,0,0,0-1.329,0l-.43.248-.427-.248a1.469,1.469,0,0,0-1.329,0l-16.816,9.675a.406.406,0,0,0,0,.769l6.033,3.505a1.081,1.081,0,0,0,.766.079,8.978,8.978,0,0,0,2.392-.079l17.173-9.882A.3.3,0,0,0,296.2,5890.113Z" fill="#becdd4" style="mix-blend-mode: multiply;isolation: isolate"/>
            <g id="Grupo_66451" data-name="Grupo 66451">
              <path id="Trazado_146327" data-name="Trazado 146327" d="M291.409,5891.507l-3.946-11.608-3.275,1.892v.019l-.023,6.989a2.113,2.113,0,0,0-.223-.033,2.655,2.655,0,0,0-1.628.341l-5.206,2.844a.928.928,0,0,0-.317.3l-.153-.045,0,.566a.937.937,0,0,0,.474.82l5.41,3.122.04.024a3.1,3.1,0,0,0,.731.306l.031.01c.06.016.121.029.179.04a2.7,2.7,0,0,0,.418.058,3.093,3.093,0,0,0,1.562-.292l.1-.045c.047-.024.1-.05.142-.077l2.241-1.293,2.518-1.453a2.035,2.035,0,0,0,.442-.343,2.116,2.116,0,0,0,.392-.552,1.753,1.753,0,0,0,.1-.25,1.869,1.869,0,0,0,.069-.261A2.085,2.085,0,0,0,291.409,5891.507Z" fill="#c5c9d8"/>
              <path id="Trazado_146328" data-name="Trazado 146328" d="M296.143,5859.785l-.915-.631h0a.628.628,0,0,0-.628.078L270.919,5872.9a2.222,2.222,0,0,0-1.006,1.524l-1.641,18.153a.76.76,0,0,0,.271.762h0l.869.6.985-1.26L292.363,5880a3.146,3.146,0,0,0,1.422-2.153l1.538-17.019Z" fill="url(#linear-gradient-4)"/>
              <g id="Grupo_66450" data-name="Grupo 66450">
                <path id="Trazado_146329" data-name="Trazado 146329" d="M296.314,5860.312l-1.639,18.152a3.146,3.146,0,0,1-1.424,2.153l-22.921,13.235c-.716.414-1.24.118-1.169-.657l1.64-18.154a1.887,1.887,0,0,1,.3-.8,2.142,2.142,0,0,1,.709-.72l23.681-13.674a.6.6,0,0,1,.655-.06A.554.554,0,0,1,296.314,5860.312Z" fill="#c5c9d8"/>
              </g>
              <path id="Trazado_146330" data-name="Trazado 146330" d="M290.862,5890.971,287.54,5880l-3.185,1.838-.535,6.5a2.6,2.6,0,0,0-1.8.3l-4.925,2.844a.921.921,0,0,0,0,1.6l5.162,2.98a3.072,3.072,0,0,0,3.072,0l4.624-2.67A2.033,2.033,0,0,0,290.862,5890.971Z" fill="#e7e7f0"/>
              <path id="Trazado_146331" data-name="Trazado 146331" d="M285.076,5879.21c-6.3,4.188-10.969-.048-13.978-4.971a2.142,2.142,0,0,1,.709-.72l23.681-13.674a.6.6,0,0,1,.655-.06S296.989,5871.283,285.076,5879.21Z" fill="#d3d3e3"/>
              <path id="Trazado_146332" data-name="Trazado 146332" d="M291.647,5892.586a1.8,1.8,0,0,1-.069.261,1.757,1.757,0,0,1-.1.25,2.01,2.01,0,0,1-.392.552,2.053,2.053,0,0,1-.441.343l-2.519,1.453-2.241,1.293c-.047.027-.094.053-.142.077l-.1.045a3.374,3.374,0,0,1-1.557.287,3.018,3.018,0,0,1-.423-.053c-.058-.011-.118-.024-.178-.04a.257.257,0,0,1-.032-.008v-.43c.464.064.856-.144.856-1.03v-.006l.043-13.77v-.019l3.275-1.892,3.946,11.608A2.075,2.075,0,0,1,291.647,5892.586Z" fill="#eff0f5"/>
              <path id="Trazado_146333" data-name="Trazado 146333" d="M284.312,5895.586v1.046c0,.206-.254.389-.391.515l-.005,0a2.7,2.7,0,0,1-.418-.058c-.058-.011-.119-.024-.179-.04l-.031-.008v0a3.1,3.1,0,0,1-.731-.306l-.04-.024c-.118-.233-.293-.674.1-.481,1.025.5,1.187-.33,1.187-.33l.018-7.35v-2.49l.535-4.227Z" fill="#c5c9d8"/>
            </g>
          </g>
        </g>
        <path id="Trazado_146334" data-name="Trazado 146334" d="M234.081,5884.891c1.733,3.519,18.372,2.087,19.505,2.154s1.445.8,2.354,1.29a9.879,9.879,0,0,0,2.542.721s1.248-.361,1.845-.575a1.53,1.53,0,0,0,.815-.92l.612.224.983-.17.5-.727-1.347-.561-2.451-2.069a16.23,16.23,0,0,0,1.934,1.147c.426.136,1.451.1,1.473-.143s.015-.425-.951-.847-1.351-.967-2.2-1-2.425.08-5.577.365-16.059-2.318-16.059-2.318-3.978,1.018-4.054,3A1.114,1.114,0,0,0,234.081,5884.891Z" fill="#febfbf"/>
        <path id="Trazado_146335" data-name="Trazado 146335" d="M234.081,5884.891c1.733,3.519,18.372,2.087,19.505,2.154s1.445.8,2.354,1.29a9.879,9.879,0,0,0,2.542.721s1.248-.361,1.845-.575a1.53,1.53,0,0,0,.815-.92l-1.313-.932-.617-.314s.165.824.448.973,1.153.528,1.153.528l-.611.543s-1.541.5-1.866.534a13.248,13.248,0,0,1-3.11-1.329,4.428,4.428,0,0,0-1.308-.735c-1.331.15-10.166.171-12.06.09a29.451,29.451,0,0,1-5.546-.726,3.23,3.23,0,0,1-2.3-1.73A1.114,1.114,0,0,0,234.081,5884.891Z" fill="#fa9698"/>
        <g id="Grupo_66454" data-name="Grupo 66454">
          <path id="Trazado_146336" data-name="Trazado 146336" d="M261.886,5881.281a6.584,6.584,0,0,0,.4.954l0,.006a.022.022,0,0,1,.01.013,3.368,3.368,0,0,0,.806.654c.528.249,1.592,1.592,1.848,1.657s.5-.212.775-.142a.238.238,0,0,0,.16-.022l.006,0a.37.37,0,0,0,.065-.043s.009-.008.015-.013a.45.45,0,0,0,.046-.046c.018-.021.036-.042.054-.066a.008.008,0,0,0,0-.007.124.124,0,0,0,.027-.033,1.388,1.388,0,0,0,.112-.207l.179-.111.284-.18a.227.227,0,0,0,.034.033l0,0a.06.06,0,0,0,.025.021.475.475,0,0,0,.082.051.213.213,0,0,0,.046.017.175.175,0,0,0,.052.017.368.368,0,0,0,.088.011.357.357,0,0,0,.1,0,.808.808,0,0,0,.351-.163,10.259,10.259,0,0,0,1.251-1.3.583.583,0,0,0,.053-.685,3.971,3.971,0,0,1-.234-.525l-.005-.013c-.011-.023-.022-.043-.032-.066a6.393,6.393,0,0,0-.758-1.014c-.022-.025-.031-.038-.031-.038-.326-.364-.677-.732-.9-.96-.034-.034-.068-.067-.094-.095-.008-.006-.013-.016-.021-.022a.589.589,0,0,1-.052-.056c-.013-.012-.021-.021-.029-.027a.073.073,0,0,0-.013-.012l-.005-.006-.562.09a2.721,2.721,0,0,0-.788-.34c-.278-.047-.829.4-1.352.382h0c-.551.385-1.091.322-1.376.635S261.642,5880.583,261.886,5881.281Z" fill="#febfbf"/>
          <path id="Trazado_146337" data-name="Trazado 146337" d="M265.079,5883.97a3.942,3.942,0,0,0-.4-1.211c-.277-.43-.9-1.19-.9-1.19s-.247-1.162-.084-1.352.586-.6.586-.6.846,1.2.948,1.375a4.673,4.673,0,0,1,.027,1.183,1.783,1.783,0,0,0-.1,1.158,7.884,7.884,0,0,1,.329,1.1Z" fill="#fa9698"/>
          <path id="Trazado_146338" data-name="Trazado 146338" d="M267.362,5882.935a6.822,6.822,0,0,1-.649.788.4.4,0,0,0,.157.092c.067-.2.928-1.114.994-1.256a8.625,8.625,0,0,0,.588-1.327,4.81,4.81,0,0,0-.721-1.162c-.022-.025-.031-.038-.031-.038a8.271,8.271,0,0,1,.477,1.063A6.56,6.56,0,0,1,267.362,5882.935Z" fill="#fa9698"/>
          <path id="Trazado_146339" data-name="Trazado 146339" d="M266.1,5884.188a1.388,1.388,0,0,0,.112-.207l.179-.111c-.111,0-.142-.084-.1-.2.05-.154.333-1.075.333-1.075a9.585,9.585,0,0,0,.536-1.557,3.265,3.265,0,0,0-1.469-1.762,6.02,6.02,0,0,1,1.1,1.48,15.533,15.533,0,0,1-.671,2.735C266.108,5883.55,266.2,5884.015,266.1,5884.188Z" fill="#fa9698"/>
        </g>
      </g>
      <g id="Grupo_66457" data-name="Grupo 66457">
        <g id="Grupo_66456" data-name="Grupo 66456">
          <path id="Trazado_146340" data-name="Trazado 146340" d="M232.772,5923.81l-13.648-7.879,13.648-7.88,4.532,15.759Z" fill="#becdd4" style="mix-blend-mode: multiply;isolation: isolate"/>
          <path id="Trazado_146341" data-name="Trazado 146341" d="M237.3,5923.81l13.648-7.879v-9.788l-13.648,7.88Z" fill="#ebe7e3"/>
          <path id="Trazado_146342" data-name="Trazado 146342" d="M237.3,5923.81l-13.648-7.879v-9.788l13.648,7.88Z" fill="#ded8d1"/>
          <path id="Trazado_146343" data-name="Trazado 146343" d="M223.655,5906.142l13.648,7.88-7.365-3.94Z" fill="#a0978f"/>
          <path id="Trazado_146344" data-name="Trazado 146344" d="M237.3,5914.022l-13.648-7.88,13.648-7.88,13.648,7.88Z" fill="#fcfbfa"/>
          <path id="Trazado_146345" data-name="Trazado 146345" d="M231.441,5916.824l-2.193-1.266v-6.187l2.193,1.266Z" fill="#9c754e"/>
          <path id="Trazado_146346" data-name="Trazado 146346" d="M231.441,5910.637l13.648-7.88-2.193-1.266-13.648,7.88Z" fill="#f1d6bc"/>
        </g>
        <path id="Trazado_146347" data-name="Trazado 146347" d="M230.427,5910.052l13.648-7.88-.151-.087-13.648,7.88Z" fill="#d1a986"/>
      </g>
    </g>
  </g>
</svg>
