<svg xmlns="http://www.w3.org/2000/svg" width="425" height="316" viewBox="0 0 425 316">
  <g id="Grupo_80249" data-name="Grupo 80249" transform="translate(5471 1658)">
    <g id="Grupo_66075" data-name="Grupo 66075" transform="translate(10.845 -209)">
      <rect id="Rectángulo_5364" data-name="Rectángulo 5364" width="425" height="316" transform="translate(-5481.845 -1449)" fill="#53bced" opacity="0.16"/>
      <rect id="Rectángulo_5365" data-name="Rectángulo 5365" width="391" height="38" transform="translate(-5464.845 -1195)" fill="#dee4f0"/>
      <text id="Nota._Tomada_de_Goñi_2008_." data-name="Nota. Tomada de Goñi (2008)." transform="translate(-5441.845 -1186)" fill="#12263f" font-size="13" font-family="Roboto-Regular, Roboto"><tspan x="0" y="14">Nota. Tomada de Goñi (2008).</tspan></text>
    </g>
    <g id="Grupo_66074" data-name="Grupo 66074" transform="translate(-6247.906 -6222.429)">
      <g id="Grupo_66065" data-name="Grupo 66065" transform="translate(917.97 4578.957)">
        <rect id="Rectángulo_5357" data-name="Rectángulo 5357" width="2.257" height="199.247" transform="translate(7.229 13.472)" fill="#4d4d4d"/>
        <g id="Grupo_66064" data-name="Grupo 66064">
          <path id="Trazado_144660" data-name="Trazado 144660" d="M950.063,4598.766l8.357-3.55,8.357,3.55-8.357-19.81Z" transform="translate(-950.063 -4578.956)" fill="#4d4d4d"/>
        </g>
      </g>
      <g id="Grupo_66067" data-name="Grupo 66067" transform="translate(924.103 4772.983)">
        <rect id="Rectángulo_5358" data-name="Rectángulo 5358" width="239.802" height="2.257" transform="translate(0 7.229)" fill="#4d4d4d"/>
        <g id="Grupo_66066" data-name="Grupo 66066" transform="translate(233.464 0)">
          <path id="Trazado_144661" data-name="Trazado 144661" d="M1268.577,4836.891l3.55,8.356-3.55,8.357,19.81-8.357Z" transform="translate(-1268.577 -4836.891)" fill="#4d4d4d"/>
        </g>
      </g>
      <rect id="Rectángulo_5359" data-name="Rectángulo 5359" width="171.902" height="0.752" transform="translate(924.103 4736.616)" fill="#4d4d4d"/>
      <rect id="Rectángulo_5360" data-name="Rectángulo 5360" width="0.752" height="167.193" transform="translate(969.254 4619.25)" fill="#4d4d4d"/>
      <rect id="Rectángulo_5361" data-name="Rectángulo 5361" width="45.723" height="0.752" transform="translate(923.907 4618.089)" fill="#4d4d4d"/>
      <rect id="Rectángulo_5362" data-name="Rectángulo 5362" width="0.752" height="44.349" transform="translate(1095.629 4736.992)" fill="#4d4d4d"/>
      <rect id="Rectángulo_5363" data-name="Rectángulo 5363" width="4.513" height="252.016" transform="matrix(0.696, -0.718, 0.718, 0.696, 947.258, 4598.5)" fill="#4d4d4d"/>
      <g id="Grupo_66068" data-name="Grupo 66068" transform="translate(837.506 4627.513)">
        <path id="Trazado_144662" data-name="Trazado 144662" d="M845.026,4650.555v3.491H843.1v-9.626h3.834a3.793,3.793,0,0,1,2.612.846,3.077,3.077,0,0,1,0,4.45,3.812,3.812,0,0,1-2.612.839Zm0-1.487h1.9a1.606,1.606,0,0,0,1.223-.439,1.565,1.565,0,0,0,.417-1.122,1.634,1.634,0,0,0-.413-1.146,1.582,1.582,0,0,0-1.227-.454h-1.9Z" transform="translate(-843.096 -4643.732)" fill="#333"/>
        <path id="Trazado_144663" data-name="Trazado 144663" d="M858.371,4649.323l-.707-.02a1.29,1.29,0,0,0-.708.178,1.132,1.132,0,0,0-.423.5v4.833h-1.924v-7.154H856.4l.086,1.058a2.261,2.261,0,0,1,.651-.875,1.515,1.515,0,0,1,1.19-.292c.081.016.164.034.248.056Z" transform="translate(-845.949 -4644.503)" fill="#333"/>
        <path id="Trazado_144664" data-name="Trazado 144664" d="M864,4654.956a3.222,3.222,0,0,1-2.473-.991,3.547,3.547,0,0,1-.926-2.52v-.264a3.916,3.916,0,0,1,.876-2.625,3.266,3.266,0,0,1,4.6-.152,3.36,3.36,0,0,1,.8,2.361v1.051h-4.271l-.013.04a1.856,1.856,0,0,0,.472,1.159,1.475,1.475,0,0,0,1.14.455,3.693,3.693,0,0,0,1.064-.129,4.827,4.827,0,0,0,.926-.406l.522,1.193a3.568,3.568,0,0,1-1.143.594A4.958,4.958,0,0,1,864,4654.956Zm-.172-5.937a1,1,0,0,0-.846.41,2.13,2.13,0,0,0-.383,1.077l.02.033h2.366v-.171a1.55,1.55,0,0,0-.287-.982A1.038,1.038,0,0,0,863.829,4649.019Z" transform="translate(-847.434 -4644.503)" fill="#333"/>
        <path id="Trazado_144665" data-name="Trazado 144665" d="M873.331,4653.468a1.139,1.139,0,0,0,.826-.3,1.053,1.053,0,0,0,.311-.8h1.752l.02.039a2.23,2.23,0,0,1-.817,1.815,3.444,3.444,0,0,1-4.559-.281,3.858,3.858,0,0,1-.866-2.6v-.2a3.877,3.877,0,0,1,.863-2.6,3.046,3.046,0,0,1,2.463-1.019,3,3,0,0,1,2.132.754,2.505,2.505,0,0,1,.784,1.983l-.014.04h-1.759a1.4,1.4,0,0,0-.3-.923,1.033,1.033,0,0,0-.84-.367,1.12,1.12,0,0,0-1.081.594,3.26,3.26,0,0,0-.314,1.532v.2a3.25,3.25,0,0,0,.314,1.542A1.13,1.13,0,0,0,873.331,4653.468Z" transform="translate(-849.762 -4644.503)" fill="#333"/>
        <path id="Trazado_144666" data-name="Trazado 144666" d="M881.817,4644.954h-1.93v-1.448h1.93Zm0,8.866h-1.93v-7.154h1.93Z" transform="translate(-852.211 -4643.506)" fill="#333"/>
        <path id="Trazado_144667" data-name="Trazado 144667" d="M884.167,4651.174a3.84,3.84,0,0,1,.892-2.622,3.523,3.523,0,0,1,4.959,0,3.818,3.818,0,0,1,.9,2.625v.139a3.831,3.831,0,0,1-.9,2.629,3.538,3.538,0,0,1-4.959,0,3.829,3.829,0,0,1-.9-2.629Zm1.923.136a3.11,3.11,0,0,0,.344,1.568,1.322,1.322,0,0,0,2.205,0,3.085,3.085,0,0,0,.347-1.564v-.139a3.049,3.049,0,0,0-.351-1.552,1.186,1.186,0,0,0-1.1-.6,1.17,1.17,0,0,0-1.094.6,3.081,3.081,0,0,0-.348,1.549Z" transform="translate(-853.272 -4644.503)" fill="#333"/>
        <path id="Trazado_144668" data-name="Trazado 144668" d="M901.267,4644.954h-1.93v-1.448h1.93Zm0,8.866h-1.93v-7.154h1.93Z" transform="translate(-857.031 -4643.506)" fill="#333"/>
        <path id="Trazado_144669" data-name="Trazado 144669" d="M905.767,4647.663l.086,1.025a2.626,2.626,0,0,1,.879-.854,2.29,2.29,0,0,1,1.17-.3,2.153,2.153,0,0,1,1.693.681,3.146,3.146,0,0,1,.609,2.136v4.47h-1.938v-4.474a1.453,1.453,0,0,0-.29-1.023,1.17,1.17,0,0,0-.879-.3,1.489,1.489,0,0,0-.687.156,1.4,1.4,0,0,0-.509.441v5.2h-1.93v-7.154Z" transform="translate(-858.178 -4644.503)" fill="#333"/>
        <path id="Trazado_144670" data-name="Trazado 144670" d="M916.235,4644.954H914.3v-1.448h1.931Zm0,8.866H914.3v-7.154h1.931Z" transform="translate(-860.739 -4643.506)" fill="#333"/>
        <path id="Trazado_144671" data-name="Trazado 144671" d="M921.873,4653.468a1.139,1.139,0,0,0,.826-.3,1.053,1.053,0,0,0,.311-.8h1.752l.02.039a2.23,2.23,0,0,1-.817,1.815,3.444,3.444,0,0,1-4.559-.281,3.858,3.858,0,0,1-.866-2.6v-.2a3.877,3.877,0,0,1,.863-2.6,3.046,3.046,0,0,1,2.463-1.019,3,3,0,0,1,2.132.754,2.5,2.5,0,0,1,.784,1.983l-.014.04H923.01a1.4,1.4,0,0,0-.3-.923,1.033,1.033,0,0,0-.839-.367,1.12,1.12,0,0,0-1.081.594,3.26,3.26,0,0,0-.314,1.532v.2a3.25,3.25,0,0,0,.314,1.542A1.13,1.13,0,0,0,921.873,4653.468Z" transform="translate(-861.789 -4644.503)" fill="#333"/>
        <path id="Trazado_144672" data-name="Trazado 144672" d="M930.359,4644.954h-1.93v-1.448h1.93Zm0,8.866h-1.93v-7.154h1.93Z" transform="translate(-864.239 -4643.506)" fill="#333"/>
        <path id="Trazado_144673" data-name="Trazado 144673" d="M937.178,4654.817a4.116,4.116,0,0,1-.181-.516,3.5,3.5,0,0,1-.109-.555,2.655,2.655,0,0,1-.784.866,1.953,1.953,0,0,1-1.16.344,2.418,2.418,0,0,1-1.732-.578,2.074,2.074,0,0,1-.609-1.577,1.888,1.888,0,0,1,.81-1.63,4.051,4.051,0,0,1,2.364-.579h1.078v-.567a1.113,1.113,0,0,0-.272-.8,1.265,1.265,0,0,0-1.524-.056.8.8,0,0,0-.254.631l-1.864-.007-.007-.04a1.816,1.816,0,0,1,.787-1.563,3.434,3.434,0,0,1,2.188-.658,3.2,3.2,0,0,1,2.082.651,2.257,2.257,0,0,1,.8,1.854v2.956a5.626,5.626,0,0,0,.076.945,4.685,4.685,0,0,0,.241.879Zm-1.765-1.29a1.662,1.662,0,0,0,.906-.251,1.315,1.315,0,0,0,.536-.582v-1.011h-1.078a1.289,1.289,0,0,0-.932.307,1,1,0,0,0-.318.745.742.742,0,0,0,.238.575A.922.922,0,0,0,935.413,4653.527Z" transform="translate(-865.273 -4644.503)" fill="#333"/>
        <path id="Trazado_144674" data-name="Trazado 144674" d="M944.835,4653.82H942.9v-10.314h1.931Z" transform="translate(-867.825 -4643.506)" fill="#333"/>
      </g>
      <g id="Grupo_66069" data-name="Grupo 66069" transform="translate(845.542 4736.089)">
        <path id="Trazado_144675" data-name="Trazado 144675" d="M855.71,4795.078v3.49h-1.931v-9.626h3.835a3.792,3.792,0,0,1,2.611.846,3.075,3.075,0,0,1,0,4.449,3.809,3.809,0,0,1-2.611.841Zm0-1.488h1.9a1.6,1.6,0,0,0,1.223-.44,1.562,1.562,0,0,0,.416-1.12,1.638,1.638,0,0,0-.413-1.147,1.578,1.578,0,0,0-1.226-.453h-1.9Z" transform="translate(-853.779 -4788.116)" fill="#333"/>
        <path id="Trazado_144676" data-name="Trazado 144676" d="M869.055,4793.845l-.708-.02a1.283,1.283,0,0,0-.707.178,1.139,1.139,0,0,0-.424.5v4.833h-1.923v-7.153h1.792l.086,1.059a2.25,2.25,0,0,1,.652-.876,1.447,1.447,0,0,1,.922-.314,1.428,1.428,0,0,1,.268.023q.122.023.247.056Z" transform="translate(-856.632 -4788.887)" fill="#333"/>
        <path id="Trazado_144677" data-name="Trazado 144677" d="M874.685,4799.479a3.22,3.22,0,0,1-2.473-.992,3.545,3.545,0,0,1-.925-2.518v-.265a3.914,3.914,0,0,1,.876-2.625,3.267,3.267,0,0,1,4.6-.152,3.358,3.358,0,0,1,.8,2.36v1.052H873.29l-.014.04a1.861,1.861,0,0,0,.473,1.159,1.476,1.476,0,0,0,1.14.454,3.681,3.681,0,0,0,1.064-.129,4.856,4.856,0,0,0,.925-.407l.523,1.193a3.552,3.552,0,0,1-1.144.594A4.94,4.94,0,0,1,874.685,4799.479Zm-.172-5.937a1,1,0,0,0-.846.41,2.139,2.139,0,0,0-.384,1.078l.02.033h2.367v-.172a1.552,1.552,0,0,0-.287-.982A1.039,1.039,0,0,0,874.513,4793.542Z" transform="translate(-858.117 -4788.887)" fill="#333"/>
        <path id="Trazado_144678" data-name="Trazado 144678" d="M884.014,4797.991a1.147,1.147,0,0,0,.827-.3,1.059,1.059,0,0,0,.311-.8H886.9l.02.041a2.225,2.225,0,0,1-.816,1.814,3.444,3.444,0,0,1-4.559-.281,3.855,3.855,0,0,1-.867-2.6v-.2a3.881,3.881,0,0,1,.863-2.6,3.05,3.05,0,0,1,2.463-1.018,3.006,3.006,0,0,1,2.133.754,2.5,2.5,0,0,1,.783,1.982l-.013.04h-1.759a1.4,1.4,0,0,0-.3-.923,1.035,1.035,0,0,0-.84-.366,1.122,1.122,0,0,0-1.081.594,3.276,3.276,0,0,0-.314,1.532v.2a3.258,3.258,0,0,0,.314,1.542A1.132,1.132,0,0,0,884.014,4797.991Z" transform="translate(-860.445 -4788.887)" fill="#333"/>
        <path id="Trazado_144679" data-name="Trazado 144679" d="M892.5,4789.477H890.57v-1.449H892.5Zm0,8.865H890.57v-7.153H892.5Z" transform="translate(-862.894 -4787.89)" fill="#333"/>
        <path id="Trazado_144680" data-name="Trazado 144680" d="M894.85,4795.7a3.84,3.84,0,0,1,.893-2.621,3.113,3.113,0,0,1,2.473-1.021,3.145,3.145,0,0,1,2.486,1.018,3.817,3.817,0,0,1,.9,2.624v.14a3.825,3.825,0,0,1-.9,2.628,3.538,3.538,0,0,1-4.959,0,3.825,3.825,0,0,1-.9-2.628Zm1.924.136a3.1,3.1,0,0,0,.344,1.568,1.188,1.188,0,0,0,1.111.59,1.175,1.175,0,0,0,1.094-.594,3.078,3.078,0,0,0,.347-1.564v-.138a3.054,3.054,0,0,0-.351-1.551,1.187,1.187,0,0,0-1.1-.6,1.172,1.172,0,0,0-1.094.6,3.088,3.088,0,0,0-.347,1.548Z" transform="translate(-863.955 -4788.887)" fill="#333"/>
        <path id="Trazado_144681" data-name="Trazado 144681" d="M910.205,4798.3v-5.8h-1.064v-1.355h1.064v-.793a2.417,2.417,0,0,1,.694-1.854,2.741,2.741,0,0,1,1.951-.651,3.654,3.654,0,0,1,.5.035c.169.025.356.06.558.1l-.165,1.435c-.106-.017-.208-.033-.308-.046a2.594,2.594,0,0,0-.348-.02.929.929,0,0,0-.71.257,1.046,1.046,0,0,0-.241.741v.793h1.421v1.355h-1.421v5.8Z" transform="translate(-867.496 -4787.844)" fill="#333"/>
        <path id="Trazado_144682" data-name="Trazado 144682" d="M918.384,4789.477h-1.93v-1.449h1.93Zm0,8.865h-1.93v-7.153h1.93Z" transform="translate(-869.308 -4787.89)" fill="#333"/>
        <path id="Trazado_144683" data-name="Trazado 144683" d="M922.884,4792.186l.087,1.025a2.607,2.607,0,0,1,.879-.853,2.271,2.271,0,0,1,1.17-.3,2.15,2.15,0,0,1,1.693.681,3.142,3.142,0,0,1,.609,2.135v4.469h-1.937v-4.472a1.453,1.453,0,0,0-.291-1.024,1.174,1.174,0,0,0-.879-.3,1.483,1.483,0,0,0-.688.156,1.412,1.412,0,0,0-.509.441v5.2h-1.93v-7.153Z" transform="translate(-870.455 -4788.887)" fill="#333"/>
        <path id="Trazado_144684" data-name="Trazado 144684" d="M935.364,4799.339a4.1,4.1,0,0,1-.182-.515,3.616,3.616,0,0,1-.109-.556,2.659,2.659,0,0,1-.783.866,1.959,1.959,0,0,1-1.161.344,2.413,2.413,0,0,1-1.732-.579,2.071,2.071,0,0,1-.608-1.577,1.888,1.888,0,0,1,.81-1.63,4.054,4.054,0,0,1,2.364-.578h1.077v-.568a1.113,1.113,0,0,0-.271-.8,1.265,1.265,0,0,0-1.524-.057.8.8,0,0,0-.254.631l-1.865-.006-.007-.04a1.814,1.814,0,0,1,.787-1.562,3.426,3.426,0,0,1,2.188-.659,3.2,3.2,0,0,1,2.083.651,2.255,2.255,0,0,1,.8,1.855v2.955a5.528,5.528,0,0,0,.077.945,4.736,4.736,0,0,0,.241.879Zm-1.765-1.289a1.652,1.652,0,0,0,.906-.251,1.3,1.3,0,0,0,.536-.581v-1.012h-1.077a1.3,1.3,0,0,0-.933.307,1,1,0,0,0-.317.745.742.742,0,0,0,.238.575A.917.917,0,0,0,933.6,4798.05Z" transform="translate(-872.859 -4788.887)" fill="#333"/>
        <path id="Trazado_144685" data-name="Trazado 144685" d="M943.02,4798.342h-1.93v-10.314h1.93Z" transform="translate(-875.412 -4787.89)" fill="#333"/>
      </g>
      <g id="Grupo_66070" data-name="Grupo 66070" transform="translate(820.534 4664.257)">
        <path id="Trazado_144686" data-name="Trazado 144686" d="M820.534,4699.1a8.935,8.935,0,0,1,1.005-4.4,5.039,5.039,0,0,1,2.274-2.344h.04l.351.966a4.794,4.794,0,0,0-1.455,2.088,9.819,9.819,0,0,0-.588,3.676v.172a9.813,9.813,0,0,0,.588,3.679,4.96,4.96,0,0,0,1.455,2.106l-.351.945h-.04a5.032,5.032,0,0,1-2.274-2.34,8.933,8.933,0,0,1-1.005-4.4Z" transform="translate(-820.534 -4692.353)" fill="#333"/>
        <path id="Trazado_144687" data-name="Trazado 144687" d="M828.819,4699.86v3.49h-1.931v-9.626h3.835a3.793,3.793,0,0,1,2.612.846,3.077,3.077,0,0,1,0,4.45,3.814,3.814,0,0,1-2.612.839Zm0-1.488h1.9a1.6,1.6,0,0,0,1.223-.44,1.56,1.56,0,0,0,.417-1.12,1.635,1.635,0,0,0-.413-1.146,1.579,1.579,0,0,0-1.227-.454h-1.9Z" transform="translate(-822.108 -4692.693)" fill="#333"/>
        <path id="Trazado_144688" data-name="Trazado 144688" d="M837.256,4705.963h-1.93v-1.692h1.93Z" transform="translate(-824.199 -4695.306)" fill="#333"/>
        <path id="Trazado_144689" data-name="Trazado 144689" d="M844.37,4699.607a4.653,4.653,0,0,1,.73-2.731,2.373,2.373,0,0,1,2.06-1.038,2,2,0,0,1,.965.231,2.333,2.333,0,0,1,.754.662v-3.921h1.937v10.313h-1.659l-.159-.873a2.363,2.363,0,0,1-.8.754,2.112,2.112,0,0,1-1.055.258,2.42,2.42,0,0,1-2.046-.965,4.126,4.126,0,0,1-.73-2.552Zm1.924.14a2.948,2.948,0,0,0,.317,1.486,1.106,1.106,0,0,0,1.032.542,1.5,1.5,0,0,0,.727-.169,1.353,1.353,0,0,0,.509-.495v-3.067a1.5,1.5,0,0,0-.505-.529,1.341,1.341,0,0,0-.718-.189,1.09,1.09,0,0,0-1.034.632,3.593,3.593,0,0,0-.327,1.65Z" transform="translate(-826.44 -4692.466)" fill="#333"/>
        <path id="Trazado_144690" data-name="Trazado 144690" d="M858.017,4704.261a3.225,3.225,0,0,1-2.473-.991,3.55,3.55,0,0,1-.925-2.52v-.265a3.909,3.909,0,0,1,.876-2.625,3.265,3.265,0,0,1,4.6-.152,3.356,3.356,0,0,1,.8,2.36v1.051h-4.271l-.014.04a1.86,1.86,0,0,0,.473,1.16,1.479,1.479,0,0,0,1.14.453,3.7,3.7,0,0,0,1.064-.128,4.854,4.854,0,0,0,.926-.407l.522,1.193a3.553,3.553,0,0,1-1.144.594A4.939,4.939,0,0,1,858.017,4704.261Zm-.172-5.937a1,1,0,0,0-.846.41,2.143,2.143,0,0,0-.384,1.078l.02.033H859v-.172a1.55,1.55,0,0,0-.287-.982A1.039,1.039,0,0,0,857.844,4698.323Z" transform="translate(-828.979 -4693.464)" fill="#333"/>
        <path id="Trazado_144691" data-name="Trazado 144691" d="M868.54,4699.607a4.654,4.654,0,0,1,.73-2.731,2.372,2.372,0,0,1,2.06-1.038,2,2,0,0,1,.965.231,2.331,2.331,0,0,1,.754.662v-3.921h1.937v10.313h-1.659l-.159-.873a2.363,2.363,0,0,1-.8.754,2.112,2.112,0,0,1-1.055.258,2.42,2.42,0,0,1-2.046-.965,4.127,4.127,0,0,1-.73-2.552Zm1.923.14a2.948,2.948,0,0,0,.317,1.486,1.105,1.105,0,0,0,1.031.542,1.5,1.5,0,0,0,.727-.169,1.353,1.353,0,0,0,.509-.495v-3.067a1.5,1.5,0,0,0-.506-.529,1.34,1.34,0,0,0-.718-.189,1.09,1.09,0,0,0-1.034.632,3.583,3.583,0,0,0-.328,1.65Z" transform="translate(-832.428 -4692.466)" fill="#333"/>
        <path id="Trazado_144692" data-name="Trazado 144692" d="M882.186,4704.261a3.225,3.225,0,0,1-2.473-.991,3.55,3.55,0,0,1-.925-2.52v-.265a3.912,3.912,0,0,1,.876-2.625,3.266,3.266,0,0,1,4.6-.152,3.356,3.356,0,0,1,.8,2.36v1.051h-4.271l-.014.04a1.86,1.86,0,0,0,.473,1.16,1.479,1.479,0,0,0,1.14.453,3.7,3.7,0,0,0,1.064-.128,4.825,4.825,0,0,0,.925-.407l.523,1.193a3.554,3.554,0,0,1-1.144.594A4.94,4.94,0,0,1,882.186,4704.261Zm-.171-5.937a1,1,0,0,0-.846.41,2.141,2.141,0,0,0-.384,1.078l.02.033h2.367v-.172a1.55,1.55,0,0,0-.287-.982A1.039,1.039,0,0,0,882.014,4698.323Z" transform="translate(-834.967 -4693.464)" fill="#333"/>
        <path id="Trazado_144693" data-name="Trazado 144693" d="M892.385,4702.151a.674.674,0,0,0-.307-.548,3.138,3.138,0,0,0-1.14-.41,4.614,4.614,0,0,1-1.914-.764,1.658,1.658,0,0,1-.645-1.378,1.971,1.971,0,0,1,.777-1.57,3.148,3.148,0,0,1,2.079-.645,3.415,3.415,0,0,1,2.179.641,1.9,1.9,0,0,1,.777,1.62l-.014.039h-1.864a.942.942,0,0,0-.275-.7,1.314,1.314,0,0,0-1.541-.043.72.72,0,0,0-.268.572.652.652,0,0,0,.281.542,3.071,3.071,0,0,0,1.14.377,4.621,4.621,0,0,1,1.963.776,1.71,1.71,0,0,1,.642,1.412,1.877,1.877,0,0,1-.827,1.576,3.577,3.577,0,0,1-2.182.612,3.321,3.321,0,0,1-2.258-.724,2.027,2.027,0,0,1-.79-1.65l.014-.04h1.765a1,1,0,0,0,.377.833,1.554,1.554,0,0,0,.932.258,1.345,1.345,0,0,0,.817-.212A.682.682,0,0,0,892.385,4702.151Z" transform="translate(-837.299 -4693.464)" fill="#333"/>
        <path id="Trazado_144694" data-name="Trazado 144694" d="M899.659,4696.969l.086,1.024a2.607,2.607,0,0,1,.879-.853,2.284,2.284,0,0,1,1.17-.3,2.152,2.152,0,0,1,1.693.681,3.145,3.145,0,0,1,.608,2.136v4.469h-1.937v-4.473a1.453,1.453,0,0,0-.291-1.024,1.171,1.171,0,0,0-.879-.3,1.493,1.493,0,0,0-.688.156,1.409,1.409,0,0,0-.508.441v5.2H897.86v-7.153Z" transform="translate(-839.693 -4693.464)" fill="#333"/>
        <path id="Trazado_144695" data-name="Trazado 144695" d="M912.138,4704.122a4.036,4.036,0,0,1-.181-.516,3.5,3.5,0,0,1-.109-.555,2.674,2.674,0,0,1-.784.866,1.955,1.955,0,0,1-1.16.344,2.414,2.414,0,0,1-1.732-.579,2.073,2.073,0,0,1-.609-1.577,1.887,1.887,0,0,1,.81-1.63,4.048,4.048,0,0,1,2.364-.579h1.078v-.569a1.109,1.109,0,0,0-.272-.8,1.263,1.263,0,0,0-1.524-.056.8.8,0,0,0-.254.63l-1.864-.006-.007-.04a1.814,1.814,0,0,1,.787-1.563,3.429,3.429,0,0,1,2.188-.658,3.2,3.2,0,0,1,2.082.651,2.256,2.256,0,0,1,.8,1.855v2.956a5.6,5.6,0,0,0,.076.944,4.683,4.683,0,0,0,.241.879Zm-1.765-1.29a1.661,1.661,0,0,0,.906-.25,1.31,1.31,0,0,0,.536-.582v-1.012h-1.078a1.289,1.289,0,0,0-.932.308,1,1,0,0,0-.318.744.743.743,0,0,0,.238.575A.922.922,0,0,0,910.373,4702.832Z" transform="translate(-842.097 -4693.464)" fill="#333"/>
        <path id="Trazado_144696" data-name="Trazado 144696" d="M919.8,4694.682v1.753h1.2v1.354h-1.2v3.643a.839.839,0,0,0,.172.6.611.611,0,0,0,.463.179,1.564,1.564,0,0,0,.261-.017,2.125,2.125,0,0,0,.254-.056l.165,1.395a3.87,3.87,0,0,1-.569.149,3.509,3.509,0,0,1-.6.05,2.054,2.054,0,0,1-1.537-.55,2.4,2.4,0,0,1-.539-1.738v-3.65h-1.045v-1.354h1.045v-1.753Z" transform="translate(-844.392 -4692.93)" fill="#333"/>
        <path id="Trazado_144697" data-name="Trazado 144697" d="M928.09,4704.122a4.055,4.055,0,0,1-.181-.516,3.505,3.505,0,0,1-.109-.555,2.673,2.673,0,0,1-.784.866,1.954,1.954,0,0,1-1.16.344,2.414,2.414,0,0,1-1.732-.579,2.073,2.073,0,0,1-.609-1.577,1.887,1.887,0,0,1,.81-1.63,4.048,4.048,0,0,1,2.364-.579h1.078v-.569a1.109,1.109,0,0,0-.271-.8,1.052,1.052,0,0,0-.8-.285,1.039,1.039,0,0,0-.724.229.8.8,0,0,0-.255.63l-1.864-.006-.007-.04a1.814,1.814,0,0,1,.787-1.563,3.429,3.429,0,0,1,2.188-.658,3.2,3.2,0,0,1,2.083.651,2.257,2.257,0,0,1,.8,1.855v2.956a5.623,5.623,0,0,0,.076.944,4.684,4.684,0,0,0,.242.879Zm-1.765-1.29a1.661,1.661,0,0,0,.906-.25,1.309,1.309,0,0,0,.536-.582v-1.012h-1.078a1.289,1.289,0,0,0-.932.308,1,1,0,0,0-.318.744.745.745,0,0,0,.238.575A.922.922,0,0,0,926.325,4702.832Z" transform="translate(-846.049 -4693.464)" fill="#333"/>
        <path id="Trazado_144698" data-name="Trazado 144698" d="M933.289,4699.607a4.653,4.653,0,0,1,.73-2.731,2.373,2.373,0,0,1,2.06-1.038,2,2,0,0,1,.965.231,2.333,2.333,0,0,1,.754.662v-3.921h1.937v10.313h-1.659l-.159-.873a2.363,2.363,0,0,1-.8.754,2.112,2.112,0,0,1-1.055.258,2.42,2.42,0,0,1-2.046-.965,4.126,4.126,0,0,1-.73-2.552Zm1.923.14a2.948,2.948,0,0,0,.317,1.486,1.105,1.105,0,0,0,1.031.542,1.5,1.5,0,0,0,.727-.169,1.353,1.353,0,0,0,.509-.495v-3.067a1.5,1.5,0,0,0-.505-.529,1.341,1.341,0,0,0-.718-.189,1.09,1.09,0,0,0-1.034.632,3.592,3.592,0,0,0-.328,1.65Z" transform="translate(-848.471 -4692.466)" fill="#333"/>
        <path id="Trazado_144699" data-name="Trazado 144699" d="M943.449,4700.479a3.842,3.842,0,0,1,.893-2.623,3.524,3.524,0,0,1,4.958,0,3.82,3.82,0,0,1,.9,2.625v.138a3.823,3.823,0,0,1-.9,2.628,3.535,3.535,0,0,1-4.959,0,3.823,3.823,0,0,1-.9-2.628Zm1.924.134a3.1,3.1,0,0,0,.344,1.568,1.322,1.322,0,0,0,2.2,0,3.085,3.085,0,0,0,.347-1.565v-.138a3.05,3.05,0,0,0-.351-1.552,1.186,1.186,0,0,0-1.1-.6,1.172,1.172,0,0,0-1.094.6,3.076,3.076,0,0,0-.347,1.548Z" transform="translate(-850.988 -4693.464)" fill="#333"/>
        <path id="Trazado_144700" data-name="Trazado 144700" d="M957.068,4699.243a8.7,8.7,0,0,1-1.048,4.373,5.15,5.15,0,0,1-2.33,2.37h-.04l-.357-.945a4.913,4.913,0,0,0,1.448-2.1,9.8,9.8,0,0,0,.595-3.689v-.172a9.706,9.706,0,0,0-.6-3.679,5.064,5.064,0,0,0-1.441-2.113l.357-.939h.04a5.145,5.145,0,0,1,2.33,2.374,8.7,8.7,0,0,1,1.048,4.37Z" transform="translate(-853.427 -4692.353)" fill="#333"/>
      </g>
      <g id="Grupo_66071" data-name="Grupo 66071" transform="translate(905.834 4591.112)">
        <path id="Trazado_144701" data-name="Trazado 144701" d="M935.859,4601.25v3.491h-1.93v-9.626h3.834a3.791,3.791,0,0,1,2.612.847,3.075,3.075,0,0,1,0,4.449,3.81,3.81,0,0,1-2.612.84Zm0-1.487h1.9a1.6,1.6,0,0,0,1.223-.44,1.564,1.564,0,0,0,.417-1.12,1.639,1.639,0,0,0-.413-1.147,1.582,1.582,0,0,0-1.227-.453h-1.9Z" transform="translate(-933.929 -4595.115)" fill="#333"/>
      </g>
      <g id="Grupo_66072" data-name="Grupo 66072" transform="translate(935.859 4797.208)">
        <path id="Trazado_144702" data-name="Trazado 144702" d="M980.356,4875.11a4.248,4.248,0,0,1-.876,2.9,3.356,3.356,0,0,1-4.757,0,4.236,4.236,0,0,1-.879-2.9v-2.123a4.258,4.258,0,0,1,.876-2.9,3.336,3.336,0,0,1,4.753,0,4.24,4.24,0,0,1,.882,2.9Zm-1.923-2.323a3.165,3.165,0,0,0-.344-1.674,1.193,1.193,0,0,0-1.984,0,3.218,3.218,0,0,0-.337,1.679v2.5a3.224,3.224,0,0,0,.34,1.69,1.117,1.117,0,0,0,1,.528,1.1,1.1,0,0,0,.985-.528,3.242,3.242,0,0,0,.338-1.69Z" transform="translate(-973.844 -4869.094)" fill="#333"/>
      </g>
      <g id="Grupo_66073" data-name="Grupo 66073" transform="translate(1130.553 4797.208)">
        <path id="Trazado_144703" data-name="Trazado 144703" d="M1240.7,4874.919a4.5,4.5,0,0,1-.284,1.619,3.8,3.8,0,0,1-.813,1.294l1.593,1.554-1.263,1.027-1.732-1.679a4.83,4.83,0,0,1-.74.195,4.436,4.436,0,0,1-.794.07,3.829,3.829,0,0,1-2.889-1.157,4.062,4.062,0,0,1-1.11-2.929v-1.732a4.068,4.068,0,0,1,1.107-2.925,3.807,3.807,0,0,1,2.885-1.16,3.876,3.876,0,0,1,2.916,1.161,4.043,4.043,0,0,1,1.125,2.93Zm-1.931-1.747a2.922,2.922,0,0,0-.562-1.849,1.853,1.853,0,0,0-1.547-.721,1.8,1.8,0,0,0-1.527.718,3,3,0,0,0-.542,1.852v1.748a3.006,3.006,0,0,0,.549,1.868,1.809,1.809,0,0,0,1.527.722,1.841,1.841,0,0,0,1.547-.722,2.98,2.98,0,0,0,.555-1.868Z" transform="translate(-1232.664 -4869.094)" fill="#333"/>
      </g>
    </g>
  </g>
</svg>
