<svg xmlns="http://www.w3.org/2000/svg" xmlns:xlink="http://www.w3.org/1999/xlink" width="212.288" height="214.511" viewBox="0 0 212.288 214.511">
  <defs>
    <linearGradient id="linear-gradient" x1="-3475.163" y1="91.257" x2="-3474.197" y2="91.257" gradientUnits="objectBoundingBox">
      <stop offset="0.122" stop-color="#feb9b8"/>
      <stop offset="1" stop-color="#ffdede"/>
    </linearGradient>
    <linearGradient id="linear-gradient-2" x1="-943.837" y1="0.831" x2="-944.074" y2="-0.042" gradientUnits="objectBoundingBox">
      <stop offset="0.122" stop-color="#f7413e"/>
      <stop offset="0.99" stop-color="#ff6d67"/>
    </linearGradient>
    <linearGradient id="linear-gradient-3" x1="1995.983" y1="0.571" x2="1996.523" y2="1.142" gradientUnits="objectBoundingBox">
      <stop offset="0.122" stop-color="#fca4b5"/>
      <stop offset="0.99" stop-color="#ffadb7"/>
    </linearGradient>
    <linearGradient id="linear-gradient-4" x1="-2150.757" y1="0.684" x2="-2149.38" y2="0.188" xlink:href="#linear-gradient"/>
    <linearGradient id="linear-gradient-5" x1="-3951.343" y1="0.208" x2="-3952.051" y2="0.871" xlink:href="#linear-gradient-3"/>
  </defs>
  <g id="Grupo_64820" data-name="Grupo 64820" transform="translate(-632.862 -5799.531)">
    <rect id="Rectángulo_19304" data-name="Rectángulo 19304" width="212.288" height="214.511" transform="translate(632.862 5799.532)" fill="none"/>
    <g id="Grupo_66564" data-name="Grupo 66564">
      <g id="Grupo_66559" data-name="Grupo 66559">
        <path id="Trazado_146636" data-name="Trazado 146636" d="M726.072,5954.226c-7.373-4.257-19.292-4.279-26.619-.048s-7.291,11.111.083,15.369,19.292,4.278,26.62.048S733.446,5958.483,726.072,5954.226Z" fill="#becdd4" style="mix-blend-mode: multiply;isolation: isolate"/>
        <path id="Trazado_146637" data-name="Trazado 146637" d="M727.948,5964.517l15.854-9.153-15.854-9.153-15.854,9.153Z" fill="#becdd4" style="mix-blend-mode: multiply;isolation: isolate"/>
        <g id="Grupo_66558" data-name="Grupo 66558">
          <g id="Grupo_66553" data-name="Grupo 66553">
            <path id="Trazado_146638" data-name="Trazado 146638" d="M730.69,5878.541s-.075-.862-.729-.6a21.458,21.458,0,0,0-3.834,3.008,11.722,11.722,0,0,1-1.25,2.334c-.6.712-11.26,5.366-11.382,5.781s2.355,3.568,4.524,2.521,7.5-5.325,8.422-5.577a5.774,5.774,0,0,0,1.907-.771,10.137,10.137,0,0,0,1.4-1.5,9.66,9.66,0,0,0,2.074-.89.416.416,0,0,0-.352-.639,17.148,17.148,0,0,0-2.1.566l.907-.807s1.768-.848,1.78-1.187a.812.812,0,0,0-.565-.684c-.161,0,.312-.221.293-.669s-.692-.634-.692-.634Z" fill="#febfbf"/>
            <path id="Trazado_146639" data-name="Trazado 146639" d="M726.309,5883.766s.947.321,1.181-.834-.289-2-.267-2.587a4.02,4.02,0,0,1,.124-.926,1.983,1.983,0,0,0,.373-1.619c-.246-.846-.73.138-.779.244s-.5.993-.553,1.17-.484,1.578-.541,2.029S724.435,5883.607,726.309,5883.766Z" fill="#fec7c6"/>
          </g>
          <g id="Grupo_66554" data-name="Grupo 66554">
            <path id="Trazado_146640" data-name="Trazado 146640" d="M738.79,5893.887l-11.155-6.44v-12.8l11.155,6.44Z" fill="#c99a6b"/>
            <path id="Trazado_146641" data-name="Trazado 146641" d="M738.79,5893.887l11.155-6.44v-12.8l-11.155,6.44Z" fill="#ae835b"/>
            <path id="Trazado_146642" data-name="Trazado 146642" d="M738.79,5881.086l11.155-6.44-11.155-6.44-11.155,6.44Z" fill="#e8b687"/>
            <path id="Trazado_146643" data-name="Trazado 146643" d="M733.763,5883.241l-1.792-1.035v-5.057l1.792,1.035Z" fill="#d9af84"/>
            <path id="Trazado_146644" data-name="Trazado 146644" d="M733.763,5878.185l11.155-6.441-1.792-1.035-11.155,6.44Z" fill="#ebcbab"/>
            <path id="Trazado_146645" data-name="Trazado 146645" d="M732.933,5877.706l11.156-6.441-.1-.058-11.155,6.44Z" fill="#d1a986"/>
            <path id="Trazado_146646" data-name="Trazado 146646" d="M749.945,5874.646l-11.155,6.44,6.019-3.22Z" fill="#87623f"/>
          </g>
          <g id="Grupo_66556" data-name="Grupo 66556">
            <path id="Trazado_146647" data-name="Trazado 146647" d="M704.333,5883.235a3.137,3.137,0,0,0-3.114-.008c-2,.857-2.881,3.366-3.046,3.968s-.31,8.365-.31,8.365.882,2.3,4.531,1.373S704.333,5883.235,704.333,5883.235Z" fill="#ffdc6e"/>
            <path id="Trazado_146648" data-name="Trazado 146648" d="M707.671,5953.949a8.359,8.359,0,0,1,3.6-1.132c1.5.032,1.362,1.864,1.093,2.689s-2.9,2.971-2.9,2.971l-1.213,1.2a16.913,16.913,0,0,1-1.757,1.678,2.814,2.814,0,0,1-2.461.1c-.8-.339-.96-.512-1.005-.586a5.672,5.672,0,0,1,.005-3.364C703.59,5955.9,707.671,5953.949,707.671,5953.949Z" fill="#5c6467"/>
            <path id="Trazado_146649" data-name="Trazado 146649" d="M702.641,5942.974c-.273,3.19-.273,7.3-.244,10.49a45.927,45.927,0,0,0,.2,4.742,2.815,2.815,0,0,0,2.443,1.136,4.318,4.318,0,0,0,1.523-.374,7.226,7.226,0,0,0,2.515-1.724,9.676,9.676,0,0,0-.144-2.529,32.8,32.8,0,0,1,.158-9.356c.776-4.268,2.4-10.835,2.472-12.933a33.227,33.227,0,0,0-.23-3.621c-.316-3.449-.863-7.832-.863-7.832l-9.642-3.808s-.33,4.943,1.581,8.32a14.279,14.279,0,0,1,1.538,7.99C703.891,5934.769,702.9,5939.784,702.641,5942.974Z" fill="#7282b5"/>
            <path id="Trazado_146650" data-name="Trazado 146650" d="M706.564,5958.968a7.226,7.226,0,0,0,2.515-1.724,9.676,9.676,0,0,0-.144-2.529,32.8,32.8,0,0,1,.158-9.356c.776-4.268,2.4-10.835,2.472-12.933a33.227,33.227,0,0,0-.23-3.621,10.341,10.341,0,0,0-3.679-2.371s1.868,6.164,1.207,9.944c-.646,3.779-1.911,9.341-1.854,13.048.072,3.722,1.322,7.013,0,8.924C706.88,5958.551,706.722,5958.752,706.564,5958.968Z" fill="#e8d0c8" style="mix-blend-mode: multiply;isolation: isolate"/>
            <path id="Trazado_146651" data-name="Trazado 146651" d="M723.9,5962.948c-.337.752-.736,1.86-3.364,2.525s-3.452.422-4.034.664-1.677.82-2.011.879a7.247,7.247,0,0,1-3.127,0,2.023,2.023,0,0,1-1.219-1.1,1.048,1.048,0,0,1-.068-.257,6.6,6.6,0,0,1,.083-2.263c.226-.3,5.44-3.14,5.44-3.14s4.334.209,5.265.194a8,8,0,0,1,2.638.29,2.246,2.246,0,0,1,.495,1.253A1.815,1.815,0,0,1,723.9,5962.948Z" fill="#5c6467"/>
            <path id="Trazado_146652" data-name="Trazado 146652" d="M716.086,5960.656a6.987,6.987,0,0,1,2.326.324,1.7,1.7,0,0,1-.321,2.75c-1.065.655-3.967.544-4.447.6a2.541,2.541,0,0,1-1.68-.377c-.3-.316,1.873-1.851,1.873-1.851Z" fill="#febfbf"/>
            <path id="Trazado_146653" data-name="Trazado 146653" d="M723.9,5962.948c-.337.752-.736,1.86-3.364,2.525s-3.452.422-4.034.664-1.677.82-2.011.879a7.247,7.247,0,0,1-3.127,0,2.023,2.023,0,0,1-1.219-1.1.914.914,0,0,1,.391.255c.724.78,3.064.634,3.852.374a8.2,8.2,0,0,1,2.706-.615,25.568,25.568,0,0,0,2.774-.579,8.205,8.205,0,0,0,3.173-1.492,3.952,3.952,0,0,0,.957-1.866A1.815,1.815,0,0,1,723.9,5962.948Z" fill="#504f60"/>
            <path id="Trazado_146654" data-name="Trazado 146654" d="M705.343,5925.37c.991,1.653,4.2,4.024,4.382,5.217a47.88,47.88,0,0,1,1.049,11.74,122.569,122.569,0,0,0-.7,12.431c.058,5.158-.071,8.924-.071,8.924a3.525,3.525,0,0,0,3.333,1.12,4.46,4.46,0,0,0,2.8-1.437,2.367,2.367,0,0,0,.69-1.293c.029-.719.834-13.479,2.012-19.544s2.745-17.56,1.811-21.886a1.2,1.2,0,0,0-.115-.315c-1.595-3.737-15.922,1.393-15.922,1.393A6.353,6.353,0,0,0,705.343,5925.37Z" fill="#7282b5"/>
            <g id="Grupo_66555" data-name="Grupo 66555">
              <path id="Trazado_146655" data-name="Trazado 146655" d="M715.584,5963.74l.359-.021c-.4-7.056.377-12,1.359-18.268.619-3.942,1.321-8.41,1.85-14.225.36-3.946.558-9.237.56-9.29l-.36-.013c0,.053-.2,5.335-.557,9.271-.53,5.8-1.231,10.265-1.848,14.2C715.96,5951.68,715.181,5956.645,715.584,5963.74Z" fill="#a0abcd"/>
            </g>
            <path id="Trazado_146656" data-name="Trazado 146656" d="M716.134,5963.365a2.367,2.367,0,0,0,.69-1.293c.029-.719.834-13.479,2.012-19.544s2.745-17.56,1.811-21.886a1.2,1.2,0,0,0-.115-.315c-.374.229-.762.488-1.15.775a25.983,25.983,0,0,1,.259,8.809c-.661,5.03-2.343,15.218-2.558,17.647C716.9,5949.656,716.408,5959.658,716.134,5963.365Z" fill="#e8d0c8" style="mix-blend-mode: multiply;isolation: isolate"/>
            <path id="Trazado_146657" data-name="Trazado 146657" d="M700.658,5911.805c-.13,1.609-.374,5.461.3,6.553s1.48,1.35,3.333,2.788c1.84,1.422,6.582,3.175,11.094,2.874a8.047,8.047,0,0,0,4.656-1.682,4.834,4.834,0,0,0,1.265-1.465s-1.365-6.927-1.193-10.275c.129-2.7.934-10.634.776-15.405a13.3,13.3,0,0,0-.316-2.831c-.92-3.363-4.282-5.245-6.194-6.855s-6.308-2.744-7.989-2.917c-1.668-.158-4.656.187-5.174.633s-2.328,2.1-2.155,6.983,1.566,10.965,2.155,14.385C701.807,5908.026,700.787,5910.195,700.658,5911.805Z" fill="#fdd249"/>
            <path id="Trazado_146658" data-name="Trazado 146658" d="M718.218,5913.142c.316,3.147,1.653,4.382,1.825,9.2a4.834,4.834,0,0,0,1.265-1.465s-1.365-6.927-1.193-10.275c.129-2.7.934-10.634.776-15.405-.187-.374-.288-.561-.288-.561l-6.136-.9s3.521,5.418,3.751,7.142S717.873,5909.606,718.218,5913.142Z" fill="#dedede" style="mix-blend-mode: multiply;isolation: isolate"/>
            <path id="Trazado_146659" data-name="Trazado 146659" d="M706.015,5874.849a24.706,24.706,0,0,1,.669,5.132,4.448,4.448,0,0,1-.729,2.288c-.348.393-.645.68-.645.68s.144,1.258,3.346,1.806,4.68.555,5.082.666l.4.11-.43-.513s.461-3.543.6-3.967.91-.086,1.848-.266a1.127,1.127,0,0,0,1.02-1.132c.06-.332.454-3.9.489-4.182a3.282,3.282,0,0,1,.559-.934l-.536-.974a2.092,2.092,0,0,0,.521-1.2c.025-.667-.132-3.513-.863-4.4s-5.625-1.473-6.953-1.068A7.49,7.49,0,0,0,706.015,5874.849Z" fill="#febfbf"/>
            <path id="Trazado_146660" data-name="Trazado 146660" d="M717.292,5869.348a1.013,1.013,0,0,0-.188.566c-.039.4.376.8.354,1.4s-.162,1.784-.162,1.784a.792.792,0,0,0-.736.546,11.781,11.781,0,0,0-.386,1.393l-.021.572-.555.171s-.139-1.39-1.105-1.091a3.667,3.667,0,0,0-2.387,1.964c-.543,1.125-.693,1.955-1.255,2.316a5.378,5.378,0,0,1-3.037.15,3.742,3.742,0,0,1-1.167-.593,18.941,18.941,0,0,1-2.214-4.782c-1.163-3.384-.446-5.362.008-6.014a4.884,4.884,0,0,1,1.809-1.17s-.064-1.485,3.4-2.193,7.505,2.259,7.964,2.753a3.757,3.757,0,0,1,.529,1.809Z" fill="#754554"/>
            <path id="Trazado_146661" data-name="Trazado 146661" d="M715.878,5871.831a56.611,56.611,0,0,0,5.779-1.485c.767-.344.877-.615.689-1.736a5.252,5.252,0,0,0-1.249-2.519,3.492,3.492,0,0,0-2.04-.925c-1.017.019-5.483.54-6.83.78S715.878,5871.831,715.878,5871.831Z" fill="#725e6d"/>
            <path id="Trazado_146662" data-name="Trazado 146662" d="M704.043,5872.373s.969,1.761,5.055,1.671,8.768-3.151,8.906-4.134a4.017,4.017,0,0,0-2.349-4.758,10.365,10.365,0,0,0-8.084-.673C705.191,5865.377,702.721,5867.981,704.043,5872.373Z" fill="#fecb4c"/>
            <path id="Trazado_146663" data-name="Trazado 146663" d="M715.223,5875.393a1.021,1.021,0,0,0-.124-.959c-.342-.442-1.309.226-1.464,1.5s.088,2.151.59,2.444.753-.534.753-.534A2.772,2.772,0,0,1,715.223,5875.393Z" fill="url(#linear-gradient)"/>
          </g>
          <g id="Grupo_66557" data-name="Grupo 66557">
            <path id="Trazado_146664" data-name="Trazado 146664" d="M718.342,5888.523a25.427,25.427,0,0,1,4.155,2.366c5.3,3.292,6.552,4.388,7.988,4.833s2.039,2.263,1.916,3.6-.016,2.065-3.108,1.451-11.261-4.7-13.686-6.378C712.63,5892.331,714.946,5887.08,718.342,5888.523Z" fill="#febfbf"/>
            <path id="Trazado_146665" data-name="Trazado 146665" d="M745.716,5884.1s.564-.793.42-.887-.485-.734-1.073.012a27.39,27.39,0,0,1-2.548,2.579c-.1.025-.531-.543-.531-.543s1.107-1.323.955-2.109-1.266-.225-1.36-.033-.723,1.511-1.051,1.991a8.745,8.745,0,0,0-1.242,2.088c-.207.718-.217,1.982-.641,2.488s-9.279,6.419-9.279,6.419-.045,6.545,2.471,4.522,9.211-9.3,9.566-9.492,3.183-1.227,3.4-1.4a8.661,8.661,0,0,0,.7-1.748l.464-1.269s.4-.577.373-.791a6.794,6.794,0,0,1-.007-.715s.4-.768-.01-.93A2.7,2.7,0,0,0,745.716,5884.1Z" fill="#febfbf"/>
            <path id="Trazado_146666" data-name="Trazado 146666" d="M745.716,5884.1l-2.094,2.622,1.488-1.315.906-1.23Z" fill="#fa9698"/>
            <path id="Trazado_146667" data-name="Trazado 146667" d="M746.325,5885.214l-1.488,1.986.748-.642.733-1.009Z" fill="#fa9698"/>
            <path id="Trazado_146668" data-name="Trazado 146668" d="M726.168,5893.034a4.737,4.737,0,0,1-.935,3.622,12.692,12.692,0,0,1-2.55,2.6s-7.457-3.723-8.222-5.532c-.646-1.529-1.636-4.4,2.3-5.652C718.744,5887.444,726.168,5893.034,726.168,5893.034Z" fill="#ffdc6e"/>
          </g>
        </g>
      </g>
      <g id="Grupo_66563" data-name="Grupo 66563">
        <path id="Trazado_146669" data-name="Trazado 146669" d="M779.635,5927.1c-5.834-3.369-15.265-3.386-21.063-.039s-5.769,8.793.066,12.161,15.265,3.386,21.063.038S785.47,5930.466,779.635,5927.1Z" fill="#becdd4" style="mix-blend-mode: multiply;isolation: isolate"/>
        <g id="Grupo_66562" data-name="Grupo 66562">
          <path id="Trazado_146670" data-name="Trazado 146670" d="M760.929,5934.379c2.888-2,4.239-1.854,4.239-1.854s3.593.244,3.2-1.911c-.317-1.84-.791-2.975-.906-3.765a1.69,1.69,0,0,1-.029-.374c.1-4.67,2.1-12.315,1.481-15.965a26.814,26.814,0,0,1,.4-8.593.969.969,0,0,0,.043-.2c.129-.8.259-1.595.388-2.356a1.2,1.2,0,0,1,.043-.231c.072-.488.144-.962.2-1.422.029-.244.058-.474.087-.7.057-.46.1-.9.115-1.322a12.184,12.184,0,0,0-.029-1.926,5.947,5.947,0,0,0-.2-1.049c-1.164-4.067-8.766-5.187-8.766-5.187a58.283,58.283,0,0,0,.488,14.24,183.387,183.387,0,0,1,2.53,25.91c.028,1.351-1.782,2.471-2.616,2.96-1.178.676-3.463,2.2-3.463,2.2S758.04,5936.376,760.929,5934.379Z" fill="#9c9edb"/>
          <path id="Trazado_146671" data-name="Trazado 146671" d="M767.826,5896.887a90.528,90.528,0,0,0-.287,10.892c.23,5.188.546,4.786.173,8.479s-1.093,8.981-.891,10.174,1.365,3.607,1.322,5.173a1.33,1.33,0,0,0,.172-.977c-.287-1.839-.747-2.975-.848-3.779a1.69,1.69,0,0,1-.029-.374c.1-4.67,2.1-12.315,1.481-15.965a26.814,26.814,0,0,1,.4-8.593.969.969,0,0,0,.043-.2c.129-.8.259-1.595.388-2.356a1.2,1.2,0,0,1,.043-.231c.072-.488.144-.962.2-1.422.029-.244.058-.474.087-.7.057-.46.1-.9.115-1.322a12.184,12.184,0,0,0-.029-1.926,10.359,10.359,0,0,0-4.34-.6,3.6,3.6,0,0,0,.934,2.615C767.64,5896.973,767.826,5896.887,767.826,5896.887Z" fill="#e8d0c8" style="mix-blend-mode: multiply;isolation: isolate"/>
          <path id="Trazado_146672" data-name="Trazado 146672" d="M763.3,5929.254c-.678-.2-1.345.76-1.819,1.182a37.446,37.446,0,0,0-3.756,2.42,2.709,2.709,0,0,0-.154,1.3,2.992,2.992,0,0,0,3.214.72c1.828-.666,2.485-1.289,3.706-1.589s3.618-.792,3.931-1.457a8.439,8.439,0,0,0-.034-2.882s-.383-.147-.536.125a3.6,3.6,0,0,1-1.682,1.311,4,4,0,0,1-1.829.07c.037-.168.1-.336-.023-.489a1.435,1.435,0,0,0-.34-.253c-.165-.109-.3-.251-.47-.361A.758.758,0,0,0,763.3,5929.254Z" fill="#5c6467"/>
          <path id="Trazado_146673" data-name="Trazado 146673" d="M766.418,5894.76a4.548,4.548,0,0,0,1.753,1.293s.733,14.055,2,17.13,2.313,14.442,2.285,14.916a8.14,8.14,0,0,1-2.3,5.418c-2.2,2.155-3.162,2.572-3.133,2.9a2.7,2.7,0,0,0,3.09,1.639c2.069-.345,2.644-.489,3.649-1.552s2.07-1.782,2.228-2.616-.561-2.471-.129-4.038c-.015-.014,0-.014,0-.029.014-.086.043-.187.071-.3a.239.239,0,0,1,.015-.1c.028-.1.043-.23.071-.359.058-.359.116-.776.187-1.265.46-3.449,1.021-9.843.791-11.869-.647-5.72-1.294-5.145-1.107-6.769s2.845-9.765,2.687-19.106a1.238,1.238,0,0,0-.158-.618c-1.351-2.673-12.387.022-12.387.022S765.412,5893.481,766.418,5894.76Z" fill="#9c9edb"/>
          <g id="Grupo_66560" data-name="Grupo 66560">
            <path id="Trazado_146674" data-name="Trazado 146674" d="M774.9,5931.643c2.639-12.322.859-18.31.19-20.564-.09-.3-.161-.544-.188-.7-.148-.846,1.006-5.61,1.769-8.763.34-1.4.635-2.615.75-3.207a60.2,60.2,0,0,0,.142-8.183l-.36.014a61.113,61.113,0,0,1-.136,8.1c-.113.585-.4,1.793-.745,3.192-1.058,4.371-1.923,8.058-1.774,8.909.03.171.1.407.2.736.662,2.23,2.422,8.154-.2,20.385Z" fill="#b0b2ff"/>
          </g>
          <path id="Trazado_146675" data-name="Trazado 146675" d="M774.724,5935.543a3.312,3.312,0,0,0,1.15-1.523c.158-.834-.518-2.472-.058-4.038l.044-.13c-.015-.014,0-.014,0-.029.014-.086.043-.187.071-.3a.239.239,0,0,1,.015-.1c.014-.115.043-.23.071-.359.058-.359.116-.776.187-1.265.46-3.449,1.021-9.843.791-11.869-.647-5.72-1.294-5.145-1.107-6.769s2.845-9.765,2.687-19.106a1.238,1.238,0,0,0-.158-.618c-.417.1-.733.2-.733.2a34.291,34.291,0,0,1,0,7.8c-.5,4.412-2.514,11.677-2.514,12.582s1.379,3.506,1.336,8.349-1.466,11.683-1.379,12.661C775.184,5931.72,776.061,5933.387,774.724,5935.543Z" fill="#e8d0c8" style="mix-blend-mode: multiply;isolation: isolate"/>
          <path id="Trazado_146676" data-name="Trazado 146676" d="M770.428,5932.779a2.221,2.221,0,0,1,1.131.018,6.161,6.161,0,0,1,1.285.456c.409.187.421.346.4.735.529-.261,2.014-1,2.243-1.561a7.615,7.615,0,0,0,.237-1.531,3.156,3.156,0,0,1,.145.846c.066.678.222,2.4.2,2.858s-2.448,2.424-3.121,2.9c-1.736,1.218-2.311,1.674-4.739,1.752s-2.29-1.583-2.266-1.976,2.421-2.438,3.083-2.934a4.852,4.852,0,0,0,.937-1.195A.913.913,0,0,1,770.428,5932.779Z" fill="#5c6467"/>
          <path id="Trazado_146677" data-name="Trazado 146677" d="M765.813,5856.8s-1.6-.285-3.589,2.961a34.353,34.353,0,0,1-5.065,6.916c-2.021,2.015-2.6,2.33-2.683,3.624s.329,3.741,2.988,2.748,5.769-6.38,6.929-8.66S776.1,5856.732,765.813,5856.8Z" fill="#febfbf"/>
          <path id="Trazado_146678" data-name="Trazado 146678" d="M757.28,5866.537A11.854,11.854,0,0,1,760.8,5868c1.443.994,7.274-11.271,6.484-11.447a4.226,4.226,0,0,0-3.466,1.038C762.795,5858.375,757.28,5866.537,757.28,5866.537Z" fill="#eb66ff"/>
          <path id="Trazado_146679" data-name="Trazado 146679" d="M773.368,5843.133s.594-3.517,3.906-1.876c1.883.933,3.928,4.183,1.53,9.383a10.109,10.109,0,0,0,.432,9.515s-3.428-.54-4.654-1.688-.834-2.159-.675-5.721A79.787,79.787,0,0,0,773.368,5843.133Z" fill="url(#linear-gradient-2)"/>
          <path id="Trazado_146680" data-name="Trazado 146680" d="M760.455,5870.086a4.064,4.064,0,0,0,.373,1.94v.015c.058.114.115.244.173.373.2.417.445.906.7,1.553.718,1.867-.791,13.234-.561,14.053s.518,1.567,4.038,2.63c3.923,1.207,9.456,1.078,12.244-.014a5.721,5.721,0,0,0,1.149-.589s-.761-8-.574-10.993a23.53,23.53,0,0,1,1.925-6.237c.043-.1.086-.216.13-.316a33.716,33.716,0,0,0,1.508-4.369c1.495-6.194-.876-6.926-2.759-8.364a13.151,13.151,0,0,0-5.115-2.313,31.943,31.943,0,0,0-6.654-1.092c-.848.086-3.276,1.308-4.3,4.986-.89,3.191-1.853,5.878-2.169,7.731a5.561,5.561,0,0,0-.1.791A1.115,1.115,0,0,0,760.455,5870.086Z" fill="#f370ff"/>
          <path id="Trazado_146681" data-name="Trazado 146681" d="M760.455,5870.086a4.064,4.064,0,0,0,.373,1.94v.015c.058.114.115.244.173.373.718.173,1.609.4,2.126.518a10.123,10.123,0,0,0,3.464-.59l-1.61-.991a13.391,13.391,0,0,0,3.435-1.164,2.088,2.088,0,0,0,.474-1.768c-1.566-1.724-5.892-.316-8.32.661a5.561,5.561,0,0,0-.1.791A1.115,1.115,0,0,0,760.455,5870.086Z" fill="#e79bf2" style="mix-blend-mode: multiply;isolation: isolate"/>
          <path id="Trazado_146682" data-name="Trazado 146682" d="M761.144,5888.02c.23.805.518,1.567,4.038,2.63,3.923,1.207,9.455,1.084,12.243-.008a5.78,5.78,0,0,0,1.15-.589s-.761-8.011-.574-11a23.53,23.53,0,0,1,1.925-6.237c-.56-2.961-1.437-5.159-2.687-5.288-3.794-.4-.1,7.706-5.285,7.936-4.8.216-4.576-1.625-6.853-1.952-2.548-.357-3.756-.567-4.273-1.472.23.517.532,1.078.877,1.926C762.423,5875.834,760.914,5887.2,761.144,5888.02Z" fill="#fff" style="mix-blend-mode: multiply;isolation: isolate"/>
          <path id="Trazado_146683" data-name="Trazado 146683" d="M767.036,5886.871l8.924-4.972s1.208.425,1.351,3.282c.1,1.925-.1,3.88.114,5.461a5.78,5.78,0,0,0,1.15-.589s-.761-8.011-.574-11c.115-1.825,1.106-4.2,2.055-6.553-2.285-2.443-4.369-4.412-4.369-4.412a46.851,46.851,0,0,1-1.107,5.188c-.828,2.707-5.687,2.017-7.6,1.036,1.6,1.206,5.692,1.553,7.248.741a24.833,24.833,0,0,0-.191,4.6Z" fill="#e79bf2" style="mix-blend-mode: multiply;isolation: isolate"/>
          <path id="Trazado_146684" data-name="Trazado 146684" d="M780.532,5861.833s-3.111-1.031-4.363,4.1a41.706,41.706,0,0,0-1.373,13.5,35.328,35.328,0,0,1-9.5,7.606,5.4,5.4,0,0,0-1.954.557c-.18.269-2.785,1.885-2.923,2.228a11.552,11.552,0,0,1-2.4,1.415l-.266.5s-.458.173-.466.586.446.448.446.448-.147.667.36.707a10.132,10.132,0,0,0,2.461-.768c.064-.048.111.042.111.042s-.7.4-.8.688-.081.916.587.624a24.753,24.753,0,0,0,2.841-1.648c.46-.34,1.966-1.864,2.128-1.993a5.424,5.424,0,0,1,1.762-1.784,17.637,17.637,0,0,1,1.992-.929c3.26-1.324,8.714-4.758,9.043-6.387.711-3.511,4.365-14.992,3.884-17.766A2.313,2.313,0,0,0,780.532,5861.833Z" fill="#febfbf"/>
          <g id="Grupo_66561" data-name="Grupo 66561">
            <path id="Trazado_146685" data-name="Trazado 146685" d="M777.776,5881.647c-.313.519-.917,1.207-3.367,2.973a53.624,53.624,0,0,1-7.335,3.826c-.177.129-1.041,1.009-1.041,1.009l-.634.049-.928-.518.1.31.365.491a2.061,2.061,0,0,1-.263.884c-.232.337-1.247,1.42-1.462,1.664a21.372,21.372,0,0,1-2.832,1.7.635.635,0,0,1-.519-.064c.073.165.244.259.587.109a24.753,24.753,0,0,0,2.841-1.648c.46-.34,1.966-1.864,2.128-1.993a5.435,5.435,0,0,1,1.762-1.784,17.637,17.637,0,0,1,1.992-.929c2.9-1.178,7.536-4.026,8.755-5.788C777.879,5881.679,777.83,5881.558,777.776,5881.647Z" fill="#fa9698"/>
            <path id="Trazado_146686" data-name="Trazado 146686" d="M760.658,5892.764s-.073.043-.171.107c.131-.067.227-.106.227-.106l1.468-1.4.108-.235-1.622,1.432a10.921,10.921,0,0,1-2.306.757c-.5-.019-.6-.044-.59-.294a.858.858,0,0,1,.254-.51c.1-.146,1.342-.315,1.614-.456s1.461-.909,1.461-.909-.838.472-1.559.8a5.4,5.4,0,0,1-1.5.375c-.125.039-.289.327-.289.327l-.245-.016a.5.5,0,0,1-.116-.393.411.411,0,0,1,.235-.29l1.811-.615,1.1-.73-1.116.587s-1.445.505-1.715.573a.687.687,0,0,0-.427.568c-.008.412.446.448.446.448s-.147.667.36.707a10.132,10.132,0,0,0,2.461-.768C760.611,5892.674,760.658,5892.764,760.658,5892.764Z" fill="#fa9698"/>
            <path id="Trazado_146687" data-name="Trazado 146687" d="M774.229,5880.116c.913-.567.026.2.833.215s2.181-.074,2.181-.074l-.758-.223c-1.6-.31-1.689-.592-1.689-.592-.185.23-.376.455-.57.676Z" fill="#fa9698"/>
          </g>
          <path id="Trazado_146688" data-name="Trazado 146688" d="M766.879,5891.371a3.57,3.57,0,0,1-.13-1.009,5.915,5.915,0,0,0,.283-1.439,1.718,1.718,0,0,0-1.021-1.643c-.717-.232-1.257-.4-1.742.628s1.125,1.387,1.194,1.689a10.163,10.163,0,0,0,.089,1.393C765.7,5891.49,766.683,5892.271,766.879,5891.371Z" fill="#febfbf"/>
          <path id="Trazado_146689" data-name="Trazado 146689" d="M768.222,5869.106h-.015a1.426,1.426,0,0,1-.045.736,9.154,9.154,0,0,1-2.223.7l-2.443.62s1.915.276,2.285.246,1.276.063,1.016.591-3.21.221-4.033.224-1.171-.354-2.191-.35-3.532,2.063-4.607,1.558a3.2,3.2,0,0,1-1.307-3.988c.814-1.432,2.765-.8,3.675-.8a7.528,7.528,0,0,0,2.31-.435,1.764,1.764,0,0,0,.9-.943,7.712,7.712,0,0,1,.971-.939c.309-.271,1.746-1.473,1.873-1.622s.363-.547.457-.662.3-.4.536-.13a.125.125,0,0,1,.018.024c.209.257.057.481-.072.93a4.3,4.3,0,0,1-1.026,1.237l-.9.89a.976.976,0,0,0,.561.316.509.509,0,0,0,.131.019h0a8.049,8.049,0,0,0,.989-.048h.016c1.178-.1,2.865-.319,3.232-.262s.231.494.19.733a.27.27,0,0,0,0,.138.049.049,0,0,0,.055.023c.23-.039.437.291.463.731a.3.3,0,0,1-.126.259A1.381,1.381,0,0,1,768.222,5869.106Z" fill="#febfbf"/>
          <path id="Trazado_146690" data-name="Trazado 146690" d="M768.765,5852.317a54.8,54.8,0,0,1-.187,5.552c-.231,1.513-.732,2.411.973,2.962.976.316,4.635-.689,6.162-2.4.135-.21-.27-.474-.614-1.665a10.784,10.784,0,0,1-.588-4.1c.01-2.348-.107-4.5-.107-4.5Z" fill="#ffadb7"/>
          <path id="Trazado_146691" data-name="Trazado 146691" d="M768.545,5858a3.311,3.311,0,0,0,1.164-.143c2.328-.59,2.96-.705,3.665,0,.7.689.445,1.465-.345,2.3a7.3,7.3,0,0,0,2.687-1.725c.129-.2-.273-.474-.618-1.667a10.9,10.9,0,0,1-.589-4.1v-1.121l-5.835,5.331c-.028.388-.057.733-.1.992A.427.427,0,0,1,768.545,5858Z" fill="url(#linear-gradient-3)"/>
          <path id="Trazado_146692" data-name="Trazado 146692" d="M771.117,5841.144s-3.865.812-4.872,3.767-.845,3.086-.78,4.271a20.4,20.4,0,0,0,.139,4.771c.454,1.926.9,3.56,1.778,3.852s5.878-.714,7.7-4.125,3.536-6.531,2.144-9.7C776.248,5841.761,773.065,5840.657,771.117,5841.144Z" fill="#febfbf"/>
          <path id="Trazado_146693" data-name="Trazado 146693" d="M777.517,5844.184c-.73-1.934-1.672-2.307-1.672-2.307s-.906-.987-3.459-.99a8.015,8.015,0,0,0-5.542,2.338c-1.375,1.5-.808,2.31-.808,2.31l.011-.023a.558.558,0,0,1,.743-.3c.653.261.924.771,1.458.959,3.753,1.325,4.507.32,4.816,2.055s.479,2.372,1.263,2.1c1.264-.441,1.208-.166,1.822.686a22.046,22.046,0,0,1-.848,2.462s.032.791,1.476-2.39C777.331,5849.77,778.736,5848.006,777.517,5844.184Z" fill="#ff6d67"/>
          <path id="Trazado_146694" data-name="Trazado 146694" d="M774.806,5850.757a1.537,1.537,0,0,1,1.786-.812c1.243.339,1.007,1.754-.325,3.021s-1.656-.227-1.721-.325S775.131,5851.634,774.806,5850.757Z" fill="url(#linear-gradient-4)"/>
          <path id="Trazado_146695" data-name="Trazado 146695" d="M775.256,5850.929s.548-.647,1.081-.366c.82.433-.365,1.775-.479,1.946s-.72.1-.788-.308S775.675,5851.447,775.256,5850.929Z" fill="url(#linear-gradient-5)"/>
          <path id="Trazado_146696" data-name="Trazado 146696" d="M773.267,5849.26a8.427,8.427,0,0,1,.181,2.572,6.571,6.571,0,0,0,.286,2.5,7.757,7.757,0,0,1,0-2.448c.239-.891.708-1.371.639-1.862S773.267,5849.26,773.267,5849.26Z" fill="#ff6d67"/>
          <path id="Trazado_146697" data-name="Trazado 146697" d="M763.966,5867.313a.509.509,0,0,0,.131.019l-.569.027-.912-.363,1.084-.494s1.287-1.324,1.408-1.55a7.361,7.361,0,0,0,.293-1.012c.209.257.057.481-.072.93a4.3,4.3,0,0,1-1.026,1.237l-.9.89A.976.976,0,0,0,763.966,5867.313Z" fill="#fa9698"/>
          <path id="Trazado_146698" data-name="Trazado 146698" d="M767.059,5868.163c-.766.115-3.01.256-3.01.256l4.478-.662a.27.27,0,0,0,0,.138C768.2,5867.956,767.631,5868.078,767.059,5868.163Z" fill="#fa9698"/>
          <path id="Trazado_146699" data-name="Trazado 146699" d="M768.916,5868.908a1.381,1.381,0,0,1-.694.2h-.015c-.194.016-1.089.185-1.83.257-.683.064-1.919.206-2.106.225.338-.055,3.948-.627,4.319-.627A1.054,1.054,0,0,0,768.916,5868.908Z" fill="#fa9698"/>
        </g>
        <path id="Trazado_146700" data-name="Trazado 146700" d="M781.132,5861.688a3.5,3.5,0,0,1,1.225,2.377,56.982,56.982,0,0,1-1.809,8.825c-2.164.254-5.507-.737-5.585-1.391a32.315,32.315,0,0,1,1.579-7.163C777.319,5862.324,778.756,5860.7,781.132,5861.688Z" fill="#eb66ff"/>
      </g>
    </g>
  </g>
</svg>
