<svg xmlns="http://www.w3.org/2000/svg" xmlns:xlink="http://www.w3.org/1999/xlink" width="251.865" height="211.036" viewBox="0 0 251.865 211.036">
  <defs>
    <linearGradient id="linear-gradient" x1="0.396" y1="0.514" x2="0.917" y2="1.034" gradientUnits="objectBoundingBox">
      <stop offset="0.122" stop-color="#fca4b5"/>
      <stop offset="0.99" stop-color="#ffadb7"/>
    </linearGradient>
    <linearGradient id="linear-gradient-2" x1="4938.234" y1="-268.348" x2="4939.16" y2="-268.348" gradientUnits="objectBoundingBox">
      <stop offset="0.122" stop-color="#feb9b8"/>
      <stop offset="1" stop-color="#ffdede"/>
    </linearGradient>
    <linearGradient id="linear-gradient-3" x1="68.298" y1="0.5" x2="69.298" y2="0.5" gradientUnits="objectBoundingBox">
      <stop offset="0" stop-color="#c4c8d8"/>
      <stop offset="0.022" stop-color="#c4c8d8"/>
      <stop offset="0.283" stop-color="#c4c8d8"/>
      <stop offset="0.304" stop-color="#c0c4d5"/>
      <stop offset="0.323" stop-color="#b5bace"/>
      <stop offset="0.341" stop-color="#a3a9c2"/>
      <stop offset="0.344" stop-color="#a0a6c0"/>
      <stop offset="0.986" stop-color="#a0a6c0"/>
      <stop offset="0.991" stop-color="#b4b9cd"/>
      <stop offset="0.995" stop-color="#c0c4d5"/>
      <stop offset="1" stop-color="#c4c8d8"/>
    </linearGradient>
    <linearGradient id="linear-gradient-4" x1="0.127" y1="0.816" x2="0.859" y2="0.196" gradientUnits="objectBoundingBox">
      <stop offset="0.086" stop-color="#379ed6"/>
      <stop offset="0.301" stop-color="#57aee5"/>
      <stop offset="0.544" stop-color="#75bcf3"/>
      <stop offset="0.751" stop-color="#88c5fb"/>
      <stop offset="0.898" stop-color="#8fc9ff"/>
    </linearGradient>
    <linearGradient id="linear-gradient-5" x1="0.127" y1="0.816" x2="0.859" y2="0.196" gradientUnits="objectBoundingBox">
      <stop offset="0.086" stop-color="#7282b5"/>
      <stop offset="0.229" stop-color="#7389c7"/>
      <stop offset="0.501" stop-color="#7594e5"/>
      <stop offset="0.734" stop-color="#779bf8"/>
      <stop offset="0.898" stop-color="#789eff"/>
    </linearGradient>
    <linearGradient id="linear-gradient-6" x1="0.173" y1="0.848" x2="0.858" y2="0.098" gradientUnits="objectBoundingBox">
      <stop offset="0.086" stop-color="#7cab71"/>
      <stop offset="0.229" stop-color="#85bd78"/>
      <stop offset="0.501" stop-color="#95db84"/>
      <stop offset="0.734" stop-color="#9eee8b"/>
      <stop offset="0.898" stop-color="#a2f58e"/>
    </linearGradient>
  </defs>
  <g id="Grupo_66602" data-name="Grupo 66602" transform="translate(-882.424 -5789.452)">
    <g id="Grupo_66591" data-name="Grupo 66591" transform="translate(1075.931 5789.452)">
      <path id="Trazado_146701" data-name="Trazado 146701" d="M1059.856,5866.807c-8.626-4.979-22.654-4.953-31.334.058a13.141,13.141,0,0,0-5.949,6.216l-14.634,8.449L1026.6,5892.3l8.281-4.781c8.16,2.139,18.13,1.269,24.877-2.626C1068.437,5879.887,1068.482,5871.786,1059.856,5866.807Z" transform="translate(-1007.939 -5749.563)" fill="#becdd4" style="mix-blend-mode: multiply;isolation: isolate"/>
      <g id="Grupo_66587" data-name="Grupo 66587" transform="translate(1.182 19.237)">
        <g id="Grupo_66581" data-name="Grupo 66581" transform="translate(36.312 0.397)">
          <path id="Trazado_146702" data-name="Trazado 146702" d="M1033.781,5803.036s.624,6.421,1.276,12.768c.583,5.583,1.184,11.114,1.4,12.165.467,2.241,5.726,13.913,6.176,15.255a5.219,5.219,0,0,1,.191,1.02,16.257,16.257,0,0,1-.028,3.513c-.128.981-.372,1.737-.759,1.8-1,.168-.945.5-.934.64s1.17.156,1.17.156-1.314.478-1.451.854.6.431.6.431-.589.7-.355.816a6.443,6.443,0,0,0,1.5.046,2.141,2.141,0,0,0-.43.6c-.032.122.065.238.21.324a.979.979,0,0,0,.45.128,9.389,9.389,0,0,0,2.34-.955,31.437,31.437,0,0,0,1.221-3.6,20.2,20.2,0,0,0-.6-3.754c-.475-1.65-.316-1.774-.953-6.68s-2.914-14.63-3.483-15.37-1.626-9.141-2.88-14.667S1033.781,5803.036,1033.781,5803.036Z" transform="translate(-1031.434 -5801.729)" fill="#febfbf"/>
          <path id="Trazado_146703" data-name="Trazado 146703" d="M1040.67,5834.528a6.266,6.266,0,0,0-.3,1.657c.025.646-.059,1.653-.513,1.776s-.834-.029-.847-.676a17.638,17.638,0,0,1,.151-2.238c.074-.47-.262-2.161-.185-2.914s.47-2.265,1.4-2.44,1.246.754,1.293,1.5a8.86,8.86,0,0,1-.6,2.7C1040.943,5834.1,1040.67,5834.528,1040.67,5834.528Z" transform="translate(-1028.625 -5787.299)" fill="#fec7c6"/>
          <path id="Trazado_146704" data-name="Trazado 146704" d="M1038.953,5836s-.589.7-.355.816a6.443,6.443,0,0,0,1.5.046,2.141,2.141,0,0,0-.43.6c-.032.122.065.238.21.324a1.541,1.541,0,0,1,.356-.485c.27-.162.513-.071.868-.242a2.533,2.533,0,0,0,.724-.721l.587-1.613s-.288-.581-.621-1.327a4.24,4.24,0,0,1-.335-1.493,8.723,8.723,0,0,0-1.127.216c-.128.981-.372,1.737-.759,1.8-1,.168-.945.5-.934.64s1.17.156,1.17.156-1.314.478-1.451.854S1038.953,5836,1038.953,5836Z" transform="translate(-1028.966 -5786.092)" fill="#fa9698"/>
          <path id="Trazado_146705" data-name="Trazado 146705" d="M1034.609,5811.317c.583,5.583,1.184,11.114,1.4,12.165.467,2.241,5.726,13.913,6.176,15.255a5.209,5.209,0,0,1,.191,1.02,5.266,5.266,0,0,0,.555-2.208c-.1-1.175-4.124-10.387-4.909-13.235s-2.834-12.651-2.834-12.651A4.442,4.442,0,0,0,1034.609,5811.317Z" transform="translate(-1030.986 -5797.242)" fill="#fa9698"/>
          <path id="Trazado_146706" data-name="Trazado 146706" d="M1033.372,5802.206a5.325,5.325,0,0,1,5.052,2.8c1.864,3.213,3.384,14.276,3.384,14.276s-1.526,2.513-6.694,2.913S1033.372,5802.206,1033.372,5802.206Z" transform="translate(-1032.259 -5802.188)" fill="#ffdc6e"/>
        </g>
        <g id="Grupo_66583" data-name="Grupo 66583" transform="translate(15.142)">
          <path id="Trazado_146707" data-name="Trazado 146707" d="M1037.2,5865.925s3.885,2.342,4.6,2.68a21.219,21.219,0,0,1,4.4,3.176,1.909,1.909,0,0,1,.253,1.8,2.946,2.946,0,0,1-1.775,1.251,13.58,13.58,0,0,1-5.454-1.163,5.362,5.362,0,0,1-1.8-1.366c-.231-.08-1.71-.443-1.71-.443a1.187,1.187,0,0,1-1.035.1c-.691-.186-2.778-.782-2.948-1.332a8.784,8.784,0,0,1,.012-3.435C1032.025,5866.246,1037.2,5865.925,1037.2,5865.925Z" transform="translate(-1011.462 -5767.265)" fill="#5c6467"/>
          <path id="Trazado_146708" data-name="Trazado 146708" d="M1037.1,5866.365s2.491,1.481,2.175,2.308-3.065.795-4.18.4c-1.354-.482-1.913-.919-2.109-1.79s.94-1.019.94-1.019Z" transform="translate(-1010.706 -5767.081)" fill="#febfbf"/>
          <path id="Trazado_146709" data-name="Trazado 146709" d="M1041.312,5846.067c-1.15,9.1-1.116,10.453-1.252,12.6-.119,2.164-1.3,26.773-1.286,27.1.034.306-1.606,1.5-3.349,1.624a2.762,2.762,0,0,1-.524,0c-1.912-.152-2.538-.389-2.64-1.184s-1.538-20.957-1.4-24.7c-1-4.348-.794-17.66-.677-23,.034-1.4.068-2.269.068-2.269l11.418-5.529A67.382,67.382,0,0,1,1041.312,5846.067Z" transform="translate(-1012.269 -5786.342)" fill="#7282b5"/>
          <path id="Trazado_146710" data-name="Trazado 146710" d="M1035.426,5884.674a2.762,2.762,0,0,1-.524,0c-1.912-.152-2.538-.389-2.64-1.184s-1.538-20.957-1.4-24.7c-1-4.348-.794-17.66-.677-23,1.642-.407,3.248.845,4.347,5.615,0,0-2.47,1.742-2.147,8.863s.828,9.168.879,11.553c.068,2.4.034,18.115.643,20.466A6.094,6.094,0,0,0,1035.426,5884.674Z" transform="translate(-1012.269 -5783.626)" fill="#e8d0c8" style="mix-blend-mode: multiply;isolation: isolate"/>
          <path id="Trazado_146711" data-name="Trazado 146711" d="M1031.275,5870.533a4.091,4.091,0,0,1,.362.45c.61.8,1.852,2.489,2.63,3.424a19.926,19.926,0,0,1,2.962,5.237,1.562,1.562,0,0,1-.293,1.41,3.986,3.986,0,0,1-3.27.862,7.1,7.1,0,0,1-4.471-2.634c-1.056-1.285-2.877-4.073-3.265-4.57s-1.733-1.525-1.953-2.007a5.605,5.605,0,0,1,.367-3.16c.41-.576,7.05.921,7.05.921Z" transform="translate(-1015.628 -5765.375)" fill="#5c6467"/>
          <path id="Trazado_146712" data-name="Trazado 146712" d="M1029.943,5869.556s1.813,2.37,1.681,3.107-1.869,1.174-2.948.921-3.779-2.146-3.563-2.951S1029.943,5869.556,1029.943,5869.556Z" transform="translate(-1014.967 -5765.298)" fill="#febfbf"/>
          <path id="Trazado_146713" data-name="Trazado 146713" d="M1040.248,5840.618c-.592,2.147-4.415,4.889-4.415,4.889s-.575,5.531-1.32,17.033c-.27,4.33-.794,15.358-1.978,28.181a4.527,4.527,0,0,1-5.092.946,6.72,6.72,0,0,1-.98-.49,5.291,5.291,0,0,1-.964-.711,155.17,155.17,0,0,1-1.084-17.219c.017-3.247.762-10.826.8-12.331.9-4.939-3.688-11.772-2.909-25.34.051-1.048,1.371-1.691,3.264-2.079,5.228-1.048,14.868-.136,14.868-.136S1040.839,5838.454,1040.248,5840.618Z" transform="translate(-1016.533 -5785.104)" fill="#7282b5"/>
          <g id="Grupo_66582" data-name="Grupo 66582" transform="translate(7.773 48.951)">
            <path id="Trazado_146714" data-name="Trazado 146714" d="M1026.148,5891.079c-2.137-11.262-.4-24.483.176-28.829.057-.433.1-.771.128-1,.231-2.033-.691-7.084-1.665-12.431-.2-1.068-.395-2.158-.59-3.253a38.037,38.037,0,0,1-.31-11.887l.416.073a37.647,37.647,0,0,0,.31,11.739c.2,1.093.393,2.183.589,3.252,1.024,5.609,1.908,10.457,1.67,12.555-.026.23-.071.569-.13,1.006-.567,4.329-2.3,17.5-.177,28.694Z" transform="translate(-1023.57 -5833.681)" fill="#a0abcd"/>
          </g>
          <path id="Trazado_146715" data-name="Trazado 146715" d="M1025.954,5880.646c.2,3.483.3,7.409.507,10.353a5.291,5.291,0,0,1-.964-.711,155.17,155.17,0,0,1-1.084-17.219c.017-3.247.762-10.826.8-12.331.9-4.939-3.688-11.772-2.909-25.34.051-1.048,1.371-1.691,3.264-2.079.356,1.048-1.471,1.793-1.116,3.062,0,0-.422,9.1.322,12.585s2.232,10.419,1.59,13.379S1025.464,5872.1,1025.954,5880.646Z" transform="translate(-1016.533 -5784.927)" fill="#e8d0c8" style="mix-blend-mode: multiply;isolation: isolate"/>
          <path id="Trazado_146716" data-name="Trazado 146716" d="M1048.872,5845.4s-.507,3.569-7.221,6.529a24.51,24.51,0,0,1-13.024,1.878,12.567,12.567,0,0,1-2.149-.49c-2.216-.8-2.436-1.049-2.5-2.1-.083-1.048.068-7.154-.541-13.92-.626-6.767-3.569-15.257-3.569-15.257,0-.067-.338-1.319-.641-2.792a27.413,27.413,0,0,1-.694-3.991c-.017-1.556.439-3.213,3.416-5.8,2.994-2.589,5.615-4.735,6.968-5.685,1.354-.93,8.711-2.1,11.029-1.793,5.6.694,6.105,6.208,6.461,7.934a82.417,82.417,0,0,1,1.1,12.214c-.085,3.383-.456,6.376-.439,10.3S1048.872,5845.4,1048.872,5845.4Z" transform="translate(-1018.528 -5801.931)" fill="#fdd249"/>
          <path id="Trazado_146717" data-name="Trazado 146717" d="M1032.306,5841.923c-1.286,2.893-3.349,2.317-3.417,4.313a6.448,6.448,0,0,1-.507,1.929,12.567,12.567,0,0,1-2.149-.49c-2.215-.8-2.436-1.049-2.5-2.1-.083-1.048.068-7.154-.541-13.92-.626-6.767-3.569-15.257-3.569-15.257,0-.067-.338-1.319-.641-2.792a12.835,12.835,0,0,1,7.864-1.082s-1.742,4.8-1.674,5.582l.085.777s6.833,3.52,7.391,4.364C1033.219,5824.095,1033.592,5839.029,1032.306,5841.923Z" transform="translate(-1018.284 -5796.288)" fill="#dedede" style="mix-blend-mode: multiply;isolation: isolate"/>
        </g>
        <g id="Grupo_66585" data-name="Grupo 66585" transform="translate(0.638 19.752)">
          <g id="Grupo_66584" data-name="Grupo 66584">
            <path id="Trazado_146718" data-name="Trazado 146718" d="M1018.372,5844.688l14.264-8.236v-16.367l-14.264,8.234Z" transform="translate(-1004.108 -5811.849)" fill="#c99a6b"/>
            <path id="Trazado_146719" data-name="Trazado 146719" d="M1032.636,5820.084l-14.264,8.234,7.7-4.117Z" transform="translate(-1004.108 -5811.849)" fill="#87623f"/>
            <path id="Trazado_146720" data-name="Trazado 146720" d="M1023.384,5844.688l-14.264-8.236v-16.367l14.264,8.234Z" transform="translate(-1009.12 -5811.849)" fill="#ae835b"/>
            <path id="Trazado_146721" data-name="Trazado 146721" d="M1023.384,5831.212l-14.264-8.234,14.264-8.235,14.264,8.235Z" transform="translate(-1009.12 -5814.742)" fill="#e8b687"/>
            <path id="Trazado_146722" data-name="Trazado 146722" d="M1022.541,5829.948l2.292-1.323v-6.466l-2.292,1.323Z" transform="translate(-1001.849 -5810.723)" fill="#d9af84"/>
            <path id="Trazado_146723" data-name="Trazado 146723" d="M1027.553,5826.376l-14.264-8.235,2.292-1.323,14.264,8.235Z" transform="translate(-1006.861 -5813.617)" fill="#ebcbab"/>
            <path id="Trazado_146724" data-name="Trazado 146724" d="M1009.12,5820.084l14.264,8.234-7.7-4.117Z" transform="translate(-1009.12 -5811.849)" fill="#87623f"/>
            <path id="Trazado_146725" data-name="Trazado 146725" d="M1015.164,5830.04l-2.292-1.323v-6.467l2.292,1.323Z" transform="translate(-1007.087 -5810.675)" fill="#9c754e"/>
            <path id="Trazado_146726" data-name="Trazado 146726" d="M1015.164,5826.466l14.264-8.235-2.292-1.323-14.264,8.235Z" transform="translate(-1007.087 -5813.568)" fill="#54493e" style="mix-blend-mode: screen;isolation: isolate"/>
            <path id="Trazado_146727" data-name="Trazado 146727" d="M1013.727,5825.637l14.264-8.235-.158-.092-14.264,8.235Z" transform="translate(-1006.71 -5813.35)" fill="#d1a986"/>
            <path id="Trazado_146728" data-name="Trazado 146728" d="M1015.164,5823.573v.268l-1.4-.747-.895-.562v-.282Z" transform="translate(-1007.087 -5810.675)" fill="#ae835b"/>
          </g>
          <path id="Trazado_146729" data-name="Trazado 146729" d="M1023.81,5823.076l-1.269.679v-.272l2.292-1.323v.275Z" transform="translate(-1001.849 -5810.723)" fill="#ae835b"/>
        </g>
        <g id="Grupo_66586" data-name="Grupo 66586" transform="translate(0 8.831)">
          <path id="Trazado_146730" data-name="Trazado 146730" d="M1025.739,5808.393s-16.923,16.922-17.031,18.154,5.157,19.218,5.489,20.669a5.824,5.824,0,0,0,1.963,3.257c.836.649,5.182,3.349,6.1,3.252a2.59,2.59,0,0,0,1.354-.474,13.384,13.384,0,0,0,2.53-1.33c.347-.41.967-1.327.862-1.826s-3.327,1.4-3.578,1.419-2.49-2.243-3.757-3.235-1.571-.608-1.912-2.649-2.023-16.373-1.835-17.15,6.936-4.974,10.8-8.338,5.034-5.492,4.011-8.617S1027.651,5807.007,1025.739,5808.393Z" transform="translate(-1008.706 -5807.551)" fill="#febfbf"/>
          <path id="Trazado_146731" data-name="Trazado 146731" d="M1015.181,5833.921s-.641.666.424,1.78a4.112,4.112,0,0,0,3.083,1.265,6.7,6.7,0,0,1,1.756.381s1.05,1.028,1.71,1,.731-.714.523-1.183-1.644-1.215-1.847-1.366a30.43,30.43,0,0,0-2.552-1.709C1017.885,5833.927,1015.809,5833.34,1015.181,5833.921Z" transform="translate(-1005.302 -5793.567)" fill="#fec7c6"/>
          <path id="Trazado_146732" data-name="Trazado 146732" d="M1013.47,5817.956s5.834,5.429,7.126,6.054,7.722-5.88,8.356-6.869a6.182,6.182,0,0,0-2.032-8.788c-3.015-1.691-4.466.148-5.363.871S1013.47,5817.956,1013.47,5817.956Z" transform="translate(-1006.125 -5807.658)" fill="#ffdc6e"/>
        </g>
      </g>
      <g id="Grupo_66590" data-name="Grupo 66590" transform="translate(11.846 53.888)">
        <g id="Grupo_66588" data-name="Grupo 66588">
          <path id="Trazado_146733" data-name="Trazado 146733" d="M1018.9,5830.053l-3.273-1.89v-3.758l3.273,1.891Zm-3.057-2.013,2.843,1.641v-3.26l-2.843-1.641Z" transform="translate(-1015.623 -5824.405)" fill="#87623f"/>
        </g>
        <g id="Grupo_66589" data-name="Grupo 66589" transform="translate(0.567 1.413)">
          <path id="Trazado_146734" data-name="Trazado 146734" d="M1017.173,5828.1l-.722-.418v-1.892l.722.417Z" transform="translate(-1015.741 -5825.068)" fill="#87623f"/>
          <path id="Trazado_146735" data-name="Trazado 146735" d="M1018.132,5827.231l-2.141-1.236,1.071-.673Z" transform="translate(-1015.991 -5825.322)" fill="#87623f"/>
        </g>
      </g>
      <path id="Trazado_146736" data-name="Trazado 146736" d="M1034.747,5808.387c-.017,1.659.355,2.251.034,2.758s-2.4.981-4.483.541a7.3,7.3,0,0,1-1.539-.558.016.016,0,0,1-.017-.017,5.826,5.826,0,0,1-2.679-2.7,1.878,1.878,0,0,1-.253-1.014,11.1,11.1,0,0,0,1.8-3.546,12.4,12.4,0,0,0,.051-4.246c-.085-.692-.17-1.167-.17-1.167s-.813-2.79.17-2.994c1-.2,7.493,5.4,7.493,5.4s-.153,2.251-.271,4.349c-.032.863-.083,1.708-.1,2.367C1034.764,5807.9,1034.747,5808.167,1034.747,5808.387Z" transform="translate(-998.26 -5786.208)" fill="#ffadb7"/>
      <path id="Trazado_146737" data-name="Trazado 146737" d="M1034.882,5803.728c-.032.863-.083,1.708-.1,2.367a2.946,2.946,0,0,1-.982-.152c-2.147-.643-4.042-1.454-4.77,0a3.837,3.837,0,0,0-.287,3.705,5.826,5.826,0,0,1-2.679-2.7,1.878,1.878,0,0,1-.253-1.014,11.1,11.1,0,0,0,1.8-3.546,12.4,12.4,0,0,0,.051-4.246C1031.145,5799.126,1033.664,5802,1034.882,5803.728Z" transform="translate(-998.26 -5784.744)" fill="url(#linear-gradient)"/>
      <path id="Trazado_146738" data-name="Trazado 146738" d="M1027.518,5800s.23,5.15.734,6.239,4.138,3.892,7.644,3.405c.94-.5,2.386-3.094,2.552-5.385a30.566,30.566,0,0,0,.031-3.337,6.479,6.479,0,0,0,.646-2.243c-.108-.645-.293-4.264-1.543-5.846s-4.7-2.558-7.8-1.307S1027.518,5800,1027.518,5800Z" transform="translate(-997.389 -5788.637)" fill="#febfbf"/>
      <path id="Trazado_146739" data-name="Trazado 146739" d="M1030.012,5802.549s.3-2.036-.98-2.4.168,4.4.168,4.4l-.78,1.2-.043.515s-1.583-2.688-2.018-3.489a5.754,5.754,0,0,1-.811-2.02,30.8,30.8,0,0,1-.678-6.035c.18-1.334,2.468-3.342,4.215-3.487a5.12,5.12,0,0,1,4.018-1.618,6.32,6.32,0,0,1,4.645,1.584,5.007,5.007,0,0,1,2.107,3,9.755,9.755,0,0,1,.156,1.839l-.208-.769s-.751.5-3.089.293a7.7,7.7,0,0,1-3.631-1.138,9.463,9.463,0,0,1,.341,2.27c-.088.613-.45,2.511-.45,2.511s-1.2.716-1.6,1a1.992,1.992,0,0,0-.589.933l-.153,1.627Z" transform="translate(-998.785 -5789.362)" fill="#754554"/>
      <path id="Trazado_146740" data-name="Trazado 146740" d="M1028.951,5797.589s-.694-1.827-2.09-1.121.608,4.349,1.512,4.4.737-.882.737-.882S1028.136,5798.453,1028.951,5797.589Z" transform="translate(-997.949 -5785.74)" fill="url(#linear-gradient-2)"/>
      <path id="Trazado_146741" data-name="Trazado 146741" d="M1040.387,5795.7l-.338.441s-6.175,1.81-6.817,1.978c-.287.068-.794.288-1.539.524a15.231,15.231,0,0,1-3.518.693l-2.826.238a12.4,12.4,0,0,1-.473-5.176c.339-1.979,2.656-3.687,5.328-4.467.085-.033.119-.051.119-.051a12.631,12.631,0,0,1,1.928-.372c3.417-.355,5.734,1.083,6.833,2.74A8.759,8.759,0,0,1,1040.387,5795.7Z" transform="translate(-998.826 -5789.452)" fill="#fecb4c"/>
      <path id="Trazado_146742" data-name="Trazado 146742" d="M1031.693,5798.473a15.231,15.231,0,0,1-3.518.693l-2.826.238a12.4,12.4,0,0,1-.473-5.176c.339-1.979,2.656-3.687,5.328-4.467a3.9,3.9,0,0,0-2.351,2.808A6.373,6.373,0,0,0,1031.693,5798.473Z" transform="translate(-998.826 -5789.284)" fill="#fcf5e8" style="mix-blend-mode: multiply;isolation: isolate"/>
      <path id="Trazado_146743" data-name="Trazado 146743" d="M1029.318,5796.57s4.932,4.243,6.629,2.533c1.195-1.2,4.163-2.355,5.467-1.967l1.3.387a.32.32,0,0,0,.241-.373c-.036-.316-5.038-3.489-5.038-3.489S1035.938,5791.553,1029.318,5796.57Z" transform="translate(-996.358 -5787.41)" fill="#725e6d"/>
    </g>
    <g id="Grupo_66595" data-name="Grupo 66595" transform="translate(882.424 5856.632)">
      <g id="Grupo_66594" data-name="Grupo 66594">
        <path id="Trazado_146744" data-name="Trazado 146744" d="M1039.581,5970.107l64.963-37.506c5.111-2.951,4.465-8.153-1.437-11.56l-132.252-76.356c-5.9-3.406-14.91-3.78-20.021-.83l-64.963,37.507c-5.111,2.951-4.463,8.152,1.437,11.56l132.252,76.354C1025.462,5972.683,1034.47,5973.056,1039.581,5970.107Z" transform="translate(-882.424 -5828.24)" fill="#dee5e9" style="mix-blend-mode: multiply;isolation: isolate"/>
        <path id="Trazado_146745" data-name="Trazado 146745" d="M882.424,5875.042l4.095,1.745,64.315-37.132c5.111-2.951,14.12-2.577,20.021.829l132.252,76.354c.259.151.5.309.735.464l4.149-1.216v7.388l-.008,0c-.039,1.847-1.166,3.607-3.44,4.919l-64.963,37.507c-5.109,2.95-14.119,2.576-20.021-.829L887.308,5888.72c-3.177-1.835-4.816-4.188-4.867-6.432l-.016,0Z" transform="translate(-882.424 -5830.516)" fill="url(#linear-gradient-3)"/>
        <path id="Trazado_146746" data-name="Trazado 146746" d="M1039.581,5961.27l64.963-37.507c5.111-2.95,4.465-8.15-1.437-11.559l-132.252-76.355c-5.9-3.407-14.91-3.781-20.021-.83l-64.963,37.507c-5.111,2.951-4.463,8.151,1.437,11.559l132.252,76.355C1025.462,5963.847,1034.47,5964.22,1039.581,5961.27Z" transform="translate(-882.424 -5833.028)" fill="#eff0f5"/>
        <path id="Trazado_146747" data-name="Trazado 146747" d="M887.3,5867.848l132.252,76.356c5.9,3.407,14.911,3.779,20.021.829l64.963-37.506c2.16-1.246,3.281-2.9,3.421-4.645.149,2.011-.962,3.951-3.421,5.37l-64.963,37.507c-5.109,2.95-14.119,2.577-20.021-.83L887.3,5868.574c-3.407-1.967-5.051-4.531-4.858-6.916C882.608,5863.828,884.242,5866.079,887.3,5867.848Z" transform="translate(-882.42 -5817.518)" fill="#bfc4d5"/>
        <path id="Trazado_146748" data-name="Trazado 146748" d="M885.42,5879.568a9.517,9.517,0,0,0,3.253,2.905l32.2,18.588,40.977,23.654,58.159,33.575c4.936,2.858,12.466,3.173,16.741.7l59.366-34.272,4.472-2.579c4.277-2.475,3.729-6.819-1.207-9.678l-19.739-11.4-37.235-21.493-51.026-29.462-23.329-13.465c-4.938-2.858-12.477-3.16-16.754-.7l-24.526,14.162-39.3,22.689C884.492,5874.527,883.852,5877.164,885.42,5879.568Z" transform="translate(-881.25 -5832.349)" fill="#2a2a2c"/>
        <path id="Trazado_146749" data-name="Trazado 146749" d="M885.926,5878.645a6.278,6.278,0,0,0,.411.559,8.846,8.846,0,0,0,2.487,2.026l33.714,19.468,4.662,2.684,36.333,20.967,6.241,3.607,30.288,17.474,20.11,11.613a18.349,18.349,0,0,0,8.96,2.24,13.772,13.772,0,0,0,6.753-1.551l13.308-7.674,44.535-25.71,6-3.442c1.548-.9,2.371-2.058,2.371-3.31,0-1.632-1.318-3.295-3.574-4.628l-21.28-12.271-37.221-21.494-3.937-2.271-47.121-27.194-6.736-3.887-15.038-8.68a18.216,18.216,0,0,0-8.976-2.223,15.519,15.519,0,0,0-4.974.741,8.385,8.385,0,0,0-1.8.774l-22.976,13.273-9.865,5.7-30.964,17.87a4.441,4.441,0,0,0-2.306,2.651A3.351,3.351,0,0,0,885.926,5878.645Z" transform="translate(-880.892 -5831.987)" fill="#3a3f47"/>
        <path id="Trazado_146750" data-name="Trazado 146750" d="M948.153,5842.02l17.836,99.578,20.11,11.613a18.349,18.349,0,0,0,8.96,2.24,13.772,13.772,0,0,0,6.753-1.551l13.308-7.674-13.111-73.126-47.121-27.194Z" transform="translate(-846.818 -5828.156)" fill="#3e444d"/>
        <path id="Trazado_146751" data-name="Trazado 146751" d="M906.884,5855.176l8.6,47.944,36.333,20.967,6.241,3.607-16.535-92.266a8.385,8.385,0,0,0-1.8.774l-22.976,13.273Z" transform="translate(-869.174 -5831.726)" fill="#3e444d"/>
        <path id="Trazado_146752" data-name="Trazado 146752" d="M890.123,5878.44a5.73,5.73,0,0,0,.387.527,8.3,8.3,0,0,0,2.337,1.9l31.682,18.3,4.382,2.521,34.144,19.705,5.865,3.388,28.464,16.423,21.232,12.258a17.233,17.233,0,0,0,8.419,2.1,12.945,12.945,0,0,0,6.347-1.455l12.506-7.212,41.851-24.16,5.633-3.234c1.455-.853,2.229-1.935,2.229-3.111,0-1.533-1.238-3.1-3.359-4.349l-22.332-12.878-34.98-20.2-3.7-2.138-44.282-25.553-6.33-3.652-14.131-8.157a17.113,17.113,0,0,0-8.435-2.089,14.622,14.622,0,0,0-4.674.7,7.894,7.894,0,0,0-1.687.728l-10.029,6.244.228,6.394-21.94,12.673-9.5-.585-18.718,9.9a4.171,4.171,0,0,0-2.168,2.493A3.148,3.148,0,0,0,890.123,5878.44Z" transform="translate(-878.597 -5830.671)" fill="#748acb"/>
        <path id="Trazado_146753" data-name="Trazado 146753" d="M895.506,5878.218a4.963,4.963,0,0,0,.355.484,7.6,7.6,0,0,0,2.148,1.748l29.107,16.808,4.024,2.317,31.367,18.1,5.388,3.114,26.15,15.087,19.506,11.261a15.82,15.82,0,0,0,7.735,1.935,11.921,11.921,0,0,0,5.831-1.336l11.489-6.627,38.449-22.2,5.177-2.972a3.469,3.469,0,0,0,2.047-2.858c0-1.408-1.138-2.844-3.086-4l-20.516-11.829-32.135-18.556-3.4-1.963-40.682-23.476-5.815-3.355-12.983-7.493a15.71,15.71,0,0,0-7.749-1.921,13.4,13.4,0,0,0-4.3.642,7.143,7.143,0,0,0-1.549.667l-55.085,31.809a3.823,3.823,0,0,0-1.99,2.289A2.89,2.89,0,0,0,895.506,5878.218Z" transform="translate(-875.652 -5828.982)" fill="#fcfbfa"/>
        <path id="Trazado_146754" data-name="Trazado 146754" d="M906.842,5856.365l16-9.239c.291-.168.254-.466-.083-.66h0a1.273,1.273,0,0,0-1.142-.048l-16,9.239c-.292.17-.256.466.082.661h0A1.276,1.276,0,0,0,906.842,5856.365Z" transform="translate(-869.967 -5825.836)" fill="#2a2a2c"/>
        <path id="Trazado_146755" data-name="Trazado 146755" d="M922.968,5847.011a.66.66,0,0,0-.207-.183,1.273,1.273,0,0,0-1.142-.047l-16,9.24a.41.41,0,0,0-.123.114.307.307,0,0,1,.123-.479l16-9.239a1.273,1.273,0,0,1,1.142.048C923.033,5846.621,923.1,5846.842,922.968,5847.011Z" transform="translate(-869.965 -5825.836)" fill="#3a3f47"/>
        <path id="Trazado_146756" data-name="Trazado 146756" d="M919.673,5845.534a3.847,3.847,0,0,0,3.483-.007,1.061,1.061,0,0,0,.011-2.01,3.849,3.849,0,0,0-3.483.006A1.061,1.061,0,0,0,919.673,5845.534Z" transform="translate(-862.633 -5827.569)" fill="#3a3f47"/>
        <path id="Trazado_146757" data-name="Trazado 146757" d="M920,5844.979a2.439,2.439,0,0,0,2.2,0,.671.671,0,0,0,.006-1.271,2.432,2.432,0,0,0-2.2,0C919.4,5844.062,919.392,5844.63,920,5844.979Z" transform="translate(-862.315 -5827.385)" fill="#516f83"/>
        <path id="Trazado_146758" data-name="Trazado 146758" d="M917.447,5846.714a2.721,2.721,0,0,0,2.459,0,.75.75,0,0,0,.008-1.42,2.718,2.718,0,0,0-2.459,0C916.773,5845.688,916.768,5846.322,917.447,5846.714Z" transform="translate(-863.726 -5826.543)" fill="#2a2a2c"/>
        <g id="Grupo_66592" data-name="Grupo 66592" transform="translate(12.874 58.692)">
          <path id="Trazado_146759" data-name="Trazado 146759" d="M892.647,5875.021l9.494,5.48c.774.447,1.408-.032,1.408-1.065h0a3.385,3.385,0,0,0-1.408-2.689l-9.494-5.481c-.774-.447-1.408.031-1.408,1.063h0A3.389,3.389,0,0,0,892.647,5875.021Z" transform="translate(-890.522 -5871.097)" fill="#c4c8d8"/>
          <path id="Trazado_146760" data-name="Trazado 146760" d="M892.182,5875.31l9.494,5.48c.774.447,1.409-.03,1.409-1.063h0a3.39,3.39,0,0,0-1.409-2.692l-9.494-5.479c-.774-.447-1.408.032-1.408,1.064h0A3.388,3.388,0,0,0,892.182,5875.31Z" transform="translate(-890.774 -5870.941)" fill="#a0a6c0"/>
        </g>
        <g id="Grupo_66593" data-name="Grupo 66593" transform="translate(73.287 93.546)">
          <path id="Trazado_146761" data-name="Trazado 146761" d="M931.833,5897.628l9.494,5.48c.774.447,1.408-.032,1.408-1.064h0a3.388,3.388,0,0,0-1.408-2.691l-9.494-5.48c-.774-.447-1.409.032-1.409,1.065h0A3.388,3.388,0,0,0,931.833,5897.628Z" transform="translate(-929.709 -5893.705)" fill="#c4c8d8"/>
          <path id="Trazado_146762" data-name="Trazado 146762" d="M931.368,5897.917l9.494,5.48c.774.447,1.408-.03,1.408-1.063h0a3.385,3.385,0,0,0-1.408-2.691l-9.494-5.481c-.774-.447-1.408.032-1.408,1.065h0A3.385,3.385,0,0,0,931.368,5897.917Z" transform="translate(-929.96 -5893.547)" fill="#a0a6c0"/>
        </g>
        <path id="Trazado_146763" data-name="Trazado 146763" d="M1002.3,5910.686c0,.884.546,1.29,1.209.906l8.156-4.692a2.921,2.921,0,0,0,1.209-2.312c0-.882-.546-1.3-1.209-.917l-.8.464-7.354,4.241a2.785,2.785,0,0,0-1.127,1.684A2.364,2.364,0,0,0,1002.3,5910.686Z" transform="translate(-817.487 -5794.839)" fill="#a0a6c0"/>
        <path id="Trazado_146764" data-name="Trazado 146764" d="M1002.352,5909.845l7.354-4.252a2.76,2.76,0,0,0,1.127-1.673l-7.354,4.241A2.785,2.785,0,0,0,1002.352,5909.845Z" transform="translate(-817.458 -5794.625)" fill="#191f28"/>
      </g>
    </g>
    <g id="Grupo_66601" data-name="Grupo 66601" transform="translate(911.28 5816.056)">
      <g id="Grupo_66598" data-name="Grupo 66598" transform="translate(23.456)">
        <ellipse id="Elipse_4906" data-name="Elipse 4906" cx="35.555" cy="61.586" rx="35.555" ry="61.586" transform="matrix(0.005, -1, 1, 0.005, 0, 142.663)" fill="#becdd4" style="mix-blend-mode: multiply;isolation: isolate"/>
        <g id="Grupo_66597" data-name="Grupo 66597" transform="translate(0.471)">
          <circle id="Elipse_4907" data-name="Elipse 4907" cx="67.418" cy="67.418" r="67.418" fill="url(#linear-gradient-4)"/>
          <circle id="Elipse_4908" data-name="Elipse 4908" cx="61.662" cy="61.662" r="61.662" transform="translate(5.756 5.757)" fill="url(#linear-gradient-5)"/>
          <g id="Grupo_66596" data-name="Grupo 66596" transform="translate(10.4 81.542)">
            <path id="Trazado_146765" data-name="Trazado 146765" d="M923.414,5859.6c-.012,0-.006,0-.006,0Z" transform="translate(-923.406 -5859.6)" fill="#869741"/>
          </g>
          <path id="Trazado_146766" data-name="Trazado 146766" d="M964.554,5812.931a61.538,61.538,0,0,1,15.756-2.474l.216.31-1.765,1.381v1.432l-.422,1.263-1.767,1.073-1.576,1.4-1.075,2.47-1.576,2.333-1,3.105-.347.63-1.036.05-.347-.341-.311-.63-.763-.1-.538.339-1,.244-.461-1.116-.345-.873.116-.776v-.923l-.538-1.114-.345-1.116v-1.358l-.615-1.066s-.116,1.066-.116-1.649C964.7,5812.786,962.938,5815.389,964.554,5812.931Zm77.7,62.188-1.536.973-2.2-.818.341-1.284.173-1.892-.535-.333-.439.681s-.819,1.649-.819.368v-1.278l.379-.8-.7-1.3-.863-1.741-.031-1.785.439-.166.208-.812.614.818.555-.673,1.136,3.679,1.021,1.143.78,1.007.7.8.933.854.641-.869.57.711c0-.1,0-.2,0-.3a61.616,61.616,0,0,0-29.149-52.4l-.911.6-.575,1.257-.711.348-.8.665-.871-.818s.9-.556-.2-.406l-1.1.151-2.431.817-.256-.154-.037-1.359-.936-.125-1.062.7-.577.223.217-.5.285-.205.009-.422h-.435l-.333.09-.167-.2.167-.275-.268-.462-.049-.474.267-.369.506-.584.151-.441s-.171.038-.106-.384l.063-.424.308-.188.208-.445.011-.433-.194-.164-.338.054-.239.422-.384.145-.29-.089-.12-.158-.345.128-.077.2-.339.16-.274.144s.069.117,0,.523l-.071.409-.262.565.046.575.145.5-.205.2-.14.474s.193.32.359.128l.167-.191.242.116-.217.331-.179.015-.077.333.372.063-.154.309s-.089-.307-.319.051l-.231.357-.256-.1-.063-.192-.1-.274s-.063-.13-.268.027l-.2.157-.231-.024-.205.063-.1.224-.35.084-.384-.09s.168.044.008-.145l-.162-.188-.473.1-.228.267-.082.12-.433.188-.039.12-.012.252-.142.384-.412.374-.279.356-.193.19-.345.1-.268-.035-.615.354-.345.3-.333-.053-.359-.084-.307.366.217.2-.153.372-.193.205-.538.37-.24-.074-.407.01-.173.052-.271.245.019.253v.206l-.333.014-.193-.142-.256-.128-.333.013-.065-.16.046-.076.12-.132-.035-.188-.174-.086-.234-.071-.16-.142-.039-.171-.137-.138v.138l-.074.205-.079.2.091.312.019.208.143.092-.045.169-.048.22.014.143-.088.107-.016.134-.122.119-.2-.08-.41-.158-.273.1-.1.02-.037-.177.037-.119-.26-.159-.271-.027-.191.02-.173.095h-.347l-.3-.076-.171.01-.264.087-.094.122.094.232s-.043.029.1.108l.145.08-.171.12-.04.188.1.068-.139.3.18.091h.231l.174-.056.1.066.18.021.288.223.082.152.142.036s-.014-.015.043.166l.059.181.18.025.247-.09-.037.145-.109.108.009.181.12.132.24.092.051.146-.137.13-.109.221.026.233.123.156.133.134.016.2.176.042.207.159.08.224-.134.149-.177.321.123.247-.058.188-.154.33-.048.393-.224.2-.142.518-.046.413-.324.481-.146.395-.13.188-.268.035-.109-.072s-.049-.026-.208.015l-.16.044-.2-.116-.128-.25-.131-.041-.117.131-.167.045-.325-.289h-.347l-.253-.053h-.433l-.3-.094-.151-.131-.145-.122-.318-.043-.262.006-.345-.05-.2-.176-.267-.143-.247.043-.3.008-.037-.159s.267-.077-.088-.212l-.353-.137-.273.012-.177.121-.159.162.017.162s0,.045-.1.058l-.1.015-.27-.074-.422.175-.176.235.059.346.18.122.026.227.1.068-.166.116-.231.534-.116.479v.737l-.059.312-.137.672-.231.686-.262.22-.419.615-.4.489-.3.68.174.673.347.062.21.126-.008.174-.2.244-.274.377.006.427-.18.274.009.279-.284.387.108.138.227-.148.427-.153.143.085.136.13.5.079.153-.238.256-.091.062.091.028.188.547.26.038.2-.038.289.076.3.008.232.134.2.078.105.025.29.194.142.261.038.239-.137.271-.066.205-.253.262-.253.259.07.305.058.484-.056.672.021.375.244.339-.059.256.009.151.009.133-.2.1-.118.128-.411.637-.282.211.105.136.1.21.023.037-.137s-.009.017-.009-.17v-.187l.038-.183.211-.331.166-.213.193-.093.156-.046.3-.027.021-.239.319-.108.006-.187-.237-.239-.222-.149v-.694l.211-.273.379-.327.937-.886.062-.371.093-.213.239-.059.489-.006s.079.114.29-.084l.211-.2.421-.046.265-.116.153-.214.5-.158.159-.181-.008-.411.08-.363-.072-.282.179-.415.19-.206.2-.231.236-.016.1-.115s-.043-.057.123,0l.167.059.237.144.413.186.325.039.281.218.392.217.318.137.521-.146.137-.21.217.045.117.128s.022.142.13.115l.106-.025.174-.053.18-.33.145-.2.242-.281.113-.19.307-.069.071-.029.143-.147.463-.072.114.056.109.209.137.162s-.282.115-.021.3l.26.188.18-.017.153.205-.131.426.114.368.2.16-.1.269-.113.145-.154.042-.171-.008-.133.211.073.138.188.107.245.081.194-.38.1.09.1.208.2.211-.051.354.051.224a.565.565,0,0,1,.362-.007l.173.065-.115.21.129.194.145.2.116-.017.008.472.274.266.406.107.006.216.305.088.2.239.237.491.225.183.273.129-.217.313.185.034.264.033.182.161-.045.375.261.2-.045.235.339.115.176.053.08.42.065.557-.159.274.137.349-.109.223-.151.052-.108.44-.182.064-.322.009-.191.158-.3-.035-.231-.109-.359.2s.063.081-.385-.057l-.447-.138s.253-.2-.153-.325l-.406-.131-.137.11s.109-.334-.21-.089l-.318.247.039.459.026.388.5.152.305.354.33.281.3.311.187.146.2.436.3.167.342.04.119-.359.279-.4-.168-.342.045-.4.224-.35.191-.21.15.17v.166l.2.108.224.115.051-.253.035-.256.247-.149.131.109.151-.064.043-.182s-.288-.01-.028-.358l.261-.349.194-.044.066.12.079.052.18-.172-.038-.29.24-.411-.043-.24-.282-.072-.31-.209-.045-.287-.043-.2.475-.635.1-.127.219.01-.071.176.072.163.339.088-.006.1.15.062.109-.1.049.392.073.4.261.145.2-.273.039-.443-.1-.451-.379-.7-.529-.339-.123-.341-.41-.137-.413-.167-.225-.354-.014-.182.325.051.039-.182.055-.346-.245-.181-.478-.021-.18-.058-.247.021-.143-.159-.7-1.229-.043-.551-.145-.4.068-.325-.342-.586-.441-.173-.218-.39-.159-.21.068-.415-.031-.345.331-.015.079-.087-.04-.4-.16-.045v-.224l.085-.157.248.006.151.022.217-.319.143.023.174-.052.094.1-.028.232s-.384.114-.1.251l.29.14.1.107-.034.339-.168.183.23.306.16.033.123-.24.086.205-.019.174.063.165.205.04.122-.014.063-.453.267.448.167.3-.173.2-.139.185-.019.205.085.153.487.217.25.339-.074.213.094.237.1.138.032.2.262.019s.228-.22.157.076,0,.189-.073.3l-.069.105.119.111.435.124.18-.116.441.122s.182-.009.282.268l.1.278.45.488s.264-.186.3.253l.031.438.034.256.285.116.12.015a1.528,1.528,0,0,1-.311.455l-.128.072.054.265-.071.646-.139.309-.114.473.2.116.059.224h.282l.051.261-.016.115-.239.03-.028-.139-.159.209s-.109-.028-.029.21.072.2.072.2l.237.253.406.095.094.252.325.347.008.153s-.333-.268-.153.3.176.532.176.532l.049.241.4.124.048-.181.47.179.421.2.268-.021.116.172.3.029.166-.094-.008.441-.021.243.3.184.2.014.234.44.316-.086-.167-.368-.173-.224-.008-.277.086-.07.174.375.39.188.173-.238.1-.087-.036-.347-.469-.059-.068-.1-.071-.4-.188-.225-.18-.24.014-.2-.26-.187-.245-.963-.242-.227-.13-.387-.106-.413.094-.317h.116s.063-.026.1.094l.037.119.288.317.108.142.355-.008.187-.154.136-.132.17-.256.274-.122.065-.261.275-.123h.37l.17.228.224.127.207.188.441-.108.036.246s-.466-.088-.076.194l.392.282.256-.007.008.087-.088.282-.094.107-.173.132-.122-.162-.257.06-.046.176-.012.373.032.283-.049.229-.145.06-.133.026-.237.2.123.145.094.138.285.126.193-.024.093.074.18-.159-.122-.3.217-.291.168-.018.163.1-.137.349-.159.317.174.224-.21.174-.225.095-.224-.124-.17.081-.177-.022-.137-.131-.145.2-.035.253s-.131.315.02.36l.151.047.151.029.1-.242.145-.106.1.222.035.359s.023.2.153.143l.128-.05.262-.009.3.252-.13.224-.137.08-.333-.152-.191.077-.056.277.016.224.145.123.237-.107.057.078-.028.3.247.1-.2.129s.1.086-.038.206l-.136.122-.21.069-.062.278-.183.272.376-.021.143-.251.13-.105.153-.315.4-.059s.49-.065.312.079l-.177.145-.213.021-.159.235.116.163.331-.05-.066.294s.043-.2-.191.087-.233.241-.233.241l-.023.209.015.181.2.134.416-.206-.051-.164.162-.287.031-.4.3-.121,0,.3.239.2.108-.064.217-.16v.311l-.159.245.108.342.339.212.3.114.191.122.282-.038.183-.3.185-.275-.051-.45.278-.241.308.068.173.232.749.372.012.325.284.454.766.356.3-.146.234.137.39.161.17-.493.17-.191.361-.293.183.4.327.125.336.1.125-.231.239-.271.162.068.242.106-.066.259-.338.1-.086.333.011.25-.288.488-.086.4.345.672-.324.267.025.238.136.273-.307.259-.47,1-.125.575-.321.441-.765,2.152-.481.384-.412.011s.066-.241-.7-.077l-.768.163-.461-.96-.472-.154-.364-.269-.7.072-.39.295-.575.227-.339.328-.443-.038-.259-.473-.566-.1-1.269-.927-1.7-.35-.722-1.176-1.4-.516-.766-1.285-1.3.317-1.2.2.039,1.383-.159,1.294-.923.2-.711-.846-.628-1.027-1.295-.079-.817-1.227.154-1.038-1.065-.466-1.056-.146-1.836-.887-.812-1.58.737-1.3.519-.562-.228-1.226.848-1.514-.717-.387-.5.306-.191-.631s.421-.559-1-.1l-1.42.461-1.167-.469-1.676-.492-3.393.188-2.407.666-1.256.652-1.438-.395-.916-.8-.627.427-.487-.618h-.678l-.518,1.031-.769,1-1.628.849-1.745,1.119-.759,2.088.22,1.292-1.19,1.614-1.648.816-1.938.682-.828,1.307-1.5.689-.637,2.165-1.629,1.33-.993,2.122-1.119,1.337.154,1.055.96.326-.567,1.1-.227.816.122,1.528-.651,1.817-.515,1.06-.2.726-1.09,1.454.55,1.721-.55,1.261-.242,1.226.563,1.047.618-.185.318,1.212.681,1.679.393.182-.2,2.605,1.383,2.342,1.32,1.8,1.215,2.269,1.306,1.267,1.383-.346.6-.672,2.325.16.956,1.128,1.153.345.513-.789.524.328,1.347-.936,1.149.091,2.7-.333,1.3.41.234,1.737-.08,1.335.939.408.455-.243,1.679.122,1,.9.213,1.579-.367,2.3-.587.68-.091,1.105-.82,1.018-.422,2.036,1.882,5.378.806,1.574-.973.921,1.1,2.874-.6,1.516.682,2.986-.717,2.2-1.085.441-1.321,1.2-.342,2.466-.683,2.188-.3,1.807.455,1.665.119.821a61.308,61.308,0,0,0,31.588-11.022l-.029-1.92.757-.487-.575-1.316,1.5-2.693,1.09-2.2,1.059-.71.848-.727.7-1.7,2.1-1.384,2.2-1.681,2.165-1.694,1.755-2.3,1.076-1.452,1.3-2.589,1.1-1.741.455-1.24.772-.454.369-.75-.566-.295.364-1.271.316-.2-.816-.223-.22-.316-.25.65-.478.22-.717.157-.515.016-1-.312-1.19.077-.692.884-1-.809-.692.54-1.113-.309.023-.905-.331-.478h-.691l.2-.554.461-.149.365-.337-.142-.42.183-.976-.589-.264-.555-.489.04-.692-.453-.787-.125-.6-.6-.552-.742-.366-.577-1,.074-1.665-.342-.562.267-1.364-.689-.519-.577.115-1.075-5.531.058-5.622-1.75-3.75-.768-4.148.868-.441,1.907,2.725.62,1.423a19.158,19.158,0,0,1,1.256,4.9l.419,3.066,1.5,4.471,2.646,4.595-.876,3.608.876,3.767,3.5-.422,4.026-1.3,1.862-.94v-1.435l2.784.149,1.246-.815.444-.523a61.773,61.773,0,0,0,1.475-12.393Zm-89.931-57.1v.205l1.075.563.973.206s.415.706,1.025-.564l.609-1.27.742-.711,1.107-.375-.666,2.1.618.939.612.8-1.281,1.28.512,1.025.922.2.143.607,1.3.44.211.559-.325.7.1.564,1.011.359-.788,1.33.237.82a1.721,1.721,0,0,0-1.781.392l-.728.786-.635-.06-1.665.938-.415.555-1.895-.1-.2-.618-2.154-.2-1.085.64-.759.641-2.2.358-.513.974-.614.768-1.486,1.127h1.486l1.331-1.127.922-.869.871-.462.82-.2.664-.1,1.264.034.632.171-.82,1.178-1.28.82-.1.922.814,1.01,1.15.576.319-.229.984-.65.37-1.221h1.127s-1.135.8-.755,1.236l.378.439-.341.938-1.158.273-.335.648-1.58.256-1.021-.148-.424.727-1.15.8h-.99l.051-.77,1.332-.613.287-.738s-.06-.893-.711-.212-.575.5-.575.5l-.879.409-1.361.422-.806-.125s-.257-.358-1.025.818l-.768,1.179.133.565-.671.15.538.693.783-.269.113.679-.384.332-.666.18-.435.024-.487-.28-.2-.1-1.306.128-.307.616.743.435-.641.358-.922.052-.076,1.229-1.076.514-.179.613-.436-.717-.384-.307.18.717.428.571-.379.622-.513.619-.53.667s-.379.182-.076-.529.53-.258.3-.713l-.227-.453s.208-2.065-.193-.067c-.213,1.057-.472,1.044-.586.962a3.542,3.542,0,0,1,.185.317c.1.191.165.329.208.428.139,0,.331.1.37.677l.062.919-.743.358.031.659-.389.468-.41-.178-.1.511-.436.462-.461.024-.435.384-.256.564-.64.1-.338.3-.509.855-1.408.844s-.487-.537-.768.744a7.089,7.089,0,0,1-.282,1.178l-.359.664.205,1,.154,1.051-.231.538.385.435-.154.716.077,1.052.384.485-.384.821-.564.613-.043.674-.493.2-.436-.359-.281-.868-.385-.463v-.589l-.038-.522a.993.993,0,0,1-.319-.86l.1-.486.368-1.045.015-.952-.393-.075-.631-.745L926,5857.6l-.384.282.025.307-.025.384-.461.077-.327-.632-.134-.444-.685-.253-.059.253-.546-.161-.4.265-.432-.143.18-.651s-.466-.307-.466.026v.333l-.185.019A61.776,61.776,0,0,1,952.32,5818.015Zm5.014,110.625a61.829,61.829,0,0,1-34.224-38.081l.012-.108.153-.182.52-.221.06-.258-.214-.214-.02-.325.038-.059.222-.086.187-.148-.072-.409.086-.384.318-.183.355-.183.288-.182-.039-.259c-.038-.261.077-.318.077-.318l.606-.71-.145-.105-.24.183-.25-.135a1,1,0,0,0-.1-.051s.025-.017-.089-.151c-.231-.27.1.135.029-.239s.028-.337.028-.337l.231.116.173-.058-.02-.365.3-.192-.106-.462a1.992,1.992,0,0,0-.163-.537l-.086-.384.116-.183.191,0,.014-.333-.234-.234-.039-.3.2-.253-.043-.592-.279-.548-.652-.8.028-.6.011-.526-.244-.136-.142-.325-.344-.084-.308.045-.279.893-.305.032-.213.025-.18.126.219.238-.106.116c-.1.114.3.343.3.343l.1.262-.077.173-.173.288-.193.067-.6-.029-.193-.163c-.191-.163.088-.4.088-.4l-.395.016.009.339-.236.085-.225-.142.011-.271.063-.194.136.047.122-.273.1-.251-.261.077-.259-.134-.163-.271-.037-.012q-.113-.91-.2-1.827l.216.2c.24.222,0,.231,0,.231l.068.24.268-.029a1.251,1.251,0,0,0,.268-.038l.24.087.086.316h.327l.422-.327.134-.259.443-.067.182-.134.1-.25c.1-.25.116-.211.116-.211l.279.077.364.026-.048.212.106.106.384-.067.6.183.268.5.452.613.154.481-.077.354c-.077.356.24.183.24.183l.239-.221-.076-.346-.211-.259.066-.2.068-.182.412-.178.145-.506.452-.286.316-.039-.028-.2-.1-.451.163-1.076.365-.307.327-.346h.182l.339.218.131-.112-.1-.433.355-.172.3.211.537.02.327-.395.173-.315.47-.106.06-.317.228-.614.657.149.324.484-.125.519-.318.383-.479.029.048.442.277.191.154-.413.24.4.173-.413.509-.048.288-.115.029-.26-.193-.413v-.316l.259-.335c.259-.337.318.047.318.047l.182.413c.182.414-.182.212-.182.212l.077.334.7.2,1,.391-.257.594.257.393,1.044-.106.535-.189,1.054.917h.544l.486-.7-.587-.721.5-.422.808-.116h.615l1.037.538-1.037.77.376.5.623,0,.806-.075.614.806-.347.447-.459.782,1.431.7,1.028,2.331.922.461,1.767.845,1.229,1.767-.154,2.536-1,3.3v1.844s0-1.844,1.152,2.382l.692,1.076,1.767,1-.846,1.308-.536,1.612.536,1.606h1.722l.276,1.62.307,2.151.461.768,1.23.538-.231,2.688.845,4.3-1.422,2.614.785.265,1.378,1.348-.356,1.611-1.807,1.151.808,1,1.919,1.229,1.306,1.306.267,3.3A6.028,6.028,0,0,1,957.334,5928.64Z" transform="translate(-914.541 -5804.678)" fill="url(#linear-gradient-6)"/>
          <ellipse id="Elipse_4909" data-name="Elipse 4909" cx="8.433" cy="14.787" rx="8.433" ry="14.787" transform="matrix(0.612, -0.791, 0.791, 0.612, 78.061, 24.389)" fill="#7dd171" style="mix-blend-mode: screen;isolation: isolate"/>
          <path id="Trazado_146767" data-name="Trazado 146767" d="M982.056,5810.442a61.662,61.662,0,1,0,61.662,61.662A61.662,61.662,0,0,0,982.056,5810.442Zm-34.493,94.967c-22.856-22.59-24.411-58.075-3.48-79.261s56.437-20.04,79.293,2.551,24.416,58.077,3.478,79.256S970.419,5928,947.563,5905.409Z" transform="translate(-914.638 -5804.687)" fill="#d1e89b" style="mix-blend-mode: multiply;isolation: isolate"/>
        </g>
      </g>
      <path id="Trazado_146768" data-name="Trazado 146768" d="M1004.379,5836.925c6,1.3,11.906,2.976,17.532,6.365a21.566,21.566,0,0,1,7.655,7.3,15.547,15.547,0,0,1,1.252,12.11c-2.567,7.659-7.511,12.6-12.258,17.113a96.274,96.274,0,0,1-7.488,6.219c-1.276.962-2.558,1.966-3.859,2.846l-1.95,1.363-.979.684c-.321.238-.792.174-.314,2l-9.943-19.618c1.138,1.473,1.323,1.058,1.661.95l1-.365,2-.729c1.357-.469,2.621-1.019,3.924-1.548a81.6,81.6,0,0,0,7.519-3.464c4.722-2.488,9.381-5.521,11.469-8.991a6.587,6.587,0,0,0,.879-5.253,14.517,14.517,0,0,0-4.028-5.986,47.561,47.561,0,0,0-14.658-8.76Z" transform="translate(-850.825 -5790.34)" fill="#ffc536"/>
      <g id="Grupo_66600" data-name="Grupo 66600" transform="translate(111.545 66.999)">
        <g id="Grupo_66599" data-name="Grupo 66599">
          <path id="Trazado_146769" data-name="Trazado 146769" d="M988.237,5897.889l22.732-13.125v-26.085L988.237,5871.8Z" transform="translate(-965.505 -5845.555)" fill="#c99a6b"/>
          <path id="Trazado_146770" data-name="Trazado 146770" d="M1010.969,5858.679,988.237,5871.8l12.266-6.562Z" transform="translate(-965.505 -5845.555)" fill="#87623f"/>
          <path id="Trazado_146771" data-name="Trazado 146771" d="M996.225,5897.889l-22.732-13.125v-26.085l22.732,13.125Z" transform="translate(-973.493 -5845.555)" fill="#ae835b"/>
          <path id="Trazado_146772" data-name="Trazado 146772" d="M996.225,5876.415l-22.732-13.125,22.732-13.124,22.732,13.124Z" transform="translate(-973.493 -5850.166)" fill="#e8b687"/>
          <path id="Trazado_146773" data-name="Trazado 146773" d="M994.882,5874.4l3.653-2.109v-10.3l-3.653,2.108Z" transform="translate(-961.906 -5843.762)" fill="#d9af84"/>
          <path id="Trazado_146774" data-name="Trazado 146774" d="M1002.869,5868.708l-22.732-13.124,3.652-2.108,22.732,13.124Z" transform="translate(-969.893 -5848.375)" fill="#ebcbab"/>
          <path id="Trazado_146775" data-name="Trazado 146775" d="M973.493,5858.679l22.732,13.125-12.266-6.562Z" transform="translate(-973.493 -5845.555)" fill="#87623f"/>
          <path id="Trazado_146776" data-name="Trazado 146776" d="M983.125,5874.545l-3.653-2.108v-10.3l3.653,2.108Z" transform="translate(-970.253 -5843.685)" fill="#9c754e"/>
          <path id="Trazado_146777" data-name="Trazado 146777" d="M983.125,5868.852l22.732-13.124-3.652-2.109-22.732,13.125Z" transform="translate(-970.253 -5848.296)" fill="#54493e" style="mix-blend-mode: screen;isolation: isolate"/>
          <path id="Trazado_146778" data-name="Trazado 146778" d="M980.834,5867.53l22.732-13.125-.251-.146-22.732,13.125Z" transform="translate(-969.652 -5847.949)" fill="#d1a986"/>
          <path id="Trazado_146779" data-name="Trazado 146779" d="M983.125,5864.24v.426l-2.227-1.191-1.426-.895v-.448Z" transform="translate(-970.253 -5843.685)" fill="#ae835b"/>
        </g>
        <path id="Trazado_146780" data-name="Trazado 146780" d="M996.9,5863.45l-2.022,1.081v-.435l3.653-2.108v.438Z" transform="translate(-961.906 -5843.762)" fill="#ae835b"/>
      </g>
      <path id="Trazado_146781" data-name="Trazado 146781" d="M1025.392,5889.264a7.9,7.9,0,0,1-6.651,9.581,276.045,276.045,0,0,1-34.462,2.548c-14.333.106-28.784-.912-42.927-4.18a99.578,99.578,0,0,1-20.633-7.127,69.546,69.546,0,0,1-9.546-5.5,26,26,0,0,1-8.276-8.4,14.165,14.165,0,0,1-1.744-6.239,13.9,13.9,0,0,1,1.306-6.17,26.871,26.871,0,0,1,7.027-8.928,74.03,74.03,0,0,1,18.237-11.253l.985,2.094a71.1,71.1,0,0,0-16.467,12.051,22.587,22.587,0,0,0-5.3,7.843,8.228,8.228,0,0,0,.84,7.716c3.208,4.564,9.844,7.578,15.872,10.077a91.709,91.709,0,0,0,19.416,5.056c13.348,2.015,27.052,1.94,40.632.783a262.384,262.384,0,0,0,34.227-5.332,6.031,6.031,0,0,1,7.255,4.493Z" transform="translate(-901.141 -5786.726)" fill="#ffc536"/>
    </g>
  </g>
</svg>
