<svg xmlns="http://www.w3.org/2000/svg" xmlns:xlink="http://www.w3.org/1999/xlink" width="1030" height="632" viewBox="0 0 1030 632">
  <defs>
    <linearGradient id="linear-gradient" x1="0.885" y1="0.798" x2="-0.1" y2="0.035" gradientUnits="objectBoundingBox">
      <stop offset="0.134" stop-color="#0d66bf"/>
      <stop offset="0.253" stop-color="#1c72c5"/>
      <stop offset="0.484" stop-color="#4694d4"/>
      <stop offset="0.803" stop-color="#88caee"/>
      <stop offset="0.871" stop-color="#98d7f4"/>
    </linearGradient>
  </defs>
  <g id="Grupo_80254" data-name="Grupo 80254" transform="translate(-285 -19931)">
    <rect id="Rectángulo_20203" data-name="Rectángulo 20203" width="1030" height="632" transform="translate(285 19931)" fill="#53bced" opacity="0.16"/>
    <rect id="Rectángulo_20204" data-name="Rectángulo 20204" width="333" height="38" transform="translate(302 20501)" fill="#dee4f0"/>
    <text id="Nota._Elaboración_propia_a_partir_de_Baena_2012_." data-name="Nota. Elaboración propia a partir de Baena (2012)." transform="translate(325 20510)" fill="#12263f" font-size="13" font-family="Roboto-Regular, Roboto"><tspan x="0" y="14">Nota. Elaboración propia a partir de Baena (2012).</tspan></text>
    <g id="Grupo_71178" data-name="Grupo 71178" transform="translate(114.85 17970.852)">
      <rect id="Rectángulo_20205" data-name="Rectángulo 20205" width="226.965" height="184.348" rx="14.962" transform="translate(219.15 2121.217)" fill="url(#linear-gradient)"/>
      <g id="Grupo_71161" data-name="Grupo 71161">
        <path id="Trazado_160196" data-name="Trazado 160196" d="M254.214,2164.326a32.437,32.437,0,0,1,5.356-.364c2.444,0,4.186.468,5.357,1.43a4.959,4.959,0,0,1,1.872,4.03,5.424,5.424,0,0,1-1.613,4.16,8.249,8.249,0,0,1-5.694,1.847,6.783,6.783,0,0,1-1.352-.1v6.293h-3.926Zm3.926,7.956a5.9,5.9,0,0,0,1.326.1c2.106,0,3.406-1.066,3.406-2.834,0-1.612-1.118-2.574-3.12-2.574a7.078,7.078,0,0,0-1.612.13Z" fill="#fff"/>
        <path id="Trazado_160197" data-name="Trazado 160197" d="M268.956,2173.088c0-1.872-.026-3.094-.1-4.186h3.38l.156,2.366h.1a3.705,3.705,0,0,1,3.433-2.652,3.948,3.948,0,0,1,.832.078v3.718a5.909,5.909,0,0,0-1.067-.1,2.518,2.518,0,0,0-2.7,2,4.469,4.469,0,0,0-.078.884v6.423h-3.952Z" fill="#fff"/>
        <path id="Trazado_160198" data-name="Trazado 160198" d="M284.478,2181.9a6.229,6.229,0,0,1-6.578-6.553c0-4.108,2.7-6.734,6.812-6.734a6.182,6.182,0,0,1,6.474,6.526,6.366,6.366,0,0,1-6.682,6.761Zm.1-2.835c1.56,0,2.522-1.533,2.522-3.822,0-1.872-.728-3.8-2.522-3.8-1.872,0-2.6,1.924-2.6,3.822,0,2.159.91,3.8,2.574,3.8Z" fill="#fff"/>
        <path id="Trazado_160199" data-name="Trazado 160199" d="M305.954,2163.13v14.69c0,1.43.052,2.939.1,3.8h-3.51l-.156-1.847h-.078a4.439,4.439,0,0,1-3.978,2.133c-3.016,0-5.434-2.575-5.434-6.527-.026-4.264,2.652-6.76,5.694-6.76a3.906,3.906,0,0,1,3.354,1.43H302v-6.916ZM302,2174.31a3.432,3.432,0,0,0-.052-.728,2.352,2.352,0,0,0-2.314-1.924c-1.82,0-2.73,1.612-2.73,3.614,0,2.132,1.066,3.485,2.7,3.485a2.342,2.342,0,0,0,2.314-1.9,4.65,4.65,0,0,0,.078-.884Z" fill="#fff"/>
        <path id="Trazado_160200" data-name="Trazado 160200" d="M321.112,2177.535c0,1.664.052,3.016.1,4.082h-3.432l-.182-1.794h-.078a4.537,4.537,0,0,1-3.978,2.08c-2.6,0-4.473-1.613-4.473-5.539V2168.9h3.953v6.838c0,1.846.6,2.964,2,2.964a2.191,2.191,0,0,0,2.132-2.235V2168.9h3.952Z" fill="#fff"/>
        <path id="Trazado_160201" data-name="Trazado 160201" d="M333.826,2181.279a9.042,9.042,0,0,1-3.536.6c-4.109,0-6.735-2.523-6.735-6.5,0-3.692,2.548-6.734,7.281-6.734a9.167,9.167,0,0,1,3.016.494l-.624,2.938a5.413,5.413,0,0,0-2.211-.39,3.551,3.551,0,0,0,.078,7.1,5.6,5.6,0,0,0,2.263-.416Z" fill="#fff"/>
        <path id="Trazado_160202" data-name="Trazado 160202" d="M340.845,2165.444v3.458h2.834v2.912h-2.834v4.6c0,1.535.39,2.236,1.56,2.236a4.924,4.924,0,0,0,1.17-.1l.026,2.989a8.286,8.286,0,0,1-2.548.339,4.226,4.226,0,0,1-2.99-1.092,5.269,5.269,0,0,1-1.093-3.77v-5.2h-1.689V2168.9h1.689v-2.392Z" fill="#fff"/>
        <path id="Trazado_160203" data-name="Trazado 160203" d="M351.687,2181.9a6.229,6.229,0,0,1-6.578-6.553c0-4.108,2.7-6.734,6.812-6.734a6.182,6.182,0,0,1,6.474,6.526,6.366,6.366,0,0,1-6.682,6.761Zm.1-2.835c1.56,0,2.522-1.533,2.522-3.822,0-1.872-.728-3.8-2.522-3.8-1.872,0-2.6,1.924-2.6,3.822,0,2.159.91,3.8,2.574,3.8Z" fill="#fff"/>
        <path id="Trazado_160204" data-name="Trazado 160204" d="M360.813,2178.159a7.736,7.736,0,0,0,3.406.936c1.2,0,1.69-.391,1.69-1.04s-.39-.989-1.846-1.456c-2.652-.885-3.666-2.315-3.64-3.8,0-2.392,2.028-4.186,5.174-4.186a8.355,8.355,0,0,1,3.562.754l-.676,2.7a6.756,6.756,0,0,0-2.756-.7c-.962,0-1.508.39-1.508,1.014,0,.6.494.936,2.054,1.456,2.418.832,3.406,2.054,3.432,3.9,0,2.392-1.846,4.134-5.486,4.134a8.981,8.981,0,0,1-4.108-.91Z" fill="#fff"/>
        <path id="Trazado_160205" data-name="Trazado 160205" d="M389.7,2163.13v14.69c0,1.43.052,2.939.1,3.8h-3.51l-.156-1.847h-.078a4.44,4.44,0,0,1-3.979,2.133c-3.015,0-5.434-2.575-5.434-6.527-.026-4.264,2.653-6.76,5.7-6.76a3.906,3.906,0,0,1,3.354,1.43h.052v-6.916Zm-3.952,11.18a3.432,3.432,0,0,0-.052-.728,2.352,2.352,0,0,0-2.314-1.924c-1.82,0-2.73,1.612-2.73,3.614,0,2.132,1.066,3.485,2.7,3.485a2.342,2.342,0,0,0,2.314-1.9,4.65,4.65,0,0,0,.078-.884Z" fill="#fff"/>
        <path id="Trazado_160206" data-name="Trazado 160206" d="M395.912,2176.52c.131,1.639,1.743,2.418,3.589,2.418a10.448,10.448,0,0,0,3.51-.546l.52,2.679a12.022,12.022,0,0,1-4.6.806c-4.316,0-6.787-2.5-6.787-6.475,0-3.224,2.029-6.786,6.423-6.786,4.108,0,5.668,3.2,5.668,6.344a9.379,9.379,0,0,1-.13,1.56Zm4.655-2.7a2.291,2.291,0,0,0-2.21-2.574,2.617,2.617,0,0,0-2.471,2.574Z" fill="#fff"/>
        <path id="Trazado_160207" data-name="Trazado 160207" d="M263.626,2212.478a9.04,9.04,0,0,1-3.536.6c-4.108,0-6.734-2.522-6.734-6.5,0-3.691,2.548-6.734,7.28-6.734a9.167,9.167,0,0,1,3.016.494l-.624,2.938a5.411,5.411,0,0,0-2.21-.389,3.55,3.55,0,0,0,.078,7.1,5.577,5.577,0,0,0,2.262-.416Z" fill="#fff"/>
        <path id="Trazado_160208" data-name="Trazado 160208" d="M271.374,2213.1a6.228,6.228,0,0,1-6.578-6.551c0-4.109,2.7-6.735,6.812-6.735a6.183,6.183,0,0,1,6.474,6.527,6.365,6.365,0,0,1-6.682,6.759Zm.1-2.834c1.56,0,2.522-1.534,2.522-3.822,0-1.872-.728-3.8-2.522-3.8-1.872,0-2.6,1.924-2.6,3.823,0,2.158.91,3.8,2.574,3.8Z" fill="#fff"/>
        <path id="Trazado_160209" data-name="Trazado 160209" d="M280.526,2204.158c0-1.586-.052-2.912-.1-4.056h3.354l.156,1.743h.078a4.4,4.4,0,0,1,3.848-2.029,3.6,3.6,0,0,1,3.484,2.184h.052a5.542,5.542,0,0,1,1.664-1.56,4.845,4.845,0,0,1,2.418-.624c2.445,0,4.29,1.716,4.29,5.512v7.488h-3.848v-6.889c0-1.847-.6-2.912-1.872-2.912a1.967,1.967,0,0,0-1.846,1.377,4.122,4.122,0,0,0-.13.989v7.435h-3.848v-7.124c0-1.586-.572-2.677-1.846-2.677a2.022,2.022,0,0,0-1.846,1.4,2.677,2.677,0,0,0-.156,1.014v7.384h-3.848Z" fill="#fff"/>
        <path id="Trazado_160210" data-name="Trazado 160210" d="M302.886,2204.366c0-1.664-.053-3.068-.1-4.264h3.433l.181,1.768h.053a4.941,4.941,0,0,1,4.238-2.054c2.782,0,5.278,2.418,5.278,6.474,0,4.629-2.938,6.812-5.772,6.812a3.951,3.951,0,0,1-3.3-1.456h-.051v6.319h-3.952Zm3.952,2.99a4.1,4.1,0,0,0,.078.832,2.391,2.391,0,0,0,2.314,1.872c1.716,0,2.73-1.429,2.73-3.587,0-2.029-.91-3.563-2.679-3.563a2.482,2.482,0,0,0-2.365,2,3.065,3.065,0,0,0-.078.7Z" fill="#fff"/>
        <path id="Trazado_160211" data-name="Trazado 160211" d="M318.433,2204.288c0-1.872-.026-3.094-.1-4.186h3.38l.156,2.367h.1a3.706,3.706,0,0,1,3.433-2.653,3.942,3.942,0,0,1,.832.078v3.718a5.916,5.916,0,0,0-1.066-.1,2.517,2.517,0,0,0-2.7,2,4.386,4.386,0,0,0-.078.883v6.422h-3.953Z" fill="#fff"/>
        <path id="Trazado_160212" data-name="Trazado 160212" d="M338.61,2209.749a16.47,16.47,0,0,0,.208,3.067h-3.562l-.235-1.273h-.077a4.582,4.582,0,0,1-3.641,1.559,3.9,3.9,0,0,1-4.108-3.9c0-3.3,2.964-4.861,7.462-4.861v-.157c0-.675-.363-1.638-2.313-1.638a7.439,7.439,0,0,0-3.511.936l-.728-2.522a10.443,10.443,0,0,1,4.941-1.144c4.237,0,5.564,2.5,5.564,5.487Zm-3.823-2.939c-2.08,0-3.692.495-3.692,2a1.42,1.42,0,0,0,1.561,1.508,2.185,2.185,0,0,0,2.054-1.456,2.88,2.88,0,0,0,.077-.676Z" fill="#fff"/>
        <path id="Trazado_160213" data-name="Trazado 160213" d="M263.626,2243.679a9.059,9.059,0,0,1-3.536.6c-4.108,0-6.734-2.522-6.734-6.5,0-3.692,2.548-6.734,7.28-6.734a9.174,9.174,0,0,1,3.016.494l-.624,2.938a5.386,5.386,0,0,0-2.21-.39,3.551,3.551,0,0,0,.078,7.1,5.581,5.581,0,0,0,2.262-.416Z" fill="#fff"/>
        <path id="Trazado_160214" data-name="Trazado 160214" d="M271.374,2244.3a6.229,6.229,0,0,1-6.578-6.553c0-4.109,2.7-6.735,6.812-6.735a6.183,6.183,0,0,1,6.474,6.527,6.366,6.366,0,0,1-6.682,6.761Zm.1-2.834c1.56,0,2.522-1.535,2.522-3.823,0-1.872-.728-3.8-2.522-3.8-1.872,0-2.6,1.925-2.6,3.823,0,2.158.91,3.8,2.574,3.8Z" fill="#fff"/>
        <path id="Trazado_160215" data-name="Trazado 160215" d="M280.526,2235.488c0-1.872-.026-3.095-.1-4.186h3.38l.156,2.366h.1a3.705,3.705,0,0,1,3.432-2.653,3.93,3.93,0,0,1,.832.079v3.718a5.907,5.907,0,0,0-1.066-.1,2.518,2.518,0,0,0-2.7,2,4.471,4.471,0,0,0-.078.884v6.422h-3.952Z" fill="#fff"/>
        <path id="Trazado_160216" data-name="Trazado 160216" d="M290.406,2235.488c0-1.872-.026-3.095-.1-4.186h3.379l.157,2.366h.1a3.705,3.705,0,0,1,3.432-2.653,3.93,3.93,0,0,1,.832.079v3.718a5.909,5.909,0,0,0-1.067-.1,2.519,2.519,0,0,0-2.7,2,4.554,4.554,0,0,0-.077.884v6.422h-3.952Z" fill="#fff"/>
        <path id="Trazado_160217" data-name="Trazado 160217" d="M302.235,2229.742a2.124,2.124,0,1,1,.026,0Zm-1.95,14.274V2231.3h3.952v12.714Z" fill="#fff"/>
        <path id="Trazado_160218" data-name="Trazado 160218" d="M310.451,2238.92c.13,1.638,1.742,2.418,3.588,2.418a10.473,10.473,0,0,0,3.51-.546l.52,2.679a12.037,12.037,0,0,1-4.6.8c-4.316,0-6.787-2.5-6.787-6.474,0-3.224,2.029-6.787,6.423-6.787,4.108,0,5.668,3.2,5.668,6.345a9.386,9.386,0,0,1-.13,1.56Zm4.654-2.7a2.291,2.291,0,0,0-2.21-2.575,2.617,2.617,0,0,0-2.47,2.575Z" fill="#fff"/>
        <path id="Trazado_160219" data-name="Trazado 160219" d="M321.136,2235.358c0-1.586-.051-2.912-.1-4.056h3.433l.182,1.768h.078a4.567,4.567,0,0,1,3.926-2.055c2.6,0,4.55,1.743,4.55,5.487v7.514h-3.952v-7.046c0-1.638-.572-2.756-2-2.756a2.17,2.17,0,0,0-2.028,1.482,2.846,2.846,0,0,0-.13.988v7.332h-3.953Z" fill="#fff"/>
        <path id="Trazado_160220" data-name="Trazado 160220" d="M340.636,2227.844v3.458h2.834v2.912h-2.834v4.6c0,1.534.391,2.237,1.561,2.237a4.859,4.859,0,0,0,1.17-.1l.026,2.99a8.317,8.317,0,0,1-2.549.338,4.227,4.227,0,0,1-2.99-1.092,5.271,5.271,0,0,1-1.092-3.77v-5.2h-1.689V2231.3h1.689v-2.392Z" fill="#fff"/>
        <path id="Trazado_160221" data-name="Trazado 160221" d="M348.671,2238.92c.13,1.638,1.742,2.418,3.588,2.418a10.473,10.473,0,0,0,3.51-.546l.52,2.679a12.037,12.037,0,0,1-4.6.8c-4.316,0-6.786-2.5-6.786-6.474,0-3.224,2.027-6.787,6.422-6.787,4.108,0,5.668,3.2,5.668,6.345a9.386,9.386,0,0,1-.13,1.56Zm4.654-2.7a2.291,2.291,0,0,0-2.21-2.575,2.617,2.617,0,0,0-2.47,2.575Z" fill="#fff"/>
      </g>
      <rect id="Rectángulo_20206" data-name="Rectángulo 20206" width="201.921" height="184.348" rx="14.962" transform="translate(465.411 2121.217)" fill="#dbbe36"/>
      <g id="Grupo_71162" data-name="Grupo 71162">
        <path id="Trazado_160222" data-name="Trazado 160222" d="M500.475,2164.326a32.437,32.437,0,0,1,5.356-.364c2.444,0,4.186.468,5.356,1.43a4.956,4.956,0,0,1,1.872,4.03,5.424,5.424,0,0,1-1.612,4.16,8.248,8.248,0,0,1-5.694,1.847,6.784,6.784,0,0,1-1.352-.1v6.293h-3.926Zm3.926,7.956a5.9,5.9,0,0,0,1.326.1c2.106,0,3.407-1.066,3.407-2.834,0-1.612-1.119-2.574-3.121-2.574a7.079,7.079,0,0,0-1.612.13Z" fill="#073360"/>
        <path id="Trazado_160223" data-name="Trazado 160223" d="M515.218,2173.088c0-1.872-.027-3.094-.105-4.186h3.38l.156,2.366h.105a3.7,3.7,0,0,1,3.431-2.652,3.929,3.929,0,0,1,.832.078v3.718a5.9,5.9,0,0,0-1.066-.1,2.519,2.519,0,0,0-2.7,2,4.474,4.474,0,0,0-.077.884v6.423h-3.952Z" fill="#073360"/>
        <path id="Trazado_160224" data-name="Trazado 160224" d="M530.739,2181.9a6.229,6.229,0,0,1-6.578-6.553c0-4.108,2.7-6.734,6.812-6.734a6.182,6.182,0,0,1,6.474,6.526,6.366,6.366,0,0,1-6.682,6.761Zm.1-2.835c1.56,0,2.522-1.533,2.522-3.822,0-1.872-.728-3.8-2.522-3.8-1.872,0-2.6,1.924-2.6,3.822,0,2.159.91,3.8,2.574,3.8Z" fill="#073360"/>
        <path id="Trazado_160225" data-name="Trazado 160225" d="M552.216,2163.13v14.69c0,1.43.051,2.939.1,3.8h-3.51l-.156-1.847h-.078a4.439,4.439,0,0,1-3.978,2.133c-3.016,0-5.434-2.575-5.434-6.527-.027-4.264,2.652-6.76,5.694-6.76a3.906,3.906,0,0,1,3.354,1.43h.052v-6.916Zm-3.953,11.18a3.432,3.432,0,0,0-.052-.728,2.352,2.352,0,0,0-2.314-1.924c-1.82,0-2.73,1.612-2.73,3.614,0,2.132,1.066,3.485,2.7,3.485a2.342,2.342,0,0,0,2.314-1.9,4.65,4.65,0,0,0,.078-.884Z" fill="#073360"/>
        <path id="Trazado_160226" data-name="Trazado 160226" d="M567.373,2177.535c0,1.664.052,3.016.1,4.082h-3.432l-.182-1.794h-.078a4.539,4.539,0,0,1-3.979,2.08c-2.6,0-4.471-1.613-4.471-5.539V2168.9h3.952v6.838c0,1.846.6,2.964,2,2.964a2.191,2.191,0,0,0,2.132-2.235V2168.9h3.952Z" fill="#073360"/>
        <path id="Trazado_160227" data-name="Trazado 160227" d="M580.087,2181.279a9.046,9.046,0,0,1-3.536.6c-4.109,0-6.735-2.523-6.735-6.5,0-3.692,2.548-6.734,7.28-6.734a9.173,9.173,0,0,1,3.017.494l-.624,2.938a5.411,5.411,0,0,0-2.21-.39,3.551,3.551,0,0,0,.077,7.1,5.6,5.6,0,0,0,2.263-.416Z" fill="#073360"/>
        <path id="Trazado_160228" data-name="Trazado 160228" d="M587.106,2165.444v3.458h2.834v2.912h-2.834v4.6c0,1.535.39,2.236,1.56,2.236a4.924,4.924,0,0,0,1.17-.1l.026,2.989a8.286,8.286,0,0,1-2.548.339,4.225,4.225,0,0,1-2.99-1.092,5.264,5.264,0,0,1-1.092-3.77v-5.2h-1.69V2168.9h1.69v-2.392Z" fill="#073360"/>
        <path id="Trazado_160229" data-name="Trazado 160229" d="M597.948,2181.9a6.229,6.229,0,0,1-6.578-6.553c0-4.108,2.7-6.734,6.812-6.734a6.182,6.182,0,0,1,6.474,6.526,6.366,6.366,0,0,1-6.682,6.761Zm.1-2.835c1.56,0,2.522-1.533,2.522-3.822,0-1.872-.728-3.8-2.522-3.8-1.872,0-2.6,1.924-2.6,3.822,0,2.159.91,3.8,2.574,3.8Z" fill="#073360"/>
        <path id="Trazado_160230" data-name="Trazado 160230" d="M607.074,2178.159a7.736,7.736,0,0,0,3.406.936c1.2,0,1.69-.391,1.69-1.04s-.39-.989-1.846-1.456c-2.652-.885-3.666-2.315-3.641-3.8,0-2.392,2.029-4.186,5.175-4.186a8.355,8.355,0,0,1,3.562.754l-.676,2.7a6.756,6.756,0,0,0-2.756-.7c-.962,0-1.508.39-1.508,1.014,0,.6.494.936,2.054,1.456,2.418.832,3.406,2.054,3.432,3.9,0,2.392-1.846,4.134-5.486,4.134a8.98,8.98,0,0,1-4.108-.91Z" fill="#073360"/>
        <path id="Trazado_160231" data-name="Trazado 160231" d="M635.96,2163.13v14.69c0,1.43.051,2.939.1,3.8h-3.511l-.155-1.847h-.078a4.44,4.44,0,0,1-3.978,2.133c-3.016,0-5.435-2.575-5.435-6.527-.025-4.264,2.652-6.76,5.694-6.76a3.908,3.908,0,0,1,3.355,1.43h.052v-6.916Zm-3.952,11.18a3.432,3.432,0,0,0-.052-.728,2.353,2.353,0,0,0-2.315-1.924c-1.819,0-2.729,1.612-2.729,3.614,0,2.132,1.065,3.485,2.7,3.485a2.341,2.341,0,0,0,2.313-1.9,4.569,4.569,0,0,0,.079-.884Z" fill="#073360"/>
        <path id="Trazado_160232" data-name="Trazado 160232" d="M642.174,2176.52c.129,1.639,1.742,2.418,3.587,2.418a10.449,10.449,0,0,0,3.511-.546l.52,2.679a12.022,12.022,0,0,1-4.6.806c-4.316,0-6.787-2.5-6.787-6.475,0-3.224,2.028-6.786,6.423-6.786,4.108,0,5.668,3.2,5.668,6.344a9.379,9.379,0,0,1-.13,1.56Zm4.654-2.7a2.291,2.291,0,0,0-2.21-2.574,2.617,2.617,0,0,0-2.471,2.574Z" fill="#073360"/>
        <path id="Trazado_160233" data-name="Trazado 160233" d="M509.887,2212.478a9.039,9.039,0,0,1-3.536.6c-4.108,0-6.734-2.522-6.734-6.5,0-3.691,2.548-6.734,7.28-6.734a9.167,9.167,0,0,1,3.016.494l-.624,2.938a5.41,5.41,0,0,0-2.21-.389,3.55,3.55,0,0,0,.078,7.1,5.574,5.574,0,0,0,2.262-.416Z" fill="#073360"/>
        <path id="Trazado_160234" data-name="Trazado 160234" d="M517.635,2213.1a6.228,6.228,0,0,1-6.579-6.551c0-4.109,2.7-6.735,6.813-6.735a6.183,6.183,0,0,1,6.475,6.527,6.366,6.366,0,0,1-6.683,6.759Zm.1-2.834c1.56,0,2.522-1.534,2.522-3.822,0-1.872-.728-3.8-2.522-3.8-1.872,0-2.6,1.924-2.6,3.823,0,2.158.91,3.8,2.574,3.8Z" fill="#073360"/>
        <path id="Trazado_160235" data-name="Trazado 160235" d="M526.787,2204.158c0-1.586-.052-2.912-.1-4.056h3.355l.156,1.743h.078a4.4,4.4,0,0,1,3.848-2.029A3.6,3.6,0,0,1,537.6,2202h.052a5.542,5.542,0,0,1,1.664-1.56,4.846,4.846,0,0,1,2.418-.624c2.444,0,4.29,1.716,4.29,5.512v7.488h-3.848v-6.889c0-1.847-.6-2.912-1.872-2.912a1.967,1.967,0,0,0-1.846,1.377,4.172,4.172,0,0,0-.13.989v7.435h-3.848v-7.124c0-1.586-.572-2.677-1.846-2.677a2.022,2.022,0,0,0-1.846,1.4,2.677,2.677,0,0,0-.156,1.014v7.384h-3.848Z" fill="#073360"/>
        <path id="Trazado_160236" data-name="Trazado 160236" d="M549.146,2204.366c0-1.664-.052-3.068-.1-4.264h3.431l.182,1.768h.053a4.939,4.939,0,0,1,4.238-2.054c2.782,0,5.278,2.418,5.278,6.474,0,4.629-2.938,6.812-5.772,6.812a3.951,3.951,0,0,1-3.3-1.456H553.1v6.319h-3.952Zm3.952,2.99a4.1,4.1,0,0,0,.079.832,2.39,2.39,0,0,0,2.314,1.872c1.716,0,2.729-1.429,2.729-3.587,0-2.029-.91-3.563-2.677-3.563a2.482,2.482,0,0,0-2.366,2,3.063,3.063,0,0,0-.079.7Z" fill="#073360"/>
        <path id="Trazado_160237" data-name="Trazado 160237" d="M564.694,2204.288c0-1.872-.026-3.094-.1-4.186h3.379l.157,2.367h.1a3.707,3.707,0,0,1,3.433-2.653,3.942,3.942,0,0,1,.832.078v3.718a5.928,5.928,0,0,0-1.067-.1,2.518,2.518,0,0,0-2.7,2,4.533,4.533,0,0,0-.078.883v6.422h-3.952Z" fill="#073360"/>
        <path id="Trazado_160238" data-name="Trazado 160238" d="M584.871,2209.749a16.47,16.47,0,0,0,.208,3.067h-3.563l-.234-1.273h-.077a4.582,4.582,0,0,1-3.641,1.559,3.9,3.9,0,0,1-4.108-3.9c0-3.3,2.965-4.861,7.463-4.861v-.157c0-.675-.365-1.638-2.315-1.638a7.442,7.442,0,0,0-3.51.936l-.728-2.522a10.441,10.441,0,0,1,4.94-1.144c4.239,0,5.565,2.5,5.565,5.487Zm-3.822-2.939c-2.08,0-3.693.495-3.693,2a1.42,1.42,0,0,0,1.561,1.508,2.181,2.181,0,0,0,2.053-1.456,2.827,2.827,0,0,0,.079-.676Z" fill="#073360"/>
        <path id="Trazado_160239" data-name="Trazado 160239" d="M500.344,2235.488c0-1.872-.025-3.095-.1-4.186h3.38l.156,2.366h.1a3.705,3.705,0,0,1,3.432-2.653,3.93,3.93,0,0,1,.832.079v3.718a5.907,5.907,0,0,0-1.066-.1,2.518,2.518,0,0,0-2.7,2,4.471,4.471,0,0,0-.078.884v6.422h-3.953Z" fill="#073360"/>
        <path id="Trazado_160240" data-name="Trazado 160240" d="M513.059,2238.92c.13,1.638,1.742,2.418,3.588,2.418a10.472,10.472,0,0,0,3.51-.546l.52,2.679a12.037,12.037,0,0,1-4.6.8c-4.316,0-6.786-2.5-6.786-6.474,0-3.224,2.028-6.787,6.422-6.787,4.108,0,5.668,3.2,5.668,6.345a9.28,9.28,0,0,1-.13,1.56Zm4.654-2.7a2.291,2.291,0,0,0-2.21-2.575,2.616,2.616,0,0,0-2.47,2.575Z" fill="#073360"/>
        <path id="Trazado_160241" data-name="Trazado 160241" d="M524.213,2244.016v-9.8h-1.69V2231.3h1.69v-.546a5.393,5.393,0,0,1,1.923-4.056,7.445,7.445,0,0,1,4.837-1.431,10.614,10.614,0,0,1,4.888,1.067v17.68h-3.952v-15.548a3.307,3.307,0,0,0-1.508-.26c-1.586,0-2.262,1.143-2.262,2.6v.5h2.314v2.912h-2.288v9.8Z" fill="#073360"/>
        <path id="Trazado_160242" data-name="Trazado 160242" d="M542.074,2238.92c.131,1.638,1.742,2.418,3.589,2.418a10.476,10.476,0,0,0,3.51-.546l.52,2.679a12.043,12.043,0,0,1-4.6.8c-4.317,0-6.787-2.5-6.787-6.474,0-3.224,2.029-6.787,6.422-6.787,4.109,0,5.669,3.2,5.669,6.345a9.247,9.247,0,0,1-.131,1.56Zm4.654-2.7a2.291,2.291,0,0,0-2.21-2.575,2.616,2.616,0,0,0-2.469,2.575Z" fill="#073360"/>
        <path id="Trazado_160243" data-name="Trazado 160243" d="M555.465,2231.3l1.248,2.131c.364.651.7,1.275,1.04,1.9h.051c.339-.7.651-1.326.989-1.976l1.118-2.054h4.29l-4.186,6.058,4.238,6.656h-4.472l-1.274-2.288a16.97,16.97,0,0,1-.988-1.95h-.078c-.312.7-.65,1.326-.962,1.95l-1.2,2.288H550.94l4.317-6.5-4.212-6.214Z" fill="#073360"/>
        <path id="Trazado_160244" data-name="Trazado 160244" d="M567.892,2229.742a2.125,2.125,0,1,1,.027,0Zm-1.95,14.274V2231.3h3.952v12.714Z" fill="#073360"/>
        <path id="Trazado_160245" data-name="Trazado 160245" d="M576.005,2231.3l1.715,5.9c.312,1.066.52,2.08.728,3.094h.078c.208-1.04.416-2,.7-3.094l1.639-5.9h4.16l-4.732,12.714h-3.952l-4.628-12.714Z" fill="#073360"/>
        <path id="Trazado_160246" data-name="Trazado 160246" d="M597.247,2240.948a16.479,16.479,0,0,0,.208,3.068h-3.562l-.234-1.274h-.078a4.578,4.578,0,0,1-3.64,1.561,3.9,3.9,0,0,1-4.108-3.9c0-3.3,2.964-4.862,7.462-4.862v-.156c0-.676-.364-1.638-2.314-1.638a7.439,7.439,0,0,0-3.511.936l-.727-2.522a10.44,10.44,0,0,1,4.94-1.145c4.238,0,5.564,2.5,5.564,5.487Zm-3.822-2.938c-2.081,0-3.692.494-3.692,2a1.419,1.419,0,0,0,1.56,1.507,2.184,2.184,0,0,0,2.054-1.456,2.831,2.831,0,0,0,.078-.675Z" fill="#073360"/>
      </g>
      <rect id="Rectángulo_20207" data-name="Rectángulo 20207" width="205.388" height="184.348" rx="14.962" transform="translate(700.622 2121.217)" fill="#e2cb5e"/>
      <g id="Grupo_71164" data-name="Grupo 71164">
        <g id="Grupo_71163" data-name="Grupo 71163">
          <path id="Trazado_160247" data-name="Trazado 160247" d="M735.686,2186.239a32.438,32.438,0,0,1,5.356-.364c2.444,0,4.186.468,5.356,1.43a4.957,4.957,0,0,1,1.872,4.03,5.425,5.425,0,0,1-1.612,4.16,8.25,8.25,0,0,1-5.694,1.847,6.8,6.8,0,0,1-1.352-.1v6.292h-3.926Zm3.926,7.956a5.916,5.916,0,0,0,1.326.1c2.106,0,3.406-1.066,3.406-2.834,0-1.612-1.118-2.575-3.12-2.575a7.058,7.058,0,0,0-1.612.131Z" fill="#073360"/>
          <path id="Trazado_160248" data-name="Trazado 160248" d="M750.428,2195c0-1.872-.026-3.094-.1-4.186h3.38l.156,2.367h.105a3.7,3.7,0,0,1,3.431-2.653,3.93,3.93,0,0,1,.832.078v3.718a5.907,5.907,0,0,0-1.066-.1,2.518,2.518,0,0,0-2.7,2,4.454,4.454,0,0,0-.077.883v6.422h-3.953Z" fill="#073360"/>
          <path id="Trazado_160249" data-name="Trazado 160249" d="M765.95,2203.815a6.228,6.228,0,0,1-6.578-6.551c0-4.109,2.7-6.735,6.812-6.735a6.183,6.183,0,0,1,6.474,6.527,6.365,6.365,0,0,1-6.682,6.759Zm.1-2.834c1.56,0,2.522-1.534,2.522-3.822,0-1.872-.728-3.8-2.522-3.8-1.872,0-2.6,1.924-2.6,3.822,0,2.159.91,3.8,2.574,3.8Z" fill="#073360"/>
          <path id="Trazado_160250" data-name="Trazado 160250" d="M787.427,2185.043v14.69c0,1.43.051,2.939.1,3.8h-3.51l-.156-1.846h-.078a4.439,4.439,0,0,1-3.978,2.132c-3.016,0-5.434-2.574-5.434-6.526-.027-4.264,2.652-6.76,5.694-6.76a3.906,3.906,0,0,1,3.354,1.43h.052v-6.916Zm-3.953,11.181a3.437,3.437,0,0,0-.052-.729,2.352,2.352,0,0,0-2.314-1.924c-1.82,0-2.73,1.612-2.73,3.614,0,2.132,1.066,3.485,2.7,3.485a2.341,2.341,0,0,0,2.314-1.9,4.65,4.65,0,0,0,.078-.883Z" fill="#073360"/>
          <path id="Trazado_160251" data-name="Trazado 160251" d="M802.584,2199.447c0,1.664.052,3.017.1,4.082h-3.432l-.182-1.794H799a4.537,4.537,0,0,1-3.979,2.08c-2.6,0-4.471-1.612-4.471-5.538v-7.462H794.5v6.838c0,1.846.6,2.964,2,2.964a2.192,2.192,0,0,0,2.132-2.235v-7.567h3.952Z" fill="#073360"/>
          <path id="Trazado_160252" data-name="Trazado 160252" d="M815.3,2203.191a9.044,9.044,0,0,1-3.537.6c-4.108,0-6.734-2.523-6.734-6.5,0-3.691,2.548-6.734,7.28-6.734a9.173,9.173,0,0,1,3.017.494l-.624,2.938a5.413,5.413,0,0,0-2.21-.389,3.55,3.55,0,0,0,.077,7.1,5.582,5.582,0,0,0,2.263-.416Z" fill="#073360"/>
          <path id="Trazado_160253" data-name="Trazado 160253" d="M822.317,2187.357v3.458h2.834v2.912h-2.834v4.6c0,1.534.39,2.236,1.56,2.236a4.911,4.911,0,0,0,1.17-.1l.026,2.989a8.277,8.277,0,0,1-2.548.339,4.218,4.218,0,0,1-2.99-1.093,5.261,5.261,0,0,1-1.092-3.769v-5.2h-1.69v-2.912h1.69v-2.392Z" fill="#073360"/>
          <path id="Trazado_160254" data-name="Trazado 160254" d="M833.159,2203.815a6.228,6.228,0,0,1-6.578-6.551c0-4.109,2.7-6.735,6.812-6.735a6.183,6.183,0,0,1,6.474,6.527,6.365,6.365,0,0,1-6.682,6.759Zm.1-2.834c1.56,0,2.522-1.534,2.522-3.822,0-1.872-.728-3.8-2.522-3.8-1.872,0-2.6,1.924-2.6,3.822,0,2.159.91,3.8,2.574,3.8Z" fill="#073360"/>
          <path id="Trazado_160255" data-name="Trazado 160255" d="M842.285,2200.071a7.709,7.709,0,0,0,3.406.937c1.2,0,1.69-.391,1.69-1.04s-.39-.989-1.846-1.456c-2.652-.885-3.666-2.315-3.641-3.8,0-2.392,2.029-4.186,5.175-4.186a8.359,8.359,0,0,1,3.562.754l-.676,2.7a6.752,6.752,0,0,0-2.756-.7c-.962,0-1.508.39-1.508,1.014,0,.6.494.936,2.054,1.456,2.418.832,3.406,2.054,3.432,3.9,0,2.393-1.846,4.135-5.486,4.135a8.993,8.993,0,0,1-4.108-.91Z" fill="#073360"/>
          <path id="Trazado_160256" data-name="Trazado 160256" d="M871.171,2185.043v14.69c0,1.43.051,2.939.1,3.8h-3.511l-.155-1.846h-.078a4.44,4.44,0,0,1-3.979,2.132c-3.015,0-5.434-2.574-5.434-6.526-.025-4.264,2.652-6.76,5.694-6.76a3.91,3.91,0,0,1,3.355,1.43h.052v-6.916Zm-3.952,11.181a3.437,3.437,0,0,0-.052-.729,2.353,2.353,0,0,0-2.315-1.924c-1.819,0-2.729,1.612-2.729,3.614,0,2.132,1.065,3.485,2.7,3.485a2.34,2.34,0,0,0,2.313-1.9,4.568,4.568,0,0,0,.079-.883Z" fill="#073360"/>
          <path id="Trazado_160257" data-name="Trazado 160257" d="M877.385,2198.433c.129,1.638,1.742,2.418,3.587,2.418a10.475,10.475,0,0,0,3.511-.545l.52,2.677a12.017,12.017,0,0,1-4.6.807c-4.316,0-6.787-2.5-6.787-6.475,0-3.224,2.028-6.786,6.423-6.786,4.108,0,5.668,3.2,5.668,6.344a9.379,9.379,0,0,1-.13,1.56Zm4.654-2.7a2.291,2.291,0,0,0-2.21-2.574,2.617,2.617,0,0,0-2.471,2.574Z" fill="#073360"/>
          <path id="Trazado_160258" data-name="Trazado 160258" d="M738.6,2229.634c.13,1.637,1.742,2.418,3.588,2.418a10.472,10.472,0,0,0,3.51-.546l.521,2.677a12.03,12.03,0,0,1-4.6.807c-4.316,0-6.786-2.5-6.786-6.475,0-3.224,2.028-6.786,6.422-6.786,4.108,0,5.668,3.2,5.668,6.344a9.287,9.287,0,0,1-.13,1.561Zm4.654-2.7a2.291,2.291,0,0,0-2.21-2.575,2.617,2.617,0,0,0-2.47,2.575Z" fill="#073360"/>
          <path id="Trazado_160259" data-name="Trazado 160259" d="M749.258,2231.271a7.71,7.71,0,0,0,3.406.937c1.2,0,1.69-.391,1.69-1.04s-.39-.988-1.846-1.456c-2.652-.885-3.666-2.315-3.64-3.8,0-2.392,2.028-4.186,5.174-4.186a8.374,8.374,0,0,1,3.562.754l-.676,2.7a6.752,6.752,0,0,0-2.756-.7c-.962,0-1.508.39-1.508,1.014,0,.6.494.936,2.054,1.456,2.418.832,3.406,2.055,3.432,3.9,0,2.393-1.846,4.135-5.486,4.135a9,9,0,0,1-4.109-.91Z" fill="#073360"/>
          <path id="Trazado_160260" data-name="Trazado 160260" d="M760.567,2226.279c0-1.664-.052-3.068-.1-4.264H763.9l.183,1.768h.052a4.942,4.942,0,0,1,4.238-2.054c2.782,0,5.278,2.418,5.278,6.474,0,4.629-2.938,6.812-5.772,6.812a3.948,3.948,0,0,1-3.3-1.456h-.053v6.319h-3.952Zm3.952,2.99a4.176,4.176,0,0,0,.078.832,2.393,2.393,0,0,0,2.315,1.873c1.716,0,2.73-1.43,2.73-3.588,0-2.029-.91-3.563-2.678-3.563a2.484,2.484,0,0,0-2.367,2,3.122,3.122,0,0,0-.078.7Z" fill="#073360"/>
          <path id="Trazado_160261" data-name="Trazado 160261" d="M779.157,2229.634c.131,1.637,1.742,2.418,3.589,2.418a10.476,10.476,0,0,0,3.51-.546l.52,2.677a12.029,12.029,0,0,1-4.6.807c-4.317,0-6.787-2.5-6.787-6.475,0-3.224,2.029-6.786,6.422-6.786,4.109,0,5.669,3.2,5.669,6.344a9.254,9.254,0,0,1-.131,1.561Zm4.654-2.7a2.291,2.291,0,0,0-2.21-2.575,2.616,2.616,0,0,0-2.469,2.575Z" fill="#073360"/>
          <path id="Trazado_160262" data-name="Trazado 160262" d="M799.386,2234.391a9.045,9.045,0,0,1-3.537.6c-4.108,0-6.734-2.522-6.734-6.5,0-3.691,2.549-6.734,7.28-6.734a9.173,9.173,0,0,1,3.017.494l-.624,2.938a5.411,5.411,0,0,0-2.21-.389,3.55,3.55,0,0,0,.078,7.1,5.577,5.577,0,0,0,2.262-.416Z" fill="#073360"/>
          <path id="Trazado_160263" data-name="Trazado 160263" d="M803.519,2220.455a2.124,2.124,0,1,1,.026,0Zm-1.95,14.274v-12.714h3.952v12.714Z" fill="#073360"/>
          <path id="Trazado_160264" data-name="Trazado 160264" d="M819.275,2231.662a16.478,16.478,0,0,0,.208,3.067h-3.562l-.234-1.273h-.078a4.581,4.581,0,0,1-3.64,1.559,3.9,3.9,0,0,1-4.109-3.9c0-3.3,2.965-4.861,7.463-4.861v-.156c0-.676-.364-1.639-2.314-1.639a7.435,7.435,0,0,0-3.51.936l-.729-2.522a10.443,10.443,0,0,1,4.941-1.144c4.238,0,5.564,2.5,5.564,5.487Zm-3.822-2.938c-2.08,0-3.692.494-3.692,2a1.419,1.419,0,0,0,1.56,1.508,2.183,2.183,0,0,0,2.054-1.456,2.829,2.829,0,0,0,.078-.676Z" fill="#073360"/>
          <path id="Trazado_160265" data-name="Trazado 160265" d="M822.421,2216.243h3.952v18.486h-3.952Z" fill="#073360"/>
          <path id="Trazado_160266" data-name="Trazado 160266" d="M831.52,2220.455a2.125,2.125,0,1,1,.027,0Zm-1.95,14.274v-12.714h3.952v12.714Z" fill="#073360"/>
          <path id="Trazado_160267" data-name="Trazado 160267" d="M849.018,2216.243v14.69c0,1.43.052,2.939.1,3.8h-3.511l-.156-1.845h-.077a4.442,4.442,0,0,1-3.979,2.131c-3.016,0-5.434-2.574-5.434-6.526-.026-4.264,2.652-6.76,5.694-6.76a3.909,3.909,0,0,1,3.354,1.43h.052v-6.916Zm-3.952,11.181a3.441,3.441,0,0,0-.052-.729,2.351,2.351,0,0,0-2.314-1.924c-1.82,0-2.73,1.613-2.73,3.615,0,2.131,1.066,3.484,2.705,3.484a2.34,2.34,0,0,0,2.313-1.9,4.668,4.668,0,0,0,.078-.884Z" fill="#073360"/>
          <path id="Trazado_160268" data-name="Trazado 160268" d="M862.772,2231.662a16.471,16.471,0,0,0,.208,3.067h-3.562l-.234-1.273h-.078a4.58,4.58,0,0,1-3.64,1.559,3.9,3.9,0,0,1-4.108-3.9c0-3.3,2.964-4.861,7.462-4.861v-.156c0-.676-.364-1.639-2.314-1.639a7.435,7.435,0,0,0-3.51.936l-.728-2.522a10.438,10.438,0,0,1,4.94-1.144c4.238,0,5.564,2.5,5.564,5.487Zm-3.822-2.938c-2.08,0-3.692.494-3.692,2a1.419,1.419,0,0,0,1.56,1.508,2.183,2.183,0,0,0,2.054-1.456,2.78,2.78,0,0,0,.078-.676Z" fill="#073360"/>
          <path id="Trazado_160269" data-name="Trazado 160269" d="M878.242,2216.243v14.69c0,1.43.052,2.939.1,3.8h-3.51l-.156-1.845H874.6a4.44,4.44,0,0,1-3.978,2.131c-3.016,0-5.435-2.574-5.435-6.526-.025-4.264,2.653-6.76,5.695-6.76a3.91,3.91,0,0,1,3.354,1.43h.052v-6.916Zm-3.952,11.181a3.441,3.441,0,0,0-.052-.729,2.352,2.352,0,0,0-2.314-1.924c-1.82,0-2.73,1.613-2.73,3.615,0,2.131,1.066,3.484,2.7,3.484a2.341,2.341,0,0,0,2.314-1.9,4.668,4.668,0,0,0,.078-.884Z" fill="#073360"/>
        </g>
      </g>
      <rect id="Rectángulo_20208" data-name="Rectángulo 20208" width="205.388" height="184.348" rx="14.962" transform="translate(946.883 2121.217)" fill="#0d66bf"/>
      <rect id="Rectángulo_20209" data-name="Rectángulo 20209" width="174.484" height="107.13" rx="14.962" transform="translate(699.519 2342.957)" fill="#3d85cc"/>
      <g id="Grupo_71166" data-name="Grupo 71166">
        <g id="Grupo_71165" data-name="Grupo 71165">
          <path id="Trazado_160270" data-name="Trazado 160270" d="M981.947,2186.239a32.437,32.437,0,0,1,5.356-.364c2.444,0,4.186.468,5.356,1.43a4.957,4.957,0,0,1,1.872,4.03,5.425,5.425,0,0,1-1.612,4.16,8.25,8.25,0,0,1-5.694,1.847,6.8,6.8,0,0,1-1.352-.1v6.292h-3.926Zm3.926,7.956a5.916,5.916,0,0,0,1.326.1c2.106,0,3.406-1.066,3.406-2.834,0-1.612-1.118-2.575-3.12-2.575a7.058,7.058,0,0,0-1.612.131Z" fill="#fff"/>
          <path id="Trazado_160271" data-name="Trazado 160271" d="M996.689,2195c0-1.872-.026-3.094-.1-4.186h3.38l.156,2.367h.1a3.7,3.7,0,0,1,3.432-2.653,3.953,3.953,0,0,1,.833.078v3.718a5.935,5.935,0,0,0-1.066-.1,2.519,2.519,0,0,0-2.705,2,4.449,4.449,0,0,0-.078.883v6.422h-3.952Z" fill="#fff"/>
          <path id="Trazado_160272" data-name="Trazado 160272" d="M1012.211,2203.815a6.228,6.228,0,0,1-6.578-6.551c0-4.109,2.7-6.735,6.812-6.735a6.183,6.183,0,0,1,6.474,6.527,6.365,6.365,0,0,1-6.682,6.759Zm.1-2.834c1.56,0,2.522-1.534,2.522-3.822,0-1.872-.728-3.8-2.522-3.8-1.872,0-2.6,1.924-2.6,3.822,0,2.159.91,3.8,2.574,3.8Z" fill="#fff"/>
          <path id="Trazado_160273" data-name="Trazado 160273" d="M1033.687,2185.043v14.69c0,1.43.052,2.939.1,3.8h-3.51l-.156-1.846h-.078a4.439,4.439,0,0,1-3.978,2.132c-3.017,0-5.434-2.574-5.434-6.526-.026-4.264,2.652-6.76,5.694-6.76a3.906,3.906,0,0,1,3.354,1.43h.052v-6.916Zm-3.952,11.181a3.437,3.437,0,0,0-.052-.729,2.352,2.352,0,0,0-2.314-1.924c-1.82,0-2.73,1.612-2.73,3.614,0,2.132,1.066,3.485,2.7,3.485a2.341,2.341,0,0,0,2.314-1.9,4.65,4.65,0,0,0,.078-.883Z" fill="#fff"/>
          <path id="Trazado_160274" data-name="Trazado 160274" d="M1048.845,2199.447c0,1.664.052,3.017.1,4.082h-3.432l-.182-1.794h-.078a4.535,4.535,0,0,1-3.978,2.08c-2.6,0-4.473-1.612-4.473-5.538v-7.462h3.953v6.838c0,1.846.6,2.964,2,2.964a2.192,2.192,0,0,0,2.132-2.235v-7.567h3.952Z" fill="#fff"/>
          <path id="Trazado_160275" data-name="Trazado 160275" d="M1061.558,2203.191a9.026,9.026,0,0,1-3.536.6c-4.108,0-6.734-2.523-6.734-6.5,0-3.691,2.548-6.734,7.281-6.734a9.167,9.167,0,0,1,3.016.494l-.624,2.938a5.414,5.414,0,0,0-2.21-.389,3.55,3.55,0,0,0,.077,7.1,5.585,5.585,0,0,0,2.263-.416Z" fill="#fff"/>
          <path id="Trazado_160276" data-name="Trazado 160276" d="M1068.578,2187.357v3.458h2.834v2.912h-2.834v4.6c0,1.534.39,2.236,1.56,2.236a4.911,4.911,0,0,0,1.17-.1l.026,2.989a8.276,8.276,0,0,1-2.548.339,4.217,4.217,0,0,1-2.99-1.093,5.265,5.265,0,0,1-1.092-3.769v-5.2h-1.691v-2.912h1.691v-2.392Z" fill="#fff"/>
          <path id="Trazado_160277" data-name="Trazado 160277" d="M1079.42,2203.815a6.228,6.228,0,0,1-6.578-6.551c0-4.109,2.7-6.735,6.812-6.735a6.183,6.183,0,0,1,6.474,6.527,6.365,6.365,0,0,1-6.682,6.759Zm.1-2.834c1.56,0,2.522-1.534,2.522-3.822,0-1.872-.728-3.8-2.522-3.8-1.872,0-2.6,1.924-2.6,3.822,0,2.159.91,3.8,2.574,3.8Z" fill="#fff"/>
          <path id="Trazado_160278" data-name="Trazado 160278" d="M1088.546,2200.071a7.713,7.713,0,0,0,3.406.937c1.2,0,1.69-.391,1.69-1.04s-.39-.989-1.846-1.456c-2.652-.885-3.666-2.315-3.64-3.8,0-2.392,2.028-4.186,5.174-4.186a8.359,8.359,0,0,1,3.562.754l-.676,2.7a6.751,6.751,0,0,0-2.756-.7c-.962,0-1.508.39-1.508,1.014,0,.6.494.936,2.054,1.456,2.418.832,3.406,2.054,3.432,3.9,0,2.393-1.846,4.135-5.486,4.135a8.99,8.99,0,0,1-4.108-.91Z" fill="#fff"/>
          <path id="Trazado_160279" data-name="Trazado 160279" d="M1105.107,2194.871c0-1.586-.052-2.912-.1-4.056h3.432l.182,1.768h.079a4.566,4.566,0,0,1,3.926-2.054c2.6,0,4.55,1.742,4.55,5.486v7.514h-3.953v-7.046c0-1.637-.571-2.756-2-2.756a2.171,2.171,0,0,0-2.029,1.482,2.876,2.876,0,0,0-.13.988v7.332h-3.952Z" fill="#fff"/>
          <path id="Trazado_160280" data-name="Trazado 160280" d="M1126.194,2203.815a6.228,6.228,0,0,1-6.579-6.551c0-4.109,2.7-6.735,6.813-6.735a6.183,6.183,0,0,1,6.474,6.527,6.365,6.365,0,0,1-6.682,6.759Zm.1-2.834c1.56,0,2.522-1.534,2.522-3.822,0-1.872-.728-3.8-2.522-3.8-1.872,0-2.6,1.924-2.6,3.822,0,2.159.91,3.8,2.574,3.8Z" fill="#fff"/>
          <path id="Trazado_160281" data-name="Trazado 160281" d="M981.817,2216.243h3.952v7.28h.052a4.481,4.481,0,0,1,3.848-1.794c3.042,0,5.252,2.522,5.226,6.422,0,4.576-2.886,6.864-5.8,6.864a4.192,4.192,0,0,1-3.822-2.053h-.052l-.156,1.767h-3.354c.052-.832.1-2.366.1-3.8Zm3.952,13.078a2.893,2.893,0,0,0,.078.7,2.42,2.42,0,0,0,2.314,1.872c1.69,0,2.73-1.3,2.73-3.588,0-1.976-.884-3.536-2.73-3.536a2.449,2.449,0,0,0-2.314,1.951,3.275,3.275,0,0,0-.078.727Z" fill="#fff"/>
          <path id="Trazado_160282" data-name="Trazado 160282" d="M1009.351,2230.647c0,1.664.052,3.017.1,4.082h-3.432l-.182-1.794h-.078a4.533,4.533,0,0,1-3.978,2.08c-2.6,0-4.472-1.612-4.472-5.538v-7.462h3.952v6.838c0,1.846.6,2.964,2,2.964a2.192,2.192,0,0,0,2.132-2.235v-7.567h3.952Z" fill="#fff"/>
          <path id="Trazado_160283" data-name="Trazado 160283" d="M1012.5,2231.271a7.711,7.711,0,0,0,3.407.937c1.2,0,1.69-.391,1.69-1.04s-.391-.988-1.847-1.456c-2.652-.885-3.666-2.315-3.64-3.8,0-2.392,2.029-4.186,5.175-4.186a8.377,8.377,0,0,1,3.562.754l-.676,2.7a6.762,6.762,0,0,0-2.757-.7c-.962,0-1.507.39-1.507,1.014,0,.6.493.936,2.054,1.456,2.418.832,3.406,2.055,3.431,3.9,0,2.393-1.845,4.135-5.485,4.135a9,9,0,0,1-4.109-.91Z" fill="#fff"/>
          <path id="Trazado_160284" data-name="Trazado 160284" d="M1033.348,2234.391a9.04,9.04,0,0,1-3.536.6c-4.108,0-6.734-2.522-6.734-6.5,0-3.691,2.548-6.734,7.28-6.734a9.168,9.168,0,0,1,3.016.494l-.624,2.938a5.411,5.411,0,0,0-2.21-.389,3.55,3.55,0,0,0,.078,7.1,5.586,5.586,0,0,0,2.263-.416Z" fill="#fff"/>
          <path id="Trazado_160285" data-name="Trazado 160285" d="M1046.218,2231.662a16.471,16.471,0,0,0,.208,3.067h-3.562l-.234-1.273h-.078a4.58,4.58,0,0,1-3.64,1.559,3.9,3.9,0,0,1-4.109-3.9c0-3.3,2.965-4.861,7.463-4.861v-.156c0-.676-.364-1.639-2.314-1.639a7.435,7.435,0,0,0-3.51.936l-.728-2.522a10.435,10.435,0,0,1,4.94-1.144c4.238,0,5.564,2.5,5.564,5.487Zm-3.822-2.938c-2.08,0-3.692.494-3.692,2a1.419,1.419,0,0,0,1.56,1.508,2.183,2.183,0,0,0,2.054-1.456,2.829,2.829,0,0,0,.078-.676Z" fill="#fff"/>
          <path id="Trazado_160286" data-name="Trazado 160286" d="M1061.688,2216.243v14.69c0,1.43.052,2.939.1,3.8h-3.51l-.156-1.845h-.078a4.439,4.439,0,0,1-3.978,2.131c-3.017,0-5.434-2.574-5.434-6.526-.026-4.264,2.652-6.76,5.694-6.76a3.909,3.909,0,0,1,3.354,1.43h.052v-6.916Zm-3.952,11.181a3.441,3.441,0,0,0-.052-.729,2.352,2.352,0,0,0-2.314-1.924c-1.82,0-2.73,1.613-2.73,3.615,0,2.131,1.066,3.484,2.7,3.484a2.341,2.341,0,0,0,2.314-1.9,4.668,4.668,0,0,0,.078-.884Z" fill="#fff"/>
          <path id="Trazado_160287" data-name="Trazado 160287" d="M1070.71,2235.015a6.227,6.227,0,0,1-6.578-6.551c0-4.109,2.7-6.735,6.812-6.735a6.183,6.183,0,0,1,6.474,6.527,6.365,6.365,0,0,1-6.682,6.759Zm.1-2.833c1.56,0,2.522-1.535,2.522-3.823,0-1.872-.728-3.8-2.522-3.8-1.872,0-2.6,1.924-2.6,3.823,0,2.158.91,3.8,2.574,3.8Z" fill="#fff"/>
          <path id="Trazado_160288" data-name="Trazado 160288" d="M1079.836,2231.271a7.7,7.7,0,0,0,3.4.937c1.2,0,1.69-.391,1.69-1.04s-.389-.988-1.845-1.456c-2.653-.885-3.666-2.315-3.64-3.8,0-2.392,2.027-4.186,5.174-4.186a8.374,8.374,0,0,1,3.562.754l-.676,2.7a6.752,6.752,0,0,0-2.756-.7c-.962,0-1.509.39-1.509,1.014,0,.6.495.936,2.055,1.456,2.418.832,3.406,2.055,3.432,3.9,0,2.393-1.846,4.135-5.487,4.135a8.985,8.985,0,0,1-4.107-.91Z" fill="#fff"/>
        </g>
      </g>
      <g id="Grupo_71168" data-name="Grupo 71168">
        <g id="Grupo_71167" data-name="Grupo 71167">
          <path id="Trazado_160289" data-name="Trazado 160289" d="M723.607,2363.089a25.742,25.742,0,0,1,4.3-.315c2.708,0,4.472.5,5.816,1.512a6.233,6.233,0,0,1,2.393,5.333,7.233,7.233,0,0,1-2.33,5.731c-1.491,1.24-3.779,1.828-6.551,1.828a27.617,27.617,0,0,1-3.632-.21Zm3.191,11.527a6,6,0,0,0,1.113.063c2.918.021,4.829-1.575,4.829-4.955,0-2.94-1.722-4.494-4.493-4.494a6.879,6.879,0,0,0-1.449.126Z" fill="#fff"/>
          <path id="Trazado_160290" data-name="Trazado 160290" d="M739.776,2365.5a1.715,1.715,0,1,1,.022,0ZM738.2,2377.03v-10.266h3.191v10.266Z" fill="#fff"/>
          <path id="Trazado_160291" data-name="Trazado 160291" d="M743.934,2374.238a6.24,6.24,0,0,0,2.751.756c.966,0,1.365-.315,1.365-.84s-.315-.8-1.491-1.176c-2.142-.713-2.961-1.869-2.94-3.065,0-1.932,1.638-3.381,4.179-3.381a6.746,6.746,0,0,1,2.876.609l-.546,2.184a5.455,5.455,0,0,0-2.225-.567c-.777,0-1.218.315-1.218.819,0,.482.4.756,1.659,1.176,1.952.672,2.75,1.658,2.771,3.149,0,1.932-1.491,3.338-4.43,3.338a7.255,7.255,0,0,1-3.318-.734Z" fill="#fff"/>
          <path id="Trazado_160292" data-name="Trazado 160292" d="M756.638,2363.971v2.793h2.289v2.351h-2.289v3.716c0,1.239.315,1.806,1.26,1.806a3.926,3.926,0,0,0,.945-.084l.021,2.415a6.756,6.756,0,0,1-2.058.272,3.4,3.4,0,0,1-2.414-.882,4.25,4.25,0,0,1-.882-3.044v-4.2h-1.365v-2.351h1.365v-1.932Z" fill="#fff"/>
          <path id="Trazado_160293" data-name="Trazado 160293" d="M760.776,2370.143c0-1.511-.021-2.5-.084-3.379h2.73l.126,1.91h.084a2.99,2.99,0,0,1,2.771-2.142,3.175,3.175,0,0,1,.672.064v3a4.772,4.772,0,0,0-.861-.084,2.034,2.034,0,0,0-2.184,1.617,3.6,3.6,0,0,0-.062.714v5.185h-3.192Z" fill="#fff"/>
          <path id="Trazado_160294" data-name="Trazado 160294" d="M770.33,2365.5a1.716,1.716,0,1,1,.021,0Zm-1.574,11.526v-10.266h3.191v10.266Z" fill="#fff"/>
          <path id="Trazado_160295" data-name="Trazado 160295" d="M774.51,2362.1H777.7v5.879h.042a3.616,3.616,0,0,1,3.107-1.449c2.456,0,4.242,2.037,4.22,5.187,0,3.7-2.33,5.543-4.682,5.543a3.385,3.385,0,0,1-3.086-1.66h-.042l-.126,1.428h-2.708c.042-.672.084-1.91.084-3.065Zm3.191,10.561a2.344,2.344,0,0,0,.062.567,1.955,1.955,0,0,0,1.87,1.512c1.364,0,2.2-1.05,2.2-2.9,0-1.6-.714-2.856-2.2-2.856a1.978,1.978,0,0,0-1.87,1.574,2.663,2.663,0,0,0-.062.588Z" fill="#fff"/>
          <path id="Trazado_160296" data-name="Trazado 160296" d="M796.746,2373.734c0,1.344.042,2.436.084,3.3h-2.771l-.147-1.448h-.063a3.663,3.663,0,0,1-3.213,1.68c-2.1,0-3.611-1.3-3.611-4.473v-6.025h3.192v5.521c0,1.491.482,2.394,1.616,2.394a1.771,1.771,0,0,0,1.722-1.806v-6.109h3.191Z" fill="#fff"/>
          <path id="Trazado_160297" data-name="Trazado 160297" d="M807.015,2376.758a7.315,7.315,0,0,1-2.855.482c-3.317,0-5.438-2.036-5.438-5.249,0-2.981,2.058-5.437,5.879-5.437a7.406,7.406,0,0,1,2.436.4l-.5,2.373a4.368,4.368,0,0,0-1.785-.315,2.867,2.867,0,0,0,.063,5.732,4.5,4.5,0,0,0,1.826-.336Z" fill="#fff"/>
          <path id="Trazado_160298" data-name="Trazado 160298" d="M810.355,2365.5a1.715,1.715,0,1,1,.022,0Zm-1.574,11.526v-10.266h3.191v10.266Z" fill="#fff"/>
          <path id="Trazado_160299" data-name="Trazado 160299" d="M819.259,2377.262a5.029,5.029,0,0,1-5.312-5.291,5.131,5.131,0,0,1,5.5-5.439,4.993,4.993,0,0,1,5.228,5.271,5.141,5.141,0,0,1-5.4,5.459Zm.084-2.289c1.259,0,2.036-1.239,2.036-3.086,0-1.512-.588-3.066-2.036-3.066-1.512,0-2.1,1.554-2.1,3.086,0,1.743.735,3.066,2.079,3.066Zm3.317-12.682-2.562,3.191h-2.183l1.8-3.191Z" fill="#fff"/>
          <path id="Trazado_160300" data-name="Trazado 160300" d="M826.651,2370.039c0-1.281-.042-2.352-.084-3.275h2.772l.147,1.427h.063a3.688,3.688,0,0,1,3.17-1.659c2.1,0,3.674,1.407,3.674,4.431v6.067H833.2v-5.689c0-1.324-.462-2.226-1.616-2.226a1.752,1.752,0,0,0-1.638,1.2,2.3,2.3,0,0,0-.1.8v5.921h-3.192Z" fill="#fff"/>
          <path id="Trazado_160301" data-name="Trazado 160301" d="M723.481,2399.437a6.222,6.222,0,0,0,2.75.756c.966,0,1.365-.314,1.365-.84s-.315-.8-1.491-1.175c-2.141-.714-2.96-1.869-2.939-3.066,0-1.931,1.637-3.38,4.178-3.38a6.738,6.738,0,0,1,2.876.609l-.545,2.183a5.472,5.472,0,0,0-2.226-.566c-.777,0-1.218.314-1.218.818,0,.484.4.756,1.659,1.176,1.953.672,2.75,1.659,2.771,3.149,0,1.932-1.49,3.339-4.43,3.339a7.25,7.25,0,0,1-3.317-.735Z" fill="#fff"/>
          <path id="Trazado_160302" data-name="Trazado 160302" d="M735.072,2398.115c.1,1.322,1.407,1.952,2.9,1.952a8.461,8.461,0,0,0,2.835-.44l.42,2.162a9.709,9.709,0,0,1-3.716.651c-3.486,0-5.48-2.015-5.48-5.228,0-2.6,1.637-5.48,5.186-5.48,3.317,0,4.577,2.582,4.577,5.123a7.577,7.577,0,0,1-.105,1.26Zm3.758-2.183a1.85,1.85,0,0,0-1.784-2.08,2.114,2.114,0,0,0-1.995,2.08Z" fill="#fff"/>
          <path id="Trazado_160303" data-name="Trazado 160303" d="M743.7,2387.3H746.9v14.928H743.7Z" fill="#fff"/>
          <path id="Trazado_160304" data-name="Trazado 160304" d="M751.935,2398.115c.1,1.322,1.407,1.952,2.9,1.952a8.461,8.461,0,0,0,2.835-.44l.42,2.162a9.71,9.71,0,0,1-3.717.651c-3.485,0-5.48-2.015-5.48-5.228,0-2.6,1.638-5.48,5.186-5.48,3.318,0,4.578,2.582,4.578,5.123a7.585,7.585,0,0,1-.1,1.26Zm3.758-2.183a1.85,1.85,0,0,0-1.785-2.08,2.114,2.114,0,0,0-1.994,2.08Z" fill="#fff"/>
          <path id="Trazado_160305" data-name="Trazado 160305" d="M768.272,2401.957a7.3,7.3,0,0,1-2.856.483c-3.317,0-5.438-2.037-5.438-5.249,0-2.981,2.058-5.438,5.879-5.438a7.4,7.4,0,0,1,2.436.4l-.5,2.372a4.371,4.371,0,0,0-1.785-.314,2.867,2.867,0,0,0,.063,5.731,4.505,4.505,0,0,0,1.827-.336Z" fill="#fff"/>
          <path id="Trazado_160306" data-name="Trazado 160306" d="M773.942,2389.171v2.792h2.289v2.351h-2.289v3.717c0,1.238.315,1.806,1.26,1.806a3.976,3.976,0,0,0,.945-.084l.021,2.414a6.72,6.72,0,0,1-2.058.273,3.407,3.407,0,0,1-2.414-.882,4.253,4.253,0,0,1-.882-3.044v-4.2h-1.365v-2.351h1.365v-1.932Z" fill="#fff"/>
          <path id="Trazado_160307" data-name="Trazado 160307" d="M779.654,2390.7a1.716,1.716,0,1,1,.021,0Zm-1.575,11.527v-10.267h3.192v10.267Z" fill="#fff"/>
          <path id="Trazado_160308" data-name="Trazado 160308" d="M786.206,2391.963l1.386,4.766c.252.861.419,1.68.587,2.5h.063c.168-.839.336-1.616.567-2.5l1.323-4.766h3.359l-3.821,10.267h-3.191l-3.738-10.267Z" fill="#fff"/>
          <path id="Trazado_160309" data-name="Trazado 160309" d="M803.362,2399.753a13.293,13.293,0,0,0,.168,2.477h-2.877l-.189-1.029H800.4a3.7,3.7,0,0,1-2.939,1.26,3.148,3.148,0,0,1-3.318-3.15c0-2.666,2.394-3.925,6.026-3.925v-.126c0-.546-.294-1.324-1.868-1.324a6.019,6.019,0,0,0-2.835.756l-.588-2.036a8.432,8.432,0,0,1,3.989-.924c3.423,0,4.494,2.016,4.494,4.43Zm-3.087-2.373c-1.68,0-2.981.4-2.981,1.617a1.147,1.147,0,0,0,1.259,1.218,1.766,1.766,0,0,0,1.659-1.176,2.287,2.287,0,0,0,.063-.546Z" fill="#fff"/>
          <path id="Trazado_160310" data-name="Trazado 160310" d="M814.87,2402.461a5.03,5.03,0,0,1-5.312-5.291,5.131,5.131,0,0,1,5.5-5.438,4.992,4.992,0,0,1,5.228,5.27,5.14,5.14,0,0,1-5.4,5.459Zm.084-2.288c1.26,0,2.037-1.24,2.037-3.087,0-1.512-.588-3.066-2.037-3.066-1.512,0-2.1,1.554-2.1,3.087,0,1.742.736,3.066,2.079,3.066Z" fill="#fff"/>
          <path id="Trazado_160311" data-name="Trazado 160311" d="M725.958,2423.315c.1,1.323,1.407,1.952,2.9,1.952a8.449,8.449,0,0,0,2.834-.44l.42,2.162a9.686,9.686,0,0,1-3.716.651c-3.486,0-5.48-2.015-5.48-5.228,0-2.6,1.638-5.48,5.186-5.48,3.317,0,4.577,2.583,4.577,5.124a7.579,7.579,0,0,1-.1,1.259Zm3.759-2.183a1.85,1.85,0,0,0-1.785-2.079,2.113,2.113,0,0,0-1.995,2.079Z" fill="#fff"/>
          <path id="Trazado_160312" data-name="Trazado 160312" d="M736.773,2417.163l1.008,1.722c.294.525.567,1.029.84,1.533h.042c.273-.568.525-1.071.8-1.6l.9-1.659h3.464l-3.38,4.893,3.422,5.375h-3.611l-1.029-1.848a13.838,13.838,0,0,1-.8-1.575h-.063c-.252.567-.525,1.071-.777,1.575l-.966,1.848H733.12l3.485-5.249-3.4-5.019Z" fill="#fff"/>
          <path id="Trazado_160313" data-name="Trazado 160313" d="M752.48,2427.157a7.275,7.275,0,0,1-2.855.483c-3.318,0-5.438-2.037-5.438-5.249,0-2.981,2.058-5.438,5.879-5.438a7.406,7.406,0,0,1,2.436.4l-.5,2.372a4.386,4.386,0,0,0-1.785-.314,2.867,2.867,0,0,0,.063,5.731,4.514,4.514,0,0,0,1.826-.335Z" fill="#fff"/>
          <path id="Trazado_160314" data-name="Trazado 160314" d="M754.246,2412.5h3.191v14.929h-3.191Z" fill="#fff"/>
          <path id="Trazado_160315" data-name="Trazado 160315" d="M769.7,2424.134c0,1.343.042,2.435.084,3.3h-2.772l-.147-1.45H766.8a3.662,3.662,0,0,1-3.212,1.68c-2.1,0-3.612-1.3-3.612-4.472v-6.026h3.192v5.522c0,1.491.483,2.394,1.617,2.394a1.771,1.771,0,0,0,1.722-1.806v-6.11H769.7Z" fill="#fff"/>
          <path id="Trazado_160316" data-name="Trazado 160316" d="M772.242,2424.638a6.237,6.237,0,0,0,2.751.755c.966,0,1.365-.314,1.365-.839s-.315-.8-1.491-1.176c-2.142-.714-2.961-1.868-2.94-3.066,0-1.931,1.638-3.38,4.179-3.38a6.749,6.749,0,0,1,2.876.609l-.546,2.183a5.463,5.463,0,0,0-2.225-.566c-.777,0-1.218.315-1.218.818,0,.484.4.756,1.659,1.176,1.952.672,2.75,1.659,2.771,3.15,0,1.931-1.491,3.338-4.43,3.338a7.247,7.247,0,0,1-3.317-.735Z" fill="#fff"/>
          <path id="Trazado_160317" data-name="Trazado 160317" d="M782.952,2415.9a1.716,1.716,0,1,1,.021,0Zm-1.575,11.528v-10.268h3.192v10.268Z" fill="#fff"/>
          <path id="Trazado_160318" data-name="Trazado 160318" d="M789.5,2417.163l1.385,4.767c.252.86.42,1.679.588,2.5h.063c.168-.84.336-1.617.567-2.5l1.322-4.767h3.36l-3.821,10.268h-3.192l-3.737-10.268Z" fill="#fff"/>
          <path id="Trazado_160319" data-name="Trazado 160319" d="M806.659,2424.953a13.311,13.311,0,0,0,.168,2.478h-2.876l-.189-1.03H803.7a3.7,3.7,0,0,1-2.939,1.26,3.148,3.148,0,0,1-3.318-3.149c0-2.666,2.394-3.926,6.026-3.926v-.126c0-.546-.294-1.323-1.869-1.323a6.015,6.015,0,0,0-2.834.755l-.588-2.036a8.432,8.432,0,0,1,3.989-.924c3.423,0,4.493,2.016,4.493,4.43Zm-3.086-2.373c-1.68,0-2.981.4-2.981,1.617a1.146,1.146,0,0,0,1.259,1.218,1.765,1.765,0,0,0,1.659-1.176,2.289,2.289,0,0,0,.063-.546Z" fill="#fff"/>
        </g>
      </g>
      <rect id="Rectángulo_20210" data-name="Rectángulo 20210" width="174.484" height="107.13" rx="14.962" transform="translate(941.606 1987.478)" fill="#98d7f4"/>
      <g id="Grupo_71170" data-name="Grupo 71170">
        <g id="Grupo_71169" data-name="Grupo 71169">
          <path id="Trazado_160320" data-name="Trazado 160320" d="M965.694,2007.611a25.771,25.771,0,0,1,4.3-.315c2.708,0,4.472.5,5.816,1.511a6.237,6.237,0,0,1,2.393,5.333,7.237,7.237,0,0,1-2.33,5.732c-1.491,1.239-3.78,1.827-6.551,1.827a27.433,27.433,0,0,1-3.632-.21Zm3.191,11.527a5.993,5.993,0,0,0,1.113.063c2.918.021,4.829-1.575,4.829-4.956,0-2.939-1.722-4.493-4.493-4.493a6.8,6.8,0,0,0-1.449.126Z" fill="#073360"/>
          <path id="Trazado_160321" data-name="Trazado 160321" d="M981.863,2010.025a1.715,1.715,0,1,1,.022,0Zm-1.574,11.527v-10.267h3.191v10.267Z" fill="#073360"/>
          <path id="Trazado_160322" data-name="Trazado 160322" d="M986.021,2018.76a6.24,6.24,0,0,0,2.751.755c.966,0,1.364-.314,1.364-.839s-.314-.8-1.49-1.176c-2.142-.714-2.961-1.869-2.94-3.066,0-1.931,1.638-3.38,4.179-3.38a6.749,6.749,0,0,1,2.876.609l-.546,2.184a5.454,5.454,0,0,0-2.225-.567c-.777,0-1.218.315-1.218.819,0,.482.4.755,1.658,1.175,1.953.672,2.751,1.659,2.772,3.15,0,1.931-1.491,3.338-4.43,3.338a7.253,7.253,0,0,1-3.318-.735Z" fill="#073360"/>
          <path id="Trazado_160323" data-name="Trazado 160323" d="M998.725,2008.493v2.792h2.289v2.352h-2.289v3.716c0,1.239.315,1.806,1.26,1.806a3.925,3.925,0,0,0,.945-.084l.021,2.414a6.719,6.719,0,0,1-2.058.273,3.41,3.41,0,0,1-2.414-.882,4.252,4.252,0,0,1-.882-3.044v-4.2h-1.365v-2.352H995.6v-1.932Z" fill="#073360"/>
          <path id="Trazado_160324" data-name="Trazado 160324" d="M1002.863,2014.665c0-1.511-.021-2.5-.084-3.38h2.73l.126,1.911h.084a2.99,2.99,0,0,1,2.771-2.142,3.186,3.186,0,0,1,.672.063v3a4.772,4.772,0,0,0-.861-.084,2.033,2.033,0,0,0-2.184,1.616,3.612,3.612,0,0,0-.063.714v5.186h-3.191Z" fill="#073360"/>
          <path id="Trazado_160325" data-name="Trazado 160325" d="M1012.417,2010.025a1.716,1.716,0,1,1,.021,0Zm-1.574,11.527v-10.267h3.191v10.267Z" fill="#073360"/>
          <path id="Trazado_160326" data-name="Trazado 160326" d="M1016.6,2006.624h3.192v5.879h.042a3.615,3.615,0,0,1,3.107-1.449c2.456,0,4.241,2.037,4.22,5.186,0,3.7-2.33,5.543-4.682,5.543a3.387,3.387,0,0,1-3.087-1.659h-.042l-.126,1.428h-2.708c.042-.672.084-1.911.084-3.065Zm3.192,10.561a2.344,2.344,0,0,0,.062.567,1.955,1.955,0,0,0,1.869,1.512c1.365,0,2.205-1.05,2.205-2.9,0-1.6-.714-2.855-2.205-2.855a1.977,1.977,0,0,0-1.869,1.574,2.659,2.659,0,0,0-.062.588Z" fill="#073360"/>
          <path id="Trazado_160327" data-name="Trazado 160327" d="M1038.833,2018.256c0,1.343.042,2.435.084,3.3h-2.771L1036,2020.1h-.063a3.663,3.663,0,0,1-3.213,1.68c-2.1,0-3.611-1.3-3.611-4.472v-6.026h3.191v5.522c0,1.491.483,2.394,1.617,2.394a1.771,1.771,0,0,0,1.722-1.806v-6.11h3.191Z" fill="#073360"/>
          <path id="Trazado_160328" data-name="Trazado 160328" d="M1049.1,2021.279a7.294,7.294,0,0,1-2.855.483c-3.318,0-5.438-2.037-5.438-5.249,0-2.981,2.058-5.438,5.879-5.438a7.406,7.406,0,0,1,2.436.4l-.5,2.373a4.366,4.366,0,0,0-1.785-.315,2.867,2.867,0,0,0,.063,5.732,4.5,4.5,0,0,0,1.826-.336Z" fill="#073360"/>
          <path id="Trazado_160329" data-name="Trazado 160329" d="M1052.442,2010.025a1.715,1.715,0,1,1,.022,0Zm-1.574,11.527v-10.267h3.191v10.267Z" fill="#073360"/>
          <path id="Trazado_160330" data-name="Trazado 160330" d="M1061.345,2021.783a5.03,5.03,0,0,1-5.312-5.291,5.131,5.131,0,0,1,5.5-5.438,4.992,4.992,0,0,1,5.228,5.27,5.14,5.14,0,0,1-5.4,5.459Zm.084-2.288c1.26,0,2.037-1.239,2.037-3.087,0-1.512-.588-3.065-2.037-3.065-1.511,0-2.1,1.553-2.1,3.086,0,1.743.735,3.066,2.078,3.066Zm3.318-12.682-2.562,3.191H1060l1.805-3.191Z" fill="#073360"/>
          <path id="Trazado_160331" data-name="Trazado 160331" d="M1068.738,2014.56c0-1.28-.042-2.351-.084-3.275h2.772l.147,1.428h.063a3.686,3.686,0,0,1,3.17-1.659c2.1,0,3.674,1.407,3.674,4.43v6.068h-3.191v-5.69c0-1.323-.462-2.225-1.616-2.225a1.751,1.751,0,0,0-1.638,1.2,2.3,2.3,0,0,0-.106.8v5.921h-3.191Z" fill="#073360"/>
          <path id="Trazado_160332" data-name="Trazado 160332" d="M965.568,2043.959a6.234,6.234,0,0,0,2.75.756c.966,0,1.365-.315,1.365-.84s-.315-.8-1.491-1.175c-2.141-.714-2.96-1.869-2.939-3.066,0-1.931,1.637-3.38,4.178-3.38a6.744,6.744,0,0,1,2.876.609l-.546,2.183a5.444,5.444,0,0,0-2.225-.567c-.777,0-1.218.315-1.218.819,0,.483.4.756,1.659,1.176,1.952.672,2.75,1.659,2.771,3.149,0,1.932-1.49,3.339-4.43,3.339a7.25,7.25,0,0,1-3.317-.735Z" fill="#073360"/>
          <path id="Trazado_160333" data-name="Trazado 160333" d="M977.159,2042.637c.1,1.322,1.407,1.952,2.9,1.952a8.457,8.457,0,0,0,2.835-.441l.42,2.163a9.71,9.71,0,0,1-3.717.651c-3.485,0-5.479-2.016-5.479-5.228,0-2.6,1.637-5.48,5.186-5.48,3.317,0,4.577,2.582,4.577,5.123a7.584,7.584,0,0,1-.1,1.26Zm3.758-2.184a1.85,1.85,0,0,0-1.784-2.079,2.113,2.113,0,0,0-1.995,2.079Z" fill="#073360"/>
          <path id="Trazado_160334" data-name="Trazado 160334" d="M985.79,2031.824h3.192v14.928H985.79Z" fill="#073360"/>
          <path id="Trazado_160335" data-name="Trazado 160335" d="M994.022,2042.637c.105,1.322,1.406,1.952,2.9,1.952a8.457,8.457,0,0,0,2.835-.441l.42,2.163a9.71,9.71,0,0,1-3.717.651c-3.485,0-5.48-2.016-5.48-5.228,0-2.6,1.638-5.48,5.186-5.48,3.318,0,4.577,2.582,4.577,5.123a7.719,7.719,0,0,1-.1,1.26Zm3.758-2.184a1.85,1.85,0,0,0-1.785-2.079,2.113,2.113,0,0,0-1.994,2.079Z" fill="#073360"/>
          <path id="Trazado_160336" data-name="Trazado 160336" d="M1010.359,2046.479a7.3,7.3,0,0,1-2.856.483c-3.317,0-5.438-2.037-5.438-5.249,0-2.982,2.058-5.438,5.879-5.438a7.406,7.406,0,0,1,2.436.4l-.5,2.372a4.367,4.367,0,0,0-1.785-.315,2.867,2.867,0,0,0,.063,5.732,4.5,4.5,0,0,0,1.827-.336Z" fill="#073360"/>
          <path id="Trazado_160337" data-name="Trazado 160337" d="M1016.029,2033.692v2.793h2.289v2.351h-2.289v3.717c0,1.238.315,1.805,1.26,1.805a3.926,3.926,0,0,0,.945-.084l.021,2.415a6.715,6.715,0,0,1-2.058.273,3.411,3.411,0,0,1-2.415-.882,4.258,4.258,0,0,1-.881-3.044v-4.2h-1.365v-2.351h1.365v-1.932Z" fill="#073360"/>
          <path id="Trazado_160338" data-name="Trazado 160338" d="M1021.741,2035.225a1.716,1.716,0,1,1,.021,0Zm-1.575,11.527v-10.267h3.192v10.267Z" fill="#073360"/>
          <path id="Trazado_160339" data-name="Trazado 160339" d="M1028.293,2036.485l1.385,4.766c.252.861.42,1.68.588,2.5h.063c.168-.839.336-1.616.567-2.5l1.323-4.766h3.359l-3.821,10.267h-3.191l-3.738-10.267Z" fill="#073360"/>
          <path id="Trazado_160340" data-name="Trazado 160340" d="M1045.448,2044.274a13.31,13.31,0,0,0,.168,2.478h-2.876l-.189-1.029h-.063a3.7,3.7,0,0,1-2.939,1.26,3.148,3.148,0,0,1-3.318-3.15c0-2.666,2.394-3.926,6.026-3.926v-.126c0-.546-.294-1.323-1.869-1.323a6.005,6.005,0,0,0-2.834.756l-.588-2.036a8.433,8.433,0,0,1,3.989-.924c3.423,0,4.493,2.015,4.493,4.43Zm-3.086-2.372c-1.68,0-2.981.4-2.981,1.616a1.146,1.146,0,0,0,1.259,1.218,1.764,1.764,0,0,0,1.659-1.176,2.288,2.288,0,0,0,.063-.545Z" fill="#073360"/>
          <path id="Trazado_160341" data-name="Trazado 160341" d="M1056.957,2046.983a5.03,5.03,0,0,1-5.312-5.291,5.131,5.131,0,0,1,5.5-5.438,4.992,4.992,0,0,1,5.228,5.27,5.14,5.14,0,0,1-5.4,5.459Zm.084-2.289c1.26,0,2.037-1.239,2.037-3.086,0-1.512-.588-3.066-2.037-3.066-1.512,0-2.1,1.554-2.1,3.087,0,1.742.736,3.065,2.079,3.065Z" fill="#073360"/>
          <path id="Trazado_160342" data-name="Trazado 160342" d="M968.045,2067.837c.105,1.323,1.407,1.952,2.9,1.952a8.483,8.483,0,0,0,2.834-.44l.42,2.162a9.709,9.709,0,0,1-3.716.651c-3.486,0-5.48-2.016-5.48-5.228,0-2.6,1.637-5.48,5.186-5.48,3.317,0,4.577,2.582,4.577,5.123a7.582,7.582,0,0,1-.1,1.26Zm3.758-2.184a1.848,1.848,0,0,0-1.784-2.078,2.112,2.112,0,0,0-1.995,2.078Z" fill="#073360"/>
          <path id="Trazado_160343" data-name="Trazado 160343" d="M978.86,2061.685l1.008,1.722c.294.525.567,1.028.84,1.532h.042c.273-.567.525-1.07.8-1.595l.9-1.659h3.465l-3.381,4.892,3.423,5.375h-3.612l-1.028-1.848a13.824,13.824,0,0,1-.8-1.574h-.063c-.252.567-.525,1.07-.777,1.574l-.966,1.848h-3.506l3.485-5.249-3.4-5.018Z" fill="#073360"/>
          <path id="Trazado_160344" data-name="Trazado 160344" d="M994.567,2071.679a7.3,7.3,0,0,1-2.855.483c-3.318,0-5.438-2.037-5.438-5.249,0-2.981,2.058-5.438,5.879-5.438a7.406,7.406,0,0,1,2.436.4l-.5,2.372a4.37,4.37,0,0,0-1.785-.314,2.867,2.867,0,0,0,.063,5.731,4.51,4.51,0,0,0,1.826-.335Z" fill="#073360"/>
          <path id="Trazado_160345" data-name="Trazado 160345" d="M996.333,2057.024h3.191v14.928h-3.191Z" fill="#073360"/>
          <path id="Trazado_160346" data-name="Trazado 160346" d="M1011.787,2068.656c0,1.343.042,2.435.084,3.3H1009.1l-.147-1.449h-.063a3.662,3.662,0,0,1-3.212,1.68c-2.1,0-3.612-1.3-3.612-4.472v-6.026h3.192v5.522c0,1.491.483,2.393,1.617,2.393a1.769,1.769,0,0,0,1.721-1.805v-6.11h3.192Z" fill="#073360"/>
          <path id="Trazado_160347" data-name="Trazado 160347" d="M1014.329,2069.16a6.25,6.25,0,0,0,2.751.755c.966,0,1.365-.315,1.365-.839s-.315-.8-1.491-1.176c-2.142-.714-2.961-1.869-2.94-3.066,0-1.931,1.638-3.38,4.179-3.38a6.749,6.749,0,0,1,2.876.609l-.546,2.183a5.452,5.452,0,0,0-2.225-.566c-.777,0-1.218.315-1.218.818,0,.483.4.756,1.659,1.176,1.952.672,2.75,1.659,2.771,3.15,0,1.931-1.491,3.338-4.43,3.338a7.255,7.255,0,0,1-3.318-.735Z" fill="#073360"/>
          <path id="Trazado_160348" data-name="Trazado 160348" d="M1025.039,2060.425a1.716,1.716,0,1,1,.021,0Zm-1.575,11.527v-10.267h3.192v10.267Z" fill="#073360"/>
          <path id="Trazado_160349" data-name="Trazado 160349" d="M1031.591,2061.685l1.385,4.766c.252.861.42,1.68.588,2.5h.063c.168-.84.336-1.617.567-2.5l1.322-4.766h3.36l-3.822,10.267h-3.191l-3.737-10.267Z" fill="#073360"/>
          <path id="Trazado_160350" data-name="Trazado 160350" d="M1048.746,2069.474a13.309,13.309,0,0,0,.168,2.478h-2.876l-.189-1.029h-.063a3.7,3.7,0,0,1-2.94,1.26,3.147,3.147,0,0,1-3.317-3.149c0-2.667,2.394-3.927,6.026-3.927v-.126c0-.546-.294-1.322-1.869-1.322a6,6,0,0,0-2.834.755l-.588-2.036a8.432,8.432,0,0,1,3.989-.924c3.423,0,4.493,2.016,4.493,4.43Zm-3.086-2.372c-1.68,0-2.982.4-2.982,1.617a1.146,1.146,0,0,0,1.26,1.217,1.765,1.765,0,0,0,1.659-1.175,2.289,2.289,0,0,0,.063-.546Z" fill="#073360"/>
        </g>
      </g>
      <rect id="Rectángulo_20211" data-name="Rectángulo 20211" width="153.148" height="102.435" rx="14.962" transform="translate(465.411 1989.826)" fill="#e6e6e6"/>
      <g id="Grupo_71172" data-name="Grupo 71172">
        <g id="Grupo_71171" data-name="Grupo 71171">
          <path id="Trazado_160351" data-name="Trazado 160351" d="M485.614,2017.612a25.756,25.756,0,0,1,4.3-.315c2.708,0,4.472.5,5.816,1.511a6.237,6.237,0,0,1,2.393,5.333,7.237,7.237,0,0,1-2.33,5.732c-1.491,1.239-3.78,1.827-6.551,1.827a27.432,27.432,0,0,1-3.632-.21Zm3.191,11.527a6,6,0,0,0,1.113.063c2.918.021,4.829-1.575,4.829-4.956,0-2.939-1.722-4.493-4.493-4.493a6.811,6.811,0,0,0-1.449.126Z" fill="#073360"/>
          <path id="Trazado_160352" data-name="Trazado 160352" d="M501.783,2020.026a1.716,1.716,0,1,1,.021,0Zm-1.574,11.527v-10.267H503.4v10.267Z" fill="#073360"/>
          <path id="Trazado_160353" data-name="Trazado 160353" d="M505.941,2028.761a6.238,6.238,0,0,0,2.751.755c.965,0,1.364-.314,1.364-.839s-.315-.8-1.49-1.176c-2.142-.714-2.961-1.869-2.94-3.066,0-1.931,1.638-3.38,4.178-3.38a6.751,6.751,0,0,1,2.877.609l-.546,2.184a5.454,5.454,0,0,0-2.226-.567c-.776,0-1.217.315-1.217.818,0,.483.4.756,1.658,1.176,1.953.672,2.751,1.659,2.772,3.15,0,1.931-1.491,3.338-4.43,3.338a7.253,7.253,0,0,1-3.318-.735Z" fill="#073360"/>
          <path id="Trazado_160354" data-name="Trazado 160354" d="M518.645,2018.494v2.792h2.289v2.352h-2.289v3.716c0,1.239.315,1.806,1.26,1.806a3.925,3.925,0,0,0,.945-.084l.021,2.414a6.719,6.719,0,0,1-2.058.273,3.408,3.408,0,0,1-2.414-.882,4.252,4.252,0,0,1-.882-3.044v-4.2h-1.365v-2.352h1.365v-1.932Z" fill="#073360"/>
          <path id="Trazado_160355" data-name="Trazado 160355" d="M522.783,2024.666c0-1.511-.022-2.5-.084-3.38h2.729l.126,1.911h.084a2.992,2.992,0,0,1,2.772-2.142,3.186,3.186,0,0,1,.672.063v3a4.774,4.774,0,0,0-.862-.084,2.033,2.033,0,0,0-2.183,1.617,3.612,3.612,0,0,0-.063.714v5.186h-3.191Z" fill="#073360"/>
          <path id="Trazado_160356" data-name="Trazado 160356" d="M532.337,2020.026a1.716,1.716,0,1,1,.021,0Zm-1.575,11.527v-10.267h3.192v10.267Z" fill="#073360"/>
          <path id="Trazado_160357" data-name="Trazado 160357" d="M536.516,2016.625h3.192v5.879h.042a3.614,3.614,0,0,1,3.107-1.449c2.456,0,4.241,2.037,4.22,5.186,0,3.7-2.33,5.543-4.682,5.543a3.387,3.387,0,0,1-3.087-1.659h-.042l-.126,1.428h-2.708c.042-.672.084-1.911.084-3.065Zm3.192,10.561a2.346,2.346,0,0,0,.062.567,1.955,1.955,0,0,0,1.869,1.512c1.365,0,2.205-1.05,2.205-2.9,0-1.6-.714-2.855-2.205-2.855a1.977,1.977,0,0,0-1.869,1.574,2.657,2.657,0,0,0-.062.588Z" fill="#073360"/>
          <path id="Trazado_160358" data-name="Trazado 160358" d="M558.753,2028.257c0,1.343.042,2.435.084,3.3h-2.771l-.147-1.449h-.063a3.663,3.663,0,0,1-3.213,1.68c-2.1,0-3.611-1.3-3.611-4.472v-6.026h3.191v5.522c0,1.491.483,2.394,1.617,2.394a1.771,1.771,0,0,0,1.722-1.806v-6.11h3.191Z" fill="#073360"/>
          <path id="Trazado_160359" data-name="Trazado 160359" d="M569.022,2031.28a7.293,7.293,0,0,1-2.855.483c-3.318,0-5.438-2.037-5.438-5.249,0-2.981,2.058-5.438,5.879-5.438a7.406,7.406,0,0,1,2.436.4l-.5,2.373a4.371,4.371,0,0,0-1.785-.315,2.867,2.867,0,0,0,.063,5.732,4.5,4.5,0,0,0,1.826-.336Z" fill="#073360"/>
          <path id="Trazado_160360" data-name="Trazado 160360" d="M572.362,2020.026a1.715,1.715,0,1,1,.022,0Zm-1.574,11.527v-10.267h3.191v10.267Z" fill="#073360"/>
          <path id="Trazado_160361" data-name="Trazado 160361" d="M581.265,2031.784a5.03,5.03,0,0,1-5.312-5.291,5.131,5.131,0,0,1,5.5-5.438,4.992,4.992,0,0,1,5.228,5.27,5.14,5.14,0,0,1-5.4,5.459Zm.084-2.289c1.26,0,2.037-1.238,2.037-3.086,0-1.512-.588-3.065-2.037-3.065-1.511,0-2.1,1.553-2.1,3.086,0,1.743.735,3.065,2.078,3.065Zm3.318-12.681-2.562,3.191h-2.183l1.8-3.191Z" fill="#073360"/>
          <path id="Trazado_160362" data-name="Trazado 160362" d="M588.658,2024.561c0-1.28-.042-2.351-.084-3.275h2.771l.148,1.428h.062a3.689,3.689,0,0,1,3.171-1.659c2.1,0,3.674,1.407,3.674,4.43v6.068h-3.191v-5.69c0-1.323-.462-2.225-1.616-2.225a1.751,1.751,0,0,0-1.638,1.2,2.3,2.3,0,0,0-.106.8v5.921h-3.191Z" fill="#073360"/>
          <path id="Trazado_160363" data-name="Trazado 160363" d="M485.488,2053.96a6.232,6.232,0,0,0,2.75.756c.966,0,1.365-.315,1.365-.84s-.315-.8-1.491-1.175c-2.142-.714-2.96-1.869-2.939-3.066,0-1.932,1.637-3.38,4.178-3.38a6.744,6.744,0,0,1,2.876.609l-.546,2.183a5.447,5.447,0,0,0-2.225-.567c-.777,0-1.218.315-1.218.819,0,.483.4.756,1.659,1.176,1.952.672,2.75,1.659,2.771,3.149,0,1.932-1.491,3.339-4.43,3.339a7.25,7.25,0,0,1-3.317-.735Z" fill="#073360"/>
          <path id="Trazado_160364" data-name="Trazado 160364" d="M497.079,2052.638c.1,1.322,1.407,1.952,2.9,1.952a8.454,8.454,0,0,0,2.835-.441l.42,2.163a9.71,9.71,0,0,1-3.717.651c-3.485,0-5.48-2.016-5.48-5.228,0-2.6,1.638-5.48,5.186-5.48,3.318,0,4.578,2.582,4.578,5.123a7.581,7.581,0,0,1-.105,1.26Zm3.758-2.184a1.85,1.85,0,0,0-1.785-2.079,2.113,2.113,0,0,0-1.994,2.079Z" fill="#073360"/>
          <path id="Trazado_160365" data-name="Trazado 160365" d="M505.71,2041.825H508.9v14.928H505.71Z" fill="#073360"/>
          <path id="Trazado_160366" data-name="Trazado 160366" d="M513.942,2052.638c.1,1.322,1.406,1.952,2.9,1.952a8.454,8.454,0,0,0,2.835-.441l.42,2.163a9.71,9.71,0,0,1-3.717.651c-3.485,0-5.48-2.016-5.48-5.228,0-2.6,1.638-5.48,5.186-5.48,3.318,0,4.577,2.582,4.577,5.123a7.582,7.582,0,0,1-.1,1.26Zm3.758-2.184a1.85,1.85,0,0,0-1.785-2.079,2.113,2.113,0,0,0-1.994,2.079Z" fill="#073360"/>
          <path id="Trazado_160367" data-name="Trazado 160367" d="M530.279,2056.48a7.3,7.3,0,0,1-2.856.483c-3.317,0-5.438-2.037-5.438-5.249,0-2.982,2.058-5.438,5.879-5.438a7.4,7.4,0,0,1,2.436.4l-.5,2.372a4.363,4.363,0,0,0-1.785-.315,2.868,2.868,0,0,0,.063,5.732,4.5,4.5,0,0,0,1.827-.336Z" fill="#073360"/>
          <path id="Trazado_160368" data-name="Trazado 160368" d="M535.949,2043.693v2.793h2.289v2.351h-2.289v3.717c0,1.238.315,1.8,1.26,1.8a3.926,3.926,0,0,0,.945-.084l.021,2.415a6.719,6.719,0,0,1-2.058.273,3.411,3.411,0,0,1-2.415-.882,4.26,4.26,0,0,1-.881-3.045v-4.2h-1.365v-2.351h1.365v-1.932Z" fill="#073360"/>
          <path id="Trazado_160369" data-name="Trazado 160369" d="M541.661,2045.226a1.716,1.716,0,1,1,.021,0Zm-1.575,11.527v-10.267h3.192v10.267Z" fill="#073360"/>
          <path id="Trazado_160370" data-name="Trazado 160370" d="M548.213,2046.486l1.385,4.766c.252.861.42,1.68.588,2.5h.063c.168-.839.336-1.616.567-2.5l1.323-4.766H555.5l-3.821,10.267h-3.191l-3.738-10.267Z" fill="#073360"/>
          <path id="Trazado_160371" data-name="Trazado 160371" d="M565.368,2054.275a13.3,13.3,0,0,0,.168,2.478H562.66l-.189-1.029h-.063a3.7,3.7,0,0,1-2.939,1.26,3.148,3.148,0,0,1-3.318-3.15c0-2.666,2.394-3.926,6.026-3.926v-.126c0-.546-.294-1.323-1.869-1.323a6,6,0,0,0-2.834.756l-.588-2.036a8.432,8.432,0,0,1,3.989-.924c3.423,0,4.493,2.015,4.493,4.43Zm-3.086-2.372c-1.68,0-2.981.4-2.981,1.616a1.146,1.146,0,0,0,1.259,1.218,1.765,1.765,0,0,0,1.659-1.176,2.289,2.289,0,0,0,.063-.546Z" fill="#073360"/>
        </g>
      </g>
      <rect id="Rectángulo_20212" data-name="Rectángulo 20212" width="153.148" height="102.435" rx="14.962" transform="translate(287.206 2342.696)" fill="#e9d886"/>
      <g id="Grupo_71174" data-name="Grupo 71174">
        <g id="Grupo_71173" data-name="Grupo 71173">
          <path id="Trazado_160372" data-name="Trazado 160372" d="M307.409,2370.481a25.788,25.788,0,0,1,4.3-.314c2.709,0,4.472.5,5.816,1.512a6.232,6.232,0,0,1,2.394,5.333,7.236,7.236,0,0,1-2.331,5.731c-1.491,1.239-3.78,1.827-6.551,1.827a27.444,27.444,0,0,1-3.632-.21Zm3.191,11.528a6.1,6.1,0,0,0,1.113.062c2.919.022,4.829-1.574,4.829-4.955,0-2.939-1.722-4.493-4.493-4.493a6.811,6.811,0,0,0-1.449.126Z" fill="#073360"/>
          <path id="Trazado_160373" data-name="Trazado 160373" d="M323.578,2372.9a1.716,1.716,0,1,1,.021,0ZM322,2384.423v-10.267H325.2v10.267Z" fill="#073360"/>
          <path id="Trazado_160374" data-name="Trazado 160374" d="M327.736,2381.631a6.253,6.253,0,0,0,2.751.756c.966,0,1.364-.316,1.364-.84s-.314-.8-1.49-1.176c-2.142-.714-2.961-1.869-2.939-3.065,0-1.932,1.637-3.381,4.177-3.381a6.748,6.748,0,0,1,2.877.609l-.546,2.184a5.434,5.434,0,0,0-2.225-.568c-.778,0-1.218.316-1.218.82,0,.482.4.755,1.658,1.175,1.953.672,2.751,1.659,2.772,3.15,0,1.931-1.49,3.338-4.43,3.338a7.244,7.244,0,0,1-3.317-.735Z" fill="#073360"/>
          <path id="Trazado_160375" data-name="Trazado 160375" d="M340.44,2371.363v2.793h2.289v2.352H340.44v3.716c0,1.239.316,1.8,1.26,1.8a3.876,3.876,0,0,0,.945-.084l.021,2.415a6.719,6.719,0,0,1-2.058.273,3.41,3.41,0,0,1-2.414-.882,4.253,4.253,0,0,1-.882-3.044v-4.2h-1.365v-2.352h1.365v-1.932Z" fill="#073360"/>
          <path id="Trazado_160376" data-name="Trazado 160376" d="M344.578,2377.536c0-1.512-.021-2.5-.084-3.38h2.729l.126,1.91h.084a2.992,2.992,0,0,1,2.772-2.141,3.18,3.18,0,0,1,.672.063v3a4.772,4.772,0,0,0-.861-.084,2.034,2.034,0,0,0-2.184,1.617,3.612,3.612,0,0,0-.063.714v5.186h-3.191Z" fill="#073360"/>
          <path id="Trazado_160377" data-name="Trazado 160377" d="M354.133,2372.9a1.715,1.715,0,1,1,.02,0Zm-1.576,11.527v-10.267h3.192v10.267Z" fill="#073360"/>
          <path id="Trazado_160378" data-name="Trazado 160378" d="M358.311,2369.5H361.5v5.879h.042a3.615,3.615,0,0,1,3.107-1.449c2.457,0,4.241,2.037,4.22,5.186,0,3.7-2.33,5.543-4.682,5.543A3.386,3.386,0,0,1,361.1,2383h-.042l-.126,1.428h-2.709c.042-.672.084-1.91.084-3.066Zm3.192,10.561a2.348,2.348,0,0,0,.063.567,1.954,1.954,0,0,0,1.868,1.512c1.365,0,2.205-1.05,2.205-2.9,0-1.6-.714-2.855-2.205-2.855a1.976,1.976,0,0,0-1.868,1.574,2.654,2.654,0,0,0-.063.588Z" fill="#073360"/>
          <path id="Trazado_160379" data-name="Trazado 160379" d="M380.549,2381.127c0,1.344.042,2.435.084,3.3h-2.772l-.147-1.449h-.063a3.663,3.663,0,0,1-3.213,1.68c-2.1,0-3.611-1.3-3.611-4.472v-6.026h3.191v5.522c0,1.491.484,2.393,1.618,2.393a1.769,1.769,0,0,0,1.721-1.806v-6.109h3.192Z" fill="#073360"/>
          <path id="Trazado_160380" data-name="Trazado 160380" d="M390.818,2384.15a7.3,7.3,0,0,1-2.856.483c-3.317,0-5.438-2.036-5.438-5.249,0-2.982,2.058-5.438,5.879-5.438a7.406,7.406,0,0,1,2.436.4l-.5,2.373a4.365,4.365,0,0,0-1.785-.316,2.868,2.868,0,0,0,.063,5.733,4.505,4.505,0,0,0,1.827-.336Z" fill="#073360"/>
          <path id="Trazado_160381" data-name="Trazado 160381" d="M394.157,2372.9a1.716,1.716,0,1,1,.021,0Zm-1.574,11.527v-10.267h3.191v10.267Z" fill="#073360"/>
          <path id="Trazado_160382" data-name="Trazado 160382" d="M403.06,2384.654a5.028,5.028,0,0,1-5.311-5.291,5.131,5.131,0,0,1,5.5-5.438,4.992,4.992,0,0,1,5.227,5.27,5.14,5.14,0,0,1-5.395,5.459Zm.084-2.289c1.26,0,2.037-1.238,2.037-3.086,0-1.512-.587-3.065-2.037-3.065-1.511,0-2.1,1.553-2.1,3.086,0,1.743.735,3.065,2.079,3.065Zm3.318-12.682-2.562,3.192h-2.183l1.8-3.192Z" fill="#073360"/>
          <path id="Trazado_160383" data-name="Trazado 160383" d="M410.453,2377.432c0-1.282-.042-2.352-.084-3.276h2.772l.147,1.428h.063a3.688,3.688,0,0,1,3.17-1.659c2.1,0,3.675,1.407,3.675,4.43v6.068H417v-5.69c0-1.323-.462-2.225-1.617-2.225a1.751,1.751,0,0,0-1.637,1.2,2.3,2.3,0,0,0-.105.8v5.921h-3.192Z" fill="#073360"/>
          <path id="Trazado_160384" data-name="Trazado 160384" d="M308.879,2398.1a1.715,1.715,0,1,1,.02,0Zm-1.576,11.527v-10.268h3.192v10.268Z" fill="#073360"/>
          <path id="Trazado_160385" data-name="Trazado 160385" d="M313.057,2402.631c0-1.281-.042-2.352-.084-3.276h2.772l.147,1.428h.063a3.687,3.687,0,0,1,3.17-1.658c2.1,0,3.675,1.406,3.675,4.43v6.068h-3.192v-5.691c0-1.322-.462-2.225-1.617-2.225a1.752,1.752,0,0,0-1.637,1.2,2.3,2.3,0,0,0-.105.8v5.921h-3.192Z" fill="#073360"/>
          <path id="Trazado_160386" data-name="Trazado 160386" d="M328.806,2396.563v2.792H331.1v2.352h-2.289v3.717c0,1.238.316,1.8,1.26,1.8a3.915,3.915,0,0,0,.945-.084l.021,2.414a6.678,6.678,0,0,1-2.058.274,3.414,3.414,0,0,1-2.414-.882,4.254,4.254,0,0,1-.882-3.045v-4.2h-1.365v-2.352h1.365v-1.931Z" fill="#073360"/>
          <path id="Trazado_160387" data-name="Trazado 160387" d="M335.3,2405.508c.105,1.322,1.407,1.952,2.9,1.952a8.46,8.46,0,0,0,2.835-.441l.42,2.163a9.706,9.706,0,0,1-3.717.651c-3.485,0-5.479-2.016-5.479-5.229,0-2.6,1.637-5.479,5.185-5.479,3.318,0,4.577,2.582,4.577,5.123a7.624,7.624,0,0,1-.1,1.26Zm3.758-2.184a1.849,1.849,0,0,0-1.785-2.079,2.113,2.113,0,0,0-1.994,2.079Z" fill="#073360"/>
          <path id="Trazado_160388" data-name="Trazado 160388" d="M343.927,2402.631c0-1.281-.041-2.352-.083-3.276h2.771l.146,1.428h.064a3.686,3.686,0,0,1,3.17-1.658c2.1,0,3.675,1.406,3.675,4.43v6.068h-3.192v-5.691c0-1.322-.462-2.225-1.617-2.225a1.754,1.754,0,0,0-1.638,1.2,2.3,2.3,0,0,0-.1.8v5.921h-3.192Z" fill="#073360"/>
          <path id="Trazado_160389" data-name="Trazado 160389" d="M356.212,2406.83a6.24,6.24,0,0,0,2.751.756c.965,0,1.364-.315,1.364-.84s-.315-.8-1.49-1.176c-2.142-.714-2.961-1.868-2.94-3.065,0-1.932,1.638-3.38,4.178-3.38a6.767,6.767,0,0,1,2.877.608l-.546,2.184a5.456,5.456,0,0,0-2.226-.567c-.776,0-1.217.315-1.217.819,0,.483.4.756,1.658,1.176,1.953.671,2.751,1.659,2.772,3.149,0,1.932-1.491,3.339-4.43,3.339a7.264,7.264,0,0,1-3.318-.735Z" fill="#073360"/>
          <path id="Trazado_160390" data-name="Trazado 160390" d="M366.922,2398.1a1.715,1.715,0,1,1,.021,0Zm-1.575,11.527v-10.268h3.191v10.268Z" fill="#073360"/>
          <path id="Trazado_160391" data-name="Trazado 160391" d="M373.473,2399.355l1.386,4.767c.252.86.42,1.68.588,2.5h.063c.167-.84.335-1.616.567-2.5l1.322-4.767h3.36l-3.822,10.268h-3.191l-3.737-10.268Z" fill="#073360"/>
          <path id="Trazado_160392" data-name="Trazado 160392" d="M390.629,2407.145a13.309,13.309,0,0,0,.168,2.478h-2.876l-.189-1.029h-.063a3.7,3.7,0,0,1-2.94,1.259,3.147,3.147,0,0,1-3.317-3.149c0-2.666,2.393-3.926,6.026-3.926v-.126c0-.546-.294-1.323-1.869-1.323a6,6,0,0,0-2.834.756l-.588-2.036a8.414,8.414,0,0,1,3.989-.924c3.422,0,4.493,2.015,4.493,4.43Zm-3.086-2.373c-1.68,0-2.982.4-2.982,1.618a1.146,1.146,0,0,0,1.26,1.217,1.765,1.765,0,0,0,1.659-1.175,2.294,2.294,0,0,0,.063-.546Z" fill="#073360"/>
        </g>
      </g>
      <g id="Grupo_71175" data-name="Grupo 71175">
        <path id="Trazado_160393" data-name="Trazado 160393" d="M791.691,2061.6l25.669-3.887-9.41,24.579-9.4,24.583L782.3,2086.194,766.04,2065.5Z" fill="#3e8db2"/>
        <path id="Trazado_160394" data-name="Trazado 160394" d="M794.985,2078.783s-15.653-59.826-73.392-57.044-77.913,51.131-77.217,76.522" fill="none" stroke="#3e8db2" stroke-miterlimit="10" stroke-width="28"/>
      </g>
      <g id="Grupo_71176" data-name="Grupo 71176">
        <path id="Trazado_160395" data-name="Trazado 160395" d="M635.4,2457.385l25.669,3.887-9.41-24.579-9.4-24.583-16.257,20.686-16.258,20.692Z" fill="#3e8db2"/>
        <path id="Trazado_160396" data-name="Trazado 160396" d="M638.7,2440.206s-15.652,59.826-73.392,57.044-77.913-51.131-77.217-76.522" fill="none" stroke="#3e8db2" stroke-miterlimit="10" stroke-width="28"/>
      </g>
      <g id="Grupo_71177" data-name="Grupo 71177">
        <path id="Trazado_160397" data-name="Trazado 160397" d="M1084.62,2446.95l25.669,3.887-9.41-24.579-9.4-24.583-16.257,20.686-16.258,20.692Z" fill="#3e8db2"/>
        <path id="Trazado_160398" data-name="Trazado 160398" d="M1087.913,2429.771s-15.652,59.826-73.391,57.044-77.913-51.131-77.218-76.522" fill="none" stroke="#3e8db2" stroke-miterlimit="10" stroke-width="28"/>
      </g>
    </g>
  </g>
</svg>
