<svg xmlns="http://www.w3.org/2000/svg" width="480.14" height="190.846" viewBox="0 0 480.14 190.846">
  <g id="Grupo_80260" data-name="Grupo 80260" transform="translate(-285 -4076.062)">
    <path id="Trazado_163505" data-name="Trazado 163505" d="M185.065,6594.491h-9.288a15.729,15.729,0,0,1-15.73-15.73v-65.427a15.729,15.729,0,0,1,15.73-15.729h9.288Z" transform="translate(124.953 -2383.84)" fill="#0a4d8f"/>
    <rect id="Rectángulo_20376" data-name="Rectángulo 20376" width="230.224" height="190.846" rx="26.435" transform="translate(534.917 4076.062)" fill="#0d66bf"/>
    <g id="Grupo_71751" data-name="Grupo 71751" transform="translate(302.726 4085.078)">
      <path id="Trazado_163506" data-name="Trazado 163506" d="M623.5,6497.39c-.014-15.376-16.421-27.832-36.647-27.824l-374.646.145c-19.254.011-34.853,11.884-34.839,26.521l.109,116.866c.013,14.637,15.633,26.494,34.889,26.483l376.8-.146c19.032-.008,34.452-11.743,34.439-26.21Z" transform="translate(-177.372 -6469.566)" fill="#d9f0f9"/>
    </g>
    <path id="Trazado_163507" data-name="Trazado 163507" d="M160.047,6569.214v-46.028l39.487-22.8,39.486,22.8v46.028a12.955,12.955,0,0,1-12.955,12.954H173A12.955,12.955,0,0,1,160.047,6569.214Z" transform="translate(124.953 -2383.775)" fill="#0d66bf"/>
    <path id="Trazado_163508" data-name="Trazado 163508" d="M605.828,6527.3h16.123l8.061,13.963-8.061,13.963H605.828l-8.062-13.963Z" transform="translate(135.077 -2371.182)" fill="#0d66bf"/>
    <g id="Grupo_71752" data-name="Grupo 71752" transform="translate(375.784 4119.911)">
      <path id="Trazado_163509" data-name="Trazado 163509" d="M259.048,6501.214l.018.054a4.271,4.271,0,0,1-1.29,3.355,5.184,5.184,0,0,1-3.683,1.24,5.113,5.113,0,0,1-3.84-1.519,5.387,5.387,0,0,1-1.474-3.912v-2.6a5.479,5.479,0,0,1,1.439-3.911,4.9,4.9,0,0,1,3.742-1.529,5.431,5.431,0,0,1,3.795,1.246,4.261,4.261,0,0,1,1.33,3.4l-.017.053h-2.554a2.864,2.864,0,0,0-.621-1.983,2.483,2.483,0,0,0-1.933-.687,2.189,2.189,0,0,0-1.871.958,4.053,4.053,0,0,0-.692,2.438v2.614a3.939,3.939,0,0,0,.728,2.457,2.344,2.344,0,0,0,1.969.958,2.317,2.317,0,0,0,1.822-.662,2.871,2.871,0,0,0,.588-1.964Z" transform="translate(-248.779 -6491.458)"/>
      <path id="Trazado_163510" data-name="Trazado 163510" d="M260.055,6500.644a5.225,5.225,0,0,1,1.214-3.566,4.233,4.233,0,0,1,3.363-1.389,4.276,4.276,0,0,1,3.381,1.385,5.191,5.191,0,0,1,1.223,3.57v.189a5.2,5.2,0,0,1-1.218,3.575,4.813,4.813,0,0,1-6.744,0,5.206,5.206,0,0,1-1.22-3.575Zm2.617.184a4.221,4.221,0,0,0,.468,2.133,1.8,1.8,0,0,0,3-.005,4.2,4.2,0,0,0,.472-2.128v-.188a4.153,4.153,0,0,0-.477-2.109,1.613,1.613,0,0,0-1.5-.818,1.591,1.591,0,0,0-1.488.822,4.182,4.182,0,0,0-.473,2.1Z" transform="translate(-248.518 -6491.381)"/>
      <path id="Trazado_163511" data-name="Trazado 163511" d="M273.048,6495.869l.107,1.286a3.286,3.286,0,0,1,1.175-1.085,3.388,3.388,0,0,1,1.632-.381,2.967,2.967,0,0,1,1.6.415,2.539,2.539,0,0,1,1.007,1.249,3.375,3.375,0,0,1,1.169-1.222,3.172,3.172,0,0,1,1.69-.441,2.809,2.809,0,0,1,2.271.994,4.642,4.642,0,0,1,.832,3.026v5.89h-2.626v-5.913a2.474,2.474,0,0,0-.359-1.541,1.311,1.311,0,0,0-1.07-.433,1.831,1.831,0,0,0-.967.248,1.8,1.8,0,0,0-.652.689c0,.113,0,.212.008.293s.009.164.009.247v6.409h-2.616v-5.913a2.483,2.483,0,0,0-.36-1.529,1.306,1.306,0,0,0-1.079-.445,2.032,2.032,0,0,0-.93.2,1.771,1.771,0,0,0-.661.573v7.111h-2.617v-9.73Z" transform="translate(-248.274 -6491.381)"/>
      <path id="Trazado_163512" data-name="Trazado 163512" d="M294.961,6501a5.59,5.59,0,0,1-1,3.471,3.3,3.3,0,0,1-2.788,1.313,3.128,3.128,0,0,1-1.358-.282,2.785,2.785,0,0,1-1.016-.832v4.667h-2.617v-13.47h2.365l.152,1.151a3.132,3.132,0,0,1,1.039-.986,2.829,2.829,0,0,1,1.416-.346,3.238,3.238,0,0,1,2.805,1.412,6.3,6.3,0,0,1,1,3.714Zm-2.625-.2a4.714,4.714,0,0,0-.458-2.233,1.5,1.5,0,0,0-1.4-.856,1.986,1.986,0,0,0-1.012.243,1.745,1.745,0,0,0-.661.694v4.27a1.629,1.629,0,0,0,.661.63,2.226,2.226,0,0,0,1.029.216,1.509,1.509,0,0,0,1.4-.748,3.949,3.949,0,0,0,.445-2.025Z" transform="translate(-247.914 -6491.381)"/>
      <path id="Trazado_163513" data-name="Trazado 163513" d="M300.659,6505.787a4.382,4.382,0,0,1-3.363-1.348,4.826,4.826,0,0,1-1.258-3.427v-.359a5.326,5.326,0,0,1,1.192-3.57,4.441,4.441,0,0,1,6.253-.207,4.569,4.569,0,0,1,1.089,3.21v1.43h-5.809l-.018.053a2.527,2.527,0,0,0,.644,1.577,2.007,2.007,0,0,0,1.551.618,5.041,5.041,0,0,0,1.448-.176,6.584,6.584,0,0,0,1.258-.553l.711,1.623a4.87,4.87,0,0,1-1.556.808A6.739,6.739,0,0,1,300.659,6505.787Zm-.233-8.075a1.368,1.368,0,0,0-1.151.558,2.912,2.912,0,0,0-.522,1.465l.028.045H302v-.234a2.112,2.112,0,0,0-.391-1.336A1.414,1.414,0,0,0,300.426,6497.712Z" transform="translate(-247.686 -6491.381)"/>
      <path id="Trazado_163514" data-name="Trazado 163514" d="M309.014,6493.536v2.383h1.636v1.843h-1.636v4.955a1.146,1.146,0,0,0,.233.809.833.833,0,0,0,.629.243,2.262,2.262,0,0,0,.356-.024,2.706,2.706,0,0,0,.346-.076l.225,1.9a5.413,5.413,0,0,1-.774.2,4.765,4.765,0,0,1-.818.066,2.8,2.8,0,0,1-2.09-.746,3.27,3.27,0,0,1-.734-2.365v-4.963h-1.42v-1.843h1.42v-2.383Z" transform="translate(-247.479 -6491.431)"/>
      <path id="Trazado_163515" data-name="Trazado 163515" d="M316.471,6505.787a4.381,4.381,0,0,1-3.363-1.348,4.827,4.827,0,0,1-1.259-3.427v-.359a5.326,5.326,0,0,1,1.192-3.57,4.442,4.442,0,0,1,6.254-.207,4.569,4.569,0,0,1,1.088,3.21v1.43h-5.809l-.017.053a2.527,2.527,0,0,0,.644,1.577,2.007,2.007,0,0,0,1.55.618,5.036,5.036,0,0,0,1.448-.176,6.593,6.593,0,0,0,1.259-.553l.71,1.623a4.854,4.854,0,0,1-1.555.808A6.739,6.739,0,0,1,316.471,6505.787Zm-.234-8.075a1.371,1.371,0,0,0-1.151.558,2.9,2.9,0,0,0-.521,1.465l.027.045h3.22v-.234a2.112,2.112,0,0,0-.391-1.336A1.416,1.416,0,0,0,316.237,6497.712Z" transform="translate(-247.32 -6491.381)"/>
      <path id="Trazado_163516" data-name="Trazado 163516" d="M324.086,6495.869l.117,1.394a3.558,3.558,0,0,1,1.2-1.159,3.1,3.1,0,0,1,1.592-.415,2.925,2.925,0,0,1,2.3.927,4.273,4.273,0,0,1,.827,2.9v6.08h-2.635v-6.083a1.987,1.987,0,0,0-.395-1.394,1.6,1.6,0,0,0-1.2-.409,2.021,2.021,0,0,0-.935.212,1.917,1.917,0,0,0-.693.6v7.075H321.64v-9.73Z" transform="translate(-247.094 -6491.381)"/>
      <path id="Trazado_163517" data-name="Trazado 163517" d="M335.937,6503.764a1.55,1.55,0,0,0,1.123-.407,1.433,1.433,0,0,0,.423-1.085h2.384l.027.054a3.028,3.028,0,0,1-1.11,2.468,4.685,4.685,0,0,1-6.2-.381,5.246,5.246,0,0,1-1.178-3.534v-.271a5.28,5.28,0,0,1,1.174-3.534,4.147,4.147,0,0,1,3.35-1.385,4.087,4.087,0,0,1,2.9,1.025,3.4,3.4,0,0,1,1.065,2.7l-.018.054h-2.392a1.9,1.9,0,0,0-.413-1.256,1.405,1.405,0,0,0-1.142-.5,1.525,1.525,0,0,0-1.47.809,4.446,4.446,0,0,0-.428,2.083v.269a4.439,4.439,0,0,0,.428,2.1A1.539,1.539,0,0,0,335.937,6503.764Z" transform="translate(-246.868 -6491.381)"/>
      <path id="Trazado_163518" data-name="Trazado 163518" d="M343.918,6493.634h-2.625v-1.969h2.625Zm0,12.059h-2.625v-9.73h2.625Z" transform="translate(-246.639 -6491.475)"/>
      <path id="Trazado_163519" data-name="Trazado 163519" d="M351.691,6505.6a5.565,5.565,0,0,1-.248-.7,4.89,4.89,0,0,1-.148-.755,3.628,3.628,0,0,1-1.065,1.177,2.661,2.661,0,0,1-1.579.467,3.282,3.282,0,0,1-2.356-.786,2.82,2.82,0,0,1-.827-2.146,2.569,2.569,0,0,1,1.1-2.217,5.5,5.5,0,0,1,3.214-.786h1.466v-.773a1.515,1.515,0,0,0-.368-1.088,1.437,1.437,0,0,0-1.089-.387,1.42,1.42,0,0,0-.984.311,1.094,1.094,0,0,0-.347.858l-2.535-.01-.009-.054a2.472,2.472,0,0,1,1.07-2.126,4.665,4.665,0,0,1,2.976-.9,4.347,4.347,0,0,1,2.833.886,3.066,3.066,0,0,1,1.088,2.521v4.021a7.542,7.542,0,0,0,.1,1.286,6.385,6.385,0,0,0,.327,1.2Zm-2.4-1.753a2.257,2.257,0,0,0,1.232-.342,1.781,1.781,0,0,0,.728-.791v-1.376h-1.466a1.757,1.757,0,0,0-1.268.417,1.359,1.359,0,0,0-.432,1.012,1.01,1.01,0,0,0,.324.783A1.255,1.255,0,0,0,349.289,6503.845Z" transform="translate(-246.543 -6491.381)"/>
      <path id="Trazado_163520" data-name="Trazado 163520" d="M368.9,6501a5.583,5.583,0,0,1-1,3.471,3.3,3.3,0,0,1-2.787,1.313,3.125,3.125,0,0,1-1.358-.282,2.784,2.784,0,0,1-1.016-.832v4.667h-2.617v-13.47h2.364l.153,1.151a3.139,3.139,0,0,1,1.038-.986,2.834,2.834,0,0,1,1.416-.346,3.235,3.235,0,0,1,2.805,1.412,6.3,6.3,0,0,1,1,3.714Zm-2.625-.2a4.714,4.714,0,0,0-.459-2.233,1.493,1.493,0,0,0-1.4-.856,1.983,1.983,0,0,0-1.011.243,1.745,1.745,0,0,0-.661.694v4.27a1.629,1.629,0,0,0,.661.63,2.22,2.22,0,0,0,1.029.216,1.509,1.509,0,0,0,1.4-.748,3.95,3.95,0,0,0,.445-2.025Z" transform="translate(-246.204 -6491.381)"/>
      <path id="Trazado_163521" data-name="Trazado 163521" d="M374.594,6505.787a4.381,4.381,0,0,1-3.363-1.348,4.827,4.827,0,0,1-1.259-3.427v-.359a5.326,5.326,0,0,1,1.192-3.57,4.442,4.442,0,0,1,6.254-.207,4.568,4.568,0,0,1,1.088,3.21v1.43H372.7l-.018.053a2.527,2.527,0,0,0,.644,1.577,2.007,2.007,0,0,0,1.55.618,5.044,5.044,0,0,0,1.449-.176,6.585,6.585,0,0,0,1.258-.553l.71,1.623a4.853,4.853,0,0,1-1.555.808A6.738,6.738,0,0,1,374.594,6505.787Zm-.233-8.075a1.368,1.368,0,0,0-1.151.558,2.893,2.893,0,0,0-.522,1.465l.027.045h3.22v-.234a2.112,2.112,0,0,0-.391-1.336A1.415,1.415,0,0,0,374.36,6497.712Z" transform="translate(-245.976 -6491.381)"/>
      <path id="Trazado_163522" data-name="Trazado 163522" d="M384.923,6498.125l-.962-.026a1.753,1.753,0,0,0-.962.242,1.534,1.534,0,0,0-.576.684v6.573h-2.617v-9.73h2.437l.117,1.438a3.076,3.076,0,0,1,.887-1.191,1.971,1.971,0,0,1,1.253-.428,1.891,1.891,0,0,1,.365.033c.111.02.223.045.337.075Z" transform="translate(-245.749 -6491.381)"/>
      <path id="Trazado_163523" data-name="Trazado 163523" d="M387.02,6505.7v-7.887h-1.448v-1.843h1.448v-1.079a3.29,3.29,0,0,1,.944-2.521,3.724,3.724,0,0,1,2.653-.887,5.087,5.087,0,0,1,.679.049c.23.034.483.08.759.141l-.225,1.95c-.143-.023-.282-.045-.417-.062a3.6,3.6,0,0,0-.473-.028,1.261,1.261,0,0,0-.966.352,1.42,1.42,0,0,0-.329,1.007v1.079h1.934v1.843h-1.934v7.887Z" transform="translate(-245.615 -6491.479)"/>
      <path id="Trazado_163524" data-name="Trazado 163524" d="M397.068,6505.787a4.381,4.381,0,0,1-3.363-1.348,4.822,4.822,0,0,1-1.259-3.427v-.359a5.326,5.326,0,0,1,1.192-3.57,4.441,4.441,0,0,1,6.253-.207,4.569,4.569,0,0,1,1.089,3.21v1.43H395.17l-.017.053a2.521,2.521,0,0,0,.643,1.577,2.009,2.009,0,0,0,1.551.618,5.042,5.042,0,0,0,1.448-.176,6.621,6.621,0,0,0,1.259-.553l.71,1.623a4.871,4.871,0,0,1-1.556.808A6.736,6.736,0,0,1,397.068,6505.787Zm-.234-8.075a1.371,1.371,0,0,0-1.151.558,2.912,2.912,0,0,0-.522,1.465l.028.045h3.219v-.234a2.112,2.112,0,0,0-.391-1.336A1.413,1.413,0,0,0,396.833,6497.712Z" transform="translate(-245.456 -6491.381)"/>
      <path id="Trazado_163525" data-name="Trazado 163525" d="M406.372,6503.764a1.552,1.552,0,0,0,1.124-.407,1.437,1.437,0,0,0,.423-1.085H410.3l.027.054a3.023,3.023,0,0,1-1.11,2.468,4.684,4.684,0,0,1-6.2-.381,5.241,5.241,0,0,1-1.178-3.534v-.271a5.274,5.274,0,0,1,1.174-3.534,4.146,4.146,0,0,1,3.349-1.385,4.086,4.086,0,0,1,2.9,1.025,3.4,3.4,0,0,1,1.065,2.7l-.017.054h-2.392a1.909,1.909,0,0,0-.413-1.256,1.409,1.409,0,0,0-1.143-.5,1.524,1.524,0,0,0-1.469.809,4.446,4.446,0,0,0-.428,2.083v.269a4.439,4.439,0,0,0,.428,2.1A1.537,1.537,0,0,0,406.372,6503.764Z" transform="translate(-245.239 -6491.381)"/>
      <path id="Trazado_163526" data-name="Trazado 163526" d="M414.737,6493.536v2.383h1.637v1.843h-1.637v4.955a1.141,1.141,0,0,0,.234.809.831.831,0,0,0,.629.243,2.262,2.262,0,0,0,.356-.024,2.743,2.743,0,0,0,.346-.076l.224,1.9a5.38,5.38,0,0,1-.773.2,4.754,4.754,0,0,1-.818.066,2.8,2.8,0,0,1-2.09-.746,3.27,3.27,0,0,1-.734-2.365v-4.963h-1.421v-1.843h1.421v-2.383Z" transform="translate(-245.034 -6491.431)"/>
      <path id="Trazado_163527" data-name="Trazado 163527" d="M423.6,6505.6a5.565,5.565,0,0,1-.248-.7,4.893,4.893,0,0,1-.148-.755,3.617,3.617,0,0,1-1.065,1.177,2.661,2.661,0,0,1-1.579.467,3.282,3.282,0,0,1-2.356-.786,2.82,2.82,0,0,1-.827-2.146,2.569,2.569,0,0,1,1.1-2.217,5.507,5.507,0,0,1,3.214-.786h1.466v-.773a1.514,1.514,0,0,0-.368-1.088,1.436,1.436,0,0,0-1.089-.387,1.42,1.42,0,0,0-.984.311,1.094,1.094,0,0,0-.347.858l-2.535-.01-.009-.054a2.472,2.472,0,0,1,1.07-2.126,4.665,4.665,0,0,1,2.976-.9,4.347,4.347,0,0,1,2.833.886,3.066,3.066,0,0,1,1.088,2.521v4.021a7.541,7.541,0,0,0,.1,1.286,6.46,6.46,0,0,0,.327,1.2Zm-2.4-1.753a2.254,2.254,0,0,0,1.232-.342,1.781,1.781,0,0,0,.728-.791v-1.376H421.7a1.757,1.757,0,0,0-1.268.417,1.359,1.359,0,0,0-.432,1.012,1.01,1.01,0,0,0,.324.783A1.257,1.257,0,0,0,421.2,6503.845Z" transform="translate(-244.88 -6491.381)"/>
      <path id="Trazado_163528" data-name="Trazado 163528" d="M430.455,6497.728H427.83v-2.3h2.625Zm0,7.877H427.83v-2.3h2.625Z" transform="translate(-244.638 -6491.388)"/>
      <path id="Trazado_163529" data-name="Trazado 163529" d="M441.456,6505.787a4.1,4.1,0,0,1-3.232-1.354,5.092,5.092,0,0,1-1.2-3.51v-.4a4.989,4.989,0,0,1,1.237-3.457,3.811,3.811,0,0,1,2.927-1.381,3.689,3.689,0,0,1,2.976,1.187,4.73,4.73,0,0,1,1.007,3.166v1.105h-6.313l-.027.045a3.825,3.825,0,0,0,.71,2.3,2.265,2.265,0,0,0,1.915.9,4.479,4.479,0,0,0,1.579-.256,3.645,3.645,0,0,0,1.174-.706l.692,1.151a4.1,4.1,0,0,1-1.375.861A5.582,5.582,0,0,1,441.456,6505.787Zm-.269-8.7a1.922,1.922,0,0,0-1.52.749,3.541,3.541,0,0,0-.773,1.877l.018.045H443.4v-.233a2.7,2.7,0,0,0-.558-1.738A1.989,1.989,0,0,0,441.187,6497.083Z" transform="translate(-244.425 -6491.381)"/>
      <path id="Trazado_163530" data-name="Trazado 163530" d="M452.592,6503.009a1.206,1.206,0,0,0-.445-.963,4.184,4.184,0,0,0-1.686-.656,7.1,7.1,0,0,1-2.666-1.047,2.116,2.116,0,0,1-.9-1.8,2.536,2.536,0,0,1,1.008-2.02,4.582,4.582,0,0,1,5.328.037,2.578,2.578,0,0,1,.957,2.123l-.017.054h-1.691a1.548,1.548,0,0,0-.534-1.146,1.974,1.974,0,0,0-1.417-.509,2.043,2.043,0,0,0-1.4.414,1.3,1.3,0,0,0-.458,1,1.114,1.114,0,0,0,.4.907,4.192,4.192,0,0,0,1.646.594,7.107,7.107,0,0,1,2.742,1.074,2.166,2.166,0,0,1,.9,1.821,2.513,2.513,0,0,1-1.047,2.1,4.387,4.387,0,0,1-2.739.8,4.277,4.277,0,0,1-2.931-.943,2.7,2.7,0,0,1-1.016-2.2l.017-.053h1.691a1.623,1.623,0,0,0,.7,1.372,2.72,2.72,0,0,0,1.538.434,2.51,2.51,0,0,0,1.479-.381A1.179,1.179,0,0,0,452.592,6503.009Z" transform="translate(-244.203 -6491.381)"/>
      <path id="Trazado_163531" data-name="Trazado 163531" d="M466.8,6505.6c-.06-.293-.106-.554-.139-.777a5.609,5.609,0,0,1-.058-.679,4.144,4.144,0,0,1-1.29,1.173,3.3,3.3,0,0,1-1.714.471,3.173,3.173,0,0,1-2.315-.778,2.86,2.86,0,0,1-.8-2.144,2.513,2.513,0,0,1,1.13-2.181,5.268,5.268,0,0,1,3.061-.787h1.925v-.962a1.789,1.789,0,0,0-.522-1.354,2.055,2.055,0,0,0-1.475-.5,2.127,2.127,0,0,0-1.388.437,1.311,1.311,0,0,0-.535,1.047h-1.691l-.017-.054a2.354,2.354,0,0,1,1-1.942,4.116,4.116,0,0,1,2.729-.882,4.018,4.018,0,0,1,2.662.842,2.977,2.977,0,0,1,1.007,2.422v4.685a9.141,9.141,0,0,0,.054,1.007,5.159,5.159,0,0,0,.2.954Zm-2.94-1.3a3.168,3.168,0,0,0,1.735-.493,2.35,2.35,0,0,0,1.008-1.129v-1.578h-1.988a2.584,2.584,0,0,0-1.713.537,1.609,1.609,0,0,0-.644,1.265,1.327,1.327,0,0,0,.405,1.022A1.7,1.7,0,0,0,463.862,6504.294Z" transform="translate(-243.882 -6491.381)"/>
      <path id="Trazado_163532" data-name="Trazado 163532" d="M470.316,6500.914a6.486,6.486,0,0,1,1-3.786,3.23,3.23,0,0,1,2.81-1.439,3.449,3.449,0,0,1,1.564.337,3.105,3.105,0,0,1,1.142.985l.261-1.142h1.349v13.47h-1.771v-4.658a3.04,3.04,0,0,1-1.106.827,3.6,3.6,0,0,1-1.457.278,3.335,3.335,0,0,1-2.787-1.289,5.362,5.362,0,0,1-1.008-3.4Zm1.772.183a4.243,4.243,0,0,0,.607,2.386,2.088,2.088,0,0,0,1.866.91,2.3,2.3,0,0,0,1.245-.323,2.649,2.649,0,0,0,.868-.906v-4.9a2.669,2.669,0,0,0-.868-.863,2.319,2.319,0,0,0-1.228-.314,2.02,2.02,0,0,0-1.88,1.073,5.523,5.523,0,0,0-.611,2.753Z" transform="translate(-243.655 -6491.381)"/>
      <path id="Trazado_163533" data-name="Trazado 163533" d="M487.12,6504.156a3.292,3.292,0,0,1-1.178,1.2,3.22,3.22,0,0,1-1.664.422,3.127,3.127,0,0,1-2.482-1.016,4.718,4.718,0,0,1-.89-3.165v-5.738h1.771v5.755a3.622,3.622,0,0,0,.459,2.14,1.7,1.7,0,0,0,1.429.584,2.915,2.915,0,0,0,1.561-.382,2.386,2.386,0,0,0,.93-1.083v-7.015h1.771v9.73h-1.592Z" transform="translate(-243.41 -6491.377)"/>
      <path id="Trazado_163534" data-name="Trazado 163534" d="M495.219,6505.787a4.1,4.1,0,0,1-3.232-1.354,5.087,5.087,0,0,1-1.2-3.51v-.4a4.985,4.985,0,0,1,1.237-3.457,3.81,3.81,0,0,1,2.926-1.381,3.688,3.688,0,0,1,2.976,1.187,4.725,4.725,0,0,1,1.008,3.166v1.105H492.62l-.028.045a3.832,3.832,0,0,0,.711,2.3,2.265,2.265,0,0,0,1.915.9,4.483,4.483,0,0,0,1.579-.256,3.64,3.64,0,0,0,1.173-.706l.693,1.151a4.1,4.1,0,0,1-1.376.861A5.573,5.573,0,0,1,495.219,6505.787Zm-.27-8.7a1.922,1.922,0,0,0-1.519.749,3.541,3.541,0,0,0-.773,1.877l.018.045h4.486v-.233a2.694,2.694,0,0,0-.558-1.738A1.986,1.986,0,0,0,494.949,6497.083Z" transform="translate(-243.182 -6491.381)"/>
      <path id="Trazado_163535" data-name="Trazado 163535" d="M502.6,6505.692h-1.771v-14.028H502.6Z" transform="translate(-242.949 -6491.475)"/>
      <path id="Trazado_163536" data-name="Trazado 163536" d="M507.138,6505.692h-1.771v-14.028h1.771Z" transform="translate(-242.844 -6491.475)"/>
      <path id="Trazado_163537" data-name="Trazado 163537" d="M515.749,6505.6c-.059-.293-.105-.554-.139-.777a5.807,5.807,0,0,1-.058-.679,4.121,4.121,0,0,1-1.29,1.173,3.3,3.3,0,0,1-1.714.471,3.168,3.168,0,0,1-2.314-.778,2.856,2.856,0,0,1-.8-2.144,2.513,2.513,0,0,1,1.129-2.181,5.268,5.268,0,0,1,3.061-.787h1.925v-.962a1.789,1.789,0,0,0-.522-1.354,2.052,2.052,0,0,0-1.474-.5,2.128,2.128,0,0,0-1.389.437,1.314,1.314,0,0,0-.535,1.047h-1.691l-.017-.054a2.357,2.357,0,0,1,1-1.942,4.118,4.118,0,0,1,2.729-.882,4.016,4.016,0,0,1,2.662.842,2.977,2.977,0,0,1,1.007,2.422v4.685a9.126,9.126,0,0,0,.054,1.007,5.237,5.237,0,0,0,.2.954Zm-2.94-1.3a3.165,3.165,0,0,0,1.735-.493,2.345,2.345,0,0,0,1.008-1.129v-1.578h-1.988a2.581,2.581,0,0,0-1.712.537,1.609,1.609,0,0,0-.643,1.265,1.33,1.33,0,0,0,.4,1.022A1.7,1.7,0,0,0,512.808,6504.294Z" transform="translate(-242.75 -6491.381)"/>
      <path id="Trazado_163538" data-name="Trazado 163538" d="M528.178,6505.787a4.1,4.1,0,0,1-3.232-1.354,5.087,5.087,0,0,1-1.2-3.51v-.4a4.985,4.985,0,0,1,1.237-3.457,3.81,3.81,0,0,1,2.926-1.381,3.688,3.688,0,0,1,2.976,1.187,4.725,4.725,0,0,1,1.008,3.166v1.105h-6.313l-.028.045a3.832,3.832,0,0,0,.711,2.3,2.266,2.266,0,0,0,1.915.9,4.482,4.482,0,0,0,1.579-.256,3.64,3.64,0,0,0,1.173-.706l.693,1.151a4.1,4.1,0,0,1-1.376.861A5.573,5.573,0,0,1,528.178,6505.787Zm-.27-8.7a1.922,1.922,0,0,0-1.519.749,3.541,3.541,0,0,0-.773,1.877l.018.045h4.487v-.233a2.7,2.7,0,0,0-.558-1.738A1.986,1.986,0,0,0,527.908,6497.083Z" transform="translate(-242.419 -6491.381)"/>
      <path id="Trazado_163539" data-name="Trazado 163539" d="M535.233,6495.869l.126,1.447a3.544,3.544,0,0,1,1.219-1.2,3.253,3.253,0,0,1,1.668-.428,3.177,3.177,0,0,1,2.437.922,4.045,4.045,0,0,1,.863,2.846v6.142h-1.771v-6.106a2.631,2.631,0,0,0-.508-1.826,2.035,2.035,0,0,0-1.551-.539,2.494,2.494,0,0,0-1.353.368,2.688,2.688,0,0,0-.94,1.007v7.1H533.65v-9.73Z" transform="translate(-242.19 -6491.381)"/>
      <path id="Trazado_163540" data-name="Trazado 163540" d="M550.266,6505.692h-1.771v-14.028h1.771Z" transform="translate(-241.847 -6491.475)"/>
      <path id="Trazado_163541" data-name="Trazado 163541" d="M558.877,6505.6c-.059-.293-.105-.554-.139-.777a5.807,5.807,0,0,1-.058-.679,4.121,4.121,0,0,1-1.29,1.173,3.3,3.3,0,0,1-1.714.471,3.169,3.169,0,0,1-2.314-.778,2.856,2.856,0,0,1-.8-2.144,2.513,2.513,0,0,1,1.13-2.181,5.268,5.268,0,0,1,3.061-.787h1.924v-.962a1.789,1.789,0,0,0-.522-1.354,2.052,2.052,0,0,0-1.474-.5,2.128,2.128,0,0,0-1.389.437,1.314,1.314,0,0,0-.535,1.047h-1.691l-.017-.054a2.356,2.356,0,0,1,1-1.942,4.116,4.116,0,0,1,2.729-.882,4.016,4.016,0,0,1,2.662.842,2.977,2.977,0,0,1,1.007,2.422v4.685a9.126,9.126,0,0,0,.054,1.007,5.237,5.237,0,0,0,.2.954Zm-2.94-1.3a3.168,3.168,0,0,0,1.735-.493,2.35,2.35,0,0,0,1.008-1.129v-1.578h-1.988a2.581,2.581,0,0,0-1.712.537,1.609,1.609,0,0,0-.644,1.265,1.327,1.327,0,0,0,.4,1.022A1.7,1.7,0,0,0,555.936,6504.294Z" transform="translate(-241.753 -6491.381)"/>
      <path id="Trazado_163542" data-name="Trazado 163542" d="M253.185,6525.394a2.387,2.387,0,0,0,1.551-.543,1.66,1.66,0,0,0,.67-1.336H257l.018.055a2.739,2.739,0,0,1-1.119,2.238,4.079,4.079,0,0,1-2.711.98,3.939,3.939,0,0,1-3.246-1.384,5.339,5.339,0,0,1-1.124-3.479v-.379a5.32,5.32,0,0,1,1.13-3.467,4.428,4.428,0,0,1,6.033-.381,3.134,3.134,0,0,1,1.048,2.473l-.018.054h-1.6a2.053,2.053,0,0,0-.63-1.515,2.166,2.166,0,0,0-1.591-.625,2.136,2.136,0,0,0-1.992,1,4.721,4.721,0,0,0-.6,2.458v.376a4.764,4.764,0,0,0,.594,2.483A2.137,2.137,0,0,0,253.185,6525.394Z" transform="translate(-248.778 -6490.896)"/>
      <path id="Trazado_163543" data-name="Trazado 163543" d="M264.95,6525.156a3.3,3.3,0,0,1-1.178,1.2,3.22,3.22,0,0,1-1.664.423,3.126,3.126,0,0,1-2.482-1.017,4.715,4.715,0,0,1-.89-3.164v-5.738h1.772v5.755a3.619,3.619,0,0,0,.458,2.14,1.7,1.7,0,0,0,1.429.584,2.91,2.91,0,0,0,1.561-.383,2.382,2.382,0,0,0,.93-1.082v-7.015h1.771v9.73h-1.591Z" transform="translate(-248.549 -6490.891)"/>
      <path id="Trazado_163544" data-name="Trazado 163544" d="M274.99,6526.6c-.059-.294-.105-.554-.138-.777a5.625,5.625,0,0,1-.059-.68,4.11,4.11,0,0,1-1.29,1.173,3.3,3.3,0,0,1-1.713.472,3.17,3.17,0,0,1-2.315-.778,2.855,2.855,0,0,1-.8-2.144,2.515,2.515,0,0,1,1.13-2.181,5.268,5.268,0,0,1,3.061-.786h1.924v-.963a1.787,1.787,0,0,0-.522-1.353,2.05,2.05,0,0,0-1.474-.5,2.13,2.13,0,0,0-1.389.436,1.316,1.316,0,0,0-.535,1.048h-1.69l-.018-.054a2.355,2.355,0,0,1,1-1.942,4.114,4.114,0,0,1,2.729-.882,4.014,4.014,0,0,1,2.661.842,2.977,2.977,0,0,1,1.008,2.423v4.685a9.138,9.138,0,0,0,.053,1.006,5.141,5.141,0,0,0,.2.954Zm-2.94-1.3a3.164,3.164,0,0,0,1.736-.493,2.342,2.342,0,0,0,1.007-1.129v-1.577h-1.987a2.582,2.582,0,0,0-1.713.537,1.608,1.608,0,0,0-.644,1.264,1.33,1.33,0,0,0,.4,1.022A1.7,1.7,0,0,0,272.049,6525.294Z" transform="translate(-248.319 -6490.896)"/>
      <path id="Trazado_163545" data-name="Trazado 163545" d="M280.811,6526.692H279.04v-14.028h1.771Z" transform="translate(-248.079 -6490.989)"/>
      <path id="Trazado_163546" data-name="Trazado 163546" d="M289.82,6526.692h-1.771v-14.028h1.771Z" transform="translate(-247.871 -6490.989)"/>
      <path id="Trazado_163547" data-name="Trazado 163547" d="M292.039,6521.644a5.356,5.356,0,0,1,1.168-3.555,3.919,3.919,0,0,1,3.175-1.4,3.96,3.96,0,0,1,3.2,1.395,5.334,5.334,0,0,1,1.173,3.561v.2a5.331,5.331,0,0,1-1.168,3.562,4.352,4.352,0,0,1-6.371,0,5.323,5.323,0,0,1-1.174-3.557Zm1.771.194a4.6,4.6,0,0,0,.653,2.55,2.356,2.356,0,0,0,3.861,0,4.579,4.579,0,0,0,.657-2.55v-.2a4.565,4.565,0,0,0-.661-2.542,2.167,2.167,0,0,0-1.938-1.015,2.137,2.137,0,0,0-1.919,1.015,4.615,4.615,0,0,0-.653,2.542Z" transform="translate(-247.778 -6490.896)"/>
      <path id="Trazado_163548" data-name="Trazado 163548" d="M308.337,6524.01a1.208,1.208,0,0,0-.445-.963,4.177,4.177,0,0,0-1.686-.655,7.111,7.111,0,0,1-2.666-1.047,2.117,2.117,0,0,1-.9-1.8,2.54,2.54,0,0,1,1.008-2.02,4.581,4.581,0,0,1,5.328.037,2.575,2.575,0,0,1,.957,2.122l-.017.054h-1.691a1.544,1.544,0,0,0-.534-1.146,1.974,1.974,0,0,0-1.417-.508,2.04,2.04,0,0,0-1.4.414,1.3,1.3,0,0,0-.458,1,1.112,1.112,0,0,0,.4.907,4.186,4.186,0,0,0,1.646.593,7.108,7.108,0,0,1,2.742,1.075,2.166,2.166,0,0,1,.9,1.821,2.511,2.511,0,0,1-1.047,2.1,4.39,4.39,0,0,1-2.739.8,4.277,4.277,0,0,1-2.931-.943,2.7,2.7,0,0,1-1.016-2.2l.017-.053h1.691a1.626,1.626,0,0,0,.7,1.373,2.723,2.723,0,0,0,1.538.434,2.506,2.506,0,0,0,1.479-.381A1.178,1.178,0,0,0,308.337,6524.01Z" transform="translate(-247.539 -6490.896)"/>
      <path id="Trazado_163549" data-name="Trazado 163549" d="M324.851,6522.1a5.362,5.362,0,0,1-1.008,3.4,3.327,3.327,0,0,1-2.778,1.29,3.859,3.859,0,0,1-1.578-.3,3.006,3.006,0,0,1-1.156-.9v4.756H316.56v-13.47h1.358l.279,1.26a3.2,3.2,0,0,1,1.187-1.07,3.534,3.534,0,0,1,1.654-.37,3.235,3.235,0,0,1,2.811,1.435,6.483,6.483,0,0,1,1,3.79Zm-1.772-.194a5.137,5.137,0,0,0-.651-2.716,2.114,2.114,0,0,0-1.92-1.063,2.373,2.373,0,0,0-1.3.344,2.611,2.611,0,0,0-.872.948v4.7a2.524,2.524,0,0,0,.872.938,2.447,2.447,0,0,0,1.322.336,2.182,2.182,0,0,0,1.907-.92,4.048,4.048,0,0,0,.647-2.376Z" transform="translate(-247.211 -6490.896)"/>
      <path id="Trazado_163550" data-name="Trazado 163550" d="M331.4,6518.433l-.909-.053a2.026,2.026,0,0,0-1.182.333,2.131,2.131,0,0,0-.743.935v6.951h-1.771v-9.73h1.583l.171,1.421a3.378,3.378,0,0,1,1.021-1.178,2.383,2.383,0,0,1,1.4-.423,2.134,2.134,0,0,1,.378.033,2.446,2.446,0,0,1,.3.066Z" transform="translate(-246.975 -6490.896)"/>
      <path id="Trazado_163551" data-name="Trazado 163551" d="M332.381,6521.644a5.351,5.351,0,0,1,1.168-3.555,3.919,3.919,0,0,1,3.175-1.4,3.96,3.96,0,0,1,3.2,1.395,5.34,5.34,0,0,1,1.172,3.561v.2a5.336,5.336,0,0,1-1.168,3.562,4.352,4.352,0,0,1-6.371,0,5.318,5.318,0,0,1-1.174-3.557Zm1.771.194a4.6,4.6,0,0,0,.653,2.55,2.356,2.356,0,0,0,3.861,0,4.578,4.578,0,0,0,.657-2.55v-.2a4.565,4.565,0,0,0-.661-2.542,2.167,2.167,0,0,0-1.938-1.015,2.137,2.137,0,0,0-1.919,1.015,4.615,4.615,0,0,0-.653,2.542Z" transform="translate(-246.845 -6490.896)"/>
      <path id="Trazado_163552" data-name="Trazado 163552" d="M342.62,6522.007a6.49,6.49,0,0,1,1-3.785,3.23,3.23,0,0,1,2.81-1.44,3.494,3.494,0,0,1,1.516.315,3.1,3.1,0,0,1,1.127.917v-5.35h1.772v14.028H349.4l-.207-1.2a3.168,3.168,0,0,1-1.169,1.034,3.52,3.52,0,0,1-1.609.351,3.34,3.34,0,0,1-2.788-1.29,5.368,5.368,0,0,1-1.007-3.4Zm1.771.188a4.132,4.132,0,0,0,.6,2.36,2.1,2.1,0,0,0,1.87.886,2.349,2.349,0,0,0,1.331-.359,2.685,2.685,0,0,0,.881-1.008v-4.541a2.711,2.711,0,0,0-.885-.957,2.34,2.34,0,0,0-1.309-.355,2.024,2.024,0,0,0-1.884,1.051,5.436,5.436,0,0,0-.608,2.734Z" transform="translate(-246.609 -6490.989)"/>
      <path id="Trazado_163553" data-name="Trazado 163553" d="M359.424,6525.156a3.3,3.3,0,0,1-1.178,1.2,3.22,3.22,0,0,1-1.664.423,3.124,3.124,0,0,1-2.482-1.017,4.716,4.716,0,0,1-.89-3.164v-5.738h1.771v5.755a3.627,3.627,0,0,0,.458,2.14,1.7,1.7,0,0,0,1.43.584,2.9,2.9,0,0,0,1.56-.383,2.376,2.376,0,0,0,.93-1.082v-7.015h1.772v9.73h-1.592Z" transform="translate(-246.364 -6490.891)"/>
      <path id="Trazado_163554" data-name="Trazado 163554" d="M367.443,6525.394a2.387,2.387,0,0,0,1.551-.543,1.659,1.659,0,0,0,.669-1.336h1.592l.018.055a2.739,2.739,0,0,1-1.119,2.238,4.081,4.081,0,0,1-2.711.98,3.939,3.939,0,0,1-3.246-1.384,5.339,5.339,0,0,1-1.124-3.479v-.379a5.32,5.32,0,0,1,1.13-3.467,4.428,4.428,0,0,1,6.033-.381,3.129,3.129,0,0,1,1.047,2.473l-.017.054h-1.6a2.056,2.056,0,0,0-.629-1.515,2.167,2.167,0,0,0-1.591-.625,2.136,2.136,0,0,0-1.992,1,4.721,4.721,0,0,0-.6,2.458v.376a4.774,4.774,0,0,0,.593,2.483A2.139,2.139,0,0,0,367.443,6525.394Z" transform="translate(-246.136 -6490.896)"/>
      <path id="Trazado_163555" data-name="Trazado 163555" d="M375.39,6514.57v2.348h1.844v1.312H375.39v5.909a1.317,1.317,0,0,0,.284.961,1.017,1.017,0,0,0,.75.28,1.745,1.745,0,0,0,.338-.037,2.067,2.067,0,0,0,.327-.089l.234,1.213a1.571,1.571,0,0,1-.58.266,2.98,2.98,0,0,1-.769.1,2.285,2.285,0,0,1-1.717-.652,2.829,2.829,0,0,1-.638-2.045v-5.909h-1.547v-1.312h1.547v-2.348Z" transform="translate(-245.927 -6490.944)"/>
      <path id="Trazado_163556" data-name="Trazado 163556" d="M378.848,6521.644a5.351,5.351,0,0,1,1.169-3.555,3.919,3.919,0,0,1,3.175-1.4,3.96,3.96,0,0,1,3.2,1.395,5.34,5.34,0,0,1,1.173,3.561v.2a5.331,5.331,0,0,1-1.169,3.562,4.351,4.351,0,0,1-6.37,0,5.319,5.319,0,0,1-1.175-3.557Zm1.772.194a4.6,4.6,0,0,0,.653,2.55,2.356,2.356,0,0,0,3.861,0,4.578,4.578,0,0,0,.657-2.55v-.2a4.565,4.565,0,0,0-.661-2.542,2.168,2.168,0,0,0-1.938-1.015,2.135,2.135,0,0,0-1.919,1.015,4.615,4.615,0,0,0-.653,2.542Z" transform="translate(-245.771 -6490.896)"/>
      <path id="Trazado_163557" data-name="Trazado 163557" d="M395.146,6524.01a1.207,1.207,0,0,0-.444-.963,4.177,4.177,0,0,0-1.687-.655,7.105,7.105,0,0,1-2.665-1.047,2.117,2.117,0,0,1-.9-1.8,2.539,2.539,0,0,1,1.007-2.02,4.581,4.581,0,0,1,5.328.037,2.576,2.576,0,0,1,.958,2.122l-.018.054h-1.69a1.547,1.547,0,0,0-.534-1.146,1.974,1.974,0,0,0-1.417-.508,2.04,2.04,0,0,0-1.4.414,1.3,1.3,0,0,0-.459,1,1.11,1.11,0,0,0,.405.907,4.186,4.186,0,0,0,1.645.593,7.114,7.114,0,0,1,2.743,1.075,2.166,2.166,0,0,1,.9,1.821,2.512,2.512,0,0,1-1.048,2.1,4.387,4.387,0,0,1-2.738.8,4.282,4.282,0,0,1-2.932-.943,2.7,2.7,0,0,1-1.016-2.2l.018-.053h1.69a1.629,1.629,0,0,0,.7,1.373,2.723,2.723,0,0,0,1.538.434,2.508,2.508,0,0,0,1.479-.381A1.177,1.177,0,0,0,395.146,6524.01Z" transform="translate(-245.532 -6490.896)"/>
      <path id="Trazado_163558" data-name="Trazado 163558" d="M407.336,6525.394a2.392,2.392,0,0,0,1.552-.543,1.662,1.662,0,0,0,.669-1.336h1.592l.017.055a2.736,2.736,0,0,1-1.119,2.238,4.077,4.077,0,0,1-2.711.98,3.94,3.94,0,0,1-3.246-1.384,5.344,5.344,0,0,1-1.123-3.479v-.379a5.325,5.325,0,0,1,1.128-3.467,4.43,4.43,0,0,1,6.034-.381,3.133,3.133,0,0,1,1.047,2.473l-.018.054h-1.6a2.056,2.056,0,0,0-.629-1.515,2.168,2.168,0,0,0-1.592-.625,2.134,2.134,0,0,0-1.991,1,4.711,4.711,0,0,0-.6,2.458v.376a4.765,4.765,0,0,0,.593,2.483A2.138,2.138,0,0,0,407.336,6525.394Z" transform="translate(-245.213 -6490.896)"/>
      <path id="Trazado_163559" data-name="Trazado 163559" d="M412.519,6521.644a5.351,5.351,0,0,1,1.169-3.555,4.33,4.33,0,0,1,6.371-.005,5.335,5.335,0,0,1,1.174,3.561v.2a5.331,5.331,0,0,1-1.169,3.562,4.351,4.351,0,0,1-6.37,0,5.319,5.319,0,0,1-1.175-3.557Zm1.772.194a4.612,4.612,0,0,0,.652,2.55,2.357,2.357,0,0,0,3.862,0,4.578,4.578,0,0,0,.656-2.55v-.2a4.565,4.565,0,0,0-.66-2.542,2.169,2.169,0,0,0-1.939-1.015,2.137,2.137,0,0,0-1.919,1.015,4.623,4.623,0,0,0-.652,2.542Z" transform="translate(-244.992 -6490.896)"/>
      <path id="Trazado_163560" data-name="Trazado 163560" d="M424.737,6516.869l.126,1.276a3.324,3.324,0,0,1,1.21-1.075,3.641,3.641,0,0,1,1.7-.382,3.014,3.014,0,0,1,1.668.45,2.718,2.718,0,0,1,1.048,1.349,3.606,3.606,0,0,1,1.213-1.313,3.2,3.2,0,0,1,1.763-.486,2.913,2.913,0,0,1,2.347,1.021,4.658,4.658,0,0,1,.863,3.07v5.819h-1.772v-5.836a3.236,3.236,0,0,0-.494-2.037,1.8,1.8,0,0,0-1.474-.6,1.875,1.875,0,0,0-1.47.629,2.739,2.739,0,0,0-.661,1.591v6.25h-1.781v-5.836a3.193,3.193,0,0,0-.507-2,1.766,1.766,0,0,0-1.461-.633,2.435,2.435,0,0,0-1.331.332,2.144,2.144,0,0,0-.8.935v7.2h-1.772v-9.73Z" transform="translate(-244.746 -6490.896)"/>
      <path id="Trazado_163561" data-name="Trazado 163561" d="M447.177,6522.1a5.368,5.368,0,0,1-1.007,3.4,3.331,3.331,0,0,1-2.779,1.29,3.859,3.859,0,0,1-1.578-.3,3.007,3.007,0,0,1-1.156-.9v4.756h-1.772v-13.47h1.359l.278,1.26a3.209,3.209,0,0,1,1.187-1.07,3.534,3.534,0,0,1,1.654-.37,3.238,3.238,0,0,1,2.812,1.435,6.491,6.491,0,0,1,1,3.79Zm-1.771-.194a5.128,5.128,0,0,0-.652-2.716,2.114,2.114,0,0,0-1.92-1.063,2.373,2.373,0,0,0-1.3.344,2.611,2.611,0,0,0-.872.948v4.7a2.523,2.523,0,0,0,.872.938,2.447,2.447,0,0,0,1.322.336,2.182,2.182,0,0,0,1.907-.92,4.041,4.041,0,0,0,.648-2.376Z" transform="translate(-244.382 -6490.896)"/>
      <path id="Trazado_163562" data-name="Trazado 163562" d="M451.029,6514.472h-1.771v-1.809h1.771Zm0,12.22h-1.771v-9.73h1.771Z" transform="translate(-244.142 -6490.989)"/>
      <path id="Trazado_163563" data-name="Trazado 163563" d="M456.012,6514.57v2.348h1.844v1.312h-1.844v5.909a1.317,1.317,0,0,0,.284.961,1.017,1.017,0,0,0,.75.28,1.745,1.745,0,0,0,.338-.037,2.066,2.066,0,0,0,.327-.089l.234,1.213a1.565,1.565,0,0,1-.579.266,2.986,2.986,0,0,1-.769.1,2.286,2.286,0,0,1-1.718-.652,2.829,2.829,0,0,1-.638-2.045v-5.909h-1.547v-1.312h1.547v-2.348Z" transform="translate(-244.063 -6490.944)"/>
      <path id="Trazado_163564" data-name="Trazado 163564" d="M463.921,6526.788a4.1,4.1,0,0,1-3.232-1.354,5.089,5.089,0,0,1-1.2-3.509v-.4a4.986,4.986,0,0,1,1.237-3.457,3.812,3.812,0,0,1,2.926-1.381,3.688,3.688,0,0,1,2.977,1.187,4.731,4.731,0,0,1,1.007,3.166v1.106h-6.313l-.027.045a3.824,3.824,0,0,0,.71,2.3,2.265,2.265,0,0,0,1.915.9,4.479,4.479,0,0,0,1.579-.256,3.649,3.649,0,0,0,1.173-.706l.692,1.152a4.108,4.108,0,0,1-1.375.86A5.571,5.571,0,0,1,463.921,6526.788Zm-.27-8.7a1.921,1.921,0,0,0-1.519.748,3.544,3.544,0,0,0-.773,1.877l.018.045h4.486v-.234a2.7,2.7,0,0,0-.557-1.738A1.991,1.991,0,0,0,463.651,6518.083Z" transform="translate(-243.906 -6490.896)"/>
      <path id="Trazado_163565" data-name="Trazado 163565" d="M470.976,6516.869l.126,1.448a3.539,3.539,0,0,1,1.22-1.2,3.252,3.252,0,0,1,1.668-.428,3.176,3.176,0,0,1,2.436.922,4.045,4.045,0,0,1,.864,2.847v6.142h-1.771v-6.106a2.63,2.63,0,0,0-.507-1.825,2.034,2.034,0,0,0-1.552-.539,2.49,2.49,0,0,0-1.353.368,2.683,2.683,0,0,0-.94,1.006v7.1h-1.772v-9.73Z" transform="translate(-243.677 -6490.896)"/>
      <path id="Trazado_163566" data-name="Trazado 163566" d="M488.144,6526.788a4.1,4.1,0,0,1-3.232-1.354,5.084,5.084,0,0,1-1.2-3.509v-.4a4.986,4.986,0,0,1,1.237-3.457,3.809,3.809,0,0,1,2.926-1.381,3.686,3.686,0,0,1,2.976,1.187,4.731,4.731,0,0,1,1.008,3.166v1.106h-6.313l-.028.045a3.825,3.825,0,0,0,.711,2.3,2.265,2.265,0,0,0,1.915.9,4.483,4.483,0,0,0,1.579-.256,3.633,3.633,0,0,0,1.172-.706l.693,1.152a4.1,4.1,0,0,1-1.376.86A5.562,5.562,0,0,1,488.144,6526.788Zm-.27-8.7a1.921,1.921,0,0,0-1.519.748,3.544,3.544,0,0,0-.773,1.877l.017.045h4.487v-.234a2.7,2.7,0,0,0-.558-1.738A1.987,1.987,0,0,0,487.874,6518.083Z" transform="translate(-243.345 -6490.896)"/>
      <path id="Trazado_163567" data-name="Trazado 163567" d="M495.2,6516.869l.126,1.448a3.536,3.536,0,0,1,1.219-1.2,3.258,3.258,0,0,1,1.668-.428,3.177,3.177,0,0,1,2.437.922,4.045,4.045,0,0,1,.863,2.847v6.142h-1.772v-6.106a2.63,2.63,0,0,0-.508-1.825,2.033,2.033,0,0,0-1.551-.539,2.5,2.5,0,0,0-1.354.368,2.7,2.7,0,0,0-.94,1.006v7.1h-1.771v-9.73Z" transform="translate(-243.116 -6490.896)"/>
      <path id="Trazado_163568" data-name="Trazado 163568" d="M506.207,6514.57v2.348h1.843v1.312h-1.843v5.909a1.317,1.317,0,0,0,.283.961,1.02,1.02,0,0,0,.75.28,1.745,1.745,0,0,0,.338-.037,2.08,2.08,0,0,0,.328-.089l.233,1.213a1.566,1.566,0,0,1-.579.266,2.98,2.98,0,0,1-.769.1,2.288,2.288,0,0,1-1.718-.652,2.829,2.829,0,0,1-.638-2.045v-5.909h-1.547v-1.312h1.547v-2.348Z" transform="translate(-242.902 -6490.944)"/>
      <path id="Trazado_163569" data-name="Trazado 163569" d="M514.673,6518.433l-.909-.053a2.028,2.028,0,0,0-1.182.333,2.129,2.129,0,0,0-.742.935v6.951h-1.772v-9.73h1.583l.171,1.421a3.388,3.388,0,0,1,1.021-1.178,2.387,2.387,0,0,1,1.4-.423,2.132,2.132,0,0,1,.378.033,2.4,2.4,0,0,1,.3.066Z" transform="translate(-242.736 -6490.896)"/>
      <path id="Trazado_163570" data-name="Trazado 163570" d="M520.118,6526.788a4.1,4.1,0,0,1-3.232-1.354,5.089,5.089,0,0,1-1.2-3.509v-.4a4.99,4.99,0,0,1,1.237-3.457,3.813,3.813,0,0,1,2.927-1.381,3.686,3.686,0,0,1,2.976,1.187,4.731,4.731,0,0,1,1.007,3.166v1.106H517.52l-.027.045a3.824,3.824,0,0,0,.71,2.3,2.268,2.268,0,0,0,1.915.9,4.479,4.479,0,0,0,1.579-.256,3.627,3.627,0,0,0,1.174-.706l.693,1.152a4.113,4.113,0,0,1-1.376.86A5.572,5.572,0,0,1,520.118,6526.788Zm-.269-8.7a1.923,1.923,0,0,0-1.52.748,3.544,3.544,0,0,0-.773,1.877l.018.045h4.487v-.234a2.7,2.7,0,0,0-.558-1.738A1.989,1.989,0,0,0,519.849,6518.083Z" transform="translate(-242.606 -6490.896)"/>
      <path id="Trazado_163571" data-name="Trazado 163571" d="M535.728,6524.01a1.208,1.208,0,0,0-.445-.963,4.178,4.178,0,0,0-1.686-.655,7.1,7.1,0,0,1-2.666-1.047,2.117,2.117,0,0,1-.9-1.8,2.539,2.539,0,0,1,1.007-2.02,4.581,4.581,0,0,1,5.328.037,2.576,2.576,0,0,1,.958,2.122l-.018.054h-1.69a1.547,1.547,0,0,0-.534-1.146,1.974,1.974,0,0,0-1.417-.508,2.04,2.04,0,0,0-1.4.414,1.3,1.3,0,0,0-.458,1,1.11,1.11,0,0,0,.4.907,4.186,4.186,0,0,0,1.645.593,7.114,7.114,0,0,1,2.743,1.075,2.166,2.166,0,0,1,.9,1.821,2.514,2.514,0,0,1-1.047,2.1,4.392,4.392,0,0,1-2.739.8,4.277,4.277,0,0,1-2.931-.943,2.7,2.7,0,0,1-1.017-2.2l.018-.053h1.69a1.629,1.629,0,0,0,.7,1.373,2.723,2.723,0,0,0,1.538.434,2.508,2.508,0,0,0,1.479-.381A1.178,1.178,0,0,0,535.728,6524.01Z" transform="translate(-242.28 -6490.896)"/>
      <path id="Trazado_163572" data-name="Trazado 163572" d="M541.337,6526.676h-1.772v-9.73h1.772Zm-.028-13.3h2.069l.017.054-2.428,2.338h-1.322Z" transform="translate(-242.053 -6490.972)"/>
      <path id="Trazado_163573" data-name="Trazado 163573" d="M556.768,6522.1a5.362,5.362,0,0,1-1.008,3.4,3.327,3.327,0,0,1-2.778,1.29,3.859,3.859,0,0,1-1.578-.3,3.007,3.007,0,0,1-1.156-.9v4.756h-1.772v-13.47h1.358l.279,1.26a3.2,3.2,0,0,1,1.187-1.07,3.534,3.534,0,0,1,1.654-.37,3.235,3.235,0,0,1,2.81,1.435,6.483,6.483,0,0,1,1,3.79Zm-1.772-.194a5.137,5.137,0,0,0-.651-2.716,2.114,2.114,0,0,0-1.92-1.063,2.373,2.373,0,0,0-1.3.344,2.612,2.612,0,0,0-.872.948v4.7a2.525,2.525,0,0,0,.872.938,2.447,2.447,0,0,0,1.322.336,2.182,2.182,0,0,0,1.907-.92A4.048,4.048,0,0,0,555,6522.1Z" transform="translate(-241.847 -6490.896)"/>
      <path id="Trazado_163574" data-name="Trazado 163574" d="M558.3,6521.644a5.351,5.351,0,0,1,1.169-3.555,3.92,3.92,0,0,1,3.175-1.4,3.96,3.96,0,0,1,3.2,1.395,5.34,5.34,0,0,1,1.172,3.561v.2a5.331,5.331,0,0,1-1.169,3.562,4.351,4.351,0,0,1-6.37,0,5.319,5.319,0,0,1-1.175-3.557Zm1.772.194a4.6,4.6,0,0,0,.653,2.55,2.356,2.356,0,0,0,3.861,0,4.579,4.579,0,0,0,.657-2.55v-.2a4.565,4.565,0,0,0-.661-2.542,2.168,2.168,0,0,0-1.938-1.015,2.135,2.135,0,0,0-1.919,1.015,4.615,4.615,0,0,0-.653,2.542Z" transform="translate(-241.62 -6490.896)"/>
      <path id="Trazado_163575" data-name="Trazado 163575" d="M573.542,6518.433l-.907-.053a2.031,2.031,0,0,0-1.183.333,2.136,2.136,0,0,0-.742.935v6.951h-1.772v-9.73h1.583l.171,1.421a3.4,3.4,0,0,1,1.021-1.178,2.387,2.387,0,0,1,1.4-.423,2.154,2.154,0,0,1,.379.033,2.493,2.493,0,0,1,.3.066Z" transform="translate(-241.374 -6490.896)"/>
      <path id="Trazado_163576" data-name="Trazado 163576" d="M254.882,6545.01a1.208,1.208,0,0,0-.445-.963,4.192,4.192,0,0,0-1.686-.655,7.1,7.1,0,0,1-2.666-1.047,2.115,2.115,0,0,1-.9-1.8,2.539,2.539,0,0,1,1.008-2.021,4.583,4.583,0,0,1,5.328.037,2.577,2.577,0,0,1,.957,2.123l-.017.054h-1.691a1.545,1.545,0,0,0-.534-1.146,1.976,1.976,0,0,0-1.417-.508,2.04,2.04,0,0,0-1.4.414,1.3,1.3,0,0,0-.458,1,1.113,1.113,0,0,0,.4.907,4.194,4.194,0,0,0,1.646.593,7.107,7.107,0,0,1,2.742,1.075,2.167,2.167,0,0,1,.9,1.821,2.512,2.512,0,0,1-1.047,2.1,4.387,4.387,0,0,1-2.739.8,4.277,4.277,0,0,1-2.931-.943,2.7,2.7,0,0,1-1.016-2.2l.017-.053h1.691a1.626,1.626,0,0,0,.7,1.373,2.719,2.719,0,0,0,1.538.434,2.506,2.506,0,0,0,1.479-.381A1.177,1.177,0,0,0,254.882,6545.01Z" transform="translate(-248.776 -6490.41)"/>
      <path id="Trazado_163577" data-name="Trazado 163577" d="M264.81,6546.157a3.3,3.3,0,0,1-1.179,1.2,3.214,3.214,0,0,1-1.664.422,3.123,3.123,0,0,1-2.481-1.016,4.709,4.709,0,0,1-.891-3.164v-5.737h1.772v5.755a3.621,3.621,0,0,0,.458,2.14,1.706,1.706,0,0,0,1.43.584,2.9,2.9,0,0,0,1.56-.383,2.379,2.379,0,0,0,.93-1.082v-7.014h1.772v9.729h-1.592Z" transform="translate(-248.552 -6490.407)"/>
      <path id="Trazado_163578" data-name="Trazado 163578" d="M277.3,6546.394a2.389,2.389,0,0,0,1.551-.543,1.661,1.661,0,0,0,.67-1.336h1.591l.018.055a2.738,2.738,0,0,1-1.119,2.238,4.078,4.078,0,0,1-2.711.98,3.939,3.939,0,0,1-3.246-1.384,5.344,5.344,0,0,1-1.124-3.479v-.378a5.324,5.324,0,0,1,1.13-3.466,4.428,4.428,0,0,1,6.033-.382,3.135,3.135,0,0,1,1.048,2.473l-.018.054h-1.6a2.056,2.056,0,0,0-.629-1.515,2.172,2.172,0,0,0-1.592-.625,2.134,2.134,0,0,0-1.991,1,4.711,4.711,0,0,0-.6,2.458v.376a4.764,4.764,0,0,0,.593,2.483A2.137,2.137,0,0,0,277.3,6546.394Z" transform="translate(-248.22 -6490.41)"/>
      <path id="Trazado_163579" data-name="Trazado 163579" d="M288.877,6547.6q-.089-.441-.139-.777a5.835,5.835,0,0,1-.058-.68,4.111,4.111,0,0,1-1.29,1.174,3.3,3.3,0,0,1-1.714.471,3.173,3.173,0,0,1-2.314-.777,2.858,2.858,0,0,1-.8-2.144,2.512,2.512,0,0,1,1.13-2.181,5.264,5.264,0,0,1,3.061-.787h1.924v-.963a1.788,1.788,0,0,0-.522-1.354,2.052,2.052,0,0,0-1.474-.5,2.128,2.128,0,0,0-1.389.436,1.314,1.314,0,0,0-.535,1.047h-1.691l-.017-.054a2.358,2.358,0,0,1,1-1.943,4.115,4.115,0,0,1,2.729-.881,4.016,4.016,0,0,1,2.662.842,2.976,2.976,0,0,1,1.007,2.422v4.685a9.156,9.156,0,0,0,.054,1.007,5.234,5.234,0,0,0,.2.954Zm-2.941-1.3a3.164,3.164,0,0,0,1.735-.493,2.35,2.35,0,0,0,1.008-1.13v-1.578h-1.988a2.583,2.583,0,0,0-1.712.537,1.61,1.61,0,0,0-.644,1.264,1.326,1.326,0,0,0,.4,1.022A1.7,1.7,0,0,0,285.936,6546.295Z" transform="translate(-247.998 -6490.41)"/>
      <path id="Trazado_163580" data-name="Trazado 163580" d="M294.7,6547.692h-1.771v-14.028H294.7Z" transform="translate(-247.758 -6490.503)"/>
      <path id="Trazado_163581" data-name="Trazado 163581" d="M299.233,6535.472h-1.771v-1.808h1.771Zm0,12.22h-1.771v-9.729h1.771Z" transform="translate(-247.653 -6490.503)"/>
      <path id="Trazado_163582" data-name="Trazado 163582" d="M301.461,6543.007a6.492,6.492,0,0,1,1-3.785,3.23,3.23,0,0,1,2.81-1.44,3.487,3.487,0,0,1,1.516.315,3.1,3.1,0,0,1,1.128.917v-5.35h1.772v14.028h-1.448l-.207-1.2a3.17,3.17,0,0,1-1.169,1.034,3.516,3.516,0,0,1-1.609.35,3.337,3.337,0,0,1-2.788-1.289,5.367,5.367,0,0,1-1.007-3.4Zm1.771.188a4.125,4.125,0,0,0,.6,2.36,2.1,2.1,0,0,0,1.87.886,2.348,2.348,0,0,0,1.331-.359,2.683,2.683,0,0,0,.881-1.008v-4.54a2.711,2.711,0,0,0-.885-.958,2.348,2.348,0,0,0-1.309-.354,2.022,2.022,0,0,0-1.884,1.052,5.422,5.422,0,0,0-.608,2.733Z" transform="translate(-247.561 -6490.503)"/>
      <path id="Trazado_163583" data-name="Trazado 163583" d="M318.074,6547.6q-.089-.441-.138-.777a5.613,5.613,0,0,1-.059-.68,4.112,4.112,0,0,1-1.29,1.174,3.3,3.3,0,0,1-1.714.471,3.173,3.173,0,0,1-2.314-.777,2.858,2.858,0,0,1-.8-2.144,2.514,2.514,0,0,1,1.13-2.181,5.264,5.264,0,0,1,3.061-.787h1.925v-.963a1.788,1.788,0,0,0-.522-1.354,2.052,2.052,0,0,0-1.474-.5,2.128,2.128,0,0,0-1.389.436,1.314,1.314,0,0,0-.535,1.047h-1.69l-.018-.054a2.357,2.357,0,0,1,1-1.943,4.114,4.114,0,0,1,2.729-.881,4.013,4.013,0,0,1,2.661.842,2.976,2.976,0,0,1,1.007,2.422v4.685a9.148,9.148,0,0,0,.054,1.007,5.158,5.158,0,0,0,.2.954Zm-2.94-1.3a3.167,3.167,0,0,0,1.736-.493,2.343,2.343,0,0,0,1.007-1.13v-1.578h-1.987a2.584,2.584,0,0,0-1.713.537,1.61,1.61,0,0,0-.644,1.264,1.329,1.329,0,0,0,.4,1.022A1.7,1.7,0,0,0,315.133,6546.295Z" transform="translate(-247.322 -6490.41)"/>
      <path id="Trazado_163584" data-name="Trazado 163584" d="M321.588,6543.007a6.493,6.493,0,0,1,1-3.785,3.229,3.229,0,0,1,2.81-1.44,3.487,3.487,0,0,1,1.516.315,3.1,3.1,0,0,1,1.128.917v-5.35h1.772v14.028h-1.448l-.208-1.2a3.159,3.159,0,0,1-1.168,1.034,3.516,3.516,0,0,1-1.609.35,3.336,3.336,0,0,1-2.788-1.289,5.367,5.367,0,0,1-1.007-3.4Zm1.771.188a4.125,4.125,0,0,0,.6,2.36,2.1,2.1,0,0,0,1.87.886,2.348,2.348,0,0,0,1.331-.359,2.683,2.683,0,0,0,.881-1.008v-4.54a2.72,2.72,0,0,0-.885-.958,2.35,2.35,0,0,0-1.309-.354,2.022,2.022,0,0,0-1.884,1.052,5.422,5.422,0,0,0-.608,2.733Z" transform="translate(-247.095 -6490.503)"/>
      <path id="Trazado_163585" data-name="Trazado 163585" d="M333.779,6546.988l-1.348,2.751h-1.052l.629-2.841v-1.466h1.771Z" transform="translate(-246.869 -6490.231)"/>
      <path id="Trazado_163586" data-name="Trazado 163586" d="M348.529,6543.1a5.367,5.367,0,0,1-1.008,3.4,3.326,3.326,0,0,1-2.779,1.289,3.862,3.862,0,0,1-1.578-.3,3.031,3.031,0,0,1-1.156-.9v4.756h-1.771v-13.47H341.6l.279,1.259a3.207,3.207,0,0,1,1.187-1.071,3.534,3.534,0,0,1,1.654-.369,3.234,3.234,0,0,1,2.811,1.436,6.488,6.488,0,0,1,1,3.79Zm-1.772-.193a5.126,5.126,0,0,0-.652-2.716,2.11,2.11,0,0,0-1.92-1.064,2.366,2.366,0,0,0-1.3.345,2.6,2.6,0,0,0-.873.947v4.7a2.522,2.522,0,0,0,.873.938,2.45,2.45,0,0,0,1.322.336,2.182,2.182,0,0,0,1.906-.92,4.04,4.04,0,0,0,.648-2.376Z" transform="translate(-246.664 -6490.41)"/>
      <path id="Trazado_163587" data-name="Trazado 163587" d="M354.515,6547.787a4.1,4.1,0,0,1-3.232-1.354,5.086,5.086,0,0,1-1.2-3.51v-.4a4.985,4.985,0,0,1,1.237-3.457,3.809,3.809,0,0,1,2.926-1.381,3.688,3.688,0,0,1,2.976,1.187,4.726,4.726,0,0,1,1.008,3.165v1.106h-6.313l-.028.045a3.829,3.829,0,0,0,.711,2.3,2.266,2.266,0,0,0,1.915.9,4.483,4.483,0,0,0,1.579-.256,3.641,3.641,0,0,0,1.173-.706l.693,1.152a4.11,4.11,0,0,1-1.376.861A5.563,5.563,0,0,1,354.515,6547.787Zm-.27-8.7a1.923,1.923,0,0,0-1.519.748,3.541,3.541,0,0,0-.773,1.877l.017.045h4.487v-.233a2.7,2.7,0,0,0-.558-1.739A1.986,1.986,0,0,0,354.245,6539.083Z" transform="translate(-246.436 -6490.41)"/>
      <path id="Trazado_163588" data-name="Trazado 163588" d="M364.591,6539.434l-.909-.053a2.024,2.024,0,0,0-1.182.333,2.126,2.126,0,0,0-.742.935v6.951h-1.772v-9.729h1.583l.171,1.421a3.378,3.378,0,0,1,1.021-1.179,2.392,2.392,0,0,1,1.4-.422,2.181,2.181,0,0,1,.378.033,2.48,2.48,0,0,1,.3.067Z" transform="translate(-246.207 -6490.41)"/>
      <path id="Trazado_163589" data-name="Trazado 163589" d="M365.577,6542.645a5.356,5.356,0,0,1,1.168-3.556,4.331,4.331,0,0,1,6.372-.005,5.336,5.336,0,0,1,1.174,3.561v.2a5.329,5.329,0,0,1-1.169,3.562,4.352,4.352,0,0,1-6.371,0,5.321,5.321,0,0,1-1.174-3.557Zm1.771.193a4.6,4.6,0,0,0,.653,2.55,2.356,2.356,0,0,0,3.861,0,4.579,4.579,0,0,0,.657-2.55v-.2a4.57,4.57,0,0,0-.66-2.542,2.17,2.17,0,0,0-1.939-1.015A2.138,2.138,0,0,0,368,6540.1a4.611,4.611,0,0,0-.653,2.542Z" transform="translate(-246.078 -6490.41)"/>
      <path id="Trazado_163590" data-name="Trazado 163590" d="M382.268,6537.87l.126,1.447a3.546,3.546,0,0,1,1.22-1.2,3.252,3.252,0,0,1,1.668-.428,3.18,3.18,0,0,1,2.436.921,4.047,4.047,0,0,1,.864,2.847v6.142h-1.771v-6.106a2.63,2.63,0,0,0-.508-1.825,2.034,2.034,0,0,0-1.552-.539,2.494,2.494,0,0,0-1.353.368,2.677,2.677,0,0,0-.94,1.007v7.1h-1.772v-9.729Z" transform="translate(-245.728 -6490.41)"/>
      <path id="Trazado_163591" data-name="Trazado 163591" d="M396.9,6547.6q-.09-.441-.139-.777a5.83,5.83,0,0,1-.059-.68,4.111,4.111,0,0,1-1.29,1.174,3.3,3.3,0,0,1-1.713.471,3.174,3.174,0,0,1-2.315-.777,2.857,2.857,0,0,1-.8-2.144,2.514,2.514,0,0,1,1.129-2.181,5.266,5.266,0,0,1,3.061-.787h1.924v-.963a1.788,1.788,0,0,0-.522-1.354,2.051,2.051,0,0,0-1.474-.5,2.123,2.123,0,0,0-1.388.436,1.312,1.312,0,0,0-.536,1.047h-1.69l-.018-.054a2.357,2.357,0,0,1,1-1.943,4.113,4.113,0,0,1,2.729-.881,4.013,4.013,0,0,1,2.661.842,2.977,2.977,0,0,1,1.008,2.422v4.685a9.153,9.153,0,0,0,.053,1.007,5.15,5.15,0,0,0,.2.954Zm-2.941-1.3a3.168,3.168,0,0,0,1.736-.493,2.343,2.343,0,0,0,1.007-1.13v-1.578h-1.987a2.584,2.584,0,0,0-1.713.537,1.61,1.61,0,0,0-.644,1.264,1.326,1.326,0,0,0,.405,1.022A1.7,1.7,0,0,0,393.962,6546.295Z" transform="translate(-245.499 -6490.41)"/>
      <path id="Trazado_163592" data-name="Trazado 163592" d="M400.417,6543.007a6.492,6.492,0,0,1,1-3.785,3.232,3.232,0,0,1,2.809-1.44,3.487,3.487,0,0,1,1.516.315,3.1,3.1,0,0,1,1.128.917v-5.35h1.772v14.028H407.2l-.207-1.2a3.17,3.17,0,0,1-1.169,1.034,3.516,3.516,0,0,1-1.609.35,3.337,3.337,0,0,1-2.788-1.289,5.367,5.367,0,0,1-1.007-3.4Zm1.771.188a4.124,4.124,0,0,0,.6,2.36,2.1,2.1,0,0,0,1.87.886,2.348,2.348,0,0,0,1.331-.359,2.674,2.674,0,0,0,.881-1.008v-4.54a2.71,2.71,0,0,0-.885-.958,2.347,2.347,0,0,0-1.309-.354,2.022,2.022,0,0,0-1.884,1.052,5.422,5.422,0,0,0-.608,2.733Z" transform="translate(-245.272 -6490.503)"/>
      <path id="Trazado_163593" data-name="Trazado 163593" d="M417.03,6547.6q-.089-.441-.138-.777a5.606,5.606,0,0,1-.059-.68,4.111,4.111,0,0,1-1.29,1.174,3.3,3.3,0,0,1-1.713.471,3.174,3.174,0,0,1-2.315-.777,2.857,2.857,0,0,1-.8-2.144,2.514,2.514,0,0,1,1.129-2.181,5.264,5.264,0,0,1,3.061-.787h1.925v-.963a1.788,1.788,0,0,0-.522-1.354,2.052,2.052,0,0,0-1.474-.5,2.123,2.123,0,0,0-1.388.436,1.312,1.312,0,0,0-.536,1.047h-1.69l-.018-.054a2.357,2.357,0,0,1,1-1.943,4.113,4.113,0,0,1,2.729-.881,4.014,4.014,0,0,1,2.661.842,2.977,2.977,0,0,1,1.008,2.422v4.685a9.16,9.16,0,0,0,.053,1.007,5.155,5.155,0,0,0,.2.954Zm-2.94-1.3a3.167,3.167,0,0,0,1.736-.493,2.343,2.343,0,0,0,1.007-1.13v-1.578h-1.987a2.584,2.584,0,0,0-1.713.537,1.61,1.61,0,0,0-.644,1.264,1.329,1.329,0,0,0,.4,1.022A1.7,1.7,0,0,0,414.089,6546.295Z" transform="translate(-245.034 -6490.41)"/>
      <path id="Trazado_163594" data-name="Trazado 163594" d="M427,6537.87l.126,1.276a3.326,3.326,0,0,1,1.209-1.075,3.652,3.652,0,0,1,1.7-.381,3.012,3.012,0,0,1,1.669.45,2.721,2.721,0,0,1,1.048,1.348,3.61,3.61,0,0,1,1.213-1.312,3.189,3.189,0,0,1,1.763-.486,2.913,2.913,0,0,1,2.347,1.021,4.662,4.662,0,0,1,.864,3.07v5.819h-1.772v-5.836a3.236,3.236,0,0,0-.494-2.037,1.805,1.805,0,0,0-1.475-.6,1.876,1.876,0,0,0-1.469.629,2.747,2.747,0,0,0-.662,1.591v6.25h-1.78v-5.836a3.2,3.2,0,0,0-.507-2,1.769,1.769,0,0,0-1.462-.633,2.427,2.427,0,0,0-1.33.332,2.15,2.15,0,0,0-.8.935v7.2h-1.771v-9.729Z" transform="translate(-244.694 -6490.41)"/>
      <path id="Trazado_163595" data-name="Trazado 163595" d="M447.133,6547.68q-.091-.441-.139-.777a5.617,5.617,0,0,1-.058-.68,4.134,4.134,0,0,1-1.29,1.174,3.3,3.3,0,0,1-1.714.471,3.177,3.177,0,0,1-2.315-.777,2.861,2.861,0,0,1-.8-2.144,2.511,2.511,0,0,1,1.13-2.181,5.264,5.264,0,0,1,3.061-.787h1.925v-.963a1.787,1.787,0,0,0-.522-1.353,2.053,2.053,0,0,0-1.475-.5,2.127,2.127,0,0,0-1.388.436,1.311,1.311,0,0,0-.535,1.047h-1.691l-.017-.054a2.358,2.358,0,0,1,1-1.943,4.115,4.115,0,0,1,2.729-.881,4.019,4.019,0,0,1,2.662.842,2.976,2.976,0,0,1,1.007,2.422v4.685a9.156,9.156,0,0,0,.054,1.007,5.153,5.153,0,0,0,.2.954Zm-2.94-1.3a3.164,3.164,0,0,0,1.735-.493,2.35,2.35,0,0,0,1.008-1.13v-1.578h-1.988a2.586,2.586,0,0,0-1.713.537,1.608,1.608,0,0,0-.643,1.264A1.326,1.326,0,0,0,443,6546,1.7,1.7,0,0,0,444.192,6546.375Zm1.519-12.185h2.069l.017.055-2.428,2.337h-1.322Z" transform="translate(-244.337 -6490.491)"/>
      <path id="Trazado_163596" data-name="Trazado 163596" d="M456.7,6545.01a1.207,1.207,0,0,0-.444-.963,4.2,4.2,0,0,0-1.687-.655,7.1,7.1,0,0,1-2.665-1.047,2.115,2.115,0,0,1-.9-1.8,2.541,2.541,0,0,1,1.007-2.021,4.583,4.583,0,0,1,5.328.037,2.581,2.581,0,0,1,.958,2.123l-.018.054H456.6a1.546,1.546,0,0,0-.535-1.146,1.973,1.973,0,0,0-1.417-.508,2.04,2.04,0,0,0-1.4.414,1.3,1.3,0,0,0-.458,1,1.111,1.111,0,0,0,.405.907,4.18,4.18,0,0,0,1.645.593,7.113,7.113,0,0,1,2.743,1.075,2.167,2.167,0,0,1,.9,1.821,2.51,2.51,0,0,1-1.048,2.1,4.387,4.387,0,0,1-2.739.8,4.277,4.277,0,0,1-2.931-.943,2.7,2.7,0,0,1-1.016-2.2l.018-.053h1.69a1.628,1.628,0,0,0,.7,1.373,2.719,2.719,0,0,0,1.538.434,2.51,2.51,0,0,0,1.48-.381A1.179,1.179,0,0,0,456.7,6545.01Z" transform="translate(-244.108 -6490.41)"/>
      <path id="Trazado_163597" data-name="Trazado 163597" d="M462.384,6547.417h-1.771v-1.834h1.771Z" transform="translate(-243.88 -6490.228)"/>
      <path id="Trazado_163598" data-name="Trazado 163598" d="M477.84,6541.6h-6v4.677h6.914v1.393H470.07v-13.093h8.588v1.394h-6.816v4.236h6Z" transform="translate(-243.661 -6490.482)"/>
      <path id="Trazado_163599" data-name="Trazado 163599" d="M481.848,6537.87l.126,1.447a3.546,3.546,0,0,1,1.22-1.2,3.253,3.253,0,0,1,1.668-.428,3.18,3.18,0,0,1,2.436.921,4.047,4.047,0,0,1,.864,2.847v6.142h-1.771v-6.106a2.63,2.63,0,0,0-.507-1.825,2.034,2.034,0,0,0-1.552-.539,2.5,2.5,0,0,0-1.353.368,2.677,2.677,0,0,0-.94,1.007v7.1h-1.772v-9.729Z" transform="translate(-243.425 -6490.41)"/>
      <path id="Trazado_163600" data-name="Trazado 163600" d="M499.016,6547.787a4.1,4.1,0,0,1-3.232-1.354,5.086,5.086,0,0,1-1.2-3.51v-.4a4.985,4.985,0,0,1,1.237-3.457,3.809,3.809,0,0,1,2.926-1.381,3.688,3.688,0,0,1,2.976,1.187,4.727,4.727,0,0,1,1.008,3.165v1.106h-6.313l-.028.045a3.829,3.829,0,0,0,.711,2.3,2.266,2.266,0,0,0,1.915.9,4.483,4.483,0,0,0,1.579-.256,3.642,3.642,0,0,0,1.172-.706l.693,1.152a4.111,4.111,0,0,1-1.376.861A5.563,5.563,0,0,1,499.016,6547.787Zm-.27-8.7a1.923,1.923,0,0,0-1.519.748,3.541,3.541,0,0,0-.773,1.877l.017.045h4.487v-.233a2.7,2.7,0,0,0-.558-1.739A1.986,1.986,0,0,0,498.746,6539.083Z" transform="translate(-243.094 -6490.41)"/>
      <path id="Trazado_163601" data-name="Trazado 163601" d="M510.151,6545.01a1.207,1.207,0,0,0-.444-.963,4.191,4.191,0,0,0-1.687-.655,7.1,7.1,0,0,1-2.665-1.047,2.115,2.115,0,0,1-.9-1.8,2.541,2.541,0,0,1,1.007-2.021,4.583,4.583,0,0,1,5.328.037,2.578,2.578,0,0,1,.958,2.123l-.018.054h-1.69a1.546,1.546,0,0,0-.535-1.146,1.972,1.972,0,0,0-1.416-.508,2.037,2.037,0,0,0-1.4.414,1.3,1.3,0,0,0-.459,1,1.111,1.111,0,0,0,.405.907,4.194,4.194,0,0,0,1.645.593,7.113,7.113,0,0,1,2.743,1.075,2.167,2.167,0,0,1,.9,1.821,2.51,2.51,0,0,1-1.048,2.1,4.384,4.384,0,0,1-2.738.8,4.281,4.281,0,0,1-2.932-.943,2.7,2.7,0,0,1-1.016-2.2l.018-.053h1.69a1.626,1.626,0,0,0,.7,1.373,2.715,2.715,0,0,0,1.538.434,2.508,2.508,0,0,0,1.479-.381A1.176,1.176,0,0,0,510.151,6545.01Z" transform="translate(-242.872 -6490.41)"/>
      <path id="Trazado_163602" data-name="Trazado 163602" d="M516.261,6535.571v2.347H518.1v1.313h-1.844v5.908a1.317,1.317,0,0,0,.284.962,1.02,1.02,0,0,0,.75.28,1.745,1.745,0,0,0,.338-.037,2.065,2.065,0,0,0,.327-.089l.234,1.214a1.59,1.59,0,0,1-.579.266,3.023,3.023,0,0,1-.769.1,2.288,2.288,0,0,1-1.718-.652,2.83,2.83,0,0,1-.638-2.045v-5.908h-1.547v-1.312h1.547v-2.347Z" transform="translate(-242.669 -6490.46)"/>
      <path id="Trazado_163603" data-name="Trazado 163603" d="M524.17,6547.787a4.1,4.1,0,0,1-3.232-1.354,5.091,5.091,0,0,1-1.2-3.51v-.4a4.985,4.985,0,0,1,1.237-3.457,3.811,3.811,0,0,1,2.926-1.381,3.69,3.69,0,0,1,2.977,1.187,4.732,4.732,0,0,1,1.007,3.165v1.106h-6.313l-.027.045a3.827,3.827,0,0,0,.71,2.3,2.266,2.266,0,0,0,1.915.9,4.479,4.479,0,0,0,1.579-.256,3.658,3.658,0,0,0,1.174-.706l.692,1.152a4.116,4.116,0,0,1-1.375.861A5.572,5.572,0,0,1,524.17,6547.787Zm-.27-8.7a1.922,1.922,0,0,0-1.519.748,3.54,3.54,0,0,0-.773,1.877l.018.045h4.487v-.233a2.7,2.7,0,0,0-.558-1.739A1.989,1.989,0,0,0,523.9,6539.083Z" transform="translate(-242.512 -6490.41)"/>
      <path id="Trazado_163604" data-name="Trazado 163604" d="M250.8,6558.869l.126,1.277a3.324,3.324,0,0,1,1.21-1.075,3.643,3.643,0,0,1,1.7-.382,3.012,3.012,0,0,1,1.669.45,2.716,2.716,0,0,1,1.047,1.348,3.609,3.609,0,0,1,1.214-1.312,3.191,3.191,0,0,1,1.763-.486,2.916,2.916,0,0,1,2.347,1.021,4.665,4.665,0,0,1,.863,3.071v5.818h-1.771v-5.836a3.226,3.226,0,0,0-.5-2.036,1.8,1.8,0,0,0-1.474-.6,1.879,1.879,0,0,0-1.47.629,2.742,2.742,0,0,0-.661,1.591v6.25h-1.78v-5.836a3.193,3.193,0,0,0-.507-2,1.768,1.768,0,0,0-1.462-.633,2.437,2.437,0,0,0-1.331.333,2.152,2.152,0,0,0-.8.936v7.2h-1.771v-9.729Z" transform="translate(-248.769 -6489.924)"/>
      <path id="Trazado_163605" data-name="Trazado 163605" d="M269,6568.787a4.1,4.1,0,0,1-3.232-1.354,5.092,5.092,0,0,1-1.2-3.51v-.4a4.99,4.99,0,0,1,1.237-3.457,3.811,3.811,0,0,1,2.927-1.381,3.688,3.688,0,0,1,2.976,1.187,4.73,4.73,0,0,1,1.007,3.166v1.106H266.4l-.027.045a3.825,3.825,0,0,0,.71,2.3,2.264,2.264,0,0,0,1.915.9,4.49,4.49,0,0,0,1.579-.255,3.655,3.655,0,0,0,1.174-.706l.692,1.152a4.1,4.1,0,0,1-1.375.861A5.582,5.582,0,0,1,269,6568.787Zm-.269-8.7a1.922,1.922,0,0,0-1.52.749,3.541,3.541,0,0,0-.773,1.877l.018.045h4.487v-.233a2.7,2.7,0,0,0-.558-1.738A1.99,1.99,0,0,0,268.728,6560.083Z" transform="translate(-248.414 -6489.924)"/>
      <path id="Trazado_163606" data-name="Trazado 163606" d="M279.073,6560.433l-.908-.054a2.026,2.026,0,0,0-1.182.333,2.133,2.133,0,0,0-.743.936v6.951h-1.772v-9.729h1.583l.171,1.421a3.4,3.4,0,0,1,1.021-1.178,2.388,2.388,0,0,1,1.4-.423,2.088,2.088,0,0,1,.378.033,2.552,2.552,0,0,1,.3.066Z" transform="translate(-248.185 -6489.924)"/>
      <path id="Trazado_163607" data-name="Trazado 163607" d="M284.439,6567.393a2.392,2.392,0,0,0,1.551-.543,1.661,1.661,0,0,0,.67-1.336h1.591l.018.054a2.741,2.741,0,0,1-1.119,2.239,4.085,4.085,0,0,1-2.711.98,3.94,3.94,0,0,1-3.246-1.384,5.34,5.34,0,0,1-1.124-3.48v-.378a5.32,5.32,0,0,1,1.13-3.467,4.428,4.428,0,0,1,6.033-.381,3.134,3.134,0,0,1,1.048,2.473l-.018.053h-1.6a2.059,2.059,0,0,0-.63-1.515,2.168,2.168,0,0,0-1.591-.625,2.136,2.136,0,0,0-1.992,1,4.723,4.723,0,0,0-.6,2.458v.376a4.774,4.774,0,0,0,.593,2.483A2.14,2.14,0,0,0,284.439,6567.393Z" transform="translate(-248.055 -6489.924)"/>
      <path id="Trazado_163608" data-name="Trazado 163608" d="M296.014,6568.6c-.06-.293-.106-.553-.139-.777a5.828,5.828,0,0,1-.059-.679,4.129,4.129,0,0,1-1.289,1.173,3.305,3.305,0,0,1-1.714.472,3.173,3.173,0,0,1-2.315-.778,2.858,2.858,0,0,1-.8-2.144,2.515,2.515,0,0,1,1.128-2.181,5.274,5.274,0,0,1,3.062-.787h1.924v-.963a1.786,1.786,0,0,0-.521-1.353,2.053,2.053,0,0,0-1.475-.5,2.13,2.13,0,0,0-1.388.437,1.313,1.313,0,0,0-.536,1.048H290.2l-.017-.055a2.354,2.354,0,0,1,1-1.942,4.114,4.114,0,0,1,2.729-.882,4.018,4.018,0,0,1,2.662.842,2.976,2.976,0,0,1,1.007,2.422v4.685a9.142,9.142,0,0,0,.054,1.007,5.153,5.153,0,0,0,.2.953Zm-2.94-1.3a3.168,3.168,0,0,0,1.735-.493,2.342,2.342,0,0,0,1.007-1.129v-1.578h-1.987a2.584,2.584,0,0,0-1.713.537,1.609,1.609,0,0,0-.644,1.265,1.327,1.327,0,0,0,.405,1.022A1.7,1.7,0,0,0,293.073,6567.294Z" transform="translate(-247.833 -6489.924)"/>
      <path id="Trazado_163609" data-name="Trazado 163609" d="M299.527,6564.007a6.485,6.485,0,0,1,1-3.786,3.229,3.229,0,0,1,2.809-1.439,3.493,3.493,0,0,1,1.515.315,3.113,3.113,0,0,1,1.129.917v-5.35h1.771v14.027h-1.448l-.207-1.2a3.162,3.162,0,0,1-1.169,1.034,3.526,3.526,0,0,1-1.609.35,3.339,3.339,0,0,1-2.788-1.29,5.367,5.367,0,0,1-1.007-3.4Zm1.772.188a4.135,4.135,0,0,0,.6,2.361,2.1,2.1,0,0,0,1.871.885,2.341,2.341,0,0,0,1.33-.359,2.7,2.7,0,0,0,.882-1.007v-4.541a2.731,2.731,0,0,0-.886-.958,2.344,2.344,0,0,0-1.309-.355,2.024,2.024,0,0,0-1.884,1.052,5.436,5.436,0,0,0-.607,2.734Z" transform="translate(-247.605 -6490.019)"/>
      <path id="Trazado_163610" data-name="Trazado 163610" d="M309.749,6563.644a5.358,5.358,0,0,1,1.168-3.556,4.332,4.332,0,0,1,6.372-.005,5.338,5.338,0,0,1,1.173,3.561v.2a5.33,5.33,0,0,1-1.168,3.562,4.352,4.352,0,0,1-6.371-.005,5.32,5.32,0,0,1-1.174-3.556Zm1.771.194a4.6,4.6,0,0,0,.653,2.55,2.356,2.356,0,0,0,3.861,0,4.58,4.58,0,0,0,.657-2.55v-.2a4.561,4.561,0,0,0-.661-2.541,2.166,2.166,0,0,0-1.938-1.016,2.137,2.137,0,0,0-1.919,1.016,4.611,4.611,0,0,0-.653,2.541Z" transform="translate(-247.369 -6489.924)"/>
      <path id="Trazado_163611" data-name="Trazado 163611" d="M326.44,6558.869l.126,1.448a3.543,3.543,0,0,1,1.22-1.2,3.247,3.247,0,0,1,1.667-.428,3.177,3.177,0,0,1,2.437.922,4.046,4.046,0,0,1,.864,2.847v6.141h-1.771v-6.105a2.631,2.631,0,0,0-.508-1.826,2.034,2.034,0,0,0-1.551-.539,2.49,2.49,0,0,0-1.353.369,2.683,2.683,0,0,0-.94,1.006v7.1h-1.772v-9.729Z" transform="translate(-247.019 -6489.924)"/>
      <path id="Trazado_163612" data-name="Trazado 163612" d="M334.683,6563.644a5.353,5.353,0,0,1,1.169-3.556,4.331,4.331,0,0,1,6.371-.005,5.338,5.338,0,0,1,1.174,3.561v.2a5.331,5.331,0,0,1-1.169,3.562,4.351,4.351,0,0,1-6.37-.005,5.316,5.316,0,0,1-1.175-3.556Zm1.772.194a4.613,4.613,0,0,0,.652,2.55,2.357,2.357,0,0,0,3.862,0,4.58,4.58,0,0,0,.657-2.55v-.2a4.561,4.561,0,0,0-.661-2.541,2.168,2.168,0,0,0-1.939-1.016,2.137,2.137,0,0,0-1.919,1.016,4.619,4.619,0,0,0-.652,2.541Z" transform="translate(-246.792 -6489.924)"/>
      <path id="Trazado_163613" data-name="Trazado 163613" d="M355.455,6566.009a1.206,1.206,0,0,0-.444-.963,4.19,4.19,0,0,0-1.687-.656,7.1,7.1,0,0,1-2.665-1.047,2.115,2.115,0,0,1-.9-1.8,2.538,2.538,0,0,1,1.007-2.02,4.581,4.581,0,0,1,5.328.037,2.58,2.58,0,0,1,.958,2.122l-.018.054h-1.69a1.546,1.546,0,0,0-.535-1.146,1.971,1.971,0,0,0-1.417-.509,2.04,2.04,0,0,0-1.4.414,1.3,1.3,0,0,0-.458,1,1.111,1.111,0,0,0,.405.907,4.179,4.179,0,0,0,1.645.594,7.121,7.121,0,0,1,2.743,1.074,2.167,2.167,0,0,1,.9,1.821,2.512,2.512,0,0,1-1.048,2.1,4.387,4.387,0,0,1-2.739.8,4.275,4.275,0,0,1-2.931-.944,2.7,2.7,0,0,1-1.016-2.2l.018-.053h1.69a1.628,1.628,0,0,0,.7,1.373,2.723,2.723,0,0,0,1.538.434,2.51,2.51,0,0,0,1.48-.381A1.179,1.179,0,0,0,355.455,6566.009Z" transform="translate(-246.45 -6489.924)"/>
      <path id="Trazado_163614" data-name="Trazado 163614" d="M363.251,6568.787a4.1,4.1,0,0,1-3.232-1.354,5.092,5.092,0,0,1-1.2-3.51v-.4a4.986,4.986,0,0,1,1.237-3.457,3.81,3.81,0,0,1,2.926-1.381,3.688,3.688,0,0,1,2.977,1.187,4.73,4.73,0,0,1,1.007,3.166v1.106h-6.313l-.027.045a3.824,3.824,0,0,0,.71,2.3,2.264,2.264,0,0,0,1.915.9,4.49,4.49,0,0,0,1.579-.255,3.667,3.667,0,0,0,1.174-.706l.692,1.152a4.116,4.116,0,0,1-1.375.861A5.582,5.582,0,0,1,363.251,6568.787Zm-.27-8.7a1.922,1.922,0,0,0-1.519.749,3.541,3.541,0,0,0-.774,1.877l.018.045h4.487v-.233a2.7,2.7,0,0,0-.558-1.738A1.991,1.991,0,0,0,362.981,6560.083Z" transform="translate(-246.234 -6489.924)"/>
      <path id="Trazado_163615" data-name="Trazado 163615" d="M374.78,6558.869l.126,1.448a3.541,3.541,0,0,1,1.219-1.2,3.253,3.253,0,0,1,1.668-.428,3.177,3.177,0,0,1,2.437.922,4.046,4.046,0,0,1,.864,2.847v6.141H379.32v-6.105a2.631,2.631,0,0,0-.507-1.826,2.035,2.035,0,0,0-1.551-.539,2.5,2.5,0,0,0-1.354.369,2.7,2.7,0,0,0-.94,1.006v7.1H373.2v-9.729Z" transform="translate(-245.901 -6489.924)"/>
      <path id="Trazado_163616" data-name="Trazado 163616" d="M387.474,6568.787a4.1,4.1,0,0,1-3.232-1.354,5.087,5.087,0,0,1-1.2-3.51v-.4a4.986,4.986,0,0,1,1.237-3.457,3.809,3.809,0,0,1,2.926-1.381,3.686,3.686,0,0,1,2.976,1.187,4.725,4.725,0,0,1,1.008,3.166v1.106h-6.313l-.028.045a3.825,3.825,0,0,0,.711,2.3,2.264,2.264,0,0,0,1.915.9,4.5,4.5,0,0,0,1.579-.255,3.65,3.65,0,0,0,1.173-.706l.693,1.152a4.111,4.111,0,0,1-1.376.861A5.573,5.573,0,0,1,387.474,6568.787Zm-.27-8.7a1.922,1.922,0,0,0-1.519.749,3.541,3.541,0,0,0-.773,1.877l.017.045h4.487v-.233a2.694,2.694,0,0,0-.558-1.738A1.988,1.988,0,0,0,387.2,6560.083Z" transform="translate(-245.674 -6489.924)"/>
      <path id="Trazado_163617" data-name="Trazado 163617" d="M396.912,6567.393a2.4,2.4,0,0,0,1.552-.543,1.663,1.663,0,0,0,.669-1.336h1.592l.017.054a2.74,2.74,0,0,1-1.118,2.239,4.086,4.086,0,0,1-2.712.98,3.941,3.941,0,0,1-3.246-1.384,5.345,5.345,0,0,1-1.123-3.48v-.378a5.325,5.325,0,0,1,1.129-3.467,4.43,4.43,0,0,1,6.034-.381,3.13,3.13,0,0,1,1.047,2.473l-.017.053h-1.6a2.058,2.058,0,0,0-.629-1.515,2.17,2.17,0,0,0-1.592-.625,2.135,2.135,0,0,0-1.991,1,4.713,4.713,0,0,0-.6,2.458v.376a4.765,4.765,0,0,0,.593,2.483A2.138,2.138,0,0,0,396.912,6567.393Z" transform="translate(-245.454 -6489.924)"/>
      <path id="Trazado_163618" data-name="Trazado 163618" d="M406.546,6568.787a4.1,4.1,0,0,1-3.232-1.354,5.092,5.092,0,0,1-1.2-3.51v-.4a4.986,4.986,0,0,1,1.237-3.457,3.81,3.81,0,0,1,2.926-1.381,3.688,3.688,0,0,1,2.977,1.187,4.73,4.73,0,0,1,1.007,3.166v1.106h-6.313l-.027.045a3.824,3.824,0,0,0,.71,2.3,2.264,2.264,0,0,0,1.915.9,4.491,4.491,0,0,0,1.579-.255,3.667,3.667,0,0,0,1.174-.706l.692,1.152a4.117,4.117,0,0,1-1.375.861A5.582,5.582,0,0,1,406.546,6568.787Zm-.27-8.7a1.922,1.922,0,0,0-1.519.749,3.541,3.541,0,0,0-.773,1.877l.018.045h4.486v-.233a2.7,2.7,0,0,0-.557-1.738A1.991,1.991,0,0,0,406.276,6560.083Z" transform="translate(-245.233 -6489.924)"/>
      <path id="Trazado_163619" data-name="Trazado 163619" d="M417.682,6566.009a1.207,1.207,0,0,0-.445-.963,4.184,4.184,0,0,0-1.686-.656,7.1,7.1,0,0,1-2.666-1.047,2.115,2.115,0,0,1-.9-1.8,2.536,2.536,0,0,1,1.008-2.02,4.581,4.581,0,0,1,5.328.037,2.579,2.579,0,0,1,.957,2.122l-.017.054h-1.691a1.548,1.548,0,0,0-.534-1.146,1.975,1.975,0,0,0-1.417-.509,2.04,2.04,0,0,0-1.4.414,1.3,1.3,0,0,0-.458,1,1.11,1.11,0,0,0,.4.907,4.193,4.193,0,0,0,1.646.594,7.115,7.115,0,0,1,2.742,1.074,2.167,2.167,0,0,1,.9,1.821,2.513,2.513,0,0,1-1.047,2.1,4.389,4.389,0,0,1-2.739.8,4.275,4.275,0,0,1-2.931-.944,2.694,2.694,0,0,1-1.017-2.2l.018-.053h1.69a1.629,1.629,0,0,0,.7,1.373,2.723,2.723,0,0,0,1.538.434,2.506,2.506,0,0,0,1.479-.381A1.178,1.178,0,0,0,417.682,6566.009Z" transform="translate(-245.01 -6489.924)"/>
      <path id="Trazado_163620" data-name="Trazado 163620" d="M423.343,6556.472h-1.771v-1.808h1.771Zm0,12.22h-1.771v-9.729h1.771Z" transform="translate(-244.783 -6490.019)"/>
      <path id="Trazado_163621" data-name="Trazado 163621" d="M428.327,6556.57v2.348h1.843v1.313h-1.843v5.909a1.318,1.318,0,0,0,.283.961,1.024,1.024,0,0,0,.75.28,1.763,1.763,0,0,0,.339-.037,2.1,2.1,0,0,0,.327-.089l.233,1.213a1.581,1.581,0,0,1-.579.266,3.022,3.022,0,0,1-.769.1,2.29,2.29,0,0,1-1.718-.652,2.828,2.828,0,0,1-.638-2.045v-5.909h-1.546v-1.312h1.546v-2.348Z" transform="translate(-244.703 -6489.973)"/>
      <path id="Trazado_163622" data-name="Trazado 163622" d="M438.177,6568.6c-.06-.293-.106-.553-.139-.777a5.6,5.6,0,0,1-.058-.679,4.144,4.144,0,0,1-1.29,1.173,3.3,3.3,0,0,1-1.714.472,3.173,3.173,0,0,1-2.315-.778,2.858,2.858,0,0,1-.8-2.144,2.513,2.513,0,0,1,1.13-2.181,5.268,5.268,0,0,1,3.061-.787h1.925v-.963a1.787,1.787,0,0,0-.522-1.353,2.051,2.051,0,0,0-1.475-.5,2.13,2.13,0,0,0-1.388.437,1.312,1.312,0,0,0-.535,1.048h-1.691l-.017-.055a2.354,2.354,0,0,1,1-1.942,4.116,4.116,0,0,1,2.729-.882,4.018,4.018,0,0,1,2.662.842,2.976,2.976,0,0,1,1.007,2.422v4.685a9.149,9.149,0,0,0,.054,1.007,5.148,5.148,0,0,0,.2.953Zm-2.94-1.3a3.168,3.168,0,0,0,1.735-.493,2.35,2.35,0,0,0,1.008-1.129v-1.578h-1.988a2.584,2.584,0,0,0-1.713.537,1.609,1.609,0,0,0-.644,1.265,1.327,1.327,0,0,0,.405,1.022A1.7,1.7,0,0,0,435.236,6567.294Z" transform="translate(-244.544 -6489.924)"/>
      <path id="Trazado_163623" data-name="Trazado 163623" d="M443.669,6558.869l.126,1.448a3.532,3.532,0,0,1,1.219-1.2,3.253,3.253,0,0,1,1.668-.428,3.18,3.18,0,0,1,2.437.922,4.051,4.051,0,0,1,.862,2.847v6.141h-1.771v-6.105a2.632,2.632,0,0,0-.507-1.826,2.036,2.036,0,0,0-1.552-.539,2.492,2.492,0,0,0-1.353.369,2.691,2.691,0,0,0-.94,1.006v7.1h-1.771v-9.729Z" transform="translate(-244.308 -6489.924)"/>
      <path id="Trazado_163624" data-name="Trazado 163624" d="M462.778,6568.6c-.06-.293-.106-.553-.139-.777a5.828,5.828,0,0,1-.059-.679,4.121,4.121,0,0,1-1.29,1.173,3.3,3.3,0,0,1-1.713.472,3.17,3.17,0,0,1-2.315-.778,2.854,2.854,0,0,1-.8-2.144,2.515,2.515,0,0,1,1.129-2.181,5.27,5.27,0,0,1,3.061-.787h1.924v-.963a1.787,1.787,0,0,0-.522-1.353,2.049,2.049,0,0,0-1.474-.5,2.126,2.126,0,0,0-1.388.437,1.313,1.313,0,0,0-.536,1.048h-1.69l-.018-.055a2.356,2.356,0,0,1,1-1.942,4.114,4.114,0,0,1,2.729-.882,4.014,4.014,0,0,1,2.661.842,2.977,2.977,0,0,1,1.008,2.422v4.685a9.161,9.161,0,0,0,.053,1.007,5.234,5.234,0,0,0,.2.953Zm-2.94-1.3a3.17,3.17,0,0,0,1.735-.493,2.342,2.342,0,0,0,1.007-1.129v-1.578h-1.987a2.584,2.584,0,0,0-1.713.537,1.609,1.609,0,0,0-.644,1.265,1.327,1.327,0,0,0,.405,1.022A1.7,1.7,0,0,0,459.837,6567.294Z" transform="translate(-243.975 -6489.924)"/>
      <path id="Trazado_163625" data-name="Trazado 163625" d="M474.977,6564.1a5.361,5.361,0,0,1-1.008,3.4,3.326,3.326,0,0,1-2.778,1.29,3.867,3.867,0,0,1-1.578-.3,3.017,3.017,0,0,1-1.156-.9v4.756h-1.772v-13.47h1.358l.279,1.259a3.214,3.214,0,0,1,1.187-1.07,3.54,3.54,0,0,1,1.654-.369,3.235,3.235,0,0,1,2.811,1.435,6.483,6.483,0,0,1,1,3.79Zm-1.772-.193a5.134,5.134,0,0,0-.651-2.716,2.113,2.113,0,0,0-1.92-1.064,2.369,2.369,0,0,0-1.3.345,2.6,2.6,0,0,0-.872.947v4.7a2.529,2.529,0,0,0,.872.938,2.449,2.449,0,0,0,1.322.336,2.184,2.184,0,0,0,1.907-.919,4.051,4.051,0,0,0,.647-2.377Z" transform="translate(-243.739 -6489.924)"/>
      <path id="Trazado_163626" data-name="Trazado 163626" d="M478.829,6568.692h-1.772v-14.027h1.772Z" transform="translate(-243.499 -6490.019)"/>
      <path id="Trazado_163627" data-name="Trazado 163627" d="M483.364,6556.472h-1.771v-1.808h1.771Zm0,12.22h-1.771v-9.729h1.771Z" transform="translate(-243.394 -6490.019)"/>
      <path id="Trazado_163628" data-name="Trazado 163628" d="M489.953,6567.393a2.4,2.4,0,0,0,1.552-.543,1.663,1.663,0,0,0,.669-1.336h1.592l.017.054a2.74,2.74,0,0,1-1.118,2.239,4.086,4.086,0,0,1-2.712.98,3.941,3.941,0,0,1-3.246-1.384,5.345,5.345,0,0,1-1.123-3.48v-.378a5.325,5.325,0,0,1,1.128-3.467,4.43,4.43,0,0,1,6.034-.381,3.13,3.13,0,0,1,1.047,2.473l-.017.053h-1.6a2.058,2.058,0,0,0-.629-1.515,2.17,2.17,0,0,0-1.592-.625,2.135,2.135,0,0,0-1.991,1,4.713,4.713,0,0,0-.6,2.458v.376a4.764,4.764,0,0,0,.593,2.483A2.138,2.138,0,0,0,489.953,6567.393Z" transform="translate(-243.302 -6489.924)"/>
      <path id="Trazado_163629" data-name="Trazado 163629" d="M501.529,6568.6c-.06-.293-.106-.553-.139-.777a5.835,5.835,0,0,1-.059-.679,4.121,4.121,0,0,1-1.29,1.173,3.3,3.3,0,0,1-1.713.472,3.17,3.17,0,0,1-2.315-.778,2.854,2.854,0,0,1-.8-2.144,2.515,2.515,0,0,1,1.129-2.181,5.27,5.27,0,0,1,3.061-.787h1.924v-.963a1.787,1.787,0,0,0-.522-1.353,2.049,2.049,0,0,0-1.474-.5,2.126,2.126,0,0,0-1.388.437,1.313,1.313,0,0,0-.536,1.048h-1.69l-.018-.055a2.356,2.356,0,0,1,1-1.942,4.114,4.114,0,0,1,2.729-.882,4.014,4.014,0,0,1,2.661.842,2.977,2.977,0,0,1,1.008,2.422v4.685a9.154,9.154,0,0,0,.053,1.007,5.145,5.145,0,0,0,.2.953Zm-2.941-1.3a3.171,3.171,0,0,0,1.736-.493,2.342,2.342,0,0,0,1.007-1.129v-1.578h-1.987a2.582,2.582,0,0,0-1.713.537,1.609,1.609,0,0,0-.644,1.265,1.327,1.327,0,0,0,.405,1.022A1.7,1.7,0,0,0,498.587,6567.294Z" transform="translate(-243.079 -6489.924)"/>
      <path id="Trazado_163630" data-name="Trazado 163630" d="M510.041,6560.433l-.908-.054a2.031,2.031,0,0,0-1.183.333,2.137,2.137,0,0,0-.742.936v6.951h-1.772v-9.729h1.583l.171,1.421a3.4,3.4,0,0,1,1.021-1.178,2.387,2.387,0,0,1,1.4-.423,2.109,2.109,0,0,1,.379.033,2.6,2.6,0,0,1,.3.066Z" transform="translate(-242.843 -6489.924)"/>
      <path id="Trazado_163631" data-name="Trazado 163631" d="M250.99,6581.267a3.571,3.571,0,0,1,1.237-1.093,3.378,3.378,0,0,1,1.623-.391,3.145,3.145,0,0,1,2.424.935,4.119,4.119,0,0,1,.868,2.878v6.1h-1.772v-6.115a2.6,2.6,0,0,0-.517-1.78,1.966,1.966,0,0,0-1.542-.575,2.625,2.625,0,0,0-1.335.345,2.91,2.91,0,0,0-.985.94v7.185h-1.771v-14.028h1.771Z" transform="translate(-248.769 -6489.532)"/>
      <path id="Trazado_163632" data-name="Trazado 163632" d="M263.5,6589.788a4.1,4.1,0,0,1-3.232-1.354,5.091,5.091,0,0,1-1.2-3.51v-.4a4.99,4.99,0,0,1,1.237-3.457,3.813,3.813,0,0,1,2.927-1.381,3.686,3.686,0,0,1,2.976,1.187,4.731,4.731,0,0,1,1.007,3.166v1.106H260.9l-.027.045a3.827,3.827,0,0,0,.71,2.3,2.269,2.269,0,0,0,1.915.9,4.479,4.479,0,0,0,1.579-.256,3.638,3.638,0,0,0,1.174-.706l.692,1.152a4.1,4.1,0,0,1-1.375.86A5.571,5.571,0,0,1,263.5,6589.788Zm-.269-8.7a1.923,1.923,0,0,0-1.52.748,3.544,3.544,0,0,0-.773,1.878l.018.045h4.487v-.234a2.7,2.7,0,0,0-.558-1.738A1.989,1.989,0,0,0,263.226,6581.083Z" transform="translate(-248.541 -6489.439)"/>
      <path id="Trazado_163633" data-name="Trazado 163633" d="M273.572,6581.434l-.909-.054a2.026,2.026,0,0,0-1.182.333,2.131,2.131,0,0,0-.743.935v6.951h-1.771v-9.73h1.582l.171,1.421a3.4,3.4,0,0,1,1.021-1.178,2.392,2.392,0,0,1,1.4-.423,2.181,2.181,0,0,1,.378.033,2.632,2.632,0,0,1,.3.067Z" transform="translate(-248.312 -6489.439)"/>
      <path id="Trazado_163634" data-name="Trazado 163634" d="M279.741,6581.434l-.908-.054a2.032,2.032,0,0,0-1.183.333,2.136,2.136,0,0,0-.742.935v6.951h-1.772v-9.73h1.583l.171,1.421a3.4,3.4,0,0,1,1.021-1.178,2.392,2.392,0,0,1,1.4-.423,2.189,2.189,0,0,1,.378.033,2.633,2.633,0,0,1,.3.067Z" transform="translate(-248.169 -6489.439)"/>
      <path id="Trazado_163635" data-name="Trazado 163635" d="M287.295,6589.6c-.059-.294-.105-.554-.139-.777a5.828,5.828,0,0,1-.058-.68,4.116,4.116,0,0,1-1.29,1.173,3.3,3.3,0,0,1-1.714.472,3.173,3.173,0,0,1-2.314-.778,2.857,2.857,0,0,1-.8-2.145,2.512,2.512,0,0,1,1.13-2.18,5.264,5.264,0,0,1,3.061-.787H287.1v-.963a1.787,1.787,0,0,0-.522-1.353,2.05,2.05,0,0,0-1.474-.5,2.13,2.13,0,0,0-1.389.436,1.316,1.316,0,0,0-.535,1.048h-1.691l-.017-.054a2.357,2.357,0,0,1,1-1.942,4.116,4.116,0,0,1,2.729-.882,4.016,4.016,0,0,1,2.662.842,2.976,2.976,0,0,1,1.007,2.423v4.685a9.127,9.127,0,0,0,.054,1.006,5.222,5.222,0,0,0,.2.954Zm-2.94-1.3a3.161,3.161,0,0,0,1.735-.494,2.348,2.348,0,0,0,1.008-1.129v-1.577h-1.988a2.581,2.581,0,0,0-1.712.537,1.609,1.609,0,0,0-.644,1.265,1.326,1.326,0,0,0,.4,1.022A1.7,1.7,0,0,0,284.354,6588.295Z" transform="translate(-248.034 -6489.439)"/>
      <path id="Trazado_163636" data-name="Trazado 163636" d="M292.787,6579.869l.126,1.276a3.32,3.32,0,0,1,1.209-1.075,3.646,3.646,0,0,1,1.7-.382,3.011,3.011,0,0,1,1.669.45,2.72,2.72,0,0,1,1.048,1.349,3.609,3.609,0,0,1,1.213-1.313,3.2,3.2,0,0,1,1.763-.486,2.914,2.914,0,0,1,2.347,1.021,4.665,4.665,0,0,1,.864,3.07v5.819h-1.772v-5.836a3.236,3.236,0,0,0-.494-2.037,1.806,1.806,0,0,0-1.475-.6,1.875,1.875,0,0,0-1.469.629,2.747,2.747,0,0,0-.662,1.591v6.25h-1.78v-5.836a3.193,3.193,0,0,0-.507-2,1.768,1.768,0,0,0-1.462-.633,2.431,2.431,0,0,0-1.33.332,2.153,2.153,0,0,0-.8.935v7.2H291.2v-9.73Z" transform="translate(-247.798 -6489.439)"/>
      <path id="Trazado_163637" data-name="Trazado 163637" d="M308.848,6577.472h-1.771v-1.809h1.771Zm0,12.22h-1.771v-9.729h1.771Z" transform="translate(-247.431 -6489.532)"/>
      <path id="Trazado_163638" data-name="Trazado 163638" d="M315.518,6589.788a4.1,4.1,0,0,1-3.232-1.354,5.087,5.087,0,0,1-1.2-3.51v-.4a4.986,4.986,0,0,1,1.237-3.457,3.809,3.809,0,0,1,2.926-1.381,3.686,3.686,0,0,1,2.976,1.187,4.731,4.731,0,0,1,1.008,3.166v1.106h-6.313l-.028.045a3.827,3.827,0,0,0,.711,2.3,2.266,2.266,0,0,0,1.915.9,4.483,4.483,0,0,0,1.579-.256,3.632,3.632,0,0,0,1.173-.706l.693,1.152a4.1,4.1,0,0,1-1.376.86A5.562,5.562,0,0,1,315.518,6589.788Zm-.27-8.7a1.921,1.921,0,0,0-1.519.748,3.544,3.544,0,0,0-.773,1.878l.017.045h4.487v-.234a2.7,2.7,0,0,0-.558-1.738A1.987,1.987,0,0,0,315.248,6581.083Z" transform="translate(-247.338 -6489.439)"/>
      <path id="Trazado_163639" data-name="Trazado 163639" d="M322.573,6579.869l.126,1.448a3.536,3.536,0,0,1,1.219-1.2,3.258,3.258,0,0,1,1.668-.428,3.177,3.177,0,0,1,2.437.922,4.046,4.046,0,0,1,.863,2.847v6.142h-1.772v-6.106a2.63,2.63,0,0,0-.507-1.825,2.033,2.033,0,0,0-1.551-.539,2.5,2.5,0,0,0-1.354.368,2.7,2.7,0,0,0-.94,1.007v7.1H320.99v-9.73Z" transform="translate(-247.109 -6489.439)"/>
      <path id="Trazado_163640" data-name="Trazado 163640" d="M333.581,6577.57v2.348h1.843v1.312h-1.843v5.909a1.319,1.319,0,0,0,.283.962,1.022,1.022,0,0,0,.75.28,1.708,1.708,0,0,0,.338-.037,2.027,2.027,0,0,0,.328-.089l.233,1.213a1.565,1.565,0,0,1-.579.266,2.98,2.98,0,0,1-.769.1,2.29,2.29,0,0,1-1.718-.652,2.829,2.829,0,0,1-.638-2.045v-5.909h-1.547v-1.312h1.547v-2.348Z" transform="translate(-246.894 -6489.487)"/>
      <path id="Trazado_163641" data-name="Trazado 163641" d="M343.431,6589.6c-.06-.294-.106-.554-.139-.777a5.83,5.83,0,0,1-.059-.68,4.112,4.112,0,0,1-1.289,1.173,3.3,3.3,0,0,1-1.714.472,3.177,3.177,0,0,1-2.315-.778,2.86,2.86,0,0,1-.8-2.145,2.513,2.513,0,0,1,1.128-2.18,5.27,5.27,0,0,1,3.062-.787h1.924v-.963a1.787,1.787,0,0,0-.521-1.353,2.053,2.053,0,0,0-1.475-.5,2.129,2.129,0,0,0-1.388.436,1.314,1.314,0,0,0-.536,1.048h-1.69l-.017-.054a2.354,2.354,0,0,1,1-1.942,4.114,4.114,0,0,1,2.729-.882,4.018,4.018,0,0,1,2.662.842,2.977,2.977,0,0,1,1.007,2.423v4.685a9.127,9.127,0,0,0,.054,1.006,5.146,5.146,0,0,0,.2.954Zm-2.94-1.3a3.16,3.16,0,0,0,1.735-.494,2.34,2.34,0,0,0,1.007-1.129v-1.577h-1.987a2.586,2.586,0,0,0-1.713.537,1.609,1.609,0,0,0-.644,1.265,1.327,1.327,0,0,0,.405,1.022A1.7,1.7,0,0,0,340.49,6588.295Z" transform="translate(-246.736 -6489.439)"/>
      <path id="Trazado_163642" data-name="Trazado 163642" d="M353,6587.01a1.208,1.208,0,0,0-.445-.963,4.179,4.179,0,0,0-1.686-.655,7.1,7.1,0,0,1-2.666-1.047,2.117,2.117,0,0,1-.9-1.8,2.54,2.54,0,0,1,1.008-2.02,4.581,4.581,0,0,1,5.328.037,2.576,2.576,0,0,1,.957,2.122l-.017.054h-1.691a1.544,1.544,0,0,0-.534-1.146,1.976,1.976,0,0,0-1.417-.508,2.04,2.04,0,0,0-1.4.414,1.3,1.3,0,0,0-.458,1,1.112,1.112,0,0,0,.4.907,4.186,4.186,0,0,0,1.646.593,7.108,7.108,0,0,1,2.742,1.075,2.166,2.166,0,0,1,.9,1.821,2.511,2.511,0,0,1-1.047,2.1,4.39,4.39,0,0,1-2.739.8,4.277,4.277,0,0,1-2.931-.943,2.7,2.7,0,0,1-1.016-2.2l.017-.053h1.691a1.628,1.628,0,0,0,.7,1.373,2.723,2.723,0,0,0,1.538.434,2.506,2.506,0,0,0,1.479-.381A1.178,1.178,0,0,0,353,6587.01Z" transform="translate(-246.506 -6489.439)"/>
      <path id="Trazado_163643" data-name="Trazado 163643" d="M360.831,6585.007a6.491,6.491,0,0,1,1-3.785,3.23,3.23,0,0,1,2.809-1.439,3.487,3.487,0,0,1,1.516.315,3.1,3.1,0,0,1,1.127.917v-5.35h1.772v14.028h-1.448l-.207-1.2a3.169,3.169,0,0,1-1.169,1.034,3.523,3.523,0,0,1-1.609.351,3.339,3.339,0,0,1-2.788-1.29,5.368,5.368,0,0,1-1.007-3.4Zm1.771.188a4.132,4.132,0,0,0,.6,2.36,2.1,2.1,0,0,0,1.87.886,2.351,2.351,0,0,0,1.331-.359,2.684,2.684,0,0,0,.881-1.008v-4.541a2.711,2.711,0,0,0-.885-.957,2.34,2.34,0,0,0-1.309-.355,2.024,2.024,0,0,0-1.884,1.051,5.437,5.437,0,0,0-.608,2.734Z" transform="translate(-246.187 -6489.532)"/>
      <path id="Trazado_163644" data-name="Trazado 163644" d="M375.5,6589.788a4.1,4.1,0,0,1-3.232-1.354,5.091,5.091,0,0,1-1.2-3.51v-.4a4.986,4.986,0,0,1,1.237-3.457,3.812,3.812,0,0,1,2.926-1.381,3.688,3.688,0,0,1,2.977,1.187,4.731,4.731,0,0,1,1.007,3.166v1.106H372.9l-.027.045a3.827,3.827,0,0,0,.71,2.3,2.266,2.266,0,0,0,1.915.9,4.479,4.479,0,0,0,1.579-.256,3.649,3.649,0,0,0,1.173-.706l.692,1.152a4.108,4.108,0,0,1-1.375.86A5.571,5.571,0,0,1,375.5,6589.788Zm-.27-8.7a1.921,1.921,0,0,0-1.519.748,3.544,3.544,0,0,0-.773,1.878l.018.045h4.487v-.234a2.7,2.7,0,0,0-.558-1.738A1.991,1.991,0,0,0,375.233,6581.083Z" transform="translate(-245.951 -6489.439)"/>
      <path id="Trazado_163645" data-name="Trazado 163645" d="M387.032,6579.869l.126,1.276a3.315,3.315,0,0,1,1.21-1.075,3.64,3.64,0,0,1,1.7-.382,3.01,3.01,0,0,1,1.668.45,2.715,2.715,0,0,1,1.048,1.349,3.61,3.61,0,0,1,1.213-1.313,3.2,3.2,0,0,1,1.763-.486,2.914,2.914,0,0,1,2.347,1.021,4.666,4.666,0,0,1,.864,3.07v5.819H397.2v-5.836a3.236,3.236,0,0,0-.494-2.037,1.805,1.805,0,0,0-1.475-.6,1.875,1.875,0,0,0-1.469.629,2.747,2.747,0,0,0-.662,1.591v6.25h-1.78v-5.836a3.193,3.193,0,0,0-.507-2,1.766,1.766,0,0,0-1.462-.633,2.431,2.431,0,0,0-1.33.332,2.153,2.153,0,0,0-.8.935v7.2h-1.771v-9.73Z" transform="translate(-245.618 -6489.439)"/>
      <path id="Trazado_163646" data-name="Trazado 163646" d="M405.228,6589.788a4.1,4.1,0,0,1-3.232-1.354,5.086,5.086,0,0,1-1.2-3.51v-.4a4.986,4.986,0,0,1,1.237-3.457,3.809,3.809,0,0,1,2.926-1.381,3.686,3.686,0,0,1,2.976,1.187,4.732,4.732,0,0,1,1.008,3.166v1.106h-6.313l-.028.045a3.827,3.827,0,0,0,.711,2.3,2.266,2.266,0,0,0,1.915.9,4.483,4.483,0,0,0,1.579-.256,3.633,3.633,0,0,0,1.172-.706l.693,1.152a4.1,4.1,0,0,1-1.376.86A5.562,5.562,0,0,1,405.228,6589.788Zm-.27-8.7a1.921,1.921,0,0,0-1.519.748,3.544,3.544,0,0,0-.773,1.878l.017.045h4.487v-.234a2.7,2.7,0,0,0-.558-1.738A1.987,1.987,0,0,0,404.958,6581.083Z" transform="translate(-245.263 -6489.439)"/>
      <path id="Trazado_163647" data-name="Trazado 163647" d="M415.3,6581.434l-.909-.054a2.026,2.026,0,0,0-1.182.333,2.138,2.138,0,0,0-.743.935v6.951H410.7v-9.73h1.583l.171,1.421a3.379,3.379,0,0,1,1.021-1.178,2.386,2.386,0,0,1,1.4-.423,2.181,2.181,0,0,1,.378.033,2.634,2.634,0,0,1,.3.067Z" transform="translate(-245.034 -6489.439)"/>
      <path id="Trazado_163648" data-name="Trazado 163648" d="M420.669,6588.394a2.394,2.394,0,0,0,1.552-.543,1.663,1.663,0,0,0,.669-1.336h1.592l.017.054a2.736,2.736,0,0,1-1.119,2.238,4.077,4.077,0,0,1-2.711.98,3.94,3.94,0,0,1-3.246-1.384,5.344,5.344,0,0,1-1.123-3.479v-.379a5.323,5.323,0,0,1,1.129-3.466,4.429,4.429,0,0,1,6.034-.382,3.133,3.133,0,0,1,1.047,2.473l-.018.053h-1.6a2.056,2.056,0,0,0-.629-1.515,2.168,2.168,0,0,0-1.592-.625,2.134,2.134,0,0,0-1.991,1,4.712,4.712,0,0,0-.6,2.458v.376a4.764,4.764,0,0,0,.593,2.483A2.138,2.138,0,0,0,420.669,6588.394Z" transform="translate(-244.904 -6489.439)"/>
      <path id="Trazado_163649" data-name="Trazado 163649" d="M432.244,6589.6c-.059-.294-.105-.554-.138-.777a5.619,5.619,0,0,1-.059-.68,4.1,4.1,0,0,1-1.29,1.173,3.3,3.3,0,0,1-1.714.472,3.173,3.173,0,0,1-2.314-.778,2.857,2.857,0,0,1-.8-2.145,2.514,2.514,0,0,1,1.13-2.18,5.264,5.264,0,0,1,3.061-.787h1.924v-.963a1.787,1.787,0,0,0-.522-1.353,2.05,2.05,0,0,0-1.474-.5,2.13,2.13,0,0,0-1.389.436,1.316,1.316,0,0,0-.535,1.048h-1.69l-.018-.054a2.357,2.357,0,0,1,1-1.942,4.118,4.118,0,0,1,2.729-.882,4.015,4.015,0,0,1,2.662.842,2.976,2.976,0,0,1,1.007,2.423v4.685a9.135,9.135,0,0,0,.054,1.006,5.144,5.144,0,0,0,.2.954Zm-2.94-1.3a3.164,3.164,0,0,0,1.736-.494,2.345,2.345,0,0,0,1.007-1.129v-1.577h-1.987a2.584,2.584,0,0,0-1.713.537,1.609,1.609,0,0,0-.644,1.265,1.33,1.33,0,0,0,.4,1.022A1.7,1.7,0,0,0,429.3,6588.295Z" transform="translate(-244.682 -6489.439)"/>
      <path id="Trazado_163650" data-name="Trazado 163650" d="M435.758,6585.007a6.491,6.491,0,0,1,1-3.785,3.228,3.228,0,0,1,2.809-1.439,3.487,3.487,0,0,1,1.516.315,3.113,3.113,0,0,1,1.128.917v-5.35h1.772v14.028h-1.448l-.208-1.2a3.158,3.158,0,0,1-1.168,1.034,3.523,3.523,0,0,1-1.609.351,3.338,3.338,0,0,1-2.788-1.29,5.368,5.368,0,0,1-1.007-3.4Zm1.771.188a4.124,4.124,0,0,0,.6,2.36,2.1,2.1,0,0,0,1.87.886,2.351,2.351,0,0,0,1.331-.359,2.7,2.7,0,0,0,.881-1.008v-4.541a2.73,2.73,0,0,0-.885-.957,2.342,2.342,0,0,0-1.309-.355,2.023,2.023,0,0,0-1.884,1.051,5.427,5.427,0,0,0-.608,2.734Z" transform="translate(-244.454 -6489.532)"/>
      <path id="Trazado_163651" data-name="Trazado 163651" d="M450.43,6589.788a4.1,4.1,0,0,1-3.232-1.354,5.087,5.087,0,0,1-1.2-3.51v-.4a4.986,4.986,0,0,1,1.237-3.457,3.81,3.81,0,0,1,2.926-1.381,3.686,3.686,0,0,1,2.976,1.187,4.726,4.726,0,0,1,1.008,3.166v1.106h-6.313l-.028.045a3.827,3.827,0,0,0,.711,2.3,2.266,2.266,0,0,0,1.915.9,4.483,4.483,0,0,0,1.579-.256,3.633,3.633,0,0,0,1.173-.706l.693,1.152a4.1,4.1,0,0,1-1.376.86A5.562,5.562,0,0,1,450.43,6589.788Zm-.27-8.7a1.921,1.921,0,0,0-1.519.748,3.544,3.544,0,0,0-.773,1.878l.018.045h4.486v-.234a2.7,2.7,0,0,0-.558-1.738A1.987,1.987,0,0,0,450.16,6581.083Z" transform="translate(-244.218 -6489.439)"/>
      <path id="Trazado_163652" data-name="Trazado 163652" d="M455.5,6584.645a5.356,5.356,0,0,1,1.168-3.556,3.919,3.919,0,0,1,3.175-1.4,3.96,3.96,0,0,1,3.2,1.395,5.336,5.336,0,0,1,1.173,3.561v.2a5.33,5.33,0,0,1-1.168,3.562,4.352,4.352,0,0,1-6.371-.005,5.322,5.322,0,0,1-1.174-3.556Zm1.771.193a4.6,4.6,0,0,0,.653,2.55,2.356,2.356,0,0,0,3.861,0,4.578,4.578,0,0,0,.657-2.55v-.2a4.566,4.566,0,0,0-.661-2.542,2.167,2.167,0,0,0-1.938-1.015,2.137,2.137,0,0,0-1.919,1.015,4.615,4.615,0,0,0-.653,2.542Z" transform="translate(-243.998 -6489.439)"/>
      <path id="Trazado_163653" data-name="Trazado 163653" d="M468.062,6589.417h-1.771v-1.835h1.771Z" transform="translate(-243.748 -6489.256)"/>
    </g>
    <g id="Grupo_71753" data-name="Grupo 71753" transform="translate(296.424 4133.029)">
      <path id="Trazado_163654" data-name="Trazado 163654" d="M199.275,6516.433a28.062,28.062,0,1,0,28.061,28.063A28.062,28.062,0,0,0,199.275,6516.433Z" transform="translate(-171.213 -6516.433)" fill="#e2cb5e"/>
      <path id="Trazado_163655" data-name="Trazado 163655" d="M199.918,6523.924a1.258,1.258,0,0,0-1.725,0l-17.081,17.1a1.22,1.22,0,0,0,.861,2.084h8.54v18.282a1.22,1.22,0,0,0,1.221,1.219h14.641a1.22,1.22,0,0,0,1.22-1.219v-18.282h8.541a1.221,1.221,0,0,0,.864-2.084Z" transform="translate(-170.992 -6516.267)" fill="#fafafa"/>
    </g>
  </g>
</svg>
