<svg xmlns="http://www.w3.org/2000/svg" width="1140.522" height="779.183" viewBox="0 0 1140.522 779.183">
  <g id="Grupo_71749" data-name="Grupo 71749" transform="translate(-93.145 -5343.078)">
    <rect id="Rectángulo_20365" data-name="Rectángulo 20365" width="1140.522" height="779.183" rx="23.382" transform="translate(93.144 5343.078)" fill="#bde9f9"/>
    <g id="Grupo_71744" data-name="Grupo 71744">
      <rect id="Rectángulo_20366" data-name="Rectángulo 20366" width="232.282" height="388.865" rx="14.042" transform="translate(235.466 5484.782)" fill="#75c9f1"/>
      <rect id="Rectángulo_20367" data-name="Rectángulo 20367" width="232.282" height="388.865" rx="14.042" transform="translate(348.79 5591.607)" fill="#53bced"/>
      <g id="Grupo_71742" data-name="Grupo 71742">
        <path id="Trazado_163496" data-name="Trazado 163496" d="M576.463,5582.555a2.728,2.728,0,0,1-2.728-2.728V5508.7a18.12,18.12,0,0,0-18.1-18.1H478.986a2.728,2.728,0,0,1,0-5.456h76.648a23.582,23.582,0,0,1,23.557,23.556v71.131A2.728,2.728,0,0,1,576.463,5582.555Z" fill="#2a5e77"/>
      </g>
      <g id="Grupo_71743" data-name="Grupo 71743">
        <path id="Trazado_163497" data-name="Trazado 163497" d="M238.194,5879.325a2.727,2.727,0,0,1,2.728,2.728v71.131a18.121,18.121,0,0,0,18.1,18.1h76.648a2.728,2.728,0,0,1,0,5.456H259.023a23.583,23.583,0,0,1-23.557-23.556v-71.131A2.728,2.728,0,0,1,238.194,5879.325Z" fill="#2a5e77"/>
      </g>
      <rect id="Rectángulo_20368" data-name="Rectángulo 20368" width="311.46" height="456.066" rx="12.363" transform="translate(252.539 5504.594)" fill="#f2f4ff"/>
    </g>
    <text id="Mercado_mayorista_En_este_tipo_de_mercadao_es_donde_se_venden_mercaderías_al_por_mayor_y_en_grandes_cantidades._Allí_acuden_generalmente_los_intermediarios_y_distribuidores_a_comprar_en_cantidad_los_productos_que_después_han_de_revender_a_otros_comercia" data-name="Mercado mayorista

En este tipo de mercadao es donde se venden mercaderías al por mayor y en grandes cantidades. Allí acuden, generalmente, los intermediarios y distribuidores a comprar en cantidad los productos que después han de revender a otros comercia" transform="translate(268.249 5519.496)" fill="#2a5e77" font-size="20" font-family="MyriadPro-Bold, Myriad Pro" font-weight="700"><tspan x="0" y="15">Mercado mayorista</tspan><tspan x="0" y="39"></tspan><tspan font-family="MyriadPro-Regular, Myriad Pro" font-weight="400"><tspan x="0" y="63">En este tipo de mercadao es </tspan><tspan x="0" y="87">donde se venden mercaderías al </tspan><tspan x="0" y="111">por mayor y en grandes </tspan><tspan x="0" y="135">cantidades. Allí acuden, </tspan><tspan x="0" y="159">generalmente, los intermediarios </tspan><tspan x="0" y="183">y distribuidores a comprar en </tspan><tspan x="0" y="207">cantidad los productos que </tspan><tspan x="0" y="231">después han de revender a otros </tspan><tspan x="0" y="255">comerciantes, a precios mayores </tspan><tspan x="0" y="279">y caprichosamente elevados.</tspan></tspan><tspan font-family="MyriadPro-Regular" font-weight="400"><tspan x="0" y="303"></tspan></tspan></text>
    <rect id="Rectángulo_20369" data-name="Rectángulo 20369" width="232.282" height="388.865" rx="14.042" transform="translate(738.594 5484.782)" fill="#db6e5f"/>
    <rect id="Rectángulo_20370" data-name="Rectángulo 20370" width="232.282" height="388.865" rx="14.042" transform="translate(851.918 5591.607)" fill="#db6e5f"/>
    <g id="Grupo_71745" data-name="Grupo 71745">
      <path id="Trazado_163498" data-name="Trazado 163498" d="M1079.591,5582.555a2.728,2.728,0,0,1-2.728-2.728V5508.7a18.12,18.12,0,0,0-18.1-18.1H982.114a2.728,2.728,0,0,1,0-5.456h76.648a23.583,23.583,0,0,1,23.557,23.556v71.131A2.728,2.728,0,0,1,1079.591,5582.555Z" fill="#a45347"/>
    </g>
    <g id="Grupo_71746" data-name="Grupo 71746">
      <path id="Trazado_163499" data-name="Trazado 163499" d="M741.322,5879.325a2.728,2.728,0,0,1,2.728,2.728v71.131a18.121,18.121,0,0,0,18.1,18.1H838.8a2.728,2.728,0,0,1,0,5.456H762.151a23.583,23.583,0,0,1-23.557-23.556v-71.131A2.728,2.728,0,0,1,741.322,5879.325Z" fill="#a45347"/>
    </g>
    <rect id="Rectángulo_20371" data-name="Rectángulo 20371" width="311.46" height="456.066" rx="12.363" transform="translate(755.667 5504.594)" fill="#fceeed"/>
    <text id="Mercado_minorista_Llamados_también_de_retail_o_menudeo_donde_se_venden_en_pequeñas_cantidades_directamente_a_los_consumidores._Una_nueva_modalidad_de_este_tipo_de_mercados_se_tiene_en_los_supermercados_los_que_constituyen_grandes_cadenas_u_organizaciones" data-name="Mercado minorista
Llamados también de retail o menudeo, donde se venden en pequeñas cantidades directamente a los consumidores. Una nueva modalidad de este tipo de mercados se tiene en los supermercados, los que constituyen grandes cadenas u organizaciones" transform="translate(771.377 5518.496)" fill="#6e3730" font-size="20" font-family="MyriadPro-Bold, Myriad Pro" font-weight="700"><tspan x="0" y="15">Mercado minorista</tspan><tspan font-family="MyriadPro-Regular, Myriad Pro" font-weight="400"><tspan x="0" y="39">Llamados también de retail o </tspan><tspan x="0" y="63">menudeo, donde se venden en </tspan><tspan x="0" y="87">pequeñas cantidades </tspan><tspan x="0" y="111">directamente a los consumidores. </tspan><tspan x="0" y="135">Una nueva modalidad de este </tspan><tspan x="0" y="159">tipo de mercados se tiene en los </tspan><tspan x="0" y="183">supermercados, los que </tspan><tspan x="0" y="207">constituyen grandes cadenas u </tspan><tspan x="0" y="231">organizaciones que mueven </tspan><tspan x="0" y="255">ingentes capitales. En aquellos se </tspan><tspan x="0" y="279">estila el &quot;autoservicio&quot;, es decir, </tspan><tspan x="0" y="303">que el mismo consumidor elige </tspan><tspan x="0" y="327">los artículos que va a comprar, </tspan><tspan x="0" y="351">eliminándose el empleado </tspan><tspan x="0" y="375">dependiente y al pequeño </tspan><tspan x="0" y="399">comerciante que vende </tspan><tspan x="0" y="423">personalmente sus artículos</tspan></tspan></text>
    <g id="Grupo_71747" data-name="Grupo 71747">
      <path id="Trazado_163500" data-name="Trazado 163500" d="M728.4,5426.932l25.669-3.887-9.41,24.58-9.4,24.583-16.257-20.686-16.258-20.692Z" fill="#3e8db2"/>
      <path id="Trazado_163501" data-name="Trazado 163501" d="M731.7,5444.111s-15.652-59.827-73.391-57.044-77.913,51.131-77.218,76.522" fill="none" stroke="#3e8db2" stroke-miterlimit="10" stroke-width="28"/>
    </g>
    <g id="Grupo_71748" data-name="Grupo 71748">
      <path id="Trazado_163502" data-name="Trazado 163502" d="M606.741,6022.016l-25.669,3.887,9.41-24.58,9.4-24.583,16.257,20.686,16.258,20.691Z" fill="#db6e5f"/>
      <path id="Trazado_163503" data-name="Trazado 163503" d="M672.967,6075.974c-26.461,0-49.07-11.376-65.612-33.087a108.136,108.136,0,0,1-17.451-34.506l27.087-7.088-13.543,3.544,13.529-3.6c.54,2,13.745,48.854,59.188,46.659,49.017-2.362,64.4-43.672,63.9-62.154l27.989-.768c.391,14.262-4.566,36.393-19.651,55.734-11.734,15.045-33.558,33.356-70.887,35.155C675.987,6075.937,674.468,6075.974,672.967,6075.974Z" fill="#db6e5f"/>
    </g>
  </g>
</svg>
