<svg xmlns="http://www.w3.org/2000/svg" xmlns:xlink="http://www.w3.org/1999/xlink" width="420" height="406.414" viewBox="0 0 420 406.414">
  <defs>
    <linearGradient id="linear-gradient" y1="0.5" x2="1" y2="0.5" gradientUnits="objectBoundingBox">
      <stop offset="0" stop-color="#a45347"/>
      <stop offset="1" stop-color="#6e3730"/>
    </linearGradient>
    <clipPath id="clip-path">
      <ellipse id="Elipse_4920" data-name="Elipse 4920" cx="209.581" cy="118.692" rx="209.581" ry="118.692" fill="none"/>
    </clipPath>
  </defs>
  <g id="Grupo_72787" data-name="Grupo 72787" transform="translate(-902.484 -6922.473)">
    <path id="Trazado_164182" data-name="Trazado 164182" d="M1322.184,7059.639l-5.385,57.944s-11.138,108.568-208.957,112c0,0-160.36,3.894-198.679-103.118,0,0-9.84-34.578-5.634-78.5Z" transform="translate(0 99.291)" fill="url(#linear-gradient)"/>
    <ellipse id="Elipse_4919" data-name="Elipse 4919" cx="209.581" cy="118.692" rx="209.581" ry="118.692" transform="translate(903.323 7033.852)" fill="#db6e5f"/>
    <g id="Grupo_72781" data-name="Grupo 72781" transform="translate(903.323 7033.852)">
      <g id="Grupo_72780" data-name="Grupo 72780" clip-path="url(#clip-path)">
        <path id="Trazado_164183" data-name="Trazado 164183" d="M907.528,7100.2l209.58-11.683-35.125-95.094-30.14-17.99-100.468,38.551L907.528,7053,897.17,7084.78Z" transform="translate(-907.528 -6991.945)" fill="#e2cb5e"/>
        <path id="Trazado_164184" data-name="Trazado 164184" d="M1233.194,7124.674l-213.241-34.813V6980.28l97.82-6.542,116.59,38.552,17.29,48.831-.935,39.253-11.215,24.3Z" transform="translate(-810.372 -6993.287)" fill="#0d66bf"/>
        <path id="Trazado_164185" data-name="Trazado 164185" d="M1000.1,6980.21l35.555,108.825V6974.781Z" transform="translate(-826.079 -6992.461)" fill="#98d7f4"/>
      </g>
    </g>
    <g id="Grupo_72782" data-name="Grupo 72782" transform="translate(1028.232 7172.01)">
      <path id="Trazado_164186" data-name="Trazado 164186" d="M991.014,7081.507l.038.11a12.972,12.972,0,0,1-3.611,6.2,9.308,9.308,0,0,1-6.526,2.273,7.642,7.642,0,0,1-6.47-3.363,9.891,9.891,0,0,1-1.485-8.148l.953-4.766a15.763,15.763,0,0,1,3.95-8.24,9.669,9.669,0,0,1,7.158-2.939,8,8,0,0,1,6.232,2.52,7.735,7.735,0,0,1,1.8,6.479l-.038.093h-3.427a6.849,6.849,0,0,0-1.044-4.574,4.536,4.536,0,0,0-3.923-1.675,5.726,5.726,0,0,0-4.482,2.351,13.149,13.149,0,0,0-2.667,5.944l-.971,4.8a8.945,8.945,0,0,0,.595,6.255,4.507,4.507,0,0,0,4.208,2.428,5.381,5.381,0,0,0,3.894-1.388,10.711,10.711,0,0,0,2.429-4.351Z" transform="translate(-972.684 -7061.107)" fill="#fff"/>
      <path id="Trazado_164187" data-name="Trazado 164187" d="M985.015,7076.563a13.4,13.4,0,0,1,3.364-7.339,8.62,8.62,0,0,1,6.5-2.758,6.153,6.153,0,0,1,5.546,2.867,10.068,10.068,0,0,1,1.145,7.229l-.054.405a13.43,13.43,0,0,1-3.384,7.343,8.65,8.65,0,0,1-6.5,2.739,6.151,6.151,0,0,1-5.544-2.861,9.97,9.97,0,0,1-1.129-7.221Zm3.482.4a9.568,9.568,0,0,0,.323,5.262,3.21,3.21,0,0,0,3.253,1.987,4.663,4.663,0,0,0,3.812-2.079,11.368,11.368,0,0,0,2.071-5.17l.056-.4a9.573,9.573,0,0,0-.347-5.236,3.2,3.2,0,0,0-3.226-2.015,4.653,4.653,0,0,0-3.823,2.088,11.478,11.478,0,0,0-2.062,5.163Z" transform="translate(-963.129 -7058.07)" fill="#fff"/>
      <path id="Trazado_164188" data-name="Trazado 164188" d="M1003.342,7084.209a4.864,4.864,0,0,0,3.016-1.113,4.208,4.208,0,0,0,1.694-2.7h3.172l.036.111a6.96,6.96,0,0,1-2.859,4.609,8.764,8.764,0,0,1-5.5,1.934,6.175,6.175,0,0,1-5.664-2.861,9.965,9.965,0,0,1-1.1-7.057l.129-.769a13.108,13.108,0,0,1,3.253-7.14,8.7,8.7,0,0,1,6.664-2.758,6.189,6.189,0,0,1,4.938,2.062,5.732,5.732,0,0,1,1.238,5.049l-.036.093h-3.208a3.925,3.925,0,0,0-.623-3.136,3.241,3.241,0,0,0-2.75-1.228,4.65,4.65,0,0,0-3.977,2.069,11.429,11.429,0,0,0-1.943,4.979l-.129.771a10.127,10.127,0,0,0,.256,5.116Q1000.7,7084.209,1003.342,7084.209Z" transform="translate(-954.273 -7058.07)" fill="#fff"/>
      <path id="Trazado_164189" data-name="Trazado 164189" d="M1016.994,7086.666c0-.6.012-1.09.038-1.477s.066-.78.127-1.182a11.372,11.372,0,0,1-2.812,2.172,6.564,6.564,0,0,1-3.182.871,4.817,4.817,0,0,1-4.005-1.621,5.02,5.02,0,0,1-.724-4.336,6.582,6.582,0,0,1,2.979-4.536,11.291,11.291,0,0,1,6.131-1.514h3.391l.385-1.96a3.34,3.34,0,0,0-.4-2.814,3.093,3.093,0,0,0-2.565-.963,4.625,4.625,0,0,0-2.785.907,3.457,3.457,0,0,0-1.485,2.117h-3.355l-.036-.108a6.212,6.212,0,0,1,2.75-4.024,9.394,9.394,0,0,1,5.682-1.731,6.236,6.236,0,0,1,4.665,1.749q1.714,1.755,1.091,4.906l-1.906,9.549a18.3,18.3,0,0,0-.331,2.07,10.16,10.16,0,0,0,0,1.925Zm-4.691-2.641a6.177,6.177,0,0,0,3.024-.86,7.162,7.162,0,0,0,2.382-2.036l.734-3.646h-3.5a5.2,5.2,0,0,0-3.262,1.119,4.247,4.247,0,0,0-1.723,2.565,2.54,2.54,0,0,0,.274,2.135A2.5,2.5,0,0,0,1012.3,7084.025Z" transform="translate(-946.114 -7058.07)" fill="#fff"/>
      <path id="Trazado_164190" data-name="Trazado 164190" d="M1025.257,7073.484h-8.378l.55-2.822h8.378Z" transform="translate(-937.713 -7054.75)" fill="#fff"/>
      <path id="Trazado_164191" data-name="Trazado 164191" d="M1030.08,7084.209a4.864,4.864,0,0,0,3.017-1.113,4.213,4.213,0,0,0,1.694-2.7h3.172l.036.111a6.962,6.962,0,0,1-2.86,4.609,8.757,8.757,0,0,1-5.5,1.934,6.172,6.172,0,0,1-5.664-2.861,9.964,9.964,0,0,1-1.1-7.057l.127-.769a13.11,13.11,0,0,1,3.255-7.14,8.7,8.7,0,0,1,6.663-2.758,6.192,6.192,0,0,1,4.939,2.062,5.738,5.738,0,0,1,1.238,5.049l-.038.093h-3.207a3.924,3.924,0,0,0-.623-3.136,3.243,3.243,0,0,0-2.75-1.228,4.654,4.654,0,0,0-3.978,2.069,11.449,11.449,0,0,0-1.942,4.979l-.129.771a10.107,10.107,0,0,0,.256,5.116Q1027.441,7084.209,1030.08,7084.209Z" transform="translate(-933.116 -7058.07)" fill="#fff"/>
      <path id="Trazado_164192" data-name="Trazado 164192" d="M1033.447,7076.563a13.4,13.4,0,0,1,3.364-7.339,8.616,8.616,0,0,1,6.5-2.758,6.148,6.148,0,0,1,5.544,2.867,10.067,10.067,0,0,1,1.146,7.229l-.056.405a13.43,13.43,0,0,1-3.382,7.343,8.65,8.65,0,0,1-6.5,2.739,6.156,6.156,0,0,1-5.546-2.861,9.979,9.979,0,0,1-1.127-7.221Zm3.482.4a9.584,9.584,0,0,0,.321,5.262,3.211,3.211,0,0,0,3.253,1.987,4.666,4.666,0,0,0,3.814-2.079,11.365,11.365,0,0,0,2.071-5.17l.056-.4a9.556,9.556,0,0,0-.349-5.236,3.2,3.2,0,0,0-3.224-2.015,4.648,4.648,0,0,0-3.823,2.088,11.483,11.483,0,0,0-2.062,5.163Z" transform="translate(-924.805 -7058.07)" fill="#fff"/>
      <path id="Trazado_164193" data-name="Trazado 164193" d="M1047.595,7090.375h-3.538l5.719-28.6h3.538Z" transform="translate(-916.208 -7061.779)" fill="#fff"/>
      <path id="Trazado_164194" data-name="Trazado 164194" d="M1060.022,7086.666c0-.6.012-1.09.038-1.477s.068-.78.129-1.182a11.379,11.379,0,0,1-2.814,2.172,6.557,6.557,0,0,1-3.179.871,4.818,4.818,0,0,1-4.005-1.621,5.02,5.02,0,0,1-.725-4.336,6.588,6.588,0,0,1,2.979-4.536,11.3,11.3,0,0,1,6.132-1.514h3.391l.385-1.96a3.341,3.341,0,0,0-.4-2.814,3.1,3.1,0,0,0-2.565-.963,4.63,4.63,0,0,0-2.787.907,3.465,3.465,0,0,0-1.485,2.117h-3.353l-.038-.108a6.212,6.212,0,0,1,2.75-4.024,9.4,9.4,0,0,1,5.682-1.731,6.233,6.233,0,0,1,4.665,1.749q1.714,1.755,1.091,4.906L1064,7082.67a18.243,18.243,0,0,0-.33,2.07,9.884,9.884,0,0,0,0,1.925Zm-4.691-2.641a6.173,6.173,0,0,0,3.024-.86,7.146,7.146,0,0,0,2.383-2.036l.734-3.646h-3.5a5.2,5.2,0,0,0-3.262,1.119,4.246,4.246,0,0,0-1.723,2.565,2.534,2.534,0,0,0,.276,2.135A2.5,2.5,0,0,0,1055.331,7084.025Z" transform="translate(-912.066 -7058.07)" fill="#fff"/>
      <path id="Trazado_164195" data-name="Trazado 164195" d="M1004.337,7105.7h3.355l-.57,2.841h-3.353l-1.229,6.141h-3.52l1.229-6.141h-11.09l.4-2.05,14.592-18.5h3.72Zm-10.8-.093.056.093h7.221l2.438-12.246-.109-.036-.349.661Z" transform="translate(-959.648 -7041.039)" fill="#fff"/>
      <path id="Trazado_164196" data-name="Trazado 164196" d="M1006.91,7100.6l.127-.759h3.006a4.1,4.1,0,0,0,3.181-1.208,6.321,6.321,0,0,0,1.456-3.336,4.784,4.784,0,0,0-.457-3.52,3.235,3.235,0,0,0-2.825-1.156,4.667,4.667,0,0,0-3.215,1.245,5.35,5.35,0,0,0-1.7,3.284h-3.373l-.036-.111a7.93,7.93,0,0,1,2.832-5.2,8.857,8.857,0,0,1,5.929-2.061,6.551,6.551,0,0,1,5.132,1.99q1.8,1.989,1.229,5.6a7.97,7.97,0,0,1-1.458,3.357,7.282,7.282,0,0,1-3.179,2.457,4.581,4.581,0,0,1,2.714,2.51,6.974,6.974,0,0,1,.365,3.718,8.95,8.95,0,0,1-3.153,5.807,9.4,9.4,0,0,1-6.047,2.015,7.028,7.028,0,0,1-5.252-1.987,5.69,5.69,0,0,1-1.329-5.342l.036-.093h3.411a4.245,4.245,0,0,0,.586,3.385,3.556,3.556,0,0,0,2.988,1.2,4.9,4.9,0,0,0,3.382-1.25,6.061,6.061,0,0,0,1.806-3.662q.419-2.572-.394-3.687a3.62,3.62,0,0,0-3.088-1.114h-3.006Z" transform="translate(-950.508 -7041.209)" fill="#fff"/>
      <path id="Trazado_164197" data-name="Trazado 164197" d="M1015.2,7104.527h-3.5l.733-3.706h3.5Z" transform="translate(-941.81 -7030.884)" fill="#fff"/>
      <path id="Trazado_164198" data-name="Trazado 164198" d="M1035.44,7095.126a7.955,7.955,0,0,1-1.843,3.8,8.119,8.119,0,0,1-3.4,2.263,6.048,6.048,0,0,1,2.888,2.557,5.505,5.505,0,0,1,.541,3.877,8.952,8.952,0,0,1-3.355,5.783,10.418,10.418,0,0,1-6.232,1.823,7.206,7.206,0,0,1-5.388-1.979q-1.945-1.979-1.211-5.628a8.135,8.135,0,0,1,2.073-4.122,9.179,9.179,0,0,1,3.941-2.441,5.135,5.135,0,0,1-2.447-2.361,5.425,5.425,0,0,1-.376-3.575,8.851,8.851,0,0,1,3.088-5.564,9.212,9.212,0,0,1,5.764-1.785,6.266,6.266,0,0,1,4.858,1.941Q1036.118,7091.664,1035.44,7095.126Zm-5.317,12.417a4.477,4.477,0,0,0-.55-3.677,3.57,3.57,0,0,0-3.042-1.333,5.175,5.175,0,0,0-3.511,1.424,6.285,6.285,0,0,0-2.026,3.586,4.266,4.266,0,0,0,.487,3.632,3.773,3.773,0,0,0,3.124,1.217,5.316,5.316,0,0,0,3.473-1.316A6.009,6.009,0,0,0,1030.123,7107.543Zm1.761-12.344a4.319,4.319,0,0,0-.414-3.345,2.867,2.867,0,0,0-2.556-1.238,4.319,4.319,0,0,0-2.988,1.275,5.945,5.945,0,0,0-1.779,3.308,4.213,4.213,0,0,0,.385,3.335,2.979,2.979,0,0,0,2.6,1.155,4.345,4.345,0,0,0,2.97-1.247A5.791,5.791,0,0,0,1031.884,7095.2Z" transform="translate(-937.429 -7041.209)" fill="#fff"/>
      <path id="Trazado_164199" data-name="Trazado 164199" d="M1030.241,7093.293a7.067,7.067,0,0,1,2.182-4,5.888,5.888,0,0,1,4.088-1.521,3.892,3.892,0,0,1,3.364,1.613,4.79,4.79,0,0,1,.706,3.9l-.276,1.409a7.134,7.134,0,0,1-2.182,3.979,5.827,5.827,0,0,1-4.05,1.5,3.967,3.967,0,0,1-3.4-1.6,4.641,4.641,0,0,1-.706-3.879Zm2.146,19.539-1.705-1.228,16.313-20.86,1.705,1.229Zm.183-18.13a3.5,3.5,0,0,0,.183,2.35,1.811,1.811,0,0,0,1.761.9,2.717,2.717,0,0,0,2.015-.954,4.612,4.612,0,0,0,1.173-2.293l.276-1.409a3.621,3.621,0,0,0-.2-2.364,1.751,1.751,0,0,0-1.705-.917,2.752,2.752,0,0,0-2.062.98,4.629,4.629,0,0,0-1.164,2.3Zm6.617,13.6a7.027,7.027,0,0,1,2.182-3.985,5.9,5.9,0,0,1,4.086-1.512,3.893,3.893,0,0,1,3.364,1.612,4.753,4.753,0,0,1,.705,3.885l-.274,1.433a7.111,7.111,0,0,1-2.191,3.993,5.837,5.837,0,0,1-4.041,1.5,3.965,3.965,0,0,1-3.4-1.6,4.668,4.668,0,0,1-.7-3.894Zm2.327,1.433a3.5,3.5,0,0,0,.184,2.353,1.805,1.805,0,0,0,1.759.909,2.714,2.714,0,0,0,2.017-.963,4.7,4.7,0,0,0,1.173-2.3l.274-1.433a3.57,3.57,0,0,0-.2-2.345,1.753,1.753,0,0,0-1.705-.917,2.758,2.758,0,0,0-2.062.971,4.566,4.566,0,0,0-1.164,2.291Z" transform="translate(-927.466 -7041.209)" fill="#fff"/>
    </g>
    <g id="Grupo_72783" data-name="Grupo 72783" transform="translate(971.531 7068.469)">
      <path id="Trazado_164200" data-name="Trazado 164200" d="M946.445,7017.93H944.89l-1.318,6.6H941.03l4.111-20.557h2.542l-2.384,11.913h1.542l4.571-5.612h2.952l.027.063-5.68,6.418,3.558,7.774h-2.99Z" transform="translate(-941.03 -7003.976)" fill="#073360"/>
      <path id="Trazado_164201" data-name="Trazado 164201" d="M948.864,7014.606a9.624,9.624,0,0,1,2.418-5.277,6.2,6.2,0,0,1,4.67-1.982,4.422,4.422,0,0,1,3.987,2.061,7.247,7.247,0,0,1,.824,5.2l-.04.289a9.66,9.66,0,0,1-2.432,5.278,6.213,6.213,0,0,1-4.67,1.969,4.421,4.421,0,0,1-3.986-2.055,7.168,7.168,0,0,1-.812-5.192Zm2.5.282a6.879,6.879,0,0,0,.229,3.783,2.31,2.31,0,0,0,2.339,1.43,3.356,3.356,0,0,0,2.741-1.494,8.167,8.167,0,0,0,1.489-3.719l.041-.29a6.887,6.887,0,0,0-.251-3.764,2.3,2.3,0,0,0-2.32-1.447,3.34,3.34,0,0,0-2.746,1.5,8.239,8.239,0,0,0-1.483,3.711Z" transform="translate(-934.976 -7001.31)" fill="#073360"/>
      <path id="Trazado_164202" data-name="Trazado 164202" d="M959.036,7024.533h-2.544l4.111-20.557h2.544Z" transform="translate(-928.795 -7003.976)" fill="#073360"/>
      <path id="Trazado_164203" data-name="Trazado 164203" d="M967.969,7021.866c0-.43.009-.782.027-1.062s.049-.558.093-.847a8.258,8.258,0,0,1-2.024,1.559,4.688,4.688,0,0,1-2.286.626,3.457,3.457,0,0,1-2.879-1.165,3.6,3.6,0,0,1-.521-3.117,4.738,4.738,0,0,1,2.142-3.262,8.129,8.129,0,0,1,4.406-1.087h2.438l.278-1.409a2.4,2.4,0,0,0-.29-2.022,2.232,2.232,0,0,0-1.845-.692,3.31,3.31,0,0,0-2,.653,2.481,2.481,0,0,0-1.068,1.522h-2.411l-.027-.082a4.475,4.475,0,0,1,1.978-2.891,6.747,6.747,0,0,1,4.084-1.244,4.472,4.472,0,0,1,3.353,1.259,3.707,3.707,0,0,1,.784,3.521L970.828,7019a13.707,13.707,0,0,0-.236,1.489,7.422,7.422,0,0,0,0,1.382Zm-3.373-1.9a4.454,4.454,0,0,0,2.175-.618,5.143,5.143,0,0,0,1.712-1.463l.528-2.623h-2.517a3.738,3.738,0,0,0-2.347.806,3.055,3.055,0,0,0-1.238,1.844,1.821,1.821,0,0,0,.2,1.535A1.8,1.8,0,0,0,964.6,7019.968Z" transform="translate(-925.818 -7001.31)" fill="#073360"/>
      <path id="Trazado_164204" data-name="Trazado 164204" d="M973.908,7012.394h-6.022l.4-2.033H974.3Z" transform="translate(-919.779 -6998.923)" fill="#073360"/>
      <path id="Trazado_164205" data-name="Trazado 164205" d="M976.193,7015.605l-1.661,8.316h-2.556l3.835-19.172h6.522a5.389,5.389,0,0,1,4.091,1.424,4.324,4.324,0,0,1,.837,4.031,5.734,5.734,0,0,1-1.259,2.66,6.329,6.329,0,0,1-2.456,1.688,3.042,3.042,0,0,1,1.752,1.7,4.907,4.907,0,0,1,.145,2.781l-.356,1.8a5.938,5.938,0,0,0-.143,1.631,2.065,2.065,0,0,0,.408,1.138l-.066.317h-2.622a1.783,1.783,0,0,1-.356-1.3,11.42,11.42,0,0,1,.238-1.806l.355-1.752a3.282,3.282,0,0,0-.29-2.55,2.252,2.252,0,0,0-2-.9Zm.408-2.042h3.717a4.708,4.708,0,0,0,2.957-.86,4.1,4.1,0,0,0,1.456-2.519,3.09,3.09,0,0,0-.317-2.552,3.024,3.024,0,0,0-2.49-.84h-3.966Z" transform="translate(-916.543 -7003.365)" fill="#073360"/>
      <path id="Trazado_164206" data-name="Trazado 164206" d="M986.525,7022.143a4.622,4.622,0,0,1-4.066-2,6.86,6.86,0,0,1-.876-5.132l.093-.579a8.916,8.916,0,0,1,2.5-5.127,6.079,6.079,0,0,1,4.317-1.963,4.126,4.126,0,0,1,3.755,1.755,6.5,6.5,0,0,1,.686,4.633l-.263,1.622h-8.591a5.7,5.7,0,0,0,.4,3.462,2.465,2.465,0,0,0,2.365,1.283,6.1,6.1,0,0,0,2.175-.386,6.177,6.177,0,0,0,1.766-1.018l.724,1.69a6.473,6.473,0,0,1-2.055,1.253A7.783,7.783,0,0,1,986.525,7022.143Zm1.646-12.755a2.963,2.963,0,0,0-2.141,1.106,6.435,6.435,0,0,0-1.483,2.741l.039.079h5.865l.052-.343a4,4,0,0,0-.3-2.59A2.118,2.118,0,0,0,988.171,7009.388Z" transform="translate(-909.047 -7001.31)" fill="#073360"/>
      <path id="Trazado_164207" data-name="Trazado 164207" d="M996.532,7021.866c0-.43.009-.782.027-1.062s.048-.558.093-.847a8.255,8.255,0,0,1-2.024,1.559,4.688,4.688,0,0,1-2.286.626,3.457,3.457,0,0,1-2.879-1.165,3.605,3.605,0,0,1-.521-3.117,4.739,4.739,0,0,1,2.142-3.262,8.13,8.13,0,0,1,4.407-1.087h2.438l.278-1.409a2.4,2.4,0,0,0-.29-2.022,2.232,2.232,0,0,0-1.845-.692,3.31,3.31,0,0,0-2,.653,2.482,2.482,0,0,0-1.068,1.522H990.59l-.027-.082a4.475,4.475,0,0,1,1.978-2.891,6.747,6.747,0,0,1,4.084-1.244,4.471,4.471,0,0,1,3.353,1.259,3.708,3.708,0,0,1,.785,3.521L999.391,7019a13.617,13.617,0,0,0-.236,1.489,7.422,7.422,0,0,0,0,1.382Zm-3.373-1.9a4.454,4.454,0,0,0,2.175-.618,5.145,5.145,0,0,0,1.712-1.463l.528-2.623h-2.517a3.737,3.737,0,0,0-2.346.806,3.055,3.055,0,0,0-1.238,1.844,1.822,1.822,0,0,0,.2,1.535A1.8,1.8,0,0,0,993.159,7019.968Z" transform="translate(-903.217 -7001.31)" fill="#073360"/>
      <path id="Trazado_164208" data-name="Trazado 164208" d="M999.045,7024.533H996.5l4.111-20.557h2.544Z" transform="translate(-897.137 -7003.976)" fill="#073360"/>
      <path id="Trazado_164209" data-name="Trazado 164209" d="M963.036,7042.128H951.4l.288-1.779,6.959-6.982a20.877,20.877,0,0,0,2.576-2.983,6.118,6.118,0,0,0,.915-2.275,3.48,3.48,0,0,0-.356-2.437,2,2,0,0,0-1.831-.961,3.858,3.858,0,0,0-2.814,1.033,4.94,4.94,0,0,0-1.351,2.853h-2.425l-.025-.077a6.667,6.667,0,0,1,2.2-4.212,6.863,6.863,0,0,1,4.731-1.641,4.318,4.318,0,0,1,3.557,1.523,4.625,4.625,0,0,1,.869,3.827,7.52,7.52,0,0,1-1.336,3.156,25.172,25.172,0,0,1-2.957,3.362l-5.535,5.473.027.079h8.473Z" transform="translate(-932.823 -6989.188)" fill="#073360"/>
      <path id="Trazado_164210" data-name="Trazado 164210" d="M964.118,7031.88l.091-.544h2.16a2.943,2.943,0,0,0,2.288-.87,4.544,4.544,0,0,0,1.048-2.4,3.443,3.443,0,0,0-.33-2.53,2.321,2.321,0,0,0-2.03-.83,3.353,3.353,0,0,0-2.313.9,3.843,3.843,0,0,0-1.218,2.359H961.39l-.025-.081a5.694,5.694,0,0,1,2.035-3.735,6.359,6.359,0,0,1,4.263-1.483,4.72,4.72,0,0,1,3.688,1.432,4.654,4.654,0,0,1,.883,4.028,5.748,5.748,0,0,1-1.048,2.412,5.225,5.225,0,0,1-2.286,1.767,3.28,3.28,0,0,1,1.949,1.807,5,5,0,0,1,.265,2.672,6.43,6.43,0,0,1-2.266,4.174,6.768,6.768,0,0,1-4.349,1.447,5.048,5.048,0,0,1-3.774-1.428,4.09,4.09,0,0,1-.957-3.842l.027-.065h2.451a3.054,3.054,0,0,0,.423,2.434,2.556,2.556,0,0,0,2.148.861,3.53,3.53,0,0,0,2.431-.9,4.366,4.366,0,0,0,1.3-2.633,3.589,3.589,0,0,0-.283-2.651,2.6,2.6,0,0,0-2.219-.8H963.88Z" transform="translate(-926.288 -6989.188)" fill="#073360"/>
      <path id="Trazado_164211" data-name="Trazado 164211" d="M970.081,7034.706h-2.519l.528-2.662h2.517Z" transform="translate(-920.036 -6981.766)" fill="#073360"/>
      <path id="Trazado_164212" data-name="Trazado 164212" d="M982.107,7035.55h2.411l-.408,2.042H981.7l-.883,4.414h-2.529l.883-4.414H971.2l.29-1.472,10.49-13.3h2.674Zm-7.762-.066.04.066h5.193l1.752-8.8-.079-.027-.251.475Z" transform="translate(-917.16 -6989.066)" fill="#073360"/>
      <path id="Trazado_164213" data-name="Trazado 164213" d="M980.89,7026.633a5.078,5.078,0,0,1,1.569-2.873,4.229,4.229,0,0,1,2.938-1.095,2.806,2.806,0,0,1,2.418,1.158,3.449,3.449,0,0,1,.507,2.81l-.2,1.014a5.138,5.138,0,0,1-1.569,2.859,4.191,4.191,0,0,1-2.911,1.08,2.849,2.849,0,0,1-2.445-1.152,3.337,3.337,0,0,1-.507-2.787Zm1.542,14.047-1.225-.885,11.728-14.994,1.225.882Zm.133-13.033a2.5,2.5,0,0,0,.131,1.688,1.3,1.3,0,0,0,1.265.645,1.952,1.952,0,0,0,1.449-.687,3.314,3.314,0,0,0,.844-1.646l.2-1.014a2.6,2.6,0,0,0-.147-1.7,1.256,1.256,0,0,0-1.225-.661,1.971,1.971,0,0,0-1.481.707,3.3,3.3,0,0,0-.836,1.654Zm4.756,9.777a5.046,5.046,0,0,1,1.568-2.864,4.233,4.233,0,0,1,2.939-1.089,2.8,2.8,0,0,1,2.418,1.16,3.423,3.423,0,0,1,.507,2.793l-.2,1.026a5.111,5.111,0,0,1-1.574,2.874,4.205,4.205,0,0,1-2.906,1.079,2.843,2.843,0,0,1-2.443-1.152,3.354,3.354,0,0,1-.507-2.8Zm1.673,1.026a2.529,2.529,0,0,0,.133,1.694,1.294,1.294,0,0,0,1.265.652,1.948,1.948,0,0,0,1.449-.691,3.382,3.382,0,0,0,.844-1.655l.2-1.026a2.551,2.551,0,0,0-.145-1.686,1.257,1.257,0,0,0-1.225-.659,1.979,1.979,0,0,0-1.481.7,3.3,3.3,0,0,0-.838,1.648Z" transform="translate(-909.724 -6989.188)" fill="#073360"/>
    </g>
    <g id="Grupo_72784" data-name="Grupo 72784" transform="translate(970.384 6923.566)">
      <path id="Trazado_164214" data-name="Trazado 164214" d="M954.932,6934.8a10.719,10.719,0,0,1-3.036,5.9,7.819,7.819,0,0,1-5.542,2.12,5.512,5.512,0,0,1-4.7-2.423,7.164,7.164,0,0,1-1.069-5.851l.686-3.428a10.979,10.979,0,0,1,2.945-5.9,7.389,7.389,0,0,1,5.356-2.135,5.808,5.808,0,0,1,4.889,2.438,7.043,7.043,0,0,1,1.161,5.85Zm-1.858-3.454a5.779,5.779,0,0,0-.561-4.445,3.767,3.767,0,0,0-3.366-1.681,4.386,4.386,0,0,0-3.353,1.634,8.782,8.782,0,0,0-1.97,4.243l-.7,3.452a6.054,6.054,0,0,0,.475,4.474,3.482,3.482,0,0,0,3.176,1.68,4.718,4.718,0,0,0,3.55-1.627,8.644,8.644,0,0,0,2.064-4.275Z" transform="translate(-940.39 -6923.083)" fill="#073360"/>
      <path id="Trazado_164215" data-name="Trazado 164215" d="M955.831,6924.069l-.7,3.439H957.6l-.382,1.925h-2.465l-1.725,8.654a1.9,1.9,0,0,0,.064,1.445,1.114,1.114,0,0,0,.937.376,5.425,5.425,0,0,0,.731-.061,5.536,5.536,0,0,0,.679-.126l-.014,1.78a3.45,3.45,0,0,1-1.086.388,6.588,6.588,0,0,1-1.392.151,2.525,2.525,0,0,1-2.128-.974,3.66,3.66,0,0,1-.335-2.98l1.727-8.654h-2.083l.383-1.925h2.082l.7-3.439Z" transform="translate(-932.685 -6922.303)" fill="#073360"/>
      <path id="Trazado_164216" data-name="Trazado 164216" d="M963.323,6928.4l-1.4-.078a2.78,2.78,0,0,0-1.6.5,4.321,4.321,0,0,0-1.272,1.387l-2.03,10.161h-2.544l2.846-14.258h2.28l-.158,1.913a5.713,5.713,0,0,1,1.666-1.609,3.766,3.766,0,0,1,2-.566,3.588,3.588,0,0,1,.571.048,2.269,2.269,0,0,1,.455.1Z" transform="translate(-929.239 -6920.9)" fill="#073360"/>
      <path id="Trazado_164217" data-name="Trazado 164217" d="M959.873,6933.1a9.647,9.647,0,0,1,2.418-5.276,6.2,6.2,0,0,1,4.672-1.983,4.419,4.419,0,0,1,3.986,2.063,7.24,7.24,0,0,1,.824,5.2l-.039.291a9.63,9.63,0,0,1-2.433,5.276,6.21,6.21,0,0,1-4.67,1.969,4.419,4.419,0,0,1-3.986-2.055,7.172,7.172,0,0,1-.811-5.19Zm2.5.284a6.889,6.889,0,0,0,.231,3.782,2.31,2.31,0,0,0,2.338,1.43,3.358,3.358,0,0,0,2.742-1.493,8.205,8.205,0,0,0,1.489-3.719l.039-.29a6.884,6.884,0,0,0-.251-3.764,2.3,2.3,0,0,0-2.32-1.448,3.345,3.345,0,0,0-2.746,1.5,8.238,8.238,0,0,0-1.483,3.712Z" transform="translate(-925.117 -6920.9)" fill="#073360"/>
      <path id="Trazado_164218" data-name="Trazado 164218" d="M975.685,6936.575a1.588,1.588,0,0,0-.356-1.419,4.5,4.5,0,0,0-2.081-.945,7.933,7.933,0,0,1-3.418-1.544,2.7,2.7,0,0,1-.811-2.632,4.587,4.587,0,0,1,1.857-3,6.1,6.1,0,0,1,3.808-1.193,4.508,4.508,0,0,1,3.452,1.29,3.364,3.364,0,0,1,.87,3.1l-.039.081h-2.438a2.026,2.026,0,0,0-2.16-2.426,2.919,2.919,0,0,0-1.924.614,2.338,2.338,0,0,0-.87,1.461,1.477,1.477,0,0,0,.31,1.348,4.758,4.758,0,0,0,2.062.861,7.785,7.785,0,0,1,3.506,1.572,2.81,2.81,0,0,1,.8,2.661,4.543,4.543,0,0,1-1.924,3.1,6.69,6.69,0,0,1-3.953,1.136,4.846,4.846,0,0,1-3.742-1.395,3.48,3.48,0,0,1-.922-3.216l.027-.079h2.436a2.106,2.106,0,0,0,.595,2.012,2.883,2.883,0,0,0,1.922.638,3.493,3.493,0,0,0,2.024-.566A2.141,2.141,0,0,0,975.685,6936.575Z" transform="translate(-918.833 -6920.9)" fill="#073360"/>
      <path id="Trazado_164219" data-name="Trazado 164219" d="M954.378,6953.31a11.022,11.022,0,0,1-2.642,5.752,6.207,6.207,0,0,1-4.552,1.84,4.057,4.057,0,0,1-3.7-2q-1.233-2-.507-5.594l.908-4.545a10.934,10.934,0,0,1,2.648-5.751,6.242,6.242,0,0,1,4.561-1.853,4.023,4.023,0,0,1,3.688,2q1.215,2.005.5,5.6Zm-1.528-5.1a6.567,6.567,0,0,0-.032-3.825,2.132,2.132,0,0,0-2.128-1.179,3.311,3.311,0,0,0-2.551,1.282,8.033,8.033,0,0,0-1.6,3.722l-1.12,5.62a6.564,6.564,0,0,0,.039,3.839,2.143,2.143,0,0,0,2.135,1.191,3.261,3.261,0,0,0,2.537-1.292,8.272,8.272,0,0,0,1.6-3.738Z" transform="translate(-938.551 -6908.778)" fill="#073360"/>
      <path id="Trazado_164220" data-name="Trazado 164220" d="M952.86,6953.2h-2.517l.527-2.661h2.518Z" transform="translate(-932.513 -6901.357)" fill="#073360"/>
      <path id="Trazado_164221" data-name="Trazado 164221" d="M958.755,6950.378l.093-.545h2.16a2.953,2.953,0,0,0,2.288-.87,4.567,4.567,0,0,0,1.046-2.4,3.425,3.425,0,0,0-.33-2.53,2.32,2.32,0,0,0-2.028-.83,3.354,3.354,0,0,0-2.313.9,3.841,3.841,0,0,0-1.22,2.359h-2.423l-.027-.081a5.709,5.709,0,0,1,2.035-3.735,6.369,6.369,0,0,1,4.263-1.482,4.721,4.721,0,0,1,3.69,1.432,4.664,4.664,0,0,1,.883,4.027,5.765,5.765,0,0,1-1.048,2.414,5.24,5.24,0,0,1-2.286,1.767,3.291,3.291,0,0,1,1.949,1.8,5,5,0,0,1,.265,2.673,6.425,6.425,0,0,1-2.268,4.174,6.761,6.761,0,0,1-4.347,1.449,5.053,5.053,0,0,1-3.776-1.43,4.1,4.1,0,0,1-.955-3.843l.027-.063h2.451a3.049,3.049,0,0,0,.421,2.432,2.554,2.554,0,0,0,2.148.862,3.531,3.531,0,0,0,2.431-.9,4.365,4.365,0,0,0,1.3-2.633,3.593,3.593,0,0,0-.283-2.652,2.6,2.6,0,0,0-2.219-.8h-2.162Z" transform="translate(-929.383 -6908.778)" fill="#073360"/>
      <path id="Trazado_164222" data-name="Trazado 164222" d="M963.671,6945.129a5.093,5.093,0,0,1,1.568-2.873,4.235,4.235,0,0,1,2.939-1.095,2.8,2.8,0,0,1,2.418,1.159,3.456,3.456,0,0,1,.507,2.809l-.2,1.014a5.122,5.122,0,0,1-1.567,2.859,4.2,4.2,0,0,1-2.913,1.08,2.85,2.85,0,0,1-2.443-1.152,3.343,3.343,0,0,1-.509-2.787Zm1.542,14.045-1.225-.883,11.726-14.994,1.227.884Zm.131-13.031a2.506,2.506,0,0,0,.132,1.688,1.3,1.3,0,0,0,1.265.646,1.951,1.951,0,0,0,1.449-.687,3.333,3.333,0,0,0,.844-1.646l.2-1.014a2.586,2.586,0,0,0-.145-1.7,1.26,1.26,0,0,0-1.225-.661,1.973,1.973,0,0,0-1.481.706,3.311,3.311,0,0,0-.837,1.655Zm4.758,9.777a5.049,5.049,0,0,1,1.567-2.865,4.238,4.238,0,0,1,2.938-1.089,2.794,2.794,0,0,1,2.418,1.161,3.424,3.424,0,0,1,.509,2.793l-.2,1.028a5.12,5.12,0,0,1-1.575,2.873,4.21,4.21,0,0,1-2.906,1.08,2.854,2.854,0,0,1-2.445-1.153,3.365,3.365,0,0,1-.507-2.8Zm1.673,1.028a2.533,2.533,0,0,0,.131,1.691,1.3,1.3,0,0,0,1.266.653,1.949,1.949,0,0,0,1.449-.692,3.369,3.369,0,0,0,.844-1.652l.2-1.028a2.563,2.563,0,0,0-.145-1.687,1.259,1.259,0,0,0-1.225-.658,1.988,1.988,0,0,0-1.483.7,3.305,3.305,0,0,0-.837,1.648Z" transform="translate(-922.202 -6908.778)" fill="#073360"/>
    </g>
    <g id="Grupo_72785" data-name="Grupo 72785" transform="translate(1141.155 6922.473)">
      <path id="Trazado_164223" data-name="Trazado 164223" d="M1048.618,6940a7.7,7.7,0,0,1-2.608,1.948,9.449,9.449,0,0,1-4.256.875,5.741,5.741,0,0,1-4.765-2.232,6.631,6.631,0,0,1-1.073-5.659l.79-3.953a10.081,10.081,0,0,1,3.07-5.8,8.016,8.016,0,0,1,5.5-2.089,5.006,5.006,0,0,1,5.481,5.784l-.04.078h-2.438a4.444,4.444,0,0,0-.718-2.777,3.116,3.116,0,0,0-2.694-1.042,4.83,4.83,0,0,0-3.486,1.673,8.009,8.009,0,0,0-2.115,4.148l-.79,3.973a5.585,5.585,0,0,0,.487,4.286,3.572,3.572,0,0,0,3.2,1.575,6.4,6.4,0,0,0,2.451-.443,4.456,4.456,0,0,0,1.582-.98l.869-4.362h-3.794l.408-2.043h6.338Z" transform="translate(-1035.724 -6921.991)" fill="#073360"/>
      <path id="Trazado_164224" data-name="Trazado 164224" d="M1053.61,6928.4l-1.4-.078a2.783,2.783,0,0,0-1.6.5,4.338,4.338,0,0,0-1.272,1.387l-2.03,10.161h-2.544l2.847-14.258h2.28l-.158,1.913a5.708,5.708,0,0,1,1.666-1.609,3.765,3.765,0,0,1,2-.566,3.585,3.585,0,0,1,.571.048,2.274,2.274,0,0,1,.455.1Z" transform="translate(-1028.568 -6919.808)" fill="#073360"/>
      <path id="Trazado_164225" data-name="Trazado 164225" d="M1057.926,6940.247l.224-1.951a5.925,5.925,0,0,1-1.917,1.66,4.948,4.948,0,0,1-2.352.566,3.354,3.354,0,0,1-3.024-1.514q-.983-1.515-.364-4.612l1.675-8.407h2.542l-1.685,8.434q-.489,2.423-.054,3.209a1.825,1.825,0,0,0,1.754.783,4.023,4.023,0,0,0,2.128-.579,5,5,0,0,0,1.614-1.607l2.042-10.239h2.544l-2.846,14.258Z" transform="translate(-1024.226 -6919.691)" fill="#073360"/>
      <path id="Trazado_164226" data-name="Trazado 164226" d="M1070.958,6934.038a9.953,9.953,0,0,1-2.221,4.95,5.291,5.291,0,0,1-4.025,1.65,4.758,4.758,0,0,1-2.062-.434,3.851,3.851,0,0,1-1.51-1.266l-1.383,6.906h-2.542l3.939-19.74h2.187l-.091,1.411a5.525,5.525,0,0,1,1.772-1.245,5.22,5.22,0,0,1,2.115-.429,3.615,3.615,0,0,1,3.418,2.278,8.812,8.812,0,0,1,.455,5.642Zm-2.492-.284a7.428,7.428,0,0,0-.15-4.179,2.375,2.375,0,0,0-2.379-1.626,2.816,2.816,0,0,0-1.634.518,5.157,5.157,0,0,0-1.358,1.406l-1.4,6.962a2.825,2.825,0,0,0,1.026,1.3,3.045,3.045,0,0,0,1.754.468,3.277,3.277,0,0,0,2.608-1.232,7.38,7.38,0,0,0,1.476-3.335Z" transform="translate(-1018.719 -6919.808)" fill="#073360"/>
      <path id="Trazado_164227" data-name="Trazado 164227" d="M1066.432,6933.1a9.624,9.624,0,0,1,2.418-5.276,6.2,6.2,0,0,1,4.67-1.983,4.42,4.42,0,0,1,3.988,2.063,7.231,7.231,0,0,1,.822,5.2l-.04.291a9.636,9.636,0,0,1-2.431,5.276,6.215,6.215,0,0,1-4.67,1.969,4.421,4.421,0,0,1-3.987-2.055,7.17,7.17,0,0,1-.81-5.19Zm2.5.284a6.877,6.877,0,0,0,.229,3.782,2.312,2.312,0,0,0,2.34,1.43,3.357,3.357,0,0,0,2.741-1.493,8.16,8.16,0,0,0,1.488-3.719l.042-.29a6.884,6.884,0,0,0-.251-3.764,2.3,2.3,0,0,0-2.32-1.448,3.348,3.348,0,0,0-2.748,1.5,8.25,8.25,0,0,0-1.481,3.712Z" transform="translate(-1011.57 -6919.808)" fill="#073360"/>
      <path id="Trazado_164228" data-name="Trazado 164228" d="M1081.99,6934.1l-1.661,8.313h-2.555l3.833-19.172h6.522a5.381,5.381,0,0,1,4.091,1.424,4.322,4.322,0,0,1,.837,4.032,5.731,5.731,0,0,1-1.258,2.66,6.346,6.346,0,0,1-2.458,1.688,3.028,3.028,0,0,1,1.752,1.7,4.905,4.905,0,0,1,.145,2.78l-.354,1.8a5.881,5.881,0,0,0-.145,1.63,2.065,2.065,0,0,0,.409,1.138l-.066.316h-2.622a1.779,1.779,0,0,1-.355-1.3,11.212,11.212,0,0,1,.236-1.806l.357-1.752a3.3,3.3,0,0,0-.29-2.551,2.252,2.252,0,0,0-2-.9Zm.408-2.043h3.717a4.7,4.7,0,0,0,2.957-.862,4.091,4.091,0,0,0,1.456-2.519,3.082,3.082,0,0,0-.315-2.551,3.026,3.026,0,0,0-2.492-.839h-3.966Z" transform="translate(-1002.449 -6921.862)" fill="#073360"/>
      <path id="Trazado_164229" data-name="Trazado 164229" d="M1087.424,6933.1a9.637,9.637,0,0,1,2.42-5.276,6.191,6.191,0,0,1,4.67-1.983,4.422,4.422,0,0,1,3.987,2.063,7.241,7.241,0,0,1,.822,5.2l-.039.291a9.64,9.64,0,0,1-2.431,5.276,6.217,6.217,0,0,1-4.672,1.969,4.421,4.421,0,0,1-3.986-2.055,7.171,7.171,0,0,1-.81-5.19Zm2.5.284a6.886,6.886,0,0,0,.231,3.782,2.31,2.31,0,0,0,2.339,1.43,3.357,3.357,0,0,0,2.741-1.493,8.162,8.162,0,0,0,1.489-3.719l.039-.29a6.855,6.855,0,0,0-.251-3.764,2.3,2.3,0,0,0-2.318-1.448,3.348,3.348,0,0,0-2.748,1.5,8.271,8.271,0,0,0-1.483,3.712Z" transform="translate(-994.958 -6919.808)" fill="#073360"/>
      <path id="Trazado_164230" data-name="Trazado 164230" d="M1102.287,6928.771,1099.2,6944.2a6.106,6.106,0,0,1-1.734,3.466,4.627,4.627,0,0,1-3.2,1.122,3.781,3.781,0,0,1-.672-.061,4.072,4.072,0,0,1-.645-.179l.579-2.042a2.411,2.411,0,0,0,.487.114,3.656,3.656,0,0,0,.487.044,1.789,1.789,0,0,0,1.306-.587,3.678,3.678,0,0,0,.844-1.878l3.083-15.429Zm.684-3.7h-2.556l.514-2.594h2.556Z" transform="translate(-990.435 -6922.474)" fill="#073360"/>
      <path id="Trazado_164231" data-name="Trazado 164231" d="M1106.627,6940.363c0-.43.009-.782.027-1.061s.048-.56.091-.85a8.213,8.213,0,0,1-2.022,1.562,4.721,4.721,0,0,1-2.286.624,3.454,3.454,0,0,1-2.879-1.163,3.609,3.609,0,0,1-.521-3.118,4.733,4.733,0,0,1,2.141-3.261,8.127,8.127,0,0,1,4.408-1.087h2.438l.278-1.41a2.4,2.4,0,0,0-.292-2.023,2.23,2.23,0,0,0-1.843-.691,3.3,3.3,0,0,0-2,.655,2.466,2.466,0,0,0-1.068,1.52h-2.411l-.027-.081a4.476,4.476,0,0,1,1.976-2.891,6.763,6.763,0,0,1,4.086-1.245,4.477,4.477,0,0,1,3.353,1.26,3.716,3.716,0,0,1,.783,3.523l-1.37,6.866a13.292,13.292,0,0,0-.236,1.487,7.121,7.121,0,0,0,0,1.384Zm-3.373-1.9a4.438,4.438,0,0,0,2.175-.621,5.13,5.13,0,0,0,1.712-1.463l.529-2.62h-2.519a3.73,3.73,0,0,0-2.345.8,3.059,3.059,0,0,0-1.24,1.844,1.831,1.831,0,0,0,.2,1.536A1.8,1.8,0,0,0,1103.254,6938.466Z" transform="translate(-985.724 -6919.808)" fill="#073360"/>
      <path id="Trazado_164232" data-name="Trazado 164232" d="M1114.779,6936.575a1.588,1.588,0,0,0-.354-1.419,4.51,4.51,0,0,0-2.082-.945,7.933,7.933,0,0,1-3.42-1.544,2.7,2.7,0,0,1-.811-2.632,4.588,4.588,0,0,1,1.857-3,6.1,6.1,0,0,1,3.808-1.193,4.514,4.514,0,0,1,3.454,1.29,3.368,3.368,0,0,1,.869,3.1l-.039.081h-2.438a2.069,2.069,0,0,0-.421-1.7,2.093,2.093,0,0,0-1.739-.73,2.923,2.923,0,0,0-1.924.614,2.338,2.338,0,0,0-.87,1.461,1.478,1.478,0,0,0,.31,1.348,4.758,4.758,0,0,0,2.064.861,7.786,7.786,0,0,1,3.5,1.572,2.81,2.81,0,0,1,.8,2.661,4.543,4.543,0,0,1-1.924,3.1,6.686,6.686,0,0,1-3.953,1.136,4.847,4.847,0,0,1-3.742-1.395,3.48,3.48,0,0,1-.922-3.216l.027-.079h2.438a2.1,2.1,0,0,0,.593,2.012,2.883,2.883,0,0,0,1.922.638,3.493,3.493,0,0,0,2.024-.566A2.135,2.135,0,0,0,1114.779,6936.575Z" transform="translate(-979.541 -6919.808)" fill="#073360"/>
      <path id="Trazado_164233" data-name="Trazado 164233" d="M1064.138,6950.378l.091-.545h2.162a2.948,2.948,0,0,0,2.286-.87,4.553,4.553,0,0,0,1.048-2.4,3.442,3.442,0,0,0-.329-2.53,2.323,2.323,0,0,0-2.03-.83,3.356,3.356,0,0,0-2.312.9,3.847,3.847,0,0,0-1.218,2.359h-2.426l-.025-.081a5.7,5.7,0,0,1,2.035-3.735,6.368,6.368,0,0,1,4.263-1.482,4.717,4.717,0,0,1,3.688,1.432,4.653,4.653,0,0,1,.883,4.027,5.743,5.743,0,0,1-1.048,2.414,5.236,5.236,0,0,1-2.286,1.767,3.285,3.285,0,0,1,1.949,1.8,5,5,0,0,1,.265,2.673,6.422,6.422,0,0,1-2.266,4.174,6.769,6.769,0,0,1-4.349,1.449,5.045,5.045,0,0,1-3.774-1.43,4.091,4.091,0,0,1-.957-3.843l.027-.063h2.45a3.05,3.05,0,0,0,.423,2.432,2.554,2.554,0,0,0,2.148.862,3.535,3.535,0,0,0,2.431-.9,4.365,4.365,0,0,0,1.3-2.633,3.6,3.6,0,0,0-.283-2.652,2.6,2.6,0,0,0-2.219-.8H1063.9Z" transform="translate(-1016.768 -6907.686)" fill="#073360"/>
      <path id="Trazado_164234" data-name="Trazado 164234" d="M1070.1,6953.2h-2.517l.526-2.661h2.517Z" transform="translate(-1010.514 -6900.265)" fill="#073360"/>
      <path id="Trazado_164235" data-name="Trazado 164235" d="M1083.455,6953.31a11.035,11.035,0,0,1-2.644,5.752,6.206,6.206,0,0,1-4.551,1.84,4.057,4.057,0,0,1-3.7-2q-1.233-2-.507-5.594l.908-4.545a10.937,10.937,0,0,1,2.649-5.751,6.238,6.238,0,0,1,4.559-1.853,4.028,4.028,0,0,1,3.69,2q1.212,2.005.5,5.6Zm-1.53-5.1a6.567,6.567,0,0,0-.032-3.825,2.132,2.132,0,0,0-2.128-1.179,3.307,3.307,0,0,0-2.549,1.282,8,8,0,0,0-1.6,3.722l-1.12,5.62a6.548,6.548,0,0,0,.039,3.839,2.138,2.138,0,0,0,2.133,1.191,3.258,3.258,0,0,0,2.537-1.292,8.232,8.232,0,0,0,1.6-3.738Z" transform="translate(-1007.187 -6907.686)" fill="#073360"/>
      <path id="Trazado_164236" data-name="Trazado 164236" d="M1080.887,6945.129a5.085,5.085,0,0,1,1.57-2.873,4.233,4.233,0,0,1,2.938-1.095,2.8,2.8,0,0,1,2.418,1.159,3.45,3.45,0,0,1,.507,2.809l-.2,1.014a5.136,5.136,0,0,1-1.569,2.859,4.2,4.2,0,0,1-2.911,1.08,2.851,2.851,0,0,1-2.445-1.152,3.338,3.338,0,0,1-.507-2.787Zm1.542,14.045-1.225-.883,11.728-14.994,1.226.884Zm.133-13.031a2.494,2.494,0,0,0,.131,1.688,1.3,1.3,0,0,0,1.264.646,1.957,1.957,0,0,0,1.451-.687,3.33,3.33,0,0,0,.842-1.646l.2-1.014a2.61,2.61,0,0,0-.145-1.7,1.264,1.264,0,0,0-1.227-.661,1.973,1.973,0,0,0-1.481.706,3.311,3.311,0,0,0-.837,1.655Zm4.756,9.777a5.049,5.049,0,0,1,1.568-2.865,4.241,4.241,0,0,1,2.939-1.089,2.8,2.8,0,0,1,2.418,1.161,3.422,3.422,0,0,1,.507,2.793l-.2,1.028a5.135,5.135,0,0,1-1.576,2.873,4.209,4.209,0,0,1-2.9,1.08,2.851,2.851,0,0,1-2.445-1.153,3.352,3.352,0,0,1-.507-2.8Zm1.673,1.028a2.522,2.522,0,0,0,.133,1.691,1.3,1.3,0,0,0,1.265.653,1.945,1.945,0,0,0,1.449-.692,3.367,3.367,0,0,0,.844-1.652l.2-1.028a2.551,2.551,0,0,0-.145-1.687,1.259,1.259,0,0,0-1.225-.658,1.982,1.982,0,0,0-1.481.7,3.293,3.293,0,0,0-.838,1.648Z" transform="translate(-1000.22 -6907.686)" fill="#073360"/>
    </g>
    <g id="Grupo_72786" data-name="Grupo 72786" transform="translate(1166.435 7075.321)">
      <path id="Trazado_164237" data-name="Trazado 164237" d="M1055.472,7020.07l-1.53,7.682H1051.4l3.833-19.184h6.918a4.974,4.974,0,0,1,4.025,1.609,4.678,4.678,0,0,1,.863,4.141,7.049,7.049,0,0,1-2.418,4.269,7.377,7.377,0,0,1-4.763,1.483Zm.408-2.041h4.387a3.918,3.918,0,0,0,2.775-1.068,4.822,4.822,0,0,0,1.455-2.621,3.628,3.628,0,0,0-.323-2.71,2.663,2.663,0,0,0-2.431-1.02h-4.374Z" transform="translate(-1048.6 -7007.198)" fill="#fff"/>
      <path id="Trazado_164238" data-name="Trazado 164238" d="M1065.581,7025.97a4.619,4.619,0,0,1-4.066-2,6.843,6.843,0,0,1-.876-5.132l.093-.579a8.913,8.913,0,0,1,2.5-5.126,6.079,6.079,0,0,1,4.315-1.964,4.134,4.134,0,0,1,3.756,1.756,6.513,6.513,0,0,1,.684,4.632l-.263,1.623h-8.591a5.69,5.69,0,0,0,.4,3.461,2.46,2.46,0,0,0,2.365,1.285,6.034,6.034,0,0,0,2.175-.388,6.127,6.127,0,0,0,1.766-1.016l.724,1.689a6.48,6.48,0,0,1-2.056,1.251A7.77,7.77,0,0,1,1065.581,7025.97Zm1.646-12.757a2.962,2.962,0,0,0-2.141,1.108,6.408,6.408,0,0,0-1.483,2.74l.039.078h5.865l.052-.342a3.991,3.991,0,0,0-.3-2.589A2.115,2.115,0,0,0,1067.228,7013.213Z" transform="translate(-1041.396 -7005.136)" fill="#fff"/>
      <path id="Trazado_164239" data-name="Trazado 164239" d="M1080.783,7019.367a9.936,9.936,0,0,1-2.221,4.948,5.291,5.291,0,0,1-4.025,1.654,4.766,4.766,0,0,1-2.062-.436,3.871,3.871,0,0,1-1.51-1.267l-1.383,6.906h-2.544l3.941-19.739h2.187l-.093,1.41a5.513,5.513,0,0,1,1.773-1.245,5.234,5.234,0,0,1,2.114-.429,3.622,3.622,0,0,1,3.419,2.278,8.812,8.812,0,0,1,.455,5.641Zm-2.492-.283a7.444,7.444,0,0,0-.15-4.18,2.372,2.372,0,0,0-2.379-1.624,2.815,2.815,0,0,0-1.634.514,5.2,5.2,0,0,0-1.358,1.407l-1.4,6.962a2.844,2.844,0,0,0,1.028,1.3,3.05,3.05,0,0,0,1.754.468,3.281,3.281,0,0,0,2.608-1.233,7.4,7.4,0,0,0,1.476-3.335Z" transform="translate(-1036.226 -7005.136)" fill="#fff"/>
      <path id="Trazado_164240" data-name="Trazado 164240" d="M1084.005,7021.9a1.588,1.588,0,0,0-.356-1.419,4.517,4.517,0,0,0-2.081-.946,7.92,7.92,0,0,1-3.42-1.541,2.71,2.71,0,0,1-.81-2.634,4.584,4.584,0,0,1,1.858-3,6.1,6.1,0,0,1,3.808-1.193,4.507,4.507,0,0,1,3.452,1.29,3.375,3.375,0,0,1,.871,3.1l-.039.08h-2.438a2.031,2.031,0,0,0-2.16-2.426,2.915,2.915,0,0,0-1.926.615,2.345,2.345,0,0,0-.869,1.462,1.479,1.479,0,0,0,.31,1.349,4.75,4.75,0,0,0,2.062.858,7.815,7.815,0,0,1,3.505,1.572,2.809,2.809,0,0,1,.8,2.661,4.54,4.54,0,0,1-1.926,3.1,6.672,6.672,0,0,1-3.952,1.138,4.849,4.849,0,0,1-3.744-1.4,3.481,3.481,0,0,1-.921-3.215l.025-.078h2.438a2.1,2.1,0,0,0,.593,2.011,2.9,2.9,0,0,0,1.924.639,3.494,3.494,0,0,0,2.022-.566A2.141,2.141,0,0,0,1084.005,7021.9Z" transform="translate(-1029.173 -7005.136)" fill="#fff"/>
      <path id="Trazado_164241" data-name="Trazado 164241" d="M1085.795,7028.358h-2.544l2.846-14.258h2.544Zm3.585-17.908h-2.544l.527-2.647h2.544Z" transform="translate(-1023.397 -7007.802)" fill="#fff"/>
      <path id="Trazado_164242" data-name="Trazado 164242" d="M1061.471,7045.952h-11.634l.288-1.779,6.959-6.982a20.829,20.829,0,0,0,2.576-2.983,6.1,6.1,0,0,0,.916-2.274,3.479,3.479,0,0,0-.356-2.437,2,2,0,0,0-1.831-.963,3.859,3.859,0,0,0-2.814,1.035,4.944,4.944,0,0,0-1.351,2.853H1051.8l-.025-.078a6.668,6.668,0,0,1,2.2-4.212,6.859,6.859,0,0,1,4.731-1.641,4.322,4.322,0,0,1,3.557,1.521,4.635,4.635,0,0,1,.871,3.828,7.54,7.54,0,0,1-1.338,3.157,24.707,24.707,0,0,1-2.957,3.361l-5.535,5.474.027.078h8.473Z" transform="translate(-1049.837 -6993.014)" fill="#fff"/>
      <path id="Trazado_164243" data-name="Trazado 164243" d="M1062.379,7044.188a3.918,3.918,0,0,0,2.966-1.447,8.213,8.213,0,0,0,1.764-4.247l.054-.328a4.674,4.674,0,0,1-3.7,1.767,4.427,4.427,0,0,1-3.807-1.753,6.26,6.26,0,0,1-.79-4.85,8.64,8.64,0,0,1,2.4-4.98,5.933,5.933,0,0,1,4.236-1.858,4.713,4.713,0,0,1,4.084,1.9q1.37,1.9.792,5.509l-.726,4.572a9.927,9.927,0,0,1-2.675,5.834,6.9,6.9,0,0,1-4.915,1.927,9.559,9.559,0,0,1-1.872-.193,5.461,5.461,0,0,1-1.661-.59l.7-1.971a4.989,4.989,0,0,0,1.424.545A8.065,8.065,0,0,0,1062.379,7044.188Zm1.412-6.3a4.073,4.073,0,0,0,2.239-.631,4.506,4.506,0,0,0,1.53-1.6l.328-2.029a6.507,6.507,0,0,0-.244-3.868,2.449,2.449,0,0,0-2.379-1.23,3.2,3.2,0,0,0-2.377,1.359,6.812,6.812,0,0,0-1.483,3.437,5.448,5.448,0,0,0,.29,3.354A2.181,2.181,0,0,0,1063.79,7037.888Z" transform="translate(-1042.958 -6993.014)" fill="#fff"/>
      <path id="Trazado_164244" data-name="Trazado 164244" d="M1068.516,7038.531H1066l.529-2.662h2.517Z" transform="translate(-1037.05 -6985.593)" fill="#fff"/>
      <path id="Trazado_164245" data-name="Trazado 164245" d="M1071.261,7037.168l2.714-10.522h8.974l-.369,2.3h-6.812l-1.437,5.39a6.17,6.17,0,0,1,1.331-.745,4.468,4.468,0,0,1,1.568-.319,3.955,3.955,0,0,1,3.631,1.723,6.577,6.577,0,0,1,.664,4.718,8.287,8.287,0,0,1-2.187,4.689,6.072,6.072,0,0,1-4.493,1.7,4.772,4.772,0,0,1-3.532-1.346,4.171,4.171,0,0,1-.869-3.922l.027-.064h2.305a3.027,3.027,0,0,0,.408,2.452,2.38,2.38,0,0,0,1.976.838,3.2,3.2,0,0,0,2.458-1.172,6.053,6.053,0,0,0,1.365-3.157,4.8,4.8,0,0,0-.349-3.065,2.243,2.243,0,0,0-2.128-1.145,3.692,3.692,0,0,0-2.029.467,3.2,3.2,0,0,0-1.134,1.4Z" transform="translate(-1033.63 -6992.893)" fill="#fff"/>
      <path id="Trazado_164246" data-name="Trazado 164246" d="M1079.324,7030.458a5.084,5.084,0,0,1,1.569-2.873,4.225,4.225,0,0,1,2.938-1.095,2.8,2.8,0,0,1,2.418,1.16,3.445,3.445,0,0,1,.507,2.808l-.2,1.014a5.137,5.137,0,0,1-1.569,2.859,4.2,4.2,0,0,1-2.911,1.082,2.853,2.853,0,0,1-2.445-1.154,3.337,3.337,0,0,1-.507-2.787Zm1.543,14.045-1.226-.881,11.728-15,1.226.883Zm.132-13.031a2.5,2.5,0,0,0,.131,1.688,1.3,1.3,0,0,0,1.265.645,1.959,1.959,0,0,0,1.451-.687,3.32,3.32,0,0,0,.842-1.646l.2-1.014a2.609,2.609,0,0,0-.145-1.7,1.263,1.263,0,0,0-1.227-.659,1.976,1.976,0,0,0-1.481.7,3.314,3.314,0,0,0-.837,1.656Zm4.756,9.776a5.04,5.04,0,0,1,1.568-2.863,4.238,4.238,0,0,1,2.939-1.09,2.8,2.8,0,0,1,2.418,1.16,3.424,3.424,0,0,1,.507,2.793l-.2,1.028a5.131,5.131,0,0,1-1.576,2.874,4.214,4.214,0,0,1-2.9,1.08,2.849,2.849,0,0,1-2.445-1.153,3.354,3.354,0,0,1-.507-2.8Zm1.673,1.028a2.526,2.526,0,0,0,.133,1.693,1.3,1.3,0,0,0,1.265.651,1.948,1.948,0,0,0,1.449-.691,3.368,3.368,0,0,0,.844-1.653l.2-1.028a2.548,2.548,0,0,0-.145-1.686,1.26,1.26,0,0,0-1.225-.659,1.979,1.979,0,0,0-1.481.7,3.3,3.3,0,0,0-.838,1.647Z" transform="translate(-1026.738 -6993.014)" fill="#fff"/>
    </g>
    <path id="Trazado_164247" data-name="Trazado 164247" d="M977.909,6947.416l21.963,8.411,20.853,62.208" transform="translate(59.683 19.738)" fill="none" stroke="#073360" stroke-miterlimit="10" stroke-width="0.75"/>
    <line id="Línea_304" data-name="Línea 304" y1="74.455" x2="75.701" transform="translate(1099.742 6967.154)" fill="none" stroke="#073360" stroke-miterlimit="10" stroke-width="0.75"/>
  </g>
</svg>
