<svg xmlns="http://www.w3.org/2000/svg" xmlns:xlink="http://www.w3.org/1999/xlink" width="394.848" height="429.178" viewBox="0 0 394.848 429.178">
  <defs>
    <radialGradient id="radial-gradient" cx="0.5" cy="0.5" r="0.647" gradientTransform="translate(0.174) scale(0.652 1)" gradientUnits="objectBoundingBox">
      <stop offset="0.531" stop-color="#fff"/>
      <stop offset="0.845" stop-color="#dedede"/>
      <stop offset="1" stop-color="#ccc"/>
    </radialGradient>
    <radialGradient id="radial-gradient-2" cx="0.5" cy="0.5" r="0.647" xlink:href="#radial-gradient"/>
  </defs>
  <g id="Grupo_80247" data-name="Grupo 80247" transform="translate(-709.111 -1212.228)">
    <g id="Grupo_80247-2" data-name="Grupo 80247">
      <path id="Trazado_180743" data-name="Trazado 180743" d="M854.329,1218.756l.012.035a2.571,2.571,0,0,1-.844,2.013,3.217,3.217,0,0,1-2.291.811,3.009,3.009,0,0,1-2.358-1.025,3.769,3.769,0,0,1-.911-2.6v-1.517a3.781,3.781,0,0,1,.911-2.6,3,3,0,0,1,2.358-1.028,3.314,3.314,0,0,1,2.3.77,2.548,2.548,0,0,1,.832,2.042l-.012.035h-1.107a1.908,1.908,0,0,0-.527-1.418,2.031,2.031,0,0,0-1.489-.521,1.82,1.82,0,0,0-1.541.779,3.163,3.163,0,0,0-.574,1.931v1.529a3.183,3.183,0,0,0,.574,1.943,1.82,1.82,0,0,0,1.541.779,2.033,2.033,0,0,0,1.489-.519,1.918,1.918,0,0,0,.527-1.432Z"/>
      <path id="Trazado_180744" data-name="Trazado 180744" d="M859.579,1221.492c-.039-.191-.069-.36-.091-.507a3.83,3.83,0,0,1-.038-.442,2.679,2.679,0,0,1-.84.764,2.145,2.145,0,0,1-1.117.308,2.069,2.069,0,0,1-1.508-.507,1.862,1.862,0,0,1-.519-1.4,1.637,1.637,0,0,1,.735-1.421,3.436,3.436,0,0,1,1.995-.513h1.254v-.627a1.166,1.166,0,0,0-.339-.882,1.339,1.339,0,0,0-.961-.325,1.392,1.392,0,0,0-.906.284.856.856,0,0,0-.348.683h-1.1l-.012-.035a1.537,1.537,0,0,1,.654-1.266,2.68,2.68,0,0,1,1.778-.574,2.617,2.617,0,0,1,1.734.548,1.939,1.939,0,0,1,.657,1.579v3.053a5.813,5.813,0,0,0,.035.656,3.3,3.3,0,0,0,.129.621Zm-1.916-.85a2.053,2.053,0,0,0,1.131-.321,1.522,1.522,0,0,0,.656-.736v-1.028h-1.295a1.683,1.683,0,0,0-1.116.35,1.048,1.048,0,0,0-.419.824.865.865,0,0,0,.264.666A1.1,1.1,0,0,0,857.663,1220.642Z"/>
      <path id="Trazado_180745" data-name="Trazado 180745" d="M862.761,1221.492v-5.484h-.99v-.856h.99v-.8a2.178,2.178,0,0,1,.53-1.567,1.954,1.954,0,0,1,1.48-.554,2.487,2.487,0,0,1,.4.033c.135.021.284.051.448.09l-.14.879c-.071-.015-.156-.029-.255-.041a2.864,2.864,0,0,0-.314-.017.908.908,0,0,0-.75.3,1.356,1.356,0,0,0-.246.875v.8h1.319v.856h-1.319v5.484Z"/>
      <path id="Trazado_180746" data-name="Trazado 180746" d="M868.913,1221.615a2.672,2.672,0,0,1-2.106-.882,3.316,3.316,0,0,1-.782-2.288v-.258a3.253,3.253,0,0,1,.8-2.253,2.483,2.483,0,0,1,1.907-.9,2.4,2.4,0,0,1,1.94.773,3.086,3.086,0,0,1,.656,2.063v.721H867.22l-.018.029a2.5,2.5,0,0,0,.463,1.5,1.478,1.478,0,0,0,1.248.587,2.915,2.915,0,0,0,1.029-.167,2.362,2.362,0,0,0,.764-.46l.451.751a2.667,2.667,0,0,1-.9.56A3.617,3.617,0,0,1,868.913,1221.615Zm-.176-5.672a1.254,1.254,0,0,0-.99.488,2.314,2.314,0,0,0-.5,1.223l.012.029h2.924v-.151a1.76,1.76,0,0,0-.363-1.133A1.3,1.3,0,0,0,868.737,1215.943Zm.534-3.246h1.347l.012.035-1.582,1.524h-.861Z"/>
      <path id="Trazado_180747" data-name="Trazado 180747" d="M875.347,1218.439a4.233,4.233,0,0,1,.653-2.466,2.106,2.106,0,0,1,1.831-.938,2.273,2.273,0,0,1,.988.2,2.023,2.023,0,0,1,.735.6v-3.487h1.154v9.141h-.943l-.135-.779a2.058,2.058,0,0,1-.762.674,2.292,2.292,0,0,1-1.048.228,2.176,2.176,0,0,1-1.817-.841,3.5,3.5,0,0,1-.656-2.212Zm1.154.123a2.686,2.686,0,0,0,.393,1.538,1.37,1.37,0,0,0,1.218.578,1.535,1.535,0,0,0,.868-.235,1.757,1.757,0,0,0,.574-.656v-2.959a1.781,1.781,0,0,0-.577-.624,1.531,1.531,0,0,0-.853-.231,1.318,1.318,0,0,0-1.227.685,3.536,3.536,0,0,0-.4,1.781Z"/>
      <path id="Trazado_180748" data-name="Trazado 180748" d="M885.062,1221.615a2.676,2.676,0,0,1-2.107-.882,3.321,3.321,0,0,1-.782-2.288v-.258a3.254,3.254,0,0,1,.806-2.253,2.483,2.483,0,0,1,1.907-.9,2.4,2.4,0,0,1,1.939.773,3.082,3.082,0,0,1,.657,2.063v.721h-4.114l-.017.029a2.492,2.492,0,0,0,.463,1.5,1.478,1.478,0,0,0,1.248.587,2.913,2.913,0,0,0,1.028-.167,2.366,2.366,0,0,0,.765-.46l.451.751a2.683,2.683,0,0,1-.9.56A3.615,3.615,0,0,1,885.062,1221.615Zm-.176-5.672a1.251,1.251,0,0,0-.99.488,2.3,2.3,0,0,0-.5,1.223l.012.029h2.923v-.151a1.76,1.76,0,0,0-.363-1.133A1.3,1.3,0,0,0,884.886,1215.943Z"/>
      <path id="Trazado_180749" data-name="Trazado 180749" d="M895.445,1219.805a.785.785,0,0,0-.291-.627,2.721,2.721,0,0,0-1.1-.428,4.611,4.611,0,0,1-1.737-.682,1.379,1.379,0,0,1-.583-1.173,1.654,1.654,0,0,1,.656-1.316,2.987,2.987,0,0,1,3.471.024,1.678,1.678,0,0,1,.624,1.383l-.011.035h-1.1a1.01,1.01,0,0,0-.348-.747,1.288,1.288,0,0,0-.923-.331,1.329,1.329,0,0,0-.914.27.841.841,0,0,0-.3.65.726.726,0,0,0,.264.592,2.746,2.746,0,0,0,1.072.387,4.62,4.62,0,0,1,1.787.7,1.41,1.41,0,0,1,.586,1.186,1.64,1.64,0,0,1-.683,1.366,2.864,2.864,0,0,1-1.784.521,2.786,2.786,0,0,1-1.91-.615,1.754,1.754,0,0,1-.662-1.436l.011-.035h1.1a1.062,1.062,0,0,0,.457.895,1.77,1.77,0,0,0,1,.283,1.636,1.636,0,0,0,.964-.249A.769.769,0,0,0,895.445,1219.805Z"/>
      <path id="Trazado_180750" data-name="Trazado 180750" d="M901.931,1221.492q-.059-.286-.091-.507a3.83,3.83,0,0,1-.038-.442,2.683,2.683,0,0,1-.841.764,2.144,2.144,0,0,1-1.116.308,2.073,2.073,0,0,1-1.509-.507,1.861,1.861,0,0,1-.518-1.4,1.637,1.637,0,0,1,.735-1.421,3.431,3.431,0,0,1,1.995-.513H901.8v-.627a1.162,1.162,0,0,0-.34-.882,1.337,1.337,0,0,0-.961-.325,1.388,1.388,0,0,0-.9.284.854.854,0,0,0-.349.683h-1.1l-.012-.035a1.536,1.536,0,0,1,.653-1.266,2.683,2.683,0,0,1,1.779-.574,2.62,2.62,0,0,1,1.734.548,1.941,1.941,0,0,1,.656,1.579v3.053a6.051,6.051,0,0,0,.035.656,3.457,3.457,0,0,0,.129.621Zm-1.916-.85a2.053,2.053,0,0,0,1.131-.321,1.526,1.526,0,0,0,.656-.736v-1.028h-1.295a1.68,1.68,0,0,0-1.116.35,1.048,1.048,0,0,0-.419.824.865.865,0,0,0,.264.666A1.1,1.1,0,0,0,900.015,1220.642Z"/>
      <path id="Trazado_180751" data-name="Trazado 180751" d="M910.046,1218.562a3.486,3.486,0,0,1-.659,2.212,2.178,2.178,0,0,1-1.814.841,2.307,2.307,0,0,1-1.089-.243,2.019,2.019,0,0,1-.768-.718l-.141.838h-.943v-9.141h1.154v3.551a2.007,2.007,0,0,1,.742-.644,2.26,2.26,0,0,1,1.034-.223,2.108,2.108,0,0,1,1.828.938,4.219,4.219,0,0,1,.656,2.466Zm-1.154-.123a3.5,3.5,0,0,0-.4-1.778,1.319,1.319,0,0,0-1.221-.688,1.509,1.509,0,0,0-.9.26,1.845,1.845,0,0,0-.583.7v2.749a1.9,1.9,0,0,0,.583.732,1.5,1.5,0,0,0,.911.264,1.372,1.372,0,0,0,1.213-.58,2.664,2.664,0,0,0,.4-1.536Z"/>
      <path id="Trazado_180752" data-name="Trazado 180752" d="M911.183,1218.264a3.491,3.491,0,0,1,.762-2.318,2.554,2.554,0,0,1,2.068-.911,2.581,2.581,0,0,1,2.083.908,3.48,3.48,0,0,1,.765,2.321v.128a3.474,3.474,0,0,1-.762,2.321,2.837,2.837,0,0,1-4.152,0,3.472,3.472,0,0,1-.764-2.318Zm1.154.126a3,3,0,0,0,.425,1.662,1.536,1.536,0,0,0,2.517,0,2.988,2.988,0,0,0,.427-1.662v-.129a2.98,2.98,0,0,0-.43-1.657,1.415,1.415,0,0,0-1.263-.661,1.394,1.394,0,0,0-1.251.661,3.013,3.013,0,0,0-.425,1.657Z"/>
      <path id="Trazado_180753" data-name="Trazado 180753" d="M921.273,1216.172l-.592-.035a1.326,1.326,0,0,0-.771.216,1.391,1.391,0,0,0-.483.61v4.529h-1.154v-6.34H919.3l.111.926a2.216,2.216,0,0,1,.665-.768,1.56,1.56,0,0,1,.911-.275,1.387,1.387,0,0,1,.246.021,1.616,1.616,0,0,1,.194.043Z"/>
      <path id="Trazado_180754" data-name="Trazado 180754" d="M929.054,1219.805a.787.787,0,0,0-.29-.627,2.733,2.733,0,0,0-1.1-.428,4.626,4.626,0,0,1-1.737-.682,1.379,1.379,0,0,1-.583-1.173,1.657,1.657,0,0,1,.656-1.316,2.989,2.989,0,0,1,3.472.024,1.684,1.684,0,0,1,.624,1.383l-.012.035h-1.1a1.011,1.011,0,0,0-.349-.747,1.287,1.287,0,0,0-.923-.331,1.329,1.329,0,0,0-.914.27.844.844,0,0,0-.3.65.725.725,0,0,0,.264.592,2.753,2.753,0,0,0,1.072.387,4.613,4.613,0,0,1,1.787.7,1.41,1.41,0,0,1,.586,1.186,1.639,1.639,0,0,1-.682,1.366,2.867,2.867,0,0,1-1.785.521,2.788,2.788,0,0,1-1.91-.615,1.757,1.757,0,0,1-.662-1.436l.012-.035h1.1a1.062,1.062,0,0,0,.457.895,1.774,1.774,0,0,0,1,.283,1.631,1.631,0,0,0,.964-.249A.767.767,0,0,0,929.054,1219.805Z"/>
      <path id="Trazado_180755" data-name="Trazado 180755" d="M935.669,1220.555a2.157,2.157,0,0,1-.767.785,2.107,2.107,0,0,1-1.084.275,2.039,2.039,0,0,1-1.618-.662,3.078,3.078,0,0,1-.58-2.063v-3.738h1.155v3.75a2.365,2.365,0,0,0,.3,1.4,1.112,1.112,0,0,0,.932.381,1.9,1.9,0,0,0,1.017-.249,1.565,1.565,0,0,0,.606-.706v-4.571h1.154v6.34h-1.037Z"/>
      <path id="Trazado_180756" data-name="Trazado 180756" d="M942.361,1221.492c-.04-.191-.07-.36-.091-.507a3.625,3.625,0,0,1-.038-.442,2.683,2.683,0,0,1-.841.764,2.144,2.144,0,0,1-1.116.308,2.072,2.072,0,0,1-1.509-.507,1.862,1.862,0,0,1-.519-1.4,1.636,1.636,0,0,1,.736-1.421,3.431,3.431,0,0,1,2-.513h1.254v-.627a1.166,1.166,0,0,0-.34-.882,1.339,1.339,0,0,0-.961-.325,1.388,1.388,0,0,0-.905.284.854.854,0,0,0-.349.683h-1.1l-.011-.035a1.533,1.533,0,0,1,.653-1.266,2.682,2.682,0,0,1,1.778-.574,2.621,2.621,0,0,1,1.735.548,1.941,1.941,0,0,1,.656,1.579v3.053a6.051,6.051,0,0,0,.035.656,3.374,3.374,0,0,0,.129.621Zm-1.916-.85a2.052,2.052,0,0,0,1.13-.321,1.529,1.529,0,0,0,.657-.736v-1.028h-1.295a1.684,1.684,0,0,0-1.117.35,1.047,1.047,0,0,0-.418.824.864.864,0,0,0,.263.666A1.106,1.106,0,0,0,940.445,1220.642Z"/>
      <path id="Trazado_180757" data-name="Trazado 180757" d="M947.089,1219.623l.1.445h.035l.111-.445,1.459-4.471h1.178l-2.332,6.34h-.873l-2.362-6.34h1.184Z"/>
      <path id="Trazado_180758" data-name="Trazado 180758" d="M953.564,1221.615a2.676,2.676,0,0,1-2.107-.882,3.321,3.321,0,0,1-.782-2.288v-.258a3.253,3.253,0,0,1,.806-2.253,2.483,2.483,0,0,1,1.907-.9,2.4,2.4,0,0,1,1.939.773,3.082,3.082,0,0,1,.657,2.063v.721H951.87l-.017.029a2.492,2.492,0,0,0,.463,1.5,1.476,1.476,0,0,0,1.248.587,2.913,2.913,0,0,0,1.028-.167,2.366,2.366,0,0,0,.765-.46l.451.751a2.683,2.683,0,0,1-.9.56A3.615,3.615,0,0,1,953.564,1221.615Zm-.176-5.672a1.251,1.251,0,0,0-.99.488,2.3,2.3,0,0,0-.5,1.223l.011.029h2.924v-.151a1.76,1.76,0,0,0-.363-1.133A1.3,1.3,0,0,0,953.388,1215.943Z"/>
      <path id="Trazado_180759" data-name="Trazado 180759" d="M854.329,1233.156l.012.035a2.569,2.569,0,0,1-.844,2.012,3.214,3.214,0,0,1-2.291.812,3.009,3.009,0,0,1-2.358-1.025,3.77,3.77,0,0,1-.911-2.6v-1.518a3.78,3.78,0,0,1,.911-2.6,3,3,0,0,1,2.358-1.028,3.314,3.314,0,0,1,2.3.77,2.548,2.548,0,0,1,.832,2.042l-.012.035h-1.107a1.908,1.908,0,0,0-.527-1.418,2.03,2.03,0,0,0-1.489-.521,1.82,1.82,0,0,0-1.541.779,3.163,3.163,0,0,0-.574,1.931v1.529a3.184,3.184,0,0,0,.574,1.943,1.82,1.82,0,0,0,1.541.779,2.034,2.034,0,0,0,1.489-.519,1.918,1.918,0,0,0,.527-1.432Z"/>
      <path id="Trazado_180760" data-name="Trazado 180760" d="M859.579,1235.892c-.039-.191-.069-.36-.091-.507a3.832,3.832,0,0,1-.038-.442,2.693,2.693,0,0,1-.84.764,2.154,2.154,0,0,1-1.117.308,2.07,2.07,0,0,1-1.508-.507,1.864,1.864,0,0,1-.519-1.4,1.637,1.637,0,0,1,.735-1.421,3.436,3.436,0,0,1,1.995-.513h1.254v-.627a1.166,1.166,0,0,0-.339-.882,1.339,1.339,0,0,0-.961-.325,1.393,1.393,0,0,0-.906.284.856.856,0,0,0-.348.683h-1.1l-.012-.035a1.537,1.537,0,0,1,.654-1.266,2.68,2.68,0,0,1,1.778-.574,2.617,2.617,0,0,1,1.734.548,1.939,1.939,0,0,1,.657,1.579v3.053a5.815,5.815,0,0,0,.035.656,3.3,3.3,0,0,0,.129.621Zm-1.916-.85a2.06,2.06,0,0,0,1.131-.321,1.522,1.522,0,0,0,.656-.736v-1.029h-1.295a1.684,1.684,0,0,0-1.116.351,1.048,1.048,0,0,0-.419.824.866.866,0,0,0,.264.666A1.1,1.1,0,0,0,857.663,1235.042Z"/>
      <path id="Trazado_180761" data-name="Trazado 180761" d="M862.761,1235.892v-5.484h-.99v-.856h.99v-.8a2.178,2.178,0,0,1,.53-1.567,1.954,1.954,0,0,1,1.48-.554,2.487,2.487,0,0,1,.4.033c.135.021.284.051.448.09l-.14.879c-.071-.015-.156-.029-.255-.041a2.864,2.864,0,0,0-.314-.017.911.911,0,0,0-.75.3,1.36,1.36,0,0,0-.246.876v.8h1.319v.856h-1.319v5.484Z"/>
      <path id="Trazado_180762" data-name="Trazado 180762" d="M868.913,1236.015a2.673,2.673,0,0,1-2.106-.882,3.316,3.316,0,0,1-.782-2.288v-.258a3.253,3.253,0,0,1,.8-2.253,2.483,2.483,0,0,1,1.907-.9,2.4,2.4,0,0,1,1.94.773,3.085,3.085,0,0,1,.656,2.063v.721H867.22l-.018.029a2.493,2.493,0,0,0,.463,1.5,1.476,1.476,0,0,0,1.248.588,2.912,2.912,0,0,0,1.029-.167,2.376,2.376,0,0,0,.764-.46l.451.751a2.682,2.682,0,0,1-.9.56A3.619,3.619,0,0,1,868.913,1236.015Zm-.176-5.672a1.254,1.254,0,0,0-.99.488,2.314,2.314,0,0,0-.5,1.223l.012.029h2.924v-.151a1.759,1.759,0,0,0-.363-1.133A1.3,1.3,0,0,0,868.737,1230.343Zm.534-3.246h1.347l.012.035-1.582,1.524h-.861Z"/>
      <path id="Trazado_180763" data-name="Trazado 180763" d="M875.347,1232.839a4.237,4.237,0,0,1,.653-2.467,2.105,2.105,0,0,1,1.831-.937,2.273,2.273,0,0,1,.988.2,2.022,2.022,0,0,1,.735.6v-3.487h1.154v9.141h-.943l-.135-.779a2.047,2.047,0,0,1-.762.673,2.279,2.279,0,0,1-1.048.229,2.176,2.176,0,0,1-1.817-.841,3.5,3.5,0,0,1-.656-2.212Zm1.154.123a2.686,2.686,0,0,0,.393,1.538,1.37,1.37,0,0,0,1.218.578,1.535,1.535,0,0,0,.868-.235,1.757,1.757,0,0,0,.574-.656v-2.959a1.78,1.78,0,0,0-.577-.624,1.53,1.53,0,0,0-.853-.232,1.319,1.319,0,0,0-1.227.686,3.536,3.536,0,0,0-.4,1.781Z"/>
      <path id="Trazado_180764" data-name="Trazado 180764" d="M885.062,1236.015a2.676,2.676,0,0,1-2.107-.882,3.321,3.321,0,0,1-.782-2.288v-.258a3.253,3.253,0,0,1,.806-2.253,2.483,2.483,0,0,1,1.907-.9,2.4,2.4,0,0,1,1.939.773,3.08,3.08,0,0,1,.657,2.063v.721h-4.114l-.017.029a2.487,2.487,0,0,0,.463,1.5,1.476,1.476,0,0,0,1.248.588,2.91,2.91,0,0,0,1.028-.167,2.381,2.381,0,0,0,.765-.46l.451.751a2.7,2.7,0,0,1-.9.56A3.617,3.617,0,0,1,885.062,1236.015Zm-.176-5.672a1.251,1.251,0,0,0-.99.488,2.3,2.3,0,0,0-.5,1.223l.012.029h2.923v-.151a1.759,1.759,0,0,0-.363-1.133A1.3,1.3,0,0,0,884.886,1230.343Z"/>
      <path id="Trazado_180765" data-name="Trazado 180765" d="M895.445,1234.2a.784.784,0,0,0-.291-.626,2.7,2.7,0,0,0-1.1-.428,4.611,4.611,0,0,1-1.737-.682,1.379,1.379,0,0,1-.583-1.173,1.654,1.654,0,0,1,.656-1.316,2.987,2.987,0,0,1,3.471.024,1.678,1.678,0,0,1,.624,1.383l-.011.035h-1.1a1.01,1.01,0,0,0-.348-.747,1.285,1.285,0,0,0-.923-.331,1.329,1.329,0,0,0-.914.27.841.841,0,0,0-.3.65.726.726,0,0,0,.264.592,2.745,2.745,0,0,0,1.072.387,4.6,4.6,0,0,1,1.787.7,1.409,1.409,0,0,1,.586,1.186,1.64,1.64,0,0,1-.683,1.366,2.864,2.864,0,0,1-1.784.521,2.786,2.786,0,0,1-1.91-.615,1.754,1.754,0,0,1-.662-1.436l.011-.035h1.1a1.062,1.062,0,0,0,.457.9,1.771,1.771,0,0,0,1,.283,1.636,1.636,0,0,0,.964-.249A.77.77,0,0,0,895.445,1234.2Z"/>
      <path id="Trazado_180766" data-name="Trazado 180766" d="M901.931,1235.892q-.059-.286-.091-.507a3.832,3.832,0,0,1-.038-.442,2.7,2.7,0,0,1-.841.764,2.153,2.153,0,0,1-1.116.308,2.074,2.074,0,0,1-1.509-.507,1.863,1.863,0,0,1-.518-1.4,1.637,1.637,0,0,1,.735-1.421,3.432,3.432,0,0,1,1.995-.513H901.8v-.627a1.162,1.162,0,0,0-.34-.882,1.337,1.337,0,0,0-.961-.325,1.388,1.388,0,0,0-.9.284.855.855,0,0,0-.349.683h-1.1l-.012-.035a1.536,1.536,0,0,1,.653-1.266,2.683,2.683,0,0,1,1.779-.574,2.62,2.62,0,0,1,1.734.548,1.941,1.941,0,0,1,.656,1.579v3.053a6.053,6.053,0,0,0,.035.656,3.457,3.457,0,0,0,.129.621Zm-1.916-.85a2.06,2.06,0,0,0,1.131-.321,1.527,1.527,0,0,0,.656-.736v-1.029h-1.295a1.68,1.68,0,0,0-1.116.351,1.048,1.048,0,0,0-.419.824.866.866,0,0,0,.264.666A1.1,1.1,0,0,0,900.015,1235.042Z"/>
      <path id="Trazado_180767" data-name="Trazado 180767" d="M910.046,1232.962a3.485,3.485,0,0,1-.659,2.212,2.178,2.178,0,0,1-1.814.841,2.308,2.308,0,0,1-1.089-.243,2.026,2.026,0,0,1-.768-.718l-.141.838h-.943v-9.141h1.154v3.551a2.008,2.008,0,0,1,.742-.644,2.261,2.261,0,0,1,1.034-.223,2.107,2.107,0,0,1,1.828.937,4.222,4.222,0,0,1,.656,2.467Zm-1.154-.123a3.5,3.5,0,0,0-.4-1.778,1.32,1.32,0,0,0-1.221-.689,1.509,1.509,0,0,0-.9.261,1.845,1.845,0,0,0-.583.7v2.748a1.9,1.9,0,0,0,.583.733,1.5,1.5,0,0,0,.911.264,1.371,1.371,0,0,0,1.213-.581,2.658,2.658,0,0,0,.4-1.535Z"/>
      <path id="Trazado_180768" data-name="Trazado 180768" d="M911.183,1232.663a3.489,3.489,0,0,1,.762-2.317,2.554,2.554,0,0,1,2.068-.911,2.581,2.581,0,0,1,2.083.908,3.479,3.479,0,0,1,.765,2.32v.129a3.474,3.474,0,0,1-.762,2.321,2.837,2.837,0,0,1-4.152,0,3.472,3.472,0,0,1-.764-2.318Zm1.154.126a3.006,3.006,0,0,0,.425,1.663,1.536,1.536,0,0,0,2.517,0,2.99,2.99,0,0,0,.427-1.663v-.128a2.978,2.978,0,0,0-.43-1.657,1.415,1.415,0,0,0-1.263-.661,1.394,1.394,0,0,0-1.251.661,3.01,3.01,0,0,0-.425,1.657Z"/>
      <path id="Trazado_180769" data-name="Trazado 180769" d="M921.273,1230.572l-.592-.036a1.327,1.327,0,0,0-.771.217,1.39,1.39,0,0,0-.483.61v4.529h-1.154v-6.34H919.3l.111.926a2.218,2.218,0,0,1,.665-.768,1.561,1.561,0,0,1,.911-.275,1.5,1.5,0,0,1,.246.02,1.83,1.83,0,0,1,.194.044Z"/>
      <path id="Trazado_180770" data-name="Trazado 180770" d="M925.849,1235.892v-5.484h-.99v-.856h.99v-.8a2.178,2.178,0,0,1,.53-1.567,1.954,1.954,0,0,1,1.48-.554,2.5,2.5,0,0,1,.4.033c.135.021.284.051.448.09l-.14.879c-.071-.015-.156-.029-.255-.041a2.864,2.864,0,0,0-.314-.017.911.911,0,0,0-.75.3,1.36,1.36,0,0,0-.246.876v.8h1.318v.856H927v5.484Z"/>
      <path id="Trazado_180771" data-name="Trazado 180771" d="M933.536,1234.954a2.153,2.153,0,0,1-.767.786,2.107,2.107,0,0,1-1.084.275,2.036,2.036,0,0,1-1.617-.662,3.075,3.075,0,0,1-.581-2.063v-3.738h1.155v3.75a2.356,2.356,0,0,0,.3,1.4,1.109,1.109,0,0,0,.931.381,1.893,1.893,0,0,0,1.017-.25,1.554,1.554,0,0,0,.606-.706v-4.57h1.155v6.34h-1.038Z"/>
      <path id="Trazado_180772" data-name="Trazado 180772" d="M938.962,1236.015a2.673,2.673,0,0,1-2.106-.882,3.317,3.317,0,0,1-.783-2.288v-.258a3.253,3.253,0,0,1,.806-2.253,2.483,2.483,0,0,1,1.907-.9,2.4,2.4,0,0,1,1.94.773,3.085,3.085,0,0,1,.656,2.063v.721h-4.113l-.018.029a2.494,2.494,0,0,0,.463,1.5,1.476,1.476,0,0,0,1.248.588,2.906,2.906,0,0,0,1.028-.167,2.382,2.382,0,0,0,.765-.46l.451.751a2.683,2.683,0,0,1-.9.56A3.623,3.623,0,0,1,938.962,1236.015Zm-.176-5.672a1.254,1.254,0,0,0-.99.488,2.313,2.313,0,0,0-.5,1.223l.012.029h2.924v-.151a1.754,1.754,0,0,0-.364-1.133A1.3,1.3,0,0,0,938.786,1230.343Z"/>
      <path id="Trazado_180773" data-name="Trazado 180773" d="M945.677,1230.572l-.592-.036a1.323,1.323,0,0,0-.77.217,1.4,1.4,0,0,0-.484.61v4.529h-1.154v-6.34h1.031l.112.926a2.2,2.2,0,0,1,.665-.768,1.557,1.557,0,0,1,.911-.275,1.5,1.5,0,0,1,.246.02,1.864,1.864,0,0,1,.193.044Z"/>
      <path id="Trazado_180774" data-name="Trazado 180774" d="M948.413,1228.023v1.529h1.2v.856h-1.2v3.849a.862.862,0,0,0,.185.627.667.667,0,0,0,.489.182,1.127,1.127,0,0,0,.22-.024,1.352,1.352,0,0,0,.214-.058l.152.791a1.027,1.027,0,0,1-.378.173,1.9,1.9,0,0,1-.5.067,1.494,1.494,0,0,1-1.119-.425,1.845,1.845,0,0,1-.416-1.333v-3.849h-1.008v-.856h1.008v-1.529Z"/>
      <path id="Trazado_180775" data-name="Trazado 180775" d="M953.669,1236.015a2.673,2.673,0,0,1-2.106-.882,3.317,3.317,0,0,1-.783-2.288v-.258a3.253,3.253,0,0,1,.806-2.253,2.483,2.483,0,0,1,1.907-.9,2.4,2.4,0,0,1,1.94.773,3.085,3.085,0,0,1,.656,2.063v.721h-4.113l-.018.029a2.493,2.493,0,0,0,.463,1.5,1.476,1.476,0,0,0,1.248.588,2.9,2.9,0,0,0,1.028-.167,2.381,2.381,0,0,0,.765-.46l.451.751a2.684,2.684,0,0,1-.9.56A3.623,3.623,0,0,1,953.669,1236.015Zm-.176-5.672a1.254,1.254,0,0,0-.99.488,2.313,2.313,0,0,0-.5,1.223l.012.029h2.924v-.151a1.754,1.754,0,0,0-.364-1.133A1.3,1.3,0,0,0,953.493,1230.343Z"/>
    </g>
    <g id="Grupo_80248" data-name="Grupo 80248">
      <path id="Trazado_180776" data-name="Trazado 180776" d="M855.329,1624.147l.012.035a2.571,2.571,0,0,1-.844,2.013,3.217,3.217,0,0,1-2.291.811,3.009,3.009,0,0,1-2.358-1.025,3.769,3.769,0,0,1-.911-2.6v-1.517a3.781,3.781,0,0,1,.911-2.605,3,3,0,0,1,2.358-1.028,3.314,3.314,0,0,1,2.3.77,2.548,2.548,0,0,1,.832,2.042l-.012.036h-1.107a1.9,1.9,0,0,0-.527-1.418,2.027,2.027,0,0,0-1.489-.522,1.82,1.82,0,0,0-1.541.779,3.164,3.164,0,0,0-.574,1.932v1.528a3.183,3.183,0,0,0,.574,1.943,1.82,1.82,0,0,0,1.541.779,2.033,2.033,0,0,0,1.489-.519,1.918,1.918,0,0,0,.527-1.432Z"/>
      <path id="Trazado_180777" data-name="Trazado 180777" d="M860.579,1626.883c-.039-.191-.069-.36-.091-.507a3.83,3.83,0,0,1-.038-.442,2.682,2.682,0,0,1-.84.765,2.152,2.152,0,0,1-1.117.307,2.069,2.069,0,0,1-1.508-.507,1.862,1.862,0,0,1-.519-1.4,1.637,1.637,0,0,1,.735-1.421,3.436,3.436,0,0,1,1.995-.513h1.254v-.627a1.162,1.162,0,0,0-.339-.881,1.335,1.335,0,0,0-.961-.326,1.387,1.387,0,0,0-.906.285.854.854,0,0,0-.348.682h-1.1l-.012-.035a1.537,1.537,0,0,1,.654-1.266,2.686,2.686,0,0,1,1.778-.574,2.617,2.617,0,0,1,1.734.548,1.94,1.94,0,0,1,.657,1.579v3.053a5.813,5.813,0,0,0,.035.656,3.3,3.3,0,0,0,.129.621Zm-1.916-.849a2.054,2.054,0,0,0,1.131-.322,1.522,1.522,0,0,0,.656-.736v-1.028h-1.295a1.683,1.683,0,0,0-1.116.35,1.05,1.05,0,0,0-.419.824.865.865,0,0,0,.264.666A1.1,1.1,0,0,0,858.663,1626.034Z"/>
      <path id="Trazado_180778" data-name="Trazado 180778" d="M863.761,1626.883V1621.4h-.99v-.856h.99v-.8a2.179,2.179,0,0,1,.53-1.568,1.953,1.953,0,0,1,1.48-.553,2.485,2.485,0,0,1,.4.032c.135.021.284.051.448.091l-.14.878c-.071-.015-.156-.029-.255-.041a2.864,2.864,0,0,0-.314-.017.908.908,0,0,0-.75.3,1.357,1.357,0,0,0-.246.876v.8h1.319v.856h-1.319v5.484Z"/>
      <path id="Trazado_180779" data-name="Trazado 180779" d="M869.913,1627.006a2.672,2.672,0,0,1-2.106-.882,3.316,3.316,0,0,1-.782-2.288v-.258a3.248,3.248,0,0,1,.8-2.252,2.481,2.481,0,0,1,1.907-.9,2.4,2.4,0,0,1,1.94.774,3.082,3.082,0,0,1,.656,2.062v.721H868.22l-.018.029a2.494,2.494,0,0,0,.463,1.5,1.478,1.478,0,0,0,1.248.587,2.915,2.915,0,0,0,1.029-.167,2.362,2.362,0,0,0,.764-.46l.451.751a2.665,2.665,0,0,1-.9.56A3.6,3.6,0,0,1,869.913,1627.006Zm-.176-5.672a1.254,1.254,0,0,0-.99.488,2.314,2.314,0,0,0-.5,1.223l.012.03h2.924v-.152a1.76,1.76,0,0,0-.363-1.133A1.3,1.3,0,0,0,869.737,1621.334Zm.534-3.246h1.347l.012.035-1.582,1.524h-.861Z"/>
      <path id="Trazado_180780" data-name="Trazado 180780" d="M876.347,1623.83a4.233,4.233,0,0,1,.653-2.466,2.106,2.106,0,0,1,1.831-.938,2.287,2.287,0,0,1,.988.2,2.023,2.023,0,0,1,.735.6v-3.486h1.154v9.14h-.943l-.135-.779a2.058,2.058,0,0,1-.762.674,2.29,2.29,0,0,1-1.048.228,2.176,2.176,0,0,1-1.817-.841,3.5,3.5,0,0,1-.656-2.212Zm1.154.123a2.692,2.692,0,0,0,.393,1.539,1.371,1.371,0,0,0,1.218.577,1.527,1.527,0,0,0,.868-.235,1.757,1.757,0,0,0,.574-.656v-2.959a1.781,1.781,0,0,0-.577-.624,1.531,1.531,0,0,0-.853-.231,1.318,1.318,0,0,0-1.227.685,3.536,3.536,0,0,0-.4,1.781Z"/>
      <path id="Trazado_180781" data-name="Trazado 180781" d="M886.062,1627.006a2.676,2.676,0,0,1-2.107-.882,3.321,3.321,0,0,1-.782-2.288v-.258a3.249,3.249,0,0,1,.806-2.252,2.481,2.481,0,0,1,1.907-.9,2.4,2.4,0,0,1,1.939.774,3.077,3.077,0,0,1,.657,2.062v.721h-4.114l-.017.029a2.488,2.488,0,0,0,.463,1.5,1.478,1.478,0,0,0,1.248.587,2.913,2.913,0,0,0,1.028-.167,2.366,2.366,0,0,0,.765-.46l.451.751a2.681,2.681,0,0,1-.9.56A3.6,3.6,0,0,1,886.062,1627.006Zm-.176-5.672a1.251,1.251,0,0,0-.99.488,2.3,2.3,0,0,0-.5,1.223l.012.03h2.923v-.152a1.76,1.76,0,0,0-.363-1.133A1.3,1.3,0,0,0,885.886,1621.334Z"/>
      <path id="Trazado_180782" data-name="Trazado 180782" d="M896.445,1625.2a.785.785,0,0,0-.291-.627,2.721,2.721,0,0,0-1.1-.428,4.611,4.611,0,0,1-1.737-.682,1.377,1.377,0,0,1-.583-1.173,1.654,1.654,0,0,1,.656-1.316,2.985,2.985,0,0,1,3.471.025,1.675,1.675,0,0,1,.624,1.382l-.011.035h-1.1a1.01,1.01,0,0,0-.348-.747,1.288,1.288,0,0,0-.923-.331,1.329,1.329,0,0,0-.914.27.842.842,0,0,0-.3.65.724.724,0,0,0,.264.592,2.715,2.715,0,0,0,1.072.387,4.62,4.62,0,0,1,1.787.7,1.41,1.41,0,0,1,.586,1.187,1.639,1.639,0,0,1-.683,1.365,2.864,2.864,0,0,1-1.784.521,2.786,2.786,0,0,1-1.91-.615,1.754,1.754,0,0,1-.662-1.436l.011-.035h1.1a1.062,1.062,0,0,0,.457.895,1.77,1.77,0,0,0,1,.283,1.636,1.636,0,0,0,.964-.249A.769.769,0,0,0,896.445,1625.2Z"/>
      <path id="Trazado_180783" data-name="Trazado 180783" d="M902.931,1626.883q-.059-.287-.091-.507a3.83,3.83,0,0,1-.038-.442,2.686,2.686,0,0,1-.841.765,2.151,2.151,0,0,1-1.116.307,2.073,2.073,0,0,1-1.509-.507,1.861,1.861,0,0,1-.518-1.4,1.637,1.637,0,0,1,.735-1.421,3.431,3.431,0,0,1,1.995-.513H902.8v-.627a1.158,1.158,0,0,0-.34-.881,1.333,1.333,0,0,0-.961-.326,1.383,1.383,0,0,0-.9.285.853.853,0,0,0-.349.682h-1.1l-.012-.035a1.536,1.536,0,0,1,.653-1.266,2.689,2.689,0,0,1,1.779-.574,2.62,2.62,0,0,1,1.734.548,1.942,1.942,0,0,1,.656,1.579v3.053a6.051,6.051,0,0,0,.035.656,3.458,3.458,0,0,0,.129.621Zm-1.916-.849a2.054,2.054,0,0,0,1.131-.322,1.526,1.526,0,0,0,.656-.736v-1.028h-1.295a1.68,1.68,0,0,0-1.116.35,1.05,1.05,0,0,0-.419.824.865.865,0,0,0,.264.666A1.1,1.1,0,0,0,901.015,1626.034Z"/>
      <path id="Trazado_180784" data-name="Trazado 180784" d="M911.046,1623.953a3.484,3.484,0,0,1-.659,2.212,2.178,2.178,0,0,1-1.814.841,2.307,2.307,0,0,1-1.089-.243,2.018,2.018,0,0,1-.768-.718l-.141.838h-.943v-9.14h1.154v3.55a2.007,2.007,0,0,1,.742-.644,2.26,2.26,0,0,1,1.034-.223,2.108,2.108,0,0,1,1.828.938,4.219,4.219,0,0,1,.656,2.466Zm-1.154-.123a3.5,3.5,0,0,0-.4-1.778,1.319,1.319,0,0,0-1.221-.688,1.517,1.517,0,0,0-.9.26,1.848,1.848,0,0,0-.583.7v2.748a1.9,1.9,0,0,0,.583.732,1.5,1.5,0,0,0,.911.264,1.372,1.372,0,0,0,1.213-.58,2.664,2.664,0,0,0,.4-1.536Z"/>
      <path id="Trazado_180785" data-name="Trazado 180785" d="M912.183,1623.655a3.491,3.491,0,0,1,.762-2.318,2.554,2.554,0,0,1,2.068-.911,2.581,2.581,0,0,1,2.083.908,3.48,3.48,0,0,1,.765,2.321v.129a3.473,3.473,0,0,1-.762,2.32,2.837,2.837,0,0,1-4.152,0,3.471,3.471,0,0,1-.764-2.317Zm1.154.126a3,3,0,0,0,.425,1.662,1.536,1.536,0,0,0,2.517,0,2.986,2.986,0,0,0,.427-1.662v-.129a2.98,2.98,0,0,0-.43-1.657,1.415,1.415,0,0,0-1.263-.661,1.394,1.394,0,0,0-1.251.661,3.013,3.013,0,0,0-.425,1.657Z"/>
      <path id="Trazado_180786" data-name="Trazado 180786" d="M922.273,1621.563l-.592-.035a1.319,1.319,0,0,0-.771.217,1.383,1.383,0,0,0-.483.609v4.529h-1.154v-6.34H920.3l.111.926a2.2,2.2,0,0,1,.665-.767,1.554,1.554,0,0,1,.911-.276,1.387,1.387,0,0,1,.246.021,1.429,1.429,0,0,1,.194.044Z"/>
      <path id="Trazado_180787" data-name="Trazado 180787" d="M930.054,1625.2a.787.787,0,0,0-.29-.627,2.733,2.733,0,0,0-1.1-.428,4.626,4.626,0,0,1-1.737-.682,1.377,1.377,0,0,1-.583-1.173,1.657,1.657,0,0,1,.656-1.316,2.987,2.987,0,0,1,3.472.025,1.681,1.681,0,0,1,.624,1.382l-.012.035h-1.1a1.011,1.011,0,0,0-.349-.747,1.287,1.287,0,0,0-.923-.331,1.329,1.329,0,0,0-.914.27.846.846,0,0,0-.3.65.724.724,0,0,0,.264.592,2.722,2.722,0,0,0,1.072.387,4.613,4.613,0,0,1,1.787.7,1.41,1.41,0,0,1,.586,1.187,1.638,1.638,0,0,1-.682,1.365,2.867,2.867,0,0,1-1.785.521,2.788,2.788,0,0,1-1.91-.615,1.757,1.757,0,0,1-.662-1.436l.012-.035h1.1a1.062,1.062,0,0,0,.457.895,1.774,1.774,0,0,0,1,.283,1.631,1.631,0,0,0,.964-.249A.767.767,0,0,0,930.054,1625.2Z"/>
      <path id="Trazado_180788" data-name="Trazado 180788" d="M936.669,1625.946a2.149,2.149,0,0,1-.767.785,2.107,2.107,0,0,1-1.084.275,2.036,2.036,0,0,1-1.618-.662,3.077,3.077,0,0,1-.58-2.062v-3.739h1.155v3.75a2.365,2.365,0,0,0,.3,1.4,1.112,1.112,0,0,0,.932.381,1.9,1.9,0,0,0,1.017-.249,1.565,1.565,0,0,0,.606-.706v-4.571h1.154v6.34h-1.037Z"/>
      <path id="Trazado_180789" data-name="Trazado 180789" d="M943.361,1626.883c-.04-.191-.07-.36-.091-.507a3.625,3.625,0,0,1-.038-.442,2.685,2.685,0,0,1-.841.765,2.151,2.151,0,0,1-1.116.307,2.072,2.072,0,0,1-1.509-.507,1.862,1.862,0,0,1-.519-1.4,1.636,1.636,0,0,1,.736-1.421,3.431,3.431,0,0,1,2-.513h1.254v-.627a1.162,1.162,0,0,0-.34-.881,1.335,1.335,0,0,0-.961-.326,1.383,1.383,0,0,0-.905.285.853.853,0,0,0-.349.682h-1.1l-.011-.035a1.533,1.533,0,0,1,.653-1.266,2.688,2.688,0,0,1,1.778-.574,2.621,2.621,0,0,1,1.735.548,1.942,1.942,0,0,1,.656,1.579v3.053a6.051,6.051,0,0,0,.035.656,3.375,3.375,0,0,0,.129.621Zm-1.916-.849a2.053,2.053,0,0,0,1.13-.322,1.529,1.529,0,0,0,.657-.736v-1.028h-1.295a1.684,1.684,0,0,0-1.117.35,1.049,1.049,0,0,0-.418.824.864.864,0,0,0,.263.666A1.106,1.106,0,0,0,941.445,1626.034Z"/>
      <path id="Trazado_180790" data-name="Trazado 180790" d="M948.089,1625.014l.1.445h.035l.111-.445,1.459-4.471h1.178l-2.332,6.34h-.873l-2.362-6.34h1.184Z"/>
      <path id="Trazado_180791" data-name="Trazado 180791" d="M954.564,1627.006a2.676,2.676,0,0,1-2.107-.882,3.321,3.321,0,0,1-.782-2.288v-.258a3.249,3.249,0,0,1,.806-2.252,2.481,2.481,0,0,1,1.907-.9,2.4,2.4,0,0,1,1.939.774,3.077,3.077,0,0,1,.657,2.062v.721H952.87l-.017.029a2.488,2.488,0,0,0,.463,1.5,1.476,1.476,0,0,0,1.248.587,2.913,2.913,0,0,0,1.028-.167,2.366,2.366,0,0,0,.765-.46l.451.751a2.681,2.681,0,0,1-.9.56A3.6,3.6,0,0,1,954.564,1627.006Zm-.176-5.672a1.251,1.251,0,0,0-.99.488,2.3,2.3,0,0,0-.5,1.223l.011.03h2.924v-.152a1.76,1.76,0,0,0-.363-1.133A1.3,1.3,0,0,0,954.388,1621.334Z"/>
      <path id="Trazado_180792" data-name="Trazado 180792" d="M855.329,1638.547l.012.035a2.571,2.571,0,0,1-.844,2.013,3.217,3.217,0,0,1-2.291.811,3.009,3.009,0,0,1-2.358-1.025,3.769,3.769,0,0,1-.911-2.6v-1.517a3.781,3.781,0,0,1,.911-2.6,3,3,0,0,1,2.358-1.028,3.314,3.314,0,0,1,2.3.77,2.548,2.548,0,0,1,.832,2.042l-.012.035h-1.107a1.908,1.908,0,0,0-.527-1.418,2.031,2.031,0,0,0-1.489-.521,1.82,1.82,0,0,0-1.541.779,3.163,3.163,0,0,0-.574,1.931v1.529a3.184,3.184,0,0,0,.574,1.943,1.82,1.82,0,0,0,1.541.779,2.034,2.034,0,0,0,1.489-.519,1.918,1.918,0,0,0,.527-1.432Z"/>
      <path id="Trazado_180793" data-name="Trazado 180793" d="M860.579,1641.283c-.039-.191-.069-.36-.091-.507a3.83,3.83,0,0,1-.038-.442,2.7,2.7,0,0,1-.84.765,2.153,2.153,0,0,1-1.117.307,2.069,2.069,0,0,1-1.508-.507,1.862,1.862,0,0,1-.519-1.4,1.637,1.637,0,0,1,.735-1.421,3.436,3.436,0,0,1,1.995-.513h1.254v-.627a1.166,1.166,0,0,0-.339-.882,1.339,1.339,0,0,0-.961-.325,1.393,1.393,0,0,0-.906.284.857.857,0,0,0-.348.683h-1.1l-.012-.035a1.537,1.537,0,0,1,.654-1.266,2.68,2.68,0,0,1,1.778-.574,2.617,2.617,0,0,1,1.734.548,1.939,1.939,0,0,1,.657,1.579v3.053a5.813,5.813,0,0,0,.035.656,3.3,3.3,0,0,0,.129.621Zm-1.916-.85a2.053,2.053,0,0,0,1.131-.321,1.523,1.523,0,0,0,.656-.736v-1.028h-1.295a1.683,1.683,0,0,0-1.116.35,1.048,1.048,0,0,0-.419.824.865.865,0,0,0,.264.666A1.1,1.1,0,0,0,858.663,1640.433Z"/>
      <path id="Trazado_180794" data-name="Trazado 180794" d="M863.761,1641.283V1635.8h-.99v-.856h.99v-.8a2.178,2.178,0,0,1,.53-1.567,1.954,1.954,0,0,1,1.48-.554,2.487,2.487,0,0,1,.4.033c.135.021.284.051.448.09l-.14.879c-.071-.015-.156-.029-.255-.041a2.864,2.864,0,0,0-.314-.017.908.908,0,0,0-.75.3,1.356,1.356,0,0,0-.246.875v.8h1.319v.856h-1.319v5.484Z"/>
      <path id="Trazado_180795" data-name="Trazado 180795" d="M869.913,1641.406a2.672,2.672,0,0,1-2.106-.882,3.316,3.316,0,0,1-.782-2.288v-.258a3.253,3.253,0,0,1,.8-2.253,2.483,2.483,0,0,1,1.907-.9,2.4,2.4,0,0,1,1.94.773,3.086,3.086,0,0,1,.656,2.063v.721H868.22l-.018.029a2.5,2.5,0,0,0,.463,1.5,1.478,1.478,0,0,0,1.248.587,2.915,2.915,0,0,0,1.029-.167,2.362,2.362,0,0,0,.764-.46l.451.751a2.667,2.667,0,0,1-.9.56A3.617,3.617,0,0,1,869.913,1641.406Zm-.176-5.672a1.254,1.254,0,0,0-.99.488,2.314,2.314,0,0,0-.5,1.223l.012.029h2.924v-.151a1.761,1.761,0,0,0-.363-1.133A1.3,1.3,0,0,0,869.737,1635.734Zm.534-3.246h1.347l.012.035-1.582,1.524h-.861Z"/>
      <path id="Trazado_180796" data-name="Trazado 180796" d="M876.347,1638.23a4.233,4.233,0,0,1,.653-2.466,2.106,2.106,0,0,1,1.831-.938,2.273,2.273,0,0,1,.988.2,2.022,2.022,0,0,1,.735.6v-3.487h1.154v9.141h-.943l-.135-.779a2.058,2.058,0,0,1-.762.674,2.292,2.292,0,0,1-1.048.228,2.176,2.176,0,0,1-1.817-.841,3.5,3.5,0,0,1-.656-2.212Zm1.154.123a2.686,2.686,0,0,0,.393,1.538,1.37,1.37,0,0,0,1.218.578,1.535,1.535,0,0,0,.868-.235,1.757,1.757,0,0,0,.574-.656v-2.959a1.781,1.781,0,0,0-.577-.624,1.53,1.53,0,0,0-.853-.231,1.318,1.318,0,0,0-1.227.685,3.536,3.536,0,0,0-.4,1.781Z"/>
      <path id="Trazado_180797" data-name="Trazado 180797" d="M886.062,1641.406a2.676,2.676,0,0,1-2.107-.882,3.321,3.321,0,0,1-.782-2.288v-.258a3.253,3.253,0,0,1,.806-2.253,2.483,2.483,0,0,1,1.907-.9,2.4,2.4,0,0,1,1.939.773,3.082,3.082,0,0,1,.657,2.063v.721h-4.114l-.017.029a2.492,2.492,0,0,0,.463,1.5,1.478,1.478,0,0,0,1.248.587,2.913,2.913,0,0,0,1.028-.167,2.366,2.366,0,0,0,.765-.46l.451.751a2.683,2.683,0,0,1-.9.56A3.615,3.615,0,0,1,886.062,1641.406Zm-.176-5.672a1.251,1.251,0,0,0-.99.488,2.3,2.3,0,0,0-.5,1.223l.012.029h2.923v-.151a1.761,1.761,0,0,0-.363-1.133A1.3,1.3,0,0,0,885.886,1635.734Z"/>
      <path id="Trazado_180798" data-name="Trazado 180798" d="M896.445,1639.6a.785.785,0,0,0-.291-.627,2.721,2.721,0,0,0-1.1-.428,4.611,4.611,0,0,1-1.737-.682,1.377,1.377,0,0,1-.583-1.173,1.654,1.654,0,0,1,.656-1.316,2.987,2.987,0,0,1,3.471.024,1.678,1.678,0,0,1,.624,1.383l-.011.035h-1.1a1.01,1.01,0,0,0-.348-.747,1.289,1.289,0,0,0-.923-.331,1.329,1.329,0,0,0-.914.27.841.841,0,0,0-.3.65.726.726,0,0,0,.264.592,2.746,2.746,0,0,0,1.072.387,4.62,4.62,0,0,1,1.787.7,1.409,1.409,0,0,1,.586,1.186,1.64,1.64,0,0,1-.683,1.366,2.864,2.864,0,0,1-1.784.521,2.786,2.786,0,0,1-1.91-.615,1.754,1.754,0,0,1-.662-1.436l.011-.035h1.1a1.062,1.062,0,0,0,.457.9,1.77,1.77,0,0,0,1,.283,1.636,1.636,0,0,0,.964-.249A.769.769,0,0,0,896.445,1639.6Z"/>
      <path id="Trazado_180799" data-name="Trazado 180799" d="M902.931,1641.283q-.059-.286-.091-.507a3.83,3.83,0,0,1-.038-.442,2.7,2.7,0,0,1-.841.765,2.152,2.152,0,0,1-1.116.307,2.073,2.073,0,0,1-1.509-.507,1.862,1.862,0,0,1-.518-1.4,1.637,1.637,0,0,1,.735-1.421,3.431,3.431,0,0,1,1.995-.513H902.8v-.627a1.162,1.162,0,0,0-.34-.882,1.337,1.337,0,0,0-.961-.325,1.388,1.388,0,0,0-.9.284.855.855,0,0,0-.349.683h-1.1l-.012-.035a1.536,1.536,0,0,1,.653-1.266,2.683,2.683,0,0,1,1.779-.574,2.62,2.62,0,0,1,1.734.548,1.941,1.941,0,0,1,.656,1.579v3.053a6.051,6.051,0,0,0,.035.656,3.457,3.457,0,0,0,.129.621Zm-1.916-.85a2.053,2.053,0,0,0,1.131-.321,1.528,1.528,0,0,0,.656-.736v-1.028h-1.295a1.68,1.68,0,0,0-1.116.35,1.048,1.048,0,0,0-.419.824.865.865,0,0,0,.264.666A1.1,1.1,0,0,0,901.015,1640.433Z"/>
      <path id="Trazado_180800" data-name="Trazado 180800" d="M911.046,1638.353a3.485,3.485,0,0,1-.659,2.212,2.178,2.178,0,0,1-1.814.841,2.308,2.308,0,0,1-1.089-.243,2.019,2.019,0,0,1-.768-.718l-.141.838h-.943v-9.141h1.154v3.551a2.008,2.008,0,0,1,.742-.644,2.261,2.261,0,0,1,1.034-.223,2.108,2.108,0,0,1,1.828.938,4.219,4.219,0,0,1,.656,2.466Zm-1.154-.123a3.5,3.5,0,0,0-.4-1.778,1.319,1.319,0,0,0-1.221-.688,1.509,1.509,0,0,0-.9.26,1.852,1.852,0,0,0-.583.7v2.749a1.9,1.9,0,0,0,.583.732,1.5,1.5,0,0,0,.911.264,1.372,1.372,0,0,0,1.213-.58,2.664,2.664,0,0,0,.4-1.536Z"/>
      <path id="Trazado_180801" data-name="Trazado 180801" d="M912.183,1638.055a3.491,3.491,0,0,1,.762-2.318,2.554,2.554,0,0,1,2.068-.911,2.581,2.581,0,0,1,2.083.908,3.48,3.48,0,0,1,.765,2.321v.128a3.474,3.474,0,0,1-.762,2.321,2.837,2.837,0,0,1-4.152,0,3.472,3.472,0,0,1-.764-2.318Zm1.154.126a3,3,0,0,0,.425,1.662,1.536,1.536,0,0,0,2.517,0,2.988,2.988,0,0,0,.427-1.662v-.129a2.98,2.98,0,0,0-.43-1.657,1.415,1.415,0,0,0-1.263-.661,1.394,1.394,0,0,0-1.251.661,3.013,3.013,0,0,0-.425,1.657Z"/>
      <path id="Trazado_180802" data-name="Trazado 180802" d="M922.273,1635.963l-.592-.035a1.326,1.326,0,0,0-.771.216,1.39,1.39,0,0,0-.483.61v4.529h-1.154v-6.34H920.3l.111.926a2.218,2.218,0,0,1,.665-.768,1.561,1.561,0,0,1,.911-.275,1.387,1.387,0,0,1,.246.021,1.616,1.616,0,0,1,.194.043Z"/>
      <path id="Trazado_180803" data-name="Trazado 180803" d="M926.849,1641.283V1635.8h-.99v-.856h.99v-.8a2.178,2.178,0,0,1,.53-1.567,1.954,1.954,0,0,1,1.48-.554,2.5,2.5,0,0,1,.4.033c.135.021.284.051.448.09l-.14.879c-.071-.015-.156-.029-.255-.041a2.864,2.864,0,0,0-.314-.017.908.908,0,0,0-.75.3,1.356,1.356,0,0,0-.246.875v.8h1.318v.856H928v5.484Z"/>
      <path id="Trazado_180804" data-name="Trazado 180804" d="M934.536,1640.346a2.156,2.156,0,0,1-.767.785,2.107,2.107,0,0,1-1.084.275,2.036,2.036,0,0,1-1.617-.662,3.072,3.072,0,0,1-.581-2.062v-3.739h1.155v3.75a2.356,2.356,0,0,0,.3,1.4,1.109,1.109,0,0,0,.931.381,1.9,1.9,0,0,0,1.017-.249,1.56,1.56,0,0,0,.606-.706v-4.571h1.155v6.34h-1.038Z"/>
      <path id="Trazado_180805" data-name="Trazado 180805" d="M939.962,1641.406a2.672,2.672,0,0,1-2.106-.882,3.317,3.317,0,0,1-.783-2.288v-.258a3.253,3.253,0,0,1,.806-2.253,2.483,2.483,0,0,1,1.907-.9,2.4,2.4,0,0,1,1.94.773,3.086,3.086,0,0,1,.656,2.063v.721h-4.113l-.018.029a2.5,2.5,0,0,0,.463,1.5,1.478,1.478,0,0,0,1.248.587,2.909,2.909,0,0,0,1.028-.167,2.367,2.367,0,0,0,.765-.46l.451.751a2.668,2.668,0,0,1-.9.56A3.62,3.62,0,0,1,939.962,1641.406Zm-.176-5.672a1.254,1.254,0,0,0-.99.488,2.313,2.313,0,0,0-.5,1.223l.012.029h2.924v-.151a1.756,1.756,0,0,0-.364-1.133A1.3,1.3,0,0,0,939.786,1635.734Z"/>
      <path id="Trazado_180806" data-name="Trazado 180806" d="M946.677,1635.963l-.592-.035a1.323,1.323,0,0,0-.77.216,1.4,1.4,0,0,0-.484.61v4.529h-1.154v-6.34h1.031l.112.926a2.2,2.2,0,0,1,.665-.768,1.557,1.557,0,0,1,.911-.275,1.388,1.388,0,0,1,.246.021,1.64,1.64,0,0,1,.193.043Z"/>
      <path id="Trazado_180807" data-name="Trazado 180807" d="M949.413,1633.414v1.529h1.2v.856h-1.2v3.849a.862.862,0,0,0,.185.627.667.667,0,0,0,.489.182,1.127,1.127,0,0,0,.22-.024,1.352,1.352,0,0,0,.214-.058l.152.791a1.027,1.027,0,0,1-.378.173,1.9,1.9,0,0,1-.5.067,1.491,1.491,0,0,1-1.119-.425,1.845,1.845,0,0,1-.416-1.333V1635.8h-1.008v-.856h1.008v-1.529Z"/>
      <path id="Trazado_180808" data-name="Trazado 180808" d="M954.669,1641.406a2.672,2.672,0,0,1-2.106-.882,3.317,3.317,0,0,1-.783-2.288v-.258a3.253,3.253,0,0,1,.806-2.253,2.483,2.483,0,0,1,1.907-.9,2.4,2.4,0,0,1,1.94.773,3.086,3.086,0,0,1,.656,2.063v.721h-4.113l-.018.029a2.5,2.5,0,0,0,.463,1.5,1.478,1.478,0,0,0,1.248.587,2.905,2.905,0,0,0,1.028-.167,2.366,2.366,0,0,0,.765-.46l.451.751a2.668,2.668,0,0,1-.9.56A3.621,3.621,0,0,1,954.669,1641.406Zm-.176-5.672a1.254,1.254,0,0,0-.99.488,2.313,2.313,0,0,0-.5,1.223l.012.029h2.924v-.151a1.756,1.756,0,0,0-.364-1.133A1.3,1.3,0,0,0,954.493,1635.734Z"/>
    </g>
    <g id="Grupo_80249" data-name="Grupo 80249">
      <path id="Trazado_180809" data-name="Trazado 180809" d="M966.541,1349.287v3.422h-1.154v-8.531h3.264a3,3,0,0,1,2.121.7,2.656,2.656,0,0,1,0,3.712,3.019,3.019,0,0,1-2.121.694Zm0-.908h2.11a1.547,1.547,0,0,0,1.722-1.637,1.691,1.691,0,0,0-.43-1.182,1.66,1.66,0,0,0-1.292-.474h-2.11Z"/>
      <path id="Trazado_180810" data-name="Trazado 180810" d="M975.858,1347.389l-.592-.035a1.319,1.319,0,0,0-.771.217,1.381,1.381,0,0,0-.483.609v4.529h-1.154v-6.339h1.031l.111.925a2.205,2.205,0,0,1,.665-.767,1.555,1.555,0,0,1,.911-.276,1.4,1.4,0,0,1,.246.021,1.442,1.442,0,0,1,.194.044Z"/>
      <path id="Trazado_180811" data-name="Trazado 180811" d="M976.584,1349.481a3.491,3.491,0,0,1,.762-2.318,2.822,2.822,0,0,1,4.151,0,3.475,3.475,0,0,1,.765,2.32v.129a3.473,3.473,0,0,1-.762,2.32,2.836,2.836,0,0,1-4.151,0,3.465,3.465,0,0,1-.765-2.317Zm1.154.126a3,3,0,0,0,.425,1.662,1.537,1.537,0,0,0,2.517,0,2.986,2.986,0,0,0,.428-1.662v-.129a2.977,2.977,0,0,0-.431-1.656,1.411,1.411,0,0,0-1.263-.661,1.392,1.392,0,0,0-1.251.661,3.009,3.009,0,0,0-.425,1.656Z"/>
      <path id="Trazado_180812" data-name="Trazado 180812" d="M983.41,1349.657a4.227,4.227,0,0,1,.654-2.467,2.1,2.1,0,0,1,1.831-.938,2.28,2.28,0,0,1,.987.205,2.022,2.022,0,0,1,.735.6v-3.486h1.155v9.14h-.944l-.134-.779a2.05,2.05,0,0,1-.762.674,2.3,2.3,0,0,1-1.049.228,2.176,2.176,0,0,1-1.816-.84,3.493,3.493,0,0,1-.657-2.212Zm1.155.123a2.691,2.691,0,0,0,.392,1.538,1.371,1.371,0,0,0,1.219.577,1.529,1.529,0,0,0,.867-.234,1.743,1.743,0,0,0,.574-.657v-2.959a1.779,1.779,0,0,0-.577-.624,1.524,1.524,0,0,0-.852-.231,1.32,1.32,0,0,0-1.228.685,3.537,3.537,0,0,0-.4,1.782Z"/>
      <path id="Trazado_180813" data-name="Trazado 180813" d="M994.52,1351.772a2.151,2.151,0,0,1-.768.785,2.1,2.1,0,0,1-1.084.275,2.035,2.035,0,0,1-1.617-.662,3.071,3.071,0,0,1-.58-2.062v-3.738h1.154v3.75a2.362,2.362,0,0,0,.3,1.394,1.111,1.111,0,0,0,.932.381,1.9,1.9,0,0,0,1.016-.249,1.557,1.557,0,0,0,.607-.706v-4.57h1.154v6.339H994.6Z"/>
      <path id="Trazado_180814" data-name="Trazado 180814" d="M999.893,1351.924a1.56,1.56,0,0,0,1.011-.354,1.083,1.083,0,0,0,.436-.87h1.037l.012.035a1.787,1.787,0,0,1-.73,1.459,2.655,2.655,0,0,1-1.766.638,2.564,2.564,0,0,1-2.115-.9,3.478,3.478,0,0,1-.733-2.268v-.246a3.465,3.465,0,0,1,.735-2.258,2.885,2.885,0,0,1,3.932-.249,2.041,2.041,0,0,1,.683,1.611l-.012.035h-1.043a1.339,1.339,0,0,0-.41-.987,1.409,1.409,0,0,0-1.037-.407,1.391,1.391,0,0,0-1.3.652,3.07,3.07,0,0,0-.39,1.6v.247a3.106,3.106,0,0,0,.387,1.618A1.393,1.393,0,0,0,999.893,1351.924Z"/>
      <path id="Trazado_180815" data-name="Trazado 180815" d="M1005.207,1344.84v1.53h1.2v.855h-1.2v3.85a.865.865,0,0,0,.185.627.667.667,0,0,0,.489.181,1.21,1.21,0,0,0,.22-.023,1.348,1.348,0,0,0,.214-.059l.152.791a1.027,1.027,0,0,1-.378.173,1.9,1.9,0,0,1-.5.067,1.494,1.494,0,0,1-1.119-.424,1.848,1.848,0,0,1-.416-1.333v-3.85h-1.008v-.855h1.008v-1.53Z"/>
      <path id="Trazado_180816" data-name="Trazado 180816" d="M1007.563,1349.481a3.5,3.5,0,0,1,.761-2.318,2.823,2.823,0,0,1,4.152,0,3.474,3.474,0,0,1,.764,2.32v.129a3.473,3.473,0,0,1-.761,2.32,2.837,2.837,0,0,1-4.152,0,3.47,3.47,0,0,1-.764-2.317Zm1.154.126a3,3,0,0,0,.425,1.662,1.536,1.536,0,0,0,2.516,0,2.979,2.979,0,0,0,.428-1.662v-.129a2.969,2.969,0,0,0-.431-1.656,1.411,1.411,0,0,0-1.262-.661,1.392,1.392,0,0,0-1.251.661,3.009,3.009,0,0,0-.425,1.656Z"/>
      <path id="Trazado_180817" data-name="Trazado 180817" d="M1020.787,1352.709h-1.154V1345.3l-1.746.024v-.832l2.9-.317Z"/>
    </g>
    <g id="Grupo_80250" data-name="Grupo 80250">
      <path id="Trazado_180818" data-name="Trazado 180818" d="M946.976,1475.027v3.422h-1.155v-8.532h3.264a3,3,0,0,1,2.121.7,2.656,2.656,0,0,1,0,3.712,3.02,3.02,0,0,1-2.121.695Zm0-.908h2.109a1.547,1.547,0,0,0,1.723-1.638,1.693,1.693,0,0,0-.431-1.182,1.659,1.659,0,0,0-1.292-.473h-2.109Z"/>
      <path id="Trazado_180819" data-name="Trazado 180819" d="M956.292,1473.128l-.592-.035a1.318,1.318,0,0,0-.77.217,1.4,1.4,0,0,0-.484.609v4.53h-1.154v-6.34h1.031l.112.926a2.189,2.189,0,0,1,.665-.768,1.55,1.55,0,0,1,.911-.275,1.4,1.4,0,0,1,.246.02,1.59,1.59,0,0,1,.193.044Z"/>
      <path id="Trazado_180820" data-name="Trazado 180820" d="M957.019,1475.22a3.493,3.493,0,0,1,.761-2.317,2.824,2.824,0,0,1,4.152,0,3.476,3.476,0,0,1,.764,2.32v.129a3.471,3.471,0,0,1-.761,2.32,2.835,2.835,0,0,1-4.152,0,3.47,3.47,0,0,1-.764-2.317Zm1.154.126a3,3,0,0,0,.425,1.662,1.536,1.536,0,0,0,2.516,0,2.978,2.978,0,0,0,.428-1.662v-.129a2.976,2.976,0,0,0-.43-1.656,1.413,1.413,0,0,0-1.263-.661,1.392,1.392,0,0,0-1.251.661,3.009,3.009,0,0,0-.425,1.656Z"/>
      <path id="Trazado_180821" data-name="Trazado 180821" d="M963.845,1475.4a4.235,4.235,0,0,1,.653-2.467,2.105,2.105,0,0,1,1.831-.937,2.273,2.273,0,0,1,.988.205,2.02,2.02,0,0,1,.735.6v-3.486h1.154v9.141h-.943l-.135-.78a2.05,2.05,0,0,1-.762.674,2.292,2.292,0,0,1-1.048.229,2.178,2.178,0,0,1-1.817-.841,3.5,3.5,0,0,1-.656-2.212Zm1.154.123a2.688,2.688,0,0,0,.393,1.538,1.371,1.371,0,0,0,1.219.577,1.533,1.533,0,0,0,.867-.234,1.749,1.749,0,0,0,.574-.656v-2.959a1.77,1.77,0,0,0-.577-.624,1.523,1.523,0,0,0-.853-.232,1.319,1.319,0,0,0-1.227.686,3.532,3.532,0,0,0-.4,1.781Z"/>
      <path id="Trazado_180822" data-name="Trazado 180822" d="M974.954,1477.511a2.142,2.142,0,0,1-.767.785,2.1,2.1,0,0,1-1.084.276,2.036,2.036,0,0,1-1.617-.662,3.074,3.074,0,0,1-.581-2.063v-3.738h1.155v3.75a2.352,2.352,0,0,0,.3,1.394,1.109,1.109,0,0,0,.931.381,1.9,1.9,0,0,0,1.017-.249,1.555,1.555,0,0,0,.606-.706v-4.57h1.155v6.34H975.03Z"/>
      <path id="Trazado_180823" data-name="Trazado 180823" d="M980.327,1477.663a1.558,1.558,0,0,0,1.011-.354,1.081,1.081,0,0,0,.437-.87h1.037l.011.035a1.783,1.783,0,0,1-.729,1.459,2.66,2.66,0,0,1-1.767.639,2.564,2.564,0,0,1-2.115-.9,3.48,3.48,0,0,1-.732-2.267v-.246a3.466,3.466,0,0,1,.735-2.259,2.887,2.887,0,0,1,3.932-.249,2.04,2.04,0,0,1,.682,1.611l-.011.035h-1.043a1.338,1.338,0,0,0-.411-.987,1.412,1.412,0,0,0-1.037-.407,1.394,1.394,0,0,0-1.3.652,3.08,3.08,0,0,0-.389,1.6v.246a3.106,3.106,0,0,0,.387,1.618A1.392,1.392,0,0,0,980.327,1477.663Z"/>
      <path id="Trazado_180824" data-name="Trazado 180824" d="M985.642,1470.579v1.53h1.2v.855h-1.2v3.85a.862.862,0,0,0,.184.627.668.668,0,0,0,.49.181,1.118,1.118,0,0,0,.219-.023,1.321,1.321,0,0,0,.214-.059l.153.791a1.012,1.012,0,0,1-.378.173,1.911,1.911,0,0,1-.5.068,1.494,1.494,0,0,1-1.119-.425,1.843,1.843,0,0,1-.417-1.333v-3.85H983.48v-.855h1.007v-1.53Z"/>
      <path id="Trazado_180825" data-name="Trazado 180825" d="M988,1475.22a3.489,3.489,0,0,1,.762-2.317,2.823,2.823,0,0,1,4.151,0,3.477,3.477,0,0,1,.765,2.32v.129a3.471,3.471,0,0,1-.762,2.32,2.833,2.833,0,0,1-4.151,0,3.465,3.465,0,0,1-.765-2.317Zm1.155.126a3,3,0,0,0,.424,1.662,1.537,1.537,0,0,0,2.517,0,2.987,2.987,0,0,0,.428-1.662v-.129a2.977,2.977,0,0,0-.431-1.656,1.411,1.411,0,0,0-1.263-.661,1.394,1.394,0,0,0-1.251.661,3.009,3.009,0,0,0-.424,1.656Z"/>
      <path id="Trazado_180826" data-name="Trazado 180826" d="M1002.534,1475.578h1.178v.908h-1.178v1.963h-1.148v-1.963h-3.832v-.651l3.762-5.918h1.218Zm-3.75,0h2.6v-4l-.035-.006-.112.293Z"/>
    </g>
    <g id="Grupo_80251" data-name="Grupo 80251">
      <path id="Trazado_180827" data-name="Trazado 180827" d="M834.541,1484.244v3.422h-1.154v-8.531h3.264a3,3,0,0,1,2.121.7,2.656,2.656,0,0,1,0,3.712,3.02,3.02,0,0,1-2.121.694Zm0-.908h2.11a1.547,1.547,0,0,0,1.722-1.638,1.692,1.692,0,0,0-.43-1.182,1.664,1.664,0,0,0-1.292-.473h-2.11Z"/>
      <path id="Trazado_180828" data-name="Trazado 180828" d="M843.858,1482.346l-.592-.036a1.327,1.327,0,0,0-.771.217,1.391,1.391,0,0,0-.483.61v4.529h-1.154v-6.34h1.031l.111.926a2.216,2.216,0,0,1,.665-.768,1.561,1.561,0,0,1,.911-.275,1.488,1.488,0,0,1,.246.02,1.859,1.859,0,0,1,.194.044Z"/>
      <path id="Trazado_180829" data-name="Trazado 180829" d="M844.584,1484.437a3.489,3.489,0,0,1,.762-2.317,2.555,2.555,0,0,1,2.068-.911,2.581,2.581,0,0,1,2.083.908,3.479,3.479,0,0,1,.765,2.32v.129a3.474,3.474,0,0,1-.762,2.321,2.836,2.836,0,0,1-4.151,0,3.468,3.468,0,0,1-.765-2.318Zm1.154.126a3,3,0,0,0,.425,1.662,1.535,1.535,0,0,0,2.517,0,2.986,2.986,0,0,0,.428-1.662v-.129a2.977,2.977,0,0,0-.431-1.656,1.414,1.414,0,0,0-1.263-.661,1.394,1.394,0,0,0-1.251.661,3.009,3.009,0,0,0-.425,1.656Z"/>
      <path id="Trazado_180830" data-name="Trazado 180830" d="M851.41,1484.613a4.229,4.229,0,0,1,.654-2.467,2.1,2.1,0,0,1,1.831-.937,2.266,2.266,0,0,1,.987.2,2.025,2.025,0,0,1,.735.6v-3.487h1.155v9.141h-.944l-.134-.779a2.057,2.057,0,0,1-.762.673,2.287,2.287,0,0,1-1.049.229,2.174,2.174,0,0,1-1.816-.841,3.491,3.491,0,0,1-.657-2.212Zm1.155.123a2.687,2.687,0,0,0,.392,1.538,1.371,1.371,0,0,0,1.219.577,1.529,1.529,0,0,0,.867-.234,1.74,1.74,0,0,0,.574-.656V1483a1.761,1.761,0,0,0-.577-.624,1.525,1.525,0,0,0-.852-.232,1.32,1.32,0,0,0-1.228.686,3.535,3.535,0,0,0-.4,1.781Z"/>
      <path id="Trazado_180831" data-name="Trazado 180831" d="M862.52,1486.728a2.156,2.156,0,0,1-.768.786,2.1,2.1,0,0,1-1.084.275,2.038,2.038,0,0,1-1.617-.662,3.074,3.074,0,0,1-.58-2.063v-3.738h1.154v3.75a2.363,2.363,0,0,0,.3,1.395,1.113,1.113,0,0,0,.932.38,1.9,1.9,0,0,0,1.016-.249,1.557,1.557,0,0,0,.607-.706v-4.57h1.154v6.34H862.6Z"/>
      <path id="Trazado_180832" data-name="Trazado 180832" d="M867.893,1486.881a1.556,1.556,0,0,0,1.011-.355,1.08,1.08,0,0,0,.436-.87h1.037l.012.035a1.787,1.787,0,0,1-.73,1.459,2.656,2.656,0,0,1-1.766.639,2.566,2.566,0,0,1-2.115-.9,3.48,3.48,0,0,1-.733-2.268v-.246a3.469,3.469,0,0,1,.735-2.259,2.887,2.887,0,0,1,3.932-.249,2.043,2.043,0,0,1,.683,1.611l-.012.036H869.34a1.343,1.343,0,0,0-.41-.988,1.413,1.413,0,0,0-1.037-.407,1.393,1.393,0,0,0-1.3.652,3.071,3.071,0,0,0-.39,1.6v.246a3.1,3.1,0,0,0,.387,1.618A1.394,1.394,0,0,0,867.893,1486.881Z"/>
      <path id="Trazado_180833" data-name="Trazado 180833" d="M873.207,1479.8v1.529h1.2v.856h-1.2v3.849a.862.862,0,0,0,.185.627.667.667,0,0,0,.489.182,1.135,1.135,0,0,0,.22-.024,1.352,1.352,0,0,0,.214-.058l.152.791a1.025,1.025,0,0,1-.378.173,1.951,1.951,0,0,1-.5.067,1.5,1.5,0,0,1-1.119-.425,1.845,1.845,0,0,1-.416-1.333v-3.849h-1.008v-.856h1.008V1479.8Z"/>
      <path id="Trazado_180834" data-name="Trazado 180834" d="M875.563,1484.437a3.494,3.494,0,0,1,.761-2.317,2.824,2.824,0,0,1,4.152,0,3.478,3.478,0,0,1,.764,2.32v.129a3.473,3.473,0,0,1-.761,2.321,2.837,2.837,0,0,1-4.152,0,3.472,3.472,0,0,1-.764-2.318Zm1.154.126a3,3,0,0,0,.425,1.662,1.534,1.534,0,0,0,2.516,0,2.978,2.978,0,0,0,.428-1.662v-.129a2.969,2.969,0,0,0-.431-1.656,1.413,1.413,0,0,0-1.262-.661,1.394,1.394,0,0,0-1.251.661,3.009,3.009,0,0,0-.425,1.656Z"/>
      <path id="Trazado_180835" data-name="Trazado 180835" d="M887.07,1482.867h1.008a1.344,1.344,0,0,0,1.087-.384,1.624,1.624,0,0,0,.32-1.069,1.554,1.554,0,0,0-.364-1.113,1.412,1.412,0,0,0-1.072-.381,1.488,1.488,0,0,0-1.081.395,1.4,1.4,0,0,0-.407,1.052h-1.108l-.011-.035a2.065,2.065,0,0,1,.7-1.644,2.692,2.692,0,0,1,1.907-.676,2.728,2.728,0,0,1,1.887.629,2.289,2.289,0,0,1,.7,1.8,2.05,2.05,0,0,1-1.277,1.852,1.874,1.874,0,0,1,1.086.791,2.525,2.525,0,0,1-.445,3.041,2.863,2.863,0,0,1-1.954.668,2.938,2.938,0,0,1-1.931-.63,2.02,2.02,0,0,1-.735-1.708l.018-.035h1.1a1.413,1.413,0,0,0,.413,1.068,1.573,1.573,0,0,0,1.134.4,1.6,1.6,0,0,0,1.148-.4,1.547,1.547,0,0,0,.416-1.174,1.332,1.332,0,0,0-1.535-1.535H887.07Z"/>
    </g>
    <g id="Grupo_80252" data-name="Grupo 80252">
      <path id="Trazado_180836" data-name="Trazado 180836" d="M765.671,1559.9v3.422h-1.154v-8.531h3.263a3,3,0,0,1,2.122.7,2.659,2.659,0,0,1,0,3.712,3.02,3.02,0,0,1-2.122.694Zm0-.908h2.109a1.652,1.652,0,1,0,0-3.293h-2.109Z"/>
      <path id="Trazado_180837" data-name="Trazado 180837" d="M774.987,1558l-.591-.035a1.319,1.319,0,0,0-.771.217,1.382,1.382,0,0,0-.483.609v4.529h-1.155v-6.34h1.032l.111.926a2.194,2.194,0,0,1,.665-.767,1.553,1.553,0,0,1,.911-.276,1.4,1.4,0,0,1,.246.021,1.481,1.481,0,0,1,.194.044Z"/>
      <path id="Trazado_180838" data-name="Trazado 180838" d="M775.714,1560.09a3.491,3.491,0,0,1,.762-2.318,2.823,2.823,0,0,1,4.151,0,3.479,3.479,0,0,1,.765,2.321v.129a3.473,3.473,0,0,1-.762,2.32,2.836,2.836,0,0,1-4.151,0,3.467,3.467,0,0,1-.765-2.317Zm1.154.126a3,3,0,0,0,.425,1.662,1.537,1.537,0,0,0,2.517,0,2.987,2.987,0,0,0,.427-1.662v-.129a2.974,2.974,0,0,0-.43-1.656,1.412,1.412,0,0,0-1.263-.662,1.392,1.392,0,0,0-1.251.662,3.006,3.006,0,0,0-.425,1.656Z"/>
      <path id="Trazado_180839" data-name="Trazado 180839" d="M782.54,1560.265a4.226,4.226,0,0,1,.654-2.466,2.1,2.1,0,0,1,1.831-.938,2.28,2.28,0,0,1,.987.205,2.023,2.023,0,0,1,.735.6v-3.486H787.9v9.14h-.944l-.135-.779a2.062,2.062,0,0,1-.761.674,2.3,2.3,0,0,1-1.049.228,2.176,2.176,0,0,1-1.817-.841,3.493,3.493,0,0,1-.656-2.211Zm1.155.124a2.691,2.691,0,0,0,.392,1.538,1.373,1.373,0,0,0,1.219.577,1.521,1.521,0,0,0,.867-.235,1.748,1.748,0,0,0,.574-.656v-2.959a1.77,1.77,0,0,0-.577-.624,1.524,1.524,0,0,0-.852-.231,1.32,1.32,0,0,0-1.228.685,3.535,3.535,0,0,0-.4,1.781Z"/>
      <path id="Trazado_180840" data-name="Trazado 180840" d="M793.65,1562.381a2.152,2.152,0,0,1-.768.785,2.1,2.1,0,0,1-1.084.275,2.036,2.036,0,0,1-1.617-.662,3.071,3.071,0,0,1-.58-2.062v-3.739h1.154v3.75a2.363,2.363,0,0,0,.3,1.4,1.111,1.111,0,0,0,.932.381,1.9,1.9,0,0,0,1.016-.249,1.562,1.562,0,0,0,.607-.706v-4.571h1.154v6.34h-1.037Z"/>
      <path id="Trazado_180841" data-name="Trazado 180841" d="M799.023,1562.533a1.557,1.557,0,0,0,1.01-.354,1.084,1.084,0,0,0,.437-.871h1.037l.012.036a1.788,1.788,0,0,1-.73,1.459,2.662,2.662,0,0,1-1.766.638,2.57,2.57,0,0,1-2.116-.9,3.483,3.483,0,0,1-.732-2.268v-.246a3.47,3.47,0,0,1,.735-2.259,2.888,2.888,0,0,1,3.932-.249,2.044,2.044,0,0,1,.683,1.612l-.012.035H800.47a1.339,1.339,0,0,0-.41-.987,1.41,1.41,0,0,0-1.037-.408,1.392,1.392,0,0,0-1.3.653,3.068,3.068,0,0,0-.39,1.6v.246a3.11,3.11,0,0,0,.387,1.619A1.393,1.393,0,0,0,799.023,1562.533Z"/>
      <path id="Trazado_180842" data-name="Trazado 180842" d="M804.337,1555.449v1.529h1.2v.856h-1.2v3.849a.862.862,0,0,0,.185.627.664.664,0,0,0,.489.182,1.209,1.209,0,0,0,.22-.023,1.463,1.463,0,0,0,.214-.059l.152.791a1.027,1.027,0,0,1-.378.173,1.91,1.91,0,0,1-.5.067,1.491,1.491,0,0,1-1.119-.425,1.841,1.841,0,0,1-.416-1.333v-3.849h-1.008v-.856h1.008v-1.529Z"/>
      <path id="Trazado_180843" data-name="Trazado 180843" d="M806.693,1560.09a3.491,3.491,0,0,1,.761-2.318,2.824,2.824,0,0,1,4.152,0,3.484,3.484,0,0,1,.764,2.321v.129a3.477,3.477,0,0,1-.761,2.32,2.837,2.837,0,0,1-4.152,0,3.467,3.467,0,0,1-.764-2.317Zm1.154.126a2.994,2.994,0,0,0,.425,1.662,1.536,1.536,0,0,0,2.516,0,2.987,2.987,0,0,0,.428-1.662v-.129a2.974,2.974,0,0,0-.431-1.656,1.412,1.412,0,0,0-1.262-.662,1.393,1.393,0,0,0-1.251.662,3,3,0,0,0-.425,1.656Z"/>
      <path id="Trazado_180844" data-name="Trazado 180844" d="M822.15,1563.318h-5.532v-.8l2.8-3.1a7.878,7.878,0,0,0,1.017-1.33,2.089,2.089,0,0,0,.266-1.008,1.6,1.6,0,0,0-.372-1.075,1.233,1.233,0,0,0-.987-.437,1.7,1.7,0,0,0-1.3.454,1.813,1.813,0,0,0-.419,1.275h-1.107l-.012-.036a2.4,2.4,0,0,1,.733-1.851,2.877,2.877,0,0,1,2.109-.75,2.5,2.5,0,0,1,1.831.671,2.292,2.292,0,0,1,.683,1.708,2.73,2.73,0,0,1-.413,1.4,8.962,8.962,0,0,1-1.158,1.5l-2.244,2.438.012.029h4.1Z"/>
    </g>
    <g id="Grupo_80253" data-name="Grupo 80253">
      <path id="Trazado_180845" data-name="Trazado 180845" d="M715.5,1419.277l.012.035a2.574,2.574,0,0,1-.844,2.013,3.218,3.218,0,0,1-2.291.812,3.006,3.006,0,0,1-2.358-1.026,3.767,3.767,0,0,1-.911-2.6v-1.518a3.777,3.777,0,0,1,.911-2.6,3,3,0,0,1,2.358-1.029,3.312,3.312,0,0,1,2.3.771,2.549,2.549,0,0,1,.832,2.042l-.012.035H714.4a1.9,1.9,0,0,0-.528-1.418,2.023,2.023,0,0,0-1.488-.522,1.82,1.82,0,0,0-1.541.779,3.164,3.164,0,0,0-.574,1.932v1.528a3.184,3.184,0,0,0,.574,1.944,1.819,1.819,0,0,0,1.541.778,2.029,2.029,0,0,0,1.488-.518,1.917,1.917,0,0,0,.528-1.433Z"/>
      <path id="Trazado_180846" data-name="Trazado 180846" d="M720.753,1422.014c-.039-.192-.069-.361-.091-.507a3.847,3.847,0,0,1-.038-.443,2.686,2.686,0,0,1-.841.765,2.147,2.147,0,0,1-1.116.308,2.073,2.073,0,0,1-1.509-.507,1.867,1.867,0,0,1-.518-1.4,1.638,1.638,0,0,1,.735-1.421,3.439,3.439,0,0,1,1.995-.512h1.254v-.627a1.162,1.162,0,0,0-.34-.882,1.333,1.333,0,0,0-.961-.325,1.384,1.384,0,0,0-.9.284.855.855,0,0,0-.348.683h-1.1l-.012-.036a1.536,1.536,0,0,1,.654-1.265,2.681,2.681,0,0,1,1.778-.574,2.616,2.616,0,0,1,1.734.547,1.941,1.941,0,0,1,.657,1.579v3.053a5.774,5.774,0,0,0,.035.656,3.318,3.318,0,0,0,.129.622Zm-1.916-.85a2.061,2.061,0,0,0,1.131-.321,1.527,1.527,0,0,0,.656-.737v-1.028h-1.3a1.68,1.68,0,0,0-1.116.351,1.047,1.047,0,0,0-.419.823.867.867,0,0,0,.264.667A1.107,1.107,0,0,0,718.837,1421.164Z"/>
      <path id="Trazado_180847" data-name="Trazado 180847" d="M723.935,1422.014v-5.485h-.99v-.855h.99v-.8a2.176,2.176,0,0,1,.53-1.567,1.95,1.95,0,0,1,1.48-.554,2.611,2.611,0,0,1,.4.032c.135.022.284.052.448.091l-.14.879c-.071-.016-.156-.029-.255-.041a2.609,2.609,0,0,0-.314-.018.911.911,0,0,0-.75.3,1.357,1.357,0,0,0-.246.876v.8h1.318v.855h-1.318v5.485Z"/>
      <path id="Trazado_180848" data-name="Trazado 180848" d="M730.087,1422.137a2.672,2.672,0,0,1-2.106-.882,3.318,3.318,0,0,1-.783-2.288v-.258a3.253,3.253,0,0,1,.806-2.253,2.48,2.48,0,0,1,1.907-.9,2.4,2.4,0,0,1,1.94.773,3.084,3.084,0,0,1,.656,2.062v.721h-4.113l-.018.029a2.5,2.5,0,0,0,.463,1.5,1.475,1.475,0,0,0,1.248.587,2.887,2.887,0,0,0,1.028-.167,2.35,2.35,0,0,0,.765-.46l.451.751a2.652,2.652,0,0,1-.9.56A3.6,3.6,0,0,1,730.087,1422.137Zm-.176-5.672a1.251,1.251,0,0,0-.99.488,2.307,2.307,0,0,0-.5,1.223l.012.029h2.924v-.152a1.755,1.755,0,0,0-.364-1.133A1.3,1.3,0,0,0,729.911,1416.465Zm.534-3.246h1.347l.012.035-1.582,1.523h-.861Z"/>
      <path id="Trazado_180849" data-name="Trazado 180849" d="M736.521,1418.961a4.227,4.227,0,0,1,.653-2.467,2.105,2.105,0,0,1,1.831-.937,2.265,2.265,0,0,1,.987.2,2.024,2.024,0,0,1,.736.6v-3.486h1.154v9.141h-.943l-.135-.78a2.05,2.05,0,0,1-.762.674,2.294,2.294,0,0,1-1.049.229,2.177,2.177,0,0,1-1.816-.841,3.493,3.493,0,0,1-.656-2.212Zm1.154.123a2.69,2.69,0,0,0,.393,1.538,1.369,1.369,0,0,0,1.218.577,1.534,1.534,0,0,0,.868-.234,1.761,1.761,0,0,0,.574-.657v-2.959a1.8,1.8,0,0,0-.577-.624,1.531,1.531,0,0,0-.853-.231,1.32,1.32,0,0,0-1.228.686,3.543,3.543,0,0,0-.4,1.781Z"/>
      <path id="Trazado_180850" data-name="Trazado 180850" d="M746.236,1422.137a2.676,2.676,0,0,1-2.107-.882,3.322,3.322,0,0,1-.782-2.288v-.258a3.248,3.248,0,0,1,.806-2.253,2.478,2.478,0,0,1,1.907-.9,2.4,2.4,0,0,1,1.939.773,3.079,3.079,0,0,1,.656,2.062v.721h-4.113l-.017.029a2.494,2.494,0,0,0,.462,1.5,1.476,1.476,0,0,0,1.249.587,2.891,2.891,0,0,0,1.028-.167,2.349,2.349,0,0,0,.765-.46l.451.751a2.667,2.667,0,0,1-.9.56A3.6,3.6,0,0,1,746.236,1422.137Zm-.176-5.672a1.248,1.248,0,0,0-.99.488,2.292,2.292,0,0,0-.5,1.223l.011.029H747.5v-.152a1.76,1.76,0,0,0-.363-1.133A1.3,1.3,0,0,0,746.06,1416.465Z"/>
      <path id="Trazado_180851" data-name="Trazado 180851" d="M714.659,1433.484A3.493,3.493,0,0,1,714,1435.7a2.17,2.17,0,0,1-1.81.84,2.516,2.516,0,0,1-1.029-.2,1.965,1.965,0,0,1-.753-.589v3.1h-1.154v-8.777h.885l.181.82a2.088,2.088,0,0,1,.774-.7,2.3,2.3,0,0,1,1.078-.241,2.108,2.108,0,0,1,1.831.935,4.224,4.224,0,0,1,.653,2.47Zm-1.154-.126a3.349,3.349,0,0,0-.425-1.771,1.377,1.377,0,0,0-1.251-.693,1.54,1.54,0,0,0-.849.225,1.682,1.682,0,0,0-.569.618v3.06a1.634,1.634,0,0,0,.569.612,1.6,1.6,0,0,0,.861.219,1.422,1.422,0,0,0,1.242-.6,2.637,2.637,0,0,0,.422-1.549Z"/>
      <path id="Trazado_180852" data-name="Trazado 180852" d="M719.077,1431.093l-.591-.035a1.319,1.319,0,0,0-.771.217,1.381,1.381,0,0,0-.483.609v4.529h-1.155v-6.339h1.032l.111.925a2.194,2.194,0,0,1,.665-.767,1.552,1.552,0,0,1,.911-.276,1.387,1.387,0,0,1,.246.021,1.638,1.638,0,0,1,.194.044Z"/>
      <path id="Trazado_180853" data-name="Trazado 180853" d="M722.71,1436.536a2.672,2.672,0,0,1-2.106-.881,3.318,3.318,0,0,1-.783-2.288v-.258a3.25,3.25,0,0,1,.806-2.253,2.481,2.481,0,0,1,1.907-.9,2.4,2.4,0,0,1,1.94.774,3.082,3.082,0,0,1,.656,2.062v.721h-4.113l-.018.029a2.494,2.494,0,0,0,.463,1.5,1.478,1.478,0,0,0,1.248.587,2.883,2.883,0,0,0,1.028-.167,2.349,2.349,0,0,0,.765-.46l.451.751a2.667,2.667,0,0,1-.9.56A3.6,3.6,0,0,1,722.71,1436.536Zm-.176-5.671a1.253,1.253,0,0,0-.99.487,2.314,2.314,0,0,0-.5,1.224l.012.029h2.924v-.152a1.756,1.756,0,0,0-.364-1.133A1.294,1.294,0,0,0,722.534,1430.865Z"/>
      <path id="Trazado_180854" data-name="Trazado 180854" d="M729,1435.628a1.558,1.558,0,0,0,1.011-.354,1.083,1.083,0,0,0,.436-.87h1.037l.012.035a1.783,1.783,0,0,1-.729,1.459,2.66,2.66,0,0,1-1.767.638,2.564,2.564,0,0,1-2.115-.9,3.481,3.481,0,0,1-.733-2.267v-.247a3.465,3.465,0,0,1,.736-2.258,2.884,2.884,0,0,1,3.931-.249,2.037,2.037,0,0,1,.683,1.611l-.012.035H730.45a1.335,1.335,0,0,0-.41-.987,1.408,1.408,0,0,0-1.037-.407,1.392,1.392,0,0,0-1.3.652,3.071,3.071,0,0,0-.389,1.6v.246a3.116,3.116,0,0,0,.386,1.618A1.4,1.4,0,0,0,729,1435.628Z"/>
      <path id="Trazado_180855" data-name="Trazado 180855" d="M734.042,1428.451h-1.154v-1.178h1.154Zm0,7.962h-1.154v-6.339h1.154Z"/>
      <path id="Trazado_180856" data-name="Trazado 180856" d="M735.548,1433.185a3.487,3.487,0,0,1,.762-2.317,2.553,2.553,0,0,1,2.068-.912,2.579,2.579,0,0,1,2.083.909,3.477,3.477,0,0,1,.765,2.32v.129a3.472,3.472,0,0,1-.762,2.32,2.836,2.836,0,0,1-4.151,0,3.465,3.465,0,0,1-.765-2.317Zm1.154.126a3,3,0,0,0,.425,1.662,1.536,1.536,0,0,0,2.517,0,2.986,2.986,0,0,0,.427-1.662v-.129a2.977,2.977,0,0,0-.43-1.656,1.411,1.411,0,0,0-1.263-.661,1.392,1.392,0,0,0-1.251.661,3.009,3.009,0,0,0-.425,1.656Z"/>
      <path id="Trazado_180857" data-name="Trazado 180857" d="M714.671,1447.884a3.487,3.487,0,0,1-.659,2.212,2.18,2.18,0,0,1-1.814.84,2.308,2.308,0,0,1-1.089-.243,2.019,2.019,0,0,1-.768-.718l-.141.838h-.943v-9.14h1.154v3.551a2,2,0,0,1,.742-.645,2.274,2.274,0,0,1,1.034-.223,2.108,2.108,0,0,1,1.828.938,4.22,4.22,0,0,1,.656,2.467Zm-1.154-.123a3.5,3.5,0,0,0-.4-1.779,1.319,1.319,0,0,0-1.221-.688,1.509,1.509,0,0,0-.9.261,1.837,1.837,0,0,0-.583.7V1449a1.9,1.9,0,0,0,.583.732,1.5,1.5,0,0,0,.911.264,1.37,1.37,0,0,0,1.213-.58,2.662,2.662,0,0,0,.4-1.535Z"/>
      <path id="Trazado_180858" data-name="Trazado 180858" d="M719.974,1450.813c-.039-.191-.07-.36-.091-.506a3.863,3.863,0,0,1-.038-.443,2.689,2.689,0,0,1-.841.765,2.152,2.152,0,0,1-1.116.307,2.077,2.077,0,0,1-1.509-.506,1.864,1.864,0,0,1-.518-1.4,1.639,1.639,0,0,1,.735-1.421,3.432,3.432,0,0,1,1.995-.512h1.254v-.627a1.161,1.161,0,0,0-.34-.882,1.333,1.333,0,0,0-.961-.325,1.383,1.383,0,0,0-.905.284.853.853,0,0,0-.349.682h-1.1l-.012-.035a1.533,1.533,0,0,1,.653-1.265,2.684,2.684,0,0,1,1.779-.575,2.62,2.62,0,0,1,1.734.548,1.942,1.942,0,0,1,.656,1.579v3.053a6.041,6.041,0,0,0,.035.656,3.459,3.459,0,0,0,.129.621Zm-1.916-.849a2.053,2.053,0,0,0,1.131-.322,1.527,1.527,0,0,0,.656-.736v-1.028H718.55a1.685,1.685,0,0,0-1.116.35,1.047,1.047,0,0,0-.419.824.867.867,0,0,0,.264.667A1.106,1.106,0,0,0,718.058,1449.964Z"/>
      <path id="Trazado_180859" data-name="Trazado 180859" d="M724.005,1444.474v6.861a2.107,2.107,0,0,1-.5,1.509,1.841,1.841,0,0,1-1.4.53,1.97,1.97,0,0,1-.331-.026,2.587,2.587,0,0,1-.32-.08l.082-.908a1.209,1.209,0,0,0,.235.05,1.91,1.91,0,0,0,.252.021.763.763,0,0,0,.606-.258,1.257,1.257,0,0,0,.226-.838v-6.861Zm-.035-1.647h-1.154v-1.154h1.154Z"/>
      <path id="Trazado_180860" data-name="Trazado 180860" d="M725.511,1447.585a3.491,3.491,0,0,1,.762-2.318,2.822,2.822,0,0,1,4.151,0,3.475,3.475,0,0,1,.765,2.32v.129a3.473,3.473,0,0,1-.762,2.32,2.836,2.836,0,0,1-4.151,0,3.465,3.465,0,0,1-.765-2.317Zm1.154.126a3,3,0,0,0,.425,1.662,1.537,1.537,0,0,0,2.517,0,2.986,2.986,0,0,0,.427-1.662v-.129a2.976,2.976,0,0,0-.43-1.656,1.411,1.411,0,0,0-1.263-.661,1.392,1.392,0,0,0-1.251.661,3.009,3.009,0,0,0-.425,1.656Z"/>
    </g>
    <g id="Grupo_80254" data-name="Grupo 80254">
      <path id="Trazado_180861" data-name="Trazado 180861" d="M1070.807,1413.016l.012.035a2.574,2.574,0,0,1-.844,2.013,3.217,3.217,0,0,1-2.291.811,3.009,3.009,0,0,1-2.359-1.025,3.775,3.775,0,0,1-.911-2.6v-1.517a3.786,3.786,0,0,1,.911-2.6,3.008,3.008,0,0,1,2.359-1.028,3.312,3.312,0,0,1,2.3.771,2.549,2.549,0,0,1,.832,2.042l-.012.035H1069.7a1.9,1.9,0,0,0-.527-1.418,2.026,2.026,0,0,0-1.488-.522,1.818,1.818,0,0,0-1.541.779,3.164,3.164,0,0,0-.574,1.932v1.528a3.184,3.184,0,0,0,.574,1.943,1.818,1.818,0,0,0,1.541.779,2.037,2.037,0,0,0,1.488-.518,1.917,1.917,0,0,0,.527-1.433Z"/>
      <path id="Trazado_180862" data-name="Trazado 180862" d="M1076.057,1415.752c-.039-.191-.07-.36-.091-.507a3.825,3.825,0,0,1-.038-.442,2.686,2.686,0,0,1-.841.765,2.152,2.152,0,0,1-1.116.307,2.077,2.077,0,0,1-1.509-.506,1.864,1.864,0,0,1-.518-1.4,1.638,1.638,0,0,1,.735-1.421,3.431,3.431,0,0,1,1.995-.513h1.254v-.626a1.159,1.159,0,0,0-.34-.882,1.333,1.333,0,0,0-.961-.326,1.382,1.382,0,0,0-.9.285.853.853,0,0,0-.349.682h-1.1l-.012-.035a1.533,1.533,0,0,1,.653-1.265,2.684,2.684,0,0,1,1.779-.575,2.62,2.62,0,0,1,1.734.548,1.942,1.942,0,0,1,.656,1.579v3.053a6.054,6.054,0,0,0,.035.656,3.462,3.462,0,0,0,.129.621Zm-1.916-.849a2.054,2.054,0,0,0,1.131-.322,1.527,1.527,0,0,0,.656-.736v-1.028h-1.295a1.68,1.68,0,0,0-1.116.35,1.047,1.047,0,0,0-.419.824.867.867,0,0,0,.264.667A1.105,1.105,0,0,0,1074.141,1414.9Z"/>
      <path id="Trazado_180863" data-name="Trazado 180863" d="M1079.238,1415.752v-5.484h-.99v-.856h.99v-.8a2.175,2.175,0,0,1,.531-1.568,1.949,1.949,0,0,1,1.479-.553,2.5,2.5,0,0,1,.4.032c.134.021.284.052.448.091l-.141.879a2.309,2.309,0,0,0-.255-.041,2.619,2.619,0,0,0-.313-.018.911.911,0,0,0-.75.3,1.357,1.357,0,0,0-.246.876v.8h1.318v.856h-1.318v5.484Z"/>
      <path id="Trazado_180864" data-name="Trazado 180864" d="M1085.391,1415.875a2.678,2.678,0,0,1-2.107-.881,3.323,3.323,0,0,1-.782-2.289v-.257a3.25,3.25,0,0,1,.806-2.253,2.481,2.481,0,0,1,1.907-.9,2.4,2.4,0,0,1,1.939.774,3.077,3.077,0,0,1,.657,2.062v.721H1083.7l-.017.029a2.494,2.494,0,0,0,.463,1.5,1.478,1.478,0,0,0,1.248.587,2.912,2.912,0,0,0,1.028-.167,2.349,2.349,0,0,0,.765-.46l.451.751a2.674,2.674,0,0,1-.9.56A3.6,3.6,0,0,1,1085.391,1415.875Zm-.176-5.672a1.251,1.251,0,0,0-.99.488,2.3,2.3,0,0,0-.5,1.223l.012.03h2.923v-.152a1.76,1.76,0,0,0-.363-1.133A1.294,1.294,0,0,0,1085.215,1410.2Zm.533-3.246h1.348l.012.036-1.582,1.523h-.862Z"/>
      <path id="Trazado_180865" data-name="Trazado 180865" d="M1091.824,1412.7a4.227,4.227,0,0,1,.654-2.467,2.1,2.1,0,0,1,1.831-.938,2.279,2.279,0,0,1,.987.2,2.024,2.024,0,0,1,.735.6v-3.486h1.155v9.14h-.944l-.134-.779a2.05,2.05,0,0,1-.762.674,2.3,2.3,0,0,1-1.049.228,2.176,2.176,0,0,1-1.816-.84,3.493,3.493,0,0,1-.657-2.212Zm1.155.123a2.7,2.7,0,0,0,.392,1.538,1.373,1.373,0,0,0,1.219.577,1.522,1.522,0,0,0,.867-.235,1.739,1.739,0,0,0,.574-.656v-2.959a1.778,1.778,0,0,0-.577-.624,1.525,1.525,0,0,0-.852-.231,1.32,1.32,0,0,0-1.228.685,3.547,3.547,0,0,0-.4,1.782Z"/>
      <path id="Trazado_180866" data-name="Trazado 180866" d="M1101.539,1415.875a2.675,2.675,0,0,1-2.106-.881,3.319,3.319,0,0,1-.782-2.289v-.257a3.249,3.249,0,0,1,.805-2.253,2.481,2.481,0,0,1,1.907-.9,2.4,2.4,0,0,1,1.94.774,3.082,3.082,0,0,1,.656,2.062v.721h-4.113l-.018.029a2.494,2.494,0,0,0,.463,1.5,1.478,1.478,0,0,0,1.248.587,2.915,2.915,0,0,0,1.029-.167,2.356,2.356,0,0,0,.764-.46l.451.751a2.666,2.666,0,0,1-.9.56A3.6,3.6,0,0,1,1101.539,1415.875Zm-.176-5.672a1.253,1.253,0,0,0-.99.488,2.313,2.313,0,0,0-.5,1.223l.012.03h2.924v-.152a1.761,1.761,0,0,0-.363-1.133A1.3,1.3,0,0,0,1101.363,1410.2Z"/>
      <path id="Trazado_180867" data-name="Trazado 180867" d="M1069.963,1427.223a3.493,3.493,0,0,1-.656,2.211,2.169,2.169,0,0,1-1.811.841,2.514,2.514,0,0,1-1.028-.2,1.965,1.965,0,0,1-.753-.589v3.1h-1.154v-8.778h.884l.182.821a2.1,2.1,0,0,1,.774-.7,2.308,2.308,0,0,1,1.078-.24,2.108,2.108,0,0,1,1.831.935,4.231,4.231,0,0,1,.653,2.469Zm-1.154-.126a3.346,3.346,0,0,0-.425-1.771,1.377,1.377,0,0,0-1.251-.693,1.546,1.546,0,0,0-.85.225,1.693,1.693,0,0,0-.568.617v3.061a1.646,1.646,0,0,0,.568.612,1.6,1.6,0,0,0,.862.219,1.42,1.42,0,0,0,1.242-.6,2.634,2.634,0,0,0,.422-1.548Z"/>
      <path id="Trazado_180868" data-name="Trazado 180868" d="M1074.381,1424.832l-.592-.035a1.318,1.318,0,0,0-.77.217,1.391,1.391,0,0,0-.484.609v4.529h-1.154v-6.34h1.031l.112.926a2.186,2.186,0,0,1,.665-.767,1.551,1.551,0,0,1,.911-.276,1.4,1.4,0,0,1,.246.021,1.457,1.457,0,0,1,.193.044Z"/>
      <path id="Trazado_180869" data-name="Trazado 180869" d="M1078.014,1430.275a2.676,2.676,0,0,1-2.107-.882,3.319,3.319,0,0,1-.782-2.288v-.257a3.25,3.25,0,0,1,.806-2.253,2.481,2.481,0,0,1,1.907-.9,2.4,2.4,0,0,1,1.94.774,3.082,3.082,0,0,1,.656,2.062v.721h-4.114l-.017.029a2.494,2.494,0,0,0,.463,1.5,1.478,1.478,0,0,0,1.248.587,2.91,2.91,0,0,0,1.028-.167,2.364,2.364,0,0,0,.765-.46l.451.751a2.679,2.679,0,0,1-.9.56A3.6,3.6,0,0,1,1078.014,1430.275Zm-.176-5.672a1.251,1.251,0,0,0-.99.488,2.3,2.3,0,0,0-.5,1.223l.012.03h2.923v-.152a1.761,1.761,0,0,0-.363-1.133A1.3,1.3,0,0,0,1077.838,1424.6Z"/>
      <path id="Trazado_180870" data-name="Trazado 180870" d="M1084.307,1429.367a1.558,1.558,0,0,0,1.011-.354,1.083,1.083,0,0,0,.436-.871h1.037l.012.036a1.788,1.788,0,0,1-.73,1.459,2.66,2.66,0,0,1-1.766.638,2.567,2.567,0,0,1-2.115-.9,3.48,3.48,0,0,1-.733-2.268v-.246a3.465,3.465,0,0,1,.736-2.259,2.886,2.886,0,0,1,3.931-.249,2.044,2.044,0,0,1,.683,1.612l-.012.035h-1.043a1.34,1.34,0,0,0-.41-.987,1.41,1.41,0,0,0-1.037-.408,1.392,1.392,0,0,0-1.3.653,3.067,3.067,0,0,0-.39,1.6v.246a3.11,3.11,0,0,0,.387,1.619A1.394,1.394,0,0,0,1084.307,1429.367Z"/>
      <path id="Trazado_180871" data-name="Trazado 180871" d="M1089.346,1422.189h-1.154v-1.177h1.154Zm0,7.963h-1.154v-6.34h1.154Z"/>
      <path id="Trazado_180872" data-name="Trazado 180872" d="M1090.852,1426.924a3.5,3.5,0,0,1,.761-2.318,2.824,2.824,0,0,1,4.152,0,3.479,3.479,0,0,1,.764,2.321v.129a3.472,3.472,0,0,1-.761,2.32,2.837,2.837,0,0,1-4.152,0,3.472,3.472,0,0,1-.764-2.317Zm1.154.126a3,3,0,0,0,.425,1.662,1.536,1.536,0,0,0,2.516,0,2.978,2.978,0,0,0,.428-1.662v-.129a2.973,2.973,0,0,0-.43-1.656,1.413,1.413,0,0,0-1.263-.662,1.392,1.392,0,0,0-1.251.662,3.006,3.006,0,0,0-.425,1.656Z"/>
      <path id="Trazado_180873" data-name="Trazado 180873" d="M1068.457,1444.552q-.059-.287-.091-.507a3.846,3.846,0,0,1-.038-.442,2.7,2.7,0,0,1-.841.765,2.147,2.147,0,0,1-1.116.307,2.073,2.073,0,0,1-1.509-.507,1.865,1.865,0,0,1-.518-1.4,1.637,1.637,0,0,1,.735-1.421,3.436,3.436,0,0,1,1.995-.513h1.254v-.627a1.163,1.163,0,0,0-.34-.882,1.335,1.335,0,0,0-.96-.325,1.391,1.391,0,0,0-.906.284.856.856,0,0,0-.348.683h-1.1l-.012-.035a1.537,1.537,0,0,1,.654-1.266,2.681,2.681,0,0,1,1.778-.574,2.617,2.617,0,0,1,1.734.548,1.94,1.94,0,0,1,.657,1.579v3.053a5.831,5.831,0,0,0,.035.656,3.3,3.3,0,0,0,.129.621Zm-1.916-.849a2.054,2.054,0,0,0,1.131-.322,1.521,1.521,0,0,0,.656-.736v-1.028h-1.3a1.682,1.682,0,0,0-1.116.35,1.048,1.048,0,0,0-.419.824.865.865,0,0,0,.264.666A1.1,1.1,0,0,0,1066.541,1443.7Z"/>
      <path id="Trazado_180874" data-name="Trazado 180874" d="M1072.406,1444.552h-1.154v-9.141h1.154Z"/>
      <path id="Trazado_180875" data-name="Trazado 180875" d="M1075.7,1436.683v1.529h1.2v.856h-1.2v3.849a.862.862,0,0,0,.185.627.667.667,0,0,0,.489.182,1.209,1.209,0,0,0,.22-.023,1.463,1.463,0,0,0,.214-.059l.152.791a1.027,1.027,0,0,1-.378.173,1.91,1.91,0,0,1-.5.067,1.49,1.49,0,0,1-1.119-.425,1.845,1.845,0,0,1-.416-1.333v-3.849h-1.008v-.856h1.008v-1.529Z"/>
      <path id="Trazado_180876" data-name="Trazado 180876" d="M1078.061,1441.324a3.5,3.5,0,0,1,.761-2.318,2.824,2.824,0,0,1,4.152,0,3.479,3.479,0,0,1,.764,2.321v.129a3.473,3.473,0,0,1-.761,2.32,2.837,2.837,0,0,1-4.152,0,3.472,3.472,0,0,1-.764-2.317Zm1.154.126a3.005,3.005,0,0,0,.425,1.662,1.536,1.536,0,0,0,2.516,0,2.98,2.98,0,0,0,.428-1.662v-.129a2.98,2.98,0,0,0-.43-1.657,1.416,1.416,0,0,0-1.263-.661,1.394,1.394,0,0,0-1.251.661,3.013,3.013,0,0,0-.425,1.657Z"/>
    </g>
    <rect id="Rectngulo_23045" data-name="Rectngulo 23045" width="2" height="348.522" transform="translate(903.419 1253.217)"/>
    <ellipse id="Elipse_7312" data-name="Elipse 7312" cx="32.217" cy="21" rx="32.217" ry="21" transform="translate(960.941 1299.391)" fill="url(#radial-gradient)"/>
    <ellipse id="Elipse_7313" data-name="Elipse 7313" cx="32.217" cy="21" rx="32.217" ry="21" transform="translate(944.767 1425.522)" fill="url(#radial-gradient-2)"/>
    <ellipse id="Elipse_7314" data-name="Elipse 7314" cx="32.217" cy="21" rx="32.217" ry="21" transform="translate(833.115 1432)" fill="url(#radial-gradient-2)"/>
    <ellipse id="Elipse_7315" data-name="Elipse 7315" cx="32.217" cy="21" rx="32.217" ry="21" transform="translate(760.724 1509.217)" fill="url(#radial-gradient)"/>
    <rect id="Rectngulo_23046" data-name="Rectngulo 23046" width="299.218" height="2" transform="translate(753.158 1426.478)"/>
  </g>
</svg>
