<svg xmlns="http://www.w3.org/2000/svg" xmlns:xlink="http://www.w3.org/1999/xlink" width="377.419" height="436.982" viewBox="0 0 377.419 436.982">
  <defs>
    <clipPath id="clip-path">
      <path id="Trazado_176764" data-name="Trazado 176764" d="M553.511,3423.367l-2.825-1.641a1.683,1.683,0,0,1-.7-1.543l2.824,1.642A1.682,1.682,0,0,0,553.511,3423.367Z" fill="#fff"/>
    </clipPath>
    <clipPath id="clip-path-2">
      <path id="Trazado_176767" data-name="Trazado 176767" d="M575.192,3351.065l2.824,1.641a1.7,1.7,0,0,0-1.711.168l-2.825-1.642A1.7,1.7,0,0,1,575.192,3351.065Z" fill="#fff"/>
    </clipPath>
    <clipPath id="clip-path-3">
      <path id="Trazado_176772" data-name="Trazado 176772" d="M552.66,3369.293l-2.824-1.641a5.28,5.28,0,0,1,2.4-4.152l2.824,1.641A5.285,5.285,0,0,0,552.66,3369.293Z" fill="#fff"/>
    </clipPath>
    <clipPath id="clip-path-4">
      <path id="Trazado_176933" data-name="Trazado 176933" d="M599.32,3403.838l.568.33a.157.157,0,0,0-.157.015l-.568-.33A.157.157,0,0,1,599.32,3403.838Z" fill="none"/>
    </clipPath>
  </defs>
  <g id="Grupo_80240" data-name="Grupo 80240" transform="translate(-392 -3212.222)">
    <path id="Rectángulo_22829" data-name="Rectángulo 22829" d="M0,0H306.209a0,0,0,0,1,0,0V263.757a27.168,27.168,0,0,1-27.168,27.168H0a0,0,0,0,1,0,0V0A0,0,0,0,1,0,0Z" transform="translate(392 3289.48)" fill="#f2f2f2"/>
    <rect id="Rectángulo_22830" data-name="Rectángulo 22830" width="306.189" height="77.258" transform="translate(392.02 3212.222)" fill="#53bced"/>
    <text id="Método_interactivo_" data-name="Método interactivo 
" transform="translate(414.208 3236.764)" fill="#fff" font-size="20" font-family="MyriadPro-Bold, Myriad Pro" font-weight="700"><tspan x="0" y="15">Método interactivo </tspan><tspan font-family="MyriadPro-Bold"><tspan x="0" y="39"></tspan></tspan></text>
    <text id="Consiste_en_tener_contacto_con_alguien_este_método_se_propone_utilizar_herramientas_básicas_como:_entrevista_cuestionarios_y_talleres_de_trabajo_de_JAD_diseño_conjunto_de_aplicaciones_este_último_demanda_cierta_especialización._" data-name="Consiste en tener contacto con alguien, este método se propone utilizar herramientas básicas como: entrevista, cuestionarios y talleres de trabajo de JAD (diseño conjunto de aplicaciones), este último demanda cierta especialización. 
" transform="translate(414.208 3302.496)" fill="#2a5e77" font-size="20" font-family="SegoeUI, Segoe UI"><tspan x="0" y="22">Consiste en tener contacto </tspan><tspan x="0" y="46">con alguien, este método </tspan><tspan x="0" y="70">se propone utilizar </tspan><tspan x="0" y="94">herramientas básicas como: </tspan><tspan x="0" y="118">entrevista, cuestionarios y </tspan><tspan x="0" y="142">talleres de trabajo de JAD </tspan><tspan x="0" y="166">(diseño conjunto de </tspan><tspan x="0" y="190">aplicaciones), este último </tspan><tspan x="0" y="214">demanda cierta </tspan><tspan x="0" y="238">especialización. </tspan></text>
    <ellipse id="Elipse_5056" data-name="Elipse 5056" cx="62.196" cy="64.341" rx="62.196" ry="64.341" transform="translate(628.737 3506.377)" fill="#fff"/>
    <g id="Grupo_77333" data-name="Grupo 77333" transform="translate(120.857 172.405)">
      <g id="Grupo_77085" data-name="Grupo 77085">
        <g id="Grupo_77059" data-name="Grupo 77059" opacity="0.5" style="mix-blend-mode: multiply;isolation: isolate">
          <path id="Trazado_176746" data-name="Trazado 176746" d="M558.54,3415.716,539.929,3426.5l-7.871-4.553v-1.331l18.612-9.456Z" fill="#bcc5df"/>
        </g>
        <g id="Grupo_77064" data-name="Grupo 77064">
          <g id="Grupo_77063" data-name="Grupo 77063" style="isolation: isolate">
            <g id="Grupo_77060" data-name="Grupo 77060">
              <path id="Trazado_176747" data-name="Trazado 176747" d="M556.237,3414.55v1.18l-16.552,9.56v-1.18Z" fill="#bcc5df"/>
            </g>
            <g id="Grupo_77061" data-name="Grupo 77061">
              <path id="Trazado_176748" data-name="Trazado 176748" d="M539.685,3424.11v1.18l-7.626-4.4v-1.18Z" fill="#dde3f4"/>
            </g>
            <g id="Grupo_77062" data-name="Grupo 77062">
              <path id="Trazado_176749" data-name="Trazado 176749" d="M556.237,3414.55l-16.552,9.56-7.626-4.4,16.552-9.56Z" fill="#fff"/>
            </g>
          </g>
        </g>
        <g id="Grupo_77069" data-name="Grupo 77069">
          <g id="Grupo_77068" data-name="Grupo 77068" style="isolation: isolate">
            <g id="Grupo_77065" data-name="Grupo 77065">
              <path id="Trazado_176750" data-name="Trazado 176750" d="M556.377,3412.982v1.18l-16.552,9.56v-1.18Z" fill="#bcc5df"/>
            </g>
            <g id="Grupo_77066" data-name="Grupo 77066">
              <path id="Trazado_176751" data-name="Trazado 176751" d="M539.825,3422.541v1.18l-7.626-4.4v-1.18Z" fill="#dde3f4"/>
            </g>
            <g id="Grupo_77067" data-name="Grupo 77067">
              <path id="Trazado_176752" data-name="Trazado 176752" d="M556.377,3412.982l-16.552,9.56-7.626-4.4,16.552-9.56Z" fill="#fff"/>
            </g>
          </g>
        </g>
        <g id="Grupo_77074" data-name="Grupo 77074">
          <g id="Grupo_77073" data-name="Grupo 77073" style="isolation: isolate">
            <g id="Grupo_77070" data-name="Grupo 77070">
              <path id="Trazado_176753" data-name="Trazado 176753" d="M557.79,3412.076v1.18l-16.552,9.56v-1.18Z" fill="#bcc5df"/>
            </g>
            <g id="Grupo_77071" data-name="Grupo 77071">
              <path id="Trazado_176754" data-name="Trazado 176754" d="M541.238,3421.636v1.18l-7.626-4.4v-1.18Z" fill="#dde3f4"/>
            </g>
            <g id="Grupo_77072" data-name="Grupo 77072">
              <path id="Trazado_176755" data-name="Trazado 176755" d="M557.79,3412.076l-16.552,9.56-7.626-4.4,16.552-9.56Z" fill="#fff"/>
            </g>
          </g>
        </g>
        <g id="Grupo_77079" data-name="Grupo 77079">
          <g id="Grupo_77078" data-name="Grupo 77078" style="isolation: isolate">
            <g id="Grupo_77075" data-name="Grupo 77075">
              <path id="Trazado_176756" data-name="Trazado 176756" d="M557.79,3410.573v1.18l-16.552,9.56v-1.18Z" fill="#bcc5df"/>
            </g>
            <g id="Grupo_77076" data-name="Grupo 77076">
              <path id="Trazado_176757" data-name="Trazado 176757" d="M541.238,3420.133v1.18l-7.626-4.4v-1.18Z" fill="#dde3f4"/>
            </g>
            <g id="Grupo_77077" data-name="Grupo 77077">
              <path id="Trazado_176758" data-name="Trazado 176758" d="M557.79,3410.573l-16.552,9.56-7.626-4.4,16.552-9.56Z" fill="#fff"/>
            </g>
          </g>
        </g>
        <g id="Grupo_77084" data-name="Grupo 77084">
          <g id="Grupo_77083" data-name="Grupo 77083" style="isolation: isolate">
            <g id="Grupo_77080" data-name="Grupo 77080">
              <path id="Trazado_176759" data-name="Trazado 176759" d="M557.79,3408.871v1.18l-16.552,9.56v-1.18Z" fill="#bcc5df"/>
            </g>
            <g id="Grupo_77081" data-name="Grupo 77081">
              <path id="Trazado_176760" data-name="Trazado 176760" d="M541.238,3418.431v1.18l-7.626-4.4v-1.18Z" fill="#dde3f4"/>
            </g>
            <g id="Grupo_77082" data-name="Grupo 77082">
              <path id="Trazado_176761" data-name="Trazado 176761" d="M557.79,3408.871l-16.552,9.56-7.626-4.4,16.552-9.56Z" fill="#fff"/>
            </g>
          </g>
        </g>
      </g>
      <g id="Grupo_77102" data-name="Grupo 77102">
        <g id="Grupo_77099" data-name="Grupo 77099">
          <g id="Grupo_77098" data-name="Grupo 77098" style="isolation: isolate">
            <g id="Grupo_77088" data-name="Grupo 77088" style="isolation: isolate">
              <path id="Trazado_176762" data-name="Trazado 176762" d="M553.511,3423.367l-2.825-1.641a1.683,1.683,0,0,1-.7-1.543l2.824,1.642A1.682,1.682,0,0,0,553.511,3423.367Z" fill="#fff"/>
              <g id="Grupo_77087" data-name="Grupo 77087" clip-path="url(#clip-path)">
                <g id="Grupo_77086" data-name="Grupo 77086" style="isolation: isolate">
                  <path id="Trazado_176763" data-name="Trazado 176763" d="M553.511,3423.367l-2.825-1.641a1.683,1.683,0,0,1-.7-1.543l2.824,1.642a1.682,1.682,0,0,0,.7,1.542Z" fill="#d4dbef"/>
                </g>
              </g>
            </g>
            <g id="Grupo_77091" data-name="Grupo 77091" style="isolation: isolate">
              <path id="Trazado_176765" data-name="Trazado 176765" d="M575.192,3351.065l2.824,1.641a1.7,1.7,0,0,0-1.711.168l-2.825-1.642A1.7,1.7,0,0,1,575.192,3351.065Z" fill="#fff"/>
              <g id="Grupo_77090" data-name="Grupo 77090" clip-path="url(#clip-path-2)">
                <g id="Grupo_77089" data-name="Grupo 77089" style="isolation: isolate">
                  <path id="Trazado_176766" data-name="Trazado 176766" d="M576.3,3352.874l-2.825-1.642a1.7,1.7,0,0,1,1.712-.167l2.824,1.641a1.7,1.7,0,0,0-1.711.168Z" fill="#fff"/>
                </g>
              </g>
            </g>
            <g id="Grupo_77092" data-name="Grupo 77092">
              <path id="Trazado_176768" data-name="Trazado 176768" d="M552.809,3421.825l-2.825-1.641-.149-52.531,2.825,1.641Z" fill="#d4dbef"/>
            </g>
            <g id="Grupo_77093" data-name="Grupo 77093">
              <path id="Trazado_176769" data-name="Trazado 176769" d="M555.057,3365.141l-2.824-1.642,21.247-12.267,2.825,1.641Z" fill="#fff"/>
            </g>
            <g id="Grupo_77096" data-name="Grupo 77096" style="isolation: isolate">
              <path id="Trazado_176770" data-name="Trazado 176770" d="M552.66,3369.293l-2.824-1.641a5.28,5.28,0,0,1,2.4-4.152l2.824,1.641A5.285,5.285,0,0,0,552.66,3369.293Z" fill="#fff"/>
              <g id="Grupo_77095" data-name="Grupo 77095" clip-path="url(#clip-path-3)">
                <g id="Grupo_77094" data-name="Grupo 77094" style="isolation: isolate">
                  <path id="Trazado_176771" data-name="Trazado 176771" d="M552.66,3369.293l-2.824-1.641a5.28,5.28,0,0,1,2.4-4.152l2.824,1.641a5.285,5.285,0,0,0-2.4,4.152Z" fill="#e9ecf5"/>
                </g>
              </g>
            </g>
            <g id="Grupo_77097" data-name="Grupo 77097">
              <path id="Trazado_176773" data-name="Trazado 176773" d="M578.729,3358.146l-26.057,15.045L552.8,3417l26.057-15.045Z" fill="#15d8fc"/>
              <path id="Trazado_176774" data-name="Trazado 176774" d="M578.718,3354.249c-.005-1.526-1.085-2.142-2.413-1.375l-21.248,12.267a5.285,5.285,0,0,0-2.4,4.152l.011,3.9,26.058-15.045Z" fill="#e9ecf5"/>
              <path id="Trazado_176775" data-name="Trazado 176775" d="M552.8,3417l.013,4.822c0,1.526,1.085,2.141,2.413,1.375l21.247-12.268a5.28,5.28,0,0,0,2.4-4.151l-.014-4.823Z" fill="#e9ecf5"/>
            </g>
          </g>
        </g>
        <g id="Grupo_77100" data-name="Grupo 77100">
          <path id="Trazado_176776" data-name="Trazado 176776" d="M571.8,3359.162a2.087,2.087,0,0,1-.943,1.635c-.522.3-.944.057-.944-.545a2.085,2.085,0,0,1,.944-1.635C571.377,3358.317,571.8,3358.561,571.8,3359.162Z" fill="#372b3d"/>
          <path id="Trazado_176777" data-name="Trazado 176777" d="M561.6,3365a1.474,1.474,0,0,1-.668,1.156c-.368.213-.667.04-.667-.385a1.476,1.476,0,0,1,.667-1.156C561.3,3364.407,561.6,3364.58,561.6,3365Z" fill="#372b3d"/>
          <path id="Trazado_176778" data-name="Trazado 176778" d="M559.875,3366a1.476,1.476,0,0,1-.667,1.155c-.369.213-.668.041-.668-.385a1.474,1.474,0,0,1,.668-1.156C559.576,3365.4,559.875,3365.574,559.875,3366Z" fill="#372b3d"/>
          <path id="Trazado_176779" data-name="Trazado 176779" d="M568.628,3361.755l-6.28,3.637c-.15.087-.271.017-.271-.156v-.9a.6.6,0,0,1,.271-.469l6.28-3.637c.149-.087.271-.017.271.156v.9A.6.6,0,0,1,568.628,3361.755Z" fill="#372b3d"/>
        </g>
        <g id="Grupo_77101" data-name="Grupo 77101">
          <path id="Trazado_176780" data-name="Trazado 176780" d="M564.887,3416.084a.756.756,0,0,1-.378-.1.951.951,0,0,1-.415-.875V3413.9a2.63,2.63,0,0,1,1.206-2.088l3.857-2.227a.852.852,0,0,1,1.38.8v1.215a2.628,2.628,0,0,1-1.206,2.088l-3.857,2.227A1.185,1.185,0,0,1,564.887,3416.084Zm4.856-6.332a.848.848,0,0,0-.412.13l-3.857,2.227a2.319,2.319,0,0,0-1.031,1.786v1.216a.513.513,0,0,0,.857.494l3.857-2.227a2.315,2.315,0,0,0,1.031-1.786v-1.215a.624.624,0,0,0-.24-.573A.412.412,0,0,0,569.743,3409.752Z" fill="#828cc0"/>
        </g>
      </g>
      <g id="Grupo_77119" data-name="Grupo 77119">
        <g id="Grupo_77103" data-name="Grupo 77103" opacity="0.5" style="mix-blend-mode: multiply;isolation: isolate">
          <path id="Trazado_176781" data-name="Trazado 176781" d="M559.71,3428.669l-9.636,5.63-7.87-4.553v-1.331l9.636-4.3Z" fill="#bcc5df"/>
        </g>
        <g id="Grupo_77108" data-name="Grupo 77108">
          <g id="Grupo_77107" data-name="Grupo 77107" style="isolation: isolate">
            <g id="Grupo_77104" data-name="Grupo 77104">
              <path id="Trazado_176782" data-name="Trazado 176782" d="M557.406,3427.5v1.18l-7.577,4.4v-1.18Z" fill="#bcc5df"/>
            </g>
            <g id="Grupo_77105" data-name="Grupo 77105">
              <path id="Trazado_176783" data-name="Trazado 176783" d="M549.83,3431.906v1.18l-7.626-4.4v-1.18Z" fill="#dde3f4"/>
            </g>
            <g id="Grupo_77106" data-name="Grupo 77106">
              <path id="Trazado_176784" data-name="Trazado 176784" d="M557.406,3427.5l-7.577,4.4-7.626-4.4,7.577-4.4Z" fill="#fff"/>
            </g>
          </g>
        </g>
        <g id="Grupo_77113" data-name="Grupo 77113">
          <g id="Grupo_77112" data-name="Grupo 77112" style="isolation: isolate">
            <g id="Grupo_77109" data-name="Grupo 77109">
              <path id="Trazado_176785" data-name="Trazado 176785" d="M557.547,3425.934v1.18l-7.577,4.4v-1.18Z" fill="#bcc5df"/>
            </g>
            <g id="Grupo_77110" data-name="Grupo 77110">
              <path id="Trazado_176786" data-name="Trazado 176786" d="M549.97,3430.337v1.18l-7.626-4.4v-1.18Z" fill="#dde3f4"/>
            </g>
            <g id="Grupo_77111" data-name="Grupo 77111">
              <path id="Trazado_176787" data-name="Trazado 176787" d="M557.547,3425.934l-7.577,4.4-7.626-4.4,7.577-4.4Z" fill="#fff"/>
            </g>
          </g>
        </g>
        <g id="Grupo_77118" data-name="Grupo 77118">
          <g id="Grupo_77117" data-name="Grupo 77117" style="isolation: isolate">
            <g id="Grupo_77114" data-name="Grupo 77114">
              <path id="Trazado_176788" data-name="Trazado 176788" d="M558.959,3425.029v1.18l-7.577,4.4v-1.18Z" fill="#bcc5df"/>
            </g>
            <g id="Grupo_77115" data-name="Grupo 77115">
              <path id="Trazado_176789" data-name="Trazado 176789" d="M551.383,3429.432v1.18l-7.626-4.4v-1.18Z" fill="#dde3f4"/>
            </g>
            <g id="Grupo_77116" data-name="Grupo 77116">
              <path id="Trazado_176790" data-name="Trazado 176790" d="M558.959,3425.029l-7.577,4.4-7.626-4.4,7.577-4.4Z" fill="#fff"/>
            </g>
          </g>
        </g>
        <path id="Trazado_176791" data-name="Trazado 176791" d="M551.945,3422.248c-1.223.052-2.627.754-2.167,1.664-1.575-.266-2.791.545-2.882,1.251-.139,1.068,2.059,2.313,7.706,1.534C555.951,3423.437,553.794,3422.168,551.945,3422.248Z" fill="#f75061"/>
      </g>
      <g id="Grupo_77126" data-name="Grupo 77126">
        <g id="Grupo_77124" data-name="Grupo 77124">
          <g id="Grupo_77123" data-name="Grupo 77123" style="isolation: isolate">
            <g id="Grupo_77120" data-name="Grupo 77120">
              <path id="Trazado_176792" data-name="Trazado 176792" d="M570.265,3367.037l-.86-.5-.024-8.629.86.5Z" fill="#bcc5df"/>
            </g>
            <g id="Grupo_77121" data-name="Grupo 77121">
              <path id="Trazado_176793" data-name="Trazado 176793" d="M570.24,3358.408l-.86-.5,7.894-4.556.86.5Z" fill="#fff"/>
            </g>
            <g id="Grupo_77122" data-name="Grupo 77122">
              <path id="Trazado_176794" data-name="Trazado 176794" d="M578.135,3353.853l.024,8.629-7.894,4.556-.024-8.629Z" fill="#eef1f8"/>
            </g>
          </g>
        </g>
        <g id="Grupo_77125" data-name="Grupo 77125">
          <path id="Trazado_176795" data-name="Trazado 176795" d="M571.27,3365.628l5.986-3.456v-6.911l-5.986,3.456Z" fill="#15d9fd"/>
          <path id="Trazado_176796" data-name="Trazado 176796" d="M572.475,3361.982l1.366.863,2.169-4.267,1.245,1.819v1.776l-5.986,3.456V3363.9Z" fill="#1499fc"/>
          <path id="Trazado_176797" data-name="Trazado 176797" d="M572.475,3359.923a1.777,1.777,0,0,1,.8-1.392c.444-.256.8-.048.8.464a1.774,1.774,0,0,1-.8,1.392C572.834,3360.643,572.475,3360.435,572.475,3359.923Z" fill="#1499fc"/>
        </g>
      </g>
      <g id="Grupo_77133" data-name="Grupo 77133">
        <g id="Grupo_77131" data-name="Grupo 77131">
          <g id="Grupo_77130" data-name="Grupo 77130" style="isolation: isolate">
            <g id="Grupo_77127" data-name="Grupo 77127">
              <path id="Trazado_176798" data-name="Trazado 176798" d="M555.229,3383.3l-.86-.5-.024-8.629.86.5Z" fill="#bcc5df"/>
            </g>
            <g id="Grupo_77128" data-name="Grupo 77128">
              <path id="Trazado_176799" data-name="Trazado 176799" d="M555.2,3374.672l-.86-.5,7.483-4.318.86.5Z" fill="#fff"/>
            </g>
            <g id="Grupo_77129" data-name="Grupo 77129">
              <path id="Trazado_176800" data-name="Trazado 176800" d="M562.687,3370.354l.025,8.629-7.483,4.318-.024-8.629Z" fill="#eef1f8"/>
            </g>
          </g>
        </g>
        <g id="Grupo_77132" data-name="Grupo 77132">
          <path id="Trazado_176801" data-name="Trazado 176801" d="M562.014,3378.58l-5.8,3.346v-6.692l5.8-3.346Z" fill="#1499fc"/>
          <path id="Trazado_176802" data-name="Trazado 176802" d="M561.412,3375.6l-3.773-.337v5.031Z" fill="#eff6fe"/>
        </g>
      </g>
      <g id="Grupo_77139" data-name="Grupo 77139">
        <g id="Grupo_77138" data-name="Grupo 77138">
          <g id="Grupo_77137" data-name="Grupo 77137" style="isolation: isolate">
            <g id="Grupo_77134" data-name="Grupo 77134">
              <path id="Trazado_176803" data-name="Trazado 176803" d="M555.909,3407.433l-.86-.5-.025-8.629.861.5Z" fill="#bcc5df"/>
            </g>
            <g id="Grupo_77135" data-name="Grupo 77135">
              <path id="Trazado_176804" data-name="Trazado 176804" d="M555.884,3398.8l-.861-.5,7.483-4.318.86.5Z" fill="#fff"/>
            </g>
            <g id="Grupo_77136" data-name="Grupo 77136">
              <path id="Trazado_176805" data-name="Trazado 176805" d="M563.367,3394.487l.024,8.629-7.483,4.318-.024-8.629Z" fill="#eef1f8"/>
            </g>
          </g>
        </g>
        <path id="Trazado_176806" data-name="Trazado 176806" d="M559.839,3397.491l.793,1.166a.125.125,0,0,0,.156.041l1.582-.545c.177-.061.246.147.124.371l-1.092,2a.446.446,0,0,0-.06.246l.186,1.744a.459.459,0,0,1-.326.462l-1.468.072a.3.3,0,0,0-.192.111l-1.468,1.623c-.164.182-.347.134-.326-.085l.185-1.959a.186.186,0,0,0-.059-.177l-1.093-.741c-.122-.083-.052-.372.125-.515l1.582-1.281a.537.537,0,0,0,.156-.221l.792-2.081C559.525,3397.491,559.751,3397.36,559.839,3397.491Z" fill="#ffc400"/>
      </g>
      <g id="Grupo_77145" data-name="Grupo 77145">
        <g id="Grupo_77144" data-name="Grupo 77144">
          <g id="Grupo_77143" data-name="Grupo 77143" style="isolation: isolate">
            <g id="Grupo_77140" data-name="Grupo 77140">
              <path id="Trazado_176807" data-name="Trazado 176807" d="M567.547,3382.345l-.86-.5-.029-10.116.86.5Z" fill="#bcc5df"/>
            </g>
            <g id="Grupo_77141" data-name="Grupo 77141">
              <path id="Trazado_176808" data-name="Trazado 176808" d="M567.518,3372.229l-.86-.5,18.273-10.55.86.5Z" fill="#fff"/>
            </g>
            <g id="Grupo_77142" data-name="Grupo 77142">
              <path id="Trazado_176809" data-name="Trazado 176809" d="M585.791,3361.679l.029,10.116-18.273,10.55-.029-10.116Z" fill="#dde3f4"/>
            </g>
          </g>
        </g>
      </g>
      <g id="Grupo_77146" data-name="Grupo 77146">
        <path id="Trazado_176810" data-name="Trazado 176810" d="M577.582,3367.181l-1.5.864v1.531l1.5-.865Z" fill="#a6afcd"/>
        <path id="Trazado_176811" data-name="Trazado 176811" d="M578.026,3366.925v1.531l7.139-4.122V3362.8Z" fill="#a6afcd"/>
      </g>
      <g id="Grupo_77147" data-name="Grupo 77147">
        <path id="Trazado_176812" data-name="Trazado 176812" d="M580.974,3367.57l-4.889,2.823v1.531l4.889-2.823Z" fill="#a6afcd"/>
      </g>
      <g id="Grupo_77148" data-name="Grupo 77148">
        <path id="Trazado_176813" data-name="Trazado 176813" d="M577.393,3371.984l-1.308.755v1.531l1.308-.755Z" fill="#a6afcd"/>
        <path id="Trazado_176814" data-name="Trazado 176814" d="M579.943,3370.512l-2.008,1.159v1.531l2.008-1.159Z" fill="#a6afcd"/>
        <path id="Trazado_176815" data-name="Trazado 176815" d="M580.757,3370.042v1.531l4.408-2.545V3367.5Z" fill="#a6afcd"/>
      </g>
      <g id="Grupo_77149" data-name="Grupo 77149">
        <path id="Trazado_176816" data-name="Trazado 176816" d="M585.165,3369.8l-9.08,5.242v1.531l9.08-5.242Z" fill="#a6afcd"/>
      </g>
      <g id="Grupo_77151" data-name="Grupo 77151">
        <path id="Trazado_176817" data-name="Trazado 176817" d="M575.666,3376.715l-7.354,4.246v-8.492l7.354-4.246Z" fill="#ffb700"/>
        <g id="Grupo_77150" data-name="Grupo 77150">
          <path id="Trazado_176818" data-name="Trazado 176818" d="M573.535,3371.77c0-.986-.692-1.386-1.547-.893a3.418,3.418,0,0,0-1.546,2.679c0,.986.692,1.385,1.546.892A3.415,3.415,0,0,0,573.535,3371.77Z" fill="#fff"/>
          <path id="Trazado_176819" data-name="Trazado 176819" d="M574.651,3376.769v-1.039c0-1.388-.983-1.955-2.185-1.261l-.955.551a4.848,4.848,0,0,0-2.185,3.785v1.039Z" fill="#fff"/>
        </g>
      </g>
      <g id="Grupo_77160" data-name="Grupo 77160">
        <g id="Grupo_77156" data-name="Grupo 77156">
          <g id="Grupo_77155" data-name="Grupo 77155" style="isolation: isolate">
            <g id="Grupo_77152" data-name="Grupo 77152">
              <path id="Trazado_176820" data-name="Trazado 176820" d="M568.19,3407.165l-.86-.5-.029-15.391.86.5Z" fill="#bcc5df"/>
            </g>
            <g id="Grupo_77153" data-name="Grupo 77153">
              <path id="Trazado_176821" data-name="Trazado 176821" d="M568.162,3391.774l-.86-.5,18.273-10.55.86.5Z" fill="#fff"/>
            </g>
            <g id="Grupo_77154" data-name="Grupo 77154">
              <path id="Trazado_176822" data-name="Trazado 176822" d="M586.434,3381.224l.029,15.391-18.273,10.55-.029-15.391Z" fill="#dde3f4"/>
            </g>
          </g>
        </g>
        <g id="Grupo_77159" data-name="Grupo 77159">
          <path id="Trazado_176823" data-name="Trazado 176823" d="M571.229,3391.987a2.746,2.746,0,0,1-1.242,2.152c-.687.4-1.243.075-1.243-.718a2.745,2.745,0,0,1,1.243-2.152C570.673,3390.873,571.229,3391.194,571.229,3391.987Z" fill="#1499fc"/>
          <path id="Trazado_176824" data-name="Trazado 176824" d="M583.319,3385.007l-11.33,6.542v1.435l11.33-6.542Z" fill="#1499fc"/>
          <path id="Trazado_176825" data-name="Trazado 176825" d="M574.916,3402.668l8.4-4.851v-1.435l-8.4,4.852Z" fill="#828cc0"/>
          <path id="Trazado_176826" data-name="Trazado 176826" d="M582.519,3394.656l-10.531,6.08v1.435l10.531-6.08Z" fill="#828cc0"/>
          <path id="Trazado_176827" data-name="Trazado 176827" d="M571.229,3398.388a2.745,2.745,0,0,1-1.242,2.152c-.686.4-1.243.075-1.243-.717a2.746,2.746,0,0,1,1.243-2.152C570.673,3397.275,571.229,3397.6,571.229,3398.388Z" fill="#1499fc"/>
          <path id="Trazado_176828" data-name="Trazado 176828" d="M583.319,3391.408l-11.33,6.542v1.435l11.33-6.542Z" fill="#1499fc"/>
          <path id="Trazado_176829" data-name="Trazado 176829" d="M578.94,3389.634l-6.952,4.014v1.435l6.952-4.014Z" fill="#1499fc"/>
          <g id="Grupo_77157" data-name="Grupo 77157">
            <path id="Trazado_176830" data-name="Trazado 176830" d="M583.318,3389.253c0,.792.557,1.113,1.244.716a2.746,2.746,0,0,0,1.241-2.153c0-.792-.558-1.112-1.244-.715A2.744,2.744,0,0,0,583.318,3389.253Z" fill="#828cc0"/>
            <path id="Trazado_176831" data-name="Trazado 176831" d="M577.653,3392.53l4.906-2.838v1.434l-4.906,2.838Z" fill="#828cc0"/>
          </g>
          <g id="Grupo_77158" data-name="Grupo 77158">
            <path id="Trazado_176832" data-name="Trazado 176832" d="M583.318,3394.2c0,.792.557,1.112,1.244.715a2.746,2.746,0,0,0,1.241-2.153c0-.792-.558-1.112-1.244-.715A2.746,2.746,0,0,0,583.318,3394.2Z" fill="#828cc0"/>
          </g>
        </g>
      </g>
      <g id="Grupo_77167" data-name="Grupo 77167">
        <g id="Grupo_77165" data-name="Grupo 77165">
          <g id="Grupo_77164" data-name="Grupo 77164" style="isolation: isolate">
            <g id="Grupo_77161" data-name="Grupo 77161">
              <path id="Trazado_176833" data-name="Trazado 176833" d="M581.689,3389.189l-.86-.5-.024-10.183.86.5Z" fill="#bcc5df"/>
            </g>
            <g id="Grupo_77162" data-name="Grupo 77162">
              <path id="Trazado_176834" data-name="Trazado 176834" d="M581.665,3379.006l-.86-.5,9.088-5.247.86.5Z" fill="#fff"/>
            </g>
            <g id="Grupo_77163" data-name="Grupo 77163">
              <path id="Trazado_176835" data-name="Trazado 176835" d="M590.753,3373.76l.024,10.183-9.088,5.247-.024-10.183Z" fill="#eef1f8"/>
            </g>
          </g>
        </g>
        <g id="Grupo_77166" data-name="Grupo 77166">
          <path id="Trazado_176836" data-name="Trazado 176836" d="M590.142,3379.211c0-2.5-1.756-3.514-3.921-2.264a8.665,8.665,0,0,0-3.921,6.791c0,2.5,1.756,3.514,3.921,2.264A8.668,8.668,0,0,0,590.142,3379.211Z" fill="#f75061"/>
          <path id="Trazado_176837" data-name="Trazado 176837" d="M585.215,3379.455v4.618a1.292,1.292,0,0,0-.733.212,2.075,2.075,0,0,0-1.085,1.429c0,.443.485.522,1.085.176a2.077,2.077,0,0,0,1.085-1.429v-4.939l-.005,0,2.51-2.155v4.751a1.3,1.3,0,0,0-.733.212,2.075,2.075,0,0,0-1.085,1.429c0,.444.485.522,1.085.176a2.078,2.078,0,0,0,1.085-1.429v-5.561a.128.128,0,0,0-.211-.1l-2.953,2.511A.128.128,0,0,0,585.215,3379.455Z" fill="#eff6fe"/>
        </g>
      </g>
      <g id="Grupo_77262" data-name="Grupo 77262">
        <path id="Trazado_176838" data-name="Trazado 176838" d="M591.129,3421.458c2.238,1.292,2.238,3.386,0,4.678a8.954,8.954,0,0,1-8.1,0c-2.237-1.292-2.237-3.386,0-4.678A8.954,8.954,0,0,1,591.129,3421.458Z" fill="#bcc5df" opacity="0.5" style="mix-blend-mode: multiply;isolation: isolate"/>
        <g id="Grupo_77231" data-name="Grupo 77231">
          <g id="Grupo_77172" data-name="Grupo 77172">
            <g id="Grupo_77171" data-name="Grupo 77171" style="isolation: isolate">
              <g id="Grupo_77168" data-name="Grupo 77168">
                <path id="Trazado_176839" data-name="Trazado 176839" d="M580.337,3391.575l.44-.256,9.263,31.385-.44.256Z" fill="#546282"/>
              </g>
              <g id="Grupo_77169" data-name="Grupo 77169">
                <path id="Trazado_176840" data-name="Trazado 176840" d="M579.74,3391.513l.44-.256.6.062-.44.256Z" fill="#1c161f"/>
              </g>
              <g id="Grupo_77170" data-name="Grupo 77170">
                <path id="Trazado_176841" data-name="Trazado 176841" d="M580.337,3391.575l9.263,31.385-.6-.062-9.263-31.385Z" fill="#3f4961"/>
              </g>
            </g>
          </g>
          <g id="Grupo_77178" data-name="Grupo 77178">
            <g id="Grupo_77177" data-name="Grupo 77177">
              <g id="Grupo_77176" data-name="Grupo 77176" style="isolation: isolate">
                <g id="Grupo_77173" data-name="Grupo 77173">
                  <path id="Trazado_176842" data-name="Trazado 176842" d="M576.669,3397.848l-.347-.2v-.521l.347.2Z" fill="#3f4961"/>
                </g>
                <g id="Grupo_77174" data-name="Grupo 77174">
                  <path id="Trazado_176843" data-name="Trazado 176843" d="M576.667,3397.327l-.347-.2,4.586-2.647.347.2Z" fill="#3f4961"/>
                </g>
                <g id="Grupo_77175" data-name="Grupo 77175">
                  <path id="Trazado_176844" data-name="Trazado 176844" d="M581.253,3394.68l.37.308-4.955,2.861,0-.521Z" fill="#546282"/>
                </g>
              </g>
            </g>
          </g>
          <g id="Grupo_77184" data-name="Grupo 77184">
            <g id="Grupo_77183" data-name="Grupo 77183">
              <g id="Grupo_77182" data-name="Grupo 77182" style="isolation: isolate">
                <g id="Grupo_77179" data-name="Grupo 77179">
                  <path id="Trazado_176845" data-name="Trazado 176845" d="M577.809,3401.636l-.347-.2v-.521l.347.2Z" fill="#3f4961"/>
                </g>
                <g id="Grupo_77180" data-name="Grupo 77180">
                  <path id="Trazado_176846" data-name="Trazado 176846" d="M577.807,3401.115l-.347-.2,4.586-2.648.347.2Z" fill="#3f4961"/>
                </g>
                <g id="Grupo_77181" data-name="Grupo 77181">
                  <path id="Trazado_176847" data-name="Trazado 176847" d="M582.393,3398.467l.371.308-4.955,2.861v-.521Z" fill="#546282"/>
                </g>
              </g>
            </g>
          </g>
          <g id="Grupo_77190" data-name="Grupo 77190">
            <g id="Grupo_77189" data-name="Grupo 77189">
              <g id="Grupo_77188" data-name="Grupo 77188" style="isolation: isolate">
                <g id="Grupo_77185" data-name="Grupo 77185">
                  <path id="Trazado_176848" data-name="Trazado 176848" d="M578.914,3405.438l-.347-.2,0-.521.347.2Z" fill="#3f4961"/>
                </g>
                <g id="Grupo_77186" data-name="Grupo 77186">
                  <path id="Trazado_176849" data-name="Trazado 176849" d="M578.912,3404.917l-.347-.2,4.586-2.648.347.2Z" fill="#3f4961"/>
                </g>
                <g id="Grupo_77187" data-name="Grupo 77187">
                  <path id="Trazado_176850" data-name="Trazado 176850" d="M583.5,3402.27l.37.308-4.955,2.861,0-.521Z" fill="#546282"/>
                </g>
              </g>
            </g>
          </g>
          <g id="Grupo_77196" data-name="Grupo 77196">
            <g id="Grupo_77195" data-name="Grupo 77195">
              <g id="Grupo_77194" data-name="Grupo 77194" style="isolation: isolate">
                <g id="Grupo_77191" data-name="Grupo 77191">
                  <path id="Trazado_176851" data-name="Trazado 176851" d="M580.056,3409.224l-.347-.2v-.521l.347.2Z" fill="#3f4961"/>
                </g>
                <g id="Grupo_77192" data-name="Grupo 77192">
                  <path id="Trazado_176852" data-name="Trazado 176852" d="M580.055,3408.7l-.347-.2,4.586-2.648.347.2Z" fill="#3f4961"/>
                </g>
                <g id="Grupo_77193" data-name="Grupo 77193">
                  <path id="Trazado_176853" data-name="Trazado 176853" d="M584.64,3406.056l.371.308-4.955,2.861v-.521Z" fill="#546282"/>
                </g>
              </g>
            </g>
          </g>
          <g id="Grupo_77202" data-name="Grupo 77202">
            <g id="Grupo_77201" data-name="Grupo 77201">
              <g id="Grupo_77200" data-name="Grupo 77200" style="isolation: isolate">
                <g id="Grupo_77197" data-name="Grupo 77197">
                  <path id="Trazado_176854" data-name="Trazado 176854" d="M581.161,3413.027l-.347-.2v-.521l.347.2Z" fill="#3f4961"/>
                </g>
                <g id="Grupo_77198" data-name="Grupo 77198">
                  <path id="Trazado_176855" data-name="Trazado 176855" d="M581.159,3412.506l-.347-.2,4.586-2.648.347.2Z" fill="#3f4961"/>
                </g>
                <g id="Grupo_77199" data-name="Grupo 77199">
                  <path id="Trazado_176856" data-name="Trazado 176856" d="M585.745,3409.858l.371.308-4.955,2.861,0-.521Z" fill="#546282"/>
                </g>
              </g>
            </g>
          </g>
          <g id="Grupo_77207" data-name="Grupo 77207">
            <g id="Grupo_77206" data-name="Grupo 77206">
              <g id="Grupo_77205" data-name="Grupo 77205" style="isolation: isolate">
                <g id="Grupo_77203" data-name="Grupo 77203">
                  <path id="Trazado_176857" data-name="Trazado 176857" d="M581.164,3413.027l-.347-.2v-.521l.347.2Z" fill="#3f4961"/>
                </g>
                <g id="Grupo_77204" data-name="Grupo 77204">
                  <path id="Trazado_176858" data-name="Trazado 176858" d="M581.162,3412.506l-.347-.2,4.586-2.648.347.2Z" fill="#3f4961"/>
                </g>
              </g>
            </g>
          </g>
          <g id="Grupo_77213" data-name="Grupo 77213">
            <g id="Grupo_77212" data-name="Grupo 77212">
              <g id="Grupo_77211" data-name="Grupo 77211" style="isolation: isolate">
                <g id="Grupo_77208" data-name="Grupo 77208">
                  <path id="Trazado_176859" data-name="Trazado 176859" d="M582.269,3416.829l-.347-.2,0-.521.347.2Z" fill="#3f4961"/>
                </g>
                <g id="Grupo_77209" data-name="Grupo 77209">
                  <path id="Trazado_176860" data-name="Trazado 176860" d="M582.267,3416.309l-.347-.2,4.586-2.648.347.2Z" fill="#3f4961"/>
                </g>
                <g id="Grupo_77210" data-name="Grupo 77210">
                  <path id="Trazado_176861" data-name="Trazado 176861" d="M586.853,3413.661l.37.308-4.955,2.861v-.521Z" fill="#546282"/>
                </g>
              </g>
            </g>
          </g>
          <g id="Grupo_77219" data-name="Grupo 77219">
            <g id="Grupo_77218" data-name="Grupo 77218">
              <g id="Grupo_77217" data-name="Grupo 77217" style="isolation: isolate">
                <g id="Grupo_77214" data-name="Grupo 77214">
                  <path id="Trazado_176862" data-name="Trazado 176862" d="M583.393,3420.626l-.347-.2,0-.521.347.2Z" fill="#3f4961"/>
                </g>
                <g id="Grupo_77215" data-name="Grupo 77215">
                  <path id="Trazado_176863" data-name="Trazado 176863" d="M583.391,3420.105l-.347-.2,4.586-2.648.347.2Z" fill="#3f4961"/>
                </g>
                <g id="Grupo_77216" data-name="Grupo 77216">
                  <path id="Trazado_176864" data-name="Trazado 176864" d="M587.977,3417.458l.37.308-4.955,2.861v-.521Z" fill="#546282"/>
                </g>
              </g>
            </g>
          </g>
          <g id="Grupo_77225" data-name="Grupo 77225">
            <g id="Grupo_77224" data-name="Grupo 77224">
              <g id="Grupo_77223" data-name="Grupo 77223" style="isolation: isolate">
                <g id="Grupo_77220" data-name="Grupo 77220">
                  <path id="Trazado_176865" data-name="Trazado 176865" d="M584.516,3424.418l-.347-.2,0-.521.347.2Z" fill="#3f4961"/>
                </g>
                <g id="Grupo_77221" data-name="Grupo 77221">
                  <path id="Trazado_176866" data-name="Trazado 176866" d="M584.514,3423.9l-.347-.2,4.586-2.648.347.2Z" fill="#3f4961"/>
                </g>
                <g id="Grupo_77222" data-name="Grupo 77222">
                  <path id="Trazado_176867" data-name="Trazado 176867" d="M589.1,3421.25l.37.308-4.955,2.861v-.521Z" fill="#546282"/>
                </g>
              </g>
            </g>
          </g>
          <g id="Grupo_77230" data-name="Grupo 77230">
            <g id="Grupo_77229" data-name="Grupo 77229" style="isolation: isolate">
              <g id="Grupo_77226" data-name="Grupo 77226">
                <path id="Trazado_176868" data-name="Trazado 176868" d="M575.439,3394.427l.44-.256,9.264,31.385-.44.256Z" fill="#546282"/>
              </g>
              <g id="Grupo_77227" data-name="Grupo 77227">
                <path id="Trazado_176869" data-name="Trazado 176869" d="M574.843,3394.365l.44-.256.6.062-.44.256Z" fill="#1c161f"/>
              </g>
              <g id="Grupo_77228" data-name="Grupo 77228">
                <path id="Trazado_176870" data-name="Trazado 176870" d="M575.439,3394.427l9.263,31.385-.6-.062-9.263-31.385Z" fill="#3f4961"/>
              </g>
            </g>
          </g>
        </g>
        <g id="man">
          <g id="man-2" data-name="man">
            <g id="Grupo_77236" data-name="Grupo 77236">
              <g id="Grupo_77235" data-name="Grupo 77235">
                <g id="Grupo_77234" data-name="Grupo 77234">
                  <g id="Grupo_77233" data-name="Grupo 77233">
                    <g id="Grupo_77232" data-name="Grupo 77232">
                      <path id="Trazado_176871" data-name="Trazado 176871" d="M586.209,3419.653c-.052-.077-.106-.036-.178-.035a.648.648,0,0,1-.265-.074c-.1-.048-.2-.112-.3-.168a2.428,2.428,0,0,0-.833-.289.784.784,0,0,0-.675.172.376.376,0,0,0-.12.209.58.58,0,0,0,.03.233.678.678,0,0,0,.075.2.874.874,0,0,0,.323.279,1.459,1.459,0,0,0,.457.192,3.758,3.758,0,0,1,.4.061.808.808,0,0,1,.239.128.669.669,0,0,0,.18.125.939.939,0,0,0,.458.034.488.488,0,0,0,.406-.61,1.553,1.553,0,0,0-.126-.308A1.461,1.461,0,0,0,586.209,3419.653Z" fill="#bcc5df"/>
                    </g>
                  </g>
                </g>
              </g>
            </g>
          </g>
          <g id="Grupo_77261" data-name="Grupo 77261">
            <g id="man-3" data-name="man">
              <g id="Grupo_77241" data-name="Grupo 77241">
                <g id="Grupo_77240" data-name="Grupo 77240">
                  <g id="Grupo_77239" data-name="Grupo 77239">
                    <g id="Grupo_77238" data-name="Grupo 77238">
                      <g id="Grupo_77237" data-name="Grupo 77237">
                        <path id="Trazado_176872" data-name="Trazado 176872" d="M588.611,3421.374c-.034-.087-.1-.058-.166-.073a.649.649,0,0,1-.243-.129c-.09-.07-.169-.153-.254-.229a2.422,2.422,0,0,0-.75-.464.783.783,0,0,0-.554-.057.573.573,0,0,0-.264.2.462.462,0,0,0-.063.294.719.719,0,0,0,.03.211.881.881,0,0,0,.255.342,1.478,1.478,0,0,0,.4.287,3.751,3.751,0,0,1,.378.147.816.816,0,0,1,.206.177.669.669,0,0,0,.148.161.926.926,0,0,0,.441.132.488.488,0,0,0,.528-.507,3.343,3.343,0,0,0-.1-.489Z" fill="#828cc0"/>
                      </g>
                    </g>
                  </g>
                </g>
              </g>
            </g>
            <path id="Trazado_176873" data-name="Trazado 176873" d="M587,3413.852c0-.091.012-.152.129-.188.33-.1.664-.21,1-.291a2.748,2.748,0,0,1,.6-.086l.44-.4a4.581,4.581,0,0,1,.043,1.157c-.1.837-.315,2.769-.372,3.69-.039.624-.04,1.25-.043,1.875s-.053,1.225-.1,1.835a.573.573,0,0,1-.123.383.674.674,0,0,1-.385.176.751.751,0,0,1-.607-.214c-.1-.1-.1-.295-.111-.427s-.02-.24-.024-.361c-.013-.348-.013-.7-.025-1.044-.012-.368-.032-.735-.057-1.1q-.026-.36-.057-.722l-.036-.4c-.039-.374-.1-.745-.135-1.124q-.1-1.061-.131-2.126c0-.178-.007-.356-.009-.533C587,3413.917,587,3413.883,587,3413.852Z" fill="#1499fc"/>
            <path id="Trazado_176874" data-name="Trazado 176874" d="M586.29,3412.274c.316-.093.878.478,1.126.616.229.127.464.244.7.355a1.792,1.792,0,0,0,.343.158c.1.021.2-.014.3.009.08.017.355-.035.39.04.052.115-.209.348-.287.447-.69.881-1.741,1.4-2.409,2.291-.281.376-.47.811-.716,1.211a.565.565,0,0,1-.106.137.53.53,0,0,1-.278.1c-.359.049-.318-.167-.527-.5-.156-.251-.6-.143-.634-.438a1.98,1.98,0,0,1,.341-1.084c.508-1.009.972-2.043,1.49-3.05a.648.648,0,0,1,.2-.267A.215.215,0,0,1,586.29,3412.274Z" fill="#13b7fd"/>
            <g id="Grupo_77260" data-name="Grupo 77260">
              <g id="Grupo_77259" data-name="Grupo 77259">
                <path id="Trazado_176875" data-name="Trazado 176875" d="M585.135,3408.685c-.008.1.009.307.111.375.083.056.266.035.361.044.3.028.6.047.9.066.135.009.271.018.406.022a6.125,6.125,0,0,0,1.176-.077,1.229,1.229,0,0,0,.518-.161.441.441,0,0,0,.11-.417.8.8,0,0,0-.446-.672,1.554,1.554,0,0,0-.808-.028,14.357,14.357,0,0,0-1.838.356.916.916,0,0,0-.306.123A.513.513,0,0,0,585.135,3408.685Z" fill="#fff"/>
                <path id="Trazado_176876" data-name="Trazado 176876" d="M580.5,3407.657a.093.093,0,0,0,.008.029c.026.043.094.028.12-.009a.267.267,0,0,0,.032-.1,1.009,1.009,0,0,1,.072-.213.049.049,0,0,1,.02-.025.053.053,0,0,1,.025,0l.035,0a.083.083,0,0,1,.027.006.09.09,0,0,1,.03.041.464.464,0,0,0,.145.141.779.779,0,0,1,.117.148,2.735,2.735,0,0,1,.264.407,1.29,1.29,0,0,1,.148.408,1.893,1.893,0,0,1,.025.36.374.374,0,0,1-.077.256c-.074.067-.176.017-.246-.029a2.2,2.2,0,0,1-.263-.275c-.044-.04-.069-.091-.111-.13a.528.528,0,0,0-.186-.09,1.377,1.377,0,0,1-.393-.23.546.546,0,0,1-.244-.328,1.133,1.133,0,0,1,.028-.478.449.449,0,0,1,.137-.235.218.218,0,0,1,.256-.022.121.121,0,0,1,.048.061.189.189,0,0,1,.005.075A1.475,1.475,0,0,0,580.5,3407.657Z" fill="#ffbfa2"/>
                <g id="Grupo_77246" data-name="Grupo 77246">
                  <g id="Grupo_77245" data-name="Grupo 77245">
                    <g id="Grupo_77244" data-name="Grupo 77244">
                      <g id="Grupo_77243" data-name="Grupo 77243">
                        <g id="Grupo_77242" data-name="Grupo 77242">
                          <path id="Trazado_176877" data-name="Trazado 176877" d="M585.24,3408.344v-.028a.932.932,0,0,1,.1-.5,1.139,1.139,0,0,1,.366-.267,6.565,6.565,0,0,1,1.3-.642c.7-.251,1.406-.761,2.148-.342a1,1,0,0,1,.21.154,1.692,1.692,0,0,1,.278,1.454c-.077.621-.261,1.221-.369,1.836-.022.128-.042.257-.058.386-.056.447-.016.905-.076,1.347a4.79,4.79,0,0,0,.118,1.211,1.041,1.041,0,0,1-.073.7,1.018,1.018,0,0,1-.669.354,4.975,4.975,0,0,1-2.8.048.617.617,0,0,1-.389-.3.7.7,0,0,1-.019-.329,18.868,18.868,0,0,0,.033-3.757A11.6,11.6,0,0,1,585.24,3408.344Z" fill="#e9ecf5"/>
                        </g>
                      </g>
                    </g>
                  </g>
                </g>
                <g id="Grupo_77251" data-name="Grupo 77251">
                  <g id="Grupo_77250" data-name="Grupo 77250">
                    <g id="Grupo_77249" data-name="Grupo 77249">
                      <g id="Grupo_77248" data-name="Grupo 77248">
                        <g id="Grupo_77247" data-name="Grupo 77247">
                          <path id="Trazado_176878" data-name="Trazado 176878" d="M586.863,3409.029a1.1,1.1,0,0,0-.015-.835,1.072,1.072,0,0,0-.664-.566.736.736,0,0,0-.79.192.933.933,0,0,0-.1.5v.028a11.6,11.6,0,0,0,.1,1.329,18.868,18.868,0,0,1-.033,3.757.7.7,0,0,0,.019.329.441.441,0,0,0,.172.2,7.445,7.445,0,0,1,.121-1.5,10.667,10.667,0,0,1,.569-1.973q.188-.483.409-.953A4.427,4.427,0,0,0,586.863,3409.029Z" fill="#dde3f4"/>
                        </g>
                      </g>
                    </g>
                  </g>
                </g>
                <g id="Grupo_77256" data-name="Grupo 77256">
                  <g id="Grupo_77255" data-name="Grupo 77255">
                    <g id="Grupo_77254" data-name="Grupo 77254">
                      <g id="Grupo_77253" data-name="Grupo 77253">
                        <g id="Grupo_77252" data-name="Grupo 77252">
                          <path id="Trazado_176879" data-name="Trazado 176879" d="M586.654,3407.055c.126-.054.26-.109.357-.144a5.6,5.6,0,0,1,1.476-.5.682.682,0,0,1-.31.98,1.468,1.468,0,0,1-1.467-.1C586.625,3407.228,586.561,3407.126,586.654,3407.055Z" fill="#cddcfb"/>
                        </g>
                      </g>
                    </g>
                  </g>
                </g>
                <path id="Trazado_176880" data-name="Trazado 176880" d="M585.035,3407.988a1.093,1.093,0,0,1,.941-.3.885.885,0,0,1,.344.2,1.174,1.174,0,0,1,.219.237.837.837,0,0,1,.085.716,1.109,1.109,0,0,1-.547.606c-.221.137-.434.287-.646.438a11.7,11.7,0,0,1-1.3.859,1.155,1.155,0,0,1-.874.166.654.654,0,0,1-.413-.427.527.527,0,0,1,.259-.668C584.555,3408.48,585.069,3407.96,585.035,3407.988Z" fill="#fff"/>
                <path id="Trazado_176881" data-name="Trazado 176881" d="M581.037,3408.353c-.077.07-.2.229-.177.348.021.1.168.21.231.281.2.226.4.445.6.664.092.1.184.2.279.3a6.008,6.008,0,0,0,.907.754,1.234,1.234,0,0,0,.486.241.449.449,0,0,0,.367-.228.8.8,0,0,0,.139-.794,1.562,1.562,0,0,0-.567-.577,14.448,14.448,0,0,0-1.578-1.007.872.872,0,0,0-.306-.121A.507.507,0,0,0,581.037,3408.353Z" fill="#fff"/>
                <path id="Trazado_176882" data-name="Trazado 176882" d="M586.825,3406.306c-.027-.184-.166-.141-.1-.308a.914.914,0,0,1,.272-.366.656.656,0,0,1,.429-.141c.053,0,.088.033.14.034a3.011,3.011,0,0,1,.435-.007c.144.021.277.032.277.194a1.989,1.989,0,0,0,.059.637,1.565,1.565,0,0,1,.1.343.6.6,0,0,1-.363.554,1.422,1.422,0,0,1-.831.075c-.139-.021-.334-.048-.416-.181a.537.537,0,0,1-.022-.339A1.869,1.869,0,0,0,586.825,3406.306Z" fill="#ffbfa2"/>
                <g id="Grupo_77258" data-name="Grupo 77258">
                  <g id="Grupo_77257" data-name="Grupo 77257">
                    <path id="Trazado_176883" data-name="Trazado 176883" d="M586.208,3403.953a.757.757,0,0,0-.177.366c-.046.312.08.633.012.943a1.037,1.037,0,0,0,.655,1.157,2.1,2.1,0,0,0,1.08-.106,1.528,1.528,0,0,0,.575-.609C589.59,3403.74,587.046,3402.932,586.208,3403.953Z" fill="#ffbfa2"/>
                  </g>
                  <path id="Trazado_176884" data-name="Trazado 176884" d="M588.715,3403.567a.776.776,0,0,0-.223-.156.2.2,0,0,1-.076-.048.237.237,0,0,1-.031-.059.484.484,0,0,0-.214-.2,1.756,1.756,0,0,0-1.1-.138,1.478,1.478,0,0,0-.37.093,1.272,1.272,0,0,0-.359.245,1.436,1.436,0,0,0-.373.495,2.525,2.525,0,0,0-.07.275.223.223,0,0,0,.074.231c.029.022.063.036.094.057.125.084.149.28.2.412.034.083.1.129.121.219s.019.191.048.283c.014.043.044.09.089.093a.092.092,0,0,0,.053-.016.261.261,0,0,0,.1-.154.675.675,0,0,1,.062-.175.044.044,0,0,1,.019-.019.042.042,0,0,1,.022,0,.2.2,0,0,1,.136.113.906.906,0,0,1,.076.21,2.237,2.237,0,0,1,.048.322.578.578,0,0,0,.127.322.832.832,0,0,0,.759.131,1.12,1.12,0,0,0,.247-.076,1.178,1.178,0,0,0,.418-.421,1.777,1.777,0,0,0,.267-.477,1.8,1.8,0,0,0,.06-.3A1.521,1.521,0,0,0,588.715,3403.567Z" fill="#251b29"/>
                  <path id="Trazado_176885" data-name="Trazado 176885" d="M586.877,3404.814c.233-.05.335.232.208.481a1.167,1.167,0,0,1-.166.205c-.368.421-.531.049-.415-.093C586.772,3405.078,586.585,3404.878,586.877,3404.814Z" fill="#ffbfa2"/>
                  <path id="Trazado_176886" data-name="Trazado 176886" d="M586.872,3405.268c.023-.029.267-.227.069-.307-.055-.023-.1.03-.1.085,0,.028.013.055.013.083a.118.118,0,0,1-.012.049c-.018.042-.093.091-.069.146S586.859,3405.284,586.872,3405.268Z" fill="#f3a984"/>
                </g>
              </g>
            </g>
            <path id="Trazado_176887" data-name="Trazado 176887" d="M584.317,3417.128l.015.037c.225.588.39,1.2.586,1.792.131.4.42,1.485.882,1.479.229,0,.66-.095.712-.3.195-.779-.476-3.035-.672-3.669-.049-.161-.048-.1-.094-.257a1.3,1.3,0,0,0-.128-.436c-.163-.207-.475.048-.632.161a3.08,3.08,0,0,0-.7.53C584.117,3416.681,584.232,3416.915,584.317,3417.128Z" fill="#13b7fd"/>
          </g>
        </g>
      </g>
      <g id="woman">
        <path id="Trazado_176888" data-name="Trazado 176888" d="M600.539,3414.438c-1.6.922-1.6,2.416,0,3.338a6.388,6.388,0,0,0,5.782,0c1.6-.922,1.6-2.416,0-3.338A6.39,6.39,0,0,0,600.539,3414.438Z" fill="#bcc5df" opacity="0.5" style="mix-blend-mode: multiply;isolation: isolate"/>
        <path id="Trazado_176889" data-name="Trazado 176889" d="M598.592,3402.041c.056-.025-.138-.032.351.169.929.382,2.288,1.125,1.936,1.616a.517.517,0,0,1-.422.2c-.142-.019-1.5-1.116-1.828-1.356C598.552,3402.618,598.465,3402.1,598.592,3402.041Z" fill="#ffbfa2"/>
        <path id="Trazado_176890" data-name="Trazado 176890" d="M597.505,3402.293a.094.094,0,0,1-.045-.072c0-.042.058-.064.093-.071a.337.337,0,0,1,.172.02c.072.026.14.064.213.083a.111.111,0,0,0,.063,0,.048.048,0,0,0,.036-.046c0-.039-.069-.068-.1-.086a1.089,1.089,0,0,0-.142-.08.788.788,0,0,0-.253-.083c-.092-.007-.19.016-.284.013a.171.171,0,0,1-.055-.009.152.152,0,0,1-.063-.062.916.916,0,0,1-.049-.084.027.027,0,0,1-.005-.017.026.026,0,0,1,.013-.016,1.619,1.619,0,0,1,.346-.17q.125-.054.249-.1a.136.136,0,0,1,.062-.014.175.175,0,0,1,.063.022,1.591,1.591,0,0,0,.191.068,2.042,2.042,0,0,1,.6.369c.122.1.248.2.367.3.1.083.049.257-.029.336a.28.28,0,0,1-.057.047.359.359,0,0,1-.265.034c-.045-.009-.254-.074-.317-.088a2.863,2.863,0,0,1-.764-.266C597.536,3402.313,597.52,3402.3,597.505,3402.293Z" fill="#ffbfa2"/>
        <path id="Trazado_176891" data-name="Trazado 176891" d="M602.515,3402.694c.672-.437.932-1.143.687-1.376-.419-.4-.784-.133-1.738.7l-.064.055c-.234.2-.467.4-.683.624a3.646,3.646,0,0,0-.34.394c-.023.032-.046.065-.068.1a.491.491,0,0,0-.039.115,1.087,1.087,0,0,0-.061.308.447.447,0,0,0,.137.353.441.441,0,0,0,.425.059,3.288,3.288,0,0,0,.948-.7C601.994,3403.061,601.647,3403.259,602.515,3402.694Z" fill="#ffbfa2"/>
        <path id="Trazado_176892" data-name="Trazado 176892" d="M603.021,3401.228c-.188-.22-.547-.091-.761.01a3.282,3.282,0,0,0-.593.375c-.1.075-.181.165-.276.245s-.219.184-.326.28a.485.485,0,0,0-.2.308.6.6,0,0,0,.1.335,1.629,1.629,0,0,0,.275.312c.078.074.157.148.24.217a.546.546,0,0,0,.109.074.411.411,0,0,0,.3.009.922.922,0,0,0,.265-.152,1.7,1.7,0,0,0,.306-.286c.084-.1.17-.2.246-.314a2.748,2.748,0,0,0,.356-.67A.779.779,0,0,0,603.021,3401.228Z" fill="#6e4cb3"/>
        <path id="Trazado_176893" data-name="Trazado 176893" d="M604.046,3415.653a.551.551,0,0,1-.085.155c-.044.077-.1.154-.136.233a2.513,2.513,0,0,0-.109.334l-.215.662a1.361,1.361,0,0,0-.067.268.453.453,0,0,0,.045.269.665.665,0,0,0,.417.258.436.436,0,0,0,.289.016.405.405,0,0,0,.164-.16,3.83,3.83,0,0,0,.413-.949,1.5,1.5,0,0,0,.1-.543.71.71,0,0,0-.076-.3.532.532,0,0,0-.094-.131c-.037-.038-.074-.055-.1-.1a1.03,1.03,0,0,0-.146-.279.249.249,0,0,0-.261-.03.375.375,0,0,0-.188.205c0,.029.042.057.044.086Z" fill="#0f1317"/>
        <path id="Trazado_176894" data-name="Trazado 176894" d="M602.844,3414.62c-.082.059-.155.129-.235.189s-.163.107-.241.169c-.172.136-.351.264-.535.382a4.778,4.778,0,0,0-.413.279,1.189,1.189,0,0,0-.263.285.176.176,0,0,0-.034.166.637.637,0,0,0,.087.173.615.615,0,0,0,.256.254.484.484,0,0,0,.345-.01,1.158,1.158,0,0,0,.458-.316,1.037,1.037,0,0,1,.441-.327,1.865,1.865,0,0,0,.425-.161.488.488,0,0,0,.2-.335c.021-.155-.04-.311-.029-.468a1.023,1.023,0,0,0,.013-.312.246.246,0,0,0-.209-.154.37.37,0,0,0-.262.083Z" fill="#0f1317"/>
        <path id="Trazado_176895" data-name="Trazado 176895" d="M601.836,3408.644c0,.051.006.1.009.151a15.166,15.166,0,0,0,.316,1.953c.061.3.065,1.073.584.939a1.294,1.294,0,0,0,.743-1.061c.024-.3.011-.722.03-1.02.039-.617.655-2.6-.6-2.988-.189-.059-.477-.435-.639-.3a1.676,1.676,0,0,0-.386,1.026A6.466,6.466,0,0,0,601.836,3408.644Z" fill="#bcc5df"/>
        <path id="Trazado_176896" data-name="Trazado 176896" d="M602.07,3410.04c.05.674.18,1.34.293,2.006a9.53,9.53,0,0,1,.128,2.087c-.008.162-.018.324-.026.486a.633.633,0,0,0,.145.54.415.415,0,0,0,.282.082.644.644,0,0,0,.408-.17c.139-.126.107-.271.1-.447a8.926,8.926,0,0,1,.309-1.556,4.851,4.851,0,0,0,.03-.8,3.609,3.609,0,0,0-.341-1.462c-.052-.116-.127-.241-.252-.263Z" fill="#bcc5df"/>
        <path id="Trazado_176897" data-name="Trazado 176897" d="M605.222,3407.846a2.038,2.038,0,0,0-.533-1.277l.015.407a2.825,2.825,0,0,0-.084-.272.353.353,0,0,0-.048-.1c-.068-.092-.151-.038-.3,0-.182.041-.372.03-.556.057-.585.084-.629.208-1.017-.1a4.289,4.289,0,0,0,.026,1.047c-.013.556.417.6.436.894.044.678.127,2.018.218,2.691a2.385,2.385,0,0,0,.294.748c.138.262.276.408.531.379a.694.694,0,0,0,.379-.241,1.21,1.21,0,0,0,.073-.261c.068-.213.125-.43.172-.649l.027-.137v0l0-.016c.115-.582.18-1.179.267-1.766A5.989,5.989,0,0,0,605.222,3407.846Z" fill="#faece2"/>
        <g id="people">
          <g id="Grupo_77266" data-name="Grupo 77266">
            <path id="Trazado_176898" data-name="Trazado 176898" d="M606.095,3399.436a7.3,7.3,0,0,1,.015.959,5.5,5.5,0,0,0,.115,1.039c.064.307.16.608.193.919a1.368,1.368,0,0,1-.172.905.5.5,0,0,1-.169.168.482.482,0,0,1-.311.038,1,1,0,0,1-.713-.624,1.966,1.966,0,0,1-.09-.975c.04-.327.123-.648.165-.976a5.773,5.773,0,0,0-.014-1.168c-.008-.126.009-.206-.084-.3a.708.708,0,0,0-.392-.2,1.829,1.829,0,0,1-.4-.054.414.414,0,0,1-.247-.441.688.688,0,0,1,.193-.331,1.137,1.137,0,0,1,.728-.406.951.951,0,0,1,.759.355,1.84,1.84,0,0,1,.361.781C606.059,3399.224,606.079,3399.329,606.095,3399.436Z" fill="#b09061"/>
            <g id="Grupo_77263" data-name="Grupo 77263">
              <path id="Trazado_176899" data-name="Trazado 176899" d="M604.681,3401.313a2.8,2.8,0,0,0-.66-.257c-.047-.011-.2.048-.25.038a1.728,1.728,0,0,0-1.045.085l-.011.006v2.143h2.055Z" fill="#f3a984"/>
              <path id="Trazado_176900" data-name="Trazado 176900" d="M605.683,3402.325a.32.32,0,0,0-.013-.134c-.134-.438-.628-.66-.989-.878a1.028,1.028,0,0,1-.647.914.532.532,0,0,1-.622-.187l-.005-.006a1.142,1.142,0,0,1-.171-.749c0-.068.01-.136.016-.2s-.028-.063-.1-.061a1.534,1.534,0,0,0-.433.091.59.59,0,0,0-.163.071c-.166.118-.118.224-.431.853a7.1,7.1,0,0,0-.307.645,1.976,1.976,0,0,0-.153.726,18.649,18.649,0,0,1,.336,2.043,9.493,9.493,0,0,0-.155,1.407.9.9,0,0,0,.029.124,1,1,0,0,0,.369.486,2.316,2.316,0,0,0,.551.281,8.915,8.915,0,0,0,1.206.363c.36.083.924.136,1.192-.189a.645.645,0,0,0,.132-.406,1.642,1.642,0,0,0-.069-.428c-.1-.4-.277-.766-.382-1.159a2.821,2.821,0,0,1-.1-1.448,3.942,3.942,0,0,1,.227-.593l.4-.89.2-.435A.857.857,0,0,0,605.683,3402.325Z" fill="#8763cd"/>
              <path id="Trazado_176901" data-name="Trazado 176901" d="M605.593,3402.018c-.478.49-.79,1.1-1.312,1.595a2.309,2.309,0,0,1-1.393.616.094.094,0,0,0-.065.129,9.789,9.789,0,0,1,.954,3.7l.225.055c.36.083.924.136,1.192-.189a.645.645,0,0,0,.132-.406,1.642,1.642,0,0,0-.069-.428c-.1-.4-.277-.766-.382-1.159a2.821,2.821,0,0,1-.1-1.448,3.942,3.942,0,0,1,.227-.593l.4-.89.2-.435a.857.857,0,0,0,.089-.236.32.32,0,0,0-.013-.134A.817.817,0,0,0,605.593,3402.018Z" fill="#6e4cb3"/>
            </g>
            <g id="Grupo_77264" data-name="Grupo 77264">
              <path id="Trazado_176902" data-name="Trazado 176902" d="M604.573,3401.405c.022.758-1.3.771-1.281.058.027-.992.083-1.106.518-1.26a1.18,1.18,0,0,1,.37-.077c.459-.009.281.241.264.416C604.393,3401.061,604.565,3401.133,604.573,3401.405Z" fill="#f3a984"/>
              <path id="Trazado_176903" data-name="Trazado 176903" d="M604.445,3400.881c.03.234.122.327.128.524.021.7-1.114.764-1.264.2A1.922,1.922,0,0,0,604.445,3400.881Z" fill="#f3a984"/>
              <path id="Trazado_176904" data-name="Trazado 176904" d="M603.81,3400.2a1.18,1.18,0,0,1,.37-.077c.459-.009.281.241.264.416a1.448,1.448,0,0,0,0,.339,1.922,1.922,0,0,1-1.136.726.508.508,0,0,1-.017-.144C603.319,3400.471,603.375,3400.357,603.81,3400.2Z" fill="#ee9c76"/>
              <path id="Trazado_176905" data-name="Trazado 176905" d="M604.021,3400.909c.038-.032.076-.065.112-.1a1.994,1.994,0,0,0,.358-.4,1.281,1.281,0,0,0-.106-1.535,1.165,1.165,0,0,0-1.131-.305,1.651,1.651,0,0,0-.308.127.841.841,0,0,0-.235.163.825.825,0,0,0-.1.156.839.839,0,0,0-.082.2c-.077.309.129.626.011.931-.025.066-.064.128-.088.2a.244.244,0,0,0,.007.205c.036.058.082.087.1.15.028.086.047.178.072.266a1.216,1.216,0,0,0,.1.279c.118.212.29.225.5.142A2.871,2.871,0,0,0,604.021,3400.909Z" fill="#ffbfa2"/>
              <path id="Trazado_176906" data-name="Trazado 176906" d="M604.972,3399.456a.936.936,0,0,0-.428-.9,1.2,1.2,0,0,0-.808-.261,1.682,1.682,0,0,0-.831.265l-.03.019a.816.816,0,0,0-.311.32.882.882,0,0,0-.078.236c-.025.153.108.218.243.26a1.7,1.7,0,0,0,.622-.041.732.732,0,0,1,.259,0,.243.243,0,0,1,.184.167.638.638,0,0,1-.047.265.456.456,0,0,0,.2.464.215.215,0,0,0,.243.019c.084-.038.17-.1.263-.046s.053.165.033.245c0,.015-.037.13.01.13A1.36,1.36,0,0,0,604.972,3399.456Z" fill="#d6af75"/>
              <path id="Trazado_176907" data-name="Trazado 176907" d="M603.794,3399.529a.638.638,0,0,1-.047.265.456.456,0,0,0,.2.464.215.215,0,0,0,.243.019c.084-.038.17-.1.263-.046s.053.165.033.245c0,.015-.037.13.01.13a1.36,1.36,0,0,0,.48-1.15,1.094,1.094,0,0,0-.177-.662,2.694,2.694,0,0,0-.52.28A3.333,3.333,0,0,0,603.794,3399.529Z" fill="#b09061"/>
            </g>
            <path id="Trazado_176908" data-name="Trazado 176908" d="M605.553,3403.742c.48-.753.4-1.538.064-1.711-.316-.164-.808.259-1.392,1.543a6.971,6.971,0,0,0-.777,1.788.444.444,0,0,0,.432.535C604.359,3405.806,604.61,3405.222,605.553,3403.742Z" fill="#ffbfa2"/>
            <path id="Trazado_176909" data-name="Trazado 176909" d="M603.057,3405.874c.623.2,1.165-.005,1.225-.274s-.335-.525-1.354-.7c-.248-.042-1.164-.144-1.667-.267-.285-.069-.314.356-.268.453s.169.125.333.2C601.663,3405.431,602.231,3405.61,603.057,3405.874Z" fill="#ffbfa2"/>
            <g id="Grupo_77265" data-name="Grupo 77265">
              <path id="Trazado_176910" data-name="Trazado 176910" d="M601.261,3404.634c-.033-.013-.064-.03-.1-.041a2.213,2.213,0,0,0-.56-.1.874.874,0,0,0-.511.074c-.091.063-.187.119-.281.176a1.137,1.137,0,0,0-.269.218.27.27,0,0,0-.085.223.024.024,0,0,0,.008.016l.014,0a.137.137,0,0,0,.088-.043c.036-.029.062-.066.1-.094a.45.45,0,0,1,.128-.067c.037-.012.1-.019.124.017s.013.063.007.1a.4.4,0,0,0,0,.137c0,.034.017.074.05.084s.061-.007.08.013,0,.07.035.1c.015.008.034,0,.048.015s.019.041.03.058a.213.213,0,0,0,.071.059.048.048,0,0,0,.03.011.046.046,0,0,0,.025-.011c.073-.052.116-.124.182-.181a.313.313,0,0,1,.185-.064c.067,0,.134,0,.2.007a.963.963,0,0,0,.241-.022c.068-.015.156-.069.223-.032Z" fill="#ffbfa2"/>
            </g>
            <path id="Trazado_176911" data-name="Trazado 176911" d="M605.579,3401.916c-.257-.133-.541.123-.7.3a3.436,3.436,0,0,0-.408.571c-.062.106-.1.221-.163.331-.067.126-.133.253-.2.382a.478.478,0,0,0-.07.362.6.6,0,0,0,.217.273,1.625,1.625,0,0,0,.372.185c.1.039.2.078.3.11a.586.586,0,0,0,.129.028.4.4,0,0,0,.28-.106.918.918,0,0,0,.188-.24,1.662,1.662,0,0,0,.175-.381c.038-.127.08-.252.11-.383a2.778,2.778,0,0,0,.076-.755A.779.779,0,0,0,605.579,3401.916Z" fill="#6e4cb3"/>
          </g>
        </g>
        <path id="Trazado_176912" data-name="Trazado 176912" d="M603.384,3410.97a18.611,18.611,0,0,0,.436,1.829,9.473,9.473,0,0,1,.128,2.088c-.007.148-.011.3-.023.445a1,1,0,0,0,.005.392.411.411,0,0,0,.283.217.712.712,0,0,0,.27.034.428.428,0,0,0,.236-.1.39.39,0,0,0,.094-.225c.034-.164.02-.326.04-.49a3.7,3.7,0,0,1,.087-.417c.075-.309.182-.611.228-.926a4.823,4.823,0,0,0-.371-2.524c-.052-.115-.067.022-.191,0Z" fill="#faece2"/>
        <path id="Trazado_176913" data-name="Trazado 176913" d="M604.4,3400c.206-.013.258.242.117.439a1.028,1.028,0,0,1-.168.154c-.368.313-.461-.026-.344-.132C604.275,3400.218,604.14,3400.023,604.4,3400Z" fill="#ffbfa2"/>
        <path id="Trazado_176914" data-name="Trazado 176914" d="M604.267,3400.473c.023-.022.258-.16.1-.254a.07.07,0,0,0-.1.059c0,.024,0,.049,0,.074a.124.124,0,0,1-.015.04c-.021.034-.092.066-.078.116S604.253,3400.485,604.267,3400.473Z" fill="#f3a984"/>
      </g>
      <g id="man-4" data-name="man">
        <ellipse id="Elipse_5058" data-name="Elipse 5058" cx="4.761" cy="2.749" rx="4.761" ry="2.749" transform="translate(594.156 3418.632)" fill="#bcc5df" opacity="0.5" style="mix-blend-mode: multiply;isolation: isolate"/>
        <path id="Trazado_176915" data-name="Trazado 176915" d="M593.123,3406.068a.1.1,0,0,1,.092-.017.275.275,0,0,1,.085.044,7.458,7.458,0,0,1,.76.595l-.018-.008c.033.028.064.057.094.087l.016.018a.488.488,0,0,1,.257.088.382.382,0,0,1,.1.151,2.676,2.676,0,0,1,.117.482.185.185,0,0,1-.086.123s-.009,0-.013-.007v.009a.7.7,0,0,0-.143.215c-.027.065-.1.062-.165.093-.307-.288-.663-.413-.908-.748a.23.23,0,0,1-.056-.14.1.1,0,0,1,.106-.09.121.121,0,0,1,.007-.145.145.145,0,0,1,.148-.044.106.106,0,0,1,.041-.124.149.149,0,0,1,.064-.026,3.951,3.951,0,0,1-.41-.342c-.046-.045-.12-.1-.114-.161A.078.078,0,0,1,593.123,3406.068Z" fill="#ffbfa2"/>
        <g id="man-5" data-name="man">
          <g id="Grupo_77269" data-name="Grupo 77269">
            <g id="Grupo_77268" data-name="Grupo 77268">
              <g id="Grupo_77267" data-name="Grupo 77267">
                <path id="Trazado_176916" data-name="Trazado 176916" d="M600.181,3421.239c-.016-.053-.05-.081-.146-.089-.113-.01-.227-.015-.34-.022l-.461-.029c.008-.125.011-.251.025-.374a.64.64,0,0,1-.41-.071c-.184-.068-.371-.13-.56-.184a.514.514,0,0,0-.247-.029c-.207.042-.321.384-.293.563a.519.519,0,0,0,.207.314,1.245,1.245,0,0,0,.554.245,1.151,1.151,0,0,1,.556.223,1.163,1.163,0,0,0,.647.363.462.462,0,0,0,.529-.444,1.577,1.577,0,0,0-.033-.313A1.363,1.363,0,0,0,600.181,3421.239Z" fill="#bcc5df"/>
                <path id="Trazado_176917" data-name="Trazado 176917" d="M599.32,3421.589c0-.022,0-.044,0-.067a1.45,1.45,0,0,0-.157-.637.5.5,0,0,0-.132-.216.355.355,0,0,0-.49.154c-.045.078-.069.166-.109.247a.571.571,0,0,1-.415.344c-.248.011-.527-.074-.779-.089a.665.665,0,0,0-.291.027.5.5,0,0,0,.071.887,1.248,1.248,0,0,0,.6.116,1.147,1.147,0,0,1,.591.095c.324.153.7.372,1.029.074a.48.48,0,0,0,.14-.317A6.14,6.14,0,0,0,599.32,3421.589Z" fill="#d4dbef"/>
              </g>
            </g>
          </g>
        </g>
        <path id="Trazado_176918" data-name="Trazado 176918" d="M600,3412.058c-.156.158-.745-.132-.753-.21-.7-.543-.618,1.627-.416,2.489.107.464.079.948.144,1.42a10.585,10.585,0,0,0,.331,1.556.728.728,0,0,0,.147.308.743.743,0,0,0,.671.117.694.694,0,0,0,.528-.269.737.737,0,0,0,.059-.37,4.954,4.954,0,0,1,.062-1q.106-.523.212-1.046c.062-.306.124-.612.155-.921a6.715,6.715,0,0,0-.078-1.681c-.046-.291.051-.836-.362-.9C600.328,3411.5,600.106,3411.953,600,3412.058Z" fill="#6e4cb3"/>
        <path id="Trazado_176919" data-name="Trazado 176919" d="M600.167,3411.842a.6.6,0,0,1,.535-.29c.413.059.316.6.362.9a6.715,6.715,0,0,1,.078,1.681c-.031.309-.093.615-.155.921q-.106.523-.212,1.046a4.954,4.954,0,0,0-.062,1,.737.737,0,0,1-.059.37.694.694,0,0,1-.528.269,1.637,1.637,0,0,1-.253.025,7.793,7.793,0,0,1,.733-3.449A2.383,2.383,0,0,0,600.167,3411.842Z" fill="#6e4cb3"/>
        <path id="Trazado_176920" data-name="Trazado 176920" d="M599.249,3411.848c.008.078.6.368.753.21.039-.038.093-.125.165-.216a2.383,2.383,0,0,1,.439,2.472,7.793,7.793,0,0,0-.733,3.449.545.545,0,0,1-.418-.142.728.728,0,0,1-.147-.308,10.585,10.585,0,0,1-.331-1.556c-.065-.472-.037-.956-.144-1.42C598.631,3413.475,598.548,3411.3,599.249,3411.848Z" fill="#5e3e9e"/>
        <path id="Trazado_176921" data-name="Trazado 176921" d="M599.219,3416.818l-.116-.487C599.149,3416.492,599.188,3416.654,599.219,3416.818Z" fill="#6e4cb3"/>
        <path id="Trazado_176922" data-name="Trazado 176922" d="M599.392,3417.13a.5.5,0,0,1,.516-.114,2.71,2.71,0,0,0,.815-.417.715.715,0,0,0,.011.168c0,.057.007.115.01.173.006.114.012.228.016.342.008.224.012.447.01.671a11.951,11.951,0,0,1-.078,1.309,10.544,10.544,0,0,1-.241,1.317c-.041.165-.087.33-.135.494a.58.58,0,0,1-.213.353.513.513,0,0,1-.207.062.8.8,0,0,1-.213,0,.334.334,0,0,1-.206-.1.674.674,0,0,1-.12-.239,1.713,1.713,0,0,1-.048-.463c-.006-.73.045-1.46.046-2.19a8.762,8.762,0,0,0-.136-1.682Z" fill="#6e4cb3"/>
        <path id="Trazado_176923" data-name="Trazado 176923" d="M599.219,3416.818l.173.311a.351.351,0,0,1,.11-.11.572.572,0,0,1,.4-.005c-.155,1.488-.037,3-.094,4.482a.66.66,0,0,1-.126,0,.334.334,0,0,1-.206-.1.674.674,0,0,1-.12-.239,1.713,1.713,0,0,1-.048-.463c-.006-.73.045-1.46.046-2.19A8.762,8.762,0,0,0,599.219,3416.818Z" fill="#5e3e9e"/>
        <path id="Trazado_176924" data-name="Trazado 176924" d="M598.92,3412.21c-.067-.034-.411-.207-.409-.3,0-.063-.167-.115-.211-.114a.42.42,0,0,0-.222.1,1.036,1.036,0,0,0-.345.469,2.662,2.662,0,0,0-.137.806,15.19,15.19,0,0,0,.063,2.45c.043.41.1.819.181,1.224.038.2.081.4.127.6a.449.449,0,0,0,.247.355.941.941,0,0,0,1.221-.2c.267-.422.156-1.081.242-1.556a14.508,14.508,0,0,1,.795-1.855,2.926,2.926,0,0,0,.053-1.428c-.039-.232-.11-.787-.347-.923a.809.809,0,0,0-.833.209C599.144,3412.244,599.168,3412.338,598.92,3412.21Z" fill="#8763cd"/>
        <g id="Grupo_77275" data-name="Grupo 77275">
          <g id="Grupo_77274" data-name="Grupo 77274">
            <g id="Grupo_77273" data-name="Grupo 77273">
              <g id="Grupo_77272" data-name="Grupo 77272">
                <g id="Grupo_77271" data-name="Grupo 77271">
                  <g id="Grupo_77270" data-name="Grupo 77270">
                    <path id="Trazado_176925" data-name="Trazado 176925" d="M601.284,3410.3c.015-.121.033-.243.054-.364.1-.579.275-1.145.348-1.73a1.591,1.591,0,0,0-.263-1.371.941.941,0,0,0-.2-.145c-.7-.395-1.369.086-2.025.322a6.19,6.19,0,0,0-1.23.606,1.1,1.1,0,0,0-.363.278.906.906,0,0,0-.157.466,2.647,2.647,0,0,0,.057.581,11.879,11.879,0,0,1,.137,3.387c-.058.484-.115,1.809-.115,1.809a2.152,2.152,0,0,0,1.046.15,5.155,5.155,0,0,0,2.6-.463c.093-.085.06-.281.064-.4.01-.351,0-.7-.005-1.054A13.925,13.925,0,0,1,601.284,3410.3Z" fill="#15d9fd"/>
                  </g>
                </g>
              </g>
            </g>
          </g>
        </g>
        <g id="Grupo_77280" data-name="Grupo 77280">
          <g id="Grupo_77279" data-name="Grupo 77279">
            <g id="Grupo_77278" data-name="Grupo 77278">
              <g id="Grupo_77277" data-name="Grupo 77277">
                <g id="Grupo_77276" data-name="Grupo 77276">
                  <path id="Trazado_176926" data-name="Trazado 176926" d="M597.451,3408.364a.906.906,0,0,1,.157-.466,1.1,1.1,0,0,1,.363-.278c.081-.052.163-.1.247-.149.511.429,1.213.945.855,1.572a10.847,10.847,0,0,0-1.2,5.2,1.133,1.133,0,0,1-.343-.1s.057-1.325.115-1.809a11.879,11.879,0,0,0-.137-3.387A2.647,2.647,0,0,1,597.451,3408.364Z" fill="#13b7fd"/>
                </g>
              </g>
            </g>
          </g>
        </g>
        <g id="Grupo_77285" data-name="Grupo 77285">
          <g id="Grupo_77284" data-name="Grupo 77284">
            <g id="Grupo_77283" data-name="Grupo 77283">
              <g id="Grupo_77282" data-name="Grupo 77282">
                <g id="Grupo_77281" data-name="Grupo 77281">
                  <path id="Trazado_176927" data-name="Trazado 176927" d="M598.864,3407.15c.119-.051.246-.1.337-.136a5.262,5.262,0,0,1,1.392-.471.643.643,0,0,1-.293.924,1.384,1.384,0,0,1-1.383-.1C598.837,3407.314,598.777,3407.217,598.864,3407.15Z" fill="#13b7fd"/>
                </g>
              </g>
            </g>
          </g>
        </g>
        <path id="Trazado_176928" data-name="Trazado 176928" d="M597.991,3417.769q.046.531.083,1.062c.02.28.038.561.052.841.012.216.021.433.029.649.041,1.183-.084,1.45.474,1.6a.767.767,0,0,0,.383.014c.364-.09.427-.41.471-.806.026-.222.037-.49.044-.715.006-.191.01-.381.014-.571,0-.258.007-.515.01-.772q0-.51.008-1.019c0-.435.04-.878.043-1.312a.2.2,0,0,0-.09-.162,5.643,5.643,0,0,0-1.506.584A1.81,1.81,0,0,0,597.991,3417.769Z" fill="#8763cd"/>
        <path id="Trazado_176929" data-name="Trazado 176929" d="M597.737,3407.753a.809.809,0,0,1,.777-.168.722.722,0,0,1,.265.233,1.294,1.294,0,0,1,.3.856.6.6,0,0,1-.035.179c-.083.21-.281.273-.464.363-.22.109-.434.23-.646.352a10.807,10.807,0,0,1-1.3.687,1.088,1.088,0,0,1-.835.077.613.613,0,0,1-.348-.438.5.5,0,0,1,.3-.6C597.242,3408.172,597.771,3407.73,597.737,3407.753Z" fill="#15d9fd"/>
        <path id="Trazado_176930" data-name="Trazado 176930" d="M594.263,3407.45c-.087.046-.239.163-.241.278,0,.095.107.23.148.31.13.251.266.5.4.744.062.112.124.224.189.333a5.715,5.715,0,0,0,.659.9,1.181,1.181,0,0,0,.391.33.421.421,0,0,0,.387-.126.745.745,0,0,0,.306-.7,1.455,1.455,0,0,0-.388-.656,13.725,13.725,0,0,0-1.216-1.278.856.856,0,0,0-.253-.18A.479.479,0,0,0,594.263,3407.45Z" fill="#15d9fd"/>
        <path id="Trazado_176931" data-name="Trazado 176931" d="M599.026,3406.444c-.026-.173-.157-.133-.09-.29a.849.849,0,0,1,.256-.345.616.616,0,0,1,.4-.133c.05,0,.083.031.132.032a2.805,2.805,0,0,1,.41-.006c.136.019.261.029.261.182a1.882,1.882,0,0,0,.056.6,1.427,1.427,0,0,1,.1.323.57.57,0,0,1-.342.523,1.352,1.352,0,0,1-.783.07c-.131-.019-.316-.046-.392-.17a.5.5,0,0,1-.021-.32A1.736,1.736,0,0,0,599.026,3406.444Z" fill="#ffbfa2"/>
        <g id="Grupo_77293" data-name="Grupo 77293">
          <g id="Grupo_77290" data-name="Grupo 77290">
            <g id="Grupo_77289" data-name="Grupo 77289" style="isolation: isolate">
              <g id="Grupo_77288" data-name="Grupo 77288" style="isolation: isolate">
                <g id="Grupo_77287" data-name="Grupo 77287" clip-path="url(#clip-path-4)">
                  <g id="Grupo_77286" data-name="Grupo 77286" style="isolation: isolate">
                    <path id="Trazado_176932" data-name="Trazado 176932" d="M599.731,3404.183l-.568-.33a.157.157,0,0,1,.157-.015l.568.33a.157.157,0,0,0-.157.015Z" fill="#7f89a6"/>
                  </g>
                </g>
              </g>
            </g>
          </g>
          <g id="Grupo_77292" data-name="Grupo 77292">
            <g id="Grupo_77291" data-name="Grupo 77291">
              <path id="Trazado_176934" data-name="Trazado 176934" d="M598.44,3404.228a.7.7,0,0,0-.166.345c-.044.295.074.6.01.89a.979.979,0,0,0,.619,1.092,1.982,1.982,0,0,0,1.02-.1,1.432,1.432,0,0,0,.542-.575C601.633,3404.027,599.232,3403.264,598.44,3404.228Z" fill="#ffbfa2"/>
            </g>
          </g>
          <path id="Trazado_176935" data-name="Trazado 176935" d="M601,3405.049c-.007.055-.015.11-.025.165a1.032,1.032,0,0,1-.031.121.8.8,0,0,1-.039.1,2.089,2.089,0,0,1-.213.35,1.114,1.114,0,0,1-.4.4,1.081,1.081,0,0,1-.233.072.786.786,0,0,1-.716-.124.543.543,0,0,1-.12-.3,2.125,2.125,0,0,0-.046-.3c-.007-.026-.014-.052-.022-.078a.6.6,0,0,0-.049-.12.277.277,0,0,0-.156-.136c-.115-.035-.254.03-.354-.036a.326.326,0,0,1-.1-.153c-.023-.057-.044-.12-.067-.183a.849.849,0,0,0-.118-.228.9.9,0,0,1-.08-.1.368.368,0,0,1-.067-.16,1.048,1.048,0,0,1,.4-.713,1.217,1.217,0,0,1,.339-.231,1.385,1.385,0,0,1,.349-.088,1.652,1.652,0,0,1,1.042.131.457.457,0,0,1,.2.192.2.2,0,0,0,.029.055.185.185,0,0,0,.071.045.7.7,0,0,1,.211.147A1.439,1.439,0,0,1,601,3405.049Z" fill="#b09061"/>
          <path id="Trazado_176936" data-name="Trazado 176936" d="M599.079,3405.062c.224-.019.285.258.135.476a1.126,1.126,0,0,1-.18.171c-.4.349-.5-.019-.377-.138C598.948,3405.3,598.8,3405.086,599.079,3405.062Z" fill="#ffbfa2"/>
          <path id="Trazado_176937" data-name="Trazado 176937" d="M599.018,3405.486c.026-.024.279-.179.1-.279a.077.077,0,0,0-.108.067c0,.026.005.053,0,.08a.137.137,0,0,1-.017.044c-.022.037-.1.074-.083.128S599,3405.5,599.018,3405.486Z" fill="#f3a984"/>
        </g>
      </g>
      <g id="Grupo_77322" data-name="Grupo 77322">
        <path id="Trazado_176938" data-name="Trazado 176938" d="M566.289,3430.237c-2.042,1.179-2.042,3.091,0,4.27a8.173,8.173,0,0,0,7.4,0c2.042-1.179,2.042-3.091,0-4.27A8.173,8.173,0,0,0,566.289,3430.237Z" fill="#bcc5df" opacity="0.5" style="mix-blend-mode: multiply;isolation: isolate"/>
        <g id="Grupo_77298" data-name="Grupo 77298">
          <g id="Grupo_77297" data-name="Grupo 77297" style="isolation: isolate">
            <g id="Grupo_77294" data-name="Grupo 77294">
              <path id="Trazado_176939" data-name="Trazado 176939" d="M574.693,3426.29l.808-.469.023-8.1-.808.469Z" fill="#bcc5df"/>
            </g>
            <g id="Grupo_77295" data-name="Grupo 77295">
              <path id="Trazado_176940" data-name="Trazado 176940" d="M574.716,3418.19l.808-.469-7.41-4.276-.808.469Z" fill="#fff"/>
            </g>
            <g id="Grupo_77296" data-name="Grupo 77296">
              <path id="Trazado_176941" data-name="Trazado 176941" d="M567.306,3413.914l-.023,8.1,7.41,4.276.023-8.1Z" fill="#eef1f8"/>
            </g>
          </g>
        </g>
        <g id="man-6" data-name="man">
          <g id="Grupo_77321" data-name="Grupo 77321">
            <path id="Trazado_176942" data-name="Trazado 176942" d="M568.843,3432.715c0-.025,0-.049,0-.074a1.573,1.573,0,0,1,.172-.7.535.535,0,0,1,.144-.236.387.387,0,0,1,.535.168c.049.086.076.182.12.27a.622.622,0,0,0,.453.376c.272.012.577-.081.852-.1a.733.733,0,0,1,.317.03.543.543,0,0,1-.077.97,1.368,1.368,0,0,1-.651.127,1.261,1.261,0,0,0-.647.1c-.354.167-.766.408-1.124.082a.529.529,0,0,1-.153-.347A6.629,6.629,0,0,1,568.843,3432.715Z" fill="#404b63"/>
            <g id="man-7" data-name="man">
              <g id="Grupo_77301" data-name="Grupo 77301">
                <g id="Grupo_77300" data-name="Grupo 77300">
                  <g id="Grupo_77299" data-name="Grupo 77299">
                    <path id="Trazado_176943" data-name="Trazado 176943" d="M566.9,3432.2c.028-.087.09-.063.157-.082a.625.625,0,0,0,.227-.141c.084-.074.155-.159.232-.239a2.381,2.381,0,0,1,.7-.5.771.771,0,0,1,.251-.078.928.928,0,0,1,.478.132c.146.071.146.165.153.31a.652.652,0,0,1-.016.207.838.838,0,0,1-.225.349,1.42,1.42,0,0,1-.373.3,3.535,3.535,0,0,0-.358.166.786.786,0,0,0-.188.185.642.642,0,0,1-.134.166.907.907,0,0,1-.419.157.475.475,0,0,1-.545-.458,1.593,1.593,0,0,1,.033-.323C566.881,3432.288,566.885,3432.236,566.9,3432.2Z" fill="#404b63"/>
                  </g>
                </g>
              </g>
            </g>
            <path id="Trazado_176944" data-name="Trazado 176944" d="M569.05,3424.76a.417.417,0,0,0-.273-.118c-.44-.078-.869-.252-1.3-.357a2.742,2.742,0,0,0-.586-.084l-.428-.386a4.418,4.418,0,0,0-.042,1.125c.093.814.306,2.693.362,3.588.042.684.038,1.369.043,2.053a6.459,6.459,0,0,1-.015.881,1.606,1.606,0,0,0,.088.869.68.68,0,0,0,.515.35.731.731,0,0,0,.59-.208c.1-.1.093-.286.108-.415s.02-.234.024-.351c.013-.339.013-.678.024-1.016q.018-.537.056-1.071.024-.353.055-.7c.011-.129.023-.258.035-.387a1.413,1.413,0,0,1,.043-.42,4.115,4.115,0,0,0,.449-1.1c.047-.346.046-.695.081-1.041.033-.316.148-.609.2-.921A.378.378,0,0,0,569.05,3424.76Z" fill="#a6afcd"/>
            <path id="Trazado_176945" data-name="Trazado 176945" d="M569.917,3429.093l0,.045c-.012.708.038,1.414.055,2.121.011.471.106,1.735-.319,1.9-.211.08-.636.139-.752-.064-.436-.759-.566-3.406-.6-4.153-.007-.189.013-.12,0-.308a1.7,1.7,0,0,1-.027-.511c.081-.279.451-.121.632-.059a2.821,2.821,0,0,1,.818.31C569.952,3428.545,569.925,3428.835,569.917,3429.093Z" fill="#d4dbef"/>
            <path id="Trazado_176946" data-name="Trazado 176946" d="M569.97,3424.193c-.238-.215-.972.049-1.248.065-.254.015-.509.018-.764.015a1.814,1.814,0,0,1-.368-.006c-.1-.023-.17-.1-.269-.121-.078-.019-.3-.181-.359-.129-.095.078.036.392.062.512.233,1.064.936,1.96,1.144,3.025.088.448.07.909.116,1.363a.58.58,0,0,0,.035.165.512.512,0,0,0,.2.208,1.767,1.767,0,0,0,.665.264,1.724,1.724,0,0,0,.385.026c.1,0,.221-.05.31,0,.056-.379.015-.771.095-1.145a7.063,7.063,0,0,0,.078-1.219c.03-.884.046-1.77.022-2.654a.642.642,0,0,0-.065-.32A.222.222,0,0,0,569.97,3424.193Z" fill="#d4dbef"/>
            <g id="Grupo_77320" data-name="Grupo 77320">
              <g id="Grupo_77319" data-name="Grupo 77319">
                <path id="Trazado_176947" data-name="Trazado 176947" d="M565.773,3418.178a1.061,1.061,0,0,1,.649-.709c-.028.013.333-.117,1.243-.488v1.766c-.128.076-.255.154-.379.235a1.078,1.078,0,0,1-.757.237.816.816,0,0,1-.6-.367,1.112,1.112,0,0,1-.12-.289A.871.871,0,0,1,565.773,3418.178Z" fill="#fff"/>
                <path id="Trazado_176948" data-name="Trazado 176948" d="M570.386,3419.725c.008.1-.009.3-.108.365-.081.054-.259.034-.351.043-.29.027-.58.045-.87.064-.132.008-.264.017-.4.021a5.907,5.907,0,0,1-1.145-.075,1.2,1.2,0,0,1-.5-.156.433.433,0,0,1-.107-.406.772.772,0,0,1,.434-.653,1.512,1.512,0,0,1,.786-.028,14.163,14.163,0,0,1,1.788.347.865.865,0,0,1,.3.12A.494.494,0,0,1,570.386,3419.725Z" fill="#fff"/>
                <path id="Trazado_176949" data-name="Trazado 176949" d="M575.443,3420.689a.067.067,0,0,1-.02.021c-.042.025-.094-.019-.1-.063a.233.233,0,0,1,.017-.1.99.99,0,0,0,.037-.215.047.047,0,0,0-.006-.031.052.052,0,0,0-.02-.012l-.032-.013a.057.057,0,0,0-.026-.007.081.081,0,0,0-.045.021.46.46,0,0,1-.189.053.784.784,0,0,0-.169.072,2.7,2.7,0,0,0-.414.226,1.261,1.261,0,0,0-.316.28,1.83,1.83,0,0,0-.188.3.362.362,0,0,0-.053.255c.032.091.142.1.224.089a2.154,2.154,0,0,0,.352-.113c.056-.015.1-.046.155-.06a.521.521,0,0,1,.2.009,1.323,1.323,0,0,0,.444-.014.524.524,0,0,0,.36-.168,1.1,1.1,0,0,0,.2-.421.448.448,0,0,0-.009-.264.213.213,0,0,0-.209-.138.119.119,0,0,0-.069.03.172.172,0,0,0-.039.062A1.365,1.365,0,0,1,575.443,3420.689Z" fill="#ffbfa2"/>
                <g id="Grupo_77306" data-name="Grupo 77306">
                  <g id="Grupo_77305" data-name="Grupo 77305">
                    <g id="Grupo_77304" data-name="Grupo 77304">
                      <g id="Grupo_77303" data-name="Grupo 77303">
                        <g id="Grupo_77302" data-name="Grupo 77302">
                          <path id="Trazado_176950" data-name="Trazado 176950" d="M570.284,3419.394v-.028a.9.9,0,0,0-.1-.482,1.107,1.107,0,0,0-.355-.26,6.4,6.4,0,0,0-1.27-.624c-.677-.244-1.368-.741-2.09-.333a1.031,1.031,0,0,0-.2.149,1.648,1.648,0,0,0-.271,1.415c.075.6.254,1.188.359,1.786q.033.188.057.375c.054.435.015.881.074,1.311a4.705,4.705,0,0,1-.115,1.177,1.01,1.01,0,0,0,.071.682.992.992,0,0,0,.651.344,4.834,4.834,0,0,0,2.727.047.593.593,0,0,0,.377-.293.663.663,0,0,0,.019-.32,18.365,18.365,0,0,1-.032-3.654A11.158,11.158,0,0,0,570.284,3419.394Z" fill="#13b7fd"/>
                        </g>
                      </g>
                    </g>
                  </g>
                </g>
                <g id="Grupo_77311" data-name="Grupo 77311">
                  <g id="Grupo_77310" data-name="Grupo 77310">
                    <g id="Grupo_77309" data-name="Grupo 77309">
                      <g id="Grupo_77308" data-name="Grupo 77308">
                        <g id="Grupo_77307" data-name="Grupo 77307">
                          <path id="Trazado_176951" data-name="Trazado 176951" d="M568.758,3420.06a1.073,1.073,0,0,1,.015-.812,1.039,1.039,0,0,1,.646-.551.714.714,0,0,1,.768.187.9.9,0,0,1,.1.482v.028a11.158,11.158,0,0,1-.1,1.292,18.365,18.365,0,0,0,.032,3.654.663.663,0,0,1-.019.32.413.413,0,0,1-.167.191,7.185,7.185,0,0,0-.117-1.456,10.415,10.415,0,0,0-.554-1.919q-.181-.471-.4-.927A4.191,4.191,0,0,1,568.758,3420.06Z" fill="#1499fc"/>
                        </g>
                      </g>
                    </g>
                  </g>
                </g>
                <g id="Grupo_77316" data-name="Grupo 77316">
                  <g id="Grupo_77315" data-name="Grupo 77315">
                    <g id="Grupo_77314" data-name="Grupo 77314">
                      <g id="Grupo_77313" data-name="Grupo 77313">
                        <g id="Grupo_77312" data-name="Grupo 77312">
                          <path id="Trazado_176952" data-name="Trazado 176952" d="M568.909,3418.139c-.122-.052-.253-.106-.347-.139a5.37,5.37,0,0,0-1.437-.486.663.663,0,0,0,.3.952,1.425,1.425,0,0,0,1.427-.1C568.937,3418.308,569,3418.209,568.909,3418.139Z" fill="#1499fc"/>
                        </g>
                      </g>
                    </g>
                  </g>
                </g>
                <path id="Trazado_176953" data-name="Trazado 176953" d="M570.533,3419.1a1.064,1.064,0,0,0-.854-.441.867.867,0,0,0-.362.137,1.129,1.129,0,0,0-.248.192.81.81,0,0,0-.2.673,1.082,1.082,0,0,0,.426.67c.19.167.371.345.55.524a11.2,11.2,0,0,0,1.11,1.033,1.121,1.121,0,0,0,.812.3.632.632,0,0,0,.464-.343.512.512,0,0,0-.14-.682C570.914,3419.655,570.505,3419.073,570.533,3419.1Z" fill="#13b7fd"/>
                <path id="Trazado_176954" data-name="Trazado 176954" d="M574.709,3421.034c.034.095.069.29-.009.379-.065.074-.242.1-.329.133-.273.1-.548.2-.823.289-.125.042-.25.084-.376.123a5.882,5.882,0,0,1-1.125.224,1.182,1.182,0,0,1-.527-.02.432.432,0,0,1-.208-.364.774.774,0,0,1,.249-.744,1.5,1.5,0,0,1,.752-.23,14.006,14.006,0,0,1,1.816-.13.9.9,0,0,1,.318.039A.488.488,0,0,1,574.709,3421.034Z" fill="#13b7fd"/>
                <path id="Trazado_176955" data-name="Trazado 176955" d="M568.743,3417.411c.026-.178.161-.137.093-.3a.866.866,0,0,0-.265-.356.632.632,0,0,0-.417-.137c-.051,0-.086.032-.137.032a2.971,2.971,0,0,0-.422-.006c-.14.02-.27.03-.27.188a1.937,1.937,0,0,1-.057.62,1.481,1.481,0,0,0-.1.333.585.585,0,0,0,.353.54,1.385,1.385,0,0,0,.808.072c.135-.02.325-.046.4-.175a.509.509,0,0,0,.022-.33A1.77,1.77,0,0,1,568.743,3417.411Z" fill="#ffbfa2"/>
                <g id="Grupo_77318" data-name="Grupo 77318">
                  <g id="Grupo_77317" data-name="Grupo 77317">
                    <path id="Trazado_176956" data-name="Trazado 176956" d="M569.343,3415.122a.731.731,0,0,1,.171.356c.046.3-.076.616-.011.918a1.008,1.008,0,0,1-.637,1.125,2.052,2.052,0,0,1-1.051-.1,1.486,1.486,0,0,1-.559-.593C566.053,3414.915,568.527,3414.13,569.343,3415.122Z" fill="#ffbfa2"/>
                  </g>
                  <path id="Trazado_176957" data-name="Trazado 176957" d="M566.9,3414.747a.736.736,0,0,1,.218-.152.205.205,0,0,0,.073-.046.247.247,0,0,0,.03-.058.469.469,0,0,1,.208-.2,1.714,1.714,0,0,1,1.073-.135,1.431,1.431,0,0,1,.36.091,1.256,1.256,0,0,1,.349.238,1.4,1.4,0,0,1,.363.482,2.281,2.281,0,0,1,.068.268.213.213,0,0,1-.072.224c-.028.021-.062.035-.091.055-.122.082-.145.272-.2.4-.033.081-.1.126-.118.213s-.018.186-.047.275c-.013.042-.041.088-.086.09a.079.079,0,0,1-.051-.015.249.249,0,0,1-.1-.149.646.646,0,0,0-.06-.171.039.039,0,0,0-.018-.018.033.033,0,0,0-.022,0,.2.2,0,0,0-.132.11.856.856,0,0,0-.074.2,2.246,2.246,0,0,0-.047.313.558.558,0,0,1-.123.314.814.814,0,0,1-.738.127,1.1,1.1,0,0,1-.241-.074,1.164,1.164,0,0,1-.407-.409,1.778,1.778,0,0,1-.259-.464,1.829,1.829,0,0,1-.058-.295A1.479,1.479,0,0,1,566.9,3414.747Z" fill="#b98c74"/>
                  <path id="Trazado_176958" data-name="Trazado 176958" d="M568.692,3415.96c-.226-.049-.326.226-.2.468a1.09,1.09,0,0,0,.161.2c.358.409.517.048.4-.09C568.794,3416.216,568.976,3416.022,568.692,3415.96Z" fill="#ffbfa2"/>
                  <path id="Trazado_176959" data-name="Trazado 176959" d="M568.7,3416.4c-.023-.028-.26-.22-.068-.3a.079.079,0,0,1,.1.082c0,.028-.013.054-.013.082a.153.153,0,0,0,.011.047c.018.041.091.089.068.142S568.71,3416.417,568.7,3416.4Z" fill="#f3a984"/>
                </g>
              </g>
            </g>
          </g>
        </g>
      </g>
      <g id="Grupo_77332" data-name="Grupo 77332">
        <g id="Grupo_77326" data-name="Grupo 77326">
          <g id="Grupo_77323" data-name="Grupo 77323">
            <path id="Trazado_176960" data-name="Trazado 176960" d="M545.965,3401.783l-.86-.5-.029-10.777.86.5Z" fill="#bcc5df"/>
          </g>
          <g id="Grupo_77324" data-name="Grupo 77324">
            <path id="Trazado_176961" data-name="Trazado 176961" d="M545.936,3391.007l-.86-.5,27.563-15.915.861.5Z" fill="#fff"/>
          </g>
          <g id="Grupo_77325" data-name="Grupo 77325">
            <path id="Trazado_176962" data-name="Trazado 176962" d="M573.5,3375.092l.029,10.777-27.563,15.915-.029-10.777Z" fill="#eef1f8"/>
          </g>
        </g>
        <g id="Grupo_77331" data-name="Grupo 77331">
          <g id="Grupo_77327" data-name="Grupo 77327">
            <path id="Trazado_176963" data-name="Trazado 176963" d="M573.209,3376.3l-26.7,15.413v1.571l26.7-15.413Z" fill="#bcc5df"/>
          </g>
          <g id="Grupo_77328" data-name="Grupo 77328">
            <path id="Trazado_176964" data-name="Trazado 176964" d="M573.209,3378.808l-26.7,15.413v1.571l26.7-15.413Z" fill="#bcc5df"/>
          </g>
          <g id="Grupo_77329" data-name="Grupo 77329">
            <path id="Trazado_176965" data-name="Trazado 176965" d="M573.209,3381.277l-26.7,15.413v1.571l26.7-15.413Z" fill="#bcc5df"/>
          </g>
          <g id="Grupo_77330" data-name="Grupo 77330">
            <path id="Trazado_176966" data-name="Trazado 176966" d="M573.209,3383.784l-26.7,15.413v1.571l26.7-15.413Z" fill="#bcc5df"/>
          </g>
        </g>
      </g>
    </g>
    <path id="Trazado_176967" data-name="Trazado 176967" d="M644.715,3374.065a78.479,78.479,0,1,0-50.383,98.885A78.57,78.57,0,0,0,644.715,3374.065Zm-20.555,51.809a60.7,60.7,0,1,1,3.682-46.328A60.313,60.313,0,0,1,624.16,3425.874Z" transform="translate(120.857 172.405)" fill="#53bced"/>
  </g>
</svg>
