<svg xmlns="http://www.w3.org/2000/svg" width="154.684" height="154.682" viewBox="0 0 154.684 154.682">
  <g id="Grupo_61394" data-name="Grupo 61394" transform="translate(-861.845 -3579.698)">
    <g id="Grupo_61389" data-name="Grupo 61389">
      <path id="Trazado_105094" data-name="Trazado 105094" d="M939.185,3579.7q3.8,0,7.58.374t7.507,1.113q3.728.738,7.363,1.843t7.146,2.557q3.51,1.452,6.861,3.244t6.51,3.9q3.158,2.11,6.1,4.521a75.788,75.788,0,0,1,5.623,5.1q2.687,2.688,5.1,5.623t4.521,6.1q2.109,3.157,3.9,6.509t3.245,6.861q1.453,3.508,2.557,7.145t1.844,7.362q.741,3.726,1.114,7.506t.373,7.581q0,3.8-.373,7.58t-1.114,7.508q-.742,3.726-1.844,7.361t-2.557,7.146q-1.455,3.507-3.245,6.859t-3.9,6.51q-2.11,3.159-4.521,6.1a75.45,75.45,0,0,1-5.1,5.623q-2.688,2.689-5.623,5.1t-6.1,4.521q-3.159,2.112-6.51,3.9t-6.861,3.245q-3.51,1.455-7.146,2.558t-7.363,1.844q-3.726.742-7.507,1.114t-7.58.374q-3.8,0-7.58-.374t-7.507-1.114q-3.726-.744-7.362-1.844a75.708,75.708,0,0,1-7.146-2.558q-3.51-1.455-6.86-3.245t-6.51-3.9q-3.159-2.109-6.1-4.521a75.9,75.9,0,0,1-5.624-5.1q-2.688-2.687-5.1-5.623a74.29,74.29,0,0,1-4.521-6.1q-2.112-3.159-3.9-6.51t-3.244-6.859q-1.455-3.507-2.557-7.146t-1.844-7.361q-.741-3.726-1.113-7.508t-.372-7.58q0-3.8.372-7.581t1.112-7.509q.741-3.726,1.844-7.362t2.557-7.145q1.455-3.511,3.244-6.861t3.9-6.509q2.112-3.156,4.521-6.1a75.638,75.638,0,0,1,5.1-5.623q2.688-2.688,5.624-5.1a75.847,75.847,0,0,1,6.1-4.521q3.159-2.109,6.51-3.9t6.86-3.244q3.51-1.455,7.146-2.557t7.362-1.843q3.726-.741,7.507-1.113T939.185,3579.7Z" fill="#0a4d8f"/>
      <circle id="Elipse_1224" data-name="Elipse 1224" cx="72.641" cy="72.641" r="72.641" transform="translate(866.545 3584.393)" fill="#fff"/>
      <path id="shutterstock_1802230447" data-name="shutterstock 1802230447" d="M939.185,3590.947a66.081,66.081,0,1,1-66.08,66.082h0a66.08,66.08,0,0,1,66.079-66.081Z" fill="#0d66bf"/>
    </g>
    <g id="Grupo_77858" data-name="Grupo 77858">
      <g id="Grupo_77857" data-name="Grupo 77857">
        <g id="Grupo_77856" data-name="Grupo 77856">
          <path id="Trazado_177477" data-name="Trazado 177477" d="M953.013,3665.071l8.977-30.992h-5.151l-1.788,6.416a13.09,13.09,0,0,0-3.442-5.291c-2.415-2.232-5.72-3.362-9.827-3.362a19.037,19.037,0,0,0-10.861,3.316,29.91,29.91,0,0,0-8.16,8.279,42.427,42.427,0,0,0-6.914,22.672,22.663,22.663,0,0,0,.852,6.164,15.318,15.318,0,0,0,2.766,5.464,14.565,14.565,0,0,0,4.8,3.856,15.107,15.107,0,0,0,6.949,1.5,16.836,16.836,0,0,0,6.22-1.139,22.562,22.562,0,0,0,5.057-2.76,20,20,0,0,0,3.9-3.773c.209-.265.411-.532.608-.8a8.342,8.342,0,0,0,2.779,5.575,12.8,12.8,0,0,0,8.576,2.9,23.111,23.111,0,0,0,10.98-2.564,23.4,23.4,0,0,0,8.018-7,32.694,32.694,0,0,0,4.862-10.456,48.16,48.16,0,0,0,1.667-12.875,39.083,39.083,0,0,0-3.281-15.965,38.153,38.153,0,0,0-9.187-12.767,42.75,42.75,0,0,0-13.959-8.382,50.464,50.464,0,0,0-17.6-2.992,46.379,46.379,0,0,0-18.526,3.7,47.3,47.3,0,0,0-28.61,43.863,50.209,50.209,0,0,0,3.439,18.6,46.588,46.588,0,0,0,9.7,15.177,45.36,45.36,0,0,0,15.062,10.277,49.361,49.361,0,0,0,19.491,3.763,47.189,47.189,0,0,0,21.3-4.847,51.815,51.815,0,0,0,16.539-12.982l.761-.9-3.672-3.179-.78.925a47.548,47.548,0,0,1-14.861,11.581,42.02,42.02,0,0,1-19.286,4.529,43.5,43.5,0,0,1-17.3-3.382,40.884,40.884,0,0,1-13.471-9.24,41.748,41.748,0,0,1-8.7-13.664,45.12,45.12,0,0,1-3.088-16.657,42.514,42.514,0,0,1,3.145-16.086,44.247,44.247,0,0,1,8.713-13.678,41.983,41.983,0,0,1,13.239-9.428,40.3,40.3,0,0,1,16.847-3.5,44.284,44.284,0,0,1,15.5,2.661,38.034,38.034,0,0,1,12.358,7.406,34.489,34.489,0,0,1,8.17,11.174,33.4,33.4,0,0,1,2.937,13.991,45.713,45.713,0,0,1-1.209,10.54,29.268,29.268,0,0,1-3.7,8.961,19.285,19.285,0,0,1-6.322,6.206,17.53,17.53,0,0,1-9.205,2.316,8.008,8.008,0,0,1-4.771-1.386c-1.171-.85-1.742-2.362-1.742-4.632a19.752,19.752,0,0,1,.358-3.4A37.017,37.017,0,0,1,953.013,3665.071Zm-2.442-8.649a46.3,46.3,0,0,1-3.939,10.058,31.446,31.446,0,0,1-6.405,8.382,11.915,11.915,0,0,1-8.392,3.353c-3.787,0-6.465-1.087-8.189-3.324a13.821,13.821,0,0,1-2.675-8.656,39.3,39.3,0,0,1,5.6-19.58,25.078,25.078,0,0,1,6.586-7.183,14.352,14.352,0,0,1,8.621-2.755,10.913,10.913,0,0,1,4.586.878,8.309,8.309,0,0,1,3.052,2.4,10.923,10.923,0,0,1,1.847,3.642,15.563,15.563,0,0,1,.635,4.444A35.192,35.192,0,0,1,950.571,3656.422Z" fill="#fff"/>
        </g>
      </g>
    </g>
  </g>
</svg>
