<svg xmlns="http://www.w3.org/2000/svg" width="154.684" height="154.681" viewBox="0 0 154.684 154.681">
  <g id="Grupo_61394" data-name="Grupo 61394" transform="translate(-875.418 -1150.651)">
    <g id="Grupo_61389" data-name="Grupo 61389">
      <path id="Trazado_105094" data-name="Trazado 105094" d="M952.758,1150.651q3.8,0,7.58.374t7.507,1.113q3.728.738,7.363,1.843t7.146,2.557q3.51,1.452,6.861,3.244t6.51,3.9q3.158,2.11,6.1,4.521a75.645,75.645,0,0,1,5.623,5.1q2.687,2.688,5.1,5.623a75.751,75.751,0,0,1,4.521,6.1q2.111,3.157,3.9,6.509t3.245,6.861q1.453,3.508,2.557,7.145t1.844,7.362q.741,3.726,1.114,7.506t.373,7.581q0,3.8-.373,7.58t-1.114,7.508q-.741,3.726-1.844,7.361t-2.557,7.146q-1.455,3.507-3.245,6.859t-3.9,6.51q-2.11,3.159-4.521,6.1a75.213,75.213,0,0,1-5.1,5.623q-2.687,2.689-5.623,5.1t-6.1,4.521q-3.159,2.112-6.51,3.9t-6.861,3.244q-3.51,1.456-7.146,2.559t-7.363,1.844q-3.724.742-7.507,1.114t-7.58.373q-3.8,0-7.58-.373t-7.507-1.114q-3.725-.744-7.362-1.844t-7.146-2.559q-3.51-1.455-6.86-3.244t-6.51-3.9q-3.159-2.109-6.1-4.521t-5.624-5.1q-2.686-2.687-5.1-5.623a74.755,74.755,0,0,1-4.521-6.1q-2.112-3.16-3.9-6.51t-3.244-6.859q-1.455-3.508-2.557-7.146t-1.844-7.361q-.741-3.727-1.113-7.508t-.372-7.58q0-3.8.372-7.581t1.113-7.506q.741-3.726,1.844-7.362t2.557-7.145q1.455-3.511,3.244-6.861t3.9-6.509q2.112-3.157,4.521-6.1a75.634,75.634,0,0,1,5.1-5.623q2.688-2.688,5.624-5.1t6.1-4.521q3.159-2.109,6.51-3.9t6.86-3.244q3.51-1.455,7.146-2.557t7.362-1.843q3.726-.742,7.507-1.113T952.758,1150.651Z" fill="#0a4d8f"/>
      <circle id="Elipse_1224" data-name="Elipse 1224" cx="72.641" cy="72.641" r="72.641" transform="translate(880.118 1155.346)" fill="#fff"/>
      <path id="shutterstock_1802230447" data-name="shutterstock 1802230447" d="M952.758,1161.9a66.081,66.081,0,1,1-66.08,66.081,66.08,66.08,0,0,1,66.08-66.081Z" fill="#0d66bf"/>
    </g>
    <g id="Grupo_65963" data-name="Grupo 65963">
      <g id="Grupo_65962" data-name="Grupo 65962">
        <g id="Grupo_65961" data-name="Grupo 65961">
          <path id="Trazado_143600" data-name="Trazado 143600" d="M959.19,1214.821a4.237,4.237,0,0,0,.012-6.993L941.717,1194.7a4.167,4.167,0,0,0-2.507-.924c-1.649,0-3.319,1.319-3.319,3.838v2.664a.727.727,0,0,1-.727.727H912.831a5.108,5.108,0,0,0-5.1,5.1v10.17a5.108,5.108,0,0,0,5.1,5.1h22.33a.693.693,0,0,1,.7.706l-.024,2.926a3.936,3.936,0,0,0,1.05,2.931,3.13,3.13,0,0,0,2.247.931,4.15,4.15,0,0,0,2.5-.919ZM935.162,1217H912.831a.729.729,0,0,1-.729-.727v-10.17a.73.73,0,0,1,.729-.727h22.33a5.107,5.107,0,0,0,5.1-5.1v-.6c0-.333.717-.064,1.6.6l13.111,9.844a1.418,1.418,0,0,1,0,2.4l-13.144,9.832c-.886.663-1.6.881-1.6.488l.006-.71a5.074,5.074,0,0,0-5.071-5.128Z" fill="#fff"/>
          <path id="Trazado_143601" data-name="Trazado 143601" d="M968.273,1221.949a3.15,3.15,0,0,0-2.248-.927,4.153,4.153,0,0,0-2.5.919l-17.551,13.132a4.237,4.237,0,0,0-.011,6.994l17.484,13.124a4.147,4.147,0,0,0,2.508.924c1.647,0,3.319-1.318,3.319-3.838v-2.663a.728.728,0,0,1,.725-.727h22.332a5.109,5.109,0,0,0,5.1-5.1V1233.62a5.109,5.109,0,0,0-5.1-5.1H970a.681.681,0,0,1-.5-.208.69.69,0,0,1-.2-.505l.023-2.922A3.942,3.942,0,0,0,968.273,1221.949Zm24.059,10.941a.727.727,0,0,1,.727.728v10.166a.73.73,0,0,1-.727.731H970a5.107,5.107,0,0,0-5.1,5.1v.6c0,.333-.716.064-1.6-.6l-13.111-9.844a1.418,1.418,0,0,1,0-2.4l13.145-9.832c.886-.663,1.6-.879,1.6-.486l-.006.713a5.065,5.065,0,0,0,5.071,5.125h22.333Z" fill="#fff"/>
          <path id="Trazado_143602" data-name="Trazado 143602" d="M938.184,1243.15H909.238c-1.106,0-2,.673-2,1.5s.9,1.5,2,1.5h28.944c1.1,0,2-.673,2-1.5S939.29,1243.15,938.184,1243.15Z" fill="#fff"/>
          <path id="Trazado_143603" data-name="Trazado 143603" d="M938.184,1233.639H909.238c-1.106,0-2,.674-2,1.5s.9,1.5,2,1.5h28.944c1.1,0,2-.673,2-1.5S939.29,1233.639,938.184,1233.639Z" fill="#fff"/>
          <path id="Trazado_143604" data-name="Trazado 143604" d="M995.428,1212.318H966.482c-1.106,0-2,.673-2,1.5s.9,1.5,2,1.5h28.944c1.1,0,2-.673,2-1.5S996.534,1212.318,995.428,1212.318Z" fill="#fff"/>
          <path id="Trazado_143605" data-name="Trazado 143605" d="M995.428,1202.8H966.482c-1.106,0-2,.673-2,1.5s.9,1.5,2,1.5h28.944c1.1,0,2-.672,2-1.5S996.534,1202.8,995.428,1202.8Z" fill="#fff"/>
        </g>
      </g>
    </g>
  </g>
</svg>
