<svg xmlns="http://www.w3.org/2000/svg" width="154.684" height="154.682" viewBox="0 0 154.684 154.682">
  <g id="Grupo_61394" data-name="Grupo 61394" transform="translate(-1054.888 -3579.698)">
    <g id="Grupo_61389" data-name="Grupo 61389">
      <path id="Trazado_105094" data-name="Trazado 105094" d="M1132.228,3579.7q3.8,0,7.58.374t7.507,1.113q3.728.738,7.363,1.843t7.146,2.557q3.51,1.452,6.861,3.244t6.51,3.9q3.158,2.11,6.1,4.521a75.58,75.58,0,0,1,5.623,5.1q2.687,2.688,5.1,5.623t4.521,6.1q2.111,3.157,3.9,6.509t3.245,6.861q1.453,3.508,2.557,7.145t1.844,7.362q.741,3.726,1.114,7.506t.373,7.581q0,3.8-.373,7.58t-1.114,7.508q-.742,3.726-1.844,7.361t-2.557,7.146q-1.455,3.507-3.245,6.859t-3.9,6.51q-2.11,3.159-4.521,6.1a75.011,75.011,0,0,1-5.1,5.623q-2.687,2.689-5.623,5.1t-6.1,4.521q-3.159,2.112-6.51,3.9t-6.861,3.245q-3.51,1.455-7.146,2.558t-7.363,1.844q-3.724.742-7.507,1.114t-7.58.374q-3.8,0-7.58-.374t-7.507-1.114q-3.725-.744-7.362-1.844a75.708,75.708,0,0,1-7.146-2.558q-3.51-1.455-6.86-3.245t-6.51-3.9q-3.159-2.109-6.1-4.521t-5.624-5.1q-2.686-2.687-5.1-5.623a74.771,74.771,0,0,1-4.521-6.1q-2.112-3.159-3.9-6.51t-3.244-6.859q-1.455-3.507-2.557-7.146t-1.844-7.361q-.741-3.726-1.113-7.508t-.372-7.58q0-3.8.372-7.581t1.112-7.509q.741-3.726,1.844-7.362t2.557-7.145q1.455-3.511,3.244-6.861t3.9-6.509q2.112-3.156,4.521-6.1a75.854,75.854,0,0,1,5.1-5.623q2.688-2.688,5.624-5.1t6.1-4.521q3.159-2.109,6.51-3.9t6.86-3.244q3.51-1.455,7.146-2.557t7.362-1.843q3.726-.741,7.507-1.113T1132.228,3579.7Z" fill="#0a4d8f"/>
      <circle id="Elipse_1224" data-name="Elipse 1224" cx="72.641" cy="72.641" r="72.641" transform="translate(1059.588 3584.393)" fill="#fff"/>
      <path id="shutterstock_1802230447" data-name="shutterstock 1802230447" d="M1132.228,3590.947a66.081,66.081,0,1,1-66.08,66.082h0a66.081,66.081,0,0,1,66.079-66.081Z" fill="#0d66bf"/>
    </g>
    <g id="Grupo_77861" data-name="Grupo 77861">
      <g id="Grupo_77860" data-name="Grupo 77860">
        <g id="Grupo_77859" data-name="Grupo 77859">
          <path id="Trazado_177478" data-name="Trazado 177478" d="M1117.415,3614.513h2.894v18.256h-2.894Z" fill="#fff"/>
          <path id="Trazado_177479" data-name="Trazado 177479" d="M1118.858,3646.6a4.257,4.257,0,0,1,2.9,1.113,3.993,3.993,0,0,1,1.258,3.166v9.824a3.849,3.849,0,0,1-1.258,3.043,4.352,4.352,0,0,1-5.8,0,3.848,3.848,0,0,1-1.239-3.043v-9.824a4.01,4.01,0,0,1,1.239-3.166A4.229,4.229,0,0,1,1118.858,3646.6Zm-1.236,14.519a1.242,1.242,0,1,0,2.483,0v-10.789a1.242,1.242,0,1,0-2.483,0Z" fill="#fff"/>
          <path id="Trazado_177480" data-name="Trazado 177480" d="M1118.858,3678.7a4.248,4.248,0,0,1,2.9,1.109,3.975,3.975,0,0,1,1.258,3.169v9.82a3.847,3.847,0,0,1-1.258,3.039,4.343,4.343,0,0,1-5.8,0,3.851,3.851,0,0,1-1.239-3.039v-9.82a3.994,3.994,0,0,1,1.239-3.169A4.225,4.225,0,0,1,1118.858,3678.7Zm-1.236,14.513a1.242,1.242,0,1,0,2.483,0v-10.781a1.242,1.242,0,1,0-2.483,0Z" fill="#fff"/>
          <path id="Trazado_177481" data-name="Trazado 177481" d="M1092.113,3614.513a4.241,4.241,0,0,1,2.9,1.108,4.034,4.034,0,0,1,1.256,3.178v9.811a3.892,3.892,0,0,1-1.256,3.046,4.362,4.362,0,0,1-5.821,0,3.924,3.924,0,0,1-1.236-3.046V3618.8a4.1,4.1,0,0,1,1.235-3.177A4.248,4.248,0,0,1,1092.113,3614.513Zm-1.247,14.514a1.255,1.255,0,0,0,2.509,0v-10.783a1.255,1.255,0,1,0-2.509,0Z" fill="#fff"/>
          <path id="Trazado_177482" data-name="Trazado 177482" d="M1092.113,3646.6a4.264,4.264,0,0,1,2.9,1.113,4.022,4.022,0,0,1,1.256,3.166v9.824a3.891,3.891,0,0,1-1.256,3.043,4.374,4.374,0,0,1-5.821,0,3.914,3.914,0,0,1-1.236-3.042v-9.825a4.083,4.083,0,0,1,1.235-3.166A4.271,4.271,0,0,1,1092.113,3646.6Zm-1.247,14.519a1.255,1.255,0,1,0,2.509,0v-10.789a1.255,1.255,0,0,0-2.509,0Z" fill="#fff"/>
          <path id="Trazado_177483" data-name="Trazado 177483" d="M1090.671,3678.7h2.9v18.254h-2.9Z" fill="#fff"/>
          <path id="Trazado_177484" data-name="Trazado 177484" d="M1145.611,3614.513a4.25,4.25,0,0,1,2.9,1.108,4.027,4.027,0,0,1,1.255,3.178v9.811a3.887,3.887,0,0,1-1.255,3.046,4.349,4.349,0,0,1-5.811,0,3.86,3.86,0,0,1-1.238-3.046V3618.8a4.046,4.046,0,0,1,1.238-3.177A4.2,4.2,0,0,1,1145.611,3614.513Zm-1.26,14.514a1.258,1.258,0,0,0,2.516,0v-10.783a1.258,1.258,0,0,0-2.516,0Z" fill="#fff"/>
          <path id="Trazado_177485" data-name="Trazado 177485" d="M1145.611,3646.6a4.274,4.274,0,0,1,2.9,1.113,4.014,4.014,0,0,1,1.255,3.166v9.824a3.887,3.887,0,0,1-1.255,3.043,4.228,4.228,0,0,1-2.9,1.109,4.178,4.178,0,0,1-2.91-1.109,3.853,3.853,0,0,1-1.238-3.043v-9.824a4.03,4.03,0,0,1,1.238-3.166A4.222,4.222,0,0,1,1145.611,3646.6Zm-1.26,14.519a1.258,1.258,0,0,0,2.516,0v-10.789a1.258,1.258,0,0,0-2.516,0Z" fill="#fff"/>
          <path id="Trazado_177486" data-name="Trazado 177486" d="M1144.147,3678.7h2.91v18.254h-2.91Z" fill="#fff"/>
          <path id="Trazado_177487" data-name="Trazado 177487" d="M1172.349,3614.513a4.231,4.231,0,0,1,2.9,1.108,4.039,4.039,0,0,1,1.252,3.178v9.811a3.9,3.9,0,0,1-1.252,3.046,4.359,4.359,0,0,1-5.819,0,3.919,3.919,0,0,1-1.243-3.046V3618.8a4.083,4.083,0,0,1,1.243-3.177A4.246,4.246,0,0,1,1172.349,3614.513Zm-1.25,14.514a1.253,1.253,0,1,0,2.507,0v-10.783a1.253,1.253,0,1,0-2.507,0Z" fill="#fff"/>
          <path id="Trazado_177488" data-name="Trazado 177488" d="M1172.349,3646.6a4.254,4.254,0,0,1,2.9,1.113,4.026,4.026,0,0,1,1.252,3.166v9.824a3.9,3.9,0,0,1-1.252,3.043,4.371,4.371,0,0,1-5.819,0,3.913,3.913,0,0,1-1.243-3.043v-9.824a4.067,4.067,0,0,1,1.243-3.166A4.269,4.269,0,0,1,1172.349,3646.6Zm-1.25,14.519a1.253,1.253,0,1,0,2.507,0v-10.789a1.254,1.254,0,0,0-2.507,0Z" fill="#fff"/>
          <path id="Trazado_177489" data-name="Trazado 177489" d="M1170.908,3678.7h2.88v18.254h-2.88Z" fill="#fff"/>
        </g>
      </g>
    </g>
  </g>
</svg>
