<svg xmlns="http://www.w3.org/2000/svg" width="154.684" height="154.681" viewBox="0 0 154.684 154.681">
  <g id="Grupo_61394" data-name="Grupo 61394" transform="translate(-96.716 -1150.651)">
    <g id="Grupo_61389" data-name="Grupo 61389">
      <path id="Trazado_105094" data-name="Trazado 105094" d="M174.056,1150.651q3.8,0,7.58.374t7.507,1.113q3.728.738,7.363,1.843t7.146,2.557q3.51,1.452,6.861,3.244t6.51,3.9q3.158,2.11,6.1,4.521a75.639,75.639,0,0,1,5.623,5.1q2.687,2.688,5.1,5.623a75.762,75.762,0,0,1,4.521,6.1q2.11,3.157,3.9,6.509t3.245,6.861q1.454,3.508,2.557,7.145t1.844,7.362q.741,3.726,1.114,7.506t.373,7.581q0,3.8-.373,7.58t-1.114,7.508q-.742,3.726-1.844,7.361t-2.557,7.146q-1.455,3.507-3.245,6.859t-3.9,6.51q-2.11,3.159-4.521,6.1a75.216,75.216,0,0,1-5.1,5.623q-2.687,2.689-5.623,5.1t-6.1,4.521q-3.159,2.112-6.51,3.9t-6.861,3.244q-3.51,1.456-7.146,2.559t-7.363,1.844q-3.725.742-7.507,1.114t-7.58.373q-3.8,0-7.58-.373t-7.507-1.114q-3.725-.744-7.362-1.844t-7.146-2.559q-3.51-1.455-6.86-3.244t-6.51-3.9q-3.159-2.109-6.1-4.521t-5.624-5.1q-2.687-2.687-5.1-5.623a74.753,74.753,0,0,1-4.521-6.1q-2.112-3.16-3.9-6.51t-3.244-6.859q-1.455-3.508-2.557-7.146t-1.844-7.361q-.741-3.727-1.113-7.508t-.372-7.58q0-3.8.372-7.581T98.2,1212.9q.741-3.726,1.844-7.362t2.557-7.145q1.455-3.511,3.244-6.861t3.9-6.509q2.112-3.157,4.521-6.1a75.632,75.632,0,0,1,5.1-5.623q2.688-2.688,5.624-5.1t6.1-4.521q3.159-2.109,6.51-3.9t6.86-3.244q3.51-1.455,7.146-2.557t7.362-1.843q3.726-.742,7.507-1.113T174.056,1150.651Z" fill="#0a4d8f"/>
      <circle id="Elipse_1224" data-name="Elipse 1224" cx="72.641" cy="72.641" r="72.641" transform="translate(101.416 1155.346)" fill="#fff"/>
      <path id="shutterstock_1802230447" data-name="shutterstock 1802230447" d="M174.056,1161.9a66.081,66.081,0,1,1-66.08,66.081,66.08,66.08,0,0,1,66.08-66.081Z" fill="#0d66bf"/>
    </g>
    <g id="Grupo_65938" data-name="Grupo 65938">
      <g id="Grupo_65935" data-name="Grupo 65935">
        <g id="Grupo_65934" data-name="Grupo 65934">
          <path id="Trazado_143578" data-name="Trazado 143578" d="M216.44,1228.718a8.23,8.23,0,0,0-11.333.684l-8.068,8.66a8.248,8.248,0,0,0-7.864-5.793h-14.4c-1.093,0-1.458-.417-3.356-1.879a19.252,19.252,0,0,0-25.314.061l-5.292,4.658a8.2,8.2,0,0,0-7.548-.095l-6.069,3.034a2.746,2.746,0,0,0-1.228,3.683l16.468,32.935a2.747,2.747,0,0,0,3.683,1.228l6.069-3.035a8.228,8.228,0,0,0,4.549-7.654h32.434a19.3,19.3,0,0,0,15.37-7.685l13.176-17.569A8.211,8.211,0,0,0,216.44,1228.718Zm-66.7,39.231-3.614,1.808-14.014-28.026,3.616-1.808a2.742,2.742,0,0,1,3.681,1.228l11.559,23.117A2.744,2.744,0,0,1,149.737,1267.949Zm63.592-31.292-13.175,17.569a13.79,13.79,0,0,1-10.979,5.489h-34.35l-10.285-20.571,5.2-4.573a13.757,13.757,0,0,1,18.133,0c3.044,2.681,4.938,3.188,6.911,3.188h14.4a2.745,2.745,0,1,1,0,5.489H175.157a2.745,2.745,0,0,0,0,5.489h15.857a8.255,8.255,0,0,0,6.025-2.622l12.084-12.971a2.744,2.744,0,0,1,4.206,3.513Z" fill="#fff"/>
        </g>
      </g>
      <g id="Grupo_65937" data-name="Grupo 65937">
        <g id="Grupo_65936" data-name="Grupo 65936">
          <path id="Trazado_143579" data-name="Trazado 143579" d="M183.393,1201.23a10.936,10.936,0,0,0,3.037-7.568,11.128,11.128,0,0,0-10.978-11.162,11.31,11.31,0,0,0-11.161,11.162,10.775,10.775,0,0,0,3.138,7.59,16.743,16.743,0,0,0-8.627,14.55v2.744a2.745,2.745,0,0,0,2.744,2.745h27.629a2.746,2.746,0,0,0,2.745-2.745V1215.8A16.73,16.73,0,0,0,183.393,1201.23Zm-7.941-13.24a5.658,5.658,0,0,1,5.489,5.672,5.5,5.5,0,0,1-5.489,5.489,5.658,5.658,0,0,1-5.672-5.489A5.821,5.821,0,0,1,175.452,1187.99ZM164.291,1215.8a11.31,11.31,0,0,1,11.161-11.162A11.083,11.083,0,0,1,186.43,1215.8Z" fill="#fff"/>
        </g>
      </g>
    </g>
  </g>
</svg>
