<svg xmlns="http://www.w3.org/2000/svg" width="154.684" height="154.682" viewBox="0 0 154.684 154.682">
  <g id="Grupo_61394" data-name="Grupo 61394" transform="translate(-479.892 -3579.698)">
    <g id="Grupo_61389" data-name="Grupo 61389">
      <path id="Trazado_105094" data-name="Trazado 105094" d="M557.232,3579.7q3.8,0,7.58.374t7.507,1.113q3.728.738,7.363,1.843t7.146,2.557q3.51,1.452,6.861,3.244t6.51,3.9q3.158,2.11,6.1,4.521a75.788,75.788,0,0,1,5.623,5.1q2.687,2.688,5.1,5.623t4.521,6.1q2.11,3.157,3.9,6.509t3.245,6.861q1.453,3.508,2.557,7.145t1.844,7.362q.741,3.726,1.114,7.506t.373,7.581q0,3.8-.373,7.58t-1.114,7.508q-.742,3.726-1.844,7.361t-2.557,7.146q-1.455,3.507-3.245,6.859t-3.9,6.51q-2.111,3.159-4.521,6.1a75.223,75.223,0,0,1-5.1,5.623q-2.687,2.689-5.623,5.1t-6.1,4.521q-3.159,2.112-6.51,3.9t-6.861,3.245q-3.51,1.455-7.146,2.558t-7.363,1.844q-3.724.742-7.507,1.114t-7.58.374q-3.8,0-7.58-.374t-7.507-1.114q-3.725-.744-7.362-1.844a75.708,75.708,0,0,1-7.146-2.558q-3.51-1.455-6.86-3.245t-6.51-3.9q-3.159-2.109-6.1-4.521t-5.624-5.1q-2.686-2.687-5.1-5.623a74.764,74.764,0,0,1-4.521-6.1q-2.112-3.159-3.9-6.51t-3.244-6.859q-1.455-3.507-2.557-7.146t-1.844-7.361q-.741-3.726-1.113-7.508t-.372-7.58q0-3.8.372-7.581t1.112-7.509q.741-3.726,1.844-7.362t2.557-7.145q1.455-3.511,3.244-6.861t3.9-6.509q2.112-3.156,4.521-6.1a75.854,75.854,0,0,1,5.1-5.623q2.688-2.688,5.624-5.1t6.1-4.521q3.159-2.109,6.51-3.9t6.86-3.244q3.51-1.455,7.146-2.557t7.362-1.843q3.726-.741,7.507-1.113T557.232,3579.7Z" fill="#0a4d8f"/>
      <circle id="Elipse_1224" data-name="Elipse 1224" cx="72.641" cy="72.641" r="72.641" transform="translate(484.592 3584.393)" fill="#fff"/>
      <path id="shutterstock_1802230447" data-name="shutterstock 1802230447" d="M557.232,3590.947a66.081,66.081,0,1,1-66.08,66.082h0a66.08,66.08,0,0,1,66.079-66.081Z" fill="#0d66bf"/>
    </g>
    <g id="Grupo_77853" data-name="Grupo 77853">
      <g id="Grupo_77852" data-name="Grupo 77852">
        <path id="Trazado_177468" data-name="Trazado 177468" d="M595.252,3664.163a1.378,1.378,0,0,0-1.378,1.377v12.081h-21.51a2.819,2.819,0,0,0-2.816,2.816v6.722a1.378,1.378,0,1,0,2.755,0v-6.722a.061.061,0,0,1,.061-.061h19.308L572.3,3699.744v-6.678a1.378,1.378,0,1,0-2.755,0v8.373H520.654a.06.06,0,0,1-.06-.06v-51.754a1.378,1.378,0,0,0-2.755,0v51.754a2.819,2.819,0,0,0,2.815,2.815h73.16a2.819,2.819,0,0,0,2.815-2.815V3665.54a1.378,1.378,0,0,0-1.377-1.377Zm-1.438,37.276H574.506l19.368-19.369v19.309A.06.06,0,0,1,593.814,3701.439Z" fill="#fff"/>
        <path id="Trazado_177469" data-name="Trazado 177469" d="M593.814,3623.394H544.431v-6.451a6.763,6.763,0,1,0-13.526,0v6.451H520.654a2.818,2.818,0,0,0-2.815,2.815v17.509a1.378,1.378,0,1,0,2.755,0v-17.509a.06.06,0,0,1,.06-.06h10.251v11.57a4.987,4.987,0,1,0,9.974,0v-6.884a1.378,1.378,0,1,0-2.755,0v6.884a2.232,2.232,0,1,1-4.464,0v-11.57h60.154a.06.06,0,0,1,.06.06v33.425a1.378,1.378,0,0,0,2.755,0v-33.425a2.818,2.818,0,0,0-2.815-2.815Zm-60.154-6.451a4.008,4.008,0,1,1,8.016,0v6.451H533.66v-6.451Z" fill="#fff"/>
        <path id="Trazado_177470" data-name="Trazado 177470" d="M530.854,3662.364a4.663,4.663,0,1,0-4.663-4.663A4.669,4.669,0,0,0,530.854,3662.364Zm0-6.571a1.908,1.908,0,1,1-1.908,1.908A1.91,1.91,0,0,1,530.854,3655.793Z" fill="#fff"/>
        <path id="Trazado_177471" data-name="Trazado 177471" d="M530.854,3674.746a4.663,4.663,0,1,0-4.663-4.663A4.669,4.669,0,0,0,530.854,3674.746Zm0-6.571a1.908,1.908,0,1,1-1.908,1.908A1.91,1.91,0,0,1,530.854,3668.175Z" fill="#fff"/>
        <path id="Trazado_177472" data-name="Trazado 177472" d="M530.854,3687.129a4.663,4.663,0,1,0-4.663-4.663A4.668,4.668,0,0,0,530.854,3687.129Zm0-6.571a1.908,1.908,0,1,1-1.908,1.908A1.91,1.91,0,0,1,530.854,3680.558Z" fill="#fff"/>
        <path id="Trazado_177473" data-name="Trazado 177473" d="M539.572,3659.078H579.26a1.377,1.377,0,0,0,0-2.755H539.572a1.377,1.377,0,0,0,0,2.755Z" fill="#fff"/>
        <path id="Trazado_177474" data-name="Trazado 177474" d="M539.572,3671.461H576.3a1.377,1.377,0,1,0,0-2.755H539.572a1.377,1.377,0,0,0,0,2.755Z" fill="#fff"/>
        <path id="Trazado_177475" data-name="Trazado 177475" d="M539.572,3683.843h23.362a1.378,1.378,0,1,0,0-2.755H539.572a1.378,1.378,0,0,0,0,2.755Z" fill="#fff"/>
      </g>
    </g>
  </g>
</svg>
