<svg xmlns="http://www.w3.org/2000/svg" width="154.684" height="154.681" viewBox="0 0 154.684 154.681">
  <g id="Grupo_61394" data-name="Grupo 61394" transform="translate(-293.668 -1150.651)">
    <g id="Grupo_61389" data-name="Grupo 61389">
      <path id="Trazado_105094" data-name="Trazado 105094" d="M371.008,1150.651q3.8,0,7.58.374t7.507,1.113q3.726.738,7.363,1.843t7.146,2.557q3.51,1.452,6.861,3.244t6.51,3.9q3.156,2.11,6.1,4.521a75.84,75.84,0,0,1,5.623,5.1q2.685,2.688,5.1,5.623a75.758,75.758,0,0,1,4.521,6.1q2.109,3.157,3.9,6.509t3.245,6.861q1.452,3.508,2.557,7.145t1.844,7.362q.741,3.726,1.114,7.506t.373,7.581q0,3.8-.373,7.58t-1.114,7.508q-.742,3.726-1.844,7.361t-2.557,7.146q-1.455,3.507-3.245,6.859t-3.9,6.51q-2.112,3.159-4.521,6.1a75.44,75.44,0,0,1-5.1,5.623q-2.688,2.689-5.623,5.1t-6.1,4.521q-3.159,2.112-6.51,3.9t-6.861,3.244q-3.51,1.456-7.146,2.559t-7.363,1.844q-3.726.742-7.507,1.114t-7.58.373q-3.8,0-7.58-.373t-7.507-1.114q-3.726-.744-7.362-1.844t-7.146-2.559q-3.51-1.455-6.86-3.244t-6.51-3.9q-3.159-2.109-6.1-4.521t-5.624-5.1q-2.688-2.687-5.1-5.623a74.755,74.755,0,0,1-4.521-6.1q-2.112-3.16-3.9-6.51t-3.244-6.859q-1.455-3.508-2.557-7.146t-1.844-7.361q-.741-3.727-1.113-7.508t-.372-7.58q0-3.8.372-7.581t1.113-7.506q.741-3.726,1.844-7.362t2.557-7.145q1.454-3.511,3.244-6.861t3.9-6.509q2.111-3.157,4.521-6.1a75.193,75.193,0,0,1,5.1-5.623q2.688-2.688,5.624-5.1a75.882,75.882,0,0,1,6.1-4.521q3.158-2.109,6.51-3.9t6.86-3.244q3.51-1.455,7.146-2.557t7.362-1.843q3.726-.742,7.507-1.113T371.008,1150.651Z" fill="#0a4d8f"/>
      <circle id="Elipse_1224" data-name="Elipse 1224" cx="72.641" cy="72.641" r="72.641" transform="translate(298.368 1155.346)" fill="#fff"/>
      <path id="shutterstock_1802230447" data-name="shutterstock 1802230447" d="M371.008,1161.9a66.081,66.081,0,1,1-66.08,66.081,66.08,66.08,0,0,1,66.08-66.081Z" fill="#0d66bf"/>
    </g>
    <g id="Grupo_65957" data-name="Grupo 65957">
      <g id="Grupo_65940" data-name="Grupo 65940">
        <g id="Grupo_65939" data-name="Grupo 65939">
          <path id="Trazado_143580" data-name="Trazado 143580" d="M386.057,1190.226a13.568,13.568,0,0,0-24.392-6.065,1.6,1.6,0,1,0,2.577,1.883,10.378,10.378,0,0,1,18.655,4.632,1.6,1.6,0,1,0,3.16-.45Z" fill="#fff"/>
        </g>
      </g>
      <g id="Grupo_65942" data-name="Grupo 65942">
        <g id="Grupo_65941" data-name="Grupo 65941">
          <path id="Trazado_143581" data-name="Trazado 143581" d="M409.11,1208.094l-4.788-7.981a1.6,1.6,0,0,0-1.369-.775h-4.589a1.6,1.6,0,1,0,0,3.192h3.686l2.873,4.789H340.331l2.873-4.789h1.69a1.6,1.6,0,0,0,0-3.192H342.3a1.6,1.6,0,0,0-1.369.775l-4.788,7.981a1.6,1.6,0,0,0,1.369,2.418h70.229a1.6,1.6,0,0,0,1.369-2.418Z" fill="#fff"/>
        </g>
      </g>
      <g id="Grupo_65944" data-name="Grupo 65944">
        <g id="Grupo_65943" data-name="Grupo 65943">
          <path id="Trazado_143582" data-name="Trazado 143582" d="M401.154,1193.377a1.589,1.589,0,0,0-.993-.713l-21.758-5.089a1.6,1.6,0,0,0-1.918,1.191l-1.641,7.014a1.6,1.6,0,1,0,3.108.726l1.278-5.459,18.65,4.362-2.931,12.53a1.6,1.6,0,0,0,3.108.726l3.294-14.083A1.584,1.584,0,0,0,401.154,1193.377Z" fill="#fff"/>
        </g>
      </g>
      <g id="Grupo_65946" data-name="Grupo 65946">
        <g id="Grupo_65945" data-name="Grupo 65945">
          <path id="Trazado_143583" data-name="Trazado 143583" d="M373.471,1197.15l-1.454-12.3a1.6,1.6,0,0,0-1.773-1.4l-26.7,3.156a1.594,1.594,0,0,0-1.4,1.772l2.424,20.516a1.6,1.6,0,0,0,1.583,1.409,1.709,1.709,0,0,0,.19-.011,1.6,1.6,0,0,0,1.4-1.773l-2.238-18.931,23.526-2.781,1.266,10.715a1.6,1.6,0,1,0,3.171-.373Z" fill="#fff"/>
        </g>
      </g>
      <g id="Grupo_65948" data-name="Grupo 65948">
        <g id="Grupo_65947" data-name="Grupo 65947">
          <path id="Trazado_143584" data-name="Trazado 143584" d="M386.094,1208.309l-3.168-13.175a1.593,1.593,0,0,0-1.925-1.177l-25.713,6.183a1.6,1.6,0,0,0-1.179,1.925l1.584,6.585a1.6,1.6,0,1,0,3.1-.746l-1.21-5.033,22.609-5.437,2.795,11.622a1.6,1.6,0,0,0,1.55,1.223,1.562,1.562,0,0,0,.375-.045A1.6,1.6,0,0,0,386.094,1208.309Z" fill="#fff"/>
        </g>
      </g>
      <g id="Grupo_65950" data-name="Grupo 65950">
        <g id="Grupo_65949" data-name="Grupo 65949">
          <path id="Trazado_143585" data-name="Trazado 143585" d="M409.337,1208.834a1.6,1.6,0,0,0-1.6-1.514H337.513a1.6,1.6,0,0,0-1.6,1.514l-3.192,62.249a1.6,1.6,0,0,0,1.594,1.678h76.614a1.6,1.6,0,0,0,1.6-1.678ZM336,1269.568l3.028-59.056h67.2l3.029,59.056Z" fill="#fff"/>
        </g>
      </g>
      <g id="Grupo_65952" data-name="Grupo 65952">
        <g id="Grupo_65951" data-name="Grupo 65951">
          <path id="Trazado_143586" data-name="Trazado 143586" d="M384.6,1213.7a4.789,4.789,0,1,0,4.788,4.788A4.794,4.794,0,0,0,384.6,1213.7Zm0,6.385a1.6,1.6,0,1,1,1.6-1.6A1.6,1.6,0,0,1,384.6,1220.089Z" fill="#fff"/>
        </g>
      </g>
      <g id="Grupo_65954" data-name="Grupo 65954">
        <g id="Grupo_65953" data-name="Grupo 65953">
          <path id="Trazado_143587" data-name="Trazado 143587" d="M360.656,1213.7a4.789,4.789,0,1,0,4.788,4.788A4.793,4.793,0,0,0,360.656,1213.7Zm0,6.385a1.6,1.6,0,1,1,1.6-1.6A1.6,1.6,0,0,1,360.656,1220.089Z" fill="#fff"/>
        </g>
      </g>
      <g id="Grupo_65956" data-name="Grupo 65956">
        <g id="Grupo_65955" data-name="Grupo 65955">
          <path id="Trazado_143588" data-name="Trazado 143588" d="M384.6,1218.492h-.123A1.6,1.6,0,0,0,383,1220.7v8.163a10.375,10.375,0,0,1-20.75,0v-8.778a1.6,1.6,0,0,0-3.192,0v8.778a13.567,13.567,0,1,0,27.134,0v-8.778A1.6,1.6,0,0,0,384.6,1218.492Z" fill="#fff"/>
        </g>
      </g>
    </g>
  </g>
</svg>
