<svg xmlns="http://www.w3.org/2000/svg" width="476.513" height="385.906" viewBox="0 0 476.513 385.906">
  <g id="Grupo_80266" data-name="Grupo 80266" transform="translate(-6087.328 6127.5)">
    <rect id="Rectángulo_22907" data-name="Rectángulo 22907" width="232.282" height="111.72" rx="14.042" transform="translate(6087.329 -6025.257)" fill="#e28b7f"/>
    <rect id="Rectángulo_22908" data-name="Rectángulo 22908" width="232.282" height="112.107" rx="14.042" transform="translate(6200.652 -5918.432)" fill="#db6e5f"/>
    <g id="Grupo_78138" data-name="Grupo 78138" transform="translate(5376.37 -11326.325)">
      <path id="Trazado_179189" data-name="Trazado 179189" d="M1051.955,5398.841a2.728,2.728,0,0,1-2.728-2.728v-71.131a18.121,18.121,0,0,0-18.1-18.1H954.478a2.728,2.728,0,0,1,0-5.456h76.648a23.583,23.583,0,0,1,23.557,23.556v71.131A2.728,2.728,0,0,1,1051.955,5398.841Z" fill="#a45347"/>
    </g>
    <g id="Grupo_78139" data-name="Grupo 78139" transform="translate(5376.37 -11326.325)">
      <path id="Trazado_179190" data-name="Trazado 179190" d="M713.686,5422.585a2.728,2.728,0,0,1,2.728,2.728v71.131a18.121,18.121,0,0,0,18.1,18.1h76.648a2.728,2.728,0,0,1,0,5.456H734.515a23.583,23.583,0,0,1-23.557-23.556v-71.131A2.728,2.728,0,0,1,713.686,5422.585Z" fill="#a45347"/>
    </g>
    <rect id="Rectángulo_22909" data-name="Rectángulo 22909" width="311.46" height="183.816" rx="12.363" transform="translate(6104.401 -6005.445)" fill="#fceeed"/>
    <text id="Las_estructuras_de_datos_no_lineales_incluyen_grafos_y_árboles._" data-name="Las estructuras de datos no lineales incluyen grafos y árboles.
" transform="translate(6136.966 -5962.84)" fill="#6e3730" font-size="20" font-family="SegoeUI, Segoe UI"><tspan x="0" y="22">Las estructuras de datos no </tspan><tspan x="0" y="46">lineales incluyen grafos y </tspan><tspan x="0" y="70">árboles.</tspan><tspan font-family="MyriadPro-Regular"><tspan x="0" y="94"></tspan></tspan></text>
    <path id="Trazado_179192" data-name="Trazado 179192" d="M1110.784,5200.325a4.281,4.281,0,0,0-4.281,4.281v304.183a4.281,4.281,0,0,1-4.28,4.281l-18.529,0a4.281,4.281,0,0,0-3.35,6.945l23.4,29.437,25.561,32.159a4.28,4.28,0,0,0,6.7,0l25.545-32.168,23.415-29.434a4.281,4.281,0,0,0-3.35-6.945h-18.522a4.281,4.281,0,0,1-4.281-4.281V5204.609a4.28,4.28,0,0,0-4.28-4.28Z" transform="translate(5376.37 -11326.325)" fill="#e9a89f" stroke="#a45347" stroke-miterlimit="10" stroke-width="3"/>
    <g id="Grupo_78140" data-name="Grupo 78140" transform="translate(5376.37 -11326.325)">
      <path id="Trazado_179193" data-name="Trazado 179193" d="M1133.419,5223v-6.772h-4.66v7.918h-2.527v-11.2h16.351v11.174h-2.527v-7.9h-4.11V5223Z" fill="#a45347"/>
      <path id="Trazado_179194" data-name="Trazado 179194" d="M1129.578,5232.457a1.148,1.148,0,0,0,.933-.523,5.316,5.316,0,0,0,.7-1.937,7.8,7.8,0,0,1,1.3-3.251,2.813,2.813,0,0,1,2.341-1.1,3.348,3.348,0,0,1,2.668,1.32,5.359,5.359,0,0,1,1.094,3.532,5.809,5.809,0,0,1-1.088,3.7,3.218,3.218,0,0,1-2.752,1.319l-.068-.022v-3.167a1.605,1.605,0,0,0,1.191-.466,2.234,2.234,0,0,0,.073-2.617,1.226,1.226,0,0,0-.972-.456,1.111,1.111,0,0,0-.921.478,5.21,5.21,0,0,0-.639,1.938,7.847,7.847,0,0,1-1.321,3.334,2.9,2.9,0,0,1-2.4,1.09,3.192,3.192,0,0,1-2.679-1.4,6.085,6.085,0,0,1-1.039-3.705,5.629,5.629,0,0,1,1.231-3.836,3.437,3.437,0,0,1,2.8-1.342l.068.023v3a1.7,1.7,0,0,0-1.415.639,2.646,2.646,0,0,0-.439,1.583,2.275,2.275,0,0,0,.36,1.388A1.162,1.162,0,0,0,1129.578,5232.457Z" fill="#a45347"/>
      <path id="Trazado_179195" data-name="Trazado 179195" d="M1141.358,5241.642h-2.975v2.045h-2.3v-2.045h-6.188a1.429,1.429,0,0,0-1.011.293,1.038,1.038,0,0,0-.3.785,2.984,2.984,0,0,0,.028.445,3.718,3.718,0,0,0,.095.432l-2.369.28a6.471,6.471,0,0,1-.253-.965,5.75,5.75,0,0,1-.085-1.022,3.5,3.5,0,0,1,.933-2.611,4.089,4.089,0,0,1,2.954-.916h6.2v-1.774h2.3v1.774h2.975Z" fill="#a45347"/>
      <path id="Trazado_179196" data-name="Trazado 179196" d="M1135.564,5252.166l.034-1.2a2.178,2.178,0,0,0-.3-1.2,1.914,1.914,0,0,0-.854-.718h-8.208v-3.269h12.151v3.044l-1.8.145a3.846,3.846,0,0,1,1.488,1.108,2.459,2.459,0,0,1,.533,1.566,2.387,2.387,0,0,1-.039.455c-.026.138-.058.279-.095.42Z" fill="#a45347"/>
      <path id="Trazado_179197" data-name="Trazado 179197" d="M1127.983,5261.252a4.083,4.083,0,0,1-1.47-1.427,4.2,4.2,0,0,1,.713-4.992,5.672,5.672,0,0,1,3.824-1.083h7.333v3.267h-7.373a3.162,3.162,0,0,0-1.907.449,1.574,1.574,0,0,0-.58,1.326,3.273,3.273,0,0,0,.252,1.347,2.282,2.282,0,0,0,.749.921h8.859v3.279h-12.151v-2.8Z" fill="#a45347"/>
      <path id="Trazado_179198" data-name="Trazado 179198" d="M1128.523,5271.909a1.935,1.935,0,0,0,.507,1.4,1.792,1.792,0,0,0,1.357.528v2.976l-.068.034a3.787,3.787,0,0,1-3.083-1.387,5.847,5.847,0,0,1,.478-7.743,6.544,6.544,0,0,1,4.414-1.471h.336a6.59,6.59,0,0,1,4.414,1.465,5.18,5.18,0,0,1,1.729,4.184,5.1,5.1,0,0,1-1.28,3.621,4.249,4.249,0,0,1-3.369,1.331l-.067-.022v-2.988a2.373,2.373,0,0,0,1.566-.516,1.753,1.753,0,0,0,.624-1.426,1.905,1.905,0,0,0-1.01-1.837,5.56,5.56,0,0,0-2.6-.533h-.337a5.539,5.539,0,0,0-2.618.533A1.923,1.923,0,0,0,1128.523,5271.909Z" fill="#a45347"/>
      <path id="Trazado_179199" data-name="Trazado 179199" d="M1141.358,5282.611h-2.975v2.045h-2.3v-2.045h-6.188a1.429,1.429,0,0,0-1.011.293,1.039,1.039,0,0,0-.3.785,2.97,2.97,0,0,0,.028.444,3.73,3.73,0,0,0,.095.433l-2.369.28a6.457,6.457,0,0,1-.253-.966,5.727,5.727,0,0,1-.085-1.021,3.494,3.494,0,0,1,.933-2.611,4.084,4.084,0,0,1,2.954-.916h6.2v-1.774h2.3v1.774h2.975Z" fill="#a45347"/>
      <path id="Trazado_179200" data-name="Trazado 179200" d="M1127.983,5294.168a4.088,4.088,0,0,1-1.47-1.426,4.2,4.2,0,0,1,.713-4.992,5.667,5.667,0,0,1,3.824-1.084h7.333v3.267h-7.373a3.162,3.162,0,0,0-1.907.449,1.577,1.577,0,0,0-.58,1.327,3.279,3.279,0,0,0,.252,1.347,2.273,2.273,0,0,0,.749.92h8.859v3.279h-12.151v-2.795Z" fill="#a45347"/>
      <path id="Trazado_179201" data-name="Trazado 179201" d="M1135.564,5306.117l.034-1.2a2.181,2.181,0,0,0-.3-1.2,1.913,1.913,0,0,0-.854-.718h-8.208v-3.269h12.151v3.044l-1.8.146a3.83,3.83,0,0,1,1.488,1.107,2.461,2.461,0,0,1,.533,1.566,2.392,2.392,0,0,1-.039.455c-.026.138-.058.279-.095.42Z" fill="#a45347"/>
      <path id="Trazado_179202" data-name="Trazado 179202" d="M1126.232,5314.91a7.01,7.01,0,0,1,.875-.309,6.194,6.194,0,0,1,.944-.185,4.519,4.519,0,0,1-1.472-1.331,3.323,3.323,0,0,1-.584-1.97,4.1,4.1,0,0,1,.984-2.944,3.521,3.521,0,0,1,2.678-1.033,3.2,3.2,0,0,1,2.768,1.376,6.873,6.873,0,0,1,.982,4.015v1.831h.967a1.888,1.888,0,0,0,1.358-.46,2.147,2.147,0,0,0,.1-2.589,1.369,1.369,0,0,0-1.073-.433l.012-3.167.067-.01a3.081,3.081,0,0,1,2.656,1.336,5.821,5.821,0,0,1,1.117,3.716,5.429,5.429,0,0,1-1.106,3.539,3.831,3.831,0,0,1-3.15,1.358h-5.02a9.394,9.394,0,0,0-1.605.13,8.084,8.084,0,0,0-1.494.409Zm2.189-3a2.814,2.814,0,0,0,.428,1.539,2.213,2.213,0,0,0,.988.909h1.718v-1.831a2.186,2.186,0,0,0-.523-1.583,1.69,1.69,0,0,0-1.263-.539,1.263,1.263,0,0,0-.977.4A1.567,1.567,0,0,0,1128.421,5311.912Z" fill="#a45347"/>
      <path id="Trazado_179203" data-name="Trazado 179203" d="M1129.578,5326.7a1.15,1.15,0,0,0,.933-.523,5.309,5.309,0,0,0,.7-1.937,7.8,7.8,0,0,1,1.3-3.251,2.813,2.813,0,0,1,2.341-1.1,3.349,3.349,0,0,1,2.668,1.32,5.362,5.362,0,0,1,1.094,3.532,5.81,5.81,0,0,1-1.088,3.7,3.218,3.218,0,0,1-2.752,1.319l-.068-.022v-3.167a1.6,1.6,0,0,0,1.191-.466,2.233,2.233,0,0,0,.073-2.617,1.225,1.225,0,0,0-.972-.455,1.11,1.11,0,0,0-.921.477,5.21,5.21,0,0,0-.639,1.938,7.857,7.857,0,0,1-1.321,3.335,2.9,2.9,0,0,1-2.4,1.089,3.192,3.192,0,0,1-2.679-1.4,6.083,6.083,0,0,1-1.039-3.705,5.63,5.63,0,0,1,1.231-3.836,3.439,3.439,0,0,1,2.8-1.342l.068.023v3a1.7,1.7,0,0,0-1.415.639,2.646,2.646,0,0,0-.439,1.583,2.276,2.276,0,0,0,.36,1.388A1.16,1.16,0,0,0,1129.578,5326.7Z" fill="#a45347"/>
      <path id="Trazado_179204" data-name="Trazado 179204" d="M1131.97,5348.68a6.97,6.97,0,0,1-4.334-1.247,4.12,4.12,0,0,1-1.641-3.48,3.883,3.883,0,0,1,.355-1.7,3.474,3.474,0,0,1,1.038-1.268h-5.828v-3.269h16.823v2.954l-1.438.191a3.889,3.889,0,0,1,1.23,1.3,3.509,3.509,0,0,1,.432,1.768,4.042,4.042,0,0,1-1.762,3.5,7.865,7.865,0,0,1-4.639,1.247Zm.253-3.279a5.893,5.893,0,0,0,2.789-.573,1.866,1.866,0,0,0,1.069-1.752,2.457,2.457,0,0,0-.305-1.263,2.146,2.146,0,0,0-.865-.825h-5.331a2,2,0,0,0-.788.825,2.776,2.776,0,0,0-.269,1.286,1.887,1.887,0,0,0,.933,1.746,4.942,4.942,0,0,0,2.53.556Z" fill="#a45347"/>
      <path id="Trazado_179205" data-name="Trazado 179205" d="M1135.564,5357.091l.034-1.2a2.175,2.175,0,0,0-.3-1.2,1.906,1.906,0,0,0-.854-.719h-8.208V5350.7h12.151v3.044l-1.8.145a3.806,3.806,0,0,1,1.488,1.107,2.461,2.461,0,0,1,.533,1.566,2.4,2.4,0,0,1-.039.455c-.026.139-.058.279-.095.421Z" fill="#a45347"/>
      <path id="Trazado_179206" data-name="Trazado 179206" d="M1141.292,5362.2v-3.28h2.459v3.28Zm-15.06,0v-3.28h12.151v3.28Z" fill="#a45347"/>
      <path id="Trazado_179207" data-name="Trazado 179207" d="M1138.383,5367.941l-1.607.135a4.066,4.066,0,0,1,1.354,1.465,4.215,4.215,0,0,1,.477,2.039,3.7,3.7,0,0,1-.516,2,3.189,3.189,0,0,1-1.561,1.257,4.232,4.232,0,0,1,1.528,1.461,3.972,3.972,0,0,1,.549,2.112,3.5,3.5,0,0,1-1.241,2.835,5.8,5.8,0,0,1-3.779,1.039h-7.355V5379h7.383a3.083,3.083,0,0,0,1.925-.449,1.641,1.641,0,0,0,.541-1.337,2.187,2.187,0,0,0-1.171-2.021c-.142,0-.264,0-.366.012s-.2.011-.31.011h-8v-3.268h7.383a3.1,3.1,0,0,0,1.908-.449,1.628,1.628,0,0,0,.558-1.348,2.53,2.53,0,0,0-.254-1.162,2.221,2.221,0,0,0-.715-.825h-8.88V5364.9h12.151Z" fill="#a45347"/>
      <path id="Trazado_179208" data-name="Trazado 179208" d="M1141.292,5388.246v-3.28h2.459v3.28Zm-15.06,0v-3.28h12.151v3.28Z" fill="#a45347"/>
      <path id="Trazado_179209" data-name="Trazado 179209" d="M1141.358,5394.837h-2.975v2.044h-2.3v-2.044h-6.188a1.434,1.434,0,0,0-1.011.292,1.042,1.042,0,0,0-.3.787,2.965,2.965,0,0,0,.028.443,3.73,3.73,0,0,0,.095.433l-2.369.28a6.456,6.456,0,0,1-.253-.965,5.738,5.738,0,0,1-.085-1.022,3.5,3.5,0,0,1,.933-2.611,4.082,4.082,0,0,1,2.954-.916h6.2v-1.774h2.3v1.774h2.975Z" fill="#a45347"/>
      <path id="Trazado_179210" data-name="Trazado 179210" d="M1141.292,5402.418v-3.28h2.459v3.28Zm-15.06,0v-3.28h12.151v3.28Z" fill="#a45347"/>
      <path id="Trazado_179211" data-name="Trazado 179211" d="M1130.757,5409.5l-1.123.214v.067l1.123.224,7.626,2v3.425l-12.151-4.133v-3.133l12.151-4.133v3.425Z" fill="#a45347"/>
      <path id="Trazado_179212" data-name="Trazado 179212" d="M1126.232,5423.8a7.087,7.087,0,0,1,.875-.308,6.137,6.137,0,0,1,.944-.186,4.516,4.516,0,0,1-1.472-1.33,3.328,3.328,0,0,1-.584-1.971,4.1,4.1,0,0,1,.984-2.943,3.522,3.522,0,0,1,2.678-1.033,3.2,3.2,0,0,1,2.768,1.376,6.873,6.873,0,0,1,.982,4.014v1.832h.967a1.892,1.892,0,0,0,1.358-.46,2.147,2.147,0,0,0,.1-2.589,1.369,1.369,0,0,0-1.073-.433l.012-3.167.067-.011a3.088,3.088,0,0,1,2.656,1.336,5.827,5.827,0,0,1,1.117,3.717,5.427,5.427,0,0,1-1.106,3.538,3.832,3.832,0,0,1-3.15,1.359h-5.02a9.5,9.5,0,0,0-1.605.129,8.05,8.05,0,0,0-1.494.41Zm2.189-3a2.812,2.812,0,0,0,.428,1.539,2.217,2.217,0,0,0,.988.91h1.718v-1.832a2.187,2.187,0,0,0-.523-1.583,1.694,1.694,0,0,0-1.263-.539,1.26,1.26,0,0,0-.977.405A1.563,1.563,0,0,0,1128.421,5420.8Z" fill="#a45347"/>
      <path id="Trazado_179213" data-name="Trazado 179213" d="M1129.578,5435.593a1.147,1.147,0,0,0,.933-.522,5.308,5.308,0,0,0,.7-1.938,7.812,7.812,0,0,1,1.3-3.251,2.814,2.814,0,0,1,2.341-1.095,3.349,3.349,0,0,1,2.668,1.32,5.36,5.36,0,0,1,1.094,3.531,5.805,5.805,0,0,1-1.088,3.7,3.22,3.22,0,0,1-2.752,1.32l-.068-.023v-3.167a1.6,1.6,0,0,0,1.191-.466,2.233,2.233,0,0,0,.073-2.617,1.228,1.228,0,0,0-.972-.455,1.107,1.107,0,0,0-.921.478,5.21,5.21,0,0,0-.639,1.937,7.855,7.855,0,0,1-1.321,3.335,2.9,2.9,0,0,1-2.4,1.09,3.194,3.194,0,0,1-2.679-1.4,6.086,6.086,0,0,1-1.039-3.705,5.627,5.627,0,0,1,1.231-3.836,3.436,3.436,0,0,1,2.8-1.342l.068.022v3a1.7,1.7,0,0,0-1.415.64,2.643,2.643,0,0,0-.439,1.583,2.281,2.281,0,0,0,.36,1.388A1.161,1.161,0,0,0,1129.578,5435.593Z" fill="#a45347"/>
      <path id="Trazado_179214" data-name="Trazado 179214" d="M1138.383,5449.609l-1.741.145a4.461,4.461,0,0,1,1.449,1.494,3.868,3.868,0,0,1,.516,1.988,3.654,3.654,0,0,1-1.157,2.875,5.335,5.335,0,0,1-3.627,1.033h-7.591v-3.291h7.6a2.462,2.462,0,0,0,1.739-.494,1.981,1.981,0,0,0,.513-1.493,2.53,2.53,0,0,0-.265-1.168,2.38,2.38,0,0,0-.749-.864h-8.835v-3.28h12.151Z" fill="#a45347"/>
      <path id="Trazado_179215" data-name="Trazado 179215" d="M1132.419,5459.087a6.515,6.515,0,0,1,4.453,1.516,5.283,5.283,0,0,1,1.735,4.2,5.342,5.342,0,0,1-1.729,4.223,6.487,6.487,0,0,1-4.459,1.527h-.235a6.5,6.5,0,0,1-4.464-1.521,6,6,0,0,1,0-8.423,6.5,6.5,0,0,1,4.464-1.522Zm-.229,3.268a5.275,5.275,0,0,0-2.664.584,2.017,2.017,0,0,0-1,1.887,2,2,0,0,0,1.008,1.858,5.232,5.232,0,0,0,2.659.59h.235a5.182,5.182,0,0,0,2.635-.595,2.016,2.016,0,0,0,1.021-1.876,1.99,1.99,0,0,0-1.026-1.858,5.224,5.224,0,0,0-2.63-.59Z" fill="#a45347"/>
      <path id="Trazado_179216" data-name="Trazado 179216" d="M1126.232,5481.75v-3.28h17.519v3.28Z" fill="#a45347"/>
      <path id="Trazado_179217" data-name="Trazado 179217" d="M1141.292,5487.893v-3.279h2.459v3.279Zm-15.06,0v-3.279h12.151v3.279Z" fill="#a45347"/>
      <path id="Trazado_179218" data-name="Trazado 179218" d="M1138.383,5493.587l-1.741.146a4.445,4.445,0,0,1,1.449,1.493,3.871,3.871,0,0,1,.516,1.988,3.652,3.652,0,0,1-1.157,2.875,5.33,5.33,0,0,1-3.627,1.034h-7.591v-3.291h7.6a2.457,2.457,0,0,0,1.739-.5,1.981,1.981,0,0,0,.513-1.493,2.536,2.536,0,0,0-.265-1.168,2.4,2.4,0,0,0-.749-.864h-8.835v-3.279h12.151Z" fill="#a45347"/>
      <path id="Trazado_179219" data-name="Trazado 179219" d="M1125.995,5508.951a5.474,5.474,0,0,1,1.686-4.2,6.024,6.024,0,0,1,4.278-1.573h.449a6.639,6.639,0,0,1,4.458,1.489,5.547,5.547,0,0,1,.259,7.81,5.7,5.7,0,0,1-4.009,1.359h-1.786v-7.254l-.067-.023a3.165,3.165,0,0,0-1.969.8,2.506,2.506,0,0,0-.771,1.937,6.355,6.355,0,0,0,.218,1.809,8.4,8.4,0,0,0,.692,1.572l-2.028.887a6.035,6.035,0,0,1-1.008-1.943A8.39,8.39,0,0,1,1125.995,5508.951Zm10.086-.293a1.708,1.708,0,0,0-.7-1.438,3.627,3.627,0,0,0-1.83-.65l-.057.033v4.021h.293a2.633,2.633,0,0,0,1.667-.489A1.76,1.76,0,0,0,1136.081,5508.658Z" fill="#a45347"/>
      <path id="Trazado_179220" data-name="Trazado 179220" d="M1126.232,5522.877a6.859,6.859,0,0,1,.875-.31,6.078,6.078,0,0,1,.944-.185,4.535,4.535,0,0,1-1.472-1.331,3.326,3.326,0,0,1-.584-1.971,4.1,4.1,0,0,1,.984-2.942,3.518,3.518,0,0,1,2.678-1.033,3.2,3.2,0,0,1,2.768,1.375,6.877,6.877,0,0,1,.982,4.016v1.83h.967a1.89,1.89,0,0,0,1.358-.461,2.146,2.146,0,0,0,.1-2.588,1.365,1.365,0,0,0-1.073-.433l.012-3.167.067-.011a3.087,3.087,0,0,1,2.656,1.336,5.827,5.827,0,0,1,1.117,3.718,5.427,5.427,0,0,1-1.106,3.537,3.826,3.826,0,0,1-3.15,1.36h-5.02a9.5,9.5,0,0,0-1.605.129,7.973,7.973,0,0,0-1.494.41Zm2.189-3a2.81,2.81,0,0,0,.428,1.539,2.217,2.217,0,0,0,.988.91h1.718v-1.83a2.183,2.183,0,0,0-.523-1.584,1.688,1.688,0,0,0-1.263-.539,1.259,1.259,0,0,0-.977.4A1.567,1.567,0,0,0,1128.421,5519.877Z" fill="#a45347"/>
      <path id="Trazado_179221" data-name="Trazado 179221" d="M1126.232,5531.546v-3.279h17.519v3.279Z" fill="#a45347"/>
      <path id="Trazado_179222" data-name="Trazado 179222" d="M1125.995,5539.621a5.474,5.474,0,0,1,1.686-4.2,6.027,6.027,0,0,1,4.278-1.572h.449a6.651,6.651,0,0,1,4.458,1.487,5.549,5.549,0,0,1,.259,7.812,5.709,5.709,0,0,1-4.009,1.358h-1.786v-7.253l-.067-.024a3.165,3.165,0,0,0-1.969.8,2.509,2.509,0,0,0-.771,1.937,6.35,6.35,0,0,0,.218,1.809,8.368,8.368,0,0,0,.692,1.572l-2.028.887a6.019,6.019,0,0,1-1.008-1.942A8.4,8.4,0,0,1,1125.995,5539.621Zm10.086-.292a1.708,1.708,0,0,0-.7-1.438,3.614,3.614,0,0,0-1.83-.651l-.057.033v4.021h.293a2.642,2.642,0,0,0,1.667-.488A1.761,1.761,0,0,0,1136.081,5539.329Z" fill="#a45347"/>
      <path id="Trazado_179223" data-name="Trazado 179223" d="M1129.578,5552.985a1.148,1.148,0,0,0,.933-.523,5.3,5.3,0,0,0,.7-1.937,7.791,7.791,0,0,1,1.3-3.25,2.813,2.813,0,0,1,2.341-1.1,3.347,3.347,0,0,1,2.668,1.321,5.356,5.356,0,0,1,1.094,3.531,5.808,5.808,0,0,1-1.088,3.7,3.219,3.219,0,0,1-2.752,1.318l-.068-.021v-3.168a1.6,1.6,0,0,0,1.191-.465,2.234,2.234,0,0,0,.073-2.617,1.226,1.226,0,0,0-.972-.455,1.108,1.108,0,0,0-.921.476,5.23,5.23,0,0,0-.639,1.938,7.865,7.865,0,0,1-1.321,3.336,2.9,2.9,0,0,1-2.4,1.09,3.2,3.2,0,0,1-2.679-1.405,6.085,6.085,0,0,1-1.039-3.706,5.63,5.63,0,0,1,1.231-3.835,3.437,3.437,0,0,1,2.8-1.341l.068.021v3a1.7,1.7,0,0,0-1.415.64,2.642,2.642,0,0,0-.439,1.584,2.272,2.272,0,0,0,.36,1.386A1.156,1.156,0,0,0,1129.578,5552.985Z" fill="#a45347"/>
    </g>
  </g>
</svg>
