<svg xmlns="http://www.w3.org/2000/svg" width="866.059" height="195.825" viewBox="0 0 866.059 195.825">
  <g id="Grupo_66063" data-name="Grupo 66063" transform="translate(-224.057 -4676.647)">
    <path id="Trazado_144603" data-name="Trazado 144603" d="M415.085,4744.309a97.905,97.905,0,1,0-62.854,123.362A98.018,98.018,0,0,0,415.085,4744.309Zm-25.642,64.634a75.72,75.72,0,1,1,4.594-57.8A75.24,75.24,0,0,1,389.443,4808.943Z" fill="#6ea3d9"/>
    <path id="Trazado_144604" data-name="Trazado 144604" d="M745.457,4744.309A97.906,97.906,0,1,0,682.6,4867.671,98.019,98.019,0,0,0,745.457,4744.309Zm-25.642,64.634a75.721,75.721,0,1,1,4.593-57.8A75.244,75.244,0,0,1,719.815,4808.943Z" fill="#3d85cc"/>
    <path id="Trazado_144605" data-name="Trazado 144605" d="M494.67,4774.559v-27.253l24.035,13.637,24.04,13.617-24.034,13.625-24.035,13.626Z" fill="#6ea3d9"/>
    <rect id="Rect치ngulo_5354" data-name="Rect치ngulo 5354" width="72.857" height="24.651" transform="translate(431.524 4762.233)" fill="#6ea3d9"/>
    <path id="Trazado_144606" data-name="Trazado 144606" d="M1085.316,4744.309a97.905,97.905,0,1,0-62.854,123.362A98.019,98.019,0,0,0,1085.316,4744.309Zm-25.642,64.634a75.72,75.72,0,1,1,4.594-57.8A75.241,75.241,0,0,1,1059.674,4808.943Z" fill="#0d66bf"/>
    <path id="Trazado_144607" data-name="Trazado 144607" d="M834.53,4774.559v-27.253l24.035,13.637,24.04,13.617-24.034,13.625-24.035,13.626Z" fill="#3d85cc"/>
    <rect id="Rect치ngulo_5355" data-name="Rect치ngulo 5355" width="72.857" height="24.651" transform="translate(771.383 4762.233)" fill="#3d85cc"/>
    <g id="Grupo_66060" data-name="Grupo 66060">
      <path id="Trazado_144608" data-name="Trazado 144608" d="M287.736,4759.172v4.64H285.17v-12.8h5.1a5.041,5.041,0,0,1,3.472,1.125,4.089,4.089,0,0,1,0,5.916,5.069,5.069,0,0,1-3.472,1.116Zm0-1.978h2.531a2.129,2.129,0,0,0,1.626-.585,2.073,2.073,0,0,0,.554-1.489,2.173,2.173,0,0,0-.549-1.524,2.1,2.1,0,0,0-1.631-.6h-2.531Z"/>
      <path id="Trazado_144609" data-name="Trazado 144609" d="M301.684,4756.509l-.94-.027a1.7,1.7,0,0,0-.94.238,1.492,1.492,0,0,0-.563.668v6.424h-2.558V4754.3h2.382l.114,1.406a3.007,3.007,0,0,1,.866-1.164,1.928,1.928,0,0,1,1.226-.418,1.956,1.956,0,0,1,.356.031c.109.021.219.045.33.074Z"/>
      <path id="Trazado_144610" data-name="Trazado 144610" d="M307.2,4764a4.284,4.284,0,0,1-3.287-1.318,4.718,4.718,0,0,1-1.23-3.349v-.352a5.2,5.2,0,0,1,1.164-3.489,4.343,4.343,0,0,1,6.113-.2,4.462,4.462,0,0,1,1.063,3.138v1.4h-5.677l-.018.053a2.47,2.47,0,0,0,.628,1.541,1.968,1.968,0,0,0,1.517.6,4.923,4.923,0,0,0,1.415-.171,6.435,6.435,0,0,0,1.23-.541l.694,1.586a4.724,4.724,0,0,1-1.52.79A6.587,6.587,0,0,1,307.2,4764Zm-.228-7.893a1.336,1.336,0,0,0-1.125.545,2.833,2.833,0,0,0-.51,1.433l.026.044h3.147v-.229a2.06,2.06,0,0,0-.383-1.305A1.379,1.379,0,0,0,306.967,4756.1Z"/>
      <path id="Trazado_144611" data-name="Trazado 144611" d="M316.5,4762.019a1.515,1.515,0,0,0,1.1-.4,1.4,1.4,0,0,0,.413-1.062h2.33l.026.053a2.958,2.958,0,0,1-1.086,2.412,4.575,4.575,0,0,1-6.06-.373,5.125,5.125,0,0,1-1.151-3.454v-.264a5.157,5.157,0,0,1,1.147-3.454,4.056,4.056,0,0,1,3.274-1.353,3.991,3.991,0,0,1,2.834,1,3.329,3.329,0,0,1,1.042,2.636l-.018.053h-2.338a1.857,1.857,0,0,0-.4-1.226,1.371,1.371,0,0,0-1.116-.488,1.49,1.49,0,0,0-1.437.79,4.35,4.35,0,0,0-.418,2.037v.262a4.336,4.336,0,0,0,.418,2.05A1.5,1.5,0,0,0,316.5,4762.019Z"/>
      <path id="Trazado_144612" data-name="Trazado 144612" d="M324.527,4752.026h-2.566V4750.1h2.566Zm0,11.786h-2.566V4754.3h2.566Z"/>
      <path id="Trazado_144613" data-name="Trazado 144613" d="M326.241,4758.97a5.108,5.108,0,0,1,1.187-3.486,4.685,4.685,0,0,1,6.591,0,5.078,5.078,0,0,1,1.2,3.49v.184a5.083,5.083,0,0,1-1.191,3.494,4.7,4.7,0,0,1-6.592,0,5.083,5.083,0,0,1-1.191-3.494Zm2.558.179a4.123,4.123,0,0,0,.457,2.085,1.757,1.757,0,0,0,2.931,0,4.1,4.1,0,0,0,.461-2.08v-.183a4.053,4.053,0,0,0-.466-2.063,1.576,1.576,0,0,0-1.467-.8,1.559,1.559,0,0,0-1.455.8,4.092,4.092,0,0,0-.461,2.059Z"/>
      <path id="Trazado_144614" data-name="Trazado 144614" d="M340.884,4759.137a6.177,6.177,0,0,1,.971-3.63,3.153,3.153,0,0,1,2.738-1.38,2.664,2.664,0,0,1,1.283.307,3.1,3.1,0,0,1,1,.879V4750.1h2.575v13.711h-2.206l-.211-1.16a3.144,3.144,0,0,1-1.059,1,2.811,2.811,0,0,1-1.4.343,3.216,3.216,0,0,1-2.72-1.283,5.478,5.478,0,0,1-.971-3.393Zm2.557.186a3.918,3.918,0,0,0,.422,1.976,1.466,1.466,0,0,0,1.371.72,1.992,1.992,0,0,0,.967-.225,1.808,1.808,0,0,0,.677-.658v-4.077a1.984,1.984,0,0,0-.673-.7,1.777,1.777,0,0,0-.953-.252,1.449,1.449,0,0,0-1.376.84,4.776,4.776,0,0,0-.435,2.193Z"/>
      <path id="Trazado_144615" data-name="Trazado 144615" d="M355.649,4764a4.284,4.284,0,0,1-3.287-1.318,4.718,4.718,0,0,1-1.23-3.349v-.352a5.2,5.2,0,0,1,1.164-3.489,4.343,4.343,0,0,1,6.113-.2,4.462,4.462,0,0,1,1.063,3.138v1.4H353.8l-.018.053a2.465,2.465,0,0,0,.629,1.541,1.964,1.964,0,0,0,1.516.6,4.923,4.923,0,0,0,1.415-.171,6.434,6.434,0,0,0,1.23-.541l.7,1.586a4.74,4.74,0,0,1-1.521.79A6.587,6.587,0,0,1,355.649,4764Zm-.228-7.893a1.336,1.336,0,0,0-1.125.545,2.833,2.833,0,0,0-.51,1.433l.026.044h3.147v-.229a2.06,2.06,0,0,0-.383-1.305A1.377,1.377,0,0,0,355.421,4756.1Z"/>
      <path id="Trazado_144616" data-name="Trazado 144616" d="M280.033,4780.137a6.177,6.177,0,0,1,.971-3.63,3.153,3.153,0,0,1,2.738-1.38,2.664,2.664,0,0,1,1.283.307,3.1,3.1,0,0,1,1,.879V4771.1H288.6v13.711H286.4l-.211-1.16a3.145,3.145,0,0,1-1.059,1,2.811,2.811,0,0,1-1.4.343,3.216,3.216,0,0,1-2.72-1.283,5.478,5.478,0,0,1-.971-3.393Zm2.557.186a3.918,3.918,0,0,0,.422,1.976,1.466,1.466,0,0,0,1.371.72,1.992,1.992,0,0,0,.967-.225,1.808,1.808,0,0,0,.677-.658v-4.077a1.984,1.984,0,0,0-.673-.7,1.778,1.778,0,0,0-.953-.252,1.449,1.449,0,0,0-1.376.84,4.776,4.776,0,0,0-.435,2.193Z"/>
      <path id="Trazado_144617" data-name="Trazado 144617" d="M294.8,4785a4.284,4.284,0,0,1-3.287-1.318,4.718,4.718,0,0,1-1.23-3.349v-.352a5.2,5.2,0,0,1,1.164-3.489,4.343,4.343,0,0,1,6.113-.2,4.462,4.462,0,0,1,1.063,3.138v1.4h-5.677l-.018.053a2.47,2.47,0,0,0,.628,1.541,1.968,1.968,0,0,0,1.517.6,4.923,4.923,0,0,0,1.415-.171,6.435,6.435,0,0,0,1.23-.541l.694,1.586a4.724,4.724,0,0,1-1.52.79A6.587,6.587,0,0,1,294.8,4785Zm-.228-7.893a1.336,1.336,0,0,0-1.125.545,2.833,2.833,0,0,0-.51,1.433l.026.044h3.147v-.229a2.06,2.06,0,0,0-.383-1.305A1.377,1.377,0,0,0,294.57,4777.1Z"/>
      <path id="Trazado_144618" data-name="Trazado 144618" d="M305.257,4782.193a.9.9,0,0,0-.409-.729,4.155,4.155,0,0,0-1.516-.545,6.121,6.121,0,0,1-2.544-1.015,2.205,2.205,0,0,1-.857-1.833,2.618,2.618,0,0,1,1.033-2.087,4.189,4.189,0,0,1,2.764-.857,4.54,4.54,0,0,1,2.9.852,2.519,2.519,0,0,1,1.033,2.154l-.018.052H305.16a1.253,1.253,0,0,0-.364-.931,1.748,1.748,0,0,0-2.048-.057.956.956,0,0,0-.356.76.866.866,0,0,0,.373.721,4.106,4.106,0,0,0,1.517.5,6.15,6.15,0,0,1,2.61,1.032,2.273,2.273,0,0,1,.852,1.877,2.5,2.5,0,0,1-1.1,2.1,4.756,4.756,0,0,1-2.9.814,4.412,4.412,0,0,1-3-.962,2.692,2.692,0,0,1-1.05-2.193l.017-.053h2.347a1.329,1.329,0,0,0,.5,1.107,2.063,2.063,0,0,0,1.239.343,1.787,1.787,0,0,0,1.086-.281A.907.907,0,0,0,305.257,4782.193Z"/>
      <path id="Trazado_144619" data-name="Trazado 144619" d="M311.743,4775.3l.115,1.362a3.485,3.485,0,0,1,1.169-1.134,3.042,3.042,0,0,1,1.555-.4,2.863,2.863,0,0,1,2.25.905,4.181,4.181,0,0,1,.809,2.839v5.941h-2.575v-5.946a1.931,1.931,0,0,0-.387-1.361,1.555,1.555,0,0,0-1.169-.4,1.987,1.987,0,0,0-.914.207,1.878,1.878,0,0,0-.677.586v6.915h-2.566V4775.3Z"/>
      <path id="Trazado_144620" data-name="Trazado 144620" d="M325.138,4784.812a5.394,5.394,0,0,1-.242-.685,4.907,4.907,0,0,1-.145-.738,3.548,3.548,0,0,1-1.041,1.151,2.6,2.6,0,0,1-1.543.457,3.207,3.207,0,0,1-2.3-.769,2.752,2.752,0,0,1-.809-2.1,2.509,2.509,0,0,1,1.077-2.167,5.382,5.382,0,0,1,3.142-.769h1.432v-.756a1.479,1.479,0,0,0-.36-1.063,1.4,1.4,0,0,0-1.064-.378,1.384,1.384,0,0,0-.962.3,1.066,1.066,0,0,0-.338.838l-2.479-.008-.009-.053a2.414,2.414,0,0,1,1.046-2.078,4.559,4.559,0,0,1,2.909-.875,4.253,4.253,0,0,1,2.769.865,3,3,0,0,1,1.064,2.466v3.929a7.357,7.357,0,0,0,.1,1.256,6.29,6.29,0,0,0,.32,1.169Zm-2.347-1.713a2.209,2.209,0,0,0,1.2-.334,1.74,1.74,0,0,0,.712-.774v-1.345h-1.432a1.718,1.718,0,0,0-1.24.409,1.327,1.327,0,0,0-.421.989.986.986,0,0,0,.316.764A1.224,1.224,0,0,0,322.791,4783.1Z"/>
      <path id="Trazado_144621" data-name="Trazado 144621" d="M332.275,4772.974v2.329h1.6v1.8h-1.6v4.843a1.12,1.12,0,0,0,.228.791.816.816,0,0,0,.615.237,2.183,2.183,0,0,0,.348-.022,2.955,2.955,0,0,0,.338-.074l.22,1.854a5.3,5.3,0,0,1-.756.2,4.757,4.757,0,0,1-.8.065,2.731,2.731,0,0,1-2.043-.73,3.2,3.2,0,0,1-.717-2.311V4777.1H328.32v-1.8h1.388v-2.329Z"/>
      <path id="Trazado_144622" data-name="Trazado 144622" d="M341.09,4784.812a5.394,5.394,0,0,1-.242-.685,4.907,4.907,0,0,1-.145-.738,3.537,3.537,0,0,1-1.041,1.151,2.6,2.6,0,0,1-1.543.457,3.207,3.207,0,0,1-2.3-.769,2.756,2.756,0,0,1-.809-2.1,2.509,2.509,0,0,1,1.077-2.167,5.384,5.384,0,0,1,3.142-.769h1.432v-.756a1.479,1.479,0,0,0-.36-1.063,1.4,1.4,0,0,0-1.063-.378,1.387,1.387,0,0,0-.963.3,1.066,1.066,0,0,0-.338.838l-2.479-.008-.008-.053a2.413,2.413,0,0,1,1.045-2.078,4.56,4.56,0,0,1,2.91-.875,4.252,4.252,0,0,1,2.768.865,3,3,0,0,1,1.064,2.466v3.929a7.357,7.357,0,0,0,.1,1.256,6.219,6.219,0,0,0,.321,1.169Zm-2.347-1.713a2.213,2.213,0,0,0,1.2-.334,1.743,1.743,0,0,0,.711-.774v-1.345h-1.432a1.714,1.714,0,0,0-1.239.409,1.324,1.324,0,0,0-.422.989.986.986,0,0,0,.316.764A1.224,1.224,0,0,0,338.743,4783.1Z"/>
      <path id="Trazado_144623" data-name="Trazado 144623" d="M344.782,4780.137a6.177,6.177,0,0,1,.971-3.63,3.153,3.153,0,0,1,2.738-1.38,2.664,2.664,0,0,1,1.283.307,3.1,3.1,0,0,1,1,.879V4771.1h2.575v13.711h-2.206l-.211-1.16a3.144,3.144,0,0,1-1.059,1,2.811,2.811,0,0,1-1.4.343,3.216,3.216,0,0,1-2.72-1.283,5.479,5.479,0,0,1-.971-3.393Zm2.557.186a3.918,3.918,0,0,0,.422,1.976,1.466,1.466,0,0,0,1.371.72,1.992,1.992,0,0,0,.967-.225,1.808,1.808,0,0,0,.677-.658v-4.077a1.984,1.984,0,0,0-.673-.7,1.778,1.778,0,0,0-.953-.252,1.449,1.449,0,0,0-1.376.84,4.776,4.776,0,0,0-.435,2.193Z"/>
      <path id="Trazado_144624" data-name="Trazado 144624" d="M354.942,4779.97a5.108,5.108,0,0,1,1.186-3.486,4.686,4.686,0,0,1,6.592,0,5.078,5.078,0,0,1,1.2,3.49v.184a5.083,5.083,0,0,1-1.191,3.494,4.7,4.7,0,0,1-6.591,0,5.083,5.083,0,0,1-1.191-3.494Zm2.557.179a4.133,4.133,0,0,0,.457,2.085,1.578,1.578,0,0,0,1.477.785,1.561,1.561,0,0,0,1.454-.79,4.091,4.091,0,0,0,.462-2.08v-.183a4.053,4.053,0,0,0-.466-2.063,1.578,1.578,0,0,0-1.468-.8,1.556,1.556,0,0,0-1.454.8,4.092,4.092,0,0,0-.462,2.059Z"/>
    </g>
    <g id="Grupo_66061" data-name="Grupo 66061">
      <path id="Trazado_144625" data-name="Trazado 144625" d="M618.1,4759.172v4.64h-2.567v-12.8h5.1a5.041,5.041,0,0,1,3.472,1.125,4.091,4.091,0,0,1,0,5.916,5.069,5.069,0,0,1-3.472,1.116Zm0-1.978h2.531a2.129,2.129,0,0,0,1.626-.585,2.074,2.074,0,0,0,.554-1.489,2.173,2.173,0,0,0-.549-1.524,2.1,2.1,0,0,0-1.631-.6H618.1Z"/>
      <path id="Trazado_144626" data-name="Trazado 144626" d="M632.048,4756.509l-.94-.027a1.7,1.7,0,0,0-.941.238,1.5,1.5,0,0,0-.562.668v6.424h-2.558V4754.3h2.382l.114,1.406a3,3,0,0,1,.866-1.164,1.926,1.926,0,0,1,1.226-.418,1.956,1.956,0,0,1,.356.031c.108.021.218.045.33.074Z"/>
      <path id="Trazado_144627" data-name="Trazado 144627" d="M637.559,4764a4.284,4.284,0,0,1-3.287-1.318,4.714,4.714,0,0,1-1.231-3.349v-.352a5.2,5.2,0,0,1,1.165-3.489,4.343,4.343,0,0,1,6.113-.2,4.462,4.462,0,0,1,1.063,3.138v1.4H635.7l-.017.053a2.47,2.47,0,0,0,.628,1.541,1.966,1.966,0,0,0,1.516.6,4.918,4.918,0,0,0,1.415-.171,6.441,6.441,0,0,0,1.231-.541l.694,1.586a4.734,4.734,0,0,1-1.52.79A6.592,6.592,0,0,1,637.559,4764Zm-.229-7.893a1.339,1.339,0,0,0-1.125.545,2.842,2.842,0,0,0-.509,1.433l.026.044h3.146v-.229a2.06,2.06,0,0,0-.382-1.305A1.38,1.38,0,0,0,637.33,4756.1Z"/>
      <path id="Trazado_144628" data-name="Trazado 144628" d="M646.867,4762.019a1.515,1.515,0,0,0,1.1-.4,1.4,1.4,0,0,0,.413-1.062h2.329l.027.053a2.961,2.961,0,0,1-1.086,2.412,4.575,4.575,0,0,1-6.06-.373,5.125,5.125,0,0,1-1.151-3.454v-.264a5.157,5.157,0,0,1,1.147-3.454,4.054,4.054,0,0,1,3.274-1.353,3.993,3.993,0,0,1,2.834,1,3.329,3.329,0,0,1,1.042,2.636l-.018.053h-2.338a1.862,1.862,0,0,0-.4-1.226,1.374,1.374,0,0,0-1.116-.488,1.49,1.49,0,0,0-1.437.79,4.338,4.338,0,0,0-.418,2.037v.262a4.324,4.324,0,0,0,.418,2.05A1.5,1.5,0,0,0,646.867,4762.019Z"/>
      <path id="Trazado_144629" data-name="Trazado 144629" d="M654.891,4752.026h-2.566V4750.1h2.566Zm0,11.786h-2.566V4754.3h2.566Z"/>
      <path id="Trazado_144630" data-name="Trazado 144630" d="M656.6,4758.97a5.108,5.108,0,0,1,1.186-3.486,4.686,4.686,0,0,1,6.592,0,5.078,5.078,0,0,1,1.2,3.49v.184a5.083,5.083,0,0,1-1.191,3.494,4.7,4.7,0,0,1-6.591,0,5.083,5.083,0,0,1-1.191-3.494Zm2.557.179a4.133,4.133,0,0,0,.457,2.085,1.758,1.758,0,0,0,2.932,0,4.1,4.1,0,0,0,.461-2.08v-.183a4.054,4.054,0,0,0-.466-2.063,1.578,1.578,0,0,0-1.468-.8,1.556,1.556,0,0,0-1.454.8,4.091,4.091,0,0,0-.462,2.059Z"/>
      <path id="Trazado_144631" data-name="Trazado 144631" d="M671.247,4759.137a6.177,6.177,0,0,1,.972-3.63,3.153,3.153,0,0,1,2.737-1.38,2.665,2.665,0,0,1,1.284.307,3.117,3.117,0,0,1,1,.879V4750.1h2.575v13.711h-2.206l-.211-1.16a3.145,3.145,0,0,1-1.059,1,2.814,2.814,0,0,1-1.4.343,3.216,3.216,0,0,1-2.72-1.283,5.479,5.479,0,0,1-.972-3.393Zm2.558.186a3.918,3.918,0,0,0,.422,1.976,1.466,1.466,0,0,0,1.371.72,1.994,1.994,0,0,0,.967-.225,1.808,1.808,0,0,0,.677-.658v-4.077a1.984,1.984,0,0,0-.673-.7,1.777,1.777,0,0,0-.953-.252,1.449,1.449,0,0,0-1.376.84,4.776,4.776,0,0,0-.435,2.193Z"/>
      <path id="Trazado_144632" data-name="Trazado 144632" d="M686.013,4764a4.284,4.284,0,0,1-3.287-1.318,4.719,4.719,0,0,1-1.231-3.349v-.352a5.2,5.2,0,0,1,1.165-3.489,4.343,4.343,0,0,1,6.113-.2,4.462,4.462,0,0,1,1.063,3.138v1.4h-5.678l-.017.053a2.47,2.47,0,0,0,.628,1.541,1.966,1.966,0,0,0,1.516.6,4.919,4.919,0,0,0,1.415-.171,6.441,6.441,0,0,0,1.231-.541l.694,1.586a4.723,4.723,0,0,1-1.52.79A6.587,6.587,0,0,1,686.013,4764Zm-.229-7.893a1.339,1.339,0,0,0-1.125.545,2.841,2.841,0,0,0-.509,1.433l.026.044h3.147v-.229a2.06,2.06,0,0,0-.383-1.305A1.38,1.38,0,0,0,685.784,4756.1Z"/>
      <path id="Trazado_144633" data-name="Trazado 144633" d="M613.868,4780.321a5.461,5.461,0,0,1-.976,3.393,3.227,3.227,0,0,1-2.724,1.283,3.071,3.071,0,0,1-1.327-.276,2.744,2.744,0,0,1-.994-.814v4.562H605.29V4775.3H607.6l.15,1.125a3.048,3.048,0,0,1,1.015-.963,2.754,2.754,0,0,1,1.384-.338,3.164,3.164,0,0,1,2.742,1.38,6.156,6.156,0,0,1,.976,3.63Zm-2.566-.2a4.615,4.615,0,0,0-.449-2.184,1.463,1.463,0,0,0-1.371-.836,1.937,1.937,0,0,0-.989.238,1.709,1.709,0,0,0-.646.677v4.173a1.583,1.583,0,0,0,.646.616,2.173,2.173,0,0,0,1.007.211,1.477,1.477,0,0,0,1.367-.73,3.865,3.865,0,0,0,.435-1.981Z"/>
      <path id="Trazado_144634" data-name="Trazado 144634" d="M619.66,4785a4.284,4.284,0,0,1-3.287-1.318,4.719,4.719,0,0,1-1.231-3.349v-.352a5.2,5.2,0,0,1,1.165-3.489,4.343,4.343,0,0,1,6.113-.2,4.462,4.462,0,0,1,1.063,3.138v1.4H617.8l-.017.053a2.47,2.47,0,0,0,.628,1.541,1.966,1.966,0,0,0,1.516.6,4.919,4.919,0,0,0,1.415-.171,6.441,6.441,0,0,0,1.231-.541l.694,1.586a4.723,4.723,0,0,1-1.52.79A6.587,6.587,0,0,1,619.66,4785Zm-.229-7.893a1.339,1.339,0,0,0-1.125.545,2.842,2.842,0,0,0-.509,1.433l.026.044h3.147v-.229a2.06,2.06,0,0,0-.383-1.305A1.379,1.379,0,0,0,619.431,4777.1Z"/>
      <path id="Trazado_144635" data-name="Trazado 144635" d="M627.324,4775.3l.114,1.362a3.494,3.494,0,0,1,1.169-1.134,3.046,3.046,0,0,1,1.556-.4,2.863,2.863,0,0,1,2.25.905,4.181,4.181,0,0,1,.808,2.839v5.941h-2.575v-5.946a1.936,1.936,0,0,0-.386-1.361,1.556,1.556,0,0,0-1.169-.4,1.984,1.984,0,0,0-.914.207,1.87,1.87,0,0,0-.677.586v6.915h-2.567V4775.3Z"/>
      <path id="Trazado_144636" data-name="Trazado 144636" d="M639.347,4785a4.286,4.286,0,0,1-3.287-1.318,4.718,4.718,0,0,1-1.23-3.349v-.352a5.2,5.2,0,0,1,1.164-3.489,4.343,4.343,0,0,1,6.113-.2,4.463,4.463,0,0,1,1.064,3.138v1.4h-5.678l-.018.053a2.471,2.471,0,0,0,.629,1.541,1.964,1.964,0,0,0,1.516.6,4.923,4.923,0,0,0,1.415-.171,6.435,6.435,0,0,0,1.23-.541l.7,1.586a4.741,4.741,0,0,1-1.521.79A6.587,6.587,0,0,1,639.347,4785Zm-.228-7.893a1.336,1.336,0,0,0-1.125.545,2.851,2.851,0,0,0-.51,1.433l.027.044h3.146v-.229a2.06,2.06,0,0,0-.382-1.305A1.38,1.38,0,0,0,639.119,4777.1Z"/>
      <path id="Trazado_144637" data-name="Trazado 144637" d="M647.715,4772.974v2.329h1.6v1.8h-1.6v4.843a1.12,1.12,0,0,0,.228.791.816.816,0,0,0,.615.237,2.183,2.183,0,0,0,.348-.022,2.957,2.957,0,0,0,.338-.074l.22,1.854a5.3,5.3,0,0,1-.756.2,4.757,4.757,0,0,1-.8.065,2.731,2.731,0,0,1-2.043-.73,3.2,3.2,0,0,1-.717-2.311V4777.1H643.76v-1.8h1.388v-2.329Z"/>
      <path id="Trazado_144638" data-name="Trazado 144638" d="M655.95,4777.509l-.94-.027a1.7,1.7,0,0,0-.941.238,1.5,1.5,0,0,0-.562.668v6.424h-2.558V4775.3h2.382l.114,1.406a3,3,0,0,1,.866-1.164,1.926,1.926,0,0,1,1.226-.418,1.964,1.964,0,0,1,.356.031c.108.021.218.045.329.074Z"/>
      <path id="Trazado_144639" data-name="Trazado 144639" d="M662.832,4784.812a5.394,5.394,0,0,1-.242-.685,4.781,4.781,0,0,1-.145-.738,3.56,3.56,0,0,1-1.041,1.151,2.6,2.6,0,0,1-1.543.457,3.21,3.21,0,0,1-2.3-.769,2.755,2.755,0,0,1-.808-2.1,2.51,2.51,0,0,1,1.076-2.167,5.388,5.388,0,0,1,3.143-.769H662.4v-.756a1.479,1.479,0,0,0-.36-1.063,1.4,1.4,0,0,0-1.064-.378,1.384,1.384,0,0,0-.962.3,1.063,1.063,0,0,0-.338.838l-2.479-.008-.009-.053a2.414,2.414,0,0,1,1.046-2.078,4.558,4.558,0,0,1,2.909-.875,4.253,4.253,0,0,1,2.769.865,3,3,0,0,1,1.063,2.466v3.929a7.457,7.457,0,0,0,.1,1.256,6.373,6.373,0,0,0,.321,1.169Zm-2.347-1.713a2.209,2.209,0,0,0,1.2-.334,1.74,1.74,0,0,0,.712-.774v-1.345h-1.432a1.718,1.718,0,0,0-1.24.409,1.328,1.328,0,0,0-.422.989.987.987,0,0,0,.317.764A1.224,1.224,0,0,0,660.485,4783.1Z"/>
      <path id="Trazado_144640" data-name="Trazado 144640" d="M670.909,4783.019a1.519,1.519,0,0,0,1.1-.4,1.407,1.407,0,0,0,.413-1.062h2.329l.026.053a2.957,2.957,0,0,1-1.085,2.412,4.575,4.575,0,0,1-6.06-.373,5.121,5.121,0,0,1-1.152-3.454v-.264a5.163,5.163,0,0,1,1.147-3.454,4.056,4.056,0,0,1,3.274-1.353,4,4,0,0,1,2.835,1,3.328,3.328,0,0,1,1.041,2.636l-.017.053h-2.338a1.857,1.857,0,0,0-.405-1.226,1.371,1.371,0,0,0-1.116-.488,1.492,1.492,0,0,0-1.437.79,4.351,4.351,0,0,0-.417,2.037v.262a4.336,4.336,0,0,0,.417,2.05A1.5,1.5,0,0,0,670.909,4783.019Z"/>
      <path id="Trazado_144641" data-name="Trazado 144641" d="M678.933,4773.026h-2.566V4771.1h2.566Zm0,11.786h-2.566V4775.3h2.566Z"/>
      <path id="Trazado_144642" data-name="Trazado 144642" d="M680.647,4779.97a5.109,5.109,0,0,1,1.187-3.486,4.14,4.14,0,0,1,3.287-1.357,4.182,4.182,0,0,1,3.305,1.353,5.083,5.083,0,0,1,1.195,3.49v.184a5.083,5.083,0,0,1-1.191,3.494,4.7,4.7,0,0,1-6.592,0,5.083,5.083,0,0,1-1.191-3.494Zm2.558.179a4.123,4.123,0,0,0,.457,2.085,1.757,1.757,0,0,0,2.931,0,4.092,4.092,0,0,0,.461-2.08v-.183a4.064,4.064,0,0,0-.465-2.063,1.579,1.579,0,0,0-1.468-.8,1.559,1.559,0,0,0-1.455.8,4.1,4.1,0,0,0-.461,2.059Zm2.373-8.555h2.716l.017.052-2.434,2.286h-2.048Z"/>
      <path id="Trazado_144643" data-name="Trazado 144643" d="M693.55,4775.3l.114,1.362a3.484,3.484,0,0,1,1.169-1.134,3.042,3.042,0,0,1,1.555-.4,2.863,2.863,0,0,1,2.25.905,4.176,4.176,0,0,1,.809,2.839v5.941h-2.575v-5.946a1.931,1.931,0,0,0-.387-1.361,1.555,1.555,0,0,0-1.169-.4,1.987,1.987,0,0,0-.914.207,1.887,1.887,0,0,0-.677.586v6.915h-2.566V4775.3Z"/>
    </g>
    <g id="Grupo_66062" data-name="Grupo 66062">
      <path id="Trazado_144644" data-name="Trazado 144644" d="M957.967,4759.172v4.64H955.4v-12.8h5.1a5.041,5.041,0,0,1,3.472,1.125,4.091,4.091,0,0,1,0,5.916,5.069,5.069,0,0,1-3.472,1.116Zm0-1.978H960.5a2.129,2.129,0,0,0,1.626-.585,2.074,2.074,0,0,0,.554-1.489,2.173,2.173,0,0,0-.549-1.524,2.1,2.1,0,0,0-1.631-.6h-2.531Z"/>
      <path id="Trazado_144645" data-name="Trazado 144645" d="M971.915,4756.509l-.941-.027a1.7,1.7,0,0,0-.94.238,1.5,1.5,0,0,0-.563.668v6.424h-2.557V4754.3H969.3l.114,1.406a3.007,3.007,0,0,1,.866-1.164,1.928,1.928,0,0,1,1.226-.418,1.955,1.955,0,0,1,.356.031c.109.021.218.045.329.074Z"/>
      <path id="Trazado_144646" data-name="Trazado 144646" d="M977.426,4764a4.286,4.286,0,0,1-3.288-1.318,4.718,4.718,0,0,1-1.23-3.349v-.352a5.2,5.2,0,0,1,1.165-3.489,4.341,4.341,0,0,1,6.112-.2,4.463,4.463,0,0,1,1.064,3.138v1.4h-5.678l-.017.053a2.464,2.464,0,0,0,.628,1.541,1.964,1.964,0,0,0,1.516.6,4.923,4.923,0,0,0,1.415-.171,6.468,6.468,0,0,0,1.231-.541l.694,1.586a4.741,4.741,0,0,1-1.521.79A6.585,6.585,0,0,1,977.426,4764Zm-.229-7.893a1.336,1.336,0,0,0-1.125.545,2.851,2.851,0,0,0-.51,1.433l.027.044h3.146v-.229a2.06,2.06,0,0,0-.382-1.305A1.38,1.38,0,0,0,977.2,4756.1Z"/>
      <path id="Trazado_144647" data-name="Trazado 144647" d="M986.733,4762.019a1.519,1.519,0,0,0,1.1-.4,1.407,1.407,0,0,0,.413-1.062h2.329l.026.053a2.957,2.957,0,0,1-1.085,2.412,4.575,4.575,0,0,1-6.06-.373,5.12,5.12,0,0,1-1.151-3.454v-.264a5.157,5.157,0,0,1,1.147-3.454,4.054,4.054,0,0,1,3.273-1.353,3.994,3.994,0,0,1,2.835,1,3.325,3.325,0,0,1,1.041,2.636l-.017.053h-2.338a1.862,1.862,0,0,0-.4-1.226,1.374,1.374,0,0,0-1.117-.488,1.489,1.489,0,0,0-1.436.79,4.35,4.35,0,0,0-.418,2.037v.262a4.336,4.336,0,0,0,.418,2.05A1.5,1.5,0,0,0,986.733,4762.019Z"/>
      <path id="Trazado_144648" data-name="Trazado 144648" d="M994.758,4752.026h-2.567V4750.1h2.567Zm0,11.786h-2.567V4754.3h2.567Z"/>
      <path id="Trazado_144649" data-name="Trazado 144649" d="M996.471,4758.97a5.108,5.108,0,0,1,1.187-3.486,4.14,4.14,0,0,1,3.287-1.357,4.182,4.182,0,0,1,3.3,1.353,5.078,5.078,0,0,1,1.2,3.49v.184a5.083,5.083,0,0,1-1.19,3.494,4.7,4.7,0,0,1-6.592,0,5.084,5.084,0,0,1-1.192-3.494Zm2.558.179a4.123,4.123,0,0,0,.457,2.085,1.758,1.758,0,0,0,2.932,0,4.1,4.1,0,0,0,.461-2.08v-.183a4.064,4.064,0,0,0-.466-2.063,1.579,1.579,0,0,0-1.468-.8,1.557,1.557,0,0,0-1.454.8,4.091,4.091,0,0,0-.462,2.059Z"/>
      <path id="Trazado_144650" data-name="Trazado 144650" d="M1011.114,4759.137a6.177,6.177,0,0,1,.972-3.63,3.151,3.151,0,0,1,2.737-1.38,2.661,2.661,0,0,1,1.283.307,3.1,3.1,0,0,1,1,.879V4750.1h2.575v13.711h-2.206l-.211-1.16a3.132,3.132,0,0,1-1.058,1,2.813,2.813,0,0,1-1.4.343,3.214,3.214,0,0,1-2.719-1.283,5.479,5.479,0,0,1-.972-3.393Zm2.558.186a3.908,3.908,0,0,0,.422,1.976,1.466,1.466,0,0,0,1.371.72,1.988,1.988,0,0,0,.966-.225,1.8,1.8,0,0,0,.677-.658v-4.077a1.981,1.981,0,0,0-.672-.7,1.778,1.778,0,0,0-.954-.252,1.448,1.448,0,0,0-1.375.84,4.776,4.776,0,0,0-.435,2.193Z"/>
      <path id="Trazado_144651" data-name="Trazado 144651" d="M1025.88,4764a4.284,4.284,0,0,1-3.287-1.318,4.714,4.714,0,0,1-1.231-3.349v-.352a5.2,5.2,0,0,1,1.165-3.489,4.341,4.341,0,0,1,6.112-.2,4.463,4.463,0,0,1,1.064,3.138v1.4h-5.678l-.017.053a2.459,2.459,0,0,0,.629,1.541,1.962,1.962,0,0,0,1.515.6,4.919,4.919,0,0,0,1.415-.171,6.466,6.466,0,0,0,1.231-.541l.694,1.586a4.739,4.739,0,0,1-1.521.79A6.58,6.58,0,0,1,1025.88,4764Zm-.229-7.893a1.339,1.339,0,0,0-1.125.545,2.852,2.852,0,0,0-.51,1.433l.027.044h3.146v-.229a2.06,2.06,0,0,0-.382-1.305A1.378,1.378,0,0,0,1025.651,4756.1Z"/>
      <path id="Trazado_144652" data-name="Trazado 144652" d="M961.812,4782.285a1.058,1.058,0,0,0-.237-.946,3,3,0,0,0-1.389-.631,5.305,5.305,0,0,1-2.281-1.028,1.809,1.809,0,0,1-.54-1.758,3.064,3.064,0,0,1,1.239-2,4.078,4.078,0,0,1,2.54-.795,3.007,3.007,0,0,1,2.3.861,2.248,2.248,0,0,1,.58,2.066l-.026.052h-1.626a1.352,1.352,0,0,0-1.442-1.617,1.94,1.94,0,0,0-1.283.41,1.564,1.564,0,0,0-.58.974.988.988,0,0,0,.206.9,3.174,3.174,0,0,0,1.376.574,5.224,5.224,0,0,1,2.338,1.048,1.877,1.877,0,0,1,.536,1.778,3.022,3.022,0,0,1-1.283,2.066,4.446,4.446,0,0,1-2.637.759,3.231,3.231,0,0,1-2.5-.932,2.322,2.322,0,0,1-.615-2.144l.017-.053h1.626a1.407,1.407,0,0,0,.4,1.343,1.942,1.942,0,0,0,1.283.424,2.33,2.33,0,0,0,1.349-.377A1.429,1.429,0,0,0,961.812,4782.285Z"/>
      <path id="Trazado_144653" data-name="Trazado 144653" d="M969.643,4773.009l-.465,2.294h1.643l-.255,1.283h-1.643l-1.152,5.774a1.259,1.259,0,0,0,.044.962.736.736,0,0,0,.624.251,3.578,3.578,0,0,0,.488-.04,4,4,0,0,0,.453-.083l-.009,1.187a2.359,2.359,0,0,1-.726.259,4.426,4.426,0,0,1-.926.1,1.682,1.682,0,0,1-1.42-.65,2.434,2.434,0,0,1-.224-1.987l1.151-5.774h-1.388l.255-1.283h1.388l.466-2.294Z"/>
      <path id="Trazado_144654" data-name="Trazado 144654" d="M976.455,4784.812q0-.431.017-.707t.062-.567a5.46,5.46,0,0,1-1.35,1.042,3.151,3.151,0,0,1-1.524.417,2.308,2.308,0,0,1-1.921-.778,2.406,2.406,0,0,1-.347-2.079,3.16,3.16,0,0,1,1.428-2.175,5.425,5.425,0,0,1,2.941-.725h1.626l.184-.94a1.6,1.6,0,0,0-.193-1.349,1.484,1.484,0,0,0-1.231-.462,2.224,2.224,0,0,0-1.336.435,1.669,1.669,0,0,0-.712,1.015h-1.608l-.018-.052a2.987,2.987,0,0,1,1.319-1.93,4.511,4.511,0,0,1,2.724-.83,2.987,2.987,0,0,1,2.237.84,2.477,2.477,0,0,1,.523,2.35l-.914,4.579a8.847,8.847,0,0,0-.158.994,4.9,4.9,0,0,0,0,.922Zm-2.25-1.265a2.958,2.958,0,0,0,1.45-.413,3.461,3.461,0,0,0,1.143-.976l.351-1.749h-1.678a2.5,2.5,0,0,0-1.565.536,2.044,2.044,0,0,0-.826,1.231,1.213,1.213,0,0,0,.132,1.023A1.194,1.194,0,0,0,974.205,4783.547Z"/>
      <path id="Trazado_144655" data-name="Trazado 144655" d="M984.971,4773.009l-.465,2.294h1.643l-.255,1.283h-1.643l-1.152,5.774a1.259,1.259,0,0,0,.044.962.736.736,0,0,0,.624.251,3.578,3.578,0,0,0,.488-.04,4,4,0,0,0,.453-.083l-.009,1.187a2.359,2.359,0,0,1-.726.259,4.426,4.426,0,0,1-.926.1,1.682,1.682,0,0,1-1.42-.65,2.434,2.434,0,0,1-.224-1.987l1.151-5.774h-1.388l.255-1.283h1.388l.466-2.294Z"/>
      <path id="Trazado_144656" data-name="Trazado 144656" d="M992.073,4784.812l.149-1.3a3.946,3.946,0,0,1-1.279,1.107,3.306,3.306,0,0,1-1.568.378,2.236,2.236,0,0,1-2.018-1.011,4.2,4.2,0,0,1-.241-3.076l1.116-5.607h1.7l-1.125,5.625a3.667,3.667,0,0,0-.036,2.14,1.216,1.216,0,0,0,1.169.523,2.68,2.68,0,0,0,1.419-.387,3.333,3.333,0,0,0,1.077-1.072l1.363-6.829h1.7l-1.9,9.509Z"/>
      <path id="Trazado_144657" data-name="Trazado 144657" d="M1000.845,4780.057a7.972,7.972,0,0,1,1.55-3.691,3.461,3.461,0,0,1,2.747-1.239,3.023,3.023,0,0,1,1.336.29,2.454,2.454,0,0,1,.976.844l.316-.958h1.459l-2.628,13.166h-1.7l.87-4.351a3.614,3.614,0,0,1-1.068.655,3.334,3.334,0,0,1-1.217.224,2.5,2.5,0,0,1-2.308-1.371,4.79,4.79,0,0,1-.373-3.384Zm1.669.18a4.048,4.048,0,0,0,.115,2.458,1.566,1.566,0,0,0,1.573.94,1.79,1.79,0,0,0,1.032-.321,3.467,3.467,0,0,0,.875-.9l.976-4.855a1.922,1.922,0,0,0-.691-.786,1.966,1.966,0,0,0-1.085-.285,2.078,2.078,0,0,0-1.749.975,6.625,6.625,0,0,0-1.01,2.589Z"/>
      <path id="Trazado_144658" data-name="Trazado 144658" d="M1015.6,4784.812l.15-1.3a3.949,3.949,0,0,1-1.28,1.107,3.306,3.306,0,0,1-1.568.378,2.234,2.234,0,0,1-2.017-1.011,4.2,4.2,0,0,1-.242-3.076l1.117-5.607h1.7l-1.125,5.625a3.656,3.656,0,0,0-.035,2.14,1.215,1.215,0,0,0,1.169.523,2.683,2.683,0,0,0,1.419-.387,3.342,3.342,0,0,0,1.077-1.072l1.362-6.829h1.7l-1.9,9.509Z"/>
      <path id="Trazado_144659" data-name="Trazado 144659" d="M1020.084,4779.97a6.424,6.424,0,0,1,1.612-3.521,4.136,4.136,0,0,1,3.116-1.322,2.95,2.95,0,0,1,2.659,1.375,4.834,4.834,0,0,1,.549,3.468l-.026.193a6.43,6.43,0,0,1-1.622,3.52,4.146,4.146,0,0,1-3.115,1.314,2.953,2.953,0,0,1-2.66-1.371,4.792,4.792,0,0,1-.54-3.463Zm1.67.188a4.6,4.6,0,0,0,.153,2.524,1.542,1.542,0,0,0,1.561.953,2.237,2.237,0,0,0,1.828-1,5.461,5.461,0,0,0,.993-2.481l.026-.192a4.579,4.579,0,0,0-.167-2.511,1.534,1.534,0,0,0-1.547-.966,2.232,2.232,0,0,0-1.833,1,5.5,5.5,0,0,0-.988,2.476Z"/>
    </g>
  </g>
</svg>
