<svg xmlns="http://www.w3.org/2000/svg" xmlns:xlink="http://www.w3.org/1999/xlink" width="212.288" height="214.511" viewBox="0 0 212.288 214.511">
  <defs>
    <linearGradient id="linear-gradient" x1="2295.648" y1="0.597" x2="2296.231" y2="1.271" gradientUnits="objectBoundingBox">
      <stop offset="0.122" stop-color="#fca4b5"/>
      <stop offset="0.99" stop-color="#ffadb7"/>
    </linearGradient>
    <linearGradient id="linear-gradient-2" x1="3012.358" y1="0.467" x2="3012.926" y2="0.994" xlink:href="#linear-gradient"/>
    <linearGradient id="linear-gradient-3" x1="-3452.809" y1="668.032" x2="-3451.883" y2="668.032" gradientUnits="objectBoundingBox">
      <stop offset="0.122" stop-color="#feb9b8"/>
      <stop offset="1" stop-color="#ffdede"/>
    </linearGradient>
  </defs>
  <g id="Grupo_64820" data-name="Grupo 64820" transform="translate(-390.893 -5799.532)">
    <rect id="Rectángulo_19304" data-name="Rectángulo 19304" width="212.288" height="214.511" transform="translate(390.893 5799.532)" fill="none"/>
    <g id="Grupo_66552" data-name="Grupo 66552">
      <g id="Grupo_66480" data-name="Grupo 66480">
        <path id="Trazado_146348" data-name="Trazado 146348" d="M556.284,5955.915c-4.627-2.671-12.106-2.685-16.7-.03a7.794,7.794,0,0,0-2.641,2.35,12.5,12.5,0,0,0-1.523.732c-4.6,2.655-4.575,6.973.052,9.644s12.1,2.685,16.7.03a7.792,7.792,0,0,0,2.642-2.349,12.654,12.654,0,0,0,1.523-.733C560.934,5962.9,560.911,5958.586,556.284,5955.915Z" fill="#bfb5bf" style="mix-blend-mode: multiply;isolation: isolate"/>
        <g id="Grupo_66462" data-name="Grupo 66462">
          <g id="Grupo_66459" data-name="Grupo 66459">
            <path id="Trazado_146349" data-name="Trazado 146349" d="M542.108,5913.366a2.879,2.879,0,0,0-2.189,1.79c-.488,1.525-.581,6.083-.744,7a9.54,9.54,0,0,1-.558,1.992c-.073.086-.355.318.378,1.3s1.693,1.509,2.147,1.017.918-4.446.988-6.128S542.108,5913.366,542.108,5913.366Z" fill="#febfbf"/>
            <path id="Trazado_146350" data-name="Trazado 146350" d="M531.668,5934.157a3.689,3.689,0,0,0,.388.559c.063.018.334.289.523.252s.352-.279.352-.279.342.352.559.334a.852.852,0,0,0,.415-.163.784.784,0,0,0,.45-.1l.118-.117a.948.948,0,0,0,.442-.28c.108-.18-.1-.766-.1-.766a5.275,5.275,0,0,0,.37-1.01,1.722,1.722,0,0,0-.018-.442c-.027-.09-.036-.135-.036-.135s5.4-4.392,5.825-5.339c.289-.631-.595-1.388-1.226-1.83-.325-.216-.577-.361-.577-.361s-.469-.234-.641-.162a5.076,5.076,0,0,0-1.578,1.849,41.14,41.14,0,0,1-2.912,3.778c-.839,1.082-2.39,3.165-2.489,3.372S531.668,5934.157,531.668,5934.157Z" fill="#febfbf"/>
            <path id="Trazado_146351" data-name="Trazado 146351" d="M534.464,5931.641l.225.054a1.131,1.131,0,0,1,.442.316s5.4-4.392,5.825-5.339c.289-.631-.595-1.388-1.226-1.83a20.249,20.249,0,0,1-.388,2.534c-.171.775-3.075,3.345-3.616,3.85A1.654,1.654,0,0,1,534.464,5931.641Z" fill="url(#linear-gradient)"/>
            <path id="Trazado_146352" data-name="Trazado 146352" d="M534.816,5933.6a.244.244,0,0,0-.2-.205,1.347,1.347,0,0,0-.281-.038.345.345,0,0,0-.266-.153.309.309,0,0,0-.288.062.735.735,0,0,0-.349.03l-.7.264.4,1.235-.337.051-.209-.626-.1-.21a1.011,1.011,0,0,0-.2.124c-.053.053-.092.01-.092.01a1.5,1.5,0,0,1-.169-.476c.016-.119.1-.439.1-.439a3.763,3.763,0,0,0,.458.078c.12,0,1.018-.243,1.018-.243l.552-.2.2-.41.058.68.214.147A.264.264,0,0,1,534.816,5933.6Z" fill="#fa9698"/>
            <path id="Trazado_146353" data-name="Trazado 146353" d="M543.349,5912.087a3.182,3.182,0,0,0-3.373,2.5c-.4,1.563-1.107,5.916-1.107,5.916a4.551,4.551,0,0,0,2.871,1.255C543.446,5921.8,543.349,5912.087,543.349,5912.087Z" fill="#ffdc6e"/>
          </g>
          <g id="Grupo_66461" data-name="Grupo 66461">
            <path id="Trazado_146354" data-name="Trazado 146354" d="M540.976,5961.624a15.037,15.037,0,0,0-1.71.894,27.781,27.781,0,0,0-2.174,1.955c-.119.23-.675.694-.682,1.205a1.154,1.154,0,0,0,1.144.979,5.951,5.951,0,0,0,2.857-1.214,12.2,12.2,0,0,1,1.176-1.167c.12-.036.131.034.429.084a2.886,2.886,0,0,0,1.655-.835,4.345,4.345,0,0,0,.269-2.061C543.754,5961.08,540.976,5961.624,540.976,5961.624Z" fill="#5c6467"/>
            <path id="Trazado_146355" data-name="Trazado 146355" d="M540.781,5961.2a14.338,14.338,0,0,0-1.454,1.667c-.12.309.479.6,1.314.643a3.526,3.526,0,0,0,1.872-.837s.894-1.279.5-1.938S540.781,5961.2,540.781,5961.2Z" fill="#febfbf"/>
            <path id="Trazado_146356" data-name="Trazado 146356" d="M539.08,5940.379c.154,4.833.055,6.2.163,7.664s.9,12.9.91,13.481,1.236.893,2,.847h.027a1.672,1.672,0,0,0,1.479-1.136c.018-.387.893-10.1.271-13.345-.181-.947,1.677-7.43,1.677-7.43s.018-.208.054-.541c.126-1.308.388-4.59.045-5.419-.433-1.047-6.005-.136-6.005-.136S538.927,5935.536,539.08,5940.379Z" fill="#7282b5"/>
            <path id="Trazado_146357" data-name="Trazado 146357" d="M542.155,5962.371h.027a1.672,1.672,0,0,0,1.479-1.136c.018-.387.893-10.1.271-13.345-.181-.947,1.677-7.43,1.677-7.43s.018-.208.054-.541l-2.763-.624a3.61,3.61,0,0,1-.036,2.669c-.55,1.759.382,5.367.31,5.89a12.268,12.268,0,0,1,.415,4.626C543.436,5955.672,543.508,5960.514,542.155,5962.371Z" fill="#e8d0c8" style="mix-blend-mode: multiply;isolation: isolate"/>
            <path id="Trazado_146358" data-name="Trazado 146358" d="M551.806,5958.472s-.963,1.386-1.082,1.616-1.476,2.471-1.526,2.77a.831.831,0,0,0,.234.772,2.131,2.131,0,0,0,1.612.359,4.947,4.947,0,0,0,1.933-1.13,8.081,8.081,0,0,0,1.018-1.854,6.9,6.9,0,0,0,.731-.958,3.563,3.563,0,0,0,.586-1.176c.042-.448.09-.736-.33-1.08S551.806,5958.472,551.806,5958.472Z" fill="#5c6467"/>
            <path id="Trazado_146359" data-name="Trazado 146359" d="M551.764,5958.14a16.145,16.145,0,0,0-.5,1.718c-.013.283.684.6,1.329.5s.89-.7,1.081-.886.937-1.477.737-1.909S551.764,5958.14,551.764,5958.14Z" fill="#febfbf"/>
            <path id="Trazado_146360" data-name="Trazado 146360" d="M542.092,5938.106a3.6,3.6,0,0,0,.613,1.786l1.506,1.938s.929.857,2.354,7.9c1.154,2.255,4.806,8.81,4.806,8.81a2.1,2.1,0,0,0,2.281.487,3.074,3.074,0,0,0,1.091-.847,1.47,1.47,0,0,0,.37-.7c-.018-.478-2.381-6.339-2.7-7.186a29.622,29.622,0,0,0-1.515-2.9s-.009-3.129.09-4.175c.171-1.912,1.83-6.664,1.263-7.61-.082-.136-.352-.244-.767-.325-2.353-.478-9.179-.081-9.179-.081S542.137,5937.295,542.092,5938.106Z" fill="#7282b5"/>
            <g id="Grupo_66460" data-name="Grupo 66460">
              <path id="Trazado_146361" data-name="Trazado 146361" d="M554.635,5958.21l.216-.063c-1.79-6.132-3.148-7.906-3.96-8.966a3.8,3.8,0,0,1-.583-.914c-1.025-2.667.288-7.5.562-8.436a8.373,8.373,0,0,0,.34-3.718l-.22.045a8.355,8.355,0,0,1-.336,3.61c-.278.953-1.607,5.845-.555,8.58a3.883,3.883,0,0,0,.614.97C551.514,5950.366,552.856,5952.119,554.635,5958.21Z" fill="#a0abcd"/>
            </g>
            <path id="Trazado_146362" data-name="Trazado 146362" d="M550.406,5947.872c1.154,1.217,2.227,4.148,3.048,6.177a13.658,13.658,0,0,1,1.289,4.13,1.47,1.47,0,0,0,.37-.7c-.018-.478-2.381-6.339-2.7-7.186a29.622,29.622,0,0,0-1.515-2.9s-.009-3.129.09-4.175c.171-1.912,1.83-6.664,1.263-7.61-.082-.136-.352-.244-.767-.325,0,.027-.009.054-.009.081,0,0,.415.2-.216,2.931S549.82,5945.509,550.406,5947.872Z" fill="#e8d0c8" style="mix-blend-mode: multiply;isolation: isolate"/>
            <path id="Trazado_146363" data-name="Trazado 146363" d="M539.342,5934.815c.37.478,2.723,1.632,5.609,2.173a15.778,15.778,0,0,0,2.813.289h.009c.469,0,.938-.018,1.407-.063a5.867,5.867,0,0,0,2.66-1,6.25,6.25,0,0,0,.937-.767,20,20,0,0,1-.306-10.09c.144-.6.28-1.163.388-1.677.9-4.058.793-5.51.261-6.97-.505-1.407-2.894-2.327-4.121-3.328a4.264,4.264,0,0,0-3.381-.829c-.866.1-3.255-.947-4.563.811-.649.875-1.325,4.8-1.181,6.979s.009,5.528.009,7.683S539.342,5934.815,539.342,5934.815Z" fill="#db6e5f"/>
            <path id="Trazado_146364" data-name="Trazado 146364" d="M544.229,5938.124s2.985-.649,3.535-.847h.009c.55-.217.748-1.263,1.9-1.993a4.318,4.318,0,0,0,1.469-1.29,6.471,6.471,0,0,1,.7,2.219,6.25,6.25,0,0,0,.937-.767,20,20,0,0,1-.306-10.09c.144-.6.28-1.163.388-1.677-1.028-1.912-2.228-3.337-3.526-3.354a32.5,32.5,0,0,0,.442,4.954,10.633,10.633,0,0,1,.126,3.945l-4.95,7.764Z" fill="#dedede" style="mix-blend-mode: multiply;isolation: isolate"/>
            <path id="Trazado_146365" data-name="Trazado 146365" d="M543.661,5913.661c.009.883-.045,1.217.126,1.488a2.825,2.825,0,0,0,2.146.261,6.858,6.858,0,0,0,.668-.279,4.01,4.01,0,0,0,1.767-1.488.546.546,0,0,0-.027-.55,3.33,3.33,0,0,1-.82-2.137c-.01-.117.054-1.975.081-2.624.009-.145.009-.226.009-.226s-.577-1.145-1.118-1.082a7.486,7.486,0,0,0-1.876,1.56c-.631.622-1.172,1.191-1.172,1.191s.171,2.443.207,3.57C543.661,5913.471,543.661,5913.571,543.661,5913.661Z" fill="#ffadb7"/>
            <path id="Trazado_146366" data-name="Trazado 146366" d="M543.445,5909.775s.171,2.443.207,3.57a1.033,1.033,0,0,0,.514.018c.974-.153,1.921-1.136,2.363-.847a2.059,2.059,0,0,1,.072,2.615,4.01,4.01,0,0,0,1.767-1.488.546.546,0,0,0-.027-.55,3.33,3.33,0,0,1-.82-2.137c-.01-.117.054-1.975.081-2.624a28.228,28.228,0,0,1-2.985.252C543.986,5909.206,543.445,5909.775,543.445,5909.775Z" fill="url(#linear-gradient-2)"/>
            <path id="Trazado_146367" data-name="Trazado 146367" d="M547.053,5908.032a18.439,18.439,0,0,1-.391,3.326,4.8,4.8,0,0,1-4.074,1.815,4.338,4.338,0,0,1-1.361-2.87,16.129,16.129,0,0,1-.016-1.779,3.487,3.487,0,0,1-.345-1.2,7.455,7.455,0,0,1,.823-3.117,3.85,3.85,0,0,1,4.159-.7C547.5,5904.18,547.053,5908.032,547.053,5908.032Z" fill="#febfbf"/>
            <path id="Trazado_146368" data-name="Trazado 146368" d="M546.468,5909s-.158-1.085.523-1.278.428,1.333.428,1.333l.083,1.627.023.275s.66-1.4.891-1.833a3.067,3.067,0,0,0,.433-1.076,16.459,16.459,0,0,0,.361-3.217,2.96,2.96,0,0,0-2.247-1.86,2.731,2.731,0,0,0-2.142-.863,3.378,3.378,0,0,0-2.476.845,2.669,2.669,0,0,0-1.123,1.6,5.15,5.15,0,0,0-.084.98l.111-.41a2.861,2.861,0,0,0,1.648.157,4.106,4.106,0,0,0,1.935-.607,5.081,5.081,0,0,0-.182,1.21c.048.327.241,1.338.241,1.338s.641.382.855.532a1.066,1.066,0,0,1,.314.5l.081.867Z" fill="#754554"/>
            <path id="Trazado_146369" data-name="Trazado 146369" d="M546.833,5908.427s.369-.973,1.114-.6-.324,2.318-.806,2.345-.393-.47-.393-.47S547.267,5908.887,546.833,5908.427Z" fill="url(#linear-gradient-3)"/>
          </g>
        </g>
        <path id="Trazado_146370" data-name="Trazado 146370" d="M542.478,5972l-13.856-8-5.594,3.229L526.1,5969l-16.083,9.286,10.219,5.9,16.083-9.286.569.329Z" fill="#bfb5bf" style="mix-blend-mode: multiply;isolation: isolate"/>
        <g id="Grupo_66469" data-name="Grupo 66469">
          <path id="Trazado_146371" data-name="Trazado 146371" d="M545.135,5937.976l-3.955,1.245.43,1.3,3.949-1.241Z" fill="#5c6467"/>
          <path id="Trazado_146372" data-name="Trazado 146372" d="M553.6,5929.139a6.328,6.328,0,0,1-1.622,2.948c-1.007,1.2-5.231,4.348-5.543,5.239a21.416,21.416,0,0,0-.284,2.266,2.891,2.891,0,0,1-.71,1.017.6.6,0,0,1-.135.051,3.884,3.884,0,0,1-.608.121l-.544-.038-1.028.121s-.506-.04-.547-.2a1.708,1.708,0,0,1-.023-.424,2.211,2.211,0,0,1-.346.25l-.005.006a.424.424,0,0,1-.284.081c-.218-.055-.142-.385-.035-.662a13.926,13.926,0,0,1,.6-1.7,19.928,19.928,0,0,0,2.875-2.531c.553-.842,5.214-6.817,5.214-6.817a4,4,0,0,0,.121-2.146c-.313-.847-2.8-9.232.584-10.645,1.177-.185,2.009.7,2.284,3.046A72.134,72.134,0,0,1,553.6,5929.139Z" fill="#febfbf"/>
          <path id="Trazado_146373" data-name="Trazado 146373" d="M545.3,5940.66a3.884,3.884,0,0,1-.608.121l-.544-.038-1.028.121s-.506-.04-.547-.2a1.708,1.708,0,0,1-.023-.424,2.211,2.211,0,0,1-.346.25,4.006,4.006,0,0,0,.29-.369,1.839,1.839,0,0,1,.2-.553c.119-.156.544-.582.544-.582.133-.007.294.732.294.732l-.107.487-.468-.164a1.024,1.024,0,0,1,.008-.365,4.821,4.821,0,0,1,.325-.444l-.483.28s-.124.278-.187.442a2.608,2.608,0,0,0,.05.738.9.9,0,0,0,.467.031c.341-.035,1.139-.221,1.139-.221l.164.086.555.031Z" fill="#fa9698"/>
          <path id="Trazado_146374" data-name="Trazado 146374" d="M543.277,5939.006l-.508.478a4.812,4.812,0,0,0-.156.524c-.006.091,0,.2,0,.2l.851-.268.033-.216S543.461,5939.114,543.277,5939.006Z" fill="#5c6467"/>
          <path id="Trazado_146375" data-name="Trazado 146375" d="M535.725,5933.574l-4.014,1.2-.342-1.325,3.925-1.18Z" fill="#5c6467"/>
          <g id="Grupo_66463" data-name="Grupo 66463">
            <path id="Trazado_146376" data-name="Trazado 146376" d="M535.079,5932.547a1.073,1.073,0,0,0,.29.928c.228.211.469.138.537-.164a1.073,1.073,0,0,0-.291-.927C535.387,5932.173,535.147,5932.246,535.079,5932.547Z" fill="#5c6467"/>
            <path id="Trazado_146377" data-name="Trazado 146377" d="M531.222,5933.07l.355-.109.012,0,.019-.006,0,0a.559.559,0,0,1,.495.179,1.709,1.709,0,0,1,.461,1.475.537.537,0,0,1-.325.432h0l-.005,0h0l-.353.11-.066-.206a1.021,1.021,0,0,1-.1-.079,1.709,1.709,0,0,1-.462-1.475,1.015,1.015,0,0,1,.037-.113Z" fill="#3b4549"/>
            <path id="Trazado_146378" data-name="Trazado 146378" d="M530.886,5933.507a1.71,1.71,0,0,0,.461,1.475c.364.335.746.218.854-.261a1.709,1.709,0,0,0-.461-1.475C531.376,5932.911,530.994,5933.028,530.886,5933.507Z" fill="#5c6467"/>
            <path id="Trazado_146379" data-name="Trazado 146379" d="M531.13,5933.732a1.077,1.077,0,0,0,.29.928c.229.211.469.137.537-.164a1.076,1.076,0,0,0-.29-.928C531.438,5933.357,531.2,5933.431,531.13,5933.732Z" fill="#ffc536"/>
            <path id="Trazado_146380" data-name="Trazado 146380" d="M541.072,5938.828l.353-.114.013,0,.018-.006,0,0a.564.564,0,0,1,.5.172,1.71,1.71,0,0,1,.481,1.469.541.541,0,0,1-.32.437h0l-.005,0h0l-.353.115-.068-.206a.791.791,0,0,1-.1-.078,1.7,1.7,0,0,1-.481-1.468.894.894,0,0,1,.035-.114Z" fill="#3b4549"/>
            <path id="Trazado_146381" data-name="Trazado 146381" d="M540.742,5939.269a1.709,1.709,0,0,0,.481,1.469c.368.33.748.209.85-.272a1.708,1.708,0,0,0-.481-1.468C541.224,5938.667,540.844,5938.789,540.742,5939.269Z" fill="#5c6467"/>
            <path id="Trazado_146382" data-name="Trazado 146382" d="M540.989,5939.491a1.072,1.072,0,0,0,.3.924c.231.208.47.132.534-.171a1.073,1.073,0,0,0-.3-.923C541.292,5939.113,541.053,5939.189,540.989,5939.491Z" fill="#ffc536"/>
          </g>
          <path id="Trazado_146383" data-name="Trazado 146383" d="M529.34,5960.839a6,6,0,0,1-2.721,4.693c-1.5.868-2.721.173-2.721-1.551a6,6,0,0,1,2.721-4.694C528.122,5958.42,529.34,5959.114,529.34,5960.839Z" fill="#3b4549"/>
          <path id="Trazado_146384" data-name="Trazado 146384" d="M528.445,5959.041l1.283.735-3.932,6.585-1.245-.729,1.072-4.467Z" fill="#3b4549"/>
          <g id="Grupo_66464" data-name="Grupo 66464">
            <path id="Trazado_146385" data-name="Trazado 146385" d="M530.5,5961.51a5.993,5.993,0,0,1-2.721,4.693c-1.5.868-2.721.174-2.721-1.551a6,6,0,0,1,2.721-4.693C529.285,5959.091,530.5,5959.786,530.5,5961.51Z" fill="#5c6467"/>
            <ellipse id="Elipse_4904" data-name="Elipse 4904" cx="2.413" cy="1.393" rx="2.413" ry="1.393" transform="matrix(0.505, -0.863, 0.863, 0.505, 525.361, 5964.461)" fill="#ffc536"/>
            <path id="Trazado_146386" data-name="Trazado 146386" d="M523.649,5967.263l4.514-4.441-.381-.22-4.133,1.07Z" fill="#fff98b"/>
          </g>
          <g id="Grupo_66466" data-name="Grupo 66466">
            <path id="Trazado_146387" data-name="Trazado 146387" d="M524.031,5967.483l4.133-3.7v-.959l-4.133,1.07Z" fill="#ffe25b"/>
            <path id="Trazado_146388" data-name="Trazado 146388" d="M510.356,5967.968,520.8,5974v.541l-10.447-6.032Z" fill="#ffc536"/>
            <g id="Grupo_66465" data-name="Grupo 66465">
              <path id="Trazado_146389" data-name="Trazado 146389" d="M524.038,5967.124l2.83-27.689c.191-2.224.692-2.751,1.5-3.356a6.9,6.9,0,0,1,2.344-1.251l.919-.286-.233-.746-.918.286a7.737,7.737,0,0,0-2.6,1.391c-1.042.783-1.584,1.572-1.781,3.89l-2.83,27.682Z" fill="#ffc536"/>
            </g>
          </g>
          <path id="Trazado_146390" data-name="Trazado 146390" d="M524.6,5956.743a.12.12,0,0,1-.046-.1.371.371,0,0,1,.168-.29.121.121,0,0,1,.116-.013h0l10.514,6.068-.219.418-10.532-6.076h0l0,0Z" fill="#dd9a36"/>
          <path id="Trazado_146391" data-name="Trazado 146391" d="M525.841,5946.4a.116.116,0,0,1-.046-.1.369.369,0,0,1,.168-.29.119.119,0,0,1,.116-.013h0l10.513,6.068-.218.417-10.532-6.075h0l0,0Z" fill="#dd9a36"/>
          <path id="Trazado_146392" data-name="Trazado 146392" d="M527.584,5963.277a.2.2,0,0,1-.078-.177.633.633,0,0,1,.286-.5.2.2,0,0,1,.2-.021v0l0,0h0l9.527,5.5-.372.712-9.559-5.514h0l-.006,0Z" fill="#dd9a36"/>
          <path id="Trazado_146393" data-name="Trazado 146393" d="M533.714,5973.074l4.133-3.7v-.959l-4.133,1.07Z" fill="#fff98b"/>
          <path id="Trazado_146394" data-name="Trazado 146394" d="M520.8,5974l13.294-1.246-10.446-6.031-13.294,1.246Z" fill="#ffe25b"/>
          <path id="Trazado_146395" data-name="Trazado 146395" d="M534.426,5969.684l-.33,3.069-10.446-6.031.33-3.069Z" fill="#dd9a36"/>
          <g id="Grupo_66468" data-name="Grupo 66468">
            <path id="Trazado_146396" data-name="Trazado 146396" d="M534.1,5973.294l4.133-3.7v-.959l-4.133,1.07Z" fill="#ffe25b"/>
            <path id="Trazado_146397" data-name="Trazado 146397" d="M520.8,5974l13.294-1.246v.541L520.8,5974.54Z" fill="#ffc536"/>
            <g id="Grupo_66467" data-name="Grupo 66467">
              <path id="Trazado_146398" data-name="Trazado 146398" d="M534.484,5973.155l2.831-27.688.138-.97c.222-1.6.275-1.986.88-2.584a4.678,4.678,0,0,1,2.347-1.388l.915-.3-.241-.743-.915.3a5.3,5.3,0,0,0-2.7,1.623c-.751.737-.83,1.3-1.063,2.985l-.139.98-2.832,27.706Z" fill="#ffc536"/>
            </g>
          </g>
          <path id="Trazado_146399" data-name="Trazado 146399" d="M540.949,5967.557a6,6,0,0,1-2.721,4.693c-1.5.868-2.721.173-2.721-1.551a6,6,0,0,1,2.721-4.693C539.731,5965.138,540.949,5965.832,540.949,5967.557Z" fill="#3b4549"/>
          <path id="Trazado_146400" data-name="Trazado 146400" d="M536.235,5972.4l1.228.712,1.326-2.854,2.624-3.719-1.31-.76Z" fill="#3b4549"/>
          <path id="Trazado_146401" data-name="Trazado 146401" d="M542.113,5968.228a6,6,0,0,1-2.722,4.694c-1.5.867-2.721.173-2.721-1.552a6,6,0,0,1,2.721-4.693C540.894,5965.809,542.113,5966.5,542.113,5968.228Z" fill="#5c6467"/>
          <ellipse id="Elipse_4905" data-name="Elipse 4905" cx="2.413" cy="1.393" rx="2.413" ry="1.393" transform="matrix(0.505, -0.863, 0.863, 0.505, 536.971, 5971.18)" fill="#ffc536"/>
          <path id="Trazado_146402" data-name="Trazado 146402" d="M539.809,5969.558a.919.919,0,0,1-.418.721c-.23.133-.418.027-.418-.238a.923.923,0,0,1,.418-.721C539.622,5969.186,539.809,5969.293,539.809,5969.558Z" fill="#5c6467"/>
        </g>
        <g id="Grupo_66472" data-name="Grupo 66472">
          <g id="Grupo_66470" data-name="Grupo 66470">
            <path id="Trazado_146403" data-name="Trazado 146403" d="M522.843,5973.409l-9.1-5.251.9-9.808,9.1,5.251Z" fill="#c99a6b"/>
            <path id="Trazado_146404" data-name="Trazado 146404" d="M522.843,5973.409l10.014-.953.9-9.808-10.014.953Z" fill="#ae835b"/>
            <path id="Trazado_146405" data-name="Trazado 146405" d="M523.738,5963.6l10.014-.953-9.1-5.251-10.015.953Z" fill="#87623f"/>
            <path id="Trazado_146406" data-name="Trazado 146406" d="M519.18,5965.9l-1.869-1.079.584-4.6,1.869,1.079Z" fill="#d9af84"/>
            <path id="Trazado_146407" data-name="Trazado 146407" d="M519.764,5961.307l10.014-.953-1.869-1.079-10.014.953Z" fill="#ebcbab"/>
            <path id="Trazado_146408" data-name="Trazado 146408" d="M518.9,5960.807l10.014-.953-.105-.061-10.015.953Z" fill="#d1a986"/>
            <path id="Trazado_146409" data-name="Trazado 146409" d="M533.752,5962.648l-10.014.953,4.018-.087Z" fill="#87623f"/>
          </g>
          <g id="Grupo_66471" data-name="Grupo 66471">
            <path id="Trazado_146410" data-name="Trazado 146410" d="M523.761,5963.367l-9.1-5.251.9-9.808,9.1,5.251Z" fill="#c99a6b"/>
            <path id="Trazado_146411" data-name="Trazado 146411" d="M523.761,5963.367l10.015-.953.9-9.808-10.015.953Z" fill="#ae835b"/>
            <path id="Trazado_146412" data-name="Trazado 146412" d="M524.656,5953.559l10.015-.953-9.1-5.251-10.014.953Z" fill="#e8b687"/>
            <path id="Trazado_146413" data-name="Trazado 146413" d="M520.1,5955.86l-1.869-1.079.584-4.6,1.869,1.079Z" fill="#d9af84"/>
            <path id="Trazado_146414" data-name="Trazado 146414" d="M520.683,5951.265l10.014-.953-1.869-1.079-10.014.953Z" fill="#ebcbab"/>
            <path id="Trazado_146415" data-name="Trazado 146415" d="M519.817,5950.765l10.014-.952-.105-.061-10.015.953Z" fill="#d1a986"/>
            <path id="Trazado_146416" data-name="Trazado 146416" d="M534.671,5952.606l-10.015.953,4.018-.087Z" fill="#87623f"/>
          </g>
        </g>
        <g id="Grupo_66473" data-name="Grupo 66473">
          <path id="Trazado_146417" data-name="Trazado 146417" d="M551.5,5924.142c-.7.1-1.62.25-1.62.25a18.861,18.861,0,0,1-.554-3.786c.045-1.362-.018-3.772,1.78-4.575s2.4,1.941,2.457,2.469.367,5.2.367,5.2S553.043,5923.922,551.5,5924.142Z" fill="#ffdc6e"/>
        </g>
        <path id="Trazado_146418" data-name="Trazado 146418" d="M533.674,5934.983s.321-.238.156-.465-.419-.638-.419-.638l.028-.759s.7-.161.826-.741-.369-1.221-.689-1.144-1.272,1.405-1.322,1.5a8.894,8.894,0,0,0,.4,1.346s.366.586.451.681S533.406,5935.169,533.674,5934.983Z" fill="#fec7c6"/>
        <path id="Trazado_146419" data-name="Trazado 146419" d="M540.956,5905.3l.18.234s3.3.965,3.634,1.055c.145.036.388.136.731.244a7.9,7.9,0,0,0,1.974.406l1.5.126a6.61,6.61,0,0,0,.253-2.759c-.172-1-1.3-1.885-2.633-2.318a.027.027,0,0,0-.018-.009A6.318,6.318,0,0,0,545.3,5902a3.754,3.754,0,0,0-3.652,1.461A4.834,4.834,0,0,0,540.956,5905.3Z" fill="#fecb4c"/>
        <path id="Trazado_146420" data-name="Trazado 146420" d="M545.5,5906.835a7.9,7.9,0,0,0,1.974.406l1.5.126a6.61,6.61,0,0,0,.253-2.759c-.172-1-1.3-1.885-2.633-2.318a2.228,2.228,0,0,1,1.325,1.795A2.754,2.754,0,0,1,545.5,5906.835Z" fill="#fcf5e8" style="mix-blend-mode: multiply;isolation: isolate"/>
        <path id="Trazado_146421" data-name="Trazado 146421" d="M545.545,5906.857s-2.63,2.261-3.534,1.35a4.05,4.05,0,0,0-2.915-1.049l-.7.206a.17.17,0,0,1-.128-.2,27.647,27.647,0,0,1,2.686-1.859S542.015,5904.181,545.545,5906.857Z" fill="#725e6d"/>
        <g id="Grupo_66476" data-name="Grupo 66476">
          <g id="Grupo_66474" data-name="Grupo 66474">
            <path id="Trazado_146422" data-name="Trazado 146422" d="M524.053,5964.273l.006-.069,2.52-.254-.235,2.769-.006.068-2.518.255Zm2.344-.139-2.185.221-.211,2.5,2.184-.22Z" fill="#87623f"/>
          </g>
          <g id="Grupo_66475" data-name="Grupo 66475">
            <path id="Trazado_146423" data-name="Trazado 146423" d="M524.872,5966.5l.555-.061.09-1.4-.555.061Z" fill="#87623f"/>
            <path id="Trazado_146424" data-name="Trazado 146424" d="M524.435,5965.7l1.589-.182-.793-1.028Z" fill="#87623f"/>
          </g>
        </g>
        <g id="Grupo_66479" data-name="Grupo 66479">
          <g id="Grupo_66477" data-name="Grupo 66477">
            <path id="Trazado_146425" data-name="Trazado 146425" d="M525.015,5954.279l.006-.069,2.518-.254-.233,2.769-.006.068-2.519.255Zm2.343-.138-2.184.22-.211,2.5,2.184-.221Z" fill="#87623f"/>
          </g>
          <g id="Grupo_66478" data-name="Grupo 66478">
            <path id="Trazado_146426" data-name="Trazado 146426" d="M525.833,5956.509l.555-.061.09-1.4-.555.061Z" fill="#87623f"/>
            <path id="Trazado_146427" data-name="Trazado 146427" d="M525.4,5955.7l1.589-.182-.793-1.027Z" fill="#87623f"/>
          </g>
        </g>
      </g>
      <g id="Grupo_66551" data-name="Grupo 66551">
        <path id="Trazado_146428" data-name="Trazado 146428" d="M460.472,5969.7,434.3,5954.6l73.226-42.319,26.168,15.106Z" fill="#becdd4" style="mix-blend-mode: multiply;isolation: isolate"/>
        <g id="Grupo_66550" data-name="Grupo 66550">
          <g id="Grupo_66484" data-name="Grupo 66484">
            <g id="Grupo_66481" data-name="Grupo 66481">
              <path id="Trazado_146429" data-name="Trazado 146429" d="M510.388,5836.906v32.915l-2,1.155v-32.915Z" fill="#ffc536"/>
              <path id="Trazado_146430" data-name="Trazado 146430" d="M508.388,5838.062v32.915l-1.621-.936v-32.915Z" fill="#dd9a36"/>
              <path id="Trazado_146431" data-name="Trazado 146431" d="M508.39,5838.063l-1.623-.937,2-1.158,1.623.937Z" fill="#ffe25b"/>
            </g>
            <g id="Grupo_66482" data-name="Grupo 66482">
              <path id="Trazado_146432" data-name="Trazado 146432" d="M529.521,5847.956v32.915l-2,1.155v-32.915Z" fill="#ffc536"/>
              <path id="Trazado_146433" data-name="Trazado 146433" d="M527.521,5849.111v32.915l-1.621-.936v-32.915Z" fill="#dd9a36"/>
              <path id="Trazado_146434" data-name="Trazado 146434" d="M527.523,5849.112l-1.623-.937,2-1.158,1.623.937Z" fill="#ffe25b"/>
            </g>
            <g id="Grupo_66483" data-name="Grupo 66483">
              <path id="Trazado_146435" data-name="Trazado 146435" d="M529.524,5845.951v2l-2,1.156v-2Z" fill="#ffc536"/>
              <path id="Trazado_146436" data-name="Trazado 146436" d="M527.524,5847.106v2l-20.757-11.983v-2Z" fill="#dd9a36"/>
              <path id="Trazado_146437" data-name="Trazado 146437" d="M527.526,5847.107l-20.759-11.984,2-1.158,20.759,11.984Z" fill="#ffe25b"/>
            </g>
          </g>
          <g id="Grupo_66495" data-name="Grupo 66495">
            <g id="Grupo_66494" data-name="Grupo 66494">
              <g id="Grupo_66488" data-name="Grupo 66488">
                <g id="Grupo_66485" data-name="Grupo 66485">
                  <path id="Trazado_146438" data-name="Trazado 146438" d="M510.388,5906.749v10.566l-2,1.155V5907.9Z" fill="#ffc536"/>
                  <path id="Trazado_146439" data-name="Trazado 146439" d="M508.388,5907.9v10.566l-1.621-.936v-10.566Z" fill="#dd9a36"/>
                  <path id="Trazado_146440" data-name="Trazado 146440" d="M508.39,5907.906l-1.623-.937,2-1.158,1.623.937Z" fill="#ffe25b"/>
                </g>
                <g id="Grupo_66486" data-name="Grupo 66486">
                  <path id="Trazado_146441" data-name="Trazado 146441" d="M529.521,5917.8v10.566l-2,1.155v-10.566Z" fill="#ffc536"/>
                  <path id="Trazado_146442" data-name="Trazado 146442" d="M527.521,5918.954v10.566l-1.621-.936v-10.566Z" fill="#dd9a36"/>
                  <path id="Trazado_146443" data-name="Trazado 146443" d="M527.523,5918.955l-1.623-.937,2-1.158,1.623.937Z" fill="#ffe25b"/>
                </g>
                <g id="Grupo_66487" data-name="Grupo 66487">
                  <path id="Trazado_146444" data-name="Trazado 146444" d="M529.524,5915.793v2l-2,1.156v-2Z" fill="#ffc536"/>
                  <path id="Trazado_146445" data-name="Trazado 146445" d="M527.524,5916.949v2l-20.757-11.983v-2Z" fill="#dd9a36"/>
                  <path id="Trazado_146446" data-name="Trazado 146446" d="M527.526,5916.95l-20.759-11.984,2-1.158,20.759,11.984Z" fill="#ffe25b"/>
                </g>
              </g>
              <g id="Grupo_66489" data-name="Grupo 66489">
                <path id="Trazado_146447" data-name="Trazado 146447" d="M527.526,5916.95v2l-65.864,38.062v-2Z" fill="#ffc536"/>
                <path id="Trazado_146448" data-name="Trazado 146448" d="M461.662,5955.012v2l-20.757-11.983v-2Z" fill="#dd9a36"/>
                <path id="Trazado_146449" data-name="Trazado 146449" d="M461.665,5955.013l-20.759-11.984,65.864-38.064,20.759,11.984Z" fill="#ffe25b"/>
              </g>
              <g id="Grupo_66493" data-name="Grupo 66493">
                <g id="Grupo_66490" data-name="Grupo 66490">
                  <path id="Trazado_146450" data-name="Trazado 146450" d="M442.524,5945.968v10.566l-2,1.155v-10.566Z" fill="#ffc536"/>
                  <path id="Trazado_146451" data-name="Trazado 146451" d="M440.523,5947.124v10.566l-1.621-.936v-10.566Z" fill="#dd9a36"/>
                  <path id="Trazado_146452" data-name="Trazado 146452" d="M440.526,5947.125l-1.623-.937,2-1.158,1.623.937Z" fill="#ffe25b"/>
                </g>
                <g id="Grupo_66491" data-name="Grupo 66491">
                  <path id="Trazado_146453" data-name="Trazado 146453" d="M461.657,5957.018v10.566l-2,1.155v-10.566Z" fill="#ffc536"/>
                  <path id="Trazado_146454" data-name="Trazado 146454" d="M459.656,5958.173v10.566l-1.621-.936v-10.566Z" fill="#dd9a36"/>
                  <path id="Trazado_146455" data-name="Trazado 146455" d="M459.659,5958.174l-1.623-.937,2-1.158,1.623.937Z" fill="#ffe25b"/>
                </g>
                <g id="Grupo_66492" data-name="Grupo 66492">
                  <path id="Trazado_146456" data-name="Trazado 146456" d="M461.659,5955.013v2l-2,1.156v-2Z" fill="#ffc536"/>
                  <path id="Trazado_146457" data-name="Trazado 146457" d="M459.659,5956.168v2L438.9,5946.188v-2Z" fill="#dd9a36"/>
                  <path id="Trazado_146458" data-name="Trazado 146458" d="M459.662,5956.169,438.9,5944.186l2-1.158,20.759,11.984Z" fill="#ffe25b"/>
                </g>
              </g>
            </g>
          </g>
          <g id="Grupo_66499" data-name="Grupo 66499">
            <g id="Grupo_66496" data-name="Grupo 66496">
              <path id="Trazado_146459" data-name="Trazado 146459" d="M510.388,5871.828v32.915l-2,1.155v-32.915Z" fill="#ffc536"/>
              <path id="Trazado_146460" data-name="Trazado 146460" d="M508.388,5872.983V5905.9l-1.621-.936v-32.915Z" fill="#dd9a36"/>
              <path id="Trazado_146461" data-name="Trazado 146461" d="M508.39,5872.984l-1.623-.937,2-1.158,1.623.937Z" fill="#ffe25b"/>
            </g>
            <g id="Grupo_66497" data-name="Grupo 66497">
              <path id="Trazado_146462" data-name="Trazado 146462" d="M529.521,5882.877v32.915l-2,1.155v-32.915Z" fill="#ffc536"/>
              <path id="Trazado_146463" data-name="Trazado 146463" d="M527.521,5884.033v32.915l-1.621-.936V5883.1Z" fill="#dd9a36"/>
              <path id="Trazado_146464" data-name="Trazado 146464" d="M527.523,5884.034l-1.623-.937,2-1.158,1.623.937Z" fill="#ffe25b"/>
            </g>
            <g id="Grupo_66498" data-name="Grupo 66498">
              <path id="Trazado_146465" data-name="Trazado 146465" d="M529.524,5880.872v2l-2,1.156v-2Z" fill="#ffc536"/>
              <path id="Trazado_146466" data-name="Trazado 146466" d="M527.524,5882.028v2l-20.757-11.983v-2Z" fill="#dd9a36"/>
              <path id="Trazado_146467" data-name="Trazado 146467" d="M527.526,5882.029l-20.759-11.984,2-1.158,20.759,11.984Z" fill="#ffe25b"/>
            </g>
          </g>
          <g id="Grupo_66501" data-name="Grupo 66501">
            <g id="Grupo_66500" data-name="Grupo 66500">
              <path id="Trazado_146468" data-name="Trazado 146468" d="M506.006,5923.59l-12.583-7.265,12.583-7.265,4.178,14.53Z" fill="#becdd4" style="mix-blend-mode: multiply;isolation: isolate"/>
              <path id="Trazado_146469" data-name="Trazado 146469" d="M510.184,5923.59l12.583-7.265V5907.3l-12.583,7.265Z" fill="#c99a6b"/>
              <path id="Trazado_146470" data-name="Trazado 146470" d="M510.184,5923.59l-12.583-7.265V5907.3l12.583,7.265Z" fill="#ae835b"/>
              <path id="Trazado_146471" data-name="Trazado 146471" d="M510.184,5914.566,497.6,5907.3l12.583-7.265,12.583,7.265Z" fill="#e8b687"/>
              <path id="Trazado_146472" data-name="Trazado 146472" d="M504.779,5917.15l-2.022-1.167v-5.7l2.022,1.167Z" fill="#9c754e"/>
              <path id="Trazado_146473" data-name="Trazado 146473" d="M504.779,5911.446l12.583-7.265-2.022-1.167-12.583,7.265Z" fill="#54493e" style="mix-blend-mode: screen;isolation: isolate"/>
              <path id="Trazado_146474" data-name="Trazado 146474" d="M497.6,5907.3l12.583,7.265-6.79-3.632Z" fill="#87623f"/>
            </g>
            <path id="Trazado_146475" data-name="Trazado 146475" d="M503.844,5910.906l12.583-7.265-.139-.08-12.583,7.265Z" fill="#d1a986"/>
          </g>
          <g id="Grupo_66503" data-name="Grupo 66503">
            <g id="Grupo_66502" data-name="Grupo 66502">
              <path id="Trazado_146476" data-name="Trazado 146476" d="M489.635,5933.042l-12.583-7.265,12.583-7.265,4.178,14.53Z" fill="#becdd4" style="mix-blend-mode: multiply;isolation: isolate"/>
              <path id="Trazado_146477" data-name="Trazado 146477" d="M493.813,5933.042l12.583-7.265v-9.024l-12.583,7.265Z" fill="#c99a6b"/>
              <path id="Trazado_146478" data-name="Trazado 146478" d="M493.813,5933.042l-12.583-7.265v-9.024l12.583,7.265Z" fill="#ae835b"/>
              <path id="Trazado_146479" data-name="Trazado 146479" d="M493.813,5924.018l-12.583-7.265,12.583-7.265,12.583,7.265Z" fill="#e8b687"/>
              <path id="Trazado_146480" data-name="Trazado 146480" d="M488.408,5926.6l-2.022-1.167v-5.7l2.022,1.167Z" fill="#9c754e"/>
              <path id="Trazado_146481" data-name="Trazado 146481" d="M488.408,5920.9l12.583-7.265-2.022-1.167-12.583,7.265Z" fill="#54493e" style="mix-blend-mode: screen;isolation: isolate"/>
              <path id="Trazado_146482" data-name="Trazado 146482" d="M481.23,5916.753l12.583,7.265-6.79-3.632Z" fill="#87623f"/>
            </g>
            <path id="Trazado_146483" data-name="Trazado 146483" d="M487.473,5920.357l12.583-7.265-.139-.08-12.583,7.265Z" fill="#d1a986"/>
          </g>
          <g id="Grupo_66505" data-name="Grupo 66505">
            <g id="Grupo_66504" data-name="Grupo 66504">
              <path id="Trazado_146484" data-name="Trazado 146484" d="M473.265,5942.493l-12.583-7.265,12.583-7.265,4.178,14.53Z" fill="#becdd4" style="mix-blend-mode: multiply;isolation: isolate"/>
              <path id="Trazado_146485" data-name="Trazado 146485" d="M477.443,5942.493l12.583-7.265V5926.2l-12.583,7.265Z" fill="#c99a6b"/>
              <path id="Trazado_146486" data-name="Trazado 146486" d="M477.443,5942.493l-12.583-7.265V5926.2l12.583,7.265Z" fill="#ae835b"/>
              <path id="Trazado_146487" data-name="Trazado 146487" d="M477.443,5933.469,464.86,5926.2l12.583-7.265,12.583,7.265Z" fill="#e8b687"/>
              <path id="Trazado_146488" data-name="Trazado 146488" d="M472.038,5936.053l-2.022-1.167v-5.7l2.022,1.167Z" fill="#9c754e"/>
              <path id="Trazado_146489" data-name="Trazado 146489" d="M472.038,5930.349l12.583-7.265-2.022-1.167-12.583,7.265Z" fill="#54493e" style="mix-blend-mode: screen;isolation: isolate"/>
              <path id="Trazado_146490" data-name="Trazado 146490" d="M464.86,5926.2l12.583,7.265-6.79-3.632Z" fill="#87623f"/>
            </g>
            <path id="Trazado_146491" data-name="Trazado 146491" d="M471.1,5929.809l12.583-7.265-.139-.08-12.583,7.265Z" fill="#d1a986"/>
          </g>
          <g id="Grupo_66507" data-name="Grupo 66507">
            <g id="Grupo_66506" data-name="Grupo 66506">
              <path id="Trazado_146492" data-name="Trazado 146492" d="M456.894,5951.945l-12.583-7.265,12.583-7.265,4.178,14.53Z" fill="#becdd4" style="mix-blend-mode: multiply;isolation: isolate"/>
              <path id="Trazado_146493" data-name="Trazado 146493" d="M461.072,5951.945l12.583-7.265v-9.024l-12.583,7.265Z" fill="#c99a6b"/>
              <path id="Trazado_146494" data-name="Trazado 146494" d="M461.072,5951.945l-12.583-7.265v-9.024l12.583,7.265Z" fill="#ae835b"/>
              <path id="Trazado_146495" data-name="Trazado 146495" d="M461.072,5942.921l-12.583-7.265,12.583-7.265,12.583,7.265Z" fill="#e8b687"/>
              <path id="Trazado_146496" data-name="Trazado 146496" d="M455.667,5945.5l-2.022-1.167v-5.7l2.022,1.167Z" fill="#9c754e"/>
              <path id="Trazado_146497" data-name="Trazado 146497" d="M455.667,5939.8l12.583-7.265-2.022-1.167-12.583,7.265Z" fill="#54493e" style="mix-blend-mode: screen;isolation: isolate"/>
              <path id="Trazado_146498" data-name="Trazado 146498" d="M448.489,5935.656l12.583,7.265-6.79-3.632Z" fill="#87623f"/>
            </g>
            <path id="Trazado_146499" data-name="Trazado 146499" d="M454.732,5939.26,467.315,5932l-.139-.081-12.583,7.265Z" fill="#d1a986"/>
          </g>
          <g id="Grupo_66509" data-name="Grupo 66509">
            <g id="Grupo_66508" data-name="Grupo 66508">
              <path id="Trazado_146500" data-name="Trazado 146500" d="M510.184,5914.1l12.583-7.265v-9.024l-12.583,7.265Z" fill="#c99a6b"/>
              <path id="Trazado_146501" data-name="Trazado 146501" d="M510.184,5914.1l-12.583-7.265v-9.024l12.583,7.265Z" fill="#ae835b"/>
              <path id="Trazado_146502" data-name="Trazado 146502" d="M510.184,5905.076l-12.583-7.265,12.583-7.265,12.583,7.265Z" fill="#e8b687"/>
              <path id="Trazado_146503" data-name="Trazado 146503" d="M504.779,5907.659l-2.022-1.167v-5.7l2.022,1.167Z" fill="#9c754e"/>
              <path id="Trazado_146504" data-name="Trazado 146504" d="M504.779,5901.955l12.583-7.265-2.022-1.167-12.583,7.265Z" fill="#54493e" style="mix-blend-mode: screen;isolation: isolate"/>
              <path id="Trazado_146505" data-name="Trazado 146505" d="M497.6,5897.811l12.583,7.265-6.79-3.632Z" fill="#87623f"/>
            </g>
            <path id="Trazado_146506" data-name="Trazado 146506" d="M503.844,5901.415l12.583-7.265-.139-.081-12.583,7.265Z" fill="#d1a986"/>
          </g>
          <g id="Grupo_66511" data-name="Grupo 66511">
            <g id="Grupo_66510" data-name="Grupo 66510">
              <path id="Trazado_146507" data-name="Trazado 146507" d="M493.813,5923.551l12.583-7.265v-9.024l-12.583,7.265Z" fill="#c99a6b"/>
              <path id="Trazado_146508" data-name="Trazado 146508" d="M493.813,5923.551l-12.583-7.265v-9.024l12.583,7.265Z" fill="#ae835b"/>
              <path id="Trazado_146509" data-name="Trazado 146509" d="M493.813,5914.527l-12.583-7.265L493.813,5900l12.583,7.265Z" fill="#e8b687"/>
              <path id="Trazado_146510" data-name="Trazado 146510" d="M488.408,5917.111l-2.022-1.167v-5.7l2.022,1.167Z" fill="#9c754e"/>
              <path id="Trazado_146511" data-name="Trazado 146511" d="M488.408,5911.407l12.583-7.265-2.022-1.167-12.583,7.265Z" fill="#54493e" style="mix-blend-mode: screen;isolation: isolate"/>
              <path id="Trazado_146512" data-name="Trazado 146512" d="M481.23,5907.262l12.583,7.265-6.79-3.633Z" fill="#87623f"/>
            </g>
            <path id="Trazado_146513" data-name="Trazado 146513" d="M487.473,5910.867l12.583-7.265-.139-.081-12.583,7.265Z" fill="#d1a986"/>
          </g>
          <g id="Grupo_66513" data-name="Grupo 66513">
            <g id="Grupo_66512" data-name="Grupo 66512">
              <path id="Trazado_146514" data-name="Trazado 146514" d="M477.443,5933l12.583-7.265v-9.024l-12.583,7.265Z" fill="#c99a6b"/>
              <path id="Trazado_146515" data-name="Trazado 146515" d="M477.443,5933l-12.583-7.265v-9.024l12.583,7.265Z" fill="#ae835b"/>
              <path id="Trazado_146516" data-name="Trazado 146516" d="M477.443,5923.979l-12.583-7.265,12.583-7.265,12.583,7.265Z" fill="#e8b687"/>
              <path id="Trazado_146517" data-name="Trazado 146517" d="M472.038,5926.563l-2.022-1.167v-5.7l2.022,1.167Z" fill="#9c754e"/>
              <path id="Trazado_146518" data-name="Trazado 146518" d="M472.038,5920.858l12.583-7.265-2.022-1.167-12.583,7.265Z" fill="#54493e" style="mix-blend-mode: screen;isolation: isolate"/>
              <path id="Trazado_146519" data-name="Trazado 146519" d="M464.86,5916.714l12.583,7.265-6.79-3.632Z" fill="#87623f"/>
            </g>
            <path id="Trazado_146520" data-name="Trazado 146520" d="M471.1,5920.318l12.583-7.265-.139-.08-12.583,7.265Z" fill="#d1a986"/>
          </g>
          <g id="Grupo_66515" data-name="Grupo 66515">
            <g id="Grupo_66514" data-name="Grupo 66514">
              <path id="Trazado_146521" data-name="Trazado 146521" d="M461.072,5942.454l12.583-7.265v-9.024l-12.583,7.265Z" fill="#c99a6b"/>
              <path id="Trazado_146522" data-name="Trazado 146522" d="M461.072,5942.454l-12.583-7.265v-9.024l12.583,7.265Z" fill="#ae835b"/>
              <path id="Trazado_146523" data-name="Trazado 146523" d="M461.072,5933.43l-12.583-7.265,12.583-7.265,12.583,7.265Z" fill="#e8b687"/>
              <path id="Trazado_146524" data-name="Trazado 146524" d="M455.667,5936.014l-2.022-1.167v-5.7l2.022,1.167Z" fill="#9c754e"/>
              <path id="Trazado_146525" data-name="Trazado 146525" d="M455.667,5930.31l12.583-7.265-2.022-1.167-12.583,7.265Z" fill="#54493e" style="mix-blend-mode: screen;isolation: isolate"/>
              <path id="Trazado_146526" data-name="Trazado 146526" d="M448.489,5926.166l12.583,7.265-6.79-3.632Z" fill="#87623f"/>
            </g>
            <path id="Trazado_146527" data-name="Trazado 146527" d="M454.732,5929.77l12.583-7.265-.139-.08-12.583,7.265Z" fill="#d1a986"/>
          </g>
          <g id="Grupo_66521" data-name="Grupo 66521">
            <g id="Grupo_66516" data-name="Grupo 66516">
              <path id="Trazado_146528" data-name="Trazado 146528" d="M527.526,5882.029v2l-65.864,38.062v-2Z" fill="#ffc536"/>
              <path id="Trazado_146529" data-name="Trazado 146529" d="M461.662,5920.09v2l-20.757-11.983v-2Z" fill="#dd9a36"/>
              <path id="Trazado_146530" data-name="Trazado 146530" d="M461.665,5920.091l-20.759-11.984,65.864-38.064,20.759,11.984Z" fill="#ffe25b"/>
            </g>
            <g id="Grupo_66520" data-name="Grupo 66520">
              <g id="Grupo_66517" data-name="Grupo 66517">
                <path id="Trazado_146531" data-name="Trazado 146531" d="M442.524,5911.047v32.915l-2,1.155V5912.2Z" fill="#ffc536"/>
                <path id="Trazado_146532" data-name="Trazado 146532" d="M440.523,5912.2v32.915l-1.621-.936v-32.915Z" fill="#dd9a36"/>
                <path id="Trazado_146533" data-name="Trazado 146533" d="M440.526,5912.2l-1.623-.937,2-1.158,1.623.937Z" fill="#ffe25b"/>
              </g>
              <g id="Grupo_66518" data-name="Grupo 66518">
                <path id="Trazado_146534" data-name="Trazado 146534" d="M461.657,5922.1v32.915l-2,1.155v-32.915Z" fill="#ffc536"/>
                <path id="Trazado_146535" data-name="Trazado 146535" d="M459.656,5923.252v32.915l-1.621-.936v-32.915Z" fill="#dd9a36"/>
                <path id="Trazado_146536" data-name="Trazado 146536" d="M459.659,5923.253l-1.623-.937,2-1.158,1.623.937Z" fill="#ffe25b"/>
              </g>
              <g id="Grupo_66519" data-name="Grupo 66519">
                <path id="Trazado_146537" data-name="Trazado 146537" d="M461.659,5920.091v2l-2,1.155v-2Z" fill="#ffc536"/>
                <path id="Trazado_146538" data-name="Trazado 146538" d="M459.659,5921.247v2L438.9,5911.267v-2Z" fill="#dd9a36"/>
                <path id="Trazado_146539" data-name="Trazado 146539" d="M459.662,5921.248,438.9,5909.264l2-1.158,20.759,11.984Z" fill="#ffe25b"/>
              </g>
            </g>
          </g>
          <g id="Grupo_66523" data-name="Grupo 66523">
            <g id="Grupo_66522" data-name="Grupo 66522">
              <path id="Trazado_146540" data-name="Trazado 146540" d="M506.006,5887.962l-12.583-7.265,12.583-7.265,4.178,14.53Z" fill="#becdd4" style="mix-blend-mode: multiply;isolation: isolate"/>
              <path id="Trazado_146541" data-name="Trazado 146541" d="M510.184,5887.962l12.583-7.265v-9.024l-12.583,7.265Z" fill="#c99a6b"/>
              <path id="Trazado_146542" data-name="Trazado 146542" d="M510.184,5887.962,497.6,5880.7v-9.024l12.583,7.265Z" fill="#ae835b"/>
              <path id="Trazado_146543" data-name="Trazado 146543" d="M510.184,5878.938l-12.583-7.265,12.583-7.265,12.583,7.265Z" fill="#e8b687"/>
              <path id="Trazado_146544" data-name="Trazado 146544" d="M504.779,5881.522l-2.022-1.167v-5.7l2.022,1.167Z" fill="#9c754e"/>
              <path id="Trazado_146545" data-name="Trazado 146545" d="M504.779,5875.818l12.583-7.265-2.022-1.167-12.583,7.265Z" fill="#54493e" style="mix-blend-mode: screen;isolation: isolate"/>
              <path id="Trazado_146546" data-name="Trazado 146546" d="M497.6,5871.673l12.583,7.265-6.79-3.633Z" fill="#87623f"/>
            </g>
            <path id="Trazado_146547" data-name="Trazado 146547" d="M503.844,5875.278l12.583-7.265-.139-.081L503.7,5875.2Z" fill="#d1a986"/>
          </g>
          <g id="Grupo_66525" data-name="Grupo 66525">
            <g id="Grupo_66524" data-name="Grupo 66524">
              <path id="Trazado_146548" data-name="Trazado 146548" d="M489.635,5897.414l-12.583-7.265,12.583-7.265,4.178,14.53Z" fill="#becdd4" style="mix-blend-mode: multiply;isolation: isolate"/>
              <path id="Trazado_146549" data-name="Trazado 146549" d="M493.813,5897.414l12.583-7.265v-9.024l-12.583,7.265Z" fill="#c99a6b"/>
              <path id="Trazado_146550" data-name="Trazado 146550" d="M493.813,5897.414l-12.583-7.265v-9.024l12.583,7.265Z" fill="#ae835b"/>
              <path id="Trazado_146551" data-name="Trazado 146551" d="M493.813,5888.39l-12.583-7.265,12.583-7.265,12.583,7.265Z" fill="#e8b687"/>
              <path id="Trazado_146552" data-name="Trazado 146552" d="M488.408,5890.974l-2.022-1.167v-5.7l2.022,1.167Z" fill="#9c754e"/>
              <path id="Trazado_146553" data-name="Trazado 146553" d="M488.408,5885.269,500.992,5878l-2.022-1.167-12.583,7.265Z" fill="#54493e" style="mix-blend-mode: screen;isolation: isolate"/>
              <path id="Trazado_146554" data-name="Trazado 146554" d="M481.23,5881.125l12.583,7.265-6.79-3.632Z" fill="#87623f"/>
            </g>
            <path id="Trazado_146555" data-name="Trazado 146555" d="M487.473,5884.729l12.583-7.265-.139-.08-12.583,7.265Z" fill="#d1a986"/>
          </g>
          <g id="Grupo_66527" data-name="Grupo 66527">
            <g id="Grupo_66526" data-name="Grupo 66526">
              <path id="Trazado_146556" data-name="Trazado 146556" d="M456.894,5916.317l-12.583-7.265,12.583-7.265,4.178,14.53Z" fill="#becdd4" style="mix-blend-mode: multiply;isolation: isolate"/>
              <path id="Trazado_146557" data-name="Trazado 146557" d="M461.072,5916.317l12.583-7.265v-9.024l-12.583,7.265Z" fill="#c99a6b"/>
              <path id="Trazado_146558" data-name="Trazado 146558" d="M461.072,5916.317l-12.583-7.265v-9.024l12.583,7.265Z" fill="#ae835b"/>
              <path id="Trazado_146559" data-name="Trazado 146559" d="M461.072,5907.293l-12.583-7.265,12.583-7.265,12.583,7.265Z" fill="#e8b687"/>
              <path id="Trazado_146560" data-name="Trazado 146560" d="M455.667,5909.876l-2.022-1.167V5903l2.022,1.167Z" fill="#9c754e"/>
              <path id="Trazado_146561" data-name="Trazado 146561" d="M455.667,5904.172l12.583-7.265-2.022-1.167L453.645,5903Z" fill="#54493e" style="mix-blend-mode: screen;isolation: isolate"/>
              <path id="Trazado_146562" data-name="Trazado 146562" d="M448.489,5900.028l12.583,7.265-6.79-3.632Z" fill="#87623f"/>
            </g>
            <path id="Trazado_146563" data-name="Trazado 146563" d="M454.732,5903.632l12.583-7.265-.139-.081-12.583,7.265Z" fill="#d1a986"/>
          </g>
          <g id="Grupo_66529" data-name="Grupo 66529">
            <g id="Grupo_66528" data-name="Grupo 66528">
              <path id="Trazado_146564" data-name="Trazado 146564" d="M510.184,5878.472l12.583-7.265v-9.024l-12.583,7.265Z" fill="#c99a6b"/>
              <path id="Trazado_146565" data-name="Trazado 146565" d="M510.184,5878.472l-12.583-7.265v-9.024l12.583,7.265Z" fill="#ae835b"/>
              <path id="Trazado_146566" data-name="Trazado 146566" d="M510.184,5869.448l-12.583-7.265,12.583-7.265,12.583,7.265Z" fill="#e8b687"/>
              <path id="Trazado_146567" data-name="Trazado 146567" d="M504.779,5872.031l-2.022-1.167v-5.7l2.022,1.167Z" fill="#9c754e"/>
              <path id="Trazado_146568" data-name="Trazado 146568" d="M504.779,5866.327l12.583-7.265-2.022-1.167-12.583,7.265Z" fill="#54493e" style="mix-blend-mode: screen;isolation: isolate"/>
              <path id="Trazado_146569" data-name="Trazado 146569" d="M497.6,5862.183l12.583,7.265-6.79-3.632Z" fill="#87623f"/>
            </g>
            <path id="Trazado_146570" data-name="Trazado 146570" d="M503.844,5865.787l12.583-7.265-.139-.08-12.583,7.265Z" fill="#d1a986"/>
          </g>
          <g id="Grupo_66531" data-name="Grupo 66531">
            <g id="Grupo_66530" data-name="Grupo 66530">
              <path id="Trazado_146571" data-name="Trazado 146571" d="M493.813,5887.923l12.583-7.265v-9.024l-12.583,7.265Z" fill="#c99a6b"/>
              <path id="Trazado_146572" data-name="Trazado 146572" d="M493.813,5887.923l-12.583-7.265v-9.024l12.583,7.265Z" fill="#ae835b"/>
              <path id="Trazado_146573" data-name="Trazado 146573" d="M493.813,5878.9l-12.583-7.265,12.583-7.265,12.583,7.265Z" fill="#e8b687"/>
              <path id="Trazado_146574" data-name="Trazado 146574" d="M488.408,5881.483l-2.022-1.167v-5.7l2.022,1.167Z" fill="#9c754e"/>
              <path id="Trazado_146575" data-name="Trazado 146575" d="M488.408,5875.779l12.583-7.265-2.022-1.167-12.583,7.265Z" fill="#54493e" style="mix-blend-mode: screen;isolation: isolate"/>
              <path id="Trazado_146576" data-name="Trazado 146576" d="M481.23,5871.634l12.583,7.265-6.79-3.633Z" fill="#87623f"/>
            </g>
            <path id="Trazado_146577" data-name="Trazado 146577" d="M487.473,5875.239l12.583-7.265-.139-.081-12.583,7.265Z" fill="#d1a986"/>
          </g>
          <g id="Grupo_66533" data-name="Grupo 66533">
            <g id="Grupo_66532" data-name="Grupo 66532">
              <path id="Trazado_146578" data-name="Trazado 146578" d="M461.072,5906.827l12.583-7.265v-9.024l-12.583,7.265Z" fill="#c99a6b"/>
              <path id="Trazado_146579" data-name="Trazado 146579" d="M461.072,5906.827l-12.583-7.265v-9.024l12.583,7.265Z" fill="#ae835b"/>
              <path id="Trazado_146580" data-name="Trazado 146580" d="M461.072,5897.8l-12.583-7.265,12.583-7.265,12.583,7.265Z" fill="#e8b687"/>
              <path id="Trazado_146581" data-name="Trazado 146581" d="M455.667,5900.386l-2.022-1.167v-5.7l2.022,1.167Z" fill="#9c754e"/>
              <path id="Trazado_146582" data-name="Trazado 146582" d="M455.667,5894.682l12.583-7.265-2.022-1.167-12.583,7.265Z" fill="#54493e" style="mix-blend-mode: screen;isolation: isolate"/>
              <path id="Trazado_146583" data-name="Trazado 146583" d="M448.489,5890.538l12.583,7.265-6.79-3.632Z" fill="#87623f"/>
            </g>
            <path id="Trazado_146584" data-name="Trazado 146584" d="M454.732,5894.142l12.583-7.265-.139-.08-12.583,7.265Z" fill="#d1a986"/>
          </g>
          <g id="Grupo_66539" data-name="Grupo 66539">
            <g id="Grupo_66534" data-name="Grupo 66534">
              <path id="Trazado_146585" data-name="Trazado 146585" d="M527.526,5847.107v2l-65.864,38.062v-2Z" fill="#ffc536"/>
              <path id="Trazado_146586" data-name="Trazado 146586" d="M461.662,5885.169v2l-20.757-11.983v-2Z" fill="#dd9a36"/>
              <path id="Trazado_146587" data-name="Trazado 146587" d="M461.665,5885.17l-20.759-11.984,65.864-38.064,20.759,11.984Z" fill="#ffe25b"/>
            </g>
            <g id="Grupo_66538" data-name="Grupo 66538">
              <g id="Grupo_66535" data-name="Grupo 66535">
                <path id="Trazado_146588" data-name="Trazado 146588" d="M442.524,5876.125v32.915l-2,1.155v-32.915Z" fill="#ffc536"/>
                <path id="Trazado_146589" data-name="Trazado 146589" d="M440.523,5877.281V5910.2l-1.621-.936v-32.915Z" fill="#dd9a36"/>
                <path id="Trazado_146590" data-name="Trazado 146590" d="M440.526,5877.282l-1.623-.937,2-1.158,1.623.937Z" fill="#ffe25b"/>
              </g>
              <g id="Grupo_66536" data-name="Grupo 66536">
                <path id="Trazado_146591" data-name="Trazado 146591" d="M461.657,5887.175v32.915l-2,1.155v-32.915Z" fill="#ffc536"/>
                <path id="Trazado_146592" data-name="Trazado 146592" d="M459.656,5888.331v32.915l-1.621-.936v-32.915Z" fill="#dd9a36"/>
                <path id="Trazado_146593" data-name="Trazado 146593" d="M459.659,5888.332l-1.623-.937,2-1.158,1.623.937Z" fill="#ffe25b"/>
              </g>
              <g id="Grupo_66537" data-name="Grupo 66537">
                <path id="Trazado_146594" data-name="Trazado 146594" d="M461.659,5885.17v2l-2,1.156v-2Z" fill="#ffc536"/>
                <path id="Trazado_146595" data-name="Trazado 146595" d="M459.659,5886.326v2L438.9,5876.346v-2Z" fill="#dd9a36"/>
                <path id="Trazado_146596" data-name="Trazado 146596" d="M459.662,5886.327,438.9,5874.343l2-1.158,20.759,11.984Z" fill="#ffe25b"/>
              </g>
            </g>
          </g>
          <g id="Grupo_66541" data-name="Grupo 66541">
            <g id="Grupo_66540" data-name="Grupo 66540">
              <path id="Trazado_146597" data-name="Trazado 146597" d="M506.006,5852.981l-12.583-7.265,12.583-7.265,4.178,14.53Z" fill="#becdd4" style="mix-blend-mode: multiply;isolation: isolate"/>
              <path id="Trazado_146598" data-name="Trazado 146598" d="M510.184,5852.981l12.583-7.265v-9.024l-12.583,7.265Z" fill="#c99a6b"/>
              <path id="Trazado_146599" data-name="Trazado 146599" d="M510.184,5852.981l-12.583-7.265v-9.024l12.583,7.265Z" fill="#ae835b"/>
              <path id="Trazado_146600" data-name="Trazado 146600" d="M510.184,5843.957l-12.583-7.265,12.583-7.265,12.583,7.265Z" fill="#e8b687"/>
              <path id="Trazado_146601" data-name="Trazado 146601" d="M504.779,5846.541l-2.022-1.167v-5.7l2.022,1.167Z" fill="#9c754e"/>
              <path id="Trazado_146602" data-name="Trazado 146602" d="M504.779,5840.836l12.583-7.265-2.022-1.167-12.583,7.265Z" fill="#54493e" style="mix-blend-mode: screen;isolation: isolate"/>
              <path id="Trazado_146603" data-name="Trazado 146603" d="M497.6,5836.692l12.583,7.265-6.79-3.632Z" fill="#87623f"/>
            </g>
            <path id="Trazado_146604" data-name="Trazado 146604" d="M503.844,5840.3l12.583-7.265-.139-.08-12.583,7.265Z" fill="#d1a986"/>
          </g>
          <g id="Grupo_66543" data-name="Grupo 66543">
            <g id="Grupo_66542" data-name="Grupo 66542">
              <path id="Trazado_146605" data-name="Trazado 146605" d="M489.635,5862.433l-12.583-7.265,12.583-7.265,4.178,14.53Z" fill="#becdd4" style="mix-blend-mode: multiply;isolation: isolate"/>
              <path id="Trazado_146606" data-name="Trazado 146606" d="M493.813,5862.433l12.583-7.265v-9.024l-12.583,7.265Z" fill="#c99a6b"/>
              <path id="Trazado_146607" data-name="Trazado 146607" d="M493.813,5862.433l-12.583-7.265v-9.024l12.583,7.265Z" fill="#ae835b"/>
              <path id="Trazado_146608" data-name="Trazado 146608" d="M493.813,5853.408l-12.583-7.265,12.583-7.265,12.583,7.265Z" fill="#e8b687"/>
              <path id="Trazado_146609" data-name="Trazado 146609" d="M488.408,5855.992l-2.022-1.167v-5.7l2.022,1.167Z" fill="#9c754e"/>
              <path id="Trazado_146610" data-name="Trazado 146610" d="M488.408,5850.288l12.583-7.265-2.022-1.167-12.583,7.265Z" fill="#54493e" style="mix-blend-mode: screen;isolation: isolate"/>
              <path id="Trazado_146611" data-name="Trazado 146611" d="M481.23,5846.144l12.583,7.265-6.79-3.632Z" fill="#87623f"/>
            </g>
            <path id="Trazado_146612" data-name="Trazado 146612" d="M487.473,5849.748l12.583-7.265-.139-.08-12.583,7.265Z" fill="#d1a986"/>
          </g>
          <g id="Grupo_66545" data-name="Grupo 66545">
            <g id="Grupo_66544" data-name="Grupo 66544">
              <path id="Trazado_146613" data-name="Trazado 146613" d="M473.265,5871.884l-12.583-7.265,12.583-7.265,4.178,14.53Z" fill="#becdd4" style="mix-blend-mode: multiply;isolation: isolate"/>
              <path id="Trazado_146614" data-name="Trazado 146614" d="M477.443,5871.884l12.583-7.265v-9.024l-12.583,7.265Z" fill="#c99a6b"/>
              <path id="Trazado_146615" data-name="Trazado 146615" d="M477.443,5871.884l-12.583-7.265v-9.024l12.583,7.265Z" fill="#ae835b"/>
              <path id="Trazado_146616" data-name="Trazado 146616" d="M477.443,5862.86l-12.583-7.265,12.583-7.265,12.583,7.265Z" fill="#e8b687"/>
              <path id="Trazado_146617" data-name="Trazado 146617" d="M472.038,5865.443l-2.022-1.167v-5.7l2.022,1.167Z" fill="#9c754e"/>
              <path id="Trazado_146618" data-name="Trazado 146618" d="M472.038,5859.739l12.583-7.265-2.022-1.167-12.583,7.265Z" fill="#54493e" style="mix-blend-mode: screen;isolation: isolate"/>
              <path id="Trazado_146619" data-name="Trazado 146619" d="M464.86,5855.595l12.583,7.265-6.79-3.632Z" fill="#87623f"/>
            </g>
            <path id="Trazado_146620" data-name="Trazado 146620" d="M471.1,5859.2l12.583-7.265-.139-.081-12.583,7.265Z" fill="#d1a986"/>
          </g>
          <g id="Grupo_66547" data-name="Grupo 66547">
            <g id="Grupo_66546" data-name="Grupo 66546">
              <path id="Trazado_146621" data-name="Trazado 146621" d="M456.894,5881.335l-12.583-7.265,12.583-7.265,4.178,14.53Z" fill="#becdd4" style="mix-blend-mode: multiply;isolation: isolate"/>
              <path id="Trazado_146622" data-name="Trazado 146622" d="M461.072,5881.335l12.583-7.265v-9.024l-12.583,7.265Z" fill="#c99a6b"/>
              <path id="Trazado_146623" data-name="Trazado 146623" d="M461.072,5881.335l-12.583-7.265v-9.024l12.583,7.265Z" fill="#ae835b"/>
              <path id="Trazado_146624" data-name="Trazado 146624" d="M461.072,5872.312l-12.583-7.265,12.583-7.265,12.583,7.265Z" fill="#e8b687"/>
              <path id="Trazado_146625" data-name="Trazado 146625" d="M455.667,5874.9l-2.022-1.167v-5.7l2.022,1.167Z" fill="#9c754e"/>
              <path id="Trazado_146626" data-name="Trazado 146626" d="M455.667,5869.191l12.583-7.265-2.022-1.167-12.583,7.265Z" fill="#54493e" style="mix-blend-mode: screen;isolation: isolate"/>
              <path id="Trazado_146627" data-name="Trazado 146627" d="M448.489,5865.046l12.583,7.265-6.79-3.633Z" fill="#87623f"/>
            </g>
            <path id="Trazado_146628" data-name="Trazado 146628" d="M454.732,5868.651l12.583-7.265-.139-.081-12.583,7.265Z" fill="#d1a986"/>
          </g>
          <g id="Grupo_66549" data-name="Grupo 66549">
            <g id="Grupo_66548" data-name="Grupo 66548">
              <path id="Trazado_146629" data-name="Trazado 146629" d="M493.813,5852.942l12.583-7.265v-9.024l-12.583,7.265Z" fill="#c99a6b"/>
              <path id="Trazado_146630" data-name="Trazado 146630" d="M493.813,5852.942l-12.583-7.265v-9.024l12.583,7.265Z" fill="#ae835b"/>
              <path id="Trazado_146631" data-name="Trazado 146631" d="M493.813,5843.918l-12.583-7.265,12.583-7.265,12.583,7.265Z" fill="#e8b687"/>
              <path id="Trazado_146632" data-name="Trazado 146632" d="M488.408,5846.5l-2.022-1.167v-5.7l2.022,1.167Z" fill="#9c754e"/>
              <path id="Trazado_146633" data-name="Trazado 146633" d="M488.408,5840.8l12.583-7.265-2.022-1.167-12.583,7.265Z" fill="#54493e" style="mix-blend-mode: screen;isolation: isolate"/>
              <path id="Trazado_146634" data-name="Trazado 146634" d="M481.23,5836.653l12.583,7.265-6.79-3.633Z" fill="#87623f"/>
            </g>
            <path id="Trazado_146635" data-name="Trazado 146635" d="M487.473,5840.257l12.583-7.265-.139-.081-12.583,7.265Z" fill="#d1a986"/>
          </g>
        </g>
      </g>
    </g>
  </g>
</svg>
