<svg xmlns="http://www.w3.org/2000/svg" width="463.48" height="330.932" viewBox="0 0 463.48 330.932">
  <g id="Grupo_66117" data-name="Grupo 66117" transform="translate(-752.565 -5411.108)">
    <path id="Trazado_144728" data-name="Trazado 144728" d="M1181.951,5644.329c-7.4-26.557,16.131-27.582,16.648-61.8.212-14-7.456-28.25-25.9-34.788-9.066-3.214-18.1-5.422-26.17-10.531-18.384-11.644-18.052-33.8-23.066-52.684-11.015-41.482-97.294-74.461-140.2-73.39-30.93.772-45.2,15.68-73.4,41.934-19.294,17.964-53.289,16.336-43.384,62.748,8.824,41.34-11.992,38.27-31.053,53.532-19.021,15.23-32.95,33.4-25.379,54.016,8.348,22.737-42.751,35.786-51.865,65.259-6.181,19.991,26.289,21.68,48.386,21.68s211.158-1.7,291.125.666c21.523.636,90.194,6.5,99.907-20.333C1204.21,5672.374,1187.121,5662.875,1181.951,5644.329Z" fill="#c3ecfe" opacity="0.35"/>
    <g id="Grupo_66088" data-name="Grupo 66088">
      <path id="Trazado_144729" data-name="Trazado 144729" d="M1123.1,5720.7l-.568-1.271c37.248-16.609,67.617-47.095,83.321-83.643l1.281.551C1191.3,5673.2,1160.665,5703.947,1123.1,5720.7Z" fill="#c3ecfe"/>
      <g id="Grupo_66087" data-name="Grupo 66087">
        <path id="Trazado_144730" data-name="Trazado 144730" d="M1201.8,5645.952a30.626,30.626,0,0,0,10.544-18.528c.28-1.757.337-3.759-.844-5.09a1.992,1.992,0,0,0-1.241-.718,2.554,2.554,0,0,0-2,1.086c-2.776,3.12-3.74,7.434-4.216,11.583s-1.384,7.192-2.246,11.667" fill="#c3ecfe"/>
        <path id="Trazado_144731" data-name="Trazado 144731" d="M1194.216,5658.622a30.628,30.628,0,0,0,2.331-21.19c-.44-1.724-1.181-3.585-2.794-4.338a1.993,1.993,0,0,0-1.423-.167,2.554,2.554,0,0,0-1.4,1.789c-1.311,3.965-.484,8.308.723,12.305s1.582,7.152,2.566,11.6" fill="#c3ecfe"/>
        <path id="Trazado_144732" data-name="Trazado 144732" d="M1183.049,5674.208a30.626,30.626,0,0,0,4.905-20.746c-.226-1.765-.734-3.7-2.243-4.647a1.989,1.989,0,0,0-1.392-.34,2.555,2.555,0,0,0-1.611,1.6c-1.786,3.775-1.5,8.187-.787,12.3s.7,7.291,1.128,11.827" fill="#c3ecfe"/>
        <path id="Trazado_144733" data-name="Trazado 144733" d="M1170.216,5687.864a30.621,30.621,0,0,0,4.9-20.745c-.225-1.766-.734-3.7-2.242-4.647a1.992,1.992,0,0,0-1.393-.34,2.552,2.552,0,0,0-1.61,1.6c-1.786,3.775-1.5,8.186-.787,12.3s.7,7.291,1.128,11.827" fill="#c3ecfe"/>
        <path id="Trazado_144734" data-name="Trazado 144734" d="M1150.994,5703.625a30.622,30.622,0,0,0,7.026-20.126c-.041-1.779-.346-3.758-1.748-4.854a1.989,1.989,0,0,0-1.35-.482,2.553,2.553,0,0,0-1.769,1.428c-2.167,3.57-2.336,7.988-2.056,12.154s-.064,7.324-.1,11.88" fill="#c3ecfe"/>
        <path id="Trazado_144735" data-name="Trazado 144735" d="M1135.934,5713.693a32.691,32.691,0,0,0,8.155-19.115c.153-1.771.1-3.772-.983-5.032a1.647,1.647,0,0,0-1.1-.643c-.679-.034-1.244.583-1.666,1.2-2.235,3.277-2.848,7.641-3.051,11.81s-.832,7.262-1.35,11.779" fill="#c3ecfe"/>
        <path id="Trazado_144736" data-name="Trazado 144736" d="M1190.414,5664.2a33.186,33.186,0,0,0,21.932-4.207c1.623-.956,3.305-2.246,3.649-4.046a1.962,1.962,0,0,0-.2-1.437,2.541,2.541,0,0,0-2.162-.819c-4.329-.065-8.489,2.068-12.2,4.465s-6.793,3.726-11.019,6.044" fill="#c3ecfe"/>
        <path id="Trazado_144737" data-name="Trazado 144737" d="M1181.391,5676a33.182,33.182,0,0,0,22.3,1.149c1.8-.54,3.746-1.392,4.509-3.058a1.959,1.959,0,0,0,.151-1.443,2.543,2.543,0,0,0-1.9-1.311c-4.188-1.1-8.736-.018-12.915,1.424s-7.486,2-12.143,3.239" fill="#c3ecfe"/>
        <path id="Trazado_144738" data-name="Trazado 144738" d="M1167.913,5689.749a33.182,33.182,0,0,0,21.621,5.587c1.876-.168,3.948-.614,5.03-2.094a1.961,1.961,0,0,0,.436-1.383c-.109-.781-.87-1.3-1.6-1.666-3.885-1.911-8.556-1.765-12.939-1.188s-7.734.458-12.545.744" fill="#c3ecfe"/>
        <path id="Trazado_144739" data-name="Trazado 144739" d="M1149.057,5705.631a33.182,33.182,0,0,0,22.322.654c1.792-.581,3.714-1.475,4.44-3.158a1.958,1.958,0,0,0,.119-1.446,2.544,2.544,0,0,0-1.933-1.268c-4.211-1-8.735.176-12.88,1.71s-7.44,2.163-12.068,3.508" fill="#c3ecfe"/>
        <path id="Trazado_144740" data-name="Trazado 144740" d="M1133.811,5714.734a33.179,33.179,0,0,0,19.638,10.632c1.861.289,3.98.355,5.386-.82a1.954,1.954,0,0,0,.757-1.238,2.54,2.54,0,0,0-1.155-2c-3.309-2.791-7.878-3.775-12.271-4.271s-7.616-1.418-12.355-2.3" fill="#c3ecfe"/>
      </g>
    </g>
    <g id="Grupo_66092" data-name="Grupo 66092">
      <g id="Grupo_66089" data-name="Grupo 66089">
        <path id="Trazado_144741" data-name="Trazado 144741" d="M1116.134,5557.817a.4.4,0,0,1-.373-.366l-.14-1.989a.394.394,0,1,1,.787-.055l.14,1.988a.393.393,0,0,1-.366.421A.263.263,0,0,1,1116.134,5557.817Z" fill="#599fd2"/>
      </g>
      <g id="Grupo_66091" data-name="Grupo 66091">
        <g id="Grupo_66090" data-name="Grupo 66090">
          <path id="Trazado_144742" data-name="Trazado 144742" d="M1125.068,5648.21l-5.257.369-5.849-84.758,2.628-.185,2.628-.185Z" fill="#c3ecfe"/>
        </g>
      </g>
      <path id="Trazado_144743" data-name="Trazado 144743" d="M1116.63,5556.6l-1.063.075-1.606,7.148,5.257-.369Z" fill="#c3ecfe"/>
    </g>
    <g id="Grupo_66094" data-name="Grupo 66094">
      <path id="Trazado_144744" data-name="Trazado 144744" d="M951.414,5696.35c-47.74-21.579-83.256-67-92.685-118.533l1.37-.25c9.349,51.092,44.559,96.12,91.889,117.514Z" fill="#c3ecfe"/>
      <g id="Grupo_66093" data-name="Grupo 66093">
        <path id="Trazado_144745" data-name="Trazado 144745" d="M861.78,5588.383a30.63,30.63,0,0,1-6.147-20.412c.119-1.776.51-3.74,1.958-4.774a2,2,0,0,1,1.37-.423,2.559,2.559,0,0,1,1.705,1.5c2.01,3.66,1.987,8.081,1.527,12.231s-.254,7.32-.413,11.874" fill="#c3ecfe"/>
        <path id="Trazado_144746" data-name="Trazado 144746" d="M866.353,5602.426a30.624,30.624,0,0,1,2.452-21.176c.813-1.583,1.951-3.231,3.69-3.606a1.994,1.994,0,0,1,1.425.155,2.552,2.552,0,0,1,.969,2.057c.394,4.157-1.38,8.206-3.449,11.834s-3.136,6.619-5.087,10.736" fill="#c3ecfe"/>
        <path id="Trazado_144747" data-name="Trazado 144747" d="M873.763,5620.109a30.629,30.629,0,0,1-.155-21.317c.613-1.67,1.541-3.445,3.222-4.03a1.994,1.994,0,0,1,1.433-.02,2.553,2.553,0,0,1,1.213,1.923c.9,4.078-.367,8.313-1.976,12.167s-2.3,6.952-3.737,11.277" fill="#c3ecfe"/>
        <path id="Trazado_144748" data-name="Trazado 144748" d="M883.228,5636.284a30.63,30.63,0,0,1-.155-21.317c.614-1.671,1.541-3.446,3.222-4.03a1.991,1.991,0,0,1,1.433-.021,2.556,2.556,0,0,1,1.213,1.923c.9,4.078-.367,8.314-1.976,12.167s-2.3,6.952-3.737,11.278" fill="#c3ecfe"/>
        <path id="Trazado_144749" data-name="Trazado 144749" d="M898.453,5655.934a30.624,30.624,0,0,1-2.363-21.187c.438-1.725,1.176-3.586,2.787-4.342a2,2,0,0,1,1.424-.169,2.559,2.559,0,0,1,1.406,1.787c1.316,3.963.5,8.307-.706,12.307s-1.571,7.153-2.548,11.6" fill="#c3ecfe"/>
        <path id="Trazado_144750" data-name="Trazado 144750" d="M910.888,5669.106a32.7,32.7,0,0,1-3.687-20.452c.245-1.76.742-3.7,2.079-4.686a1.651,1.651,0,0,1,1.221-.381c.67.119,1.083.846,1.357,1.543,1.448,3.693,1.073,8.083.341,12.193s-.808,7.264-1.311,11.783" fill="#c3ecfe"/>
        <path id="Trazado_144751" data-name="Trazado 144751" d="M868.815,5608.713a33.185,33.185,0,0,1-20.442-8.992c-1.369-1.293-2.721-2.926-2.654-4.758a1.954,1.954,0,0,1,.513-1.356,2.541,2.541,0,0,1,2.29-.317c4.234.9,7.814,3.909,10.9,7.074s5.791,5.147,9.394,8.349" fill="#c3ecfe"/>
        <path id="Trazado_144752" data-name="Trazado 144752" d="M874.981,5622.221a33.181,33.181,0,0,1-22-3.852c-1.638-.929-3.341-2.192-3.714-3.986a1.96,1.96,0,0,1,.175-1.44,2.54,2.54,0,0,1,2.149-.854c4.327-.135,8.52,1.93,12.272,4.268s6.852,3.615,11.115,5.864" fill="#c3ecfe"/>
        <path id="Trazado_144753" data-name="Trazado 144753" d="M885.054,5638.634a33.176,33.176,0,0,1-22.323.627c-1.791-.583-3.712-1.48-4.436-3.163a1.96,1.96,0,0,1-.117-1.446,2.538,2.538,0,0,1,1.934-1.266c4.213-1,8.735.186,12.878,1.726s7.437,2.171,12.064,3.522" fill="#c3ecfe"/>
        <path id="Trazado_144754" data-name="Trazado 144754" d="M899.893,5658.321a33.176,33.176,0,0,1-21.905-4.34c-1.617-.965-3.292-2.266-3.625-4.068a1.961,1.961,0,0,1,.207-1.436,2.544,2.544,0,0,1,2.167-.806c4.329-.038,8.475,2.12,12.175,4.54s6.77,3.767,10.981,6.11" fill="#c3ecfe"/>
        <path id="Trazado_144755" data-name="Trazado 144755" d="M912.726,5670.594a33.18,33.18,0,0,1-21.514,5.986c-1.879-.134-3.96-.541-5.068-2a1.959,1.959,0,0,1-.462-1.375c.095-.782.846-1.321,1.573-1.7,3.848-1.983,8.522-1.923,12.914-1.427s7.741.316,12.557.512" fill="#c3ecfe"/>
      </g>
    </g>
    <g id="Grupo_66096" data-name="Grupo 66096">
      <path id="Trazado_144756" data-name="Trazado 144756" d="M902.478,5712.863c-31.478-41.314-83.254-65.483-135.153-63.143l-.063-1.391c52.334-2.4,104.573,22.018,136.324,63.69Z" fill="#c3ecfe"/>
      <g id="Grupo_66095" data-name="Grupo 66095">
        <path id="Trazado_144757" data-name="Trazado 144757" d="M778.243,5648.929a30.627,30.627,0,0,0-21.271-1.405c-1.7.515-3.53,1.337-4.212,2.981a1.991,1.991,0,0,0-.1,1.429,2.558,2.558,0,0,0,1.849,1.324c4.018,1.137,8.321.121,12.262-1.26s7.075-1.892,11.477-3.069" fill="#c3ecfe"/>
        <path id="Trazado_144758" data-name="Trazado 144758" d="M792.955,5650.23a30.627,30.627,0,0,0-20.084,7.147c-1.36,1.148-2.711,2.626-2.685,4.406a1.993,1.993,0,0,0,.471,1.354,2.554,2.554,0,0,0,2.222.481c4.139-.549,7.686-3.188,10.757-6.018s5.745-4.543,9.319-7.37" fill="#c3ecfe"/>
        <path id="Trazado_144759" data-name="Trazado 144759" d="M811.85,5653.479a30.628,30.628,0,0,0-20.807,4.637c-1.49.973-3.011,2.276-3.2,4.045a2,2,0,0,0,.3,1.4,2.556,2.556,0,0,0,2.146.749c4.176-.039,8.019-2.224,11.412-4.658s6.258-3.807,10.15-6.175" fill="#c3ecfe"/>
        <path id="Trazado_144760" data-name="Trazado 144760" d="M829.738,5659.069a30.628,30.628,0,0,0-20.807,4.637c-1.49.973-3.012,2.276-3.2,4.045a2,2,0,0,0,.3,1.4,2.553,2.553,0,0,0,2.147.75c4.175-.039,8.018-2.225,11.412-4.659s6.257-3.806,10.15-6.174" fill="#c3ecfe"/>
        <path id="Trazado_144761" data-name="Trazado 144761" d="M852.3,5669.49a30.627,30.627,0,0,0-21.175,2.457c-1.583.814-3.231,1.952-3.6,3.692a2,2,0,0,0,.155,1.425,2.555,2.555,0,0,0,2.057.968c4.157.393,8.206-1.382,11.833-3.452s6.618-3.138,10.735-5.09" fill="#c3ecfe"/>
        <path id="Trazado_144762" data-name="Trazado 144762" d="M867.934,5678.649a32.689,32.689,0,0,0-20.757,1c-1.66.635-3.439,1.554-4.1,3.079a1.649,1.649,0,0,0-.1,1.275c.267.626,1.068.866,1.808.976,3.924.581,8.119-.77,11.959-2.407s6.9-2.419,11.187-3.924" fill="#c3ecfe"/>
        <path id="Trazado_144763" data-name="Trazado 144763" d="M799.633,5651.217a33.182,33.182,0,0,0-13.353-17.9c-1.568-1.044-3.463-1.994-5.233-1.518a1.958,1.958,0,0,0-1.206.805,2.543,2.543,0,0,0,.206,2.3c1.83,3.923,5.564,6.735,9.341,9.031s6.316,4.487,10.245,7.278" fill="#c3ecfe"/>
        <path id="Trazado_144764" data-name="Trazado 144764" d="M814.182,5654.191a33.184,33.184,0,0,0-8.7-20.569c-1.273-1.388-2.887-2.763-4.719-2.723a1.951,1.951,0,0,0-1.364.494,2.542,2.542,0,0,0-.349,2.285c.841,4.246,3.795,7.869,6.915,11s5.062,5.865,8.212,9.513" fill="#c3ecfe"/>
        <path id="Trazado_144765" data-name="Trazado 144765" d="M832.438,5660.32a33.179,33.179,0,0,0-4.4-21.893c-.97-1.615-2.276-3.285-4.078-3.613a1.962,1.962,0,0,0-1.436.211,2.545,2.545,0,0,0-.8,2.17c-.026,4.329,2.144,8.469,4.575,12.161s3.786,6.759,6.142,10.964" fill="#c3ecfe"/>
        <path id="Trazado_144766" data-name="Trazado 144766" d="M854.955,5670.358a33.182,33.182,0,0,0-9.15-20.371c-1.3-1.359-2.947-2.7-4.778-2.618a1.952,1.952,0,0,0-1.352.524,2.543,2.543,0,0,0-.3,2.293c.935,4.226,3.969,7.782,7.158,10.843s5.192,5.751,8.421,9.329" fill="#c3ecfe"/>
        <path id="Trazado_144767" data-name="Trazado 144767" d="M869.8,5680.1a33.183,33.183,0,0,0,1-22.309c-.553-1.8-1.418-3.736-3.089-4.488a1.951,1.951,0,0,0-1.443-.141,2.543,2.543,0,0,0-1.3,1.912c-1.068,4.2.041,8.737,1.51,12.906s2.047,7.472,3.32,12.12" fill="#c3ecfe"/>
      </g>
    </g>
    <path id="Trazado_144768" data-name="Trazado 144768" d="M931.25,5670.976a36.713,36.713,0,0,0-28.366-9.577c-6.933.7-14.493,4.4-16.019,11.2-.726,3.238-.472,7.534-3.537,8.806-3,1.246-5.9-1.844-8.976-2.877-5.126-1.72-10.976,4.141-9.247,9.264.787,2.329,2.758,4.359,2.594,6.812-.223,3.34-4.352,5.082-7.66,4.563s-6.228-2.45-9.472-3.276-7.447,0-8.587,3.15c-1.021,2.822.741,6.614-1.475,8.637a6.044,6.044,0,0,1-3.6,1.167c-28.094,2.667-59.035,7.707-55.891,12.7.859,1.364,3.056.93,4.668.9,59.8-.935,114.115-1.827,173.892.006" fill="#c3ecfe"/>
    <g id="Grupo_66102" data-name="Grupo 66102">
      <path id="Trazado_144769" data-name="Trazado 144769" d="M1099.392,5577.048l17.726,69.512-3.372.86-21.932-68.439" fill="#88d2ff"/>
      <g id="Grupo_66097" data-name="Grupo 66097">
        <path id="Trazado_144770" data-name="Trazado 144770" d="M1082.987,5578.634c-9.052,2.308-18.686-4.712-21.475-15.65s2.306-21.715,11.358-24.023,18.686,4.712,21.476,15.65S1092.039,5576.325,1082.987,5578.634Zm-8.566-33.591c-5.7,1.453-8.761,8.806-6.827,16.39s8.144,12.571,13.842,11.118,8.761-8.8,6.827-16.389S1080.119,5543.59,1074.421,5545.043Z" fill="#9bdfff"/>
      </g>
      <g id="Grupo_66098" data-name="Grupo 66098">
        <path id="Trazado_144771" data-name="Trazado 144771" d="M1092.307,5559.316l5.39,21.136a1.987,1.987,0,0,1-1.434,2.416h0a1.986,1.986,0,0,1-2.415-1.434l-.609-2.388s-2.83-6.037-10.656-3.548c0,0,9.334-1.166,9.651-1.143S1092.013,5558.163,1092.307,5559.316Z" fill="#c0edff"/>
        <path id="Trazado_144772" data-name="Trazado 144772" d="M1097.038,5585.909a5.131,5.131,0,0,1-6.231-3.7,8.255,8.255,0,0,0-.97-2.582c-1.013-1.439-3.081-1.98-6.864-1.015l-.957-5.343c1.988-.637,3.418-1.6,5.017-1.484.857-.1,1.569-.19,2.165-.26-.007-1.637-.038-3.795-.064-5.449-.024-1.759,2.257-3.735,2.252-5-.009-2.266-2.332-4.555.479-4.931l2.766-.368,6.107,23.9A5.131,5.131,0,0,1,1097.038,5585.909Z" fill="#9bdfff"/>
      </g>
      <g id="Grupo_66101" data-name="Grupo 66101">
        <path id="Trazado_144773" data-name="Trazado 144773" d="M1102,5576.418l.052,71.736,3.48,0,4.288-71.74" fill="#88d2ff"/>
        <g id="Grupo_66099" data-name="Grupo 66099">
          <path id="Trazado_144774" data-name="Trazado 144774" d="M1101.329,5553.43c-.008-11.287,7.586-20.476,16.928-20.483s16.949,9.171,16.957,20.458-7.586,20.477-16.927,20.484S1101.338,5564.718,1101.329,5553.43Zm6.277,0c.006,7.826,4.8,14.19,10.676,14.186s10.661-6.375,10.655-14.2-4.8-14.191-10.675-14.186S1107.6,5545.6,1107.606,5553.426Z" fill="#9bdfff"/>
        </g>
        <g id="Grupo_66100" data-name="Grupo 66100">
          <path id="Trazado_144775" data-name="Trazado 144775" d="M1104.47,5557.483c0,1.19.016,21.813.016,21.813a1.986,1.986,0,0,0,1.988,1.985h0a1.986,1.986,0,0,0,1.985-1.988l0-2.464s1.246-6.55,9.444-6.078c0,0-9.331,1.184-9.633,1.284S1104.469,5556.294,1104.47,5557.483Z" fill="#c0edff"/>
          <path id="Trazado_144776" data-name="Trazado 144776" d="M1106.476,5584.419a5.13,5.13,0,0,0,5.121-5.128,8.261,8.261,0,0,1,.3-2.742c.625-1.645,2.495-2.682,6.4-2.685l-.4-5.413c-2.084-.125-3.707-.7-5.229-.194-.856.111-1.567.2-2.162.284-.4-1.587-.9-3.686-1.289-5.295-.411-1.71-3.112-3.059-3.419-4.284-.553-2.2,1.13-4.99-1.687-4.658l-2.77.329.005,24.665A5.13,5.13,0,0,0,1106.476,5584.419Z" fill="#9bdfff"/>
        </g>
      </g>
    </g>
    <g id="Grupo_66107" data-name="Grupo 66107">
      <g id="Grupo_66103" data-name="Grupo 66103">
        <path id="Rectángulo_5375" data-name="Rectángulo 5375" d="M1.169,0H8A1.169,1.169,0,0,1,9.168,1.169V80.02a0,0,0,0,1,0,0H0a0,0,0,0,1,0,0V1.169A1.169,1.169,0,0,1,1.169,0Z" transform="translate(1137.401 5555.087) rotate(10.237)" fill="#88d2ff"/>
      </g>
      <g id="Grupo_66104" data-name="Grupo 66104">
        <path id="Rectángulo_5376" data-name="Rectángulo 5376" d="M1.169,0H8A1.169,1.169,0,0,1,9.168,1.169V8.747a0,0,0,0,1,0,0H0a0,0,0,0,1,0,0V1.169A1.169,1.169,0,0,1,1.169,0Z" transform="matrix(0.984, 0.178, -0.178, 0.984, 1137.401, 5555.087)" fill="#fe7d90"/>
      </g>
      <g id="Grupo_66106" data-name="Grupo 66106" opacity="0.5">
        <g id="Grupo_66105" data-name="Grupo 66105">
          <rect id="Rectángulo_5377" data-name="Rectángulo 5377" width="2.745" height="9.169" transform="matrix(0.178, -0.984, 0.984, 0.178, 1135.361, 5566.405)" fill="#599fd2"/>
        </g>
      </g>
    </g>
    <g id="Grupo_66109" data-name="Grupo 66109">
      <rect id="Rectángulo_5378" data-name="Rectángulo 5378" width="15.826" height="85.622" transform="translate(1155.941 5567.795) rotate(21.511)" fill="#c3ecfe"/>
      <g id="Grupo_66108" data-name="Grupo 66108">
        <rect id="Rectángulo_5379" data-name="Rectángulo 5379" width="1.392" height="5.216" transform="matrix(0.367, -0.93, 0.93, 0.367, 1164.535, 5574.925)" fill="#ccf3ff"/>
        <rect id="Rectángulo_5380" data-name="Rectángulo 5380" width="1.392" height="5.216" transform="translate(1162.905 5579.062) rotate(-68.483)" fill="#ccf3ff"/>
        <rect id="Rectángulo_5381" data-name="Rectángulo 5381" width="1.392" height="5.216" transform="matrix(0.367, -0.93, 0.93, 0.367, 1161.274, 5583.2)" fill="#ccf3ff"/>
        <rect id="Rectángulo_5382" data-name="Rectángulo 5382" width="1.394" height="7.768" transform="translate(1157.269 5586.402) rotate(-68.486)" fill="#ccf3ff"/>
        <rect id="Rectángulo_5383" data-name="Rectángulo 5383" width="1.394" height="5.216" transform="matrix(0.367, -0.93, 0.93, 0.367, 1158.012, 5591.476)" fill="#ccf3ff"/>
        <rect id="Rectángulo_5384" data-name="Rectángulo 5384" width="1.394" height="5.216" transform="matrix(0.367, -0.93, 0.93, 0.367, 1156.381, 5595.613)" fill="#ccf3ff"/>
        <rect id="Rectángulo_5385" data-name="Rectángulo 5385" width="1.394" height="5.216" transform="matrix(0.367, -0.93, 0.93, 0.367, 1154.75, 5599.751)" fill="#ccf3ff"/>
        <rect id="Rectángulo_5386" data-name="Rectángulo 5386" width="1.394" height="7.767" transform="matrix(0.367, -0.93, 0.93, 0.367, 1150.745, 5602.953)" fill="#ccf3ff"/>
        <rect id="Rectángulo_5387" data-name="Rectángulo 5387" width="1.394" height="5.216" transform="matrix(0.367, -0.93, 0.93, 0.367, 1151.489, 5608.026)" fill="#ccf3ff"/>
        <rect id="Rectángulo_5388" data-name="Rectángulo 5388" width="1.394" height="5.216" transform="matrix(0.367, -0.93, 0.93, 0.367, 1149.858, 5612.164)" fill="#ccf3ff"/>
        <rect id="Rectángulo_5389" data-name="Rectángulo 5389" width="1.392" height="5.216" transform="translate(1148.227 5616.3) rotate(-68.483)" fill="#ccf3ff"/>
        <rect id="Rectángulo_5390" data-name="Rectángulo 5390" width="1.394" height="7.768" transform="translate(1144.222 5619.503) rotate(-68.486)" fill="#ccf3ff"/>
        <rect id="Rectángulo_5391" data-name="Rectángulo 5391" width="1.392" height="5.216" transform="translate(1144.965 5624.575) rotate(-68.483)" fill="#ccf3ff"/>
        <rect id="Rectángulo_5392" data-name="Rectángulo 5392" width="1.392" height="5.216" transform="matrix(0.367, -0.93, 0.93, 0.367, 1143.334, 5628.714)" fill="#ccf3ff"/>
        <rect id="Rectángulo_5393" data-name="Rectángulo 5393" width="1.392" height="5.216" transform="translate(1141.704 5632.851) rotate(-68.483)" fill="#ccf3ff"/>
        <rect id="Rectángulo_5394" data-name="Rectángulo 5394" width="1.394" height="7.767" transform="matrix(0.367, -0.93, 0.93, 0.367, 1137.699, 5636.054)" fill="#ccf3ff"/>
        <rect id="Rectángulo_5395" data-name="Rectángulo 5395" width="1.394" height="5.216" transform="matrix(0.367, -0.93, 0.93, 0.367, 1138.442, 5641.127)" fill="#ccf3ff"/>
        <rect id="Rectángulo_5396" data-name="Rectángulo 5396" width="1.394" height="5.216" transform="matrix(0.367, -0.93, 0.93, 0.367, 1136.811, 5645.265)" fill="#ccf3ff"/>
        <rect id="Rectángulo_5397" data-name="Rectángulo 5397" width="1.394" height="5.216" transform="matrix(0.367, -0.93, 0.93, 0.367, 1135.18, 5649.402)" fill="#ccf3ff"/>
      </g>
    </g>
    <path id="Trazado_144777" data-name="Trazado 144777" d="M1150.028,5725.979h-73.417l-12.332-111.063a2.384,2.384,0,0,1,2.37-2.647h93.341a2.384,2.384,0,0,1,2.37,2.647Z" fill="#9bdfff"/>
    <path id="Trazado_144778" data-name="Trazado 144778" d="M1057.964,5730.819l132.664,1.807c1.484.021,6.162-1.426-1.9-6.624-6.827-4.4-28.4-.442-28.4-.442s5.022-2.014,5-4.613-1.993-4.882-4.358-5.96a16.184,16.184,0,0,0-7.653-1.008,48.764,48.764,0,0,0-15.413,3.449,4.47,4.47,0,1,0-5.185-7.257c3.315-4.489,8.438-24.38-7.309-33.146-19.737-10.988-34.727-1.946-37.926,4.667-1.622-6.491-9.07-11.406-13.975-12.624-11.188-2.777-18.475-1.954-28.919,2.924-3.7,1.725-8.642,7.618-11.1,10.873-3.847,5.1-4.446,11.878-4.658,18.261q-.238,7.187-.065,14.378" fill="#ccf3ff"/>
    <path id="Trazado_144779" data-name="Trazado 144779" d="M1083.805,5737.363c0,2.583-53.931,4.677-120.457,4.677s-120.457-2.094-120.457-4.677,53.93-4.677,120.457-4.677S1083.805,5734.78,1083.805,5737.363Z" fill="#afe1f2"/>
    <path id="Trazado_144780" data-name="Trazado 144780" d="M965.642,5411.109c-6.677,0-12.089,5.036-12.089,11.248v14.417h24.178s0-11.45,0-14.417C977.731,5416.145,972.318,5411.109,965.642,5411.109Zm0,17.7a6.327,6.327,0,1,1,6.782-6.311A6.559,6.559,0,0,1,965.642,5428.813Z" fill="#db6e5f"/>
    <path id="Trazado_144781" data-name="Trazado 144781" d="M972.424,5422.5a6.559,6.559,0,0,0-6.782-6.311,7.073,7.073,0,0,0-1.019.1,5.259,5.259,0,0,1,2.752-.614,6.56,6.56,0,0,1,6.782,6.311,5.193,5.193,0,0,1-4.351,5.5A6.733,6.733,0,0,0,972.424,5422.5Zm-15.178,12.833v-14.417a10.76,10.76,0,0,1,5.082-9.371,11.4,11.4,0,0,0-8.775,10.81v14.417h24.178v-1.439Z" fill="#b03d44" opacity="0.45"/>
    <rect id="Rectángulo_5398" data-name="Rectángulo 5398" width="227.853" height="299.78" rx="9.742" transform="translate(849.421 5437.531)" fill="#3e89cc"/>
    <rect id="Rectángulo_5399" data-name="Rectángulo 5399" width="201.44" height="276.265" transform="translate(862.628 5449.289)" fill="#c3ecfe"/>
    <rect id="Rectángulo_5400" data-name="Rectángulo 5400" width="185.949" height="259.385" transform="translate(870.373 5457.729)" fill="#fff"/>
    <path id="Trazado_144782" data-name="Trazado 144782" d="M1036.633,5442.494v11.267H890.058v-11.267c0-4.372,3.814-7.91,8.5-7.91h129.574C1032.831,5434.584,1036.633,5438.122,1036.633,5442.494Z" fill="#db6e5f"/>
    <path id="Trazado_144783" data-name="Trazado 144783" d="M1036.633,5450.944v2.817H890.058v-11.267c0-4.372,3.814-7.91,8.5-7.91h1.175a11.5,11.5,0,0,0-4.008,8.2v8.157Z" fill="#b03d44" opacity="0.45"/>
    <g id="Grupo_66110" data-name="Grupo 66110">
      <path id="Trazado_144784" data-name="Trazado 144784" d="M894.414,5498.83H881.948a2.683,2.683,0,0,1-2.68-2.68v-11.307a2.683,2.683,0,0,1,2.68-2.681h12.466a2.683,2.683,0,0,1,2.68,2.681v11.307A2.683,2.683,0,0,1,894.414,5498.83Zm-12.466-15.512a1.526,1.526,0,0,0-1.524,1.525v11.307a1.526,1.526,0,0,0,1.524,1.524h12.466a1.526,1.526,0,0,0,1.524-1.524v-11.307a1.526,1.526,0,0,0-1.524-1.525Z" fill="#2396b5"/>
      <path id="Trazado_144785" data-name="Trazado 144785" d="M888.181,5496.561a1.734,1.734,0,0,1-1.3-.582l-6.284-7.06a1.735,1.735,0,0,1,2.592-2.307l4.806,5.4,10.838-15.913a1.735,1.735,0,0,1,2.868,1.954l-12.09,17.75a1.736,1.736,0,0,1-1.322.754C888.256,5496.559,888.218,5496.561,888.181,5496.561Z" fill="#e2cb5e"/>
    </g>
    <g id="Grupo_66111" data-name="Grupo 66111">
      <path id="Trazado_144786" data-name="Trazado 144786" d="M894.414,5542.482H881.948a2.683,2.683,0,0,1-2.68-2.679V5528.5a2.683,2.683,0,0,1,2.68-2.681h12.466a2.683,2.683,0,0,1,2.68,2.681V5539.8A2.683,2.683,0,0,1,894.414,5542.482Zm-12.466-15.511a1.525,1.525,0,0,0-1.524,1.524V5539.8a1.526,1.526,0,0,0,1.524,1.523h12.466a1.526,1.526,0,0,0,1.524-1.523V5528.5a1.525,1.525,0,0,0-1.524-1.524Z" fill="#2396b5"/>
      <path id="Trazado_144787" data-name="Trazado 144787" d="M888.181,5540.214a1.734,1.734,0,0,1-1.3-.582l-6.284-7.061a1.735,1.735,0,1,1,2.592-2.306l4.806,5.4,10.838-15.912a1.735,1.735,0,0,1,2.868,1.953l-12.09,17.75a1.738,1.738,0,0,1-1.322.755C888.256,5540.212,888.218,5540.214,888.181,5540.214Z" fill="#e2cb5e"/>
    </g>
    <g id="Grupo_66112" data-name="Grupo 66112">
      <path id="Trazado_144788" data-name="Trazado 144788" d="M894.414,5587.424H881.948a2.683,2.683,0,0,1-2.68-2.681v-11.308a2.683,2.683,0,0,1,2.68-2.679h12.466a2.683,2.683,0,0,1,2.68,2.679v11.308A2.683,2.683,0,0,1,894.414,5587.424Zm-12.466-15.512a1.526,1.526,0,0,0-1.524,1.523v11.308a1.526,1.526,0,0,0,1.524,1.524h12.466a1.526,1.526,0,0,0,1.524-1.524v-11.308a1.526,1.526,0,0,0-1.524-1.523Z" fill="#2396b5"/>
      <path id="Trazado_144789" data-name="Trazado 144789" d="M888.181,5585.155a1.736,1.736,0,0,1-1.3-.582l-6.284-7.061a1.735,1.735,0,1,1,2.592-2.307l4.806,5.4,10.838-15.913a1.735,1.735,0,0,1,2.868,1.953l-12.09,17.751a1.733,1.733,0,0,1-1.322.755C888.256,5585.153,888.218,5585.155,888.181,5585.155Z" fill="#e2cb5e"/>
    </g>
    <g id="Grupo_66113" data-name="Grupo 66113">
      <path id="Trazado_144790" data-name="Trazado 144790" d="M894.414,5629.12H881.948a2.683,2.683,0,0,1-2.68-2.68v-11.307a2.683,2.683,0,0,1,2.68-2.681h12.466a2.683,2.683,0,0,1,2.68,2.681v11.307A2.683,2.683,0,0,1,894.414,5629.12Zm-12.466-15.512a1.526,1.526,0,0,0-1.524,1.525v11.307a1.526,1.526,0,0,0,1.524,1.524h12.466a1.526,1.526,0,0,0,1.524-1.524v-11.307a1.526,1.526,0,0,0-1.524-1.525Z" fill="#2396b5"/>
      <path id="Trazado_144791" data-name="Trazado 144791" d="M888.181,5626.851a1.734,1.734,0,0,1-1.3-.582l-6.284-7.06a1.735,1.735,0,0,1,2.592-2.307l4.806,5.4,10.838-15.912a1.735,1.735,0,1,1,2.868,1.953l-12.09,17.75a1.739,1.739,0,0,1-1.322.755Z" fill="#e2cb5e"/>
    </g>
    <g id="Grupo_66114" data-name="Grupo 66114">
      <path id="Trazado_144792" data-name="Trazado 144792" d="M894.414,5653.1H881.948a2.684,2.684,0,0,1-2.68-2.681v-11.308a2.682,2.682,0,0,1,2.68-2.679h12.466a2.682,2.682,0,0,1,2.68,2.679v11.308A2.684,2.684,0,0,1,894.414,5653.1Zm-12.466-15.512a1.525,1.525,0,0,0-1.524,1.523v11.308a1.526,1.526,0,0,0,1.524,1.524h12.466a1.526,1.526,0,0,0,1.524-1.524v-11.308a1.525,1.525,0,0,0-1.524-1.523Z" fill="#2396b5"/>
      <path id="Trazado_144793" data-name="Trazado 144793" d="M888.181,5650.829a1.734,1.734,0,0,1-1.3-.582l-6.284-7.062a1.735,1.735,0,1,1,2.592-2.306l4.806,5.4,10.838-15.913a1.735,1.735,0,0,1,2.868,1.953l-12.09,17.751a1.734,1.734,0,0,1-1.322.755C888.256,5650.827,888.218,5650.829,888.181,5650.829Z" fill="#e2cb5e"/>
    </g>
    <g id="Grupo_66115" data-name="Grupo 66115">
      <path id="Trazado_144794" data-name="Trazado 144794" d="M894.414,5677.761H881.948a2.683,2.683,0,0,1-2.68-2.68v-11.309a2.683,2.683,0,0,1,2.68-2.679h12.466a2.683,2.683,0,0,1,2.68,2.679v11.309A2.683,2.683,0,0,1,894.414,5677.761Zm-12.466-15.512a1.525,1.525,0,0,0-1.524,1.523v11.309a1.525,1.525,0,0,0,1.524,1.523h12.466a1.525,1.525,0,0,0,1.524-1.523v-11.309a1.525,1.525,0,0,0-1.524-1.523Z" fill="#2396b5"/>
      <path id="Trazado_144795" data-name="Trazado 144795" d="M888.181,5675.492a1.736,1.736,0,0,1-1.3-.582l-6.284-7.061a1.735,1.735,0,1,1,2.592-2.306l4.806,5.4,10.838-15.913a1.735,1.735,0,0,1,2.868,1.953l-12.09,17.751a1.733,1.733,0,0,1-1.322.755C888.256,5675.49,888.218,5675.492,888.181,5675.492Z" fill="#e2cb5e"/>
    </g>
    <g id="Grupo_66116" data-name="Grupo 66116">
      <path id="Trazado_144796" data-name="Trazado 144796" d="M906.758,5484.147a20.365,20.365,0,0,1,2.977-.223,6.178,6.178,0,0,1,4.369,1.344,4.92,4.92,0,0,1,1.537,3.873,5.769,5.769,0,0,1-1.553,4.194,6.709,6.709,0,0,1-4.785,1.553,19.45,19.45,0,0,1-2.545-.128Zm1.408,9.556a9.055,9.055,0,0,0,1.409.064c2.977.016,4.593-1.665,4.593-4.578.016-2.545-1.424-4.161-4.369-4.161a7.907,7.907,0,0,0-1.633.144Z"/>
      <path id="Trazado_144797" data-name="Trazado 144797" d="M918.245,5491.175a2.467,2.467,0,0,0,2.642,2.673,5.025,5.025,0,0,0,2.145-.4l.255,1.009a6.306,6.306,0,0,1-2.592.5,3.614,3.614,0,0,1-3.81-3.905c0-2.337,1.393-4.178,3.649-4.178,2.529,0,3.186,2.225,3.186,3.649a3.515,3.515,0,0,1-.048.657Zm4.114-1.009a2,2,0,0,0-1.937-2.289,2.32,2.32,0,0,0-2.16,2.289Z"/>
      <path id="Trazado_144798" data-name="Trazado 144798" d="M925.269,5493.351a3.983,3.983,0,0,0,1.873.544c1.008,0,1.489-.5,1.489-1.152,0-.672-.4-1.024-1.425-1.408-1.409-.513-2.065-1.281-2.065-2.194a2.4,2.4,0,0,1,2.673-2.272,3.6,3.6,0,0,1,1.889.48l-.336,1.008a3.187,3.187,0,0,0-1.585-.448c-.832,0-1.28.481-1.28,1.057,0,.639.448.927,1.456,1.328,1.329.5,2.033,1.169,2.033,2.321,0,1.376-1.072,2.337-2.881,2.337a4.431,4.431,0,0,1-2.177-.544Z"/>
      <path id="Trazado_144799" data-name="Trazado 144799" d="M937.32,5494.5a5.448,5.448,0,0,1-2.225.448,3.681,3.681,0,0,1-3.858-3.954,3.948,3.948,0,0,1,4.162-4.129,4.433,4.433,0,0,1,1.952.416l-.319,1.072a3.47,3.47,0,0,0-1.633-.368,2.689,2.689,0,0,0-2.738,2.929,2.656,2.656,0,0,0,2.689,2.9,4.028,4.028,0,0,0,1.729-.368Z"/>
      <path id="Trazado_144800" data-name="Trazado 144800" d="M945.448,5492.663c0,.816.016,1.52.064,2.129h-1.249l-.08-1.265h-.032a2.893,2.893,0,0,1-2.561,1.441c-1.216,0-2.673-.688-2.673-3.394v-4.529h1.408v4.273c0,1.473.465,2.482,1.729,2.482a2.026,2.026,0,0,0,1.857-1.3,1.932,1.932,0,0,0,.128-.72v-4.738h1.409Z"/>
      <path id="Trazado_144801" data-name="Trazado 144801" d="M948.581,5491.175a2.467,2.467,0,0,0,2.641,2.673,5.018,5.018,0,0,0,2.145-.4l.256,1.009a6.306,6.306,0,0,1-2.592.5,3.614,3.614,0,0,1-3.81-3.905c0-2.337,1.393-4.178,3.649-4.178,2.529,0,3.185,2.225,3.185,3.649a3.531,3.531,0,0,1-.047.657Zm4.114-1.009a2,2,0,0,0-1.937-2.289,2.322,2.322,0,0,0-2.161,2.289Z"/>
      <path id="Trazado_144802" data-name="Trazado 144802" d="M955.8,5489.141c0-.816-.016-1.456-.064-2.1h1.249l.08,1.264h.032a2.868,2.868,0,0,1,2.561-1.44c1.072,0,2.737.64,2.737,3.3v4.626h-1.409v-4.466c0-1.248-.464-2.305-1.792-2.305a2.033,2.033,0,0,0-1.889,1.441,2.091,2.091,0,0,0-.1.656v4.674H955.8Z"/>
      <path id="Trazado_144803" data-name="Trazado 144803" d="M966.31,5485.188v1.857h2.016v1.072H966.31v4.162c0,.96.272,1.5,1.056,1.5a2.6,2.6,0,0,0,.816-.1l.064,1.073a3.831,3.831,0,0,1-1.248.192,2.012,2.012,0,0,1-1.521-.593,3.023,3.023,0,0,1-.544-2.032v-4.21h-1.2v-1.072h1.2v-1.425Z"/>
      <path id="Trazado_144804" data-name="Trazado 144804" d="M972.967,5494.968a3.692,3.692,0,0,1-3.714-3.986,3.792,3.792,0,0,1,3.842-4.113,3.663,3.663,0,0,1,3.729,3.97,3.8,3.8,0,0,1-3.841,4.129Zm.064-1.056c1.344,0,2.353-1.265,2.353-3.025,0-1.313-.657-2.962-2.321-2.962-1.649,0-2.369,1.537-2.369,3.009,0,1.7.96,2.978,2.32,2.978Z"/>
      <path id="Trazado_144805" data-name="Trazado 144805" d="M978.406,5493.351a3.979,3.979,0,0,0,1.872.544c1.008,0,1.489-.5,1.489-1.152,0-.672-.4-1.024-1.425-1.408-1.409-.513-2.065-1.281-2.065-2.194a2.4,2.4,0,0,1,2.673-2.272,3.6,3.6,0,0,1,1.889.48l-.336,1.008a3.187,3.187,0,0,0-1.585-.448c-.832,0-1.28.481-1.28,1.057,0,.639.448.927,1.457,1.328,1.328.5,2.032,1.169,2.032,2.321,0,1.376-1.072,2.337-2.881,2.337a4.434,4.434,0,0,1-2.177-.544Z"/>
      <path id="Trazado_144806" data-name="Trazado 144806" d="M988.325,5489.574c0-.993-.016-1.793-.064-2.529h1.265l.08,1.328h.031a2.991,2.991,0,0,1,2.738-1.5c1.888,0,3.3,1.584,3.3,3.938,0,2.785-1.713,4.161-3.521,4.161a2.7,2.7,0,0,1-2.386-1.216h-.031v4.209h-1.409Zm1.409,2.065a2.27,2.27,0,0,0,.064.576,2.154,2.154,0,0,0,2.1,1.648c1.489,0,2.353-1.216,2.353-2.993,0-1.553-.8-2.881-2.289-2.881a2.247,2.247,0,0,0-2.144,1.745,3.376,3.376,0,0,0-.08.56Z"/>
      <path id="Trazado_144807" data-name="Trazado 144807" d="M1000.582,5494.968a3.692,3.692,0,0,1-3.714-3.986,3.792,3.792,0,0,1,3.842-4.113,3.663,3.663,0,0,1,3.729,3.97,3.8,3.8,0,0,1-3.841,4.129Zm.064-1.056c1.345,0,2.353-1.265,2.353-3.025,0-1.313-.656-2.962-2.321-2.962-1.649,0-2.369,1.537-2.369,3.009,0,1.7.96,2.978,2.321,2.978Z"/>
      <path id="Trazado_144808" data-name="Trazado 144808" d="M1006.213,5489.462c0-.912-.016-1.7-.064-2.417h1.232l.064,1.52h.048a2.344,2.344,0,0,1,2.161-1.7,3.025,3.025,0,0,1,.384.031v1.329a3.982,3.982,0,0,0-.48-.032,1.976,1.976,0,0,0-1.889,1.793,4.362,4.362,0,0,0-.048.656v4.146h-1.408Z"/>
      <path id="Trazado_144809" data-name="Trazado 144809" d="M907.27,5509.045l1.52,4.338c.256.719.464,1.36.624,2h.049c.175-.641.4-1.282.656-2l1.5-4.338H913.1l-3.041,7.747H908.71l-2.945-7.747Z"/>
      <path id="Trazado_144810" data-name="Trazado 144810" d="M917.415,5516.968a3.692,3.692,0,0,1-3.714-3.986,3.792,3.792,0,0,1,3.842-4.113,3.663,3.663,0,0,1,3.729,3.97,3.8,3.8,0,0,1-3.841,4.129Zm.064-1.056c1.345,0,2.353-1.265,2.353-3.025,0-1.313-.656-2.962-2.321-2.962-1.649,0-2.369,1.537-2.369,3.009,0,1.7.96,2.978,2.321,2.978Z"/>
      <path id="Trazado_144811" data-name="Trazado 144811" d="M923.045,5505.428h1.408v11.364h-1.408Z"/>
      <path id="Trazado_144812" data-name="Trazado 144812" d="M933.3,5514.663c0,.816.016,1.52.064,2.129h-1.249l-.08-1.265h-.032a2.893,2.893,0,0,1-2.561,1.441c-1.216,0-2.673-.688-2.673-3.394v-4.529h1.408v4.273c0,1.473.465,2.482,1.729,2.482a2.026,2.026,0,0,0,1.857-1.3,1.933,1.933,0,0,0,.128-.72v-4.738H933.3Z"/>
      <path id="Trazado_144813" data-name="Trazado 144813" d="M935.637,5511.141c0-.816-.033-1.456-.064-2.1H936.8l.064,1.248h.048a2.679,2.679,0,0,1,2.449-1.424,2.284,2.284,0,0,1,2.177,1.553h.032a3.059,3.059,0,0,1,.88-1.009,2.594,2.594,0,0,1,1.7-.544c1.04,0,2.561.672,2.561,3.361v4.562h-1.377v-4.386c0-1.5-.56-2.385-1.68-2.385a1.851,1.851,0,0,0-1.681,1.265,2.5,2.5,0,0,0-.112.7v4.8h-1.376v-4.658c0-1.233-.545-2.113-1.617-2.113a2.1,2.1,0,0,0-1.857,2.1v4.674h-1.376Z"/>
      <path id="Trazado_144814" data-name="Trazado 144814" d="M949.781,5513.175a2.466,2.466,0,0,0,2.641,2.673,5.025,5.025,0,0,0,2.145-.4l.256,1.009a6.316,6.316,0,0,1-2.593.5,3.614,3.614,0,0,1-3.81-3.905c0-2.337,1.393-4.178,3.65-4.178,2.528,0,3.185,2.225,3.185,3.649a3.427,3.427,0,0,1-.048.657Zm4.113-1.009a2,2,0,0,0-1.937-2.289,2.32,2.32,0,0,0-2.16,2.289Z"/>
      <path id="Trazado_144815" data-name="Trazado 144815" d="M957,5511.141c0-.816-.016-1.456-.064-2.1h1.248l.081,1.264h.031a2.871,2.871,0,0,1,2.561-1.44c1.073,0,2.738.64,2.738,3.3v4.626h-1.409v-4.466c0-1.248-.464-2.305-1.793-2.305a2.035,2.035,0,0,0-1.889,1.441,2.092,2.092,0,0,0-.095.656v4.674H957Z"/>
      <path id="Trazado_144816" data-name="Trazado 144816" d="M966.468,5516.968a.939.939,0,0,1-.928-1.008.956.956,0,0,1,.96-1.009.935.935,0,0,1,.945,1.009.946.946,0,0,1-.961,1.008Z"/>
      <path id="Trazado_144817" data-name="Trazado 144817" d="M906.758,5528.147a20.365,20.365,0,0,1,2.977-.223,6.178,6.178,0,0,1,4.369,1.344,4.92,4.92,0,0,1,1.537,3.873,5.769,5.769,0,0,1-1.553,4.194,6.709,6.709,0,0,1-4.785,1.553,19.45,19.45,0,0,1-2.545-.128Zm1.408,9.556a9.055,9.055,0,0,0,1.409.064c2.977.016,4.593-1.665,4.593-4.578.016-2.545-1.424-4.161-4.369-4.161a7.907,7.907,0,0,0-1.633.144Z"/>
      <path id="Trazado_144818" data-name="Trazado 144818" d="M918.245,5535.175a2.467,2.467,0,0,0,2.642,2.673,5.025,5.025,0,0,0,2.145-.4l.255,1.009a6.306,6.306,0,0,1-2.592.5,3.614,3.614,0,0,1-3.81-3.905c0-2.337,1.393-4.178,3.649-4.178,2.529,0,3.186,2.225,3.186,3.649a3.515,3.515,0,0,1-.048.657Zm4.114-1.009a2,2,0,0,0-1.937-2.289,2.32,2.32,0,0,0-2.16,2.289Z"/>
      <path id="Trazado_144819" data-name="Trazado 144819" d="M925.269,5537.351a3.983,3.983,0,0,0,1.873.544c1.008,0,1.489-.5,1.489-1.152,0-.672-.4-1.024-1.425-1.408-1.409-.513-2.065-1.281-2.065-2.194a2.4,2.4,0,0,1,2.673-2.272,3.6,3.6,0,0,1,1.889.48l-.336,1.008a3.187,3.187,0,0,0-1.585-.448c-.832,0-1.28.481-1.28,1.057,0,.639.448.927,1.456,1.328,1.329.5,2.033,1.169,2.033,2.321,0,1.376-1.072,2.337-2.881,2.337a4.431,4.431,0,0,1-2.177-.544Z"/>
      <path id="Trazado_144820" data-name="Trazado 144820" d="M937.32,5538.5a5.448,5.448,0,0,1-2.225.448,3.681,3.681,0,0,1-3.858-3.954,3.948,3.948,0,0,1,4.162-4.129,4.433,4.433,0,0,1,1.952.416l-.319,1.072a3.47,3.47,0,0,0-1.633-.368,2.689,2.689,0,0,0-2.738,2.929,2.656,2.656,0,0,0,2.689,2.9,4.028,4.028,0,0,0,1.729-.368Z"/>
      <path id="Trazado_144821" data-name="Trazado 144821" d="M945.448,5536.663c0,.816.016,1.52.064,2.129h-1.249l-.08-1.265h-.032a2.893,2.893,0,0,1-2.561,1.441c-1.216,0-2.673-.688-2.673-3.394v-4.529h1.408v4.273c0,1.473.465,2.482,1.729,2.482a2.026,2.026,0,0,0,1.857-1.3,1.932,1.932,0,0,0,.128-.72v-4.738h1.409Z"/>
      <path id="Trazado_144822" data-name="Trazado 144822" d="M948.581,5535.175a2.467,2.467,0,0,0,2.641,2.673,5.018,5.018,0,0,0,2.145-.4l.256,1.009a6.306,6.306,0,0,1-2.592.5,3.614,3.614,0,0,1-3.81-3.905c0-2.337,1.393-4.178,3.649-4.178,2.529,0,3.185,2.225,3.185,3.649a3.531,3.531,0,0,1-.047.657Zm4.114-1.009a2,2,0,0,0-1.937-2.289,2.322,2.322,0,0,0-2.161,2.289Z"/>
      <path id="Trazado_144823" data-name="Trazado 144823" d="M955.8,5533.141c0-.816-.016-1.456-.064-2.1h1.249l.08,1.264h.032a2.868,2.868,0,0,1,2.561-1.44c1.072,0,2.737.64,2.737,3.3v4.626h-1.409v-4.466c0-1.248-.464-2.305-1.792-2.305a2.033,2.033,0,0,0-1.889,1.441,2.091,2.091,0,0,0-.1.656v4.674H955.8Z"/>
      <path id="Trazado_144824" data-name="Trazado 144824" d="M966.31,5529.188v1.857h2.016v1.072H966.31v4.162c0,.96.272,1.5,1.056,1.5a2.6,2.6,0,0,0,.816-.1l.064,1.073a3.831,3.831,0,0,1-1.248.192,2.012,2.012,0,0,1-1.521-.593,3.023,3.023,0,0,1-.544-2.032v-4.21h-1.2v-1.072h1.2v-1.425Z"/>
      <path id="Trazado_144825" data-name="Trazado 144825" d="M972.967,5538.968a3.692,3.692,0,0,1-3.714-3.986,3.792,3.792,0,0,1,3.842-4.113,3.663,3.663,0,0,1,3.729,3.97,3.8,3.8,0,0,1-3.841,4.129Zm.064-1.056c1.344,0,2.353-1.265,2.353-3.025,0-1.313-.657-2.962-2.321-2.962-1.649,0-2.369,1.537-2.369,3.009,0,1.7.96,2.978,2.32,2.978Z"/>
      <path id="Trazado_144826" data-name="Trazado 144826" d="M978.406,5537.351a3.979,3.979,0,0,0,1.872.544c1.008,0,1.489-.5,1.489-1.152,0-.672-.4-1.024-1.425-1.408-1.409-.513-2.065-1.281-2.065-2.194a2.4,2.4,0,0,1,2.673-2.272,3.6,3.6,0,0,1,1.889.48l-.336,1.008a3.187,3.187,0,0,0-1.585-.448c-.832,0-1.28.481-1.28,1.057,0,.639.448.927,1.457,1.328,1.328.5,2.032,1.169,2.032,2.321,0,1.376-1.072,2.337-2.881,2.337a4.434,4.434,0,0,1-2.177-.544Z"/>
      <path id="Trazado_144827" data-name="Trazado 144827" d="M907.526,5557.175a2.466,2.466,0,0,0,2.641,2.673,5.022,5.022,0,0,0,2.145-.4l.256,1.009a6.312,6.312,0,0,1-2.593.5,3.614,3.614,0,0,1-3.81-3.905c0-2.337,1.393-4.178,3.65-4.178,2.529,0,3.185,2.225,3.185,3.649a3.433,3.433,0,0,1-.048.657Zm4.113-1.009a2,2,0,0,0-1.937-2.289,2.321,2.321,0,0,0-2.16,2.289Z"/>
      <path id="Trazado_144828" data-name="Trazado 144828" d="M914.549,5559.351a3.983,3.983,0,0,0,1.873.544c1.008,0,1.488-.5,1.488-1.152,0-.672-.4-1.024-1.424-1.408-1.409-.513-2.065-1.281-2.065-2.194a2.4,2.4,0,0,1,2.673-2.272,3.6,3.6,0,0,1,1.889.48l-.336,1.008a3.187,3.187,0,0,0-1.585-.448c-.832,0-1.28.481-1.28,1.057,0,.639.448.927,1.456,1.328,1.329.5,2.033,1.169,2.033,2.321,0,1.376-1.072,2.337-2.881,2.337a4.428,4.428,0,0,1-2.177-.544Z"/>
      <path id="Trazado_144829" data-name="Trazado 144829" d="M922.774,5551.188v1.857h2.016v1.072h-2.016v4.162c0,.96.272,1.5,1.056,1.5a2.6,2.6,0,0,0,.816-.1l.064,1.073a3.832,3.832,0,0,1-1.248.192,2.011,2.011,0,0,1-1.521-.593,3.023,3.023,0,0,1-.544-2.032v-4.21h-1.2v-1.072h1.2v-1.425Z"/>
      <path id="Trazado_144830" data-name="Trazado 144830" d="M931.831,5558.935a13,13,0,0,0,.112,1.857h-1.264l-.128-.977H930.5a2.863,2.863,0,0,1-2.369,1.153,2.208,2.208,0,0,1-2.37-2.225c0-1.873,1.665-2.9,4.659-2.881v-.16a1.592,1.592,0,0,0-1.761-1.793,3.738,3.738,0,0,0-2.033.576l-.32-.944a5.007,5.007,0,0,1,2.561-.672c2.385,0,2.961,1.616,2.961,3.169Zm-1.377-2.1c-1.536-.032-3.281.239-3.281,1.744a1.235,1.235,0,0,0,1.313,1.345,1.955,1.955,0,0,0,1.9-1.3,1.447,1.447,0,0,0,.064-.449Z"/>
      <path id="Trazado_144831" data-name="Trazado 144831" d="M939.607,5560.5a5.44,5.44,0,0,1-2.225.448,3.68,3.68,0,0,1-3.857-3.954,3.948,3.948,0,0,1,4.161-4.129,4.438,4.438,0,0,1,1.953.416l-.32,1.072a3.467,3.467,0,0,0-1.633-.368,2.688,2.688,0,0,0-2.737,2.929,2.656,2.656,0,0,0,2.689,2.9,4.028,4.028,0,0,0,1.729-.368Z"/>
      <path id="Trazado_144832" data-name="Trazado 144832" d="M941.925,5551.732a.838.838,0,0,1-.849-.864.873.873,0,1,1,.865.864Zm-.672,9.06v-7.747h1.408v7.747Z"/>
      <path id="Trazado_144833" data-name="Trazado 144833" d="M948.15,5560.968a3.691,3.691,0,0,1-3.713-3.986,3.791,3.791,0,0,1,3.841-4.113,3.664,3.664,0,0,1,3.73,3.97,3.8,3.8,0,0,1-3.842,4.129Zm.064-1.056c1.345,0,2.353-1.265,2.353-3.025,0-1.313-.656-2.962-2.321-2.962-1.649,0-2.369,1.537-2.369,3.009,0,1.7.961,2.978,2.321,2.978Z"/>
      <path id="Trazado_144834" data-name="Trazado 144834" d="M953.781,5555.141c0-.816-.016-1.456-.064-2.1h1.249l.08,1.264h.031a2.87,2.87,0,0,1,2.561-1.44c1.073,0,2.738.64,2.738,3.3v4.626h-1.409v-4.466c0-1.248-.464-2.305-1.792-2.305a2.035,2.035,0,0,0-1.89,1.441,2.094,2.094,0,0,0-.095.656v4.674h-1.409Z"/>
      <path id="Trazado_144835" data-name="Trazado 144835" d="M968.119,5558.935a13,13,0,0,0,.112,1.857h-1.264l-.128-.977h-.048a2.863,2.863,0,0,1-2.369,1.153,2.207,2.207,0,0,1-2.369-2.225c0-1.873,1.665-2.9,4.658-2.881v-.16a1.592,1.592,0,0,0-1.761-1.793,3.738,3.738,0,0,0-2.033.576l-.32-.944a5.007,5.007,0,0,1,2.561-.672c2.385,0,2.961,1.616,2.961,3.169Zm-1.377-2.1c-1.536-.032-3.281.239-3.281,1.744a1.235,1.235,0,0,0,1.313,1.345,1.958,1.958,0,0,0,1.905-1.3,1.475,1.475,0,0,0,.063-.449Z"/>
      <path id="Trazado_144836" data-name="Trazado 144836" d="M970.373,5549.428h1.409v11.364h-1.409Z"/>
      <path id="Trazado_144837" data-name="Trazado 144837" d="M974.949,5557.175a2.466,2.466,0,0,0,2.641,2.673,5.021,5.021,0,0,0,2.145-.4l.256,1.009a6.308,6.308,0,0,1-2.593.5,3.613,3.613,0,0,1-3.809-3.905c0-2.337,1.392-4.178,3.649-4.178,2.529,0,3.185,2.225,3.185,3.649a3.349,3.349,0,0,1-.048.657Zm4.114-1.009a2,2,0,0,0-1.937-2.289,2.321,2.321,0,0,0-2.161,2.289Z"/>
      <path id="Trazado_144838" data-name="Trazado 144838" d="M981.973,5559.351a3.979,3.979,0,0,0,1.873.544c1.008,0,1.488-.5,1.488-1.152,0-.672-.4-1.024-1.425-1.408-1.408-.513-2.064-1.281-2.064-2.194a2.4,2.4,0,0,1,2.673-2.272,3.6,3.6,0,0,1,1.889.48l-.336,1.008a3.19,3.19,0,0,0-1.585-.448c-.832,0-1.281.481-1.281,1.057,0,.639.449.927,1.457,1.328,1.329.5,2.033,1.169,2.033,2.321,0,1.376-1.073,2.337-2.881,2.337a4.428,4.428,0,0,1-2.177-.544Z"/>
      <path id="Trazado_144839" data-name="Trazado 144839" d="M988.917,5560.968a.939.939,0,0,1-.928-1.008.956.956,0,0,1,.961-1.009.934.934,0,0,1,.944,1.009.946.946,0,0,1-.961,1.008Z"/>
      <path id="Trazado_144840" data-name="Trazado 144840" d="M906.758,5572.147a20.365,20.365,0,0,1,2.977-.223,6.178,6.178,0,0,1,4.369,1.344,4.92,4.92,0,0,1,1.537,3.873,5.769,5.769,0,0,1-1.553,4.194,6.709,6.709,0,0,1-4.785,1.553,19.45,19.45,0,0,1-2.545-.128Zm1.408,9.556a9.055,9.055,0,0,0,1.409.064c2.977.016,4.593-1.665,4.593-4.578.016-2.545-1.424-4.161-4.369-4.161a7.907,7.907,0,0,0-1.633.144Z"/>
      <path id="Trazado_144841" data-name="Trazado 144841" d="M918.245,5579.175a2.467,2.467,0,0,0,2.642,2.673,5.025,5.025,0,0,0,2.145-.4l.255,1.009a6.306,6.306,0,0,1-2.592.5,3.614,3.614,0,0,1-3.81-3.905c0-2.337,1.393-4.178,3.649-4.178,2.529,0,3.186,2.225,3.186,3.649a3.515,3.515,0,0,1-.048.657Zm4.114-1.009a2,2,0,0,0-1.937-2.289,2.32,2.32,0,0,0-2.16,2.289Z"/>
      <path id="Trazado_144842" data-name="Trazado 144842" d="M925.269,5581.351a3.983,3.983,0,0,0,1.873.544c1.008,0,1.489-.5,1.489-1.152,0-.672-.4-1.024-1.425-1.408-1.409-.513-2.065-1.281-2.065-2.194a2.4,2.4,0,0,1,2.673-2.272,3.6,3.6,0,0,1,1.889.48l-.336,1.008a3.187,3.187,0,0,0-1.585-.448c-.832,0-1.28.481-1.28,1.057,0,.639.448.927,1.456,1.328,1.329.5,2.033,1.169,2.033,2.321,0,1.376-1.072,2.337-2.881,2.337a4.431,4.431,0,0,1-2.177-.544Z"/>
      <path id="Trazado_144843" data-name="Trazado 144843" d="M937.32,5582.5a5.448,5.448,0,0,1-2.225.448,3.681,3.681,0,0,1-3.858-3.954,3.948,3.948,0,0,1,4.162-4.129,4.433,4.433,0,0,1,1.952.416l-.319,1.072a3.47,3.47,0,0,0-1.633-.368,2.689,2.689,0,0,0-2.738,2.929,2.656,2.656,0,0,0,2.689,2.9,4.028,4.028,0,0,0,1.729-.368Z"/>
      <path id="Trazado_144844" data-name="Trazado 144844" d="M945.448,5580.663c0,.816.016,1.52.064,2.129h-1.249l-.08-1.265h-.032a2.893,2.893,0,0,1-2.561,1.441c-1.216,0-2.673-.688-2.673-3.394v-4.529h1.408v4.273c0,1.473.465,2.482,1.729,2.482a2.026,2.026,0,0,0,1.857-1.3,1.932,1.932,0,0,0,.128-.72v-4.738h1.409Z"/>
      <path id="Trazado_144845" data-name="Trazado 144845" d="M948.581,5579.175a2.467,2.467,0,0,0,2.641,2.673,5.018,5.018,0,0,0,2.145-.4l.256,1.009a6.306,6.306,0,0,1-2.592.5,3.614,3.614,0,0,1-3.81-3.905c0-2.337,1.393-4.178,3.649-4.178,2.529,0,3.185,2.225,3.185,3.649a3.531,3.531,0,0,1-.047.657Zm4.114-1.009a2,2,0,0,0-1.937-2.289,2.322,2.322,0,0,0-2.161,2.289Z"/>
      <path id="Trazado_144846" data-name="Trazado 144846" d="M955.8,5577.141c0-.816-.016-1.456-.064-2.1h1.249l.08,1.264h.032a2.868,2.868,0,0,1,2.561-1.44c1.072,0,2.737.64,2.737,3.3v4.626h-1.409v-4.466c0-1.248-.464-2.305-1.792-2.305a2.033,2.033,0,0,0-1.889,1.441,2.091,2.091,0,0,0-.1.656v4.674H955.8Z"/>
      <path id="Trazado_144847" data-name="Trazado 144847" d="M966.31,5573.188v1.857h2.016v1.072H966.31v4.162c0,.96.272,1.5,1.056,1.5a2.6,2.6,0,0,0,.816-.1l.064,1.073a3.831,3.831,0,0,1-1.248.192,2.012,2.012,0,0,1-1.521-.593,3.023,3.023,0,0,1-.544-2.032v-4.21h-1.2v-1.072h1.2v-1.425Z"/>
      <path id="Trazado_144848" data-name="Trazado 144848" d="M972.967,5582.968a3.692,3.692,0,0,1-3.714-3.986,3.792,3.792,0,0,1,3.842-4.113,3.663,3.663,0,0,1,3.729,3.97,3.8,3.8,0,0,1-3.841,4.129Zm.064-1.056c1.344,0,2.353-1.265,2.353-3.025,0-1.313-.657-2.962-2.321-2.962-1.649,0-2.369,1.537-2.369,3.009,0,1.7.96,2.978,2.32,2.978Z"/>
      <path id="Trazado_144849" data-name="Trazado 144849" d="M978.406,5581.351a3.979,3.979,0,0,0,1.872.544c1.008,0,1.489-.5,1.489-1.152,0-.672-.4-1.024-1.425-1.408-1.409-.513-2.065-1.281-2.065-2.194a2.4,2.4,0,0,1,2.673-2.272,3.6,3.6,0,0,1,1.889.48l-.336,1.008a3.187,3.187,0,0,0-1.585-.448c-.832,0-1.28.481-1.28,1.057,0,.639.448.927,1.457,1.328,1.328.5,2.032,1.169,2.032,2.321,0,1.376-1.072,2.337-2.881,2.337a4.434,4.434,0,0,1-2.177-.544Z"/>
      <path id="Trazado_144850" data-name="Trazado 144850" d="M988.325,5577.574c0-.993-.016-1.793-.064-2.529h1.265l.08,1.328h.031a2.991,2.991,0,0,1,2.738-1.5c1.888,0,3.3,1.584,3.3,3.938,0,2.785-1.713,4.161-3.521,4.161a2.7,2.7,0,0,1-2.386-1.216h-.031v4.209h-1.409Zm1.409,2.065a2.27,2.27,0,0,0,.064.576,2.154,2.154,0,0,0,2.1,1.648c1.489,0,2.353-1.216,2.353-2.993,0-1.553-.8-2.881-2.289-2.881a2.247,2.247,0,0,0-2.144,1.745,3.376,3.376,0,0,0-.08.56Z"/>
      <path id="Trazado_144851" data-name="Trazado 144851" d="M1000.582,5582.968a3.692,3.692,0,0,1-3.714-3.986,3.792,3.792,0,0,1,3.842-4.113,3.663,3.663,0,0,1,3.729,3.97,3.8,3.8,0,0,1-3.841,4.129Zm.064-1.056c1.345,0,2.353-1.265,2.353-3.025,0-1.313-.656-2.962-2.321-2.962-1.649,0-2.369,1.537-2.369,3.009,0,1.7.96,2.978,2.321,2.978Z"/>
      <path id="Trazado_144852" data-name="Trazado 144852" d="M1006.213,5577.462c0-.912-.016-1.7-.064-2.417h1.232l.064,1.52h.048a2.344,2.344,0,0,1,2.161-1.7,3.025,3.025,0,0,1,.384.031v1.329a3.982,3.982,0,0,0-.48-.032,1.976,1.976,0,0,0-1.889,1.793,4.362,4.362,0,0,0-.048.656v4.146h-1.408Z"/>
      <path id="Trazado_144853" data-name="Trazado 144853" d="M1014.837,5577.574c0-.993-.016-1.793-.064-2.529h1.264l.08,1.328h.032a2.99,2.99,0,0,1,2.738-1.5c1.888,0,3.3,1.584,3.3,3.938,0,2.785-1.713,4.161-3.522,4.161a2.7,2.7,0,0,1-2.385-1.216h-.032v4.209h-1.408Zm1.408,2.065a2.315,2.315,0,0,0,.064.576,2.156,2.156,0,0,0,2.1,1.648c1.489,0,2.353-1.216,2.353-2.993,0-1.553-.8-2.881-2.289-2.881a2.248,2.248,0,0,0-2.145,1.745,3.383,3.383,0,0,0-.08.56Z"/>
      <path id="Trazado_144854" data-name="Trazado 144854" d="M1029.4,5580.935a12.861,12.861,0,0,0,.113,1.857h-1.265l-.128-.977h-.048a2.861,2.861,0,0,1-2.369,1.153,2.207,2.207,0,0,1-2.369-2.225c0-1.873,1.665-2.9,4.658-2.881v-.16a1.591,1.591,0,0,0-1.761-1.793,3.734,3.734,0,0,0-2.032.576l-.321-.944a5.01,5.01,0,0,1,2.561-.672c2.385,0,2.961,1.616,2.961,3.169Zm-1.376-2.1c-1.537-.032-3.281.239-3.281,1.744a1.234,1.234,0,0,0,1.312,1.345,1.957,1.957,0,0,0,1.905-1.3,1.447,1.447,0,0,0,.064-.449Z"/>
      <path id="Trazado_144855" data-name="Trazado 144855" d="M1038.279,5581.655c0,1.793-.369,2.865-1.1,3.554a4.261,4.261,0,0,1-2.834.929,5,5,0,0,1-2.577-.641l.353-1.089a4.208,4.208,0,0,0,2.272.625c1.441,0,2.5-.753,2.5-2.722v-.847h-.032a2.747,2.747,0,0,1-2.465,1.3c-1.92,0-3.3-1.633-3.3-3.793,0-2.625,1.712-4.1,3.505-4.1a2.568,2.568,0,0,1,2.417,1.344h.032l.049-1.168h1.248c-.048.544-.064,1.184-.064,2.112Zm-1.409-3.569a1.964,1.964,0,0,0-.08-.624,2.011,2.011,0,0,0-1.968-1.5c-1.345,0-2.306,1.137-2.306,2.945,0,1.505.785,2.785,2.289,2.785a2.025,2.025,0,0,0,1.953-1.456,2.321,2.321,0,0,0,.112-.753Z"/>
      <path id="Trazado_144856" data-name="Trazado 144856" d="M1043.749,5582.968a3.692,3.692,0,0,1-3.714-3.986,3.792,3.792,0,0,1,3.842-4.113,3.663,3.663,0,0,1,3.729,3.97,3.8,3.8,0,0,1-3.841,4.129Zm.064-1.056c1.345,0,2.353-1.265,2.353-3.025,0-1.313-.656-2.962-2.321-2.962-1.649,0-2.369,1.537-2.369,3.009,0,1.7.96,2.978,2.321,2.978Z"/>
      <path id="Trazado_144857" data-name="Trazado 144857" d="M913.416,5593.428v9.363c0,.688.016,1.473.064,2h-1.264l-.064-1.345h-.033a2.84,2.84,0,0,1-2.625,1.521c-1.872,0-3.329-1.584-3.329-3.938-.016-2.593,1.6-4.161,3.473-4.161a2.576,2.576,0,0,1,2.337,1.168h.033v-4.609Zm-1.408,6.77a2.62,2.62,0,0,0-.064-.608,2.075,2.075,0,0,0-2.034-1.616c-1.456,0-2.32,1.28-2.32,2.976,0,1.585.784,2.882,2.289,2.882a2.134,2.134,0,0,0,2.065-1.7,2.238,2.238,0,0,0,.064-.592Z"/>
      <path id="Trazado_144858" data-name="Trazado 144858" d="M916.55,5601.175a2.466,2.466,0,0,0,2.641,2.673,5.022,5.022,0,0,0,2.145-.4l.256,1.009a6.311,6.311,0,0,1-2.593.5,3.614,3.614,0,0,1-3.81-3.905c0-2.337,1.393-4.178,3.65-4.178,2.528,0,3.185,2.225,3.185,3.649a3.433,3.433,0,0,1-.048.657Zm4.113-1.009a2,2,0,0,0-1.937-2.289,2.321,2.321,0,0,0-2.16,2.289Z"/>
      <path id="Trazado_144859" data-name="Trazado 144859" d="M932.679,5604.5a5.44,5.44,0,0,1-2.225.448A3.68,3.68,0,0,1,926.6,5601a3.948,3.948,0,0,1,4.162-4.129,4.433,4.433,0,0,1,1.952.416l-.32,1.072a3.462,3.462,0,0,0-1.632-.368,2.689,2.689,0,0,0-2.738,2.929,2.656,2.656,0,0,0,2.689,2.9,4.028,4.028,0,0,0,1.729-.368Z"/>
      <path id="Trazado_144860" data-name="Trazado 144860" d="M937.383,5604.968a3.692,3.692,0,0,1-3.714-3.986,3.792,3.792,0,0,1,3.842-4.113,3.663,3.663,0,0,1,3.729,3.97,3.8,3.8,0,0,1-3.841,4.129Zm.064-1.056c1.344,0,2.353-1.265,2.353-3.025,0-1.313-.657-2.962-2.321-2.962-1.649,0-2.369,1.537-2.369,3.009,0,1.7.96,2.978,2.32,2.978Z"/>
      <path id="Trazado_144861" data-name="Trazado 144861" d="M943.013,5599.141c0-.816-.016-1.456-.063-2.1H944.2l.08,1.264h.032a2.869,2.869,0,0,1,2.561-1.44c1.073,0,2.737.64,2.737,3.3v4.626H948.2v-4.466c0-1.248-.464-2.305-1.793-2.305a2.033,2.033,0,0,0-1.889,1.441,2.091,2.091,0,0,0-.1.656v4.674h-1.409Z"/>
      <path id="Trazado_144862" data-name="Trazado 144862" d="M953.526,5595.188v1.857h2.016v1.072h-2.016v4.162c0,.96.272,1.5,1.056,1.5a2.6,2.6,0,0,0,.816-.1l.064,1.073a3.831,3.831,0,0,1-1.248.192,2.011,2.011,0,0,1-1.521-.593,3.023,3.023,0,0,1-.544-2.032v-4.21h-1.2v-1.072h1.2v-1.425Z"/>
      <path id="Trazado_144863" data-name="Trazado 144863" d="M962.583,5602.935a13,13,0,0,0,.112,1.857H961.43l-.127-.977h-.048a2.863,2.863,0,0,1-2.369,1.153,2.208,2.208,0,0,1-2.37-2.225c0-1.873,1.665-2.9,4.659-2.881v-.16a1.592,1.592,0,0,0-1.761-1.793,3.738,3.738,0,0,0-2.033.576l-.32-.944a5.007,5.007,0,0,1,2.561-.672c2.385,0,2.961,1.616,2.961,3.169Zm-1.377-2.1c-1.536-.032-3.281.239-3.281,1.744a1.234,1.234,0,0,0,1.313,1.345,1.955,1.955,0,0,0,1.9-1.3,1.447,1.447,0,0,0,.064-.449Z"/>
      <path id="Trazado_144864" data-name="Trazado 144864" d="M971.528,5593.428v9.363c0,.688.015,1.473.064,2h-1.265l-.064-1.345h-.032a2.841,2.841,0,0,1-2.625,1.521c-1.873,0-3.329-1.584-3.329-3.938-.016-2.593,1.6-4.161,3.473-4.161a2.577,2.577,0,0,1,2.337,1.168h.032v-4.609Zm-1.409,6.77a2.62,2.62,0,0,0-.064-.608,2.074,2.074,0,0,0-2.033-1.616c-1.457,0-2.321,1.28-2.321,2.976,0,1.585.785,2.882,2.289,2.882a2.134,2.134,0,0,0,2.065-1.7,2.238,2.238,0,0,0,.064-.592Z"/>
      <path id="Trazado_144865" data-name="Trazado 144865" d="M977.014,5604.968a3.691,3.691,0,0,1-3.713-3.986,3.791,3.791,0,0,1,3.841-4.113,3.664,3.664,0,0,1,3.73,3.97,3.8,3.8,0,0,1-3.841,4.129Zm.064-1.056c1.345,0,2.353-1.265,2.353-3.025,0-1.313-.656-2.962-2.32-2.962s-2.369,1.537-2.369,3.009c0,1.7.96,2.978,2.32,2.978Z"/>
      <path id="Trazado_144866" data-name="Trazado 144866" d="M982.853,5604.968a.939.939,0,0,1-.928-1.008.956.956,0,0,1,.96-1.009.934.934,0,0,1,.944,1.009.945.945,0,0,1-.96,1.008Z"/>
      <path id="Trazado_144867" data-name="Trazado 144867" d="M906.758,5616.147a20.365,20.365,0,0,1,2.977-.223,6.178,6.178,0,0,1,4.369,1.344,4.92,4.92,0,0,1,1.537,3.873,5.769,5.769,0,0,1-1.553,4.194,6.709,6.709,0,0,1-4.785,1.553,19.45,19.45,0,0,1-2.545-.128Zm1.408,9.556a9.055,9.055,0,0,0,1.409.064c2.977.016,4.593-1.665,4.593-4.578.016-2.545-1.424-4.161-4.369-4.161a7.907,7.907,0,0,0-1.633.144Z"/>
      <path id="Trazado_144868" data-name="Trazado 144868" d="M918.245,5623.175a2.467,2.467,0,0,0,2.642,2.673,5.025,5.025,0,0,0,2.145-.4l.255,1.009a6.306,6.306,0,0,1-2.592.5,3.614,3.614,0,0,1-3.81-3.905c0-2.337,1.393-4.178,3.649-4.178,2.529,0,3.186,2.225,3.186,3.649a3.515,3.515,0,0,1-.048.657Zm4.114-1.009a2,2,0,0,0-1.937-2.289,2.32,2.32,0,0,0-2.16,2.289Z"/>
      <path id="Trazado_144869" data-name="Trazado 144869" d="M925.269,5625.351a3.983,3.983,0,0,0,1.873.544c1.008,0,1.489-.5,1.489-1.152,0-.672-.4-1.024-1.425-1.408-1.409-.513-2.065-1.281-2.065-2.194a2.4,2.4,0,0,1,2.673-2.272,3.6,3.6,0,0,1,1.889.48l-.336,1.008a3.187,3.187,0,0,0-1.585-.448c-.832,0-1.28.481-1.28,1.057,0,.639.448.927,1.456,1.328,1.329.5,2.033,1.169,2.033,2.321,0,1.376-1.072,2.337-2.881,2.337a4.431,4.431,0,0,1-2.177-.544Z"/>
      <path id="Trazado_144870" data-name="Trazado 144870" d="M937.32,5626.5a5.448,5.448,0,0,1-2.225.448,3.681,3.681,0,0,1-3.858-3.954,3.948,3.948,0,0,1,4.162-4.129,4.433,4.433,0,0,1,1.952.416l-.319,1.072a3.47,3.47,0,0,0-1.633-.368,2.689,2.689,0,0,0-2.738,2.929,2.656,2.656,0,0,0,2.689,2.9,4.028,4.028,0,0,0,1.729-.368Z"/>
      <path id="Trazado_144871" data-name="Trazado 144871" d="M945.448,5624.663c0,.816.016,1.52.064,2.129h-1.249l-.08-1.265h-.032a2.893,2.893,0,0,1-2.561,1.441c-1.216,0-2.673-.688-2.673-3.394v-4.529h1.408v4.273c0,1.473.465,2.482,1.729,2.482a2.026,2.026,0,0,0,1.857-1.3,1.932,1.932,0,0,0,.128-.72v-4.738h1.409Z"/>
      <path id="Trazado_144872" data-name="Trazado 144872" d="M948.581,5623.175a2.467,2.467,0,0,0,2.641,2.673,5.018,5.018,0,0,0,2.145-.4l.256,1.009a6.306,6.306,0,0,1-2.592.5,3.614,3.614,0,0,1-3.81-3.905c0-2.337,1.393-4.178,3.649-4.178,2.529,0,3.185,2.225,3.185,3.649a3.531,3.531,0,0,1-.047.657Zm4.114-1.009a2,2,0,0,0-1.937-2.289,2.322,2.322,0,0,0-2.161,2.289Z"/>
      <path id="Trazado_144873" data-name="Trazado 144873" d="M955.8,5621.141c0-.816-.016-1.456-.064-2.1h1.249l.08,1.264h.032a2.868,2.868,0,0,1,2.561-1.44c1.072,0,2.737.64,2.737,3.3v4.626h-1.409v-4.466c0-1.248-.464-2.305-1.792-2.305a2.033,2.033,0,0,0-1.889,1.441,2.091,2.091,0,0,0-.1.656v4.674H955.8Z"/>
      <path id="Trazado_144874" data-name="Trazado 144874" d="M966.31,5617.188v1.857h2.016v1.072H966.31v4.162c0,.96.272,1.5,1.056,1.5a2.6,2.6,0,0,0,.816-.1l.064,1.073a3.831,3.831,0,0,1-1.248.192,2.012,2.012,0,0,1-1.521-.593,3.023,3.023,0,0,1-.544-2.032v-4.21h-1.2v-1.072h1.2v-1.425Z"/>
      <path id="Trazado_144875" data-name="Trazado 144875" d="M972.967,5626.968a3.692,3.692,0,0,1-3.714-3.986,3.792,3.792,0,0,1,3.842-4.113,3.663,3.663,0,0,1,3.729,3.97,3.8,3.8,0,0,1-3.841,4.129Zm.064-1.056c1.344,0,2.353-1.265,2.353-3.025,0-1.313-.657-2.962-2.321-2.962-1.649,0-2.369,1.537-2.369,3.009,0,1.7.96,2.978,2.32,2.978Z"/>
      <path id="Trazado_144876" data-name="Trazado 144876" d="M987.512,5626.5a5.45,5.45,0,0,1-2.226.448,3.681,3.681,0,0,1-3.857-3.954,3.948,3.948,0,0,1,4.162-4.129,4.433,4.433,0,0,1,1.952.416l-.32,1.072a3.462,3.462,0,0,0-1.632-.368,2.689,2.689,0,0,0-2.738,2.929,2.656,2.656,0,0,0,2.689,2.9,4.028,4.028,0,0,0,1.729-.368Z"/>
      <path id="Trazado_144877" data-name="Trazado 144877" d="M992.214,5626.968a3.691,3.691,0,0,1-3.713-3.986,3.791,3.791,0,0,1,3.841-4.113,3.664,3.664,0,0,1,3.73,3.97,3.8,3.8,0,0,1-3.842,4.129Zm.064-1.056c1.345,0,2.353-1.265,2.353-3.025,0-1.313-.656-2.962-2.321-2.962-1.649,0-2.369,1.537-2.369,3.009,0,1.7.961,2.978,2.321,2.978Z"/>
      <path id="Trazado_144878" data-name="Trazado 144878" d="M997.845,5621.141c0-.816-.032-1.456-.064-2.1h1.232l.064,1.248h.049a2.677,2.677,0,0,1,2.449-1.424,2.283,2.283,0,0,1,2.176,1.553h.032a3.072,3.072,0,0,1,.881-1.009,2.592,2.592,0,0,1,1.7-.544c1.04,0,2.561.672,2.561,3.361v4.562h-1.377v-4.386c0-1.5-.56-2.385-1.681-2.385a1.851,1.851,0,0,0-1.681,1.265,2.5,2.5,0,0,0-.111.7v4.8H1002.7v-4.658c0-1.233-.544-2.113-1.617-2.113a2.1,2.1,0,0,0-1.857,2.1v4.674h-1.376Z"/>
      <path id="Trazado_144879" data-name="Trazado 144879" d="M1011.989,5623.175a2.466,2.466,0,0,0,2.641,2.673,5.022,5.022,0,0,0,2.145-.4l.256,1.009a6.308,6.308,0,0,1-2.593.5,3.613,3.613,0,0,1-3.809-3.905c0-2.337,1.392-4.178,3.649-4.178,2.529,0,3.185,2.225,3.185,3.649a3.349,3.349,0,0,1-.048.657Zm4.114-1.009a2,2,0,0,0-1.937-2.289,2.321,2.321,0,0,0-2.161,2.289Z"/>
      <path id="Trazado_144880" data-name="Trazado 144880" d="M1019.2,5621.462c0-.912-.016-1.7-.064-2.417h1.233l.064,1.52h.048a2.342,2.342,0,0,1,2.161-1.7,3.025,3.025,0,0,1,.384.031v1.329a3.982,3.982,0,0,0-.48-.032,1.974,1.974,0,0,0-1.889,1.793,4.362,4.362,0,0,0-.048.656v4.146H1019.2Z"/>
      <path id="Trazado_144881" data-name="Trazado 144881" d="M1029.8,5626.5a5.448,5.448,0,0,1-2.225.448,3.681,3.681,0,0,1-3.858-3.954,3.948,3.948,0,0,1,4.162-4.129,4.433,4.433,0,0,1,1.952.416l-.32,1.072a3.462,3.462,0,0,0-1.632-.368,2.689,2.689,0,0,0-2.738,2.929,2.656,2.656,0,0,0,2.689,2.9,4.028,4.028,0,0,0,1.729-.368Z"/>
      <path id="Trazado_144882" data-name="Trazado 144882" d="M1032.117,5617.732a.837.837,0,0,1-.849-.864.873.873,0,1,1,.865.864Zm-.673,9.06v-7.747h1.409v7.747Z"/>
      <path id="Trazado_144883" data-name="Trazado 144883" d="M1040.646,5624.935a12.985,12.985,0,0,0,.113,1.857h-1.265l-.128-.977h-.048a2.86,2.86,0,0,1-2.369,1.153,2.207,2.207,0,0,1-2.369-2.225c0-1.873,1.665-2.9,4.658-2.881v-.16a1.591,1.591,0,0,0-1.761-1.793,3.735,3.735,0,0,0-2.032.576l-.321-.944a5.01,5.01,0,0,1,2.561-.672c2.385,0,2.961,1.616,2.961,3.169Zm-1.376-2.1c-1.537-.032-3.281.239-3.281,1.744a1.234,1.234,0,0,0,1.312,1.345,1.957,1.957,0,0,0,1.905-1.3,1.447,1.447,0,0,0,.064-.449Z"/>
      <path id="Trazado_144884" data-name="Trazado 144884" d="M1042.9,5615.428h1.409v11.364H1042.9Z"/>
      <path id="Trazado_144885" data-name="Trazado 144885" d="M1047.108,5626.968a.939.939,0,0,1-.928-1.008.955.955,0,0,1,.96-1.009.935.935,0,0,1,.945,1.009.946.946,0,0,1-.961,1.008Z"/>
      <path id="Trazado_144886" data-name="Trazado 144886" d="M906.758,5638.147a20.365,20.365,0,0,1,2.977-.223,6.178,6.178,0,0,1,4.369,1.344,4.92,4.92,0,0,1,1.537,3.873,5.769,5.769,0,0,1-1.553,4.194,6.709,6.709,0,0,1-4.785,1.553,19.45,19.45,0,0,1-2.545-.128Zm1.408,9.556a9.055,9.055,0,0,0,1.409.064c2.977.016,4.593-1.665,4.593-4.578.016-2.545-1.424-4.161-4.369-4.161a7.907,7.907,0,0,0-1.633.144Z"/>
      <path id="Trazado_144887" data-name="Trazado 144887" d="M918.245,5645.175a2.467,2.467,0,0,0,2.642,2.673,5.025,5.025,0,0,0,2.145-.4l.255,1.009a6.306,6.306,0,0,1-2.592.5,3.614,3.614,0,0,1-3.81-3.905c0-2.337,1.393-4.178,3.649-4.178,2.529,0,3.186,2.225,3.186,3.649a3.515,3.515,0,0,1-.048.657Zm4.114-1.009a2,2,0,0,0-1.937-2.289,2.32,2.32,0,0,0-2.16,2.289Z"/>
      <path id="Trazado_144888" data-name="Trazado 144888" d="M925.269,5647.351a3.983,3.983,0,0,0,1.873.544c1.008,0,1.489-.5,1.489-1.152,0-.672-.4-1.024-1.425-1.408-1.409-.513-2.065-1.281-2.065-2.194a2.4,2.4,0,0,1,2.673-2.272,3.6,3.6,0,0,1,1.889.48l-.336,1.008a3.187,3.187,0,0,0-1.585-.448c-.832,0-1.28.481-1.28,1.057,0,.639.448.927,1.456,1.328,1.329.5,2.033,1.169,2.033,2.321,0,1.376-1.072,2.337-2.881,2.337a4.431,4.431,0,0,1-2.177-.544Z"/>
      <path id="Trazado_144889" data-name="Trazado 144889" d="M937.32,5648.5a5.448,5.448,0,0,1-2.225.448,3.681,3.681,0,0,1-3.858-3.954,3.948,3.948,0,0,1,4.162-4.129,4.433,4.433,0,0,1,1.952.416l-.319,1.072a3.47,3.47,0,0,0-1.633-.368,2.689,2.689,0,0,0-2.738,2.929,2.656,2.656,0,0,0,2.689,2.9,4.028,4.028,0,0,0,1.729-.368Z"/>
      <path id="Trazado_144890" data-name="Trazado 144890" d="M945.448,5646.663c0,.816.016,1.52.064,2.129h-1.249l-.08-1.265h-.032a2.893,2.893,0,0,1-2.561,1.441c-1.216,0-2.673-.688-2.673-3.394v-4.529h1.408v4.273c0,1.473.465,2.482,1.729,2.482a2.026,2.026,0,0,0,1.857-1.3,1.932,1.932,0,0,0,.128-.72v-4.738h1.409Z"/>
      <path id="Trazado_144891" data-name="Trazado 144891" d="M948.581,5645.175a2.467,2.467,0,0,0,2.641,2.673,5.018,5.018,0,0,0,2.145-.4l.256,1.009a6.306,6.306,0,0,1-2.592.5,3.614,3.614,0,0,1-3.81-3.905c0-2.337,1.393-4.178,3.649-4.178,2.529,0,3.185,2.225,3.185,3.649a3.531,3.531,0,0,1-.047.657Zm4.114-1.009a2,2,0,0,0-1.937-2.289,2.322,2.322,0,0,0-2.161,2.289Z"/>
      <path id="Trazado_144892" data-name="Trazado 144892" d="M955.8,5643.141c0-.816-.016-1.456-.064-2.1h1.249l.08,1.264h.032a2.868,2.868,0,0,1,2.561-1.44c1.072,0,2.737.64,2.737,3.3v4.626h-1.409v-4.466c0-1.248-.464-2.305-1.792-2.305a2.033,2.033,0,0,0-1.889,1.441,2.091,2.091,0,0,0-.1.656v4.674H955.8Z"/>
      <path id="Trazado_144893" data-name="Trazado 144893" d="M966.31,5639.188v1.857h2.016v1.072H966.31v4.162c0,.96.272,1.5,1.056,1.5a2.6,2.6,0,0,0,.816-.1l.064,1.073a3.831,3.831,0,0,1-1.248.192,2.012,2.012,0,0,1-1.521-.593,3.023,3.023,0,0,1-.544-2.032v-4.21h-1.2v-1.072h1.2v-1.425Z"/>
      <path id="Trazado_144894" data-name="Trazado 144894" d="M972.967,5648.968a3.692,3.692,0,0,1-3.714-3.986,3.792,3.792,0,0,1,3.842-4.113,3.663,3.663,0,0,1,3.729,3.97,3.8,3.8,0,0,1-3.841,4.129Zm.064-1.056c1.344,0,2.353-1.265,2.353-3.025,0-1.313-.657-2.962-2.321-2.962-1.649,0-2.369,1.537-2.369,3.009,0,1.7.96,2.978,2.32,2.978Z"/>
      <path id="Trazado_144895" data-name="Trazado 144895" d="M983.686,5639.188v1.857H985.7v1.072h-2.016v4.162c0,.96.272,1.5,1.056,1.5a2.6,2.6,0,0,0,.816-.1l.064,1.073a3.832,3.832,0,0,1-1.248.192,2.012,2.012,0,0,1-1.521-.593,3.022,3.022,0,0,1-.544-2.032v-4.21h-1.2v-1.072h1.2v-1.425Z"/>
      <path id="Trazado_144896" data-name="Trazado 144896" d="M987.989,5645.175a2.466,2.466,0,0,0,2.641,2.673,5.022,5.022,0,0,0,2.145-.4l.256,1.009a6.308,6.308,0,0,1-2.593.5,3.613,3.613,0,0,1-3.809-3.905c0-2.337,1.392-4.178,3.649-4.178,2.529,0,3.185,2.225,3.185,3.649a3.349,3.349,0,0,1-.048.657Zm4.114-1.009a2,2,0,0,0-1.937-2.289,2.321,2.321,0,0,0-2.161,2.289Z"/>
      <path id="Trazado_144897" data-name="Trazado 144897" d="M995.2,5643.141c0-.816-.032-1.456-.064-2.1h1.233l.064,1.248h.048a2.677,2.677,0,0,1,2.449-1.424,2.284,2.284,0,0,1,2.177,1.553h.032a3.059,3.059,0,0,1,.88-1.009,2.6,2.6,0,0,1,1.7-.544c1.04,0,2.561.672,2.561,3.361v4.562H1004.9v-4.386c0-1.5-.56-2.385-1.681-2.385a1.85,1.85,0,0,0-1.68,1.265,2.492,2.492,0,0,0-.112.7v4.8h-1.377v-4.658c0-1.233-.544-2.113-1.616-2.113a2.1,2.1,0,0,0-1.857,2.1v4.674H995.2Z"/>
      <path id="Trazado_144898" data-name="Trazado 144898" d="M1008.548,5643.574c0-.993-.016-1.793-.064-2.529h1.265l.08,1.328h.032a2.988,2.988,0,0,1,2.737-1.5c1.889,0,3.3,1.584,3.3,3.938,0,2.785-1.713,4.161-3.521,4.161a2.7,2.7,0,0,1-2.385-1.216h-.032v4.209h-1.409Zm1.409,2.065a2.27,2.27,0,0,0,.064.576,2.154,2.154,0,0,0,2.1,1.648c1.489,0,2.354-1.216,2.354-2.993,0-1.553-.8-2.881-2.29-2.881a2.247,2.247,0,0,0-2.144,1.745,3.383,3.383,0,0,0-.08.56Z"/>
      <path id="Trazado_144899" data-name="Trazado 144899" d="M1020.8,5648.968a3.691,3.691,0,0,1-3.713-3.986,3.791,3.791,0,0,1,3.841-4.113,3.663,3.663,0,0,1,3.729,3.97,3.8,3.8,0,0,1-3.841,4.129Zm.064-1.056c1.345,0,2.353-1.265,2.353-3.025,0-1.313-.656-2.962-2.321-2.962-1.649,0-2.369,1.537-2.369,3.009,0,1.7.96,2.978,2.321,2.978Z"/>
      <path id="Trazado_144900" data-name="Trazado 144900" d="M1026.436,5643.462c0-.912-.016-1.7-.064-2.417h1.232l.064,1.52h.049a2.342,2.342,0,0,1,2.16-1.7,3.053,3.053,0,0,1,.385.031v1.329a4.013,4.013,0,0,0-.481-.032,1.975,1.975,0,0,0-1.889,1.793,4.5,4.5,0,0,0-.047.656v4.146h-1.409Z"/>
      <path id="Trazado_144901" data-name="Trazado 144901" d="M1037.046,5646.935a13.014,13.014,0,0,0,.112,1.857h-1.265l-.128-.977h-.047a2.863,2.863,0,0,1-2.37,1.153,2.208,2.208,0,0,1-2.369-2.225c0-1.873,1.665-2.9,4.658-2.881v-.16a1.591,1.591,0,0,0-1.76-1.793,3.735,3.735,0,0,0-2.033.576l-.32-.944a5.006,5.006,0,0,1,2.561-.672c2.385,0,2.961,1.616,2.961,3.169Zm-1.377-2.1c-1.536-.032-3.281.239-3.281,1.744a1.234,1.234,0,0,0,1.312,1.345,1.956,1.956,0,0,0,1.905-1.3,1.447,1.447,0,0,0,.064-.449Z"/>
      <path id="Trazado_144902" data-name="Trazado 144902" d="M1039.3,5637.428h1.408v11.364H1039.3Z"/>
      <path id="Trazado_144903" data-name="Trazado 144903" d="M1043.508,5648.968a.939.939,0,0,1-.928-1.008.956.956,0,0,1,.96-1.009.935.935,0,0,1,.945,1.009.946.946,0,0,1-.961,1.008Z"/>
      <path id="Trazado_144904" data-name="Trazado 144904" d="M906.758,5660.147a20.365,20.365,0,0,1,2.977-.223,6.178,6.178,0,0,1,4.369,1.344,4.92,4.92,0,0,1,1.537,3.873,5.769,5.769,0,0,1-1.553,4.194,6.709,6.709,0,0,1-4.785,1.553,19.45,19.45,0,0,1-2.545-.128Zm1.408,9.556a9.055,9.055,0,0,0,1.409.064c2.977.016,4.593-1.665,4.593-4.578.016-2.545-1.424-4.161-4.369-4.161a7.907,7.907,0,0,0-1.633.144Z"/>
      <path id="Trazado_144905" data-name="Trazado 144905" d="M918.245,5667.175a2.467,2.467,0,0,0,2.642,2.673,5.025,5.025,0,0,0,2.145-.4l.255,1.009a6.306,6.306,0,0,1-2.592.5,3.614,3.614,0,0,1-3.81-3.905c0-2.337,1.393-4.178,3.649-4.178,2.529,0,3.186,2.225,3.186,3.649a3.515,3.515,0,0,1-.048.657Zm4.114-1.009a2,2,0,0,0-1.937-2.289,2.32,2.32,0,0,0-2.16,2.289Z"/>
      <path id="Trazado_144906" data-name="Trazado 144906" d="M925.269,5669.351a3.983,3.983,0,0,0,1.873.544c1.008,0,1.489-.5,1.489-1.152,0-.672-.4-1.024-1.425-1.408-1.409-.513-2.065-1.281-2.065-2.194a2.4,2.4,0,0,1,2.673-2.272,3.6,3.6,0,0,1,1.889.48l-.336,1.008a3.187,3.187,0,0,0-1.585-.448c-.832,0-1.28.481-1.28,1.057,0,.639.448.927,1.456,1.328,1.329.5,2.033,1.169,2.033,2.321,0,1.376-1.072,2.337-2.881,2.337a4.431,4.431,0,0,1-2.177-.544Z"/>
      <path id="Trazado_144907" data-name="Trazado 144907" d="M937.32,5670.5a5.448,5.448,0,0,1-2.225.448,3.681,3.681,0,0,1-3.858-3.954,3.948,3.948,0,0,1,4.162-4.129,4.433,4.433,0,0,1,1.952.416l-.319,1.072a3.47,3.47,0,0,0-1.633-.368,2.689,2.689,0,0,0-2.738,2.929,2.656,2.656,0,0,0,2.689,2.9,4.028,4.028,0,0,0,1.729-.368Z"/>
      <path id="Trazado_144908" data-name="Trazado 144908" d="M945.448,5668.663c0,.816.016,1.52.064,2.129h-1.249l-.08-1.265h-.032a2.893,2.893,0,0,1-2.561,1.441c-1.216,0-2.673-.688-2.673-3.394v-4.529h1.408v4.273c0,1.473.465,2.482,1.729,2.482a2.026,2.026,0,0,0,1.857-1.3,1.932,1.932,0,0,0,.128-.72v-4.738h1.409Z"/>
      <path id="Trazado_144909" data-name="Trazado 144909" d="M948.581,5667.175a2.467,2.467,0,0,0,2.641,2.673,5.018,5.018,0,0,0,2.145-.4l.256,1.009a6.306,6.306,0,0,1-2.592.5,3.614,3.614,0,0,1-3.81-3.905c0-2.337,1.393-4.178,3.649-4.178,2.529,0,3.185,2.225,3.185,3.649a3.531,3.531,0,0,1-.047.657Zm4.114-1.009a2,2,0,0,0-1.937-2.289,2.322,2.322,0,0,0-2.161,2.289Z"/>
      <path id="Trazado_144910" data-name="Trazado 144910" d="M955.8,5665.141c0-.816-.016-1.456-.064-2.1h1.249l.08,1.264h.032a2.868,2.868,0,0,1,2.561-1.44c1.072,0,2.737.64,2.737,3.3v4.626h-1.409v-4.466c0-1.248-.464-2.305-1.792-2.305a2.033,2.033,0,0,0-1.889,1.441,2.091,2.091,0,0,0-.1.656v4.674H955.8Z"/>
      <path id="Trazado_144911" data-name="Trazado 144911" d="M966.31,5661.188v1.857h2.016v1.072H966.31v4.162c0,.96.272,1.5,1.056,1.5a2.6,2.6,0,0,0,.816-.1l.064,1.073a3.831,3.831,0,0,1-1.248.192,2.012,2.012,0,0,1-1.521-.593,3.023,3.023,0,0,1-.544-2.032v-4.21h-1.2v-1.072h1.2v-1.425Z"/>
      <path id="Trazado_144912" data-name="Trazado 144912" d="M972.967,5670.968a3.692,3.692,0,0,1-3.714-3.986,3.792,3.792,0,0,1,3.842-4.113,3.663,3.663,0,0,1,3.729,3.97,3.8,3.8,0,0,1-3.841,4.129Zm.064-1.056c1.344,0,2.353-1.265,2.353-3.025,0-1.313-.657-2.962-2.321-2.962-1.649,0-2.369,1.537-2.369,3.009,0,1.7.96,2.978,2.32,2.978Z"/>
      <path id="Trazado_144913" data-name="Trazado 144913" d="M978.406,5669.351a3.979,3.979,0,0,0,1.872.544c1.008,0,1.489-.5,1.489-1.152,0-.672-.4-1.024-1.425-1.408-1.409-.513-2.065-1.281-2.065-2.194a2.4,2.4,0,0,1,2.673-2.272,3.6,3.6,0,0,1,1.889.48l-.336,1.008a3.187,3.187,0,0,0-1.585-.448c-.832,0-1.28.481-1.28,1.057,0,.639.448.927,1.457,1.328,1.328.5,2.032,1.169,2.032,2.321,0,1.376-1.072,2.337-2.881,2.337a4.434,4.434,0,0,1-2.177-.544Z"/>
      <path id="Trazado_144914" data-name="Trazado 144914" d="M988.325,5665.574c0-.993-.016-1.793-.064-2.529h1.265l.08,1.328h.031a2.991,2.991,0,0,1,2.738-1.5c1.888,0,3.3,1.584,3.3,3.938,0,2.785-1.713,4.161-3.521,4.161a2.7,2.7,0,0,1-2.386-1.216h-.031v4.209h-1.409Zm1.409,2.065a2.27,2.27,0,0,0,.064.576,2.154,2.154,0,0,0,2.1,1.648c1.489,0,2.353-1.216,2.353-2.993,0-1.553-.8-2.881-2.289-2.881a2.247,2.247,0,0,0-2.144,1.745,3.376,3.376,0,0,0-.08.56Z"/>
      <path id="Trazado_144915" data-name="Trazado 144915" d="M1000.582,5670.968a3.692,3.692,0,0,1-3.714-3.986,3.792,3.792,0,0,1,3.842-4.113,3.663,3.663,0,0,1,3.729,3.97,3.8,3.8,0,0,1-3.841,4.129Zm.064-1.056c1.345,0,2.353-1.265,2.353-3.025,0-1.313-.656-2.962-2.321-2.962-1.649,0-2.369,1.537-2.369,3.009,0,1.7.96,2.978,2.321,2.978Z"/>
      <path id="Trazado_144916" data-name="Trazado 144916" d="M1006.213,5665.462c0-.912-.016-1.7-.064-2.417h1.232l.064,1.52h.048a2.344,2.344,0,0,1,2.161-1.7,3.025,3.025,0,0,1,.384.031v1.329a3.982,3.982,0,0,0-.48-.032,1.976,1.976,0,0,0-1.889,1.793,4.362,4.362,0,0,0-.048.656v4.146h-1.408Z"/>
      <path id="Trazado_144917" data-name="Trazado 144917" d="M912.248,5692.5a5.444,5.444,0,0,1-2.225.448,3.681,3.681,0,0,1-3.858-3.954,3.948,3.948,0,0,1,4.162-4.129,4.442,4.442,0,0,1,1.953.416l-.321,1.072a3.462,3.462,0,0,0-1.632-.368,2.688,2.688,0,0,0-2.737,2.929,2.656,2.656,0,0,0,2.689,2.9,4.035,4.035,0,0,0,1.729-.368Z"/>
      <path id="Trazado_144918" data-name="Trazado 144918" d="M920.376,5690.663c0,.816.016,1.52.064,2.129h-1.248l-.08-1.265h-.033a2.893,2.893,0,0,1-2.561,1.441c-1.216,0-2.672-.688-2.672-3.394v-4.529h1.408v4.273c0,1.473.464,2.482,1.729,2.482a2.026,2.026,0,0,0,1.856-1.3,1.931,1.931,0,0,0,.129-.72v-4.738h1.408Z"/>
      <path id="Trazado_144919" data-name="Trazado 144919" d="M922.709,5687.574c0-.993-.016-1.793-.064-2.529h1.265l.08,1.328h.032a2.99,2.99,0,0,1,2.737-1.5c1.889,0,3.3,1.584,3.3,3.938,0,2.785-1.712,4.161-3.521,4.161a2.7,2.7,0,0,1-2.385-1.216h-.032v4.209h-1.409Zm1.409,2.065a2.267,2.267,0,0,0,.064.576,2.155,2.155,0,0,0,2.1,1.648c1.488,0,2.353-1.216,2.353-2.993,0-1.553-.8-2.881-2.289-2.881a2.247,2.247,0,0,0-2.145,1.745,3.383,3.383,0,0,0-.08.56Z"/>
      <path id="Trazado_144920" data-name="Trazado 144920" d="M934.967,5692.968a3.692,3.692,0,0,1-3.714-3.986,3.792,3.792,0,0,1,3.842-4.113,3.663,3.663,0,0,1,3.729,3.97,3.8,3.8,0,0,1-3.841,4.129Zm.064-1.056c1.344,0,2.353-1.265,2.353-3.025,0-1.313-.657-2.962-2.321-2.962-1.649,0-2.369,1.537-2.369,3.009,0,1.7.96,2.978,2.32,2.978Z"/>
      <path id="Trazado_144921" data-name="Trazado 144921" d="M940.6,5687.141c0-.816-.016-1.456-.064-2.1h1.249l.08,1.264h.032a2.869,2.869,0,0,1,2.561-1.44c1.073,0,2.737.64,2.737,3.3v4.626h-1.409v-4.466c0-1.248-.463-2.305-1.792-2.305a2.033,2.033,0,0,0-1.889,1.441,2.093,2.093,0,0,0-.1.656v4.674H940.6Z"/>
      <path id="Trazado_144922" data-name="Trazado 144922" d="M950.278,5689.175a2.466,2.466,0,0,0,2.641,2.673,5.022,5.022,0,0,0,2.145-.4l.256,1.009a6.312,6.312,0,0,1-2.593.5,3.614,3.614,0,0,1-3.81-3.905c0-2.337,1.393-4.178,3.65-4.178,2.529,0,3.185,2.225,3.185,3.649a3.427,3.427,0,0,1-.048.657Zm4.113-1.009a2,2,0,0,0-1.937-2.289,2.321,2.321,0,0,0-2.16,2.289Z"/>
      <path id="Trazado_144923" data-name="Trazado 144923" d="M957.3,5691.351a3.983,3.983,0,0,0,1.873.544c1.008,0,1.488-.5,1.488-1.152,0-.672-.4-1.024-1.424-1.408-1.409-.513-2.065-1.281-2.065-2.194a2.4,2.4,0,0,1,2.673-2.272,3.6,3.6,0,0,1,1.889.48l-.336,1.008a3.187,3.187,0,0,0-1.585-.448c-.832,0-1.281.481-1.281,1.057,0,.639.449.927,1.457,1.328,1.329.5,2.033,1.169,2.033,2.321,0,1.376-1.073,2.337-2.881,2.337a4.428,4.428,0,0,1-2.177-.544Z"/>
      <path id="Trazado_144924" data-name="Trazado 144924" d="M964.245,5692.968a.939.939,0,0,1-.928-1.008.956.956,0,0,1,.961-1.009.934.934,0,0,1,.944,1.009.945.945,0,0,1-.96,1.008Z"/>
    </g>
  </g>
</svg>
