<svg xmlns="http://www.w3.org/2000/svg" width="1030" height="632" viewBox="0 0 1030 632">
  <g id="Grupo_80258" data-name="Grupo 80258" transform="translate(-285 -23516.047)">
    <rect id="Rectángulo_20231" data-name="Rectángulo 20231" width="1030" height="632" transform="translate(285 23516.047)" fill="#53bced" opacity="0.16"/>
    <rect id="Rectángulo_20232" data-name="Rectángulo 20232" width="278" height="38" transform="translate(302 24086.047)" fill="#dee4f0"/>
    <text id="Nota._Tomada_de_Monferrer_2013_._" data-name="Nota. Tomada de Monferrer (2013). " transform="translate(325 24095.047)" fill="#12263f" font-size="13" font-family="Roboto-Regular, Roboto"><tspan x="0" y="14">Nota. Tomada de Monferrer (2013). </tspan></text>
    <g id="Grupo_71240" data-name="Grupo 71240" transform="translate(141.843 19388.922)">
      <line id="Línea_302" data-name="Línea 302" y2="40.425" transform="translate(440.976 4266.698)" fill="none" stroke="#0a4d8f" stroke-miterlimit="10" stroke-width="4"/>
      <line id="Línea_303" data-name="Línea 303" y2="38.985" transform="translate(869.083 4268.138)" fill="none" stroke="#0a4d8f" stroke-miterlimit="10" stroke-width="4"/>
      <rect id="Rectángulo_20235" data-name="Rectángulo 20235" width="219.823" height="91.475" rx="13.659" transform="translate(548.448 4178.277)" fill="#073360"/>
      <rect id="Rectángulo_20236" data-name="Rectángulo 20236" width="210.353" height="83.013" rx="11.478" transform="translate(553.183 4182.509)" fill="#fff"/>
      <rect id="Rectángulo_20237" data-name="Rectángulo 20237" width="201.488" height="75.478" rx="8.206" transform="translate(557.616 4186.276)" fill="#0d66bf"/>
      <g id="Grupo_71209" data-name="Grupo 71209">
        <path id="Trazado_162015" data-name="Trazado 162015" d="M646.706,4220.035l4.347,12.574h.071l4.383-12.574h4.476V4237.1h-3.422v-5.086l.328-7.536-.07-.011-4.57,12.633h-2.3l-4.547-12.586-.07.011.328,7.489v5.086h-3.422v-17.063Z" fill="#fff"/>
        <path id="Trazado_162016" data-name="Trazado 162016" d="M668.514,4237.344a5.706,5.706,0,0,1-4.382-1.758,6.285,6.285,0,0,1-1.641-4.465v-.469a6.936,6.936,0,0,1,1.553-4.652,5.788,5.788,0,0,1,8.15-.27,5.956,5.956,0,0,1,1.418,4.184v1.863h-7.57l-.024.071a3.287,3.287,0,0,0,.838,2.053,2.618,2.618,0,0,0,2.022.806,6.558,6.558,0,0,0,1.886-.229,8.647,8.647,0,0,0,1.641-.72l.926,2.114a6.323,6.323,0,0,1-2.028,1.054A8.785,8.785,0,0,1,668.514,4237.344Zm-.3-10.524a1.78,1.78,0,0,0-1.5.727,3.784,3.784,0,0,0-.68,1.91l.035.058h4.2v-.3a2.74,2.74,0,0,0-.51-1.74A1.837,1.837,0,0,0,668.21,4226.82Z" fill="#fff"/>
        <path id="Trazado_162017" data-name="Trazado 162017" d="M678.733,4224.418l.153,1.816a4.627,4.627,0,0,1,1.558-1.511,4.037,4.037,0,0,1,2.074-.54,3.814,3.814,0,0,1,3,1.207,5.573,5.573,0,0,1,1.078,3.786v7.922h-3.433v-7.929a2.576,2.576,0,0,0-.516-1.815,2.073,2.073,0,0,0-1.558-.534,2.623,2.623,0,0,0-1.219.277,2.5,2.5,0,0,0-.9.78v9.221h-3.422v-12.68Z" fill="#fff"/>
        <path id="Trazado_162018" data-name="Trazado 162018" d="M696.007,4233.6a1.2,1.2,0,0,0-.545-.972,5.556,5.556,0,0,0-2.022-.727,8.147,8.147,0,0,1-3.392-1.353,2.941,2.941,0,0,1-1.143-2.444,3.492,3.492,0,0,1,1.377-2.783,5.587,5.587,0,0,1,3.686-1.143,6.049,6.049,0,0,1,3.861,1.137,3.359,3.359,0,0,1,1.377,2.871l-.024.071h-3.3a1.67,1.67,0,0,0-.487-1.243,2.334,2.334,0,0,0-2.73-.076,1.277,1.277,0,0,0-.475,1.014,1.153,1.153,0,0,0,.5.961,5.455,5.455,0,0,0,2.022.668,8.179,8.179,0,0,1,3.48,1.377,3.025,3.025,0,0,1,1.137,2.5,3.331,3.331,0,0,1-1.465,2.795,6.348,6.348,0,0,1-3.867,1.084,5.874,5.874,0,0,1-4-1.284,3.587,3.587,0,0,1-1.4-2.923l.023-.071h3.129a1.778,1.778,0,0,0,.668,1.477,2.755,2.755,0,0,0,1.652.457,2.379,2.379,0,0,0,1.448-.375A1.209,1.209,0,0,0,696.007,4233.6Z" fill="#fff"/>
        <path id="Trazado_162019" data-name="Trazado 162019" d="M708.968,4237.1a7.26,7.26,0,0,1-.323-.915,6.323,6.323,0,0,1-.193-.984,4.723,4.723,0,0,1-1.389,1.535,3.468,3.468,0,0,1-2.056.61,4.281,4.281,0,0,1-3.071-1.026,3.675,3.675,0,0,1-1.078-2.795,3.342,3.342,0,0,1,1.436-2.888,7.167,7.167,0,0,1,4.189-1.026h1.91V4228.6a1.975,1.975,0,0,0-.48-1.418,2.246,2.246,0,0,0-2.7-.1,1.424,1.424,0,0,0-.451,1.119l-3.3-.012-.012-.07a3.219,3.219,0,0,1,1.4-2.772,6.076,6.076,0,0,1,3.879-1.166,5.659,5.659,0,0,1,3.691,1.155,4,4,0,0,1,1.418,3.287v5.238a9.9,9.9,0,0,0,.135,1.676,8.47,8.47,0,0,0,.427,1.559Zm-3.129-2.286a2.936,2.936,0,0,0,1.6-.445,2.321,2.321,0,0,0,.949-1.031v-1.793h-1.91a2.282,2.282,0,0,0-1.652.545,1.767,1.767,0,0,0-.563,1.318,1.319,1.319,0,0,0,.422,1.02A1.636,1.636,0,0,0,705.839,4234.812Z" fill="#fff"/>
        <path id="Trazado_162020" data-name="Trazado 162020" d="M718.108,4224.418v13.148a4.722,4.722,0,0,1-1.183,3.44,4.392,4.392,0,0,1-3.293,1.213,6.561,6.561,0,0,1-1.676-.2l.164-2.613a4.473,4.473,0,0,0,.539.106,4.538,4.538,0,0,0,.574.035,1.268,1.268,0,0,0,1.067-.487,2.438,2.438,0,0,0,.375-1.494v-13.148Zm-.07-3.059H714.6v-2.543h3.434Z" fill="#fff"/>
        <path id="Trazado_162021" data-name="Trazado 162021" d="M726.393,4237.344a5.707,5.707,0,0,1-4.382-1.758,6.285,6.285,0,0,1-1.641-4.465v-.469a6.932,6.932,0,0,1,1.553-4.652,5.788,5.788,0,0,1,8.15-.27,5.956,5.956,0,0,1,1.418,4.184v1.863h-7.57l-.024.071a3.287,3.287,0,0,0,.838,2.053,2.618,2.618,0,0,0,2.022.806,6.563,6.563,0,0,0,1.886-.229,8.645,8.645,0,0,0,1.641-.72l.926,2.114a6.324,6.324,0,0,1-2.028,1.054A8.79,8.79,0,0,1,726.393,4237.344Zm-.3-10.524a1.78,1.78,0,0,0-1.5.727,3.775,3.775,0,0,0-.68,1.91l.035.058h4.2v-.3a2.746,2.746,0,0,0-.509-1.74A1.837,1.837,0,0,0,726.089,4226.82Z" fill="#fff"/>
      </g>
      <g id="Grupo_71218" data-name="Grupo 71218">
        <g id="Grupo_71211" data-name="Grupo 71211">
          <g id="Grupo_71210" data-name="Grupo 71210">
            <path id="Trazado_162022" data-name="Trazado 162022" d="M631.388,4243l-3.87-11.263a28.175,28.175,0,0,0-24.832-40.509,28.145,28.145,0,0,0-28.6,27.775,20.508,20.508,0,0,0-6.225,25.2l-2.666,7.758a3.666,3.666,0,0,0,3.452,4.854,3.677,3.677,0,0,0,1.2-.2l7.758-2.665a20.6,20.6,0,0,0,8.769,1.979h.032a20.478,20.478,0,0,0,16.559-8.42,28.243,28.243,0,0,0,11.631-2.847l11.263,3.87a4.385,4.385,0,0,0,1.426.24,4.357,4.357,0,0,0,4.1-5.769Zm-44.981,8.96h-.026a16.584,16.584,0,0,1-7.7-1.912,1.983,1.983,0,0,0-1.572-.123l-7.955,2.733,2.734-7.954a1.985,1.985,0,0,0-.123-1.572,16.536,16.536,0,0,1,2.7-19.173,28.253,28.253,0,0,0,23.552,23.241A16.492,16.492,0,0,1,586.407,4251.956Zm41.138-7.274a.36.36,0,0,1-.4.092l-12.057-4.144a1.99,1.99,0,0,0-1.572.123,24.225,24.225,0,0,1-11.251,2.793h-.037a24.276,24.276,0,0,1-24.178-23.787,24.18,24.18,0,0,1,24.57-24.57,24.186,24.186,0,0,1,20.994,35.466,1.986,1.986,0,0,0-.123,1.572l4.143,12.058A.359.359,0,0,1,627.545,4244.682Z" fill="#fff"/>
          </g>
        </g>
        <g id="Grupo_71213" data-name="Grupo 71213">
          <g id="Grupo_71212" data-name="Grupo 71212">
            <path id="Trazado_162023" data-name="Trazado 162023" d="M614.045,4208.855H590.416a1.983,1.983,0,1,0,0,3.966h23.629a1.983,1.983,0,1,0,0-3.966Z" fill="#fff"/>
          </g>
        </g>
        <g id="Grupo_71215" data-name="Grupo 71215">
          <g id="Grupo_71214" data-name="Grupo 71214">
            <path id="Trazado_162024" data-name="Trazado 162024" d="M614.045,4217.011H590.416a1.983,1.983,0,1,0,0,3.967h23.629a1.983,1.983,0,0,0,0-3.967Z" fill="#fff"/>
          </g>
        </g>
        <g id="Grupo_71217" data-name="Grupo 71217">
          <g id="Grupo_71216" data-name="Grupo 71216">
            <path id="Trazado_162025" data-name="Trazado 162025" d="M604.949,4225.167H590.415a1.983,1.983,0,0,0,0,3.967h14.534a1.983,1.983,0,0,0,0-3.967Z" fill="#fff"/>
          </g>
        </g>
      </g>
      <rect id="Rectángulo_20238" data-name="Rectángulo 20238" width="145.816" height="70.251" rx="11.478" transform="translate(368.068 4310.929)" fill="#a48f29"/>
      <rect id="Rectángulo_20239" data-name="Rectángulo 20239" width="139.67" height="63.875" rx="8.206" transform="translate(371.14 4314.117)" fill="#e9d886"/>
      <g id="Grupo_71219" data-name="Grupo 71219">
        <path id="Trazado_162026" data-name="Trazado 162026" d="M392.826,4337.175H385.76v4.863h8.262v2.637H382.338v-17.063H394v2.637H385.76v4.289h7.066Z" fill="#073360"/>
        <path id="Trazado_162027" data-name="Trazado 162027" d="M399.014,4332l.141,1.676a4.255,4.255,0,0,1,1.529-1.412,4.4,4.4,0,0,1,2.127-.5,3.87,3.87,0,0,1,2.086.539,3.325,3.325,0,0,1,1.312,1.629,4.4,4.4,0,0,1,1.524-1.594,4.133,4.133,0,0,1,2.2-.574,3.652,3.652,0,0,1,2.959,1.295,6.045,6.045,0,0,1,1.084,3.943v7.676h-3.422v-7.7a3.218,3.218,0,0,0-.469-2.009,1.711,1.711,0,0,0-1.394-.564,2.374,2.374,0,0,0-1.26.324,2.332,2.332,0,0,0-.85.9c0,.148,0,.276.012.382s.012.213.012.322v8.352H403.2v-7.7a3.236,3.236,0,0,0-.469-1.992,1.7,1.7,0,0,0-1.406-.581,2.634,2.634,0,0,0-1.213.265,2.332,2.332,0,0,0-.862.745v9.268h-3.41V4332Z" fill="#073360"/>
        <path id="Trazado_162028" data-name="Trazado 162028" d="M420.2,4328.96H416.78v-2.567H420.2Zm0,15.715H416.78V4332H420.2Z" fill="#073360"/>
        <path id="Trazado_162029" data-name="Trazado 162029" d="M429.869,4341.182a1.192,1.192,0,0,0-.545-.972,5.54,5.54,0,0,0-2.021-.727,8.138,8.138,0,0,1-3.393-1.353,2.94,2.94,0,0,1-1.142-2.444,3.5,3.5,0,0,1,1.377-2.783,5.588,5.588,0,0,1,3.685-1.142,6.056,6.056,0,0,1,3.862,1.136,3.358,3.358,0,0,1,1.377,2.871l-.024.071H429.74a1.669,1.669,0,0,0-.486-1.242,2.332,2.332,0,0,0-2.73-.077,1.277,1.277,0,0,0-.475,1.014,1.153,1.153,0,0,0,.5.961,5.446,5.446,0,0,0,2.022.668,8.179,8.179,0,0,1,3.48,1.377,3.025,3.025,0,0,1,1.137,2.5,3.332,3.332,0,0,1-1.465,2.795,6.352,6.352,0,0,1-3.867,1.084,5.878,5.878,0,0,1-4-1.283,3.591,3.591,0,0,1-1.4-2.924l.024-.071H425.6a1.778,1.778,0,0,0,.668,1.477,2.756,2.756,0,0,0,1.652.457,2.376,2.376,0,0,0,1.447-.375A1.209,1.209,0,0,0,429.869,4341.182Z" fill="#073360"/>
        <path id="Trazado_162030" data-name="Trazado 162030" d="M438.987,4328.96h-3.422v-2.567h3.422Zm0,15.715h-3.422V4332h3.422Z" fill="#073360"/>
        <path id="Trazado_162031" data-name="Trazado 162031" d="M441.272,4338.218a6.8,6.8,0,0,1,1.582-4.647,5.512,5.512,0,0,1,4.383-1.81,5.573,5.573,0,0,1,4.406,1.8,6.771,6.771,0,0,1,1.594,4.653v.246a6.781,6.781,0,0,1-1.588,4.658,6.267,6.267,0,0,1-8.789,0,6.777,6.777,0,0,1-1.588-4.658Zm3.41.24a5.5,5.5,0,0,0,.609,2.779,2.106,2.106,0,0,0,1.969,1.047,2.083,2.083,0,0,0,1.939-1.053,5.457,5.457,0,0,0,.616-2.773v-.246a5.411,5.411,0,0,0-.621-2.75,2.1,2.1,0,0,0-1.957-1.065,2.078,2.078,0,0,0-1.94,1.071,5.464,5.464,0,0,0-.615,2.744Zm3.164-11.408h3.621l.023.07-3.246,3.047h-2.73Z" fill="#073360"/>
        <path id="Trazado_162032" data-name="Trazado 162032" d="M458.475,4332l.152,1.816a4.645,4.645,0,0,1,1.559-1.511,4.038,4.038,0,0,1,2.074-.539,3.815,3.815,0,0,1,3,1.207,5.571,5.571,0,0,1,1.078,3.785v7.922H462.9v-7.929a2.572,2.572,0,0,0-.516-1.814,2.071,2.071,0,0,0-1.559-.535,2.619,2.619,0,0,0-1.218.277,2.5,2.5,0,0,0-.9.78v9.221h-3.422V4332Z" fill="#073360"/>
        <path id="Trazado_162033" data-name="Trazado 162033" d="M474.342,4338.44a8.242,8.242,0,0,1,1.295-4.84,4.2,4.2,0,0,1,3.65-1.839,3.545,3.545,0,0,1,1.711.41,4.111,4.111,0,0,1,1.336,1.172v-6.95h3.434v18.282h-2.942l-.281-1.547a4.2,4.2,0,0,1-1.412,1.336,3.759,3.759,0,0,1-1.869.457,4.288,4.288,0,0,1-3.627-1.711,7.31,7.31,0,0,1-1.295-4.524Zm3.41.248a5.221,5.221,0,0,0,.563,2.635,1.955,1.955,0,0,0,1.828.961,2.652,2.652,0,0,0,1.289-.3,2.381,2.381,0,0,0,.9-.878v-5.434a2.643,2.643,0,0,0-.9-.938,2.383,2.383,0,0,0-1.272-.336,1.93,1.93,0,0,0-1.834,1.12,6.374,6.374,0,0,0-.58,2.924Z" fill="#073360"/>
        <path id="Trazado_162034" data-name="Trazado 162034" d="M494.03,4344.921a5.707,5.707,0,0,1-4.383-1.758,6.285,6.285,0,0,1-1.641-4.465v-.469a6.938,6.938,0,0,1,1.553-4.652,5.79,5.79,0,0,1,8.15-.27,5.951,5.951,0,0,1,1.418,4.184v1.863h-7.57l-.024.071a3.289,3.289,0,0,0,.838,2.053,2.618,2.618,0,0,0,2.022.806,6.6,6.6,0,0,0,1.887-.228,8.743,8.743,0,0,0,1.64-.721l.926,2.114a6.318,6.318,0,0,1-2.027,1.054A8.809,8.809,0,0,1,494.03,4344.921Zm-.3-10.524a1.783,1.783,0,0,0-1.5.727,3.784,3.784,0,0,0-.68,1.91l.035.059h4.2v-.3a2.742,2.742,0,0,0-.51-1.74A1.837,1.837,0,0,0,493.725,4334.4Z" fill="#073360"/>
        <path id="Trazado_162035" data-name="Trazado 162035" d="M392.9,4353l.14,1.676a4.25,4.25,0,0,1,1.53-1.412,4.395,4.395,0,0,1,2.126-.5,3.868,3.868,0,0,1,2.086.539,3.321,3.321,0,0,1,1.313,1.629,4.395,4.395,0,0,1,1.523-1.594,4.135,4.135,0,0,1,2.2-.574,3.651,3.651,0,0,1,2.959,1.295,6.04,6.04,0,0,1,1.084,3.943v7.676h-3.421v-7.7a3.224,3.224,0,0,0-.469-2.009,1.714,1.714,0,0,0-1.395-.564,2.373,2.373,0,0,0-1.259.324,2.332,2.332,0,0,0-.85.9c0,.148,0,.276.012.382s.011.213.011.322v8.352h-3.41v-7.7a3.229,3.229,0,0,0-.469-1.992,1.7,1.7,0,0,0-1.406-.581,2.637,2.637,0,0,0-1.213.265,2.337,2.337,0,0,0-.861.745v9.268h-3.41V4353Z" fill="#073360"/>
        <path id="Trazado_162036" data-name="Trazado 162036" d="M416.106,4365.921a5.71,5.71,0,0,1-4.383-1.758,6.285,6.285,0,0,1-1.641-4.465v-.469a6.938,6.938,0,0,1,1.553-4.652,5.79,5.79,0,0,1,8.15-.27,5.951,5.951,0,0,1,1.418,4.184v1.863h-7.57l-.023.071a3.278,3.278,0,0,0,.838,2.053,2.615,2.615,0,0,0,2.021.806,6.6,6.6,0,0,0,1.887-.228,8.714,8.714,0,0,0,1.64-.721l.926,2.114a6.317,6.317,0,0,1-2.027,1.054A8.809,8.809,0,0,1,416.106,4365.921Zm-.3-10.524a1.783,1.783,0,0,0-1.5.727,3.784,3.784,0,0,0-.68,1.91l.035.059h4.2v-.3a2.742,2.742,0,0,0-.51-1.74A1.836,1.836,0,0,0,415.8,4355.4Z" fill="#073360"/>
        <path id="Trazado_162037" data-name="Trazado 162037" d="M426.324,4353l.153,1.816a4.642,4.642,0,0,1,1.558-1.511,4.045,4.045,0,0,1,2.075-.539,3.815,3.815,0,0,1,3,1.207,5.576,5.576,0,0,1,1.078,3.785v7.922h-3.434v-7.929a2.577,2.577,0,0,0-.515-1.814,2.072,2.072,0,0,0-1.559-.535,2.626,2.626,0,0,0-1.219.277,2.5,2.5,0,0,0-.9.78v9.221h-3.422V4353Z" fill="#073360"/>
        <path id="Trazado_162038" data-name="Trazado 162038" d="M443.6,4362.182a1.2,1.2,0,0,0-.545-.972,5.539,5.539,0,0,0-2.022-.727,8.133,8.133,0,0,1-3.392-1.353,2.939,2.939,0,0,1-1.143-2.444,3.5,3.5,0,0,1,1.377-2.783,5.591,5.591,0,0,1,3.686-1.142,6.055,6.055,0,0,1,3.861,1.136,3.357,3.357,0,0,1,1.377,2.871l-.023.071h-3.3a1.669,1.669,0,0,0-.486-1.242,2.333,2.333,0,0,0-2.731-.077,1.279,1.279,0,0,0-.474,1.014,1.153,1.153,0,0,0,.5.961,5.439,5.439,0,0,0,2.021.668,8.179,8.179,0,0,1,3.481,1.377,3.027,3.027,0,0,1,1.136,2.5,3.332,3.332,0,0,1-1.465,2.795,6.348,6.348,0,0,1-3.867,1.084,5.882,5.882,0,0,1-4-1.283,3.59,3.59,0,0,1-1.4-2.924l.023-.071h3.129a1.781,1.781,0,0,0,.668,1.477,2.759,2.759,0,0,0,1.653.457,2.378,2.378,0,0,0,1.447-.375A1.209,1.209,0,0,0,443.6,4362.182Z" fill="#073360"/>
        <path id="Trazado_162039" data-name="Trazado 162039" d="M456.559,4365.675a7.059,7.059,0,0,1-.322-.914,6.369,6.369,0,0,1-.194-.985,4.71,4.71,0,0,1-1.388,1.535,3.468,3.468,0,0,1-2.057.61,4.278,4.278,0,0,1-3.07-1.026,3.672,3.672,0,0,1-1.079-2.795,3.343,3.343,0,0,1,1.436-2.888,7.166,7.166,0,0,1,4.189-1.026h1.911v-1.007a1.973,1.973,0,0,0-.481-1.418,2.242,2.242,0,0,0-2.7-.1,1.426,1.426,0,0,0-.451,1.119l-3.3-.012-.012-.07a3.223,3.223,0,0,1,1.395-2.771,6.073,6.073,0,0,1,3.879-1.166,5.659,5.659,0,0,1,3.691,1.154,3.993,3.993,0,0,1,1.418,3.287v5.238a9.893,9.893,0,0,0,.135,1.676,8.36,8.36,0,0,0,.428,1.559Zm-3.129-2.285a2.931,2.931,0,0,0,1.605-.446,2.315,2.315,0,0,0,.95-1.031v-1.793h-1.911a2.284,2.284,0,0,0-1.652.545,1.767,1.767,0,0,0-.562,1.318,1.319,1.319,0,0,0,.421,1.02A1.636,1.636,0,0,0,453.43,4363.39Z" fill="#073360"/>
        <path id="Trazado_162040" data-name="Trazado 162040" d="M465.7,4353v13.148a4.722,4.722,0,0,1-1.183,3.44,4.391,4.391,0,0,1-3.293,1.213,6.59,6.59,0,0,1-1.676-.2l.164-2.614a4.232,4.232,0,0,0,1.113.141,1.269,1.269,0,0,0,1.067-.486,2.443,2.443,0,0,0,.375-1.5V4353Zm-.07-3.059H462.2v-2.543h3.433Z" fill="#073360"/>
        <path id="Trazado_162041" data-name="Trazado 162041" d="M473.985,4365.921a5.708,5.708,0,0,1-4.383-1.758,6.285,6.285,0,0,1-1.641-4.465v-.469a6.938,6.938,0,0,1,1.553-4.652,5.79,5.79,0,0,1,8.15-.27,5.951,5.951,0,0,1,1.418,4.184v1.863h-7.57l-.023.071a3.283,3.283,0,0,0,.837,2.053,2.619,2.619,0,0,0,2.022.806,6.6,6.6,0,0,0,1.887-.228,8.743,8.743,0,0,0,1.64-.721l.926,2.114a6.317,6.317,0,0,1-2.027,1.054A8.809,8.809,0,0,1,473.985,4365.921Zm-.3-10.524a1.783,1.783,0,0,0-1.5.727,3.784,3.784,0,0,0-.68,1.91l.035.059h4.2v-.3a2.742,2.742,0,0,0-.51-1.74A1.837,1.837,0,0,0,473.68,4355.4Z" fill="#073360"/>
        <path id="Trazado_162042" data-name="Trazado 162042" d="M487.93,4362.182a1.2,1.2,0,0,0-.545-.972,5.54,5.54,0,0,0-2.021-.727,8.138,8.138,0,0,1-3.393-1.353,2.939,2.939,0,0,1-1.143-2.444,3.5,3.5,0,0,1,1.377-2.783,5.591,5.591,0,0,1,3.686-1.142,6.055,6.055,0,0,1,3.861,1.136,3.357,3.357,0,0,1,1.377,2.871l-.023.071h-3.3a1.669,1.669,0,0,0-.486-1.242,2.333,2.333,0,0,0-2.731-.077,1.279,1.279,0,0,0-.474,1.014,1.153,1.153,0,0,0,.5.961,5.446,5.446,0,0,0,2.021.668,8.178,8.178,0,0,1,3.481,1.377,3.027,3.027,0,0,1,1.136,2.5,3.332,3.332,0,0,1-1.465,2.795,6.348,6.348,0,0,1-3.867,1.084,5.882,5.882,0,0,1-4-1.283,3.59,3.59,0,0,1-1.4-2.924l.023-.071h3.129a1.781,1.781,0,0,0,.668,1.477,2.759,2.759,0,0,0,1.653.457,2.378,2.378,0,0,0,1.447-.375A1.209,1.209,0,0,0,487.93,4362.182Z" fill="#073360"/>
      </g>
      <rect id="Rectángulo_20240" data-name="Rectángulo 20240" width="158.127" height="70.251" rx="11.478" transform="translate(795.119 4313.376)" fill="#a48f29"/>
      <rect id="Rectángulo_20241" data-name="Rectángulo 20241" width="151.462" height="63.875" rx="8.206" transform="translate(798.451 4316.564)" fill="#e9d886"/>
      <g id="Grupo_71220" data-name="Grupo 71220">
        <path id="Trazado_162043" data-name="Trazado 162043" d="M822.764,4338.215v6.82h-3.422v-17.062h6.434a7.071,7.071,0,0,1,4.564,1.33,4.5,4.5,0,0,1,1.647,3.709,3.758,3.758,0,0,1-.692,2.273,4.828,4.828,0,0,1-2.027,1.535,3.676,3.676,0,0,1,2.174,1.488,4.725,4.725,0,0,1,.662,2.579v1.253a6.2,6.2,0,0,0,.193,1.495,2.06,2.06,0,0,0,.662,1.154v.246h-3.527a1.923,1.923,0,0,1-.609-1.254,10.524,10.524,0,0,1-.141-1.664v-1.207a2.714,2.714,0,0,0-.7-1.986,2.63,2.63,0,0,0-1.963-.709Zm0-2.637h2.953a3.233,3.233,0,0,0,2.15-.609,2.25,2.25,0,0,0,.709-1.805,2.482,2.482,0,0,0-.709-1.863,2.878,2.878,0,0,0-2.091-.692h-3.012Z" fill="#073360"/>
        <path id="Trazado_162044" data-name="Trazado 162044" d="M840.541,4345.281a5.71,5.71,0,0,1-4.383-1.758,6.288,6.288,0,0,1-1.64-4.465v-.468a6.933,6.933,0,0,1,1.553-4.653,5.789,5.789,0,0,1,8.15-.269,5.954,5.954,0,0,1,1.418,4.183v1.864h-7.57l-.024.07a3.29,3.29,0,0,0,.838,2.054,2.617,2.617,0,0,0,2.022.805,6.6,6.6,0,0,0,1.886-.228,8.654,8.654,0,0,0,1.641-.721l.926,2.114a6.3,6.3,0,0,1-2.028,1.054A8.79,8.79,0,0,1,840.541,4345.281Zm-.3-10.523a1.782,1.782,0,0,0-1.5.726,3.78,3.78,0,0,0-.68,1.91l.035.059h4.2v-.305a2.749,2.749,0,0,0-.509-1.74A1.837,1.837,0,0,0,840.237,4334.758Z" fill="#073360"/>
        <path id="Trazado_162045" data-name="Trazado 162045" d="M852.951,4342.644a2.02,2.02,0,0,0,1.465-.53,1.87,1.87,0,0,0,.551-1.415h3.106l.035.07a3.95,3.95,0,0,1-1.448,3.217,6.1,6.1,0,0,1-8.08-.5,6.832,6.832,0,0,1-1.535-4.6v-.352a6.879,6.879,0,0,1,1.529-4.6,5.408,5.408,0,0,1,4.366-1.8,5.323,5.323,0,0,1,3.779,1.336,4.439,4.439,0,0,1,1.389,3.516l-.024.07h-3.117a2.479,2.479,0,0,0-.539-1.635,1.825,1.825,0,0,0-1.488-.65,1.986,1.986,0,0,0-1.916,1.052,5.8,5.8,0,0,0-.557,2.715v.352a5.771,5.771,0,0,0,.557,2.732A2,2,0,0,0,852.951,4342.644Z" fill="#073360"/>
        <path id="Trazado_162046" data-name="Trazado 162046" d="M865.666,4345.281a5.71,5.71,0,0,1-4.383-1.758,6.288,6.288,0,0,1-1.64-4.465v-.468a6.933,6.933,0,0,1,1.553-4.653,5.789,5.789,0,0,1,8.15-.269,5.954,5.954,0,0,1,1.418,4.183v1.864h-7.57l-.024.07a3.29,3.29,0,0,0,.838,2.054,2.617,2.617,0,0,0,2.022.805,6.6,6.6,0,0,0,1.886-.228,8.654,8.654,0,0,0,1.641-.721l.926,2.114a6.3,6.3,0,0,1-2.028,1.054A8.79,8.79,0,0,1,865.666,4345.281Zm-.3-10.523a1.782,1.782,0,0,0-1.5.726,3.78,3.78,0,0,0-.68,1.91l.035.059h4.2v-.305a2.749,2.749,0,0,0-.509-1.74A1.837,1.837,0,0,0,865.362,4334.758Z" fill="#073360"/>
        <path id="Trazado_162047" data-name="Trazado 162047" d="M884.194,4339.047a7.28,7.28,0,0,1-1.3,4.523,4.3,4.3,0,0,1-3.633,1.711,4.064,4.064,0,0,1-1.77-.369,3.632,3.632,0,0,1-1.324-1.084v6.082h-3.41v-17.555h3.082l.2,1.5a4.077,4.077,0,0,1,1.354-1.283,3.659,3.659,0,0,1,1.846-.451,4.218,4.218,0,0,1,3.656,1.84,8.212,8.212,0,0,1,1.3,4.84Zm-3.422-.264a6.142,6.142,0,0,0-.6-2.91,1.949,1.949,0,0,0-1.828-1.115,2.566,2.566,0,0,0-1.318.317,2.253,2.253,0,0,0-.862.9v5.563a2.1,2.1,0,0,0,.862.822,2.892,2.892,0,0,0,1.341.281,1.967,1.967,0,0,0,1.823-.974,5.155,5.155,0,0,0,.58-2.64Z" fill="#073360"/>
        <path id="Trazado_162048" data-name="Trazado 162048" d="M891.623,4342.644a2.02,2.02,0,0,0,1.465-.53,1.87,1.87,0,0,0,.551-1.415h3.105l.036.07a3.95,3.95,0,0,1-1.448,3.217,6.1,6.1,0,0,1-8.08-.5,6.832,6.832,0,0,1-1.535-4.6v-.352a6.879,6.879,0,0,1,1.529-4.6,5.408,5.408,0,0,1,4.366-1.8,5.323,5.323,0,0,1,3.779,1.336,4.439,4.439,0,0,1,1.389,3.516l-.024.07h-3.117a2.479,2.479,0,0,0-.539-1.635,1.828,1.828,0,0,0-1.488-.65,1.986,1.986,0,0,0-1.916,1.052,5.787,5.787,0,0,0-.557,2.715v.352a5.759,5.759,0,0,0,.557,2.732A2,2,0,0,0,891.623,4342.644Z" fill="#073360"/>
        <path id="Trazado_162049" data-name="Trazado 162049" d="M902.323,4329.32H898.9v-2.566h3.422Zm0,15.715H898.9v-12.68h3.422Z" fill="#073360"/>
        <path id="Trazado_162050" data-name="Trazado 162050" d="M904.608,4338.578a6.8,6.8,0,0,1,1.582-4.646,5.51,5.51,0,0,1,4.383-1.811,5.575,5.575,0,0,1,4.406,1.8,6.772,6.772,0,0,1,1.594,4.652v.246a6.78,6.78,0,0,1-1.588,4.658,6.267,6.267,0,0,1-8.789,0,6.776,6.776,0,0,1-1.588-4.658Zm3.41.24a5.51,5.51,0,0,0,.609,2.78,2.1,2.1,0,0,0,1.969,1.046,2.082,2.082,0,0,0,1.939-1.052,5.457,5.457,0,0,0,.616-2.774v-.246a5.415,5.415,0,0,0-.621-2.75,2.1,2.1,0,0,0-1.957-1.064,2.078,2.078,0,0,0-1.94,1.07,5.461,5.461,0,0,0-.615,2.744Zm3.164-11.408H914.8l.023.07-3.246,3.047h-2.73Z" fill="#073360"/>
        <path id="Trazado_162051" data-name="Trazado 162051" d="M921.811,4332.355l.152,1.817a4.633,4.633,0,0,1,1.559-1.512,4.044,4.044,0,0,1,2.074-.539,3.814,3.814,0,0,1,3,1.207,5.57,5.57,0,0,1,1.078,3.785v7.922H926.24v-7.929a2.574,2.574,0,0,0-.515-1.814,2.071,2.071,0,0,0-1.559-.534,2.619,2.619,0,0,0-1.218.276,2.5,2.5,0,0,0-.9.78v9.221h-3.422v-12.68Z" fill="#073360"/>
        <path id="Trazado_162052" data-name="Trazado 162052" d="M807.143,4362.8a8.233,8.233,0,0,1,1.295-4.84,4.2,4.2,0,0,1,3.65-1.84,3.556,3.556,0,0,1,1.711.41,4.124,4.124,0,0,1,1.336,1.172v-6.949h3.434v18.281h-2.942l-.281-1.547a4.2,4.2,0,0,1-1.412,1.336,3.754,3.754,0,0,1-1.869.457,4.285,4.285,0,0,1-3.627-1.711,7.3,7.3,0,0,1-1.295-4.523Zm3.41.248a5.218,5.218,0,0,0,.562,2.634,1.956,1.956,0,0,0,1.829.961,2.66,2.66,0,0,0,1.289-.3,2.4,2.4,0,0,0,.9-.878v-5.435a2.635,2.635,0,0,0-.9-.937,2.377,2.377,0,0,0-1.272-.336,1.93,1.93,0,0,0-1.834,1.12,6.359,6.359,0,0,0-.58,2.924Z" fill="#073360"/>
        <path id="Trazado_162053" data-name="Trazado 162053" d="M826.83,4369.281a5.706,5.706,0,0,1-4.382-1.758,6.285,6.285,0,0,1-1.641-4.465v-.468a6.933,6.933,0,0,1,1.553-4.653,5.789,5.789,0,0,1,8.15-.269,5.954,5.954,0,0,1,1.418,4.183v1.864h-7.57l-.024.07a3.29,3.29,0,0,0,.838,2.054,2.617,2.617,0,0,0,2.022.805,6.6,6.6,0,0,0,1.886-.228,8.654,8.654,0,0,0,1.641-.721l.926,2.114a6.3,6.3,0,0,1-2.028,1.054A8.79,8.79,0,0,1,826.83,4369.281Zm-.3-10.523a1.782,1.782,0,0,0-1.5.726,3.78,3.78,0,0,0-.68,1.91l.035.059h4.2v-.305a2.749,2.749,0,0,0-.509-1.74A1.837,1.837,0,0,0,826.526,4358.758Z" fill="#073360"/>
        <path id="Trazado_162054" data-name="Trazado 162054" d="M843.073,4356.355l.14,1.676a4.262,4.262,0,0,1,1.529-1.412,4.4,4.4,0,0,1,2.127-.5,3.872,3.872,0,0,1,2.086.539,3.323,3.323,0,0,1,1.313,1.629,4.39,4.39,0,0,1,1.523-1.594,4.135,4.135,0,0,1,2.2-.574,3.655,3.655,0,0,1,2.959,1.295,6.042,6.042,0,0,1,1.084,3.943v7.676h-3.422v-7.705a3.226,3.226,0,0,0-.468-2.009,1.714,1.714,0,0,0-1.395-.563,2.383,2.383,0,0,0-1.26.323,2.354,2.354,0,0,0-.849.9c0,.149,0,.277.012.382s.011.213.011.322v8.352h-3.41v-7.705a3.225,3.225,0,0,0-.469-1.991,1.7,1.7,0,0,0-1.406-.581,2.655,2.655,0,0,0-1.213.264,2.333,2.333,0,0,0-.861.745v9.268H839.9v-12.68Z" fill="#073360"/>
        <path id="Trazado_162055" data-name="Trazado 162055" d="M866.276,4369.281a5.71,5.71,0,0,1-4.383-1.758,6.285,6.285,0,0,1-1.641-4.465v-.468a6.939,6.939,0,0,1,1.553-4.653,5.789,5.789,0,0,1,8.15-.269,5.95,5.95,0,0,1,1.418,4.183v1.864H863.8l-.023.07a3.283,3.283,0,0,0,.837,2.054,2.618,2.618,0,0,0,2.022.805,6.6,6.6,0,0,0,1.887-.228,8.621,8.621,0,0,0,1.64-.721l.926,2.114a6.3,6.3,0,0,1-2.027,1.054A8.8,8.8,0,0,1,866.276,4369.281Zm-.3-10.523a1.782,1.782,0,0,0-1.5.726,3.789,3.789,0,0,0-.68,1.91l.035.059h4.2v-.305a2.744,2.744,0,0,0-.51-1.74A1.837,1.837,0,0,0,865.971,4358.758Z" fill="#073360"/>
        <path id="Trazado_162056" data-name="Trazado 162056" d="M876.494,4356.355l.153,1.817a4.63,4.63,0,0,1,1.558-1.512,4.05,4.05,0,0,1,2.075-.539,3.814,3.814,0,0,1,3,1.207,5.576,5.576,0,0,1,1.078,3.785v7.922h-3.434v-7.929a2.573,2.573,0,0,0-.516-1.814,2.068,2.068,0,0,0-1.558-.534,2.623,2.623,0,0,0-1.219.276,2.507,2.507,0,0,0-.9.78v9.221h-3.422v-12.68Z" fill="#073360"/>
        <path id="Trazado_162057" data-name="Trazado 162057" d="M893.768,4365.543a1.2,1.2,0,0,0-.545-.973,5.563,5.563,0,0,0-2.022-.726,8.145,8.145,0,0,1-3.392-1.354,2.939,2.939,0,0,1-1.143-2.443,3.491,3.491,0,0,1,1.377-2.783,5.589,5.589,0,0,1,3.686-1.143,6.049,6.049,0,0,1,3.861,1.137,3.358,3.358,0,0,1,1.377,2.871l-.023.07h-3.3a1.669,1.669,0,0,0-.486-1.242,2.331,2.331,0,0,0-2.731-.076,1.276,1.276,0,0,0-.474,1.013,1.153,1.153,0,0,0,.5.961,5.43,5.43,0,0,0,2.021.668,8.2,8.2,0,0,1,3.481,1.377,3.03,3.03,0,0,1,1.136,2.5,3.33,3.33,0,0,1-1.465,2.795,6.342,6.342,0,0,1-3.867,1.084,5.882,5.882,0,0,1-4-1.283,3.589,3.589,0,0,1-1.4-2.924l.023-.07H889.5a1.779,1.779,0,0,0,.668,1.476,2.756,2.756,0,0,0,1.653.457,2.378,2.378,0,0,0,1.447-.375A1.207,1.207,0,0,0,893.768,4365.543Z" fill="#073360"/>
        <path id="Trazado_162058" data-name="Trazado 162058" d="M906.729,4369.035a7.245,7.245,0,0,1-.323-.914,6.446,6.446,0,0,1-.193-.984,4.71,4.71,0,0,1-1.389,1.535,3.465,3.465,0,0,1-2.056.609,4.282,4.282,0,0,1-3.07-1.025,3.675,3.675,0,0,1-1.079-2.795,3.346,3.346,0,0,1,1.436-2.889,7.175,7.175,0,0,1,4.189-1.025h1.911v-1.008a1.975,1.975,0,0,0-.481-1.418,2.244,2.244,0,0,0-2.7-.1,1.426,1.426,0,0,0-.451,1.119l-3.3-.011-.012-.071a3.219,3.219,0,0,1,1.395-2.771,6.076,6.076,0,0,1,3.879-1.166,5.664,5.664,0,0,1,3.691,1.154,4,4,0,0,1,1.418,3.287v5.239a9.882,9.882,0,0,0,.135,1.675,8.372,8.372,0,0,0,.428,1.559Zm-3.129-2.285a2.942,2.942,0,0,0,1.605-.445,2.327,2.327,0,0,0,.95-1.032v-1.793h-1.911a2.286,2.286,0,0,0-1.652.545,1.77,1.77,0,0,0-.562,1.319,1.317,1.317,0,0,0,.421,1.019A1.634,1.634,0,0,0,903.6,4366.75Z" fill="#073360"/>
        <path id="Trazado_162059" data-name="Trazado 162059" d="M915.869,4356.355V4369.5a4.719,4.719,0,0,1-1.183,3.439,4.388,4.388,0,0,1-3.293,1.213,6.59,6.59,0,0,1-1.676-.2l.164-2.613a4.563,4.563,0,0,0,.539.1,4.364,4.364,0,0,0,.574.035,1.269,1.269,0,0,0,1.067-.486,2.438,2.438,0,0,0,.375-1.494v-13.149Zm-.07-3.058h-3.434v-2.543H915.8Z" fill="#073360"/>
        <path id="Trazado_162060" data-name="Trazado 162060" d="M924.155,4369.281a5.707,5.707,0,0,1-4.383-1.758,6.285,6.285,0,0,1-1.641-4.465v-.468a6.938,6.938,0,0,1,1.553-4.653,5.789,5.789,0,0,1,8.15-.269,5.949,5.949,0,0,1,1.418,4.183v1.864h-7.57l-.024.07a3.29,3.29,0,0,0,.838,2.054,2.617,2.617,0,0,0,2.022.805,6.6,6.6,0,0,0,1.887-.228,8.647,8.647,0,0,0,1.64-.721l.926,2.114a6.3,6.3,0,0,1-2.027,1.054A8.8,8.8,0,0,1,924.155,4369.281Zm-.305-10.523a1.782,1.782,0,0,0-1.5.726,3.789,3.789,0,0,0-.68,1.91l.035.059h4.2v-.305a2.743,2.743,0,0,0-.51-1.74A1.837,1.837,0,0,0,923.85,4358.758Z" fill="#073360"/>
        <path id="Trazado_162061" data-name="Trazado 162061" d="M938.1,4365.543a1.2,1.2,0,0,0-.545-.973,5.562,5.562,0,0,0-2.022-.726,8.146,8.146,0,0,1-3.392-1.354,2.939,2.939,0,0,1-1.143-2.443,3.491,3.491,0,0,1,1.377-2.783,5.589,5.589,0,0,1,3.686-1.143,6.049,6.049,0,0,1,3.861,1.137,3.357,3.357,0,0,1,1.377,2.871l-.023.07h-3.3a1.669,1.669,0,0,0-.486-1.242,2.331,2.331,0,0,0-2.731-.076,1.276,1.276,0,0,0-.474,1.013,1.153,1.153,0,0,0,.5.961,5.43,5.43,0,0,0,2.021.668,8.2,8.2,0,0,1,3.481,1.377,3.03,3.03,0,0,1,1.136,2.5,3.33,3.33,0,0,1-1.465,2.795,6.342,6.342,0,0,1-3.867,1.084,5.882,5.882,0,0,1-4-1.283,3.589,3.589,0,0,1-1.4-2.924l.023-.07h3.129a1.779,1.779,0,0,0,.668,1.476,2.756,2.756,0,0,0,1.653.457,2.378,2.378,0,0,0,1.447-.375A1.207,1.207,0,0,0,938.1,4365.543Z" fill="#073360"/>
      </g>
      <rect id="Rectángulo_20242" data-name="Rectángulo 20242" width="404" height="70.251" rx="11.478" transform="translate(460.202 4591.067)" fill="#a48f29"/>
      <rect id="Rectángulo_20243" data-name="Rectángulo 20243" width="395.826" height="63.875" rx="8.206" transform="translate(464.202 4594.255)" fill="#e9d886"/>
      <g id="Grupo_71221" data-name="Grupo 71221">
        <path id="Trazado_162062" data-name="Trazado 162062" d="M538.078,4624.822v9.378h-4.705v-23.461h8.846a9.729,9.729,0,0,1,6.276,1.829,6.188,6.188,0,0,1,2.265,5.1,5.164,5.164,0,0,1-.952,3.126,6.633,6.633,0,0,1-2.787,2.111,5.048,5.048,0,0,1,2.989,2.046,6.488,6.488,0,0,1,.911,3.545v1.724a8.526,8.526,0,0,0,.265,2.054,2.828,2.828,0,0,0,.91,1.588v.338h-4.849a2.651,2.651,0,0,1-.838-1.725,14.468,14.468,0,0,1-.193-2.287v-1.66a3.733,3.733,0,0,0-.959-2.731,3.617,3.617,0,0,0-2.7-.975Zm0-3.626h4.06a4.436,4.436,0,0,0,2.957-.838,3.086,3.086,0,0,0,.975-2.48,3.418,3.418,0,0,0-.975-2.563,3.964,3.964,0,0,0-2.876-.951h-4.141Z" fill="#073360"/>
        <path id="Trazado_162063" data-name="Trazado 162063" d="M562.522,4634.538a7.851,7.851,0,0,1-6.026-2.416,8.643,8.643,0,0,1-2.256-6.14v-.644a9.537,9.537,0,0,1,2.135-6.4,7.961,7.961,0,0,1,11.207-.37,8.183,8.183,0,0,1,1.949,5.753v2.562H559.122l-.032.1a4.522,4.522,0,0,0,1.152,2.826,3.6,3.6,0,0,0,2.779,1.107,9.079,9.079,0,0,0,2.6-.314,11.927,11.927,0,0,0,2.256-.991l1.272,2.907a8.64,8.64,0,0,1-2.787,1.449A12.073,12.073,0,0,1,562.522,4634.538Zm-.419-14.469a2.451,2.451,0,0,0-2.062,1,5.2,5.2,0,0,0-.935,2.627l.048.08h5.769v-.418a3.769,3.769,0,0,0-.7-2.393A2.523,2.523,0,0,0,562.1,4620.069Z" fill="#073360"/>
        <path id="Trazado_162064" data-name="Trazado 162064" d="M577.862,4612.5v4.27h2.933v3.3h-2.933v8.878a2.053,2.053,0,0,0,.419,1.45,1.493,1.493,0,0,0,1.128.436,4.3,4.3,0,0,0,.636-.041,5.425,5.425,0,0,0,.621-.137l.4,3.4a9.677,9.677,0,0,1-1.386.362,8.387,8.387,0,0,1-1.465.12,5.018,5.018,0,0,1-3.748-1.337,5.867,5.867,0,0,1-1.312-4.237v-8.9h-2.546v-3.3h2.546v-4.27Z" fill="#073360"/>
        <path id="Trazado_162065" data-name="Trazado 162065" d="M592.96,4620.809l-1.724-.047a3.152,3.152,0,0,0-1.725.434,2.772,2.772,0,0,0-1.031,1.225V4634.2h-4.688v-17.435h4.366l.21,2.579a5.488,5.488,0,0,1,1.587-2.135,3.534,3.534,0,0,1,2.248-.766,3.47,3.47,0,0,1,.652.057c.2.037.4.083.605.137Z" fill="#073360"/>
        <path id="Trazado_162066" data-name="Trazado 162066" d="M594.62,4625.321a9.357,9.357,0,0,1,2.175-6.389,7.583,7.583,0,0,1,6.026-2.489,7.663,7.663,0,0,1,6.059,2.482,9.306,9.306,0,0,1,2.191,6.4v.339a9.314,9.314,0,0,1-2.184,6.4,8.618,8.618,0,0,1-12.085,0,9.323,9.323,0,0,1-2.182-6.4Zm4.688.33a7.578,7.578,0,0,0,.838,3.823,2.9,2.9,0,0,0,2.707,1.439,2.864,2.864,0,0,0,2.667-1.448,7.515,7.515,0,0,0,.846-3.814v-.337a7.428,7.428,0,0,0-.854-3.781,2.89,2.89,0,0,0-2.691-1.464,2.855,2.855,0,0,0-2.667,1.472,7.513,7.513,0,0,0-.846,3.773Z" fill="#073360"/>
        <path id="Trazado_162067" data-name="Trazado 162067" d="M624.2,4634.2a9.748,9.748,0,0,1-.443-1.257,8.592,8.592,0,0,1-.266-1.353,6.486,6.486,0,0,1-1.91,2.11,4.767,4.767,0,0,1-2.827.838,5.891,5.891,0,0,1-4.222-1.409,5.053,5.053,0,0,1-1.483-3.843,4.6,4.6,0,0,1,1.974-3.973,9.866,9.866,0,0,1,5.761-1.41h2.626v-1.385a2.717,2.717,0,0,0-.66-1.95,3.087,3.087,0,0,0-3.715-.136,1.959,1.959,0,0,0-.62,1.538l-4.544-.016-.016-.1a4.427,4.427,0,0,1,1.917-3.81,8.354,8.354,0,0,1,5.334-1.6,7.79,7.79,0,0,1,5.075,1.587,5.5,5.5,0,0,1,1.951,4.52v7.2a13.683,13.683,0,0,0,.184,2.3,11.566,11.566,0,0,0,.589,2.143Zm-4.3-3.143a4.037,4.037,0,0,0,2.208-.611,3.185,3.185,0,0,0,1.3-1.418v-2.466h-2.626a3.146,3.146,0,0,0-2.273.749,2.434,2.434,0,0,0-.773,1.813,1.81,1.81,0,0,0,.58,1.4A2.245,2.245,0,0,0,619.9,4631.057Z" fill="#073360"/>
        <path id="Trazado_162068" data-name="Trazado 162068" d="M636.643,4634.2h-4.705v-25.137h4.705Z" fill="#073360"/>
        <path id="Trazado_162069" data-name="Trazado 162069" d="M645.457,4612.593h-4.7v-3.53h4.7Zm0,21.607h-4.7v-17.435h4.7Z" fill="#073360"/>
        <path id="Trazado_162070" data-name="Trazado 162070" d="M653.691,4616.765l.194,2.3a5.846,5.846,0,0,1,2.1-1.941,6.052,6.052,0,0,1,2.925-.685,5.326,5.326,0,0,1,2.868.741,4.574,4.574,0,0,1,1.8,2.241,6.037,6.037,0,0,1,2.094-2.192,5.693,5.693,0,0,1,3.03-.79,5.025,5.025,0,0,1,4.068,1.781q1.49,1.781,1.49,5.421V4634.2h-4.705v-10.6a4.428,4.428,0,0,0-.644-2.761,2.35,2.35,0,0,0-1.917-.775,3.28,3.28,0,0,0-1.733.444,3.225,3.225,0,0,0-1.168,1.235c0,.205.005.38.016.525s.017.294.017.445V4634.2h-4.69v-10.6a4.442,4.442,0,0,0-.644-2.737,2.34,2.34,0,0,0-1.934-.8,3.647,3.647,0,0,0-1.668.363,3.2,3.2,0,0,0-1.184,1.026V4634.2h-4.689v-17.435Z" fill="#073360"/>
        <path id="Trazado_162071" data-name="Trazado 162071" d="M685.595,4634.538a7.851,7.851,0,0,1-6.026-2.416,8.643,8.643,0,0,1-2.256-6.14v-.644a9.537,9.537,0,0,1,2.135-6.4,7.961,7.961,0,0,1,11.207-.37,8.183,8.183,0,0,1,1.949,5.753v2.562H682.2l-.032.1a4.528,4.528,0,0,0,1.152,2.826,3.6,3.6,0,0,0,2.779,1.107,9.074,9.074,0,0,0,2.6-.314,11.87,11.87,0,0,0,2.256-.991l1.273,2.907a8.646,8.646,0,0,1-2.788,1.449A12.068,12.068,0,0,1,685.595,4634.538Zm-.418-14.469a2.451,2.451,0,0,0-2.063,1,5.213,5.213,0,0,0-.935,2.627l.048.08H688v-.418a3.775,3.775,0,0,0-.7-2.393A2.526,2.526,0,0,0,685.177,4620.069Z" fill="#073360"/>
        <path id="Trazado_162072" data-name="Trazado 162072" d="M699.646,4616.765l.209,2.5a6.391,6.391,0,0,1,2.144-2.079,5.559,5.559,0,0,1,2.851-.741,5.249,5.249,0,0,1,4.125,1.659q1.484,1.662,1.483,5.205V4634.2h-4.721v-10.9a3.537,3.537,0,0,0-.709-2.495,2.846,2.846,0,0,0-2.143-.735,3.617,3.617,0,0,0-1.676.379,3.445,3.445,0,0,0-1.24,1.074V4634.2h-4.706v-17.435Z" fill="#073360"/>
        <path id="Trazado_162073" data-name="Trazado 162073" d="M719.562,4612.5v4.27h2.933v3.3h-2.933v8.878a2.053,2.053,0,0,0,.419,1.45,1.494,1.494,0,0,0,1.128.436,4.3,4.3,0,0,0,.636-.041,5.336,5.336,0,0,0,.621-.137l.4,3.4a9.663,9.663,0,0,1-1.385.362,8.406,8.406,0,0,1-1.466.12,5.017,5.017,0,0,1-3.747-1.337,5.867,5.867,0,0,1-1.313-4.237v-8.9h-2.546v-3.3h2.546v-4.27Z" fill="#073360"/>
        <path id="Trazado_162074" data-name="Trazado 162074" d="M735.723,4634.2a9.9,9.9,0,0,1-.442-1.257,8.706,8.706,0,0,1-.267-1.353,6.471,6.471,0,0,1-1.909,2.11,4.768,4.768,0,0,1-2.828.838,5.894,5.894,0,0,1-4.222-1.409,5.053,5.053,0,0,1-1.482-3.843,4.6,4.6,0,0,1,1.975-3.973,9.859,9.859,0,0,1,5.759-1.41h2.627v-1.385a2.713,2.713,0,0,0-.661-1.95,3.085,3.085,0,0,0-3.714-.136,1.956,1.956,0,0,0-.62,1.538l-4.544-.016-.016-.1a4.423,4.423,0,0,1,1.918-3.81,8.347,8.347,0,0,1,5.333-1.6,7.8,7.8,0,0,1,5.076,1.587,5.5,5.5,0,0,1,1.949,4.52v7.2a13.57,13.57,0,0,0,.186,2.3,11.558,11.558,0,0,0,.587,2.143Zm-4.3-3.143a4.037,4.037,0,0,0,2.207-.611,3.185,3.185,0,0,0,1.3-1.418v-2.466h-2.627a3.141,3.141,0,0,0-2.271.749,2.432,2.432,0,0,0-.774,1.813,1.81,1.81,0,0,0,.581,1.4A2.243,2.243,0,0,0,731.422,4631.057Z" fill="#073360"/>
        <path id="Trazado_162075" data-name="Trazado 162075" d="M750.532,4630.913a2.782,2.782,0,0,0,2.014-.729,2.575,2.575,0,0,0,.757-1.946h4.27l.049.1a5.428,5.428,0,0,1-1.99,4.423,8.394,8.394,0,0,1-11.111-.685,9.393,9.393,0,0,1-2.11-6.332v-.484a9.459,9.459,0,0,1,2.1-6.332,7.433,7.433,0,0,1,6-2.482,7.331,7.331,0,0,1,5.2,1.837,6.106,6.106,0,0,1,1.909,4.834l-.032.1H753.3a3.4,3.4,0,0,0-.741-2.248,2.515,2.515,0,0,0-2.047-.894,2.728,2.728,0,0,0-2.633,1.447,7.959,7.959,0,0,0-.766,3.734v.482a7.922,7.922,0,0,0,.766,3.757A2.752,2.752,0,0,0,750.532,4630.913Z" fill="#073360"/>
        <path id="Trazado_162076" data-name="Trazado 162076" d="M765.243,4612.593h-4.7v-3.53h4.7Zm0,21.607h-4.7v-17.435h4.7Z" fill="#073360"/>
        <path id="Trazado_162077" data-name="Trazado 162077" d="M768.386,4625.321a9.361,9.361,0,0,1,2.174-6.389,8.587,8.587,0,0,1,12.085-.007,9.306,9.306,0,0,1,2.192,6.4v.339a9.319,9.319,0,0,1-2.184,6.4,8.618,8.618,0,0,1-12.085,0,9.323,9.323,0,0,1-2.182-6.4Zm4.688.33a7.567,7.567,0,0,0,.838,3.823,2.894,2.894,0,0,0,2.707,1.439,2.865,2.865,0,0,0,2.667-1.448,7.525,7.525,0,0,0,.846-3.814v-.337a7.438,7.438,0,0,0-.854-3.781,2.891,2.891,0,0,0-2.691-1.464,2.854,2.854,0,0,0-2.667,1.472,7.5,7.5,0,0,0-.846,3.773Zm4.351-15.685H782.4l.032.1-4.464,4.19h-3.753Z" fill="#073360"/>
        <path id="Trazado_162078" data-name="Trazado 162078" d="M792.04,4616.765l.209,2.5a6.4,6.4,0,0,1,2.143-2.079,5.563,5.563,0,0,1,2.852-.741,5.249,5.249,0,0,1,4.125,1.659q1.482,1.662,1.482,5.205V4634.2h-4.72v-10.9a3.541,3.541,0,0,0-.709-2.495,2.848,2.848,0,0,0-2.144-.735,3.62,3.62,0,0,0-1.676.379,3.445,3.445,0,0,0-1.24,1.074V4634.2h-4.705v-17.435Z" fill="#073360"/>
      </g>
      <g id="Grupo_71222" data-name="Grupo 71222">
        <rect id="Rectángulo_20244" data-name="Rectángulo 20244" width="214.908" height="37.311" transform="translate(519.917 4311.941)" fill="#3d85cc" stroke="#073360" stroke-miterlimit="10" stroke-width="3"/>
        <path id="Trazado_162079" data-name="Trazado 162079" d="M720.127,4330.6l0-41.25,36.379,20.641L792.9,4330.6l-36.378,20.623-36.38,20.625Z" fill="#3d85cc" stroke="#073360" stroke-miterlimit="10" stroke-width="3"/>
      </g>
      <g id="Grupo_71223" data-name="Grupo 71223">
        <path id="Trazado_162080" data-name="Trazado 162080" d="M612.789,4320.825l4.348,12.574h.07l4.383-12.574h4.477v17.063h-3.422V4332.8l.328-7.536-.07-.011-4.571,12.633h-2.3l-4.546-12.586-.071.011.328,7.489v5.086h-3.422v-17.063Z" fill="#fff"/>
        <path id="Trazado_162081" data-name="Trazado 162081" d="M634.6,4338.134a5.71,5.71,0,0,1-4.383-1.758,6.284,6.284,0,0,1-1.641-4.465v-.469a6.936,6.936,0,0,1,1.553-4.652,5.792,5.792,0,0,1,8.151-.27,5.955,5.955,0,0,1,1.418,4.184v1.863h-7.571l-.023.071a3.282,3.282,0,0,0,.838,2.053,2.617,2.617,0,0,0,2.021.806,6.566,6.566,0,0,0,1.887-.229,8.645,8.645,0,0,0,1.641-.72l.925,2.114a6.307,6.307,0,0,1-2.027,1.054A8.8,8.8,0,0,1,634.6,4338.134Zm-.3-10.524a1.78,1.78,0,0,0-1.5.727,3.774,3.774,0,0,0-.679,1.91l.035.059h4.2V4330a2.74,2.74,0,0,0-.51-1.74A1.836,1.836,0,0,0,634.293,4327.61Z" fill="#fff"/>
        <path id="Trazado_162082" data-name="Trazado 162082" d="M641.16,4331.653a8.242,8.242,0,0,1,1.3-4.84,4.206,4.206,0,0,1,3.651-1.839,3.545,3.545,0,0,1,1.711.41,4.123,4.123,0,0,1,1.336,1.172v-6.95h3.433v18.282h-2.941l-.281-1.547a4.208,4.208,0,0,1-1.413,1.336,3.759,3.759,0,0,1-1.869.457,4.29,4.29,0,0,1-3.627-1.711,7.309,7.309,0,0,1-1.3-4.524Zm3.411.248a5.224,5.224,0,0,0,.562,2.635,1.955,1.955,0,0,0,1.828.961,2.652,2.652,0,0,0,1.289-.3,2.39,2.39,0,0,0,.9-.878v-5.434a2.654,2.654,0,0,0-.9-.938,2.384,2.384,0,0,0-1.271-.336,1.929,1.929,0,0,0-1.834,1.12,6.359,6.359,0,0,0-.58,2.924Z" fill="#fff"/>
        <path id="Trazado_162083" data-name="Trazado 162083" d="M658.832,4322.173H655.41v-2.567h3.422Zm0,15.715H655.41v-12.68h3.422Z" fill="#fff"/>
        <path id="Trazado_162084" data-name="Trazado 162084" d="M661.117,4331.431a6.808,6.808,0,0,1,1.582-4.647,5.515,5.515,0,0,1,4.383-1.81,5.577,5.577,0,0,1,4.407,1.8,6.772,6.772,0,0,1,1.593,4.653v.246a6.776,6.776,0,0,1-1.588,4.658,6.267,6.267,0,0,1-8.789,0,6.78,6.78,0,0,1-1.588-4.658Zm3.411.24a5.506,5.506,0,0,0,.609,2.779,2.1,2.1,0,0,0,1.969,1.047,2.083,2.083,0,0,0,1.939-1.053,5.466,5.466,0,0,0,.615-2.773v-.246a5.411,5.411,0,0,0-.621-2.75,2.1,2.1,0,0,0-1.957-1.065,2.076,2.076,0,0,0-1.939,1.071,5.455,5.455,0,0,0-.615,2.744Z" fill="#fff"/>
      </g>
      <path id="Trazado_162085" data-name="Trazado 162085" d="M326.942,4237.511h-43.1a13.387,13.387,0,0,0-13.387,13.4l.136,228.676" fill="none" stroke="#0a4d8f" stroke-miterlimit="10" stroke-width="4"/>
      <path id="Trazado_162086" data-name="Trazado 162086" d="M1000.413,4275.25h43.1a13.388,13.388,0,0,1,13.388,13.4l-.137,174.241" fill="none" stroke="#0a4d8f" stroke-miterlimit="10" stroke-width="4"/>
      <path id="Trazado_162087" data-name="Trazado 162087" d="M1054.222,4524.974v96.163a13.388,13.388,0,0,1-13.4,13.387l-174.241-.136" fill="none" stroke="#0a4d8f" stroke-miterlimit="10" stroke-width="4"/>
      <path id="Trazado_162088" data-name="Trazado 162088" d="M460.2,4626.192H287.537a13.387,13.387,0,0,1-13.387-13.4l.137-73.734" fill="none" stroke="#0a4d8f" stroke-miterlimit="10" stroke-width="4"/>
      <rect id="Rectángulo_20245" data-name="Rectángulo 20245" width="243.344" height="91.475" rx="13.659" transform="translate(281.815 4196.891)" fill="#073360"/>
      <rect id="Rectángulo_20246" data-name="Rectángulo 20246" width="232.861" height="83.013" rx="11.478" transform="translate(287.056 4201.123)" fill="#fff"/>
      <rect id="Rectángulo_20247" data-name="Rectángulo 20247" width="223.047" height="75.478" rx="8.206" transform="translate(291.963 4204.89)" fill="#0d66bf"/>
      <g id="Grupo_71224" data-name="Grupo 71224">
        <path id="Trazado_162089" data-name="Trazado 162089" d="M384.92,4249.9l.023.071a5.556,5.556,0,0,1-1.682,4.371,6.747,6.747,0,0,1-4.8,1.617,6.659,6.659,0,0,1-5-1.981,7.01,7.01,0,0,1-1.922-5.1v-3.387a7.142,7.142,0,0,1,1.875-5.1,6.389,6.389,0,0,1,4.875-1.992,7.071,7.071,0,0,1,4.945,1.623,5.553,5.553,0,0,1,1.735,4.424l-.024.07h-3.328a3.733,3.733,0,0,0-.809-2.584,3.232,3.232,0,0,0-2.519-.9,2.855,2.855,0,0,0-2.438,1.248,5.288,5.288,0,0,0-.9,3.178v3.406a5.14,5.14,0,0,0,.949,3.2,3.055,3.055,0,0,0,2.567,1.246,3.021,3.021,0,0,0,2.373-.861,3.746,3.746,0,0,0,.767-2.561Z" fill="#fff"/>
        <path id="Trazado_162090" data-name="Trazado 162090" d="M386.572,4249.255a6.8,6.8,0,0,1,1.582-4.647,5.515,5.515,0,0,1,4.383-1.81,5.572,5.572,0,0,1,4.406,1.8,6.768,6.768,0,0,1,1.594,4.653v.246a6.777,6.777,0,0,1-1.588,4.658,6.267,6.267,0,0,1-8.789,0,6.777,6.777,0,0,1-1.588-4.658Zm3.41.24a5.49,5.49,0,0,0,.61,2.779,2.343,2.343,0,0,0,3.908-.006,5.465,5.465,0,0,0,.615-2.773v-.246a5.414,5.414,0,0,0-.621-2.75,2.1,2.1,0,0,0-1.957-1.065,2.079,2.079,0,0,0-1.94,1.071,5.465,5.465,0,0,0-.615,2.744Z" fill="#fff"/>
        <path id="Trazado_162091" data-name="Trazado 162091" d="M400.119,4249.477a8.236,8.236,0,0,1,1.3-4.839,4.2,4.2,0,0,1,3.65-1.84,3.545,3.545,0,0,1,1.711.41,4.111,4.111,0,0,1,1.336,1.172v-6.949h3.434v18.281H408.6l-.281-1.547a4.2,4.2,0,0,1-1.412,1.336,3.749,3.749,0,0,1-1.869.457,4.285,4.285,0,0,1-3.627-1.711,7.307,7.307,0,0,1-1.3-4.523Zm3.41.248a5.214,5.214,0,0,0,.563,2.635,1.954,1.954,0,0,0,1.828.961,2.63,2.63,0,0,0,1.289-.3,2.378,2.378,0,0,0,.9-.877v-5.435a2.651,2.651,0,0,0-.9-.938,2.394,2.394,0,0,0-1.272-.336,1.928,1.928,0,0,0-1.834,1.122,6.349,6.349,0,0,0-.58,2.923Z" fill="#fff"/>
        <path id="Trazado_162092" data-name="Trazado 162092" d="M417.791,4240h-3.422v-2.566h3.422Zm0,15.715h-3.422v-12.68h3.422Z" fill="#fff"/>
        <path id="Trazado_162093" data-name="Trazado 162093" d="M421.494,4255.712v-10.278h-1.887v-2.4h1.887v-1.406a4.288,4.288,0,0,1,1.23-3.287,4.858,4.858,0,0,1,3.457-1.155,6.26,6.26,0,0,1,.885.065q.451.064.99.182l-.293,2.543c-.187-.032-.369-.059-.544-.083a4.811,4.811,0,0,0-.616-.035,1.644,1.644,0,0,0-1.259.457,1.849,1.849,0,0,0-.428,1.313v1.406h2.519v2.4h-2.519v10.278Z" fill="#fff"/>
        <path id="Trazado_162094" data-name="Trazado 162094" d="M432.779,4240h-3.422v-2.566h3.422Zm0,15.715h-3.422v-12.68h3.422Z" fill="#fff"/>
        <path id="Trazado_162095" data-name="Trazado 162095" d="M440.912,4253.321a2.025,2.025,0,0,0,1.465-.529,1.877,1.877,0,0,0,.55-1.416h3.106l.035.07a3.951,3.951,0,0,1-1.447,3.217,6.1,6.1,0,0,1-8.08-.5,6.829,6.829,0,0,1-1.535-4.606v-.351a6.877,6.877,0,0,1,1.529-4.606,5.4,5.4,0,0,1,4.365-1.8,5.324,5.324,0,0,1,3.779,1.336,4.437,4.437,0,0,1,1.389,3.515l-.023.071h-3.118a2.471,2.471,0,0,0-.539-1.635,1.826,1.826,0,0,0-1.488-.651,1.988,1.988,0,0,0-1.916,1.053,5.8,5.8,0,0,0-.557,2.715v.352a5.771,5.771,0,0,0,.557,2.732A2,2,0,0,0,440.912,4253.321Z" fill="#fff"/>
        <path id="Trazado_162096" data-name="Trazado 162096" d="M455.455,4255.712a7.066,7.066,0,0,1-.322-.914,6.352,6.352,0,0,1-.194-.985,4.713,4.713,0,0,1-1.388,1.536,3.474,3.474,0,0,1-2.057.609,4.278,4.278,0,0,1-3.07-1.026,3.672,3.672,0,0,1-1.079-2.794,3.343,3.343,0,0,1,1.436-2.889,7.166,7.166,0,0,1,4.189-1.025h1.911v-1.008a1.974,1.974,0,0,0-.481-1.418,2.243,2.243,0,0,0-2.7-.1,1.425,1.425,0,0,0-.451,1.119l-3.3-.011-.012-.071a3.222,3.222,0,0,1,1.395-2.771,6.073,6.073,0,0,1,3.879-1.166,5.659,5.659,0,0,1,3.691,1.154,3.994,3.994,0,0,1,1.418,3.287v5.238a9.887,9.887,0,0,0,.135,1.676,8.372,8.372,0,0,0,.428,1.559Zm-3.129-2.285a2.935,2.935,0,0,0,1.605-.446,2.318,2.318,0,0,0,.95-1.031v-1.793H452.97a2.284,2.284,0,0,0-1.652.545,1.766,1.766,0,0,0-.562,1.318,1.319,1.319,0,0,0,.421,1.02A1.638,1.638,0,0,0,452.326,4253.427Z" fill="#fff"/>
        <path id="Trazado_162097" data-name="Trazado 162097" d="M466.224,4253.321a2.023,2.023,0,0,0,1.465-.529,1.877,1.877,0,0,0,.551-1.416h3.105l.036.07a3.952,3.952,0,0,1-1.448,3.217,6.1,6.1,0,0,1-8.08-.5,6.834,6.834,0,0,1-1.535-4.606v-.351a6.882,6.882,0,0,1,1.529-4.606,5.407,5.407,0,0,1,4.366-1.8,5.325,5.325,0,0,1,3.779,1.336,4.437,4.437,0,0,1,1.389,3.515l-.024.071H468.24a2.476,2.476,0,0,0-.539-1.635,1.827,1.827,0,0,0-1.488-.651,1.987,1.987,0,0,0-1.916,1.053,5.8,5.8,0,0,0-.557,2.715v.352a5.771,5.771,0,0,0,.557,2.732A2,2,0,0,0,466.224,4253.321Z" fill="#fff"/>
        <path id="Trazado_162098" data-name="Trazado 162098" d="M476.924,4240H473.5v-2.566h3.422Zm0,15.715H473.5v-12.68h3.422Z" fill="#fff"/>
        <path id="Trazado_162099" data-name="Trazado 162099" d="M479.209,4249.255a6.8,6.8,0,0,1,1.582-4.647,5.513,5.513,0,0,1,4.383-1.81,5.573,5.573,0,0,1,4.406,1.8,6.773,6.773,0,0,1,1.594,4.653v.246a6.781,6.781,0,0,1-1.588,4.658,6.267,6.267,0,0,1-8.789,0,6.777,6.777,0,0,1-1.588-4.658Zm3.41.24a5.5,5.5,0,0,0,.609,2.779,2.1,2.1,0,0,0,1.969,1.047,2.079,2.079,0,0,0,1.939-1.053,5.454,5.454,0,0,0,.616-2.773v-.246a5.414,5.414,0,0,0-.621-2.75,2.1,2.1,0,0,0-1.957-1.065,2.078,2.078,0,0,0-1.94,1.071,5.465,5.465,0,0,0-.615,2.744Zm3.164-11.408H489.4l.023.07-3.246,3.047h-2.73Z" fill="#fff"/>
        <path id="Trazado_162100" data-name="Trazado 162100" d="M496.412,4243.032l.152,1.817a4.634,4.634,0,0,1,1.559-1.512,4.039,4.039,0,0,1,2.074-.539,3.816,3.816,0,0,1,3,1.207,5.57,5.57,0,0,1,1.078,3.785v7.922h-3.433v-7.928a2.57,2.57,0,0,0-.516-1.814,2.065,2.065,0,0,0-1.559-.536,2.607,2.607,0,0,0-1.218.278,2.491,2.491,0,0,0-.9.779v9.221h-3.422v-12.68Z" fill="#fff"/>
      </g>
      <g id="Grupo_71227" data-name="Grupo 71227">
        <g id="Grupo_71226" data-name="Grupo 71226">
          <g id="Grupo_71225" data-name="Grupo 71225">
            <path id="Trazado_162101" data-name="Trazado 162101" d="M318.236,4220.193a10.748,10.748,0,0,0-5.447,1.48.973.973,0,0,0,.987,1.677,8.8,8.8,0,1,1-3,2.917.973.973,0,1,0-1.647-1.035,10.753,10.753,0,1,0,9.11-5.039Zm36.563,7.868a4.6,4.6,0,1,0-6.5,0A4.6,4.6,0,0,0,354.8,4228.061Zm-5.124-5.125a2.651,2.651,0,1,1,0,3.749A2.65,2.65,0,0,1,349.675,4222.936Zm-7.927-.661v5.07a14.627,14.627,0,0,0-.724,1.885,2.873,2.873,0,0,0,.693,2.974l2.439,2.439a2.874,2.874,0,0,0,2.973.693,14.374,14.374,0,0,0,1.885-.725h5.07a14.431,14.431,0,0,0,1.885.725,2.874,2.874,0,0,0,2.973-.693l2.44-2.44a2.873,2.873,0,0,0,.692-2.973,14.529,14.529,0,0,0-.724-1.885v-5.07a14.469,14.469,0,0,0,.724-1.884,2.874,2.874,0,0,0-.692-2.974l-2.44-2.439a2.873,2.873,0,0,0-2.973-.693,14.45,14.45,0,0,0-1.885.725h-5.07a14.393,14.393,0,0,0-1.885-.725,2.873,2.873,0,0,0-2.973.693l-2.439,2.439a2.872,2.872,0,0,0-.693,2.974,14.626,14.626,0,0,0,.724,1.884Zm1.706-.939a15.7,15.7,0,0,1-.587-1.57.94.94,0,0,1,.226-.973l2.439-2.439a.941.941,0,0,1,.973-.226,15.709,15.709,0,0,1,1.57.587.967.967,0,0,0,.64.241h5.668a.972.972,0,0,0,.641-.241,15.709,15.709,0,0,1,1.57-.587.939.939,0,0,1,.972.226l2.44,2.439a.94.94,0,0,1,.226.973,16.005,16.005,0,0,1-.587,1.57.971.971,0,0,0-.241.641v5.667a.97.97,0,0,0,.241.641,16.005,16.005,0,0,1,.587,1.57.941.941,0,0,1-.226.973l-2.439,2.439a.941.941,0,0,1-.973.226,15.774,15.774,0,0,1-1.57-.587.978.978,0,0,0-.641-.24h-5.667a.976.976,0,0,0-.641.24,15.774,15.774,0,0,1-1.57.587.941.941,0,0,1-.973-.226l-2.439-2.439a.94.94,0,0,1-.226-.973,15.815,15.815,0,0,1,.587-1.57.974.974,0,0,0,.24-.64v-5.668a.975.975,0,0,0-.24-.641Zm2.1,26.475a10.578,10.578,0,1,0,10.578,10.578A10.59,10.59,0,0,0,345.552,4247.811Zm0,19.21a8.632,8.632,0,1,1,8.632-8.632A8.642,8.642,0,0,1,345.552,4267.021Zm18.775-12.215a3.018,3.018,0,0,0,.34-3.261l-2.342-4.6a3.019,3.019,0,0,0-2.839-1.641,29.722,29.722,0,0,0-3.6.311l-6.069-3.093a29.694,29.694,0,0,0-1.867-3.1,3.016,3.016,0,0,0-3-1.332l-5.1.807a3.017,3.017,0,0,0-2.438,2.193,29.89,29.89,0,0,0-.818,3.523l-4.817,4.817a29.778,29.778,0,0,0-3.523.817,3.016,3.016,0,0,0-2.192,2.439l-.808,5.1a3.018,3.018,0,0,0,1.332,3,30.154,30.154,0,0,0,3.1,1.867l3.093,6.069a29.991,29.991,0,0,0-.311,3.6,3.017,3.017,0,0,0,1.641,2.838l4.6,2.342a3.019,3.019,0,0,0,3.262-.34,29.821,29.821,0,0,0,2.732-2.37l6.728-1.066a30.044,30.044,0,0,0,3.331,1.41,3.018,3.018,0,0,0,3.207-.684l1.583-1.583a.973.973,0,0,0-1.376-1.376l-1.583,1.583a1.066,1.066,0,0,1-1.135.242,29.394,29.394,0,0,1-3.1-1.3.973.973,0,0,0-.842-.274l-7.51,1.189a.973.973,0,0,0-.716.522,29.656,29.656,0,0,1-2.544,2.194,1.066,1.066,0,0,1-1.155.121l-4.6-2.342a1.071,1.071,0,0,1-.582-1.005,30,30,0,0,1,.28-3.349.972.972,0,0,0,0-.886l-3.452-6.774a.973.973,0,0,0-.717-.52,29.779,29.779,0,0,1-2.873-1.741,1.068,1.068,0,0,1-.472-1.062l.807-5.1a1.069,1.069,0,0,1,.777-.863,30.11,30.11,0,0,1,3.271-.769.973.973,0,0,0,.843-.272l5.375-5.376a.971.971,0,0,0,.273-.843,29.914,29.914,0,0,1,.769-3.271,1.068,1.068,0,0,1,.863-.777l5.1-.807a1.068,1.068,0,0,1,1.061.472,29.8,29.8,0,0,1,1.742,2.873.971.971,0,0,0,.52.717l6.774,3.452a.974.974,0,0,0,.886,0,29.55,29.55,0,0,1,3.348-.28,1.067,1.067,0,0,1,1.005.581l2.343,4.6a1.068,1.068,0,0,1-.121,1.155,29.842,29.842,0,0,1-2.194,2.545.972.972,0,0,0-.522.716l-1.189,7.509a.974.974,0,0,0,.274.842,29.641,29.641,0,0,1,1.3,3.1,1.065,1.065,0,0,1,.069.314.973.973,0,1,0,1.942-.122,3.007,3.007,0,0,0-.193-.887,29.984,29.984,0,0,0-1.41-3.332l1.066-6.727a30.179,30.179,0,0,0,2.37-2.733Zm-22.6-.244h0a5.413,5.413,0,1,0,7.655,0A5.409,5.409,0,0,0,341.725,4254.562Zm6.279,6.279a3.467,3.467,0,1,1-4.9-4.9h0a3.467,3.467,0,0,1,4.9,4.9Zm-17.112-14.766,2.474-2.474a3,3,0,0,0,.632-3.334c-.646-1.484-1.029-2.291-1.288-2.748l1.348-5.031c.453-.266,1.188-.773,2.489-1.735a3,3,0,0,0,1.12-3.2l-.906-3.379a3,3,0,0,0-2.571-2.215c-1.608-.183-2.5-.255-3.023-.259l-3.683-3.682c0-.525-.076-1.415-.259-3.024a3,3,0,0,0-2.215-2.571l-3.379-.906a3,3,0,0,0-3.2,1.12c-.963,1.3-1.47,2.036-1.736,2.489l-5.031,1.348c-.456-.259-1.263-.642-2.748-1.287a3,3,0,0,0-3.334.632l-2.474,2.473a3,3,0,0,0-.632,3.334c.646,1.485,1.029,2.292,1.288,2.748l-1.348,5.031c-.453.266-1.188.774-2.489,1.736a3,3,0,0,0-1.12,3.2l.906,3.379a3,3,0,0,0,2.571,2.214c1.608.183,2.5.255,3.024.259l3.682,3.683c0,.525.076,1.415.259,3.023a3,3,0,0,0,2.215,2.572l3.379.9a3,3,0,0,0,3.2-1.119c.963-1.3,1.47-2.037,1.736-2.489l5.031-1.348c.457.259,1.264.641,2.748,1.287a3,3,0,0,0,3.334-.632Zm-6.15-2.652-5.9,1.581a.972.972,0,0,0-.688.688,26.608,26.608,0,0,1-1.674,2.407,1.061,1.061,0,0,1-1.135.4l-3.379-.905a1.061,1.061,0,0,1-.785-.912,26.38,26.38,0,0,1-.246-2.921.971.971,0,0,0-.252-.939l-4.32-4.321a.974.974,0,0,0-.939-.252A25.838,25.838,0,0,1,302.5,4238a1.064,1.064,0,0,1-.912-.785l-.9-3.379a1.061,1.061,0,0,1,.4-1.135,26.072,26.072,0,0,1,2.408-1.674.972.972,0,0,0,.687-.688l1.581-5.9a.974.974,0,0,0-.251-.94,25.973,25.973,0,0,1-1.248-2.652,1.062,1.062,0,0,1,.224-1.182l2.473-2.474a1.065,1.065,0,0,1,1.182-.224,26.46,26.46,0,0,1,2.653,1.248.973.973,0,0,0,.94.252l5.9-1.582a.974.974,0,0,0,.688-.687,26.137,26.137,0,0,1,1.673-2.407,1.062,1.062,0,0,1,1.135-.4l3.38.906a1.063,1.063,0,0,1,.784.912,26.359,26.359,0,0,1,.246,2.921.973.973,0,0,0,.252.939l4.32,4.32a.972.972,0,0,0,.939.252,26.381,26.381,0,0,1,2.922.246,1.064,1.064,0,0,1,.912.785l.9,3.379a1.064,1.064,0,0,1-.4,1.135,26.252,26.252,0,0,1-2.408,1.674.974.974,0,0,0-.687.688l-1.581,5.9a.973.973,0,0,0,.251.939,26.415,26.415,0,0,1,1.248,2.654,1.061,1.061,0,0,1-.224,1.181l-2.473,2.474a1.064,1.064,0,0,1-1.182.224,26.317,26.317,0,0,1-2.653-1.248A.972.972,0,0,0,324.742,4243.423Zm-2.508-8.48a5.654,5.654,0,1,0-8,0A5.661,5.661,0,0,0,322.234,4234.943Zm-6.621-6.62a3.708,3.708,0,1,1,0,5.244A3.705,3.705,0,0,1,315.613,4228.323Z" fill="#fff"/>
          </g>
        </g>
      </g>
      <rect id="Rectángulo_20248" data-name="Rectángulo 20248" width="163.986" height="61.177" rx="9.072" transform="translate(192.157 4475.276)" fill="#3d85cc" stroke="#073360" stroke-miterlimit="10" stroke-width="3"/>
      <rect id="Rectángulo_20249" data-name="Rectángulo 20249" width="163.986" height="61.177" rx="9.072" transform="translate(960.403 4475.276)" fill="#3d85cc" stroke="#073360" stroke-miterlimit="10" stroke-width="3"/>
      <rect id="Rectángulo_20250" data-name="Rectángulo 20250" width="280.909" height="91.475" rx="13.659" transform="translate(795.119 4191.773)" fill="#073360"/>
      <rect id="Rectángulo_20251" data-name="Rectángulo 20251" width="268.808" height="83.013" rx="11.478" transform="translate(801.17 4196.004)" fill="#fff"/>
      <rect id="Rectángulo_20252" data-name="Rectángulo 20252" width="257.479" height="75.478" rx="8.206" transform="translate(806.834 4199.771)" fill="#0d66bf"/>
      <g id="Grupo_71228" data-name="Grupo 71228">
        <path id="Trazado_162102" data-name="Trazado 162102" d="M883.967,4250.593V4233.53h5.859a7.042,7.042,0,0,1,5.157,2,6.889,6.889,0,0,1,2.027,5.127v2.824a6.864,6.864,0,0,1-2.027,5.127,7.061,7.061,0,0,1-5.157,1.987Zm3.422-14.426v11.789h2.262a3.562,3.562,0,0,0,2.882-1.241,4.865,4.865,0,0,0,1.043-3.243v-2.844a4.829,4.829,0,0,0-1.043-3.22,3.562,3.562,0,0,0-2.882-1.241Z" fill="#fff"/>
        <path id="Trazado_162103" data-name="Trazado 162103" d="M905.026,4250.839a5.71,5.71,0,0,1-4.383-1.758,6.285,6.285,0,0,1-1.641-4.465v-.469a6.938,6.938,0,0,1,1.553-4.652,5.79,5.79,0,0,1,8.15-.27,5.951,5.951,0,0,1,1.418,4.184v1.863h-7.57l-.023.071a3.282,3.282,0,0,0,.837,2.053,2.619,2.619,0,0,0,2.022.806,6.6,6.6,0,0,0,1.887-.228,8.715,8.715,0,0,0,1.64-.721l.926,2.114a6.317,6.317,0,0,1-2.027,1.054A8.8,8.8,0,0,1,905.026,4250.839Zm-.3-10.524a1.78,1.78,0,0,0-1.5.727,3.784,3.784,0,0,0-.68,1.91l.035.059h4.2v-.305a2.742,2.742,0,0,0-.51-1.74A1.838,1.838,0,0,0,904.721,4240.315Z" fill="#fff"/>
        <path id="Trazado_162104" data-name="Trazado 162104" d="M918.971,4247.1a1.2,1.2,0,0,0-.545-.972,5.541,5.541,0,0,0-2.021-.727,8.138,8.138,0,0,1-3.393-1.353,2.938,2.938,0,0,1-1.143-2.444,3.5,3.5,0,0,1,1.377-2.783,5.591,5.591,0,0,1,3.686-1.142,6.049,6.049,0,0,1,3.861,1.136,3.358,3.358,0,0,1,1.377,2.871l-.023.071h-3.3a1.669,1.669,0,0,0-.486-1.242,2.334,2.334,0,0,0-2.731-.077,1.279,1.279,0,0,0-.474,1.014,1.153,1.153,0,0,0,.5.961,5.438,5.438,0,0,0,2.021.668,8.178,8.178,0,0,1,3.481,1.377,3.027,3.027,0,0,1,1.136,2.5,3.333,3.333,0,0,1-1.464,2.795,6.353,6.353,0,0,1-3.868,1.084,5.882,5.882,0,0,1-4-1.283,3.59,3.59,0,0,1-1.4-2.924l.023-.071h3.129a1.781,1.781,0,0,0,.668,1.477,2.759,2.759,0,0,0,1.653.457,2.378,2.378,0,0,0,1.447-.375A1.209,1.209,0,0,0,918.971,4247.1Z" fill="#fff"/>
        <path id="Trazado_162105" data-name="Trazado 162105" d="M929.811,4248.2a2.027,2.027,0,0,0,1.465-.53,1.872,1.872,0,0,0,.55-1.415h3.106l.035.07a3.95,3.95,0,0,1-1.447,3.217,6.1,6.1,0,0,1-8.08-.5,6.831,6.831,0,0,1-1.535-4.606v-.351a6.876,6.876,0,0,1,1.529-4.606,5.4,5.4,0,0,1,4.365-1.8,5.322,5.322,0,0,1,3.779,1.336,4.436,4.436,0,0,1,1.389,3.515l-.023.07h-3.118a2.47,2.47,0,0,0-.539-1.634,1.827,1.827,0,0,0-1.488-.651,1.987,1.987,0,0,0-1.916,1.053,5.793,5.793,0,0,0-.557,2.715v.351a5.778,5.778,0,0,0,.557,2.733A2,2,0,0,0,929.811,4248.2Z" fill="#fff"/>
        <path id="Trazado_162106" data-name="Trazado 162106" d="M936.385,4244.136a6.8,6.8,0,0,1,1.582-4.647,6.248,6.248,0,0,1,8.789-.006,6.767,6.767,0,0,1,1.594,4.653v.246a6.777,6.777,0,0,1-1.588,4.658,6.267,6.267,0,0,1-8.789,0,6.777,6.777,0,0,1-1.588-4.658Zm3.41.24a5.492,5.492,0,0,0,.61,2.779,2.343,2.343,0,0,0,3.908-.006,5.467,5.467,0,0,0,.615-2.773v-.246a5.411,5.411,0,0,0-.621-2.75,2.1,2.1,0,0,0-1.957-1.065,2.079,2.079,0,0,0-1.94,1.071,5.458,5.458,0,0,0-.615,2.744Z" fill="#fff"/>
        <path id="Trazado_162107" data-name="Trazado 162107" d="M949.932,4244.358a8.243,8.243,0,0,1,1.295-4.84,4.2,4.2,0,0,1,3.65-1.839,3.545,3.545,0,0,1,1.711.41,4.107,4.107,0,0,1,1.336,1.172v-6.95h3.434v18.282h-2.942l-.281-1.547a4.2,4.2,0,0,1-1.412,1.336,3.759,3.759,0,0,1-1.869.457,4.288,4.288,0,0,1-3.627-1.711,7.31,7.31,0,0,1-1.295-4.524Zm3.41.248a5.221,5.221,0,0,0,.563,2.635,1.955,1.955,0,0,0,1.828.961,2.652,2.652,0,0,0,1.289-.3,2.381,2.381,0,0,0,.9-.878v-5.434a2.644,2.644,0,0,0-.9-.938,2.39,2.39,0,0,0-1.272-.336,1.93,1.93,0,0,0-1.834,1.12,6.357,6.357,0,0,0-.58,2.924Z" fill="#fff"/>
        <path id="Trazado_162108" data-name="Trazado 162108" d="M967.6,4234.878h-3.422v-2.567H967.6Zm0,15.715h-3.422v-12.68H967.6Z" fill="#fff"/>
        <path id="Trazado_162109" data-name="Trazado 162109" d="M971.307,4250.593v-10.278H969.42v-2.4h1.887v-1.406a4.286,4.286,0,0,1,1.23-3.287,4.858,4.858,0,0,1,3.457-1.155,6.26,6.26,0,0,1,.885.065q.451.064.99.181l-.293,2.543q-.281-.046-.545-.082a4.783,4.783,0,0,0-.615-.035,1.65,1.65,0,0,0-1.26.457,1.852,1.852,0,0,0-.427,1.313v1.406h2.519v2.4h-2.519v10.278Z" fill="#fff"/>
        <path id="Trazado_162110" data-name="Trazado 162110" d="M982.592,4234.878H979.17v-2.567h3.422Zm0,15.715H979.17v-12.68h3.422Z" fill="#fff"/>
        <path id="Trazado_162111" data-name="Trazado 162111" d="M990.725,4248.2a2.026,2.026,0,0,0,1.465-.53,1.872,1.872,0,0,0,.55-1.415h3.106l.035.07a3.95,3.95,0,0,1-1.447,3.217,6.1,6.1,0,0,1-8.08-.5,6.831,6.831,0,0,1-1.535-4.606v-.351a6.876,6.876,0,0,1,1.529-4.606,5.4,5.4,0,0,1,4.365-1.8,5.322,5.322,0,0,1,3.779,1.336,4.436,4.436,0,0,1,1.389,3.515l-.023.07H992.74a2.47,2.47,0,0,0-.539-1.634,1.827,1.827,0,0,0-1.488-.651,1.987,1.987,0,0,0-1.916,1.053,5.793,5.793,0,0,0-.557,2.715v.351a5.778,5.778,0,0,0,.557,2.733A2,2,0,0,0,990.725,4248.2Z" fill="#fff"/>
        <path id="Trazado_162112" data-name="Trazado 162112" d="M1005.268,4250.593a7.059,7.059,0,0,1-.322-.914,6.373,6.373,0,0,1-.194-.985,4.705,4.705,0,0,1-1.388,1.535,3.465,3.465,0,0,1-2.057.61,4.278,4.278,0,0,1-3.07-1.026,3.672,3.672,0,0,1-1.079-2.795,3.343,3.343,0,0,1,1.436-2.888,7.166,7.166,0,0,1,4.189-1.026h1.911V4242.1a1.973,1.973,0,0,0-.481-1.418,2.242,2.242,0,0,0-2.7-.1,1.426,1.426,0,0,0-.451,1.119l-3.3-.012-.012-.07a3.221,3.221,0,0,1,1.395-2.771,6.071,6.071,0,0,1,3.879-1.166,5.658,5.658,0,0,1,3.691,1.154,3.994,3.994,0,0,1,1.418,3.287v5.238a9.885,9.885,0,0,0,.135,1.676,8.378,8.378,0,0,0,.428,1.559Zm-3.129-2.286a2.93,2.93,0,0,0,1.605-.445,2.315,2.315,0,0,0,.95-1.031v-1.793h-1.911a2.286,2.286,0,0,0-1.652.545,1.767,1.767,0,0,0-.562,1.318,1.318,1.318,0,0,0,.421,1.02A1.635,1.635,0,0,0,1002.139,4248.307Z" fill="#fff"/>
        <path id="Trazado_162113" data-name="Trazado 162113" d="M1016.037,4248.2a2.024,2.024,0,0,0,1.465-.53,1.873,1.873,0,0,0,.551-1.415h3.105l.036.07a3.951,3.951,0,0,1-1.448,3.217,6.1,6.1,0,0,1-8.08-.5,6.836,6.836,0,0,1-1.535-4.606v-.351a6.881,6.881,0,0,1,1.529-4.606,5.406,5.406,0,0,1,4.366-1.8,5.323,5.323,0,0,1,3.779,1.336,4.436,4.436,0,0,1,1.389,3.515l-.024.07h-3.117a2.476,2.476,0,0,0-.539-1.634,1.828,1.828,0,0,0-1.488-.651,1.987,1.987,0,0,0-1.916,1.053,5.793,5.793,0,0,0-.557,2.715v.351a5.778,5.778,0,0,0,.557,2.733A2,2,0,0,0,1016.037,4248.2Z" fill="#fff"/>
        <path id="Trazado_162114" data-name="Trazado 162114" d="M1026.737,4234.878h-3.422v-2.567h3.422Zm0,15.715h-3.422v-12.68h3.422Z" fill="#fff"/>
        <path id="Trazado_162115" data-name="Trazado 162115" d="M1029.022,4244.136a6.8,6.8,0,0,1,1.582-4.647,5.514,5.514,0,0,1,4.383-1.81,5.572,5.572,0,0,1,4.406,1.8,6.772,6.772,0,0,1,1.594,4.653v.246a6.782,6.782,0,0,1-1.588,4.658,6.267,6.267,0,0,1-8.789,0,6.777,6.777,0,0,1-1.588-4.658Zm3.41.24a5.5,5.5,0,0,0,.609,2.779,2.106,2.106,0,0,0,1.969,1.047,2.083,2.083,0,0,0,1.939-1.053,5.457,5.457,0,0,0,.616-2.773v-.246a5.411,5.411,0,0,0-.621-2.75,2.1,2.1,0,0,0-1.957-1.065,2.078,2.078,0,0,0-1.94,1.071,5.458,5.458,0,0,0-.615,2.744Zm3.164-11.408h3.621l.023.07-3.246,3.047h-2.73Z" fill="#fff"/>
        <path id="Trazado_162116" data-name="Trazado 162116" d="M1046.225,4237.913l.152,1.816a4.644,4.644,0,0,1,1.559-1.511,4.038,4.038,0,0,1,2.074-.539,3.814,3.814,0,0,1,3,1.207,5.569,5.569,0,0,1,1.078,3.785v7.922h-3.433v-7.929a2.576,2.576,0,0,0-.516-1.815,2.075,2.075,0,0,0-1.559-.534,2.624,2.624,0,0,0-1.218.277,2.5,2.5,0,0,0-.9.78v9.221h-3.422v-12.68Z" fill="#fff"/>
      </g>
      <g id="Grupo_71231" data-name="Grupo 71231">
        <g id="Grupo_71230" data-name="Grupo 71230">
          <g id="Grupo_71229" data-name="Grupo 71229">
            <path id="Trazado_162117" data-name="Trazado 162117" d="M829.351,4213.878a10.738,10.738,0,0,0-5.447,1.48.973.973,0,0,0,.987,1.677,8.8,8.8,0,1,1-3,2.917.973.973,0,1,0-1.647-1.036,10.753,10.753,0,1,0,9.11-5.038Zm36.563,7.867a4.6,4.6,0,1,0-6.5,0A4.6,4.6,0,0,0,865.914,4221.745Zm-5.124-5.124a2.65,2.65,0,1,1,0,3.748A2.649,2.649,0,0,1,860.79,4216.621Zm-7.927-.661v5.07a14.668,14.668,0,0,0-.724,1.885,2.871,2.871,0,0,0,.693,2.973l2.439,2.44a2.876,2.876,0,0,0,2.973.693,14.67,14.67,0,0,0,1.885-.725h5.07a14.731,14.731,0,0,0,1.885.725,2.876,2.876,0,0,0,2.973-.694l2.44-2.439a2.873,2.873,0,0,0,.692-2.973,14.52,14.52,0,0,0-.724-1.885v-5.07a14.474,14.474,0,0,0,.724-1.884,2.874,2.874,0,0,0-.692-2.974l-2.44-2.439a2.872,2.872,0,0,0-2.973-.693,14.64,14.64,0,0,0-1.885.724h-5.07a14.58,14.58,0,0,0-1.885-.724,2.872,2.872,0,0,0-2.973.693l-2.439,2.439a2.871,2.871,0,0,0-.693,2.973,14.593,14.593,0,0,0,.724,1.885Zm1.706-.939a15.9,15.9,0,0,1-.587-1.57.94.94,0,0,1,.226-.973l2.439-2.439a.94.94,0,0,1,.973-.226,15.705,15.705,0,0,1,1.57.587.974.974,0,0,0,.64.24H865.5a.978.978,0,0,0,.641-.24,15.713,15.713,0,0,1,1.57-.587.938.938,0,0,1,.972.226l2.44,2.439a.94.94,0,0,1,.226.973,16.206,16.206,0,0,1-.587,1.57.968.968,0,0,0-.241.64v5.668a.97.97,0,0,0,.241.64,16.234,16.234,0,0,1,.587,1.571.939.939,0,0,1-.226.972l-2.439,2.44a.943.943,0,0,1-.973.226,16.081,16.081,0,0,1-1.57-.587.974.974,0,0,0-.641-.241h-5.667a.972.972,0,0,0-.641.241,16.073,16.073,0,0,1-1.57.587.943.943,0,0,1-.973-.226l-2.439-2.44a.939.939,0,0,1-.226-.972,15.719,15.719,0,0,1,.587-1.57.979.979,0,0,0,.24-.641v-5.668a.973.973,0,0,0-.24-.64Zm2.1,26.475a10.578,10.578,0,1,0,10.579,10.578A10.59,10.59,0,0,0,856.667,4241.5Zm0,19.21a8.632,8.632,0,1,1,8.632-8.632A8.642,8.642,0,0,1,856.667,4260.706Zm18.775-12.215a3.018,3.018,0,0,0,.34-3.261l-2.342-4.6a3.022,3.022,0,0,0-2.839-1.642,30.089,30.089,0,0,0-3.6.311l-6.069-3.092a29.773,29.773,0,0,0-1.866-3.1,3.021,3.021,0,0,0-3-1.331l-5.1.807a3.016,3.016,0,0,0-2.438,2.192,30.065,30.065,0,0,0-.818,3.524l-4.817,4.816a30.082,30.082,0,0,0-3.523.818,3.016,3.016,0,0,0-2.192,2.439l-.808,5.1a3.018,3.018,0,0,0,1.332,3,29.918,29.918,0,0,0,3.1,1.866l3.093,6.07a29.985,29.985,0,0,0-.311,3.6,3.017,3.017,0,0,0,1.641,2.839l4.6,2.342a3.019,3.019,0,0,0,3.262-.34,29.842,29.842,0,0,0,2.732-2.37l6.728-1.066a29.98,29.98,0,0,0,3.331,1.41,3.017,3.017,0,0,0,3.207-.684l1.583-1.583a.973.973,0,0,0-1.376-1.376l-1.583,1.583a1.068,1.068,0,0,1-1.135.242,29.764,29.764,0,0,1-3.1-1.3.973.973,0,0,0-.842-.275l-7.51,1.19a.974.974,0,0,0-.716.521,29.552,29.552,0,0,1-2.544,2.195,1.066,1.066,0,0,1-1.155.12l-4.6-2.342a1.068,1.068,0,0,1-.582-1,29.989,29.989,0,0,1,.28-3.348.971.971,0,0,0,0-.886l-3.452-6.774a.971.971,0,0,0-.717-.52,30.049,30.049,0,0,1-2.873-1.742,1.066,1.066,0,0,1-.472-1.061l.807-5.1a1.071,1.071,0,0,1,.777-.864,29.819,29.819,0,0,1,3.271-.768.974.974,0,0,0,.843-.273l5.375-5.376a.971.971,0,0,0,.273-.843,29.955,29.955,0,0,1,.769-3.271,1.069,1.069,0,0,1,.863-.776l5.1-.807a1.067,1.067,0,0,1,1.061.471,29.716,29.716,0,0,1,1.742,2.874.972.972,0,0,0,.52.717l6.774,3.451a.971.971,0,0,0,.886,0,29.961,29.961,0,0,1,3.348-.28,1.069,1.069,0,0,1,1.006.582l2.342,4.6a1.069,1.069,0,0,1-.121,1.155,29.916,29.916,0,0,1-2.194,2.544.974.974,0,0,0-.522.716l-1.189,7.509a.975.975,0,0,0,.274.843,29.575,29.575,0,0,1,1.3,3.1,1.072,1.072,0,0,1,.069.315.973.973,0,1,0,1.942-.122,3.013,3.013,0,0,0-.193-.888,29.888,29.888,0,0,0-1.41-3.331l1.066-6.728a29.965,29.965,0,0,0,2.37-2.732Zm-22.6-.245h0a5.413,5.413,0,1,0,7.655,0A5.41,5.41,0,0,0,852.84,4248.246Zm6.279,6.28a3.467,3.467,0,0,1-4.9-4.9h0a3.467,3.467,0,0,1,4.9,4.9Zm-17.112-14.766,2.474-2.474a3,3,0,0,0,.632-3.334c-.646-1.484-1.029-2.291-1.288-2.748l1.348-5.031c.453-.266,1.188-.773,2.489-1.736a3,3,0,0,0,1.12-3.2l-.906-3.379a3,3,0,0,0-2.571-2.215c-1.608-.183-2.5-.255-3.023-.259L838.6,4211.7c0-.525-.076-1.415-.259-3.023a3,3,0,0,0-2.214-2.572l-3.38-.9a3,3,0,0,0-3.2,1.12c-.962,1.3-1.47,2.036-1.736,2.489l-5.03,1.348c-.457-.259-1.264-.642-2.749-1.288a3,3,0,0,0-3.334.632l-2.474,2.474a3,3,0,0,0-.632,3.334c.646,1.484,1.029,2.291,1.288,2.748l-1.348,5.031c-.453.266-1.188.773-2.489,1.736a3,3,0,0,0-1.12,3.2l.906,3.379a3,3,0,0,0,2.571,2.215c1.608.183,2.5.255,3.024.259l3.682,3.683c0,.525.076,1.415.259,3.023a3,3,0,0,0,2.215,2.572l3.379.905a3,3,0,0,0,3.2-1.12c.963-1.3,1.47-2.036,1.736-2.489l5.031-1.348c.457.259,1.264.642,2.748,1.288a3,3,0,0,0,3.334-.632Zm-6.15-2.652-5.9,1.581a.972.972,0,0,0-.688.687,26.312,26.312,0,0,1-1.674,2.408,1.064,1.064,0,0,1-1.135.4l-3.379-.905a1.063,1.063,0,0,1-.785-.912,26.349,26.349,0,0,1-.246-2.922.972.972,0,0,0-.252-.939l-4.32-4.32a.971.971,0,0,0-.939-.252,26.047,26.047,0,0,1-2.922-.246,1.065,1.065,0,0,1-.912-.784l-.9-3.379a1.061,1.061,0,0,1,.4-1.135,25.82,25.82,0,0,1,2.408-1.674.974.974,0,0,0,.687-.688l1.581-5.9a.974.974,0,0,0-.251-.94,26.092,26.092,0,0,1-1.248-2.653,1.062,1.062,0,0,1,.224-1.182l2.473-2.473a1.063,1.063,0,0,1,1.182-.224,26.037,26.037,0,0,1,2.653,1.248.973.973,0,0,0,.94.251l5.9-1.581a.976.976,0,0,0,.688-.687,25.971,25.971,0,0,1,1.673-2.408,1.063,1.063,0,0,1,1.135-.4l3.38.906a1.063,1.063,0,0,1,.784.911,26.358,26.358,0,0,1,.246,2.922.974.974,0,0,0,.252.939l4.32,4.32a.972.972,0,0,0,.939.252,26.381,26.381,0,0,1,2.922.246,1.064,1.064,0,0,1,.912.784l.9,3.38a1.064,1.064,0,0,1-.4,1.135,25.8,25.8,0,0,1-2.408,1.673.976.976,0,0,0-.687.688l-1.581,5.9a.973.973,0,0,0,.251.939,26.316,26.316,0,0,1,1.248,2.653,1.062,1.062,0,0,1-.224,1.182l-2.473,2.474a1.062,1.062,0,0,1-1.182.223,26.03,26.03,0,0,1-2.653-1.248A.974.974,0,0,0,835.857,4237.108Zm-2.508-8.48a5.655,5.655,0,1,0-8,0A5.663,5.663,0,0,0,833.349,4228.628Zm-6.621-6.621a3.709,3.709,0,1,1,0,5.245A3.708,3.708,0,0,1,826.728,4222.007Z" fill="#fff"/>
          </g>
        </g>
      </g>
      <g id="Grupo_71232" data-name="Grupo 71232">
        <path id="Trazado_162118" data-name="Trazado 162118" d="M1002.15,4506.673v6.82h-3.422v-17.062h6.434a7.069,7.069,0,0,1,4.564,1.33,4.5,4.5,0,0,1,1.647,3.709,3.758,3.758,0,0,1-.692,2.273,4.822,4.822,0,0,1-2.027,1.535,3.676,3.676,0,0,1,2.174,1.488,4.725,4.725,0,0,1,.662,2.579v1.254a6.2,6.2,0,0,0,.193,1.494,2.06,2.06,0,0,0,.662,1.154v.246h-3.527a1.927,1.927,0,0,1-.609-1.254,10.514,10.514,0,0,1-.141-1.664v-1.207a2.709,2.709,0,0,0-.7-1.986,2.629,2.629,0,0,0-1.963-.709Zm0-2.637h2.953a3.235,3.235,0,0,0,2.151-.609,2.252,2.252,0,0,0,.709-1.8,2.486,2.486,0,0,0-.709-1.863,2.882,2.882,0,0,0-2.092-.692h-3.012Z" fill="#fff"/>
        <path id="Trazado_162119" data-name="Trazado 162119" d="M1019.927,4513.739a5.706,5.706,0,0,1-4.382-1.758,6.285,6.285,0,0,1-1.641-4.465v-.468a6.939,6.939,0,0,1,1.553-4.653,5.789,5.789,0,0,1,8.15-.269,5.953,5.953,0,0,1,1.418,4.183v1.864h-7.57l-.024.07a3.29,3.29,0,0,0,.838,2.054,2.617,2.617,0,0,0,2.022.805,6.6,6.6,0,0,0,1.886-.228,8.654,8.654,0,0,0,1.641-.721l.926,2.114a6.309,6.309,0,0,1-2.027,1.054A8.8,8.8,0,0,1,1019.927,4513.739Zm-.3-10.523a1.782,1.782,0,0,0-1.5.726,3.787,3.787,0,0,0-.68,1.91l.035.059h4.2v-.305a2.743,2.743,0,0,0-.51-1.74A1.837,1.837,0,0,0,1019.623,4503.216Z" fill="#fff"/>
        <path id="Trazado_162120" data-name="Trazado 162120" d="M1032.338,4511.1a2.019,2.019,0,0,0,1.464-.53,1.866,1.866,0,0,0,.551-1.415h3.106l.035.07a3.949,3.949,0,0,1-1.447,3.217,6.1,6.1,0,0,1-8.08-.5,6.827,6.827,0,0,1-1.536-4.6v-.352a6.874,6.874,0,0,1,1.53-4.6,5.4,5.4,0,0,1,4.365-1.8,5.323,5.323,0,0,1,3.779,1.336,4.439,4.439,0,0,1,1.389,3.516l-.024.07h-3.117a2.473,2.473,0,0,0-.539-1.635,1.825,1.825,0,0,0-1.488-.65,1.987,1.987,0,0,0-1.916,1.052,5.8,5.8,0,0,0-.557,2.715v.352a5.77,5.77,0,0,0,.557,2.732A2,2,0,0,0,1032.338,4511.1Z" fill="#fff"/>
        <path id="Trazado_162121" data-name="Trazado 162121" d="M1045.052,4513.739a5.706,5.706,0,0,1-4.382-1.758,6.285,6.285,0,0,1-1.641-4.465v-.468a6.938,6.938,0,0,1,1.553-4.653,5.789,5.789,0,0,1,8.15-.269,5.954,5.954,0,0,1,1.418,4.183v1.864h-7.57l-.024.07a3.289,3.289,0,0,0,.838,2.054,2.617,2.617,0,0,0,2.022.805,6.6,6.6,0,0,0,1.886-.228,8.654,8.654,0,0,0,1.641-.721l.926,2.114a6.309,6.309,0,0,1-2.027,1.054A8.8,8.8,0,0,1,1045.052,4513.739Zm-.3-10.523a1.782,1.782,0,0,0-1.5.726,3.787,3.787,0,0,0-.68,1.91l.035.059h4.2v-.305a2.743,2.743,0,0,0-.51-1.74A1.836,1.836,0,0,0,1044.748,4503.216Z" fill="#fff"/>
        <path id="Trazado_162122" data-name="Trazado 162122" d="M1063.58,4507.5a7.281,7.281,0,0,1-1.3,4.523,4.3,4.3,0,0,1-3.633,1.711,4.057,4.057,0,0,1-1.769-.369,3.636,3.636,0,0,1-1.325-1.084v6.082h-3.41v-17.555h3.082l.2,1.5a4.075,4.075,0,0,1,1.353-1.283,3.662,3.662,0,0,1,1.846-.451,4.218,4.218,0,0,1,3.656,1.84,8.212,8.212,0,0,1,1.3,4.84Zm-3.422-.264a6.142,6.142,0,0,0-.6-2.91,1.949,1.949,0,0,0-1.828-1.115,2.569,2.569,0,0,0-1.318.317,2.26,2.26,0,0,0-.862.9V4510a2.1,2.1,0,0,0,.862.822,2.894,2.894,0,0,0,1.342.281,1.967,1.967,0,0,0,1.822-.974,5.142,5.142,0,0,0,.58-2.64Z" fill="#fff"/>
        <path id="Trazado_162123" data-name="Trazado 162123" d="M1069.756,4497.708v3.1h2.132v2.4h-2.132v6.457a1.492,1.492,0,0,0,.3,1.054,1.087,1.087,0,0,0,.821.317,3.228,3.228,0,0,0,.463-.029,4.238,4.238,0,0,0,.451-.1l.293,2.473a6.875,6.875,0,0,1-1.008.263,6.031,6.031,0,0,1-1.067.088,3.645,3.645,0,0,1-2.724-.973,4.262,4.262,0,0,1-.955-3.082v-6.468h-1.852v-2.4h1.852v-3.1Z" fill="#fff"/>
        <path id="Trazado_162124" data-name="Trazado 162124" d="M1073.541,4507.036a6.8,6.8,0,0,1,1.582-4.646,5.51,5.51,0,0,1,4.383-1.811,5.575,5.575,0,0,1,4.406,1.8,6.772,6.772,0,0,1,1.594,4.652v.246a6.78,6.78,0,0,1-1.588,4.658,6.267,6.267,0,0,1-8.789,0,6.775,6.775,0,0,1-1.588-4.658Zm3.41.24a5.51,5.51,0,0,0,.609,2.78,2.106,2.106,0,0,0,1.969,1.046,2.084,2.084,0,0,0,1.94-1.052,5.467,5.467,0,0,0,.615-2.774v-.246a5.415,5.415,0,0,0-.621-2.75,2.1,2.1,0,0,0-1.957-1.064,2.078,2.078,0,0,0-1.94,1.07,5.46,5.46,0,0,0-.615,2.744Z" fill="#fff"/>
        <path id="Trazado_162125" data-name="Trazado 162125" d="M1094.283,4503.755l-1.254-.035a2.279,2.279,0,0,0-1.254.316,2.007,2.007,0,0,0-.75.891v8.566h-3.41v-12.68h3.176l.152,1.875a4,4,0,0,1,1.154-1.552,2.7,2.7,0,0,1,2.11-.516c.144.027.291.061.439.1Z" fill="#fff"/>
      </g>
      <g id="Grupo_71233" data-name="Grupo 71233">
        <path id="Trazado_162126" data-name="Trazado 162126" d="M247.681,4505.993h-7.066v4.863h8.262v2.637H237.193v-17.062h11.66v2.636h-8.238v4.289h7.066Z" fill="#fff"/>
        <path id="Trazado_162127" data-name="Trazado 162127" d="M253.869,4500.813l.141,1.676a4.262,4.262,0,0,1,1.529-1.412,4.4,4.4,0,0,1,2.127-.5,3.875,3.875,0,0,1,2.086.539,3.322,3.322,0,0,1,1.312,1.629,4.4,4.4,0,0,1,1.524-1.594,4.132,4.132,0,0,1,2.2-.574,3.656,3.656,0,0,1,2.959,1.295,6.047,6.047,0,0,1,1.084,3.943v7.676h-3.422v-7.705a3.219,3.219,0,0,0-.469-2.009,1.71,1.71,0,0,0-1.394-.563,2.378,2.378,0,0,0-1.26.323,2.349,2.349,0,0,0-.85.9c0,.149,0,.277.012.382s.012.213.012.322v8.352h-3.411v-7.705a3.235,3.235,0,0,0-.468-1.991,1.7,1.7,0,0,0-1.407-.581,2.651,2.651,0,0,0-1.212.264,2.332,2.332,0,0,0-.862.745v9.268h-3.41v-12.68Z" fill="#fff"/>
        <path id="Trazado_162128" data-name="Trazado 162128" d="M275.056,4497.778h-3.421v-2.566h3.421Zm0,15.715h-3.421v-12.68h3.421Z" fill="#fff"/>
        <path id="Trazado_162129" data-name="Trazado 162129" d="M284.724,4510a1.2,1.2,0,0,0-.545-.973,5.57,5.57,0,0,0-2.021-.726,8.144,8.144,0,0,1-3.393-1.354,2.941,2.941,0,0,1-1.142-2.443,3.491,3.491,0,0,1,1.377-2.783,5.586,5.586,0,0,1,3.685-1.143,6.052,6.052,0,0,1,3.862,1.137,3.359,3.359,0,0,1,1.377,2.871l-.024.07h-3.3a1.669,1.669,0,0,0-.486-1.242,2.33,2.33,0,0,0-2.73-.076,1.274,1.274,0,0,0-.475,1.013,1.153,1.153,0,0,0,.5.961,5.437,5.437,0,0,0,2.022.668,8.2,8.2,0,0,1,3.48,1.377,3.028,3.028,0,0,1,1.137,2.5,3.333,3.333,0,0,1-1.465,2.795,6.345,6.345,0,0,1-3.867,1.084,5.878,5.878,0,0,1-4-1.283,3.59,3.59,0,0,1-1.4-2.924l.024-.07h3.129a1.776,1.776,0,0,0,.668,1.476,2.753,2.753,0,0,0,1.652.457,2.376,2.376,0,0,0,1.447-.375A1.207,1.207,0,0,0,284.724,4510Z" fill="#fff"/>
        <path id="Trazado_162130" data-name="Trazado 162130" d="M289.717,4507.036a6.8,6.8,0,0,1,1.582-4.646,5.509,5.509,0,0,1,4.382-1.811,5.577,5.577,0,0,1,4.407,1.8,6.771,6.771,0,0,1,1.593,4.652v.246a6.78,6.78,0,0,1-1.587,4.658,6.268,6.268,0,0,1-8.79,0,6.78,6.78,0,0,1-1.587-4.658Zm3.41.24a5.51,5.51,0,0,0,.609,2.78,2.1,2.1,0,0,0,1.969,1.046,2.082,2.082,0,0,0,1.939-1.052,5.467,5.467,0,0,0,.616-2.774v-.246a5.414,5.414,0,0,0-.622-2.75,2.1,2.1,0,0,0-1.957-1.064,2.078,2.078,0,0,0-1.939,1.07,5.461,5.461,0,0,0-.615,2.744Z" fill="#fff"/>
        <path id="Trazado_162131" data-name="Trazado 162131" d="M310.459,4503.755l-1.254-.035a2.279,2.279,0,0,0-1.254.316,2.007,2.007,0,0,0-.75.891v8.566h-3.41v-12.68h3.176l.152,1.875a4,4,0,0,1,1.154-1.552,2.7,2.7,0,0,1,2.11-.516c.144.027.291.061.439.1Z" fill="#fff"/>
      </g>
      <g id="Grupo_71234" data-name="Grupo 71234">
        <path id="Trazado_162132" data-name="Trazado 162132" d="M808.755,4478.76v-21.271H787.484v6.077h10.9l-14.16,14.159-15.193-12.154-17.118,17.117,4.3,4.3,13.27-13.27,15.193,12.154,18.006-18.006v10.9Z" fill="#0d66bf"/>
        <path id="Trazado_162133" data-name="Trazado 162133" d="M748.208,4434.213l15.193,12.154,18.006-18.006v10.9h6.077v-21.27h-21.27v6.077h10.9l-14.161,14.159-15.193-12.154-17.117,17.117,4.3,4.3Z" fill="#0d66bf"/>
        <path id="Trazado_162134" data-name="Trazado 162134" d="M805.716,4500.03v6.077h10.9l-14.161,14.159-15.193-12.154-17.117,17.117,4.3,4.3,13.27-13.27L802.9,4528.41l18.006-18.006v10.9h6.077v-21.27Z" fill="#0d66bf"/>
      </g>
      <g id="Grupo_71235" data-name="Grupo 71235">
        <path id="Trazado_162135" data-name="Trazado 162135" d="M509.043,4475.162v-21.27h21.271v6.077h-10.9l14.16,14.159,15.193-12.154,17.118,17.117-4.3,4.3-13.27-13.27-15.193,12.154-18.007-18.006v10.9Z" fill="#0d66bf"/>
        <path id="Trazado_162136" data-name="Trazado 162136" d="M569.59,4430.616,554.4,4442.77l-18.006-18.006v10.9h-6.077v-21.27h21.27v6.077h-10.9l14.161,14.159,15.193-12.154,17.117,17.117-4.3,4.3Z" fill="#0d66bf"/>
        <path id="Trazado_162137" data-name="Trazado 162137" d="M512.082,4496.433v6.077h-10.9l14.161,14.159,15.193-12.154,17.117,17.117-4.3,4.3-13.27-13.27L514.9,4524.813l-18.006-18.006v10.9h-6.078v-21.27Z" fill="#0d66bf"/>
      </g>
      <g id="Grupo_71236" data-name="Grupo 71236">
        <path id="Trazado_162138" data-name="Trazado 162138" d="M637.818,4384.735l19.121-9.318,9.318,19.121-5.463,2.662-4.774-9.8-6.524,18.932,17.582,8.333-7.889,22.886-5.745-1.98,6.116-17.743-17.582-8.333,8.3-24.074-9.795,4.773Z" fill="#0d66bf"/>
        <path id="Trazado_162139" data-name="Trazado 162139" d="M704.388,4419.648l-17.582-8.333,8.3-24.075-9.795,4.774-2.663-5.463,19.121-9.319,9.318,19.121-5.463,2.662-4.774-9.8-6.524,18.932,17.582,8.333-7.889,22.886-5.745-1.98Z" fill="#0d66bf"/>
        <path id="Trazado_162140" data-name="Trazado 162140" d="M620.029,4396.785l-5.463,2.662-4.774-9.8-6.525,18.932,17.582,8.333-7.888,22.886-5.745-1.98,6.115-17.742-17.582-8.333,8.3-24.075-9.795,4.774-2.662-5.463,19.121-9.319Z" fill="#0d66bf"/>
      </g>
      <g id="Grupo_71237" data-name="Grupo 71237">
        <path id="Trazado_162141" data-name="Trazado 162141" d="M637.818,4577.794l19.121,9.318,9.318-19.121-5.463-2.662-4.774,9.8-6.524-18.933,17.582-8.333-7.889-22.886-5.745,1.98,6.116,17.743-17.582,8.333,8.3,24.074-9.795-4.773Z" fill="#0d66bf"/>
        <path id="Trazado_162142" data-name="Trazado 162142" d="M704.388,4542.882l-17.582,8.332,8.3,24.075-9.795-4.773-2.663,5.463,19.121,9.318,9.318-19.121-5.463-2.662-4.774,9.8-6.524-18.932,17.582-8.333-7.889-22.886-5.745,1.98Z" fill="#0d66bf"/>
        <path id="Trazado_162143" data-name="Trazado 162143" d="M620.029,4565.744l-5.463-2.662-4.774,9.8-6.525-18.932,17.582-8.333-7.888-22.886-5.745,1.98,6.115,17.742-17.582,8.333,8.3,24.075-9.795-4.774-2.662,5.463,19.121,9.319Z" fill="#0d66bf"/>
      </g>
      <g id="Grupo_71238" data-name="Grupo 71238">
        <rect id="Rectángulo_20253" data-name="Rectángulo 20253" width="174.347" height="76.683" rx="13.659" transform="translate(571.273 4445.047)" fill="#073360"/>
        <rect id="Rectángulo_20254" data-name="Rectángulo 20254" width="166.836" height="69.589" rx="11.478" transform="translate(575.029 4448.594)" fill="#fff"/>
        <rect id="Rectángulo_20255" data-name="Rectángulo 20255" width="159.805" height="63.273" rx="8.206" transform="translate(578.544 4451.752)" fill="#0d66bf"/>
      </g>
      <g id="Grupo_71239" data-name="Grupo 71239">
        <path id="Trazado_162144" data-name="Trazado 162144" d="M631.917,4487.334v6.82h-3.422v-17.062h6.433a7.075,7.075,0,0,1,4.565,1.33,4.5,4.5,0,0,1,1.646,3.709,3.753,3.753,0,0,1-.691,2.273,4.829,4.829,0,0,1-2.027,1.535,3.668,3.668,0,0,1,2.173,1.489,4.71,4.71,0,0,1,.663,2.578v1.254a6.2,6.2,0,0,0,.193,1.494,2.059,2.059,0,0,0,.662,1.154v.246h-3.527a1.927,1.927,0,0,1-.61-1.254,10.638,10.638,0,0,1-.14-1.664v-1.207a2.711,2.711,0,0,0-.7-1.986,2.625,2.625,0,0,0-1.962-.709Zm0-2.637h2.953a3.231,3.231,0,0,0,2.15-.609,2.247,2.247,0,0,0,.709-1.8,2.482,2.482,0,0,0-.709-1.863,2.88,2.88,0,0,0-2.092-.692h-3.011Z" fill="#fff"/>
        <path id="Trazado_162145" data-name="Trazado 162145" d="M651.827,4492.326a4.259,4.259,0,0,1-1.488,1.535,4.39,4.39,0,0,1-5.209-.744,5.919,5.919,0,0,1-1.131-3.99v-7.653h3.41v7.694a3.29,3.29,0,0,0,.469,1.991,1.642,1.642,0,0,0,1.383.6,3.4,3.4,0,0,0,1.406-.265,2.384,2.384,0,0,0,.961-.78v-9.245h3.422v12.68h-2.918Z" fill="#fff"/>
        <path id="Trazado_162146" data-name="Trazado 162146" d="M661.225,4478.439H657.8v-2.566h3.422Zm0,15.715H657.8v-12.68h3.422Z" fill="#fff"/>
        <path id="Trazado_162147" data-name="Trazado 162147" d="M663.511,4487.92a8.243,8.243,0,0,1,1.294-4.84,4.206,4.206,0,0,1,3.651-1.84,3.556,3.556,0,0,1,1.711.41,4.122,4.122,0,0,1,1.336,1.172v-6.949h3.433v18.281h-2.941l-.281-1.547a4.2,4.2,0,0,1-1.412,1.336,3.75,3.75,0,0,1-1.87.457,4.288,4.288,0,0,1-3.627-1.711,7.305,7.305,0,0,1-1.294-4.523Zm3.41.248a5.224,5.224,0,0,0,.562,2.635,1.958,1.958,0,0,0,1.828.961,2.652,2.652,0,0,0,1.289-.3,2.383,2.383,0,0,0,.9-.878v-5.435a2.651,2.651,0,0,0-.9-.937,2.371,2.371,0,0,0-1.271-.336A1.929,1.929,0,0,0,667.5,4485a6.358,6.358,0,0,0-.58,2.924Z" fill="#fff"/>
        <path id="Trazado_162148" data-name="Trazado 162148" d="M677.057,4487.7a6.808,6.808,0,0,1,1.582-4.646,6.246,6.246,0,0,1,8.789-.006,6.765,6.765,0,0,1,1.594,4.652v.246a6.777,6.777,0,0,1-1.588,4.658,6.267,6.267,0,0,1-8.789,0,6.781,6.781,0,0,1-1.588-4.658Zm3.411.24a5.508,5.508,0,0,0,.609,2.78,2.343,2.343,0,0,0,3.908-.006,5.468,5.468,0,0,0,.615-2.774v-.246a5.411,5.411,0,0,0-.621-2.75,2.1,2.1,0,0,0-1.957-1.064,2.076,2.076,0,0,0-1.939,1.07,5.463,5.463,0,0,0-.615,2.744Z" fill="#fff"/>
      </g>
    </g>
  </g>
</svg>
